<?xml version="1.0" encoding="utf-8"?>
<!-- Generator: Adobe Illustrator 23.0.3, SVG Export Plug-In . SVG Version: 6.00 Build 0)  -->
<svg version="1.1" id="Layer_1" xmlns="http://www.w3.org/2000/svg" xmlns:xlink="http://www.w3.org/1999/xlink" x="0px" y="0px"
	 viewBox="0 0 2399 3595" style="enable-background:new 0 0 2399 3595;" xml:space="preserve">
<style type="text/css">
	.st0{stroke:#000000;stroke-miterlimit:10;}
	.st1{stroke:#353535;stroke-miterlimit:10;}
	.st2{stroke:#1C1C1C;stroke-miterlimit:10;}
	.st3{fill:#121212;}
	.st4{fill:#1C1C1C;}
	.st5{fill:#303030;}
	.st6{fill:#9756D8;}
	.st7{fill:#5827B8;}
	.st8{fill:#280749;}
	.st9{fill:#00D0FE;}
	.st10{fill:none;}
</style>
<polygon class="st0" points="1444,-5 1200,-5 1420,-5 "/>
<polygon class="st1" points="2246,1135 2130,1411 2178,1454 "/>
<polygon class="st1" points="2323,755 2320,508 2254,639 "/>
<polygon class="st1" points="2369,485 2320,508 2323,755 "/>
<polygon class="st1" points="2370,300 2186,13 2334,337 "/>
<polygon class="st1" points="2370,300 2334,337 2369,485 "/>
<polygon class="st1" points="2379,2147 2324,1952 2309,2053 "/>
<polygon class="st1" points="2380,88 2186,13 2370,300 "/>
<polygon class="st1" points="2394,2500 2382,2372 2267,2300 "/>
<polygon class="st1" points="2400,1764 2294,1565 2295,1705 "/>
<polygon class="st1" points="2400,2930 2214,2983 2231,3004 "/>
<polygon class="st1" points="2400,2930 2151,2826 2214,2983 "/>
<polygon class="st1" points="2400,2930 2231,3004 2317,3130 "/>
<polygon class="st1" points="2400,2296 2379,2147 2259,2238 "/>
<polygon class="st1" points="2400,2296 2259,2238 2267,2300 "/>
<polygon class="st1" points="2400,2296 2267,2300 2382,2372 "/>
<polygon class="st1" points="2400,2296 2382,2372 2394,2500 "/>
<polygon class="st1" points="2400,2762 2151,2826 2400,2930 "/>
<polygon class="st1" points="2400,2762 2326,2592 2151,2826 "/>
<polygon class="st1" points="2400,2762 2394,2500 2326,2592 "/>
<polygon class="st1" points="2400,2762 2400,2296 2394,2500 "/>
<polygon class="st1" points="2400,1171 2178,1454 2294,1565 "/>
<polygon class="st1" points="2400,1171 2367,1100 2246,1135 "/>
<polygon class="st1" points="2400,1171 2246,1135 2178,1454 "/>
<polygon class="st1" points="2400,1171 2294,1565 2400,1764 "/>
<polygon class="st1" points="2400,918 2204,1023 2367,1100 "/>
<polygon class="st1" points="2400,918 2323,755 2204,1023 "/>
<polygon class="st1" points="2400,918 2369,485 2323,755 "/>
<polygon class="st1" points="2400,918 2367,1100 2400,1171 "/>
<polygon class="st1" points="2400,3302 2317,3130 2021,3199 "/>
<polygon class="st1" points="2400,3302 2021,3199 1952,3416 "/>
<polygon class="st1" points="2400,3302 1952,3416 2000,3595 "/>
<polygon class="st1" points="2400,3302 2400,2930 2317,3130 "/>
<polygon class="st1" points="2400,3595 2400,3302 2000,3595 "/>
<polygon class="st1" points="2400,1795 2224,1862 2324,1952 "/>
<polygon class="st1" points="2400,1795 2400,1764 2295,1705 "/>
<polygon class="st1" points="2400,1795 2295,1705 2224,1862 "/>
<polygon class="st1" points="2400,1795 2324,1952 2379,2147 "/>
<polygon class="st1" points="2400,1795 2379,2147 2400,2296 "/>
<polygon class="st1" points="2400,-5 1972,-5 2186,13 "/>
<polygon class="st1" points="2400,-5 2186,13 2380,88 "/>
<polygon class="st1" points="2400,-5 2380,88 2370,300 "/>
<polygon class="st1" points="2400,-5 2370,300 2369,485 "/>
<polygon class="st1" points="2400,-5 2369,485 2400,918 "/>
<polygon class="st1" points="2369,485 2334,337 2320,508 "/>
<polygon class="st1" points="2394,2500 2267,2300 2326,2592 "/>
<polygon class="st1" points="2379,2147 2309,2053 2259,2238 "/>
<polygon class="st1" points="2324,1952 2282,2033 2309,2053 "/>
<polygon class="st1" points="2326,2592 2267,2300 2064,2601 "/>
<polygon class="st1" points="2367,1100 2204,1023 2246,1135 "/>
<polygon class="st1" points="2323,755 2169,1018 2204,1023 "/>
<polygon class="st1" points="2323,755 2063,801 2169,1018 "/>
<polygon class="st1" points="2334,337 2186,13 2014,66 "/>
<polygon class="st1" points="2309,2053 2282,2033 2259,2238 "/>
<polygon class="st1" points="2317,3130 2023,3183 2021,3199 "/>
<polygon class="st1" points="2326,2592 2064,2601 2151,2826 "/>
<polygon class="st1" points="2334,337 2091,545 2320,508 "/>
<polygon class="st1" points="2334,337 2014,66 2091,545 "/>
<polygon class="st1" points="2246,1135 2054,1355 2130,1411 "/>
<polygon class="st1" points="2317,3130 2072,3074 2023,3183 "/>
<polygon class="st1" points="2324,1952 2224,1862 2282,2033 "/>
<polygon class="st1" points="2323,755 2254,639 2063,801 "/>
<polygon class="st1" points="2282,2033 2075,2071 2259,2238 "/>
<polygon class="st1" points="2320,508 2091,545 2254,639 "/>
<polygon class="st1" points="2317,3130 2231,3004 2072,3074 "/>
<polygon class="st1" points="2091,545 2014,66 1974,526 "/>
<polygon class="st1" points="2295,1705 2294,1565 2150,1471 "/>
<polygon class="st1" points="2282,2033 2224,1862 2102,2004 "/>
<polygon class="st1" points="2294,1565 2178,1454 2150,1471 "/>
<polygon class="st1" points="2295,1705 2150,1471 1947,1596 "/>
<polygon class="st1" points="2295,1705 1947,1596 2104,1852 "/>
<polygon class="st1" points="2295,1705 2104,1852 2224,1862 "/>
<polygon class="st1" points="2104,1852 1947,1596 1949,1754 "/>
<polygon class="st2" points="2267,2300 1907,2270 2064,2601 "/>
<polygon class="st1" points="2282,2033 2102,2004 2075,2071 "/>
<polygon class="st2" points="2267,2300 2259,2238 1907,2270 "/>
<polygon class="st1" points="2246,1135 1962,1138 2054,1355 "/>
<polygon class="st1" points="2254,639 2091,545 2063,801 "/>
<polygon class="st2" points="2259,2238 2035,2095 1907,2270 "/>
<polygon class="st1" points="2259,2238 2075,2071 2035,2095 "/>
<polygon class="st1" points="2000,3595 1952,3416 1983,3578 "/>
<polygon class="st1" points="2246,1135 2204,1023 2169,1018 "/>
<polygon class="st1" points="2224,1862 2104,1852 2102,2004 "/>
<polygon class="st1" points="2246,1135 2169,1018 2063,1012 "/>
<polygon class="st1" points="2246,1135 2063,1012 1962,1138 "/>
<polygon class="st2" points="2014,66 1831,153 1974,526 "/>
<polygon class="st1" points="2063,801 2008,948 2063,1012 "/>
<polygon class="st1" points="2169,1018 2063,801 2063,1012 "/>
<polygon class="st1" points="2231,3004 2214,2983 2072,3074 "/>
<polygon class="st2" points="1974,526 1831,153 1894,503 "/>
<polygon class="st2" points="2064,2601 1907,2270 1840,2390 "/>
<polygon class="st1" points="2214,2983 2151,2826 2072,3074 "/>
<polygon class="st1" points="2021,3199 1933,3281 1952,3416 "/>
<polygon class="st1" points="2151,2826 1960,2814 2072,3074 "/>
<polygon class="st1" points="2151,2826 2064,2601 1960,2814 "/>
<polygon class="st1" points="2186,13 1972,-5 2014,66 "/>
<polygon class="st1" points="2178,1454 2130,1411 2150,1471 "/>
<polygon class="st1" points="2072,3074 1960,2814 1974,3070 "/>
<polygon class="st1" points="2064,2601 1932,2657 1960,2814 "/>
<polygon class="st1" points="2091,545 1974,526 2063,801 "/>
<polygon class="st1" points="2150,1471 2130,1411 2054,1355 "/>
<polygon class="st1" points="2150,1471 2054,1355 1947,1596 "/>
<polygon class="st2" points="2054,1355 1884,1448 1947,1596 "/>
<polygon class="st2" points="2063,801 1974,526 1887,581 "/>
<polygon class="st1" points="2104,1852 2039,2016 2102,2004 "/>
<polygon class="st2" points="2014,66 1959,57 1831,153 "/>
<polygon class="st1" points="2102,2004 2039,2016 2075,2071 "/>
<polygon class="st2" points="2104,1852 1884,1810 2039,2016 "/>
<polygon class="st2" points="2104,1852 1949,1754 1884,1810 "/>
<polygon class="st2" points="1959,57 1936,60 1831,153 "/>
<polygon class="st2" points="2054,1355 1962,1138 1867,1323 "/>
<polygon class="st2" points="2064,2601 1840,2390 1932,2657 "/>
<polygon class="st1" points="2021,3199 1969,3209 1933,3281 "/>
<polygon class="st1" points="2072,3074 1974,3070 2023,3183 "/>
<polygon class="st1" points="2075,2071 2039,2016 2035,2095 "/>
<polygon class="st2" points="2035,2095 1858,2137 1907,2270 "/>
<polygon class="st1" points="2063,1012 2008,948 1962,1138 "/>
<polygon class="st0" points="2063,801 1887,581 1729,676 "/>
<polygon class="st0" points="2063,801 1730,893 2008,948 "/>
<polygon class="st0" points="2063,801 1729,676 1730,893 "/>
<polygon class="st1" points="2000,3595 1983,3578 1694,3595 "/>
<polygon class="st2" points="2054,1355 1867,1323 1884,1448 "/>
<polygon class="st2" points="2039,2016 1884,1810 1764,1916 "/>
<polygon class="st2" points="2039,2016 1858,2137 2035,2095 "/>
<polygon class="st2" points="2039,2016 1764,1916 1858,2137 "/>
<polygon class="st0" points="1894,503 1831,153 1722,216 "/>
<polygon class="st2" points="1974,3070 1960,2814 1893,3097 "/>
<polygon class="st1" points="2023,3183 1974,3070 1969,3209 "/>
<polygon class="st2" points="1974,3070 1893,3097 1969,3209 "/>
<polygon class="st2" points="2008,948 1797,1091 1962,1138 "/>
<polygon class="st1" points="2014,66 1972,-5 1959,57 "/>
<polygon class="st1" points="2023,3183 1969,3209 2021,3199 "/>
<polygon class="st0" points="2008,948 1730,893 1797,1091 "/>
<polygon class="st2" points="1960,2814 1658,2942 1893,3097 "/>
<polygon class="st1" points="1983,3578 1952,3416 1763,3496 "/>
<polygon class="st2" points="1893,3097 1658,2942 1841,3112 "/>
<polygon class="st2" points="1949,1754 1947,1596 1842,1592 "/>
<polygon class="st1" points="1983,3578 1763,3496 1694,3595 "/>
<polygon class="st0" points="1932,2657 1840,2390 1686,2633 "/>
<polygon class="st2" points="1947,1596 1884,1448 1842,1592 "/>
<polygon class="st2" points="1962,1138 1797,1091 1867,1323 "/>
<polygon class="st2" points="1969,3209 1893,3097 1843,3243 "/>
<polygon class="st1" points="1972,-5 1936,60 1959,57 "/>
<polygon class="st2" points="1974,526 1894,503 1887,581 "/>
<polygon class="st2" points="1949,1754 1842,1592 1796,1622 "/>
<polygon class="st2" points="1972,-5 1789,-5 1936,60 "/>
<polygon class="st2" points="1969,3209 1843,3243 1933,3281 "/>
<polygon class="st2" points="1893,3097 1841,3112 1843,3243 "/>
<polygon class="st1" points="1952,3416 1933,3281 1756,3374 "/>
<polygon class="st0" points="1960,2814 1932,2657 1686,2633 "/>
<polygon class="st0" points="1960,2814 1686,2633 1623,2788 "/>
<polygon class="st0" points="1960,2814 1623,2788 1658,2942 "/>
<polygon class="st2" points="1949,1754 1750,1723 1884,1810 "/>
<polygon class="st2" points="1949,1754 1796,1622 1750,1723 "/>
<polygon class="st0" points="1894,503 1722,216 1617,358 "/>
<polygon class="st1" points="1933,3281 1843,3243 1756,3374 "/>
<polygon class="st1" points="1952,3416 1756,3374 1763,3496 "/>
<polygon class="st2" points="1936,60 1789,-5 1831,153 "/>
<polygon class="st0" points="1840,2390 1692,2411 1686,2633 "/>
<polygon class="st0" points="1887,581 1798,563 1729,676 "/>
<polygon class="st0" points="1894,503 1617,358 1798,563 "/>
<polygon class="st2" points="1907,2270 1858,2137 1741,2328 "/>
<polygon class="st2" points="1907,2270 1741,2328 1840,2390 "/>
<polygon class="st2" points="1884,1448 1867,1323 1742,1396 "/>
<polygon class="st2" points="1884,1448 1742,1396 1842,1592 "/>
<polygon class="st2" points="1894,503 1798,563 1887,581 "/>
<polygon class="st2" points="1867,1323 1797,1091 1742,1396 "/>
<polygon class="st0" points="1884,1810 1722,1801 1764,1916 "/>
<polygon class="st0" points="1884,1810 1750,1723 1722,1801 "/>
<polygon class="st0" points="1798,563 1617,358 1609,491 "/>
<polygon class="st2" points="1842,1592 1742,1396 1796,1622 "/>
<polygon class="st0" points="1858,2137 1764,1916 1588,2109 "/>
<polygon class="st0" points="1797,1091 1509,1293 1742,1396 "/>
<polygon class="st0" points="1858,2137 1588,2109 1741,2328 "/>
<polygon class="st0" points="1789,-5 1444,-5 1575,70 "/>
<polygon class="st0" points="1796,1622 1742,1396 1620,1560 "/>
<polygon class="st0" points="1831,153 1789,-5 1722,216 "/>
<polygon class="st2" points="1843,3243 1841,3112 1540,3316 "/>
<polygon class="st1" points="1843,3243 1540,3316 1756,3374 "/>
<polygon class="st2" points="1841,3112 1658,2942 1540,3316 "/>
<polygon class="st0" points="1840,2390 1741,2328 1692,2411 "/>
<polygon class="st0" points="1741,2328 1588,2109 1563,2269 "/>
<polygon class="st0" points="1741,2328 1686,2391 1692,2411 "/>
<polygon class="st1" points="1756,3374 1540,3316 1630,3403 "/>
<polygon class="st0" points="1764,1916 1560,2012 1588,2109 "/>
<polygon class="st0" points="1789,-5 1575,70 1722,216 "/>
<polygon class="st0" points="1797,1091 1730,893 1456,1091 "/>
<polygon class="st0" points="1797,1091 1456,1091 1509,1293 "/>
<polygon class="st0" points="1798,563 1609,491 1729,676 "/>
<polygon class="st0" points="1796,1622 1620,1560 1750,1723 "/>
<polygon class="st0" points="1200,-5 737,-5 968,29 "/>
<polygon class="st0" points="1729,676 1609,491 1571,547 "/>
<polygon class="st0" points="1730,893 1729,676 1483,869 "/>
<polygon class="st0" points="1730,893 1483,869 1456,1091 "/>
<polygon class="st0" points="1750,1723 1620,1560 1590,1708 "/>
<polygon class="st1" points="1763,3496 1585,3501 1694,3595 "/>
<polygon class="st1" points="1763,3496 1630,3403 1585,3501 "/>
<polygon class="st1" points="1763,3496 1756,3374 1630,3403 "/>
<polygon class="st0" points="1764,1916 1722,1801 1560,2012 "/>
<polygon class="st0" points="1729,676 1437,758 1483,869 "/>
<polygon class="st0" points="1750,1723 1590,1708 1722,1801 "/>
<polygon class="st0" points="1692,2411 1490,2571 1686,2633 "/>
<polygon class="st0" points="1722,1801 1463,1835 1560,2012 "/>
<polygon class="st0" points="1741,2328 1563,2269 1686,2391 "/>
<polygon class="st0" points="1742,1396 1467,1417 1620,1560 "/>
<polygon class="st0" points="1742,1396 1509,1293 1467,1417 "/>
<polygon class="st0" points="1729,676 1571,547 1437,758 "/>
<polygon class="st0" points="1692,2411 1542,2388 1490,2571 "/>
<polygon class="st0" points="1620,1560 1585,1579 1590,1708 "/>
<polygon class="st0" points="1722,1801 1590,1708 1463,1835 "/>
<polygon class="st0" points="1722,216 1575,70 1617,358 "/>
<polygon class="st0" points="1617,358 1575,70 1437,291 "/>
<polygon class="st2" points="1658,2942 1430,3314 1540,3316 "/>
<polygon class="st0" points="1658,2942 1451,2848 1430,3314 "/>
<polygon class="st0" points="1686,2391 1563,2269 1542,2388 "/>
<polygon class="st1" points="1694,3595 1585,3501 1462,3595 "/>
<polygon class="st0" points="1686,2633 1490,2571 1623,2788 "/>
<polygon class="st0" points="1692,2411 1686,2391 1542,2388 "/>
<polygon class="st0" points="1451,2848 1290,3270 1430,3314 "/>
<polygon class="st0" points="1588,2109 1551,2115 1563,2269 "/>
<polygon class="st0" points="1620,1560 1467,1417 1585,1579 "/>
<polygon class="st0" points="1658,2942 1623,2788 1451,2848 "/>
<polygon class="st0" points="1451,2848 1208,3174 1290,3270 "/>
<polygon class="st0" points="1451,2848 1190,3013 1208,3174 "/>
<polygon class="st1" points="1585,3501 1525,3499 1462,3595 "/>
<polygon class="st0" points="1617,358 1492,449 1609,491 "/>
<polygon class="st0" points="1623,2788 1490,2571 1451,2848 "/>
<polygon class="st1" points="1630,3403 1508,3385 1585,3501 "/>
<polygon class="st1" points="1630,3403 1540,3316 1508,3385 "/>
<polygon class="st1" points="1585,3501 1508,3385 1525,3499 "/>
<polygon class="st0" points="1585,1579 1467,1417 1431,1461 "/>
<polygon class="st1" points="1200,3595 1183,3591 952,3595 "/>
<polygon class="st0" points="1542,2388 1482,2568 1490,2571 "/>
<polygon class="st0" points="1617,358 1437,291 1492,449 "/>
<polygon class="st0" points="1563,2269 1551,2115 1479,2131 "/>
<polygon class="st0" points="1588,2109 1560,2012 1551,2115 "/>
<polygon class="st0" points="1609,491 1492,449 1571,547 "/>
<polygon class="st0" points="1563,2269 1463,2292 1542,2388 "/>
<polygon class="st0" points="1571,547 1361,551 1437,758 "/>
<polygon class="st0" points="1575,70 1444,-5 1437,291 "/>
<polygon class="st0" points="1590,1708 1585,1579 1282,1583 "/>
<polygon class="st0" points="1590,1708 1282,1583 1463,1835 "/>
<polygon class="st0" points="1585,1579 1431,1461 1282,1583 "/>
<polygon class="st0" points="1444,-5 1420,-5 1437,291 "/>
<polygon class="st0" points="1490,2571 1482,2568 1451,2848 "/>
<polygon class="st0" points="1560,2012 1479,2131 1551,2115 "/>
<polygon class="st0" points="1560,2012 1463,1835 1351,1963 "/>
<polygon class="st0" points="1563,2269 1479,2131 1463,2292 "/>
<polygon class="st0" points="1571,547 1492,449 1361,551 "/>
<polygon class="st0" points="1483,869 1373,897 1456,1091 "/>
<polygon class="st0" points="1560,2012 1351,1963 1479,2131 "/>
<polygon class="st0" points="1509,1293 1456,1091 1326,1195 "/>
<polygon class="st0" points="1542,2388 1339,2314 1482,2568 "/>
<polygon class="st1" points="1540,3316 1430,3314 1508,3385 "/>
<polygon class="st0" points="1542,2388 1463,2292 1339,2314 "/>
<polygon class="st0" points="1437,291 1420,-5 1322,297 "/>
<polygon class="st0" points="1482,2568 1228,2564 1451,2848 "/>
<polygon class="st1" points="1525,3499 1508,3385 1420,3595 "/>
<polygon class="st1" points="1525,3499 1420,3595 1428,3595 "/>
<polygon class="st1" points="1525,3499 1428,3595 1462,3595 "/>
<polygon class="st1" points="1430,3314 1193,3445 1420,3595 "/>
<polygon class="st0" points="1463,1835 1282,1583 1213,1676 "/>
<polygon class="st0" points="1463,1835 1340,1895 1351,1963 "/>
<polygon class="st0" points="1482,2568 1339,2314 1228,2564 "/>
<polygon class="st0" points="1492,449 1437,291 1371,459 "/>
<polygon class="st0" points="1492,449 1371,459 1361,551 "/>
<polygon class="st1" points="1508,3385 1430,3314 1420,3595 "/>
<polygon class="st0" points="1509,1293 1326,1195 1467,1417 "/>
<polygon class="st0" points="1437,758 1361,551 1284,611 "/>
<polygon class="st0" points="1451,2848 1228,2564 1164,2839 "/>
<polygon class="st0" points="1456,1091 1373,897 1300,1047 "/>
<polygon class="st0" points="1463,1835 1213,1676 1340,1895 "/>
<polygon class="st0" points="1467,1417 1326,1195 1306,1203 "/>
<polygon class="st0" points="1479,2131 1339,2314 1463,2292 "/>
<polygon class="st0" points="1483,869 1437,758 1373,897 "/>
<polygon class="st0" points="1451,2848 1196,2878 1190,3013 "/>
<polygon class="st0" points="1479,2131 1351,1963 1279,2006 "/>
<polygon class="st0" points="1467,1417 1306,1203 1431,1461 "/>
<polygon class="st0" points="1451,2848 1164,2839 1196,2878 "/>
<polygon class="st0" points="1420,-5 1200,-5 1322,297 "/>
<polygon class="st0" points="1479,2131 1279,2006 1339,2314 "/>
<polygon class="st0" points="1371,459 1322,297 1340,451 "/>
<polygon class="st0" points="1437,291 1322,297 1371,459 "/>
<polygon class="st1" points="1430,3314 1290,3270 1193,3445 "/>
<polygon class="st0" points="1437,758 1284,611 1250,661 "/>
<polygon class="st0" points="1456,1091 1300,1047 1326,1195 "/>
<polygon class="st0" points="1339,2314 1215,2345 1228,2564 "/>
<polygon class="st1" points="1420,3595 1193,3445 1200,3595 "/>
<polygon class="st0" points="1431,1461 1306,1203 1098,1513 "/>
<polygon class="st0" points="1373,897 1250,661 1211,877 "/>
<polygon class="st0" points="1431,1461 1098,1513 1282,1583 "/>
<polygon class="st0" points="1437,758 1250,661 1373,897 "/>
<polygon class="st2" points="1196,2878 1172,2951 1190,3013 "/>
<polygon class="st0" points="1279,2006 1103,2010 1215,2345 "/>
<polygon class="st0" points="1339,2314 1279,2006 1215,2345 "/>
<polygon class="st0" points="1361,551 1340,451 1271,514 "/>
<polygon class="st0" points="1371,459 1340,451 1361,551 "/>
<polygon class="st0" points="1373,897 1211,877 1300,1047 "/>
<polygon class="st0" points="1228,2564 1215,2345 1140,2441 "/>
<polygon class="st0" points="1326,1195 1300,1047 1306,1203 "/>
<polygon class="st0" points="1340,1895 1213,1676 1084,1869 "/>
<polygon class="st0" points="1361,551 1271,514 1284,611 "/>
<polygon class="st0" points="1200,-5 1001,87 976,189 "/>
<polygon class="st0" points="1322,297 1200,-5 976,189 "/>
<polygon class="st0" points="1340,451 1322,297 1271,514 "/>
<polygon class="st0" points="1351,1963 1340,1895 1279,2006 "/>
<polygon class="st0" points="1250,661 1124,795 1211,877 "/>
<polygon class="st0" points="1306,1203 992,1445 1098,1513 "/>
<polygon class="st0" points="1340,1895 1084,1869 1279,2006 "/>
<polygon class="st0" points="1215,2345 1103,2010 1033,2056 "/>
<polygon class="st0" points="1322,297 957,291 1271,514 "/>
<polygon class="st0" points="1322,297 976,189 957,291 "/>
<polygon class="st0" points="1228,2564 1021,2724 1164,2839 "/>
<polygon class="st0" points="1279,2006 1084,1869 1079,1941 "/>
<polygon class="st0" points="1284,611 1271,514 1224,563 "/>
<polygon class="st0" points="1306,1203 1300,1047 998,1033 "/>
<polygon class="st0" points="1306,1203 998,1033 992,1445 "/>
<polygon class="st0" points="1250,661 1175,656 1124,795 "/>
<polygon class="st0" points="1271,514 957,291 1224,563 "/>
<polygon class="st2" points="1290,3270 1104,3228 1193,3445 "/>
<polygon class="st0" points="1300,1047 1211,877 998,1033 "/>
<polygon class="st0" points="1279,2006 1079,1941 1103,2010 "/>
<polygon class="st2" points="1290,3270 1208,3174 1104,3228 "/>
<polygon class="st0" points="1282,1583 1188,1665 1213,1676 "/>
<polygon class="st0" points="1282,1583 1098,1513 1188,1665 "/>
<polygon class="st0" points="1284,611 1190,605 1250,661 "/>
<polygon class="st0" points="1284,611 1224,563 1190,605 "/>
<polygon class="st1" points="1200,3595 1193,3445 1183,3591 "/>
<polygon class="st2" points="1208,3174 1190,3013 1134,3141 "/>
<polygon class="st0" points="998,1033 871,1136 992,1445 "/>
<polygon class="st0" points="1224,563 957,291 1003,607 "/>
<polygon class="st0" points="1211,877 986,950 998,1033 "/>
<polygon class="st0" points="1213,1676 1188,1665 1084,1869 "/>
<polygon class="st0" points="1215,2345 1033,2056 942,2308 "/>
<polygon class="st0" points="1228,2564 1032,2564 1021,2724 "/>
<polygon class="st0" points="1250,661 1190,605 1175,656 "/>
<polygon class="st1" points="1183,3591 1037,3551 952,3595 "/>
<polygon class="st2" points="1193,3445 1104,3228 984,3382 "/>
<polygon class="st2" points="1196,2878 1151,2922 1172,2951 "/>
<polygon class="st0" points="1224,563 1003,607 1190,605 "/>
<polygon class="st0" points="1228,2564 1140,2441 1032,2564 "/>
<polygon class="st0" points="1188,1665 1053,1641 1084,1869 "/>
<polygon class="st0" points="1188,1665 1098,1513 1053,1641 "/>
<polygon class="st1" points="1193,3445 1037,3551 1183,3591 "/>
<polygon class="st2" points="1208,3174 1101,3216 1104,3228 "/>
<polygon class="st0" points="1211,877 1124,795 986,950 "/>
<polygon class="st0" points="1215,2345 942,2308 1140,2441 "/>
<polygon class="st2" points="1208,3174 1134,3141 1101,3216 "/>
<polygon class="st0" points="1084,1869 1053,1641 986,1693 "/>
<polygon class="st0" points="1196,2878 1164,2839 1158,2866 "/>
<polygon class="st0" points="1196,2878 1158,2866 1151,2922 "/>
<polygon class="st0" points="1200,-5 968,29 1001,87 "/>
<polygon class="st0" points="1124,795 1066,790 986,950 "/>
<polygon class="st2" points="1190,3013 987,3110 1134,3141 "/>
<polygon class="st1" points="1193,3445 984,3382 1037,3551 "/>
<polygon class="st0" points="1175,656 1066,790 1124,795 "/>
<polygon class="st2" points="1190,3013 1172,2951 987,3110 "/>
<polygon class="st0" points="1190,605 1003,607 1175,656 "/>
<polygon class="st2" points="1172,2951 1151,2922 987,3110 "/>
<polygon class="st2" points="1151,2922 1011,2878 987,3110 "/>
<polygon class="st0" points="1175,656 1003,607 1066,790 "/>
<polygon class="st0" points="1084,1869 986,1693 1042,1867 "/>
<polygon class="st0" points="1066,790 1003,607 1033,784 "/>
<polygon class="st0" points="1164,2839 1011,2878 1158,2866 "/>
<polygon class="st0" points="1164,2839 1021,2724 1011,2878 "/>
<polygon class="st0" points="1158,2866 1011,2878 1151,2922 "/>
<polygon class="st2" points="1104,3228 1018,3224 984,3382 "/>
<polygon class="st0" points="1140,2441 942,2308 1032,2564 "/>
<polygon class="st0" points="1033,784 1003,607 972,751 "/>
<polygon class="st2" points="1134,3141 1000,3159 1101,3216 "/>
<polygon class="st2" points="1134,3141 987,3110 1000,3159 "/>
<polygon class="st0" points="992,1445 871,1136 813,1368 "/>
<polygon class="st0" points="1032,2564 942,2308 842,2389 "/>
<polygon class="st0" points="1066,790 1033,784 986,950 "/>
<polygon class="st0" points="1098,1513 992,1445 1053,1641 "/>
<polygon class="st2" points="1101,3216 1000,3159 1018,3224 "/>
<polygon class="st0" points="1103,2010 1079,1941 1041,1987 "/>
<polygon class="st0" points="1103,2010 1041,1987 1033,2056 "/>
<polygon class="st2" points="1104,3228 1101,3216 1018,3224 "/>
<polygon class="st0" points="1084,1869 1042,1867 1079,1941 "/>
<polygon class="st0" points="1033,2056 843,2097 942,2308 "/>
<polygon class="st0" points="1003,607 957,291 729,428 "/>
<polygon class="st2" points="1011,2878 875,3086 987,3110 "/>
<polygon class="st0" points="1079,1941 1042,1867 1041,1987 "/>
<polygon class="st0" points="992,1445 833,1511 823,1576 "/>
<polygon class="st1" points="1037,3551 984,3382 891,3512 "/>
<polygon class="st0" points="1042,1867 986,1693 871,1778 "/>
<polygon class="st0" points="1053,1641 992,1445 823,1576 "/>
<polygon class="st0" points="1053,1641 823,1576 986,1693 "/>
<polygon class="st0" points="942,2308 843,2097 818,2233 "/>
<polygon class="st0" points="1033,784 972,751 986,950 "/>
<polygon class="st1" points="1037,3551 891,3512 944,3576 "/>
<polygon class="st0" points="1042,1867 941,2012 1041,1987 "/>
<polygon class="st0" points="998,1033 868,1118 871,1136 "/>
<polygon class="st0" points="1032,2564 656,2530 1021,2724 "/>
<polygon class="st0" points="1033,2056 941,2012 843,2097 "/>
<polygon class="st0" points="1041,1987 941,2012 1033,2056 "/>
<polygon class="st0" points="1042,1867 871,1778 941,2012 "/>
<polygon class="st2" points="1018,3224 911,3179 984,3382 "/>
<polygon class="st1" points="1037,3551 944,3576 952,3595 "/>
<polygon class="st0" points="1003,607 729,428 714,559 "/>
<polygon class="st0" points="1032,2564 842,2389 656,2530 "/>
<polygon class="st0" points="968,29 737,-5 869,65 "/>
<polygon class="st0" points="1011,2878 656,2530 457,2802 "/>
<polygon class="st2" points="1018,3224 1000,3159 911,3179 "/>
<polygon class="st0" points="1021,2724 656,2530 1011,2878 "/>
<polygon class="st2" points="984,3382 911,3179 781,3346 "/>
<polygon class="st0" points="1001,87 922,192 976,189 "/>
<polygon class="st0" points="1011,2878 457,2802 875,3086 "/>
<polygon class="st0" points="941,2012 871,1778 850,2023 "/>
<polygon class="st0" points="976,189 922,192 957,291 "/>
<polygon class="st0" points="986,950 972,751 623,721 "/>
<polygon class="st0" points="1001,87 869,65 922,192 "/>
<polygon class="st0" points="1003,607 714,559 972,751 "/>
<polygon class="st2" points="1000,3159 987,3110 911,3179 "/>
<polygon class="st0" points="1001,87 968,29 869,65 "/>
<polygon class="st0" points="998,1033 986,950 868,1118 "/>
<polygon class="st0" points="986,950 623,721 656,1086 "/>
<polygon class="st0" points="992,1445 813,1368 833,1511 "/>
<polygon class="st0" points="986,1693 823,1576 871,1778 "/>
<polygon class="st2" points="987,3110 875,3086 911,3179 "/>
<polygon class="st0" points="986,950 656,1086 868,1118 "/>
<polygon class="st1" points="611,3595 364,3525 0,3595 "/>
<polygon class="st1" points="984,3382 781,3346 891,3512 "/>
<polygon class="st0" points="833,1511 813,1368 794,1459 "/>
<polygon class="st0" points="871,1778 823,1576 767,1697 "/>
<polygon class="st2" points="875,3086 457,2802 536,3074 "/>
<polygon class="st0" points="957,291 922,192 883,212 "/>
<polygon class="st0" points="922,192 869,65 883,190 "/>
<polygon class="st0" points="972,751 714,559 623,721 "/>
<polygon class="st0" points="871,1778 727,1839 850,2023 "/>
<polygon class="st0" points="941,2012 850,2023 843,2097 "/>
<polygon class="st1" points="944,3576 891,3512 611,3595 "/>
<polygon class="st1" points="952,3595 944,3576 611,3595 "/>
<polygon class="st0" points="957,291 883,212 729,428 "/>
<polygon class="st0" points="942,2308 822,2352 842,2389 "/>
<polygon class="st2" points="875,3086 536,3074 703,3154 "/>
<polygon class="st0" points="942,2308 818,2233 822,2352 "/>
<polygon class="st0" points="922,192 883,190 883,212 "/>
<polygon class="st2" points="911,3179 875,3086 703,3154 "/>
<polygon class="st2" points="911,3179 703,3154 781,3346 "/>
<polygon class="st0" points="869,65 737,-5 783,71 "/>
<polygon class="st0" points="871,1136 662,1108 813,1368 "/>
<polygon class="st0" points="883,212 646,155 729,428 "/>
<polygon class="st0" points="883,190 869,65 783,71 "/>
<polygon class="st1" points="891,3512 781,3346 653,3475 "/>
<polygon class="st1" points="891,3512 653,3475 611,3595 "/>
<polygon class="st0" points="823,1576 746,1662 767,1697 "/>
<polygon class="st0" points="883,212 727,102 646,155 "/>
<polygon class="st0" points="883,190 727,102 883,212 "/>
<polygon class="st0" points="883,190 783,71 727,102 "/>
<polygon class="st0" points="868,1118 656,1086 662,1108 "/>
<polygon class="st0" points="871,1778 748,1759 727,1839 "/>
<polygon class="st0" points="871,1778 767,1697 748,1759 "/>
<polygon class="st0" points="871,1136 868,1118 662,1108 "/>
<polygon class="st0" points="842,2389 635,2417 656,2530 "/>
<polygon class="st0" points="843,2097 695,2142 818,2233 "/>
<polygon class="st0" points="850,2023 727,1839 588,2037 "/>
<polygon class="st0" points="850,2023 695,2142 843,2097 "/>
<polygon class="st0" points="850,2023 588,2037 695,2142 "/>
<polygon class="st0" points="842,2389 822,2352 635,2417 "/>
<polygon class="st0" points="833,1511 753,1551 823,1576 "/>
<polygon class="st0" points="813,1368 662,1108 554,1412 "/>
<polygon class="st0" points="822,2352 818,2233 599,2377 "/>
<polygon class="st0" points="833,1511 794,1459 753,1551 "/>
<polygon class="st0" points="813,1368 740,1458 794,1459 "/>
<polygon class="st0" points="818,2233 695,2142 599,2377 "/>
<polygon class="st0" points="822,2352 599,2377 635,2417 "/>
<polygon class="st0" points="823,1576 753,1551 746,1662 "/>
<polygon class="st0" points="794,1459 740,1458 753,1551 "/>
<polygon class="st0" points="813,1368 554,1412 740,1458 "/>
<polygon class="st0" points="729,428 673,492 714,559 "/>
<polygon class="st2" points="781,3346 703,3154 532,3257 "/>
<polygon class="st0" points="656,1086 623,721 575,1094 "/>
<polygon class="st1" points="781,3346 532,3257 557,3374 "/>
<polygon class="st0" points="783,71 737,-5 727,102 "/>
<polygon class="st2" points="623,721 457,1037 575,1094 "/>
<polygon class="st1" points="781,3346 557,3374 653,3475 "/>
<polygon class="st0" points="753,1551 624,1644 746,1662 "/>
<polygon class="st0" points="767,1697 746,1662 748,1759 "/>
<polygon class="st0" points="662,1108 575,1094 554,1412 "/>
<polygon class="st0" points="727,1839 515,1928 588,2037 "/>
<polygon class="st0" points="729,428 646,155 449,188 "/>
<polygon class="st0" points="740,1458 513,1556 624,1644 "/>
<polygon class="st0" points="748,1759 746,1662 624,1644 "/>
<polygon class="st0" points="753,1551 740,1458 624,1644 "/>
<polygon class="st0" points="729,428 449,188 673,492 "/>
<polygon class="st0" points="740,1458 554,1412 513,1556 "/>
<polygon class="st0" points="748,1759 624,1644 727,1839 "/>
<polygon class="st2" points="536,3074 457,2802 438,3001 "/>
<polygon class="st0" points="737,-5 646,155 727,102 "/>
<polygon class="st0" points="737,-5 483,-5 646,155 "/>
<polygon class="st0" points="727,1839 624,1644 515,1928 "/>
<polygon class="st1" points="364,3525 123,3535 0,3595 "/>
<polygon class="st0" points="673,492 449,188 337,396 "/>
<polygon class="st0" points="714,559 673,492 623,721 "/>
<polygon class="st0" points="695,2142 434,2366 599,2377 "/>
<polygon class="st0" points="695,2142 588,2037 434,2366 "/>
<polygon class="st2" points="703,3154 536,3074 532,3257 "/>
<polygon class="st0" points="656,2530 382,2736 457,2802 "/>
<polygon class="st2" points="624,1644 380,1699 515,1928 "/>
<polygon class="st0" points="656,2530 370,2532 382,2736 "/>
<polygon class="st0" points="673,492 331,498 623,721 "/>
<polygon class="st0" points="673,492 337,396 331,498 "/>
<polygon class="st2" points="623,721 286,790 457,1037 "/>
<polygon class="st2" points="623,721 331,498 306,625 "/>
<polygon class="st0" points="656,2530 490,2441 370,2532 "/>
<polygon class="st0" points="656,2530 635,2417 511,2420 "/>
<polygon class="st0" points="656,2530 511,2420 490,2441 "/>
<polygon class="st0" points="662,1108 656,1086 575,1094 "/>
<polygon class="st2" points="624,1644 457,1610 380,1699 "/>
<polygon class="st0" points="646,155 483,-5 449,188 "/>
<polygon class="st1" points="653,3475 423,3495 611,3595 "/>
<polygon class="st1" points="653,3475 557,3374 423,3495 "/>
<polygon class="st2" points="575,1094 307,1402 554,1412 "/>
<polygon class="st2" points="575,1094 457,1037 307,1402 "/>
<polygon class="st0" points="635,2417 599,2377 511,2420 "/>
<polygon class="st2" points="515,1928 380,1699 465,1930 "/>
<polygon class="st2" points="624,1644 513,1556 457,1610 "/>
<polygon class="st2" points="623,721 306,625 286,790 "/>
<polygon class="st2" points="588,2037 465,1930 434,2366 "/>
<polygon class="st2" points="599,2377 434,2366 511,2420 "/>
<polygon class="st1" points="611,3595 423,3495 364,3525 "/>
<polygon class="st2" points="536,3074 452,3238 532,3257 "/>
<polygon class="st2" points="465,1930 113,2160 434,2366 "/>
<polygon class="st2" points="588,2037 515,1928 465,1930 "/>
<polygon class="st2" points="457,1037 214,1329 307,1402 "/>
<polygon class="st2" points="457,1037 261,1044 214,1329 "/>
<polygon class="st2" points="483,-5 379,144 449,188 "/>
<polygon class="st2" points="536,3074 374,3122 452,3238 "/>
<polygon class="st2" points="554,1412 307,1402 513,1556 "/>
<polygon class="st1" points="557,3374 532,3257 452,3238 "/>
<polygon class="st1" points="557,3374 452,3238 423,3495 "/>
<polygon class="st2" points="536,3074 438,3001 374,3122 "/>
<polygon class="st2" points="513,1556 307,1402 457,1610 "/>
<polygon class="st2" points="511,2420 434,2366 490,2441 "/>
<polygon class="st1" points="452,3238 210,3377 423,3495 "/>
<polygon class="st2" points="457,2802 338,2808 438,3001 "/>
<polygon class="st2" points="434,2366 113,2160 125,2301 "/>
<polygon class="st2" points="457,1037 286,790 261,1044 "/>
<polygon class="st2" points="457,1610 307,1402 376,1643 "/>
<polygon class="st2" points="457,1610 376,1643 380,1699 "/>
<polygon class="st2" points="465,1930 380,1699 263,1735 "/>
<polygon class="st2" points="465,1930 200,1847 113,2160 "/>
<polygon class="st2" points="490,2441 434,2366 370,2532 "/>
<polygon class="st2" points="465,1930 263,1735 200,1847 "/>
<polygon class="st2" points="483,-5 135,-5 379,144 "/>
<polygon class="st1" points="423,3495 210,3377 364,3525 "/>
<polygon class="st2" points="449,188 379,144 337,396 "/>
<polygon class="st2" points="457,2802 382,2779 338,2808 "/>
<polygon class="st2" points="457,2802 382,2736 382,2779 "/>
<polygon class="st2" points="438,3001 338,2808 216,2864 "/>
<polygon class="st2" points="452,3238 374,3122 210,3377 "/>
<polygon class="st1" points="382,2736 370,2532 235,2654 "/>
<polygon class="st1" points="364,3525 210,3377 213,3454 "/>
<polygon class="st1" points="376,1643 307,1402 191,1567 "/>
<polygon class="st2" points="438,3001 216,2864 193,3011 "/>
<polygon class="st2" points="438,3001 193,3011 374,3122 "/>
<polygon class="st1" points="376,1643 229,1630 331,1660 "/>
<polygon class="st1" points="376,1643 191,1567 229,1630 "/>
<polygon class="st2" points="434,2366 125,2301 370,2532 "/>
<polygon class="st1" points="379,144 181,143 337,396 "/>
<polygon class="st1" points="379,144 135,-5 181,143 "/>
<polygon class="st1" points="200,1847 70,1943 113,2160 "/>
<polygon class="st1" points="261,1044 151,1292 214,1329 "/>
<polygon class="st1" points="306,625 254,774 286,790 "/>
<polygon class="st1" points="337,396 302,447 331,498 "/>
<polygon class="st1" points="370,2532 125,2301 140,2545 "/>
<polygon class="st1" points="374,3122 152,3114 210,3377 "/>
<polygon class="st1" points="380,1699 376,1643 331,1660 "/>
<polygon class="st1" points="380,1699 331,1660 263,1735 "/>
<polygon class="st1" points="382,2736 338,2808 382,2779 "/>
<polygon class="st1" points="382,2736 235,2654 338,2808 "/>
<polygon class="st1" points="364,3525 213,3454 123,3535 "/>
<polygon class="st1" points="374,3122 193,3011 152,3114 "/>
<polygon class="st1" points="370,2532 140,2545 235,2654 "/>
<polygon class="st1" points="210,3377 152,3114 72,3222 "/>
<polygon class="st1" points="210,3377 72,3222 134,3357 "/>
<polygon class="st1" points="286,790 218,769 261,1044 "/>
<polygon class="st1" points="302,447 181,143 0,438 "/>
<polygon class="st1" points="307,1402 190,1421 191,1567 "/>
<polygon class="st1" points="337,396 181,143 302,447 "/>
<polygon class="st1" points="338,2808 235,2654 216,2864 "/>
<polygon class="st1" points="306,625 218,769 254,774 "/>
<polygon class="st1" points="331,1660 229,1630 263,1735 "/>
<polygon class="st1" points="331,498 82,596 306,625 "/>
<polygon class="st1" points="331,498 302,447 82,596 "/>
<polygon class="st1" points="261,1044 218,769 58,803 "/>
<polygon class="st1" points="261,1044 58,803 0,955 "/>
<polygon class="st1" points="286,790 254,774 218,769 "/>
<polygon class="st1" points="306,625 150,735 218,769 "/>
<polygon class="st1" points="307,1402 214,1329 190,1421 "/>
<polygon class="st1" points="306,625 82,596 150,735 "/>
<polygon class="st1" points="302,447 0,438 82,596 "/>
<polygon class="st1" points="261,1044 0,1103 151,1292 "/>
<polygon class="st1" points="58,803 31,827 0,955 "/>
<polygon class="st1" points="235,2654 29,2725 216,2864 "/>
<polygon class="st1" points="263,1735 229,1630 0,1795 "/>
<polygon class="st1" points="263,1735 0,1795 200,1847 "/>
<polygon class="st1" points="261,1044 0,955 0,1103 "/>
<polygon class="st1" points="134,3357 72,3222 63,3262 "/>
<polygon class="st1" points="191,1567 190,1421 112,1504 "/>
<polygon class="st1" points="140,2545 125,2301 43,2510 "/>
<polygon class="st1" points="150,735 82,596 69,620 "/>
<polygon class="st1" points="218,769 150,735 58,803 "/>
<polygon class="st1" points="235,2654 140,2545 44,2592 "/>
<polygon class="st1" points="235,2654 44,2592 29,2725 "/>
<polygon class="st1" points="125,2301 0,2397 43,2510 "/>
<polygon class="st1" points="213,3454 210,3377 140,3432 "/>
<polygon class="st1" points="229,1630 191,1567 0,1795 "/>
<polygon class="st1" points="213,3454 140,3432 123,3535 "/>
<polygon class="st1" points="214,1329 151,1292 190,1421 "/>
<polygon class="st1" points="216,2864 0,3050 193,3011 "/>
<polygon class="st1" points="216,2864 29,2725 0,3050 "/>
<polygon class="st1" points="191,1567 112,1504 0,1795 "/>
<polygon class="st1" points="210,3377 134,3357 140,3432 "/>
<polygon class="st1" points="29,2725 0,2730 0,3050 "/>
<polygon class="st1" points="140,3432 95,3469 123,3535 "/>
<polygon class="st1" points="200,1847 0,1844 70,1943 "/>
<polygon class="st1" points="200,1847 0,1795 0,1844 "/>
<polygon class="st1" points="181,143 0,-6.9 0,438 "/>
<polygon class="st1" points="181,143 135,-5 63,-5 "/>
<polygon class="st1" points="190,1421 151,1292 112,1504 "/>
<polygon class="st1" points="193,3011 0,3050 152,3114 "/>
<polygon class="st1" points="150,735 69,620 52,691 "/>
<polygon class="st1" points="181,143 63,-5 0,-5 "/>
<polygon class="st1" points="150,735 43,784 58,803 "/>
<polygon class="st1" points="151,1292 0,1103 112,1504 "/>
<polygon class="st1" points="152,3114 0,3050 72,3222 "/>
<polygon class="st1" points="150,735 52,691 43,784 "/>
<polygon class="st1" points="140,3432 134,3357 55,3462 "/>
<polygon class="st1" points="140,3432 55,3462 95,3469 "/>
<polygon class="st1" points="140,2545 43,2510 44,2592 "/>
<polygon class="st1" points="125,2301 113,2160 0,2397 "/>
<polygon class="st1" points="134,3357 0,3433 55,3462 "/>
<polygon class="st1" points="134,3357 63,3262 0,3433 "/>
<polygon class="st1" points="123,3535 95,3469 55,3462 "/>
<polygon class="st1" points="123,3535 55,3462 0,3595 "/>
<polygon class="st1" points="112,1504 0,1103 0,1795 "/>
<polygon class="st1" points="113,2160 70,1943 0,2397 "/>
<polygon class="st1" points="70,1943 0,1844 0,2397 "/>
<polygon class="st1" points="82,596 0,438 47,620 "/>
<polygon class="st1" points="69,620 47,620 52,691 "/>
<polygon class="st1" points="82,596 47,620 69,620 "/>
<polygon class="st1" points="44,2592 0,2730 29,2725 "/>
<polygon class="st1" points="55,3462 0,3433 0,3595 "/>
<polygon class="st1" points="72,3222 0,3050 63,3262 "/>
<polygon class="st1" points="63,3262 0,3050 0,3433 "/>
<polygon class="st1" points="58,803 43,784 18,813 "/>
<polygon class="st1" points="58,803 18,813 31,827 "/>
<polygon class="st1" points="52,691 18,813 43,784 "/>
<polygon class="st1" points="52,691 47,620 18,813 "/>
<polygon class="st1" points="31,827 18,813 0,955 "/>
<polygon class="st1" points="47,620 0,438 18,813 "/>
<rect x="-671.1" y="774" class="st3" width="74.9" height="122"/>
<rect x="-643.7" y="805.7" class="st4" width="71.8" height="86.8"/>
<rect x="-617.9" y="835.9" class="st5" width="74.2" height="80"/>
<polygon class="st1" points="44,2592 43,2510 0,2397 "/>
<polygon class="st1" points="44,2592 0,2397 0,2730 "/>
<polygon class="st1" points="18,813 0,438 0,955 "/>
<rect x="-681.3" y="788.2" class="st6" width="19.1" height="20.9"/>
<rect x="-681.3" y="812.7" class="st7" width="19.1" height="20.9"/>
<rect x="-681.3" y="837.3" class="st8" width="19.1" height="20.9"/>
<rect x="-681.3" y="861.9" class="st9" width="19.1" height="20.9"/>
<rect x="-651.2" y="847.8" class="st10" width="145.5" height="12.1"/>
<text transform="matrix(1 0 0 1 -651.248 856.2698)" class="st6" style="font-family:'ArialMT'; font-size:12px;">What colour works</text>
<rect x="-651.2" y="880.4" class="st10" width="145.5" height="12.1"/>
<text transform="matrix(1 0 0 1 -651.248 888.8901)" class="st9" style="font-family:'ArialMT'; font-size:12px;">What colour works</text>
<rect x="-651.2" y="864.9" class="st10" width="145.5" height="12.1"/>
<text transform="matrix(1 0 0 1 -651.248 873.4548)" style="fill:#CCCCCC; font-family:'ArialMT'; font-size:12px;">What colour works</text>
<rect x="-852.7" y="774" width="74.9" height="122"/>
<rect x="-825.3" y="805.7" class="st3" width="71.8" height="86.8"/>
<rect x="-799.5" y="835.9" class="st5" width="74.2" height="80"/>
<rect x="-862.9" y="788.2" class="st6" width="19.1" height="20.9"/>
<rect x="-862.9" y="812.7" class="st7" width="19.1" height="20.9"/>
<rect x="-862.9" y="837.3" class="st8" width="19.1" height="20.9"/>
<rect x="-862.9" y="861.9" class="st9" width="19.1" height="20.9"/>
<rect x="-832.8" y="847.8" class="st10" width="145.5" height="12.1"/>
<text transform="matrix(1 0 0 1 -832.8528 856.2698)" class="st6" style="font-family:'ArialMT'; font-size:12px;">What colour works</text>
<rect x="-832.8" y="880.4" class="st10" width="145.5" height="12.1"/>
<text transform="matrix(1 0 0 1 -832.8528 888.8901)" class="st9" style="font-family:'ArialMT'; font-size:12px;">What colour works</text>
<rect x="-832.8" y="864.9" class="st10" width="145.5" height="12.1"/>
<text transform="matrix(1 0 0 1 -832.8528 873.4548)" style="fill:#CCCCCC; font-family:'ArialMT'; font-size:12px;">What colour works</text>
</svg>
