<?xml version="1.0" encoding="utf-8"?>
<!-- Generator: Adobe Illustrator 16.0.0, SVG Export Plug-In . SVG Version: 6.00 Build 0)  -->
<!DOCTYPE svg PUBLIC "-//W3C//DTD SVG 1.1//EN" "http://www.w3.org/Graphics/SVG/1.1/DTD/svg11.dtd">
<svg version="1.1" id="Layer_1" xmlns="http://www.w3.org/2000/svg" xmlns:xlink="http://www.w3.org/1999/xlink" x="0px" y="0px"
	 width="1500px" height="1500px" viewBox="0 0 1500 1500" enable-background="new 0 0 1500 1500" xml:space="preserve">
<g>
	<defs>
		<circle id="SVGID_1_" cx="744.826" cy="757.523" r="720.001"/>
	</defs>
	<clipPath id="SVGID_2_">
		<use xlink:href="#SVGID_1_"  overflow="visible"/>
	</clipPath>
	
		<circle clip-path="url(#SVGID_2_)" fill="none" stroke="#491B76" stroke-width="40" stroke-miterlimit="10" cx="746.825" cy="757.521" r="709.5"/>
	<g clip-path="url(#SVGID_2_)">
		<path fill="#240444" d="M2630.975,1378.131c0,601.529-516.49,1089.159-1153.631,1089.159
			c-637.119,0-1153.62-487.63-1153.62-1089.159c0-339.75,164.76-643.16,422.97-842.9l-0.03,0.01
			c-32.34-17.38-102.45-50.49-198.23-40.21c-75.94,8.16-176.38,48.3-264.6,133.82c0,0-16.13,16.05-33.45,9.79c0,0-4.24-2-3.14-12.2
			c2.25-20.92,2.75-100.04,30.58-136.98c23.5-31.19,98.33-113.94,101.67-134.44c41.75-256.8,294.27-305.57,388.33-316.9h499.56
			l97.44,241.4l-48.17,19.93c52.51-6.92,106.16-10.49,160.689-10.49C2114.484,288.961,2630.975,776.601,2630.975,1378.131z"/>
		<g>
			<defs>
				<path id="SVGID_3_" d="M2630.975,1378.13c0,601.529-516.49,1089.16-1153.631,1089.16
					c-637.119,0-1153.62-487.631-1153.62-1089.16c0-339.75,164.76-643.158,422.97-842.899l-0.03,0.01
					c-32.34-17.38-102.45-50.49-198.23-40.21c-75.94,8.16-176.38,48.3-264.6,133.82c0,0-16.13,16.05-33.45,9.79
					c0,0-4.24-2-3.14-12.2c2.25-20.92,2.75-100.04,30.58-136.98c23.5-31.19,98.33-113.94,101.67-134.44
					c41.75-256.8,294.27-305.57,388.33-316.9h499.56l97.44,241.4l-48.17,19.93c52.51-6.92,106.16-10.49,160.689-10.49
					C2114.484,288.961,2630.975,776.601,2630.975,1378.13z"/>
			</defs>
			<clipPath id="SVGID_4_">
				<use xlink:href="#SVGID_3_"  overflow="visible"/>
			</clipPath>
			<g clip-path="url(#SVGID_4_)">
				<polygon fill-rule="evenodd" clip-rule="evenodd" fill="#29074B" points="692.283,124.006 699.074,296.646 840.073,178.775 				
					"/>
				<polygon fill-rule="evenodd" clip-rule="evenodd" fill="#57238B" points="1010.961,602.127 1430.285,536.554 1160.663,464.925 
					906.348,274.846 888.067,368.945 745.845,535.881 				"/>
				<polygon fill-rule="evenodd" clip-rule="evenodd" fill="#7C39BF" points="1160.663,464.925 1039.81,374.597 1182.17,185.522 
									"/>
				<polygon fill-rule="evenodd" clip-rule="evenodd" fill="#7C39BF" points="888.067,368.945 1160.663,464.925 1010.961,602.127 
									"/>
				<polygon fill-rule="evenodd" clip-rule="evenodd" fill="#2D0A51" points="1316.345,779.848 903.35,775.917 1010.961,602.127 
									"/>
				<polygon fill-rule="evenodd" clip-rule="evenodd" fill="#491B76" points="1180.574,876.683 1006.135,976.505 632.199,1178.289 
					324.484,1342.154 255.027,816.66 603.647,666.867 				"/>
				<polygon fill-rule="evenodd" clip-rule="evenodd" fill="#350E5C" points="1180.574,876.683 1364.901,1123.66 1105.557,1099.786 
									"/>
				<polygon fill-rule="evenodd" clip-rule="evenodd" fill="#350E5C" points="1106.324,1300.402 1033.991,1417.105 
					938.199,1455.896 836.074,1473.151 				"/>
				<polygon fill-rule="evenodd" clip-rule="evenodd" fill="#280749" points="836.074,1473.151 704.324,1483.521 582.418,1459.133 
					632.199,1178.289 				"/>
				<polygon fill-rule="evenodd" clip-rule="evenodd" fill="#350E5C" points="324.531,1342.138 632.246,1178.273 584.793,1459.662 
					412.205,1424.505 				"/>
				<polygon fill-rule="evenodd" clip-rule="evenodd" fill="#7C39BF" points="1006.135,976.505 1106.324,1300.402 632.199,1178.289 
									"/>
				<polygon fill-rule="evenodd" clip-rule="evenodd" fill="#874CC1" points="603.647,666.867 1006.135,976.505 632.199,1178.289 
									"/>
				<path fill-rule="evenodd" clip-rule="evenodd" fill="#632A9C" d="M367.592,1079.611l14.084-97.089l60.633-85.933
					c0,0,190.04,281.499,189.891,281.699C632.05,1178.49,367.592,1079.611,367.592,1079.611z"/>
				<polygon fill-rule="evenodd" clip-rule="evenodd" fill="#471975" points="1106.324,1300.402 1246.241,1274.23 1006.135,976.505 
									"/>
				<polygon fill-rule="evenodd" clip-rule="evenodd" fill="#7C39BF" points="1180.574,876.683 1437.277,955.461 1435.193,1042.633 
					1364.901,1123.66 				"/>
				<polygon fill-rule="evenodd" clip-rule="evenodd" fill="#632A9C" points="1460.377,677.021 1180.574,876.683 1437.277,955.461 
					1492.824,709.723 				"/>
				<polygon fill-rule="evenodd" clip-rule="evenodd" fill="#350E5C" points="745.845,535.881 903.35,775.917 1010.961,602.127 				
					"/>
				<polygon fill-rule="evenodd" clip-rule="evenodd" fill="#350E5C" points="1010.961,602.127 1316.345,779.848 1430.285,536.554 
									"/>
				<polygon fill-rule="evenodd" clip-rule="evenodd" fill="#8143C0" points="1462.092,578.188 1430.285,536.554 1316.345,779.848 
					1460.377,677.021 				"/>
				<polygon fill-rule="evenodd" clip-rule="evenodd" fill="#7C39BF" points="1395.074,447.973 1160.663,464.925 1430.285,536.554 
					1423.41,478.521 				"/>
				<polygon fill-rule="evenodd" clip-rule="evenodd" fill="#9768C5" points="1160.663,464.925 1395.074,447.973 1316.345,277.619 
					1182.17,185.522 				"/>
				<polygon fill-rule="evenodd" clip-rule="evenodd" fill="#29074B" points="1039.81,374.597 932.444,113.249 906.348,274.846 				
					"/>
				<polygon fill-rule="evenodd" clip-rule="evenodd" fill="#471975" points="932.444,113.249 1182.17,185.522 1111.796,119.521 
					1029.961,96.188 				"/>
				<polygon fill-rule="evenodd" clip-rule="evenodd" fill="#57238B" points="932.444,113.249 1039.81,374.597 1182.17,185.522 				
					"/>
				<polygon fill-rule="evenodd" clip-rule="evenodd" fill="#350E5C" points="888.067,368.945 624.948,343.685 745.845,535.881 				
					"/>
				<polygon fill-rule="evenodd" clip-rule="evenodd" fill="#29074B" points="624.948,343.685 657.38,501.274 745.845,535.881 				
					"/>
				<polygon fill-rule="evenodd" clip-rule="evenodd" fill="#29074B" points="624.948,343.685 888.067,368.945 906.348,274.846 				
					"/>
				<polygon fill-rule="evenodd" clip-rule="evenodd" fill="#350E5C" points="624.948,343.685 556.776,335.844 657.38,501.274 				
					"/>
				<polygon fill-rule="evenodd" clip-rule="evenodd" fill="#57248B" points="375.003,365.627 556.776,335.844 657.38,501.274 
					545.84,495.325 420.729,532.937 425.824,416.062 				"/>
				<polygon fill-rule="evenodd" clip-rule="evenodd" fill="#7C39BF" points="425.824,416.062 545.84,495.325 556.776,335.844 				
					"/>
				<polygon fill-rule="evenodd" clip-rule="evenodd" fill="#350E5C" points="425.824,416.062 277.133,490.393 302.142,611.898 				
					"/>
				<polygon fill-rule="evenodd" clip-rule="evenodd" fill="#491B76" points="420.729,532.937 301.838,611.754 425.824,416.062 				
					"/>
				<polygon fill-rule="evenodd" clip-rule="evenodd" fill="#491B76" points="425.824,416.062 277.446,490.608 375.003,365.627 				
					"/>
				<polygon fill-rule="evenodd" clip-rule="evenodd" fill="#29074B" points="290.074,631.771 236.074,653.271 256.574,497.521 
					277.133,490.393 302.142,611.898 				"/>
				<polygon fill-rule="evenodd" clip-rule="evenodd" fill="#350E5C" points="416.55,242.552 556.776,335.844 375.003,365.627 
					363.831,298.854 				"/>
				<polygon fill-rule="evenodd" clip-rule="evenodd" fill="#57238B" points="416.55,242.552 556.776,335.844 560.695,219.131 				
					"/>
				<polygon fill-rule="evenodd" clip-rule="evenodd" fill="#350E5C" points="459.869,180.069 560.695,219.131 416.55,242.552 
					425.824,190.521 				"/>
				<polygon fill-rule="evenodd" clip-rule="evenodd" fill="#29074B" points="560.695,219.131 600.228,313.181 556.776,335.844 				
					"/>
				<polygon fill-rule="evenodd" clip-rule="evenodd" fill="#29074B" points="476.824,134.021 459.869,180.069 560.695,219.131 
					561.566,100.327 				"/>
				<polygon fill-rule="evenodd" clip-rule="evenodd" fill="#471975" points="692.283,124.006 560.695,219.131 600.228,313.181 				
					"/>
				<polygon fill-rule="evenodd" clip-rule="evenodd" fill="#350E5C" points="561.566,100.327 692.283,124.006 560.695,219.131 				
					"/>
				<polygon fill-rule="evenodd" clip-rule="evenodd" fill="#350E5C" points="692.283,124.006 699.074,296.646 600.228,313.181 				
					"/>
				<polygon fill-rule="evenodd" clip-rule="evenodd" fill="#874CC1" points="588.824,74.771 561.566,100.327 692.283,124.006 
					678.047,55.046 				"/>
				<polygon fill-rule="evenodd" clip-rule="evenodd" fill="#9768C5" points="788.199,15.521 913.991,57.521 692.283,124.006 
					678.047,55.046 				"/>
				<polygon fill-rule="evenodd" clip-rule="evenodd" fill="#874CC1" points="913.991,57.521 932.444,113.25 1029.961,96.188 
					973.078,62.096 				"/>
				<polygon fill-rule="evenodd" clip-rule="evenodd" fill="#632A9C" points="932.444,113.25 692.283,124.006 913.991,57.521 				
					"/>
				<polygon fill-rule="evenodd" clip-rule="evenodd" fill="#471975" points="840.073,178.775 692.283,124.006 932.444,113.249 				
					"/>
			</g>
		</g>
	</g>
</g>
<path fill="#FFFFFF" d="M699.074,296.646c-14.625,36.25-92.5,64-140.125,41.75c-2.245-1.049-3.357-3.309-0.307-4.757
	c17.48-8.301,104.557-52.368,131.682-62.618C702.51,266.416,701.154,291.491,699.074,296.646z"/>
<polygon fill-rule="evenodd" clip-rule="evenodd" fill="#1D0437" points="773.007,234.84 790.168,303.267 906.348,274.846 "/>
</svg>
