<svg width="379" height="201" viewBox="0 0 379 201" fill="none" xmlns="http://www.w3.org/2000/svg">
<g filter="url(#filter0_d)">
<path d="M10.1238 141.426V134.267C13.3675 134.081 16.0087 132.969 18.0476 130.93C20.1328 128.892 21.1754 125.717 21.1754 121.408V80.6074H28.8212V121.617C28.8212 124.721 28.3578 127.478 27.431 129.888C26.5043 132.297 25.2068 134.336 23.5386 136.004C21.8705 137.719 19.878 139.016 17.5611 139.897C15.2905 140.824 12.8114 141.333 10.1238 141.426ZM35.4705 116.751C35.4705 114.62 35.8643 112.627 36.6521 110.774C37.4862 108.874 38.5983 107.229 39.9884 105.839C41.3785 104.402 42.9772 103.267 44.7844 102.433C46.6379 101.599 48.6072 101.182 50.6925 101.182C52.0826 101.182 53.3569 101.367 54.5153 101.738C55.6738 102.062 56.67 102.479 57.5041 102.989C58.3382 103.498 59.0101 104.031 59.5198 104.587C60.0295 105.143 60.3771 105.63 60.5624 106.047L60.8404 101.946H66.54V131H60.5624V127.316C60.3307 127.687 59.96 128.127 59.4503 128.637C58.9406 129.146 58.2687 129.633 57.4346 130.096C56.6469 130.513 55.6969 130.884 54.5848 131.209C53.4727 131.533 52.1984 131.695 50.762 131.695C48.5377 131.695 46.4757 131.301 44.5759 130.513C42.7223 129.679 41.1237 128.59 39.7799 127.247C38.4361 125.856 37.3703 124.258 36.5826 122.451C35.8412 120.643 35.4705 118.744 35.4705 116.751ZM41.448 116.404C41.448 117.747 41.6797 118.998 42.1431 120.157C42.6528 121.315 43.3247 122.312 44.1588 123.146C44.9929 123.98 45.9892 124.652 47.1476 125.161C48.3061 125.625 49.5803 125.856 50.9705 125.856C52.3606 125.856 53.6349 125.625 54.7934 125.161C55.9981 124.652 57.0176 123.98 57.8517 123.146C58.7321 122.265 59.404 121.269 59.8674 120.157C60.3307 118.998 60.5624 117.747 60.5624 116.404C60.5624 115.06 60.3307 113.832 59.8674 112.72C59.404 111.561 58.7321 110.565 57.8517 109.731C57.0176 108.897 55.9981 108.248 54.7934 107.785C53.6349 107.275 52.3606 107.02 50.9705 107.02C49.5803 107.02 48.3061 107.275 47.1476 107.785C45.9892 108.248 44.9929 108.897 44.1588 109.731C43.3247 110.565 42.6528 111.561 42.1431 112.72C41.6797 113.832 41.448 115.06 41.448 116.404ZM74.8868 101.946H80.0998C80.1925 103.383 80.262 104.703 80.3083 105.908C80.401 107.066 80.4937 108.225 80.5864 109.383C81.6521 106.881 83.1581 104.889 85.1043 103.406C87.0968 101.923 89.5296 101.182 92.4025 101.182C95.3218 101.182 97.6619 101.992 99.4227 103.614C101.184 105.236 102.11 107.321 102.203 109.87V131H96.2254V112.581C96.1327 111.098 95.623 109.847 94.6962 108.827C93.7695 107.762 92.3098 107.182 90.3173 107.09C88.9272 107.09 87.6529 107.345 86.4944 107.854C85.336 108.318 84.3397 108.966 83.5056 109.8C82.6716 110.635 81.9997 111.631 81.4899 112.789C81.0266 113.948 80.7949 115.222 80.7949 116.612V131H74.8868V101.946ZM137.289 131.626H132.285L131.59 123.563C130.524 125.926 129.018 127.872 127.072 129.401C125.172 130.93 122.739 131.695 119.774 131.695C116.808 131.695 114.445 130.907 112.684 129.332C110.969 127.71 110.066 125.602 109.973 123.007V101.946H115.881V120.365C115.974 121.802 116.484 123.03 117.41 124.049C118.383 125.069 119.866 125.648 121.859 125.787C123.249 125.787 124.523 125.555 125.682 125.092C126.84 124.582 127.836 123.91 128.67 123.076C129.504 122.242 130.153 121.246 130.617 120.087C131.08 118.929 131.312 117.655 131.312 116.265V101.946H137.289V131.626ZM143.6 116.751C143.6 114.62 143.994 112.627 144.781 110.774C145.615 108.874 146.727 107.229 148.118 105.839C149.508 104.402 151.106 103.267 152.914 102.433C154.767 101.599 156.736 101.182 158.822 101.182C160.212 101.182 161.486 101.367 162.645 101.738C163.803 102.062 164.799 102.479 165.633 102.989C166.467 103.498 167.139 104.031 167.649 104.587C168.159 105.143 168.506 105.63 168.692 106.047L168.97 101.946H174.669V131H168.692V127.316C168.46 127.687 168.089 128.127 167.58 128.637C167.07 129.146 166.398 129.633 165.564 130.096C164.776 130.513 163.826 130.884 162.714 131.209C161.602 131.533 160.328 131.695 158.891 131.695C156.667 131.695 154.605 131.301 152.705 130.513C150.852 129.679 149.253 128.59 147.909 127.247C146.565 125.856 145.5 124.258 144.712 122.451C143.97 120.643 143.6 118.744 143.6 116.751ZM149.577 116.404C149.577 117.747 149.809 118.998 150.272 120.157C150.782 121.315 151.454 122.312 152.288 123.146C153.122 123.98 154.118 124.652 155.277 125.161C156.435 125.625 157.71 125.856 159.1 125.856C160.49 125.856 161.764 125.625 162.923 125.161C164.127 124.652 165.147 123.98 165.981 123.146C166.861 122.265 167.533 121.269 167.997 120.157C168.46 118.998 168.692 117.747 168.692 116.404C168.692 115.06 168.46 113.832 167.997 112.72C167.533 111.561 166.861 110.565 165.981 109.731C165.147 108.897 164.127 108.248 162.923 107.785C161.764 107.275 160.49 107.02 159.1 107.02C157.71 107.02 156.435 107.275 155.277 107.785C154.118 108.248 153.122 108.897 152.288 109.731C151.454 110.565 150.782 111.561 150.272 112.72C149.809 113.832 149.577 115.06 149.577 116.404ZM199.003 108.827C197.705 108.827 196.454 109.013 195.249 109.383C194.044 109.708 192.955 110.217 191.982 110.913C191.056 111.608 190.314 112.488 189.758 113.554C189.202 114.573 188.924 115.755 188.924 117.099V131H183.016V101.946H188.229C188.322 103.383 188.391 104.703 188.438 105.908C188.53 107.066 188.623 108.225 188.716 109.383C189.318 108.132 190.106 106.997 191.079 105.978C192.052 104.958 193.095 104.101 194.207 103.406C195.319 102.711 196.408 102.178 197.473 101.807C198.539 101.39 199.489 101.182 200.323 101.182L199.003 108.827ZM212.594 144.971H206.617C207.266 143.627 207.868 142.33 208.424 141.078C209.026 139.874 209.606 138.623 210.162 137.325C210.764 136.074 211.366 134.753 211.969 133.363C212.571 132.019 213.243 130.56 213.985 128.984C212.919 126.899 211.83 124.721 210.718 122.451C209.606 120.134 208.494 117.817 207.381 115.5C206.269 113.183 205.157 110.866 204.045 108.549C202.979 106.232 201.914 104.031 200.848 101.946H207.312C208.98 105.236 210.347 108.016 211.413 110.287C212.525 112.558 213.429 114.527 214.124 116.195C214.865 117.817 215.444 119.207 215.861 120.365C216.325 121.524 216.719 122.59 217.043 123.563C217.414 122.59 217.807 121.524 218.224 120.365C218.688 119.207 219.267 117.817 219.962 116.195C220.704 114.527 221.607 112.558 222.673 110.287C223.785 108.016 225.175 105.236 226.843 101.946H233.307L212.594 144.971ZM252.977 91.3809V85.1948H263.889V131H257.425V91.3809H252.977ZM274.087 91.3809V85.1948H284.999V131H278.535V91.3809H274.087Z" fill="#1D0437"/>
<path d="M293.935 83.4799L358.965 53.3529L368.888 36.3777L293.935 83.4799Z" fill="white"/>
<path d="M358.535 52.8799L367.107 38.217L302.364 78.9032L358.535 52.8799Z" stroke="#00D0FE" stroke-width="1.21907"/>
<path d="M295.971 83.948L342.545 71.8987L355.559 57.0083L295.971 83.948Z" fill="#280749"/>
<path d="M339.65 40.5081L291.497 83.6325L331.421 58.4892L339.65 40.5081Z" fill="#10021F"/>
<path d="M312.664 62.6033L302.094 65.1939L291.344 82.2609L312.664 62.6033Z" fill="#10021F"/>
<path d="M295.002 78.299L302.629 70.6799L302.316 66.7178L295.002 78.299Z" fill="white"/>
<path d="M24.5728 185.15C22.5074 185.15 20.6426 184.689 18.9782 183.767C17.3339 182.844 16.0305 181.571 15.068 179.947C14.1255 178.323 13.6543 176.498 13.6543 174.473C13.6543 172.447 14.1255 170.622 15.068 168.998C16.0305 167.374 17.3339 166.101 18.9782 165.178C20.6426 164.256 22.5074 163.795 24.5728 163.795C26.0968 163.795 27.5005 164.045 28.7838 164.547C30.0672 165.028 31.16 165.75 32.0624 166.712L31.0999 167.705C29.4155 166.04 27.2598 165.208 24.633 165.208C22.8684 165.208 21.2642 165.609 19.8204 166.411C18.3766 167.214 17.2437 168.326 16.4215 169.75C15.5994 171.154 15.1883 172.728 15.1883 174.473C15.1883 176.217 15.5994 177.801 16.4215 179.225C17.2437 180.629 18.3766 181.731 19.8204 182.534C21.2642 183.336 22.8684 183.737 24.633 183.737C27.2398 183.737 29.3954 182.895 31.0999 181.21L32.0624 182.203C31.16 183.165 30.0571 183.897 28.7537 184.398C27.4704 184.9 26.0768 185.15 24.5728 185.15ZM41.7486 169.179C43.6937 169.179 45.1876 169.68 46.2303 170.683C47.273 171.665 47.7944 173.119 47.7944 175.044V185H46.3506V182.203C45.8493 183.125 45.1174 183.847 44.1549 184.368C43.1924 184.87 42.0394 185.12 40.6959 185.12C38.9513 185.12 37.5677 184.709 36.545 183.887C35.5424 183.065 35.0411 181.982 35.0411 180.639C35.0411 179.335 35.5023 178.282 36.4247 177.48C37.3672 176.658 38.8611 176.247 40.9064 176.247H46.2905V174.984C46.2905 173.52 45.8894 172.407 45.0873 171.645C44.3053 170.883 43.1523 170.502 41.6283 170.502C40.5856 170.502 39.583 170.683 38.6204 171.044C37.678 171.405 36.8759 171.886 36.2142 172.487L35.4622 171.405C36.2442 170.703 37.1867 170.161 38.2896 169.78C39.3925 169.379 40.5455 169.179 41.7486 169.179ZM40.9064 183.887C42.2098 183.887 43.3127 183.586 44.2151 182.985C45.1375 182.383 45.8293 181.511 46.2905 180.368V177.42H40.9365C39.3925 177.42 38.2695 177.701 37.5677 178.262C36.8859 178.824 36.545 179.596 36.545 180.578C36.545 181.601 36.926 182.413 37.688 183.015C38.45 183.596 39.5228 183.887 40.9064 183.887ZM55.4346 172.728C55.9158 171.585 56.6678 170.713 57.6905 170.111C58.7131 169.49 59.9564 169.179 61.4202 169.179V170.653L61.0593 170.622C59.3147 170.622 57.9511 171.174 56.9686 172.277C55.986 173.36 55.4947 174.874 55.4947 176.819V185H53.9908V169.299H55.4346V172.728ZM65.564 162.682H67.0679V185H65.564V162.682ZM86.6714 177.51H73.1661C73.2062 178.734 73.517 179.826 74.0985 180.789C74.6801 181.731 75.4621 182.463 76.4447 182.985C77.4473 183.506 78.5702 183.767 79.8135 183.767C80.8361 183.767 81.7786 183.586 82.6408 183.225C83.5232 182.844 84.2551 182.293 84.8366 181.571L85.7089 182.564C85.0271 183.386 84.1648 184.017 83.1221 184.459C82.0994 184.9 80.9865 185.12 79.7834 185.12C78.2193 185.12 76.8257 184.779 75.6025 184.098C74.3793 183.416 73.4168 182.473 72.7149 181.27C72.0332 180.067 71.6923 178.694 71.6923 177.15C71.6923 175.626 72.0131 174.262 72.6548 173.059C73.3165 171.836 74.2189 170.883 75.3618 170.201C76.5048 169.52 77.7882 169.179 79.2119 169.179C80.6356 169.179 81.9089 169.52 83.0319 170.201C84.1749 170.863 85.0672 171.796 85.7089 172.999C86.3706 174.202 86.7015 175.565 86.7015 177.089L86.6714 177.51ZM79.2119 170.502C78.109 170.502 77.1164 170.753 76.2341 171.254C75.3518 171.735 74.64 172.427 74.0985 173.33C73.5772 174.212 73.2764 175.214 73.1962 176.337H85.2276C85.1674 175.214 84.8667 174.212 84.3252 173.33C83.7838 172.447 83.072 171.755 82.1897 171.254C81.3074 170.753 80.3148 170.502 79.2119 170.502ZM99.1443 184.007C98.7633 184.368 98.2821 184.649 97.7006 184.85C97.1391 185.03 96.5476 185.12 95.9259 185.12C94.5624 185.12 93.5096 184.749 92.7677 184.007C92.0257 183.245 91.6548 182.193 91.6548 180.849V170.592H88.7672V169.299H91.6548V165.87H93.1587V169.299H98.1517V170.592H93.1587V180.699C93.1587 181.721 93.3993 182.503 93.8806 183.045C94.3819 183.566 95.1138 183.827 96.0763 183.827C97.0589 183.827 97.871 183.536 98.5127 182.955L99.1443 184.007ZM108.916 185.12C107.432 185.12 106.089 184.779 104.886 184.098C103.703 183.416 102.77 182.473 102.088 181.27C101.407 180.047 101.066 178.673 101.066 177.15C101.066 175.626 101.407 174.262 102.088 173.059C102.77 171.836 103.703 170.883 104.886 170.201C106.089 169.52 107.432 169.179 108.916 169.179C110.4 169.179 111.734 169.52 112.917 170.201C114.12 170.883 115.062 171.836 115.744 173.059C116.426 174.262 116.767 175.626 116.767 177.15C116.767 178.673 116.426 180.047 115.744 181.27C115.062 182.473 114.12 183.416 112.917 184.098C111.734 184.779 110.4 185.12 108.916 185.12ZM108.916 183.767C110.119 183.767 111.192 183.486 112.135 182.925C113.097 182.363 113.849 181.581 114.391 180.578C114.952 179.576 115.233 178.433 115.233 177.15C115.233 175.866 114.952 174.723 114.391 173.721C113.849 172.718 113.097 171.936 112.135 171.374C111.192 170.813 110.119 170.532 108.916 170.532C107.713 170.532 106.63 170.813 105.668 171.374C104.725 171.936 103.973 172.718 103.412 173.721C102.871 174.723 102.6 175.866 102.6 177.15C102.6 178.433 102.871 179.576 103.412 180.578C103.973 181.581 104.725 182.363 105.668 182.925C106.63 183.486 107.713 183.767 108.916 183.767ZM129.103 169.179C131.068 169.179 132.622 169.75 133.765 170.893C134.908 172.036 135.479 173.68 135.479 175.826V185H133.975V175.946C133.975 174.182 133.524 172.838 132.622 171.916C131.739 170.993 130.496 170.532 128.892 170.532C127.047 170.532 125.593 171.084 124.531 172.187C123.468 173.289 122.936 174.773 122.936 176.638V185H121.433V169.299H122.876V172.698C123.418 171.595 124.22 170.733 125.283 170.111C126.365 169.49 127.639 169.179 129.103 169.179ZM158.119 185.15C155.452 185.15 153.377 184.378 151.893 182.834C150.429 181.29 149.697 179.034 149.697 176.067V163.945H151.231V176.007C151.231 178.593 151.823 180.528 153.006 181.812C154.189 183.095 155.903 183.737 158.149 183.737C160.375 183.737 162.079 183.095 163.262 181.812C164.445 180.528 165.037 178.593 165.037 176.007V163.945H166.571V176.067C166.571 179.034 165.829 181.29 164.345 182.834C162.861 184.378 160.786 185.15 158.119 185.15ZM180.918 169.179C182.883 169.179 184.437 169.75 185.58 170.893C186.723 172.036 187.294 173.68 187.294 175.826V185H185.79V175.946C185.79 174.182 185.339 172.838 184.437 171.916C183.554 170.993 182.311 170.532 180.707 170.532C178.862 170.532 177.408 171.084 176.346 172.187C175.283 173.289 174.751 174.773 174.751 176.638V185H173.247V169.299H174.691V172.698C175.233 171.595 176.035 170.733 177.098 170.111C178.18 169.49 179.454 169.179 180.918 169.179ZM193.486 169.299H194.99V185H193.486V169.299ZM194.238 165.479C193.897 165.479 193.606 165.369 193.366 165.148C193.125 164.908 193.005 164.617 193.005 164.276C193.005 163.935 193.125 163.644 193.366 163.404C193.606 163.163 193.897 163.043 194.238 163.043C194.579 163.043 194.869 163.163 195.11 163.404C195.351 163.624 195.471 163.905 195.471 164.246C195.471 164.587 195.351 164.877 195.11 165.118C194.869 165.359 194.579 165.479 194.238 165.479ZM213.932 169.299L206.833 185H205.299L198.231 169.299H199.825L206.081 183.346L212.398 169.299H213.932ZM230.044 177.51H216.539C216.579 178.734 216.889 179.826 217.471 180.789C218.052 181.731 218.834 182.463 219.817 182.985C220.82 183.506 221.943 183.767 223.186 183.767C224.209 183.767 225.151 183.586 226.013 183.225C226.896 182.844 227.627 182.293 228.209 181.571L229.081 182.564C228.399 183.386 227.537 184.017 226.494 184.459C225.472 184.9 224.359 185.12 223.156 185.12C221.592 185.12 220.198 184.779 218.975 184.098C217.752 183.416 216.789 182.473 216.087 181.27C215.406 180.067 215.065 178.694 215.065 177.15C215.065 175.626 215.385 174.262 216.027 173.059C216.689 171.836 217.591 170.883 218.734 170.201C219.877 169.52 221.161 169.179 222.584 169.179C224.008 169.179 225.281 169.52 226.404 170.201C227.547 170.863 228.44 171.796 229.081 172.999C229.743 174.202 230.074 175.565 230.074 177.089L230.044 177.51ZM222.584 170.502C221.481 170.502 220.489 170.753 219.607 171.254C218.724 171.735 218.012 172.427 217.471 173.33C216.95 174.212 216.649 175.214 216.569 176.337H228.6C228.54 175.214 228.239 174.212 227.698 173.33C227.156 172.447 226.444 171.755 225.562 171.254C224.68 170.753 223.687 170.502 222.584 170.502ZM236.17 172.728C236.651 171.585 237.403 170.713 238.426 170.111C239.449 169.49 240.692 169.179 242.156 169.179V170.653L241.795 170.622C240.05 170.622 238.687 171.174 237.704 172.277C236.722 173.36 236.23 174.874 236.23 176.819V185H234.726V169.299H236.17V172.728ZM250.417 185.12C249.153 185.12 247.95 184.93 246.807 184.549C245.664 184.168 244.772 183.687 244.13 183.105L244.822 181.902C245.464 182.443 246.286 182.895 247.289 183.255C248.311 183.616 249.374 183.797 250.477 183.797C252.061 183.797 253.224 183.536 253.966 183.015C254.728 182.493 255.109 181.772 255.109 180.849C255.109 180.187 254.898 179.666 254.477 179.285C254.076 178.904 253.575 178.623 252.973 178.443C252.372 178.262 251.54 178.072 250.477 177.871C249.234 177.651 248.231 177.41 247.469 177.15C246.707 176.889 246.055 176.468 245.514 175.886C244.973 175.305 244.702 174.503 244.702 173.48C244.702 172.237 245.213 171.214 246.236 170.412C247.279 169.59 248.752 169.179 250.657 169.179C251.66 169.179 252.653 169.319 253.635 169.6C254.618 169.881 255.42 170.251 256.041 170.713L255.35 171.916C254.708 171.455 253.976 171.104 253.154 170.863C252.332 170.622 251.49 170.502 250.627 170.502C249.164 170.502 248.061 170.773 247.319 171.314C246.577 171.856 246.206 172.568 246.206 173.45C246.206 174.152 246.416 174.703 246.837 175.104C247.259 175.485 247.77 175.776 248.371 175.976C248.993 176.157 249.855 176.357 250.958 176.578C252.181 176.799 253.164 177.039 253.906 177.3C254.668 177.541 255.31 177.942 255.831 178.503C256.352 179.065 256.613 179.837 256.613 180.819C256.613 182.122 256.072 183.165 254.989 183.947C253.906 184.729 252.382 185.12 250.417 185.12ZM260.81 169.299H262.314V185H260.81V169.299ZM261.562 165.479C261.221 165.479 260.93 165.369 260.69 165.148C260.449 164.908 260.329 164.617 260.329 164.276C260.329 163.935 260.449 163.644 260.69 163.404C260.93 163.163 261.221 163.043 261.562 163.043C261.903 163.043 262.194 163.163 262.434 163.404C262.675 163.624 262.795 163.905 262.795 164.246C262.795 164.587 262.675 164.877 262.434 165.118C262.194 165.359 261.903 165.479 261.562 165.479ZM276.443 184.007C276.062 184.368 275.581 184.649 274.999 184.85C274.438 185.03 273.846 185.12 273.225 185.12C271.861 185.12 270.808 184.749 270.067 184.007C269.325 183.245 268.954 182.193 268.954 180.849V170.592H266.066V169.299H268.954V165.87H270.458V169.299H275.451V170.592H270.458V180.699C270.458 181.721 270.698 182.503 271.179 183.045C271.681 183.566 272.413 183.827 273.375 183.827C274.358 183.827 275.17 183.536 275.812 182.955L276.443 184.007ZM292.946 169.299L284.885 187.136C284.284 188.519 283.582 189.502 282.78 190.083C281.998 190.665 281.065 190.956 279.983 190.956C279.261 190.956 278.579 190.835 277.937 190.595C277.316 190.354 276.784 190.003 276.343 189.542L277.095 188.399C277.897 189.221 278.87 189.632 280.013 189.632C280.775 189.632 281.426 189.422 281.968 189C282.509 188.579 283.011 187.857 283.472 186.835L284.314 184.94L277.245 169.299H278.84L285.126 183.346L291.412 169.299H292.946Z" fill="#10021F"/>
</g>
<defs>
<filter id="filter0_d" x="0.123779" y="26.3777" width="378.764" height="174.578" filterUnits="userSpaceOnUse" color-interpolation-filters="sRGB">
<feFlood flood-opacity="0" result="BackgroundImageFix"/>
<feColorMatrix in="SourceAlpha" type="matrix" values="0 0 0 0 0 0 0 0 0 0 0 0 0 0 0 0 0 0 127 0"/>
<feOffset/>
<feGaussianBlur stdDeviation="5"/>
<feColorMatrix type="matrix" values="0 0 0 0 0 0 0 0 0 0 0 0 0 0 0 0 0 0 0.25 0"/>
<feBlend mode="normal" in2="BackgroundImageFix" result="effect1_dropShadow"/>
<feBlend mode="normal" in="SourceGraphic" in2="effect1_dropShadow" result="shape"/>
</filter>
</defs>
</svg>
