<?xml version="1.0" encoding="utf-8"?>
<!-- Generator: Adobe Illustrator 23.0.3, SVG Export Plug-In . SVG Version: 6.00 Build 0)  -->
<svg version="1.1" id="Layer_1" xmlns="http://www.w3.org/2000/svg" xmlns:xlink="http://www.w3.org/1999/xlink" x="0px" y="0px"
	 viewBox="0 0 462 202" style="enable-background:new 0 0 462 202;" xml:space="preserve">
<style type="text/css">
	.st0{fill:#1D0437;}
	.st1{fill:#FFFFFF;}
	.st2{fill:none;stroke:#00D0FE;stroke-width:1.2191;}
	.st3{fill:#280749;}
	.st4{fill:#10021F;}
</style>
<path class="st0" d="M10.4,142.4v-7.2c3.2-0.2,5.9-1.3,7.9-3.3c2.1-2,3.1-5.2,3.1-9.5V81.6h7.6v41c0,3.1-0.5,5.9-1.4,8.3
	c-0.9,2.4-2.2,4.4-3.9,6.1c-1.7,1.7-3.7,3-6,3.9C15.6,141.8,13.1,142.3,10.4,142.4z M35.8,117.8c0-2.1,0.4-4.1,1.2-6
	c0.8-1.9,1.9-3.5,3.3-4.9c1.4-1.4,3-2.6,4.8-3.4c1.9-0.8,3.8-1.3,5.9-1.3c1.4,0,2.7,0.2,3.8,0.6c1.2,0.3,2.2,0.7,3,1.3
	c0.8,0.5,1.5,1,2,1.6c0.5,0.6,0.9,1,1,1.5l0.3-4.1h5.7V132h-6v-3.7c-0.2,0.4-0.6,0.8-1.1,1.3c-0.5,0.5-1.2,1-2,1.5
	c-0.8,0.4-1.7,0.8-2.8,1.1c-1.1,0.3-2.4,0.5-3.8,0.5c-2.2,0-4.3-0.4-6.2-1.2c-1.9-0.8-3.5-1.9-4.8-3.3c-1.3-1.4-2.4-3-3.2-4.8
	C36.1,121.6,35.8,119.7,35.8,117.8z M41.7,117.4c0,1.3,0.2,2.6,0.7,3.8c0.5,1.2,1.2,2.2,2,3c0.8,0.8,1.8,1.5,3,2
	c1.2,0.5,2.4,0.7,3.8,0.7c1.4,0,2.7-0.2,3.8-0.7c1.2-0.5,2.2-1.2,3.1-2c0.9-0.9,1.6-1.9,2-3c0.5-1.2,0.7-2.4,0.7-3.8
	c0-1.3-0.2-2.6-0.7-3.7c-0.5-1.2-1.1-2.2-2-3c-0.8-0.8-1.9-1.5-3.1-1.9c-1.2-0.5-2.4-0.8-3.8-0.8c-1.4,0-2.7,0.3-3.8,0.8
	c-1.2,0.5-2.2,1.1-3,1.9c-0.8,0.8-1.5,1.8-2,3C42,114.8,41.7,116.1,41.7,117.4z M75.2,102.9h5.2c0.1,1.4,0.2,2.8,0.2,4
	c0.1,1.2,0.2,2.3,0.3,3.5c1.1-2.5,2.6-4.5,4.5-6c2-1.5,4.4-2.2,7.3-2.2c2.9,0,5.3,0.8,7,2.4c1.8,1.6,2.7,3.7,2.8,6.3V132h-6v-18.4
	c-0.1-1.5-0.6-2.7-1.5-3.8c-0.9-1.1-2.4-1.6-4.4-1.7c-1.4,0-2.7,0.3-3.8,0.8c-1.2,0.5-2.2,1.1-3,1.9c-0.8,0.8-1.5,1.8-2,3
	c-0.5,1.2-0.7,2.4-0.7,3.8V132h-5.9V102.9z M137.6,132.6h-5l-0.7-8.1c-1.1,2.4-2.6,4.3-4.5,5.8c-1.9,1.5-4.3,2.3-7.3,2.3
	c-3,0-5.3-0.8-7.1-2.4c-1.7-1.6-2.6-3.7-2.7-6.3v-21.1h5.9v18.4c0.1,1.4,0.6,2.7,1.5,3.7c1,1,2.5,1.6,4.4,1.7c1.4,0,2.7-0.2,3.8-0.7
	c1.2-0.5,2.2-1.2,3-2c0.8-0.8,1.5-1.8,1.9-3c0.5-1.2,0.7-2.4,0.7-3.8v-14.3h6V132.6z M143.9,117.8c0-2.1,0.4-4.1,1.2-6
	c0.8-1.9,1.9-3.5,3.3-4.9c1.4-1.4,3-2.6,4.8-3.4c1.9-0.8,3.8-1.3,5.9-1.3c1.4,0,2.7,0.2,3.8,0.6c1.2,0.3,2.2,0.7,3,1.3
	c0.8,0.5,1.5,1,2,1.6c0.5,0.6,0.9,1,1,1.5l0.3-4.1h5.7V132h-6v-3.7c-0.2,0.4-0.6,0.8-1.1,1.3c-0.5,0.5-1.2,1-2,1.5
	c-0.8,0.4-1.7,0.8-2.8,1.1c-1.1,0.3-2.4,0.5-3.8,0.5c-2.2,0-4.3-0.4-6.2-1.2c-1.9-0.8-3.5-1.9-4.8-3.3c-1.3-1.4-2.4-3-3.2-4.8
	C144.3,121.6,143.9,119.7,143.9,117.8z M149.9,117.4c0,1.3,0.2,2.6,0.7,3.8c0.5,1.2,1.2,2.2,2,3c0.8,0.8,1.8,1.5,3,2
	c1.2,0.5,2.4,0.7,3.8,0.7s2.7-0.2,3.8-0.7c1.2-0.5,2.2-1.2,3.1-2c0.9-0.9,1.6-1.9,2-3c0.5-1.2,0.7-2.4,0.7-3.8
	c0-1.3-0.2-2.6-0.7-3.7c-0.5-1.2-1.1-2.2-2-3c-0.8-0.8-1.9-1.5-3.1-1.9c-1.2-0.5-2.4-0.8-3.8-0.8s-2.7,0.3-3.8,0.8
	c-1.2,0.5-2.2,1.1-3,1.9s-1.5,1.8-2,3C150.1,114.8,149.9,116.1,149.9,117.4z M199.3,109.8c-1.3,0-2.5,0.2-3.8,0.6
	c-1.2,0.3-2.3,0.8-3.3,1.5c-0.9,0.7-1.7,1.6-2.2,2.6c-0.6,1-0.8,2.2-0.8,3.5V132h-5.9v-29.1h5.2c0.1,1.4,0.2,2.8,0.2,4
	c0.1,1.2,0.2,2.3,0.3,3.5c0.6-1.3,1.4-2.4,2.4-3.4c1-1,2-1.9,3.1-2.6s2.2-1.2,3.3-1.6c1.1-0.4,2-0.6,2.9-0.6L199.3,109.8z
	 M212.9,146h-6c0.6-1.3,1.3-2.6,1.8-3.9c0.6-1.2,1.2-2.5,1.7-3.8c0.6-1.3,1.2-2.6,1.8-4c0.6-1.3,1.3-2.8,2-4.4
	c-1.1-2.1-2.2-4.3-3.3-6.5c-1.1-2.3-2.2-4.6-3.3-7s-2.2-4.6-3.3-7c-1.1-2.3-2.1-4.5-3.2-6.6h6.5c1.7,3.3,3,6.1,4.1,8.3
	c1.1,2.3,2,4.2,2.7,5.9c0.7,1.6,1.3,3,1.7,4.2c0.5,1.2,0.9,2.2,1.2,3.2c0.4-1,0.8-2,1.2-3.2c0.5-1.2,1-2.5,1.7-4.2
	c0.7-1.7,1.6-3.6,2.7-5.9c1.1-2.3,2.5-5.1,4.2-8.3h6.5L212.9,146z M253.3,92.4v-6.2h10.9V132h-6.5V92.4H253.3z M274.4,92.4v-6.2
	h10.9V132h-6.5V92.4H274.4z M296,120v-6.2H309v6.2H296z M316.1,92.4v-6.2H327V132h-6.5V92.4H316.1z M352.8,125.8h16.3v6.2h-31.6
	c2.9-2.9,5.7-5.7,8.3-8.5c2.7-2.7,5.1-5.4,7.2-7.9c2.1-2.6,3.8-5.1,5-7.4c1.3-2.4,1.9-4.7,1.9-7c0-1.6-0.3-3-0.8-4.2
	c-0.6-1.2-1.3-2.2-2.1-2.9c-0.8-0.8-1.7-1.4-2.6-1.7c-1-0.4-1.9-0.6-2.7-0.6c-1.7,0-3.1,0.3-4.2,0.9c-1.1,0.6-1.9,1.3-2.6,2.2
	c-0.6,0.8-1.1,1.7-1.4,2.6c-0.2,0.9-0.3,1.7-0.3,2.4c0,1.6,0.2,2.9,0.7,4.1c0.5,1.2,1.2,2.2,2,3.1l-3.8,4c-0.8-0.5-1.6-1.2-2.3-2.1
	c-0.6-0.9-1.2-1.9-1.7-2.9c-0.5-1.1-0.8-2.1-1-3.2c-0.2-1.1-0.3-2.1-0.3-3c0-1.9,0.3-3.6,1-5.4c0.6-1.8,1.6-3.3,2.9-4.7
	c1.3-1.3,2.9-2.4,4.7-3.2c1.9-0.8,4-1.2,6.4-1.2c2.2,0,4.2,0.4,6,1.2c1.8,0.8,3.3,1.9,4.6,3.3c1.3,1.3,2.3,2.9,3,4.7
	c0.7,1.8,1.1,3.6,1.1,5.6c0,2.3-0.4,4.5-1.1,6.7c-0.7,2.1-1.8,4.3-3.1,6.4c-1.3,2.1-2.7,4.1-4.4,6.2
	C356.3,121.7,354.6,123.7,352.8,125.8z"/>
<g>
	<path class="st1" d="M376.9,83.5l65-30.1l9.9-17L376.9,83.5z"/>
	<path class="st2" d="M441.5,52.9l8.6-14.7l-64.7,40.7L441.5,52.9z"/>
</g>
<path class="st3" d="M379,83.9l46.6-12l13-14.9L379,83.9z"/>
<path class="st4" d="M422.6,40.5l-48.2,43.1l39.9-25.1L422.6,40.5z"/>
<path class="st4" d="M395.7,62.6l-10.6,2.6l-10.8,17.1L395.7,62.6z"/>
<path class="st1" d="M378,78.3l7.6-7.6l-0.3-4L378,78.3z"/>
<path class="st4" d="M64.6,186.1c-2.1,0-3.9-0.5-5.6-1.4c-1.6-0.9-2.9-2.2-3.9-3.8c-0.9-1.6-1.4-3.4-1.4-5.5c0-2,0.5-3.9,1.4-5.5
	c1-1.6,2.3-2.9,3.9-3.8c1.7-0.9,3.5-1.4,5.6-1.4c1.5,0,2.9,0.3,4.2,0.8c1.3,0.5,2.4,1.2,3.3,2.2l-1,1c-1.7-1.7-3.8-2.5-6.5-2.5
	c-1.8,0-3.4,0.4-4.8,1.2c-1.4,0.8-2.6,1.9-3.4,3.3c-0.8,1.4-1.2,3-1.2,4.7c0,1.7,0.4,3.3,1.2,4.8c0.8,1.4,2,2.5,3.4,3.3
	c1.4,0.8,3,1.2,4.8,1.2c2.6,0,4.8-0.8,6.5-2.5l1,1c-0.9,1-2,1.7-3.3,2.2C67.5,185.9,66.1,186.1,64.6,186.1z M81.7,170.2
	c1.9,0,3.4,0.5,4.5,1.5c1,1,1.6,2.4,1.6,4.4v10h-1.4v-2.8c-0.5,0.9-1.2,1.6-2.2,2.2c-1,0.5-2.1,0.8-3.5,0.8c-1.7,0-3.1-0.4-4.2-1.2
	c-1-0.8-1.5-1.9-1.5-3.2c0-1.3,0.5-2.4,1.4-3.2c0.9-0.8,2.4-1.2,4.5-1.2h5.4V176c0-1.5-0.4-2.6-1.2-3.3c-0.8-0.8-1.9-1.1-3.5-1.1
	c-1,0-2,0.2-3,0.5c-0.9,0.4-1.7,0.8-2.4,1.4l-0.8-1.1c0.8-0.7,1.7-1.2,2.8-1.6C79.4,170.4,80.5,170.2,81.7,170.2z M80.9,184.9
	c1.3,0,2.4-0.3,3.3-0.9c0.9-0.6,1.6-1.5,2.1-2.6v-2.9h-5.4c-1.5,0-2.7,0.3-3.4,0.8c-0.7,0.6-1,1.3-1,2.3c0,1,0.4,1.8,1.1,2.4
	C78.4,184.6,79.5,184.9,80.9,184.9z M95.4,173.7c0.5-1.1,1.2-2,2.3-2.6c1-0.6,2.3-0.9,3.7-0.9v1.5l-0.4,0c-1.7,0-3.1,0.6-4.1,1.7
	c-1,1.1-1.5,2.6-1.5,4.5v8.2H94v-15.7h1.4V173.7z M105.6,163.7h1.5V186h-1.5V163.7z M126.7,178.5h-13.5c0,1.2,0.4,2.3,0.9,3.3
	c0.6,0.9,1.4,1.7,2.3,2.2c1,0.5,2.1,0.8,3.4,0.8c1,0,2-0.2,2.8-0.5c0.9-0.4,1.6-0.9,2.2-1.7l0.9,1c-0.7,0.8-1.5,1.5-2.6,1.9
	c-1,0.4-2.1,0.7-3.3,0.7c-1.6,0-3-0.3-4.2-1c-1.2-0.7-2.2-1.6-2.9-2.8c-0.7-1.2-1-2.6-1-4.1c0-1.5,0.3-2.9,1-4.1
	c0.7-1.2,1.6-2.2,2.7-2.9c1.1-0.7,2.4-1,3.8-1c1.4,0,2.7,0.3,3.8,1c1.1,0.7,2,1.6,2.7,2.8c0.7,1.2,1,2.6,1,4.1L126.7,178.5z
	 M119.2,171.5c-1.1,0-2.1,0.3-3,0.8c-0.9,0.5-1.6,1.2-2.1,2.1c-0.5,0.9-0.8,1.9-0.9,3h12c-0.1-1.1-0.4-2.1-0.9-3
	c-0.5-0.9-1.3-1.6-2.1-2.1C121.3,171.8,120.3,171.5,119.2,171.5z M139.1,185c-0.4,0.4-0.9,0.6-1.4,0.8c-0.6,0.2-1.2,0.3-1.8,0.3
	c-1.4,0-2.4-0.4-3.2-1.1c-0.7-0.8-1.1-1.8-1.1-3.2v-10.3h-2.9v-1.3h2.9v-3.4h1.5v3.4h5v1.3h-5v10.1c0,1,0.2,1.8,0.7,2.3
	c0.5,0.5,1.2,0.8,2.2,0.8c1,0,1.8-0.3,2.4-0.9L139.1,185z M148.9,186.1c-1.5,0-2.8-0.3-4-1c-1.2-0.7-2.1-1.6-2.8-2.8
	c-0.7-1.2-1-2.6-1-4.1c0-1.5,0.3-2.9,1-4.1c0.7-1.2,1.6-2.2,2.8-2.9c1.2-0.7,2.5-1,4-1s2.8,0.3,4,1c1.2,0.7,2.1,1.6,2.8,2.9
	c0.7,1.2,1,2.6,1,4.1c0,1.5-0.3,2.9-1,4.1c-0.7,1.2-1.6,2.1-2.8,2.8C151.7,185.8,150.4,186.1,148.9,186.1z M148.9,184.8
	c1.2,0,2.3-0.3,3.2-0.8c1-0.6,1.7-1.3,2.3-2.3c0.6-1,0.8-2.1,0.8-3.4c0-1.3-0.3-2.4-0.8-3.4c-0.5-1-1.3-1.8-2.3-2.3
	c-0.9-0.6-2-0.8-3.2-0.8s-2.3,0.3-3.2,0.8c-0.9,0.6-1.7,1.3-2.3,2.3c-0.5,1-0.8,2.1-0.8,3.4c0,1.3,0.3,2.4,0.8,3.4
	c0.6,1,1.3,1.8,2.3,2.3C146.6,184.5,147.7,184.8,148.9,184.8z M169.1,170.2c2,0,3.5,0.6,4.7,1.7c1.1,1.1,1.7,2.8,1.7,4.9v9.2H174
	v-9.1c0-1.8-0.5-3.1-1.4-4c-0.9-0.9-2.1-1.4-3.7-1.4c-1.8,0-3.3,0.6-4.4,1.7c-1.1,1.1-1.6,2.6-1.6,4.5v8.4h-1.5v-15.7h1.4v3.4
	c0.5-1.1,1.3-2,2.4-2.6C166.4,170.5,167.6,170.2,169.1,170.2z M198.1,186.1c-2.7,0-4.7-0.8-6.2-2.3c-1.5-1.5-2.2-3.8-2.2-6.8v-12.1
	h1.5V177c0,2.6,0.6,4.5,1.8,5.8c1.2,1.3,2.9,1.9,5.1,1.9c2.2,0,3.9-0.6,5.1-1.9c1.2-1.3,1.8-3.2,1.8-5.8v-12.1h1.5v12.1
	c0,3-0.7,5.2-2.2,6.8C202.9,185.4,200.8,186.1,198.1,186.1z M220.9,170.2c2,0,3.5,0.6,4.7,1.7c1.1,1.1,1.7,2.8,1.7,4.9v9.2h-1.5
	v-9.1c0-1.8-0.5-3.1-1.4-4c-0.9-0.9-2.1-1.4-3.7-1.4c-1.8,0-3.3,0.6-4.4,1.7c-1.1,1.1-1.6,2.6-1.6,4.5v8.4h-1.5v-15.7h1.4v3.4
	c0.5-1.1,1.3-2,2.4-2.6C218.2,170.5,219.5,170.2,220.9,170.2z M233.5,170.3h1.5V186h-1.5V170.3z M234.2,166.5
	c-0.3,0-0.6-0.1-0.9-0.3c-0.2-0.2-0.4-0.5-0.4-0.9s0.1-0.6,0.4-0.9c0.2-0.2,0.5-0.4,0.9-0.4c0.3,0,0.6,0.1,0.9,0.4
	c0.2,0.2,0.4,0.5,0.4,0.8s-0.1,0.6-0.4,0.9S234.6,166.5,234.2,166.5z M253.9,170.3l-7.1,15.7h-1.5l-7.1-15.7h1.6l6.3,14l6.3-14
	H253.9z M270,178.5h-13.5c0,1.2,0.4,2.3,0.9,3.3c0.6,0.9,1.4,1.7,2.3,2.2c1,0.5,2.1,0.8,3.4,0.8c1,0,2-0.2,2.8-0.5
	c0.9-0.4,1.6-0.9,2.2-1.7l0.9,1c-0.7,0.8-1.5,1.5-2.6,1.9c-1,0.4-2.1,0.7-3.3,0.7c-1.6,0-3-0.3-4.2-1c-1.2-0.7-2.2-1.6-2.9-2.8
	c-0.7-1.2-1-2.6-1-4.1c0-1.5,0.3-2.9,1-4.1c0.7-1.2,1.6-2.2,2.7-2.9c1.1-0.7,2.4-1,3.9-1c1.4,0,2.7,0.3,3.8,1c1.1,0.7,2,1.6,2.7,2.8
	c0.7,1.2,1,2.6,1,4.1L270,178.5z M262.6,171.5c-1.1,0-2.1,0.3-3,0.8c-0.9,0.5-1.6,1.2-2.1,2.1c-0.5,0.9-0.8,1.9-0.9,3h12
	c-0.1-1.1-0.4-2.1-0.9-3c-0.5-0.9-1.3-1.6-2.1-2.1C264.7,171.8,263.7,171.5,262.6,171.5z M276.2,173.7c0.5-1.1,1.2-2,2.3-2.6
	c1-0.6,2.3-0.9,3.7-0.9v1.5l-0.4,0c-1.7,0-3.1,0.6-4.1,1.7c-1,1.1-1.5,2.6-1.5,4.5v8.2h-1.5v-15.7h1.4V173.7z M290.4,186.1
	c-1.3,0-2.5-0.2-3.6-0.6s-2-0.9-2.7-1.4l0.7-1.2c0.6,0.5,1.5,1,2.5,1.4c1,0.4,2.1,0.5,3.2,0.5c1.6,0,2.7-0.3,3.5-0.8
	c0.8-0.5,1.1-1.2,1.1-2.2c0-0.7-0.2-1.2-0.6-1.6c-0.4-0.4-0.9-0.7-1.5-0.8c-0.6-0.2-1.4-0.4-2.5-0.6c-1.2-0.2-2.2-0.5-3-0.7
	c-0.8-0.3-1.4-0.7-2-1.3c-0.5-0.6-0.8-1.4-0.8-2.4c0-1.2,0.5-2.3,1.5-3.1c1-0.8,2.5-1.2,4.4-1.2c1,0,2,0.1,3,0.4
	c1,0.3,1.8,0.7,2.4,1.1l-0.7,1.2c-0.6-0.5-1.4-0.8-2.2-1.1c-0.8-0.2-1.7-0.4-2.5-0.4c-1.5,0-2.6,0.3-3.3,0.8
	c-0.7,0.5-1.1,1.3-1.1,2.1c0,0.7,0.2,1.3,0.6,1.7c0.4,0.4,0.9,0.7,1.5,0.9c0.6,0.2,1.5,0.4,2.6,0.6c1.2,0.2,2.2,0.5,2.9,0.7
	c0.8,0.2,1.4,0.6,1.9,1.2c0.5,0.6,0.8,1.3,0.8,2.3c0,1.3-0.5,2.3-1.6,3.1C293.9,185.7,292.4,186.1,290.4,186.1z M300.8,170.3h1.5
	V186h-1.5V170.3z M301.6,166.5c-0.3,0-0.6-0.1-0.9-0.3c-0.2-0.2-0.4-0.5-0.4-0.9s0.1-0.6,0.4-0.9c0.2-0.2,0.5-0.4,0.9-0.4
	s0.6,0.1,0.9,0.4c0.2,0.2,0.4,0.5,0.4,0.8s-0.1,0.6-0.4,0.9C302.2,166.4,301.9,166.5,301.6,166.5z M316.4,185
	c-0.4,0.4-0.9,0.6-1.4,0.8c-0.6,0.2-1.2,0.3-1.8,0.3c-1.4,0-2.4-0.4-3.2-1.1c-0.7-0.8-1.1-1.8-1.1-3.2v-10.3h-2.9v-1.3h2.9v-3.4h1.5
	v3.4h5v1.3h-5v10.1c0,1,0.2,1.8,0.7,2.3c0.5,0.5,1.2,0.8,2.2,0.8c1,0,1.8-0.3,2.4-0.9L316.4,185z M332.9,170.3l-8.1,17.8
	c-0.6,1.4-1.3,2.4-2.1,2.9c-0.8,0.6-1.7,0.9-2.8,0.9c-0.7,0-1.4-0.1-2-0.4c-0.6-0.2-1.2-0.6-1.6-1.1l0.8-1.1
	c0.8,0.8,1.8,1.2,2.9,1.2c0.8,0,1.4-0.2,2-0.6c0.5-0.4,1-1.1,1.5-2.2l0.8-1.9l-7.1-15.6h1.6l6.3,14l6.3-14H332.9z"/>
</svg>
