<svg width="462" height="202" viewBox="0 0 462 202" fill="none" xmlns="http://www.w3.org/2000/svg">
<path d="M10.4153 142.426V135.267C13.6589 135.081 16.3002 133.969 18.3391 131.93C20.4243 129.892 21.4669 126.717 21.4669 122.408V81.6076H29.1126V122.617C29.1126 125.721 28.6492 128.478 27.7225 130.888C26.7957 133.297 25.4983 135.336 23.8301 137.004C22.1619 138.719 20.1694 140.016 17.8525 140.897C15.582 141.824 13.1029 142.333 10.4153 142.426ZM35.7619 117.751C35.7619 115.62 36.1558 113.627 36.9435 111.774C37.7776 109.874 38.8897 108.229 40.2799 106.839C41.67 105.402 43.2686 104.267 45.0758 103.433C46.9293 102.599 48.8987 102.182 50.9839 102.182C52.374 102.182 53.6483 102.367 54.8068 102.738C55.9652 103.062 56.9615 103.479 57.7956 103.989C58.6297 104.498 59.3015 105.031 59.8113 105.587C60.321 106.143 60.6685 106.63 60.8539 107.047L61.1319 102.946H66.8315V132H60.8539V128.316C60.6222 128.687 60.2515 129.127 59.7418 129.637C59.232 130.146 58.5601 130.633 57.7261 131.096C56.9383 131.513 55.9884 131.884 54.8763 132.209C53.7642 132.533 52.4899 132.695 51.0534 132.695C48.8292 132.695 46.7672 132.301 44.8673 131.513C43.0138 130.679 41.4151 129.59 40.0713 128.247C38.7275 126.856 37.6618 125.258 36.874 123.451C36.1326 121.643 35.7619 119.744 35.7619 117.751ZM41.7395 117.404C41.7395 118.747 41.9712 119.998 42.4346 121.157C42.9443 122.315 43.6162 123.312 44.4503 124.146C45.2843 124.98 46.2806 125.652 47.4391 126.161C48.5975 126.625 49.8718 126.856 51.2619 126.856C52.6521 126.856 53.9264 126.625 55.0848 126.161C56.2896 125.652 57.309 124.98 58.1431 124.146C59.0235 123.265 59.6954 122.269 60.1588 121.157C60.6222 119.998 60.8539 118.747 60.8539 117.404C60.8539 116.06 60.6222 114.832 60.1588 113.72C59.6954 112.561 59.0235 111.565 58.1431 110.731C57.309 109.897 56.2896 109.248 55.0848 108.785C53.9264 108.275 52.6521 108.02 51.2619 108.02C49.8718 108.02 48.5975 108.275 47.4391 108.785C46.2806 109.248 45.2843 109.897 44.4503 110.731C43.6162 111.565 42.9443 112.561 42.4346 113.72C41.9712 114.832 41.7395 116.06 41.7395 117.404ZM75.1782 102.946H80.3913C80.4839 104.383 80.5534 105.703 80.5998 106.908C80.6924 108.066 80.7851 109.225 80.8778 110.383C81.9436 107.881 83.4496 105.889 85.3957 104.406C87.3883 102.923 89.821 102.182 92.694 102.182C95.6132 102.182 97.9533 102.992 99.7141 104.614C101.475 106.236 102.402 108.321 102.495 110.87V132H96.5168V113.581C96.4242 112.098 95.9144 110.847 94.9877 109.827C94.0609 108.762 92.6013 108.182 90.6088 108.09C89.2186 108.09 87.9443 108.345 86.7859 108.854C85.6274 109.318 84.6312 109.966 83.7971 110.8C82.963 111.635 82.2911 112.631 81.7814 113.789C81.318 114.948 81.0863 116.222 81.0863 117.612V132H75.1782V102.946ZM137.581 132.626H132.576L131.881 124.563C130.815 126.926 129.309 128.872 127.363 130.401C125.463 131.93 123.031 132.695 120.065 132.695C117.099 132.695 114.736 131.907 112.975 130.332C111.261 128.71 110.357 126.602 110.265 124.007V102.946H116.173V121.365C116.265 122.802 116.775 124.03 117.702 125.049C118.675 126.069 120.158 126.648 122.15 126.787C123.54 126.787 124.815 126.555 125.973 126.092C127.132 125.582 128.128 124.91 128.962 124.076C129.796 123.242 130.445 122.246 130.908 121.087C131.372 119.929 131.603 118.655 131.603 117.265V102.946H137.581V132.626ZM143.891 117.751C143.891 115.62 144.285 113.627 145.073 111.774C145.907 109.874 147.019 108.229 148.409 106.839C149.799 105.402 151.398 104.267 153.205 103.433C155.059 102.599 157.028 102.182 159.113 102.182C160.503 102.182 161.778 102.367 162.936 102.738C164.095 103.062 165.091 103.479 165.925 103.989C166.759 104.498 167.431 105.031 167.941 105.587C168.45 106.143 168.798 106.63 168.983 107.047L169.261 102.946H174.961V132H168.983V128.316C168.752 128.687 168.381 129.127 167.871 129.637C167.361 130.146 166.689 130.633 165.855 131.096C165.068 131.513 164.118 131.884 163.006 132.209C161.893 132.533 160.619 132.695 159.183 132.695C156.959 132.695 154.896 132.301 152.997 131.513C151.143 130.679 149.544 129.59 148.201 128.247C146.857 126.856 145.791 125.258 145.003 123.451C144.262 121.643 143.891 119.744 143.891 117.751ZM149.869 117.404C149.869 118.747 150.101 119.998 150.564 121.157C151.074 122.315 151.746 123.312 152.58 124.146C153.414 124.98 154.41 125.652 155.568 126.161C156.727 126.625 158.001 126.856 159.391 126.856C160.781 126.856 162.056 126.625 163.214 126.161C164.419 125.652 165.438 124.98 166.272 124.146C167.153 123.265 167.825 122.269 168.288 121.157C168.752 119.998 168.983 118.747 168.983 117.404C168.983 116.06 168.752 114.832 168.288 113.72C167.825 112.561 167.153 111.565 166.272 110.731C165.438 109.897 164.419 109.248 163.214 108.785C162.056 108.275 160.781 108.02 159.391 108.02C158.001 108.02 156.727 108.275 155.568 108.785C154.41 109.248 153.414 109.897 152.58 110.731C151.746 111.565 151.074 112.561 150.564 113.72C150.101 114.832 149.869 116.06 149.869 117.404ZM199.294 109.827C197.997 109.827 196.746 110.013 195.541 110.383C194.336 110.708 193.247 111.217 192.274 111.913C191.347 112.608 190.606 113.488 190.05 114.554C189.494 115.573 189.216 116.755 189.216 118.099V132H183.308V102.946H188.521C188.613 104.383 188.683 105.703 188.729 106.908C188.822 108.066 188.914 109.225 189.007 110.383C189.61 109.132 190.397 107.997 191.37 106.978C192.343 105.958 193.386 105.101 194.498 104.406C195.61 103.711 196.699 103.178 197.765 102.807C198.831 102.39 199.781 102.182 200.615 102.182L199.294 109.827ZM212.886 145.971H206.908C207.557 144.627 208.16 143.33 208.716 142.078C209.318 140.874 209.897 139.623 210.453 138.325C211.056 137.074 211.658 135.753 212.26 134.363C212.863 133.019 213.535 131.56 214.276 129.984C213.21 127.899 212.121 125.721 211.009 123.451C209.897 121.134 208.785 118.817 207.673 116.5C206.561 114.183 205.449 111.866 204.337 109.549C203.271 107.232 202.205 105.031 201.139 102.946H207.603C209.272 106.236 210.639 109.016 211.704 111.287C212.816 113.558 213.72 115.527 214.415 117.195C215.157 118.817 215.736 120.207 216.153 121.365C216.616 122.524 217.01 123.59 217.334 124.563C217.705 123.59 218.099 122.524 218.516 121.365C218.979 120.207 219.559 118.817 220.254 117.195C220.995 115.527 221.899 113.558 222.964 111.287C224.077 109.016 225.467 106.236 227.135 102.946H233.599L212.886 145.971ZM253.268 92.3811V86.195H264.181V132H257.717V92.3811H253.268ZM274.378 92.3811V86.195H285.291V132H278.827V92.3811H274.378ZM296.044 119.975V113.789H308.973V119.975H296.044ZM316.055 92.3811V86.195H326.968V132H320.504V92.3811H316.055ZM352.804 125.814H369.069V132H337.513C340.386 129.081 343.166 126.254 345.854 123.52C348.587 120.786 350.997 118.145 353.082 115.596C355.167 113.001 356.836 110.522 358.087 108.159C359.384 105.75 360.033 103.433 360.033 101.208C360.033 99.5867 359.755 98.1965 359.199 97.0381C358.643 95.8333 357.948 94.8602 357.114 94.1188C356.326 93.331 355.445 92.7518 354.472 92.3811C353.499 92.0104 352.596 91.8251 351.762 91.8251C350.047 91.8251 348.634 92.1263 347.522 92.7287C346.456 93.331 345.599 94.0725 344.95 94.9529C344.301 95.787 343.838 96.6674 343.56 97.5941C343.328 98.5209 343.212 99.3318 343.212 100.027C343.212 101.602 343.444 102.969 343.907 104.128C344.417 105.286 345.089 106.329 345.923 107.256L342.17 111.217C341.336 110.708 340.571 110.013 339.876 109.132C339.227 108.206 338.671 107.232 338.208 106.213C337.744 105.147 337.397 104.081 337.165 103.016C336.934 101.904 336.818 100.907 336.818 100.027C336.818 98.1734 337.142 96.3894 337.791 94.6748C338.439 92.914 339.389 91.3617 340.641 90.0179C341.938 88.6741 343.513 87.6083 345.367 86.8206C347.221 86.0328 349.352 85.639 351.762 85.639C353.986 85.639 356.002 86.0328 357.809 86.8206C359.616 87.6083 361.145 88.6973 362.396 90.0874C363.694 91.4312 364.69 93.0067 365.385 94.8139C366.126 96.5747 366.497 98.4282 366.497 100.374C366.497 102.645 366.126 104.869 365.385 107.047C364.644 109.179 363.624 111.31 362.327 113.442C361.076 115.527 359.616 117.589 357.948 119.628C356.326 121.667 354.611 123.729 352.804 125.814Z" fill="#1D0437"/>
<g filter="url(#filter0_d)">
<path d="M376.935 83.48L441.965 53.353L451.888 36.3778L376.935 83.48Z" fill="white"/>
<path d="M441.535 52.88L450.107 38.2171L385.364 78.9033L441.535 52.88Z" stroke="#00D0FE" stroke-width="1.21907"/>
</g>
<path d="M378.971 83.9481L425.545 71.8988L438.559 57.0084L378.971 83.9481Z" fill="#280749"/>
<path d="M422.65 40.5081L374.497 83.6325L414.421 58.4892L422.65 40.5081Z" fill="#10021F"/>
<path d="M395.664 62.6035L385.094 65.1941L374.344 82.2611L395.664 62.6035Z" fill="#10021F"/>
<path d="M378.002 78.2991L385.629 70.68L385.316 66.7179L378.002 78.2991Z" fill="white"/>
<path d="M64.5728 186.15C62.5074 186.15 60.6426 185.689 58.9782 184.767C57.3339 183.844 56.0305 182.571 55.068 180.947C54.1255 179.323 53.6543 177.498 53.6543 175.473C53.6543 173.447 54.1255 171.622 55.068 169.998C56.0305 168.374 57.3339 167.101 58.9782 166.178C60.6426 165.256 62.5074 164.795 64.5728 164.795C66.0968 164.795 67.5005 165.045 68.7838 165.547C70.0672 166.028 71.16 166.75 72.0624 167.712L71.0999 168.705C69.4155 167.04 67.2598 166.208 64.633 166.208C62.8684 166.208 61.2642 166.609 59.8204 167.411C58.3766 168.214 57.2437 169.326 56.4215 170.75C55.5994 172.154 55.1883 173.728 55.1883 175.473C55.1883 177.217 55.5994 178.801 56.4215 180.225C57.2437 181.629 58.3766 182.731 59.8204 183.534C61.2642 184.336 62.8684 184.737 64.633 184.737C67.2398 184.737 69.3954 183.895 71.0999 182.21L72.0624 183.203C71.16 184.165 70.0571 184.897 68.7537 185.398C67.4704 185.9 66.0768 186.15 64.5728 186.15ZM81.7486 170.179C83.6937 170.179 85.1876 170.68 86.2303 171.683C87.273 172.665 87.7944 174.119 87.7944 176.044V186H86.3506V183.203C85.8493 184.125 85.1174 184.847 84.1549 185.368C83.1924 185.87 82.0394 186.12 80.6959 186.12C78.9513 186.12 77.5677 185.709 76.545 184.887C75.5424 184.065 75.0411 182.982 75.0411 181.639C75.0411 180.335 75.5023 179.282 76.4247 178.48C77.3672 177.658 78.8611 177.247 80.9064 177.247H86.2905V175.984C86.2905 174.52 85.8894 173.407 85.0873 172.645C84.3053 171.883 83.1523 171.502 81.6283 171.502C80.5856 171.502 79.583 171.683 78.6204 172.044C77.678 172.405 76.8759 172.886 76.2142 173.487L75.4622 172.405C76.2442 171.703 77.1867 171.161 78.2896 170.78C79.3925 170.379 80.5455 170.179 81.7486 170.179ZM80.9064 184.887C82.2098 184.887 83.3127 184.586 84.2151 183.985C85.1375 183.383 85.8293 182.511 86.2905 181.368V178.42H80.9365C79.3925 178.42 78.2695 178.701 77.5677 179.262C76.8859 179.824 76.545 180.596 76.545 181.578C76.545 182.601 76.926 183.413 77.688 184.015C78.45 184.596 79.5228 184.887 80.9064 184.887ZM95.4346 173.728C95.9158 172.585 96.6678 171.713 97.6905 171.111C98.7131 170.49 99.9564 170.179 101.42 170.179V171.653L101.059 171.622C99.3147 171.622 97.9511 172.174 96.9686 173.277C95.986 174.36 95.4947 175.874 95.4947 177.819V186H93.9908V170.299H95.4346V173.728ZM105.564 163.682H107.068V186H105.564V163.682ZM126.671 178.51H113.166C113.206 179.734 113.517 180.826 114.099 181.789C114.68 182.731 115.462 183.463 116.445 183.985C117.447 184.506 118.57 184.767 119.813 184.767C120.836 184.767 121.779 184.586 122.641 184.225C123.523 183.844 124.255 183.293 124.837 182.571L125.709 183.564C125.027 184.386 124.165 185.017 123.122 185.459C122.099 185.9 120.987 186.12 119.783 186.12C118.219 186.12 116.826 185.779 115.602 185.098C114.379 184.416 113.417 183.473 112.715 182.27C112.033 181.067 111.692 179.694 111.692 178.15C111.692 176.626 112.013 175.262 112.655 174.059C113.317 172.836 114.219 171.883 115.362 171.201C116.505 170.52 117.788 170.179 119.212 170.179C120.636 170.179 121.909 170.52 123.032 171.201C124.175 171.863 125.067 172.796 125.709 173.999C126.371 175.202 126.701 176.565 126.701 178.089L126.671 178.51ZM119.212 171.502C118.109 171.502 117.116 171.753 116.234 172.254C115.352 172.735 114.64 173.427 114.099 174.33C113.577 175.212 113.276 176.214 113.196 177.337H125.228C125.167 176.214 124.867 175.212 124.325 174.33C123.784 173.447 123.072 172.755 122.19 172.254C121.307 171.753 120.315 171.502 119.212 171.502ZM139.144 185.007C138.763 185.368 138.282 185.649 137.701 185.85C137.139 186.03 136.548 186.12 135.926 186.12C134.562 186.12 133.51 185.749 132.768 185.007C132.026 184.245 131.655 183.193 131.655 181.849V171.592H128.767V170.299H131.655V166.87H133.159V170.299H138.152V171.592H133.159V181.699C133.159 182.721 133.399 183.503 133.881 184.045C134.382 184.566 135.114 184.827 136.076 184.827C137.059 184.827 137.871 184.536 138.513 183.955L139.144 185.007ZM148.916 186.12C147.432 186.12 146.089 185.779 144.886 185.098C143.703 184.416 142.77 183.473 142.088 182.27C141.407 181.047 141.066 179.673 141.066 178.15C141.066 176.626 141.407 175.262 142.088 174.059C142.77 172.836 143.703 171.883 144.886 171.201C146.089 170.52 147.432 170.179 148.916 170.179C150.4 170.179 151.734 170.52 152.917 171.201C154.12 171.883 155.062 172.836 155.744 174.059C156.426 175.262 156.767 176.626 156.767 178.15C156.767 179.673 156.426 181.047 155.744 182.27C155.062 183.473 154.12 184.416 152.917 185.098C151.734 185.779 150.4 186.12 148.916 186.12ZM148.916 184.767C150.119 184.767 151.192 184.486 152.135 183.925C153.097 183.363 153.849 182.581 154.391 181.578C154.952 180.576 155.233 179.433 155.233 178.15C155.233 176.866 154.952 175.723 154.391 174.721C153.849 173.718 153.097 172.936 152.135 172.374C151.192 171.813 150.119 171.532 148.916 171.532C147.713 171.532 146.63 171.813 145.668 172.374C144.725 172.936 143.973 173.718 143.412 174.721C142.871 175.723 142.6 176.866 142.6 178.15C142.6 179.433 142.871 180.576 143.412 181.578C143.973 182.581 144.725 183.363 145.668 183.925C146.63 184.486 147.713 184.767 148.916 184.767ZM169.103 170.179C171.068 170.179 172.622 170.75 173.765 171.893C174.908 173.036 175.479 174.68 175.479 176.826V186H173.975V176.946C173.975 175.182 173.524 173.838 172.622 172.916C171.739 171.993 170.496 171.532 168.892 171.532C167.047 171.532 165.593 172.084 164.531 173.187C163.468 174.289 162.936 175.773 162.936 177.638V186H161.433V170.299H162.876V173.698C163.418 172.595 164.22 171.733 165.283 171.111C166.365 170.49 167.639 170.179 169.103 170.179ZM198.119 186.15C195.452 186.15 193.377 185.378 191.893 183.834C190.429 182.29 189.697 180.034 189.697 177.067V164.945H191.231V177.007C191.231 179.593 191.823 181.528 193.006 182.812C194.189 184.095 195.903 184.737 198.149 184.737C200.375 184.737 202.079 184.095 203.262 182.812C204.445 181.528 205.037 179.593 205.037 177.007V164.945H206.571V177.067C206.571 180.034 205.829 182.29 204.345 183.834C202.861 185.378 200.786 186.15 198.119 186.15ZM220.918 170.179C222.883 170.179 224.437 170.75 225.58 171.893C226.723 173.036 227.294 174.68 227.294 176.826V186H225.79V176.946C225.79 175.182 225.339 173.838 224.437 172.916C223.554 171.993 222.311 171.532 220.707 171.532C218.862 171.532 217.408 172.084 216.346 173.187C215.283 174.289 214.751 175.773 214.751 177.638V186H213.247V170.299H214.691V173.698C215.233 172.595 216.035 171.733 217.098 171.111C218.18 170.49 219.454 170.179 220.918 170.179ZM233.486 170.299H234.99V186H233.486V170.299ZM234.238 166.479C233.897 166.479 233.606 166.369 233.366 166.148C233.125 165.908 233.005 165.617 233.005 165.276C233.005 164.935 233.125 164.644 233.366 164.404C233.606 164.163 233.897 164.043 234.238 164.043C234.579 164.043 234.869 164.163 235.11 164.404C235.351 164.624 235.471 164.905 235.471 165.246C235.471 165.587 235.351 165.877 235.11 166.118C234.869 166.359 234.579 166.479 234.238 166.479ZM253.932 170.299L246.833 186H245.299L238.231 170.299H239.825L246.081 184.346L252.398 170.299H253.932ZM270.044 178.51H256.539C256.579 179.734 256.889 180.826 257.471 181.789C258.052 182.731 258.834 183.463 259.817 183.985C260.82 184.506 261.943 184.767 263.186 184.767C264.209 184.767 265.151 184.586 266.013 184.225C266.896 183.844 267.627 183.293 268.209 182.571L269.081 183.564C268.399 184.386 267.537 185.017 266.494 185.459C265.472 185.9 264.359 186.12 263.156 186.12C261.592 186.12 260.198 185.779 258.975 185.098C257.752 184.416 256.789 183.473 256.087 182.27C255.406 181.067 255.065 179.694 255.065 178.15C255.065 176.626 255.385 175.262 256.027 174.059C256.689 172.836 257.591 171.883 258.734 171.201C259.877 170.52 261.161 170.179 262.584 170.179C264.008 170.179 265.281 170.52 266.404 171.201C267.547 171.863 268.44 172.796 269.081 173.999C269.743 175.202 270.074 176.565 270.074 178.089L270.044 178.51ZM262.584 171.502C261.481 171.502 260.489 171.753 259.607 172.254C258.724 172.735 258.012 173.427 257.471 174.33C256.95 175.212 256.649 176.214 256.569 177.337H268.6C268.54 176.214 268.239 175.212 267.698 174.33C267.156 173.447 266.444 172.755 265.562 172.254C264.68 171.753 263.687 171.502 262.584 171.502ZM276.17 173.728C276.651 172.585 277.403 171.713 278.426 171.111C279.449 170.49 280.692 170.179 282.156 170.179V171.653L281.795 171.622C280.05 171.622 278.687 172.174 277.704 173.277C276.722 174.36 276.23 175.874 276.23 177.819V186H274.726V170.299H276.17V173.728ZM290.417 186.12C289.153 186.12 287.95 185.93 286.807 185.549C285.664 185.168 284.772 184.687 284.13 184.105L284.822 182.902C285.464 183.443 286.286 183.895 287.289 184.255C288.311 184.616 289.374 184.797 290.477 184.797C292.061 184.797 293.224 184.536 293.966 184.015C294.728 183.493 295.109 182.772 295.109 181.849C295.109 181.187 294.898 180.666 294.477 180.285C294.076 179.904 293.575 179.623 292.973 179.443C292.372 179.262 291.54 179.072 290.477 178.871C289.234 178.651 288.231 178.41 287.469 178.15C286.707 177.889 286.055 177.468 285.514 176.886C284.973 176.305 284.702 175.503 284.702 174.48C284.702 173.237 285.213 172.214 286.236 171.412C287.279 170.59 288.752 170.179 290.657 170.179C291.66 170.179 292.653 170.319 293.635 170.6C294.618 170.881 295.42 171.251 296.041 171.713L295.35 172.916C294.708 172.455 293.976 172.104 293.154 171.863C292.332 171.622 291.49 171.502 290.627 171.502C289.164 171.502 288.061 171.773 287.319 172.314C286.577 172.856 286.206 173.568 286.206 174.45C286.206 175.152 286.416 175.703 286.837 176.104C287.259 176.485 287.77 176.776 288.371 176.976C288.993 177.157 289.855 177.357 290.958 177.578C292.181 177.799 293.164 178.039 293.906 178.3C294.668 178.541 295.31 178.942 295.831 179.503C296.352 180.065 296.613 180.837 296.613 181.819C296.613 183.122 296.072 184.165 294.989 184.947C293.906 185.729 292.382 186.12 290.417 186.12ZM300.81 170.299H302.314V186H300.81V170.299ZM301.562 166.479C301.221 166.479 300.93 166.369 300.69 166.148C300.449 165.908 300.329 165.617 300.329 165.276C300.329 164.935 300.449 164.644 300.69 164.404C300.93 164.163 301.221 164.043 301.562 164.043C301.903 164.043 302.194 164.163 302.434 164.404C302.675 164.624 302.795 164.905 302.795 165.246C302.795 165.587 302.675 165.877 302.434 166.118C302.194 166.359 301.903 166.479 301.562 166.479ZM316.443 185.007C316.062 185.368 315.581 185.649 314.999 185.85C314.438 186.03 313.846 186.12 313.225 186.12C311.861 186.12 310.808 185.749 310.067 185.007C309.325 184.245 308.954 183.193 308.954 181.849V171.592H306.066V170.299H308.954V166.87H310.458V170.299H315.451V171.592H310.458V181.699C310.458 182.721 310.698 183.503 311.179 184.045C311.681 184.566 312.413 184.827 313.375 184.827C314.358 184.827 315.17 184.536 315.812 183.955L316.443 185.007ZM332.946 170.299L324.885 188.136C324.284 189.519 323.582 190.502 322.78 191.083C321.998 191.665 321.065 191.956 319.983 191.956C319.261 191.956 318.579 191.835 317.937 191.595C317.316 191.354 316.784 191.003 316.343 190.542L317.095 189.399C317.897 190.221 318.87 190.632 320.013 190.632C320.775 190.632 321.426 190.422 321.968 190C322.509 189.579 323.011 188.857 323.472 187.835L324.314 185.94L317.245 170.299H318.84L325.126 184.346L331.412 170.299H332.946Z" fill="#10021F"/>
<defs>
<filter id="filter0_d" x="375.411" y="34.854" width="78.0007" height="50.1499" filterUnits="userSpaceOnUse" color-interpolation-filters="sRGB">
<feFlood flood-opacity="0" result="BackgroundImageFix"/>
<feColorMatrix in="SourceAlpha" type="matrix" values="0 0 0 0 0 0 0 0 0 0 0 0 0 0 0 0 0 0 127 0"/>
<feOffset/>
<feGaussianBlur stdDeviation="0.76192"/>
<feColorMatrix type="matrix" values="0 0 0 0 0 0 0 0 0 0.816584 0 0 0 0 0.995833 0 0 0 1 0"/>
<feBlend mode="normal" in2="BackgroundImageFix" result="effect1_dropShadow"/>
<feBlend mode="normal" in="SourceGraphic" in2="effect1_dropShadow" result="shape"/>
</filter>
</defs>
</svg>
