<svg id="Layer_1" data-name="Layer 1" xmlns="http://www.w3.org/2000/svg" width="934.5669" height="37.3408" viewBox="0 0 934.5669 37.3408"><defs><style>.cls-1{fill:#fff;}</style></defs><title>mailingText-white</title><path class="cls-1" d="M26.1108,21.65a6.7745,6.7745,0,0,1,1.48,4.52,6.36,6.36,0,0,1-2.6245,5.4668q-2.6257,1.9154-7.7563,1.9146H4.5V5.92H16.42q4.6179,0,7.1641,1.855a6.1141,6.1141,0,0,1,2.5459,5.25,6.5817,6.5817,0,0,1-1.125,3.8877,6.741,6.741,0,0,1-3.0982,2.3882A7.3321,7.3321,0,0,1,26.1108,21.65ZM7.4209,8.3281V18.354h8.8022a8.8813,8.8813,0,0,0,5.1709-1.2827,4.2817,4.2817,0,0,0,1.8155-3.73A4.2838,4.2838,0,0,0,21.394,9.6108a8.8888,8.8888,0,0,0-5.1709-1.2827ZM22.7754,29.88A4.4054,4.4054,0,0,0,24.67,25.9326q0-5.17-7.4995-5.1709h-9.75V31.1431h9.75A10.1566,10.1566,0,0,0,22.7754,29.88Z" transform="translate(-4.5 -4.0649)"/><path class="cls-1" d="M51.7476,24.0381H34.38a7.419,7.419,0,0,0,2.4868,5.23,8.2535,8.2535,0,0,0,5.6841,1.9931,8.9573,8.9573,0,0,0,3.5522-.69,7.7614,7.7614,0,0,0,2.8028-2.0332l1.5786,1.8159A8.8889,8.8889,0,0,1,47.0308,32.88a11.6781,11.6781,0,0,1-4.5591.8681,11.5213,11.5213,0,0,1-5.6641-1.3618,9.812,9.812,0,0,1-3.8486-3.77,10.74,10.74,0,0,1-1.3814-5.4473A11.1188,11.1188,0,0,1,32.9,17.7227a9.5763,9.5763,0,0,1,3.6314-3.75,10.14,10.14,0,0,1,5.19-1.3423,10.0357,10.0357,0,0,1,5.1709,1.3423,9.5176,9.5176,0,0,1,3.5918,3.73,11.2319,11.2319,0,0,1,1.3027,5.4668ZM36.689,16.9526A7.5194,7.5194,0,0,0,34.38,21.9458H49.103a7.5235,7.5235,0,0,0-2.3091-4.9932,7.6255,7.6255,0,0,0-10.1049,0Z" transform="translate(-4.5 -4.0649)"/><path class="cls-1" d="M78.7852,32.2876a5.3038,5.3038,0,0,1-1.9537,1.0854,7.8723,7.8723,0,0,1-2.4277.375,6.0847,6.0847,0,0,1-4.4995-1.5786,6.0311,6.0311,0,0,1-1.5791-4.46V15.1567h-3.71V12.7886h3.71V8.249h2.8027v4.54h6.3155v2.3681H71.1279V27.5513a3.9191,3.9191,0,0,0,.9273,2.8217A3.5159,3.5159,0,0,0,74.72,31.34a5.1535,5.1535,0,0,0,1.6778-.2763,4.1571,4.1571,0,0,0,1.4008-.79Z" transform="translate(-4.5 -4.0649)"/><path class="cls-1" d="M100.6724,14.9q2.3093,2.27,2.309,6.6113V33.5508h-2.8027V21.7881a6.8843,6.8843,0,0,0-1.6182-4.9341,6.0822,6.0822,0,0,0-4.6181-1.6973A7.0971,7.0971,0,0,0,88.6333,17.15,7.5287,7.5287,0,0,0,86.68,22.6563V33.5508H83.877V4.2627H86.68V16.42a7.6006,7.6006,0,0,1,3.1577-2.8027,10.3707,10.3707,0,0,1,4.6182-.9868A8.4839,8.4839,0,0,1,100.6724,14.9Z" transform="translate(-4.5 -4.0649)"/><path class="cls-1" d="M128.7559,24.0381H111.3882a7.419,7.419,0,0,0,2.4868,5.23,8.2535,8.2535,0,0,0,5.6841,1.9931,8.9573,8.9573,0,0,0,3.5522-.69,7.7614,7.7614,0,0,0,2.8028-2.0332l1.5786,1.8159a8.8889,8.8889,0,0,1-3.4536,2.5264,11.6781,11.6781,0,0,1-4.5591.8681,11.5213,11.5213,0,0,1-5.6641-1.3618,9.812,9.812,0,0,1-3.8486-3.77,10.74,10.74,0,0,1-1.3814-5.4473,11.1188,11.1188,0,0,1,1.3223-5.4467,9.5763,9.5763,0,0,1,3.6314-3.75,10.14,10.14,0,0,1,5.19-1.3423,10.0357,10.0357,0,0,1,5.1709,1.3423,9.5176,9.5176,0,0,1,3.5918,3.73,11.2319,11.2319,0,0,1,1.3027,5.4668Zm-15.0586-7.0855a7.5194,7.5194,0,0,0-2.3091,4.9932h14.7231a7.5235,7.5235,0,0,0-2.3091-4.9932,7.6255,7.6255,0,0,0-10.1049,0Z" transform="translate(-4.5 -4.0649)"/><path class="cls-1" d="M148.9849,7.42a4.1178,4.1178,0,0,0-.9278,2.9209v2.4473h6.3946v2.3681h-6.3155V33.5508h-2.8027V15.1567h-3.71V12.7886h3.71V10.2227a6.12,6.12,0,0,1,1.6382-4.5,6.2272,6.2272,0,0,1,4.6377-1.6582,7.8376,7.8376,0,0,1,2.29.336,5.1905,5.1905,0,0,1,1.8555.9668L154.8066,7.46a4.6276,4.6276,0,0,0-3.0786-1.0264A3.5867,3.5867,0,0,0,148.9849,7.42Zm12.3745.2368a1.9378,1.9378,0,0,1-.5923-1.4209,1.8936,1.8936,0,0,1,.5923-1.3818,1.9842,1.9842,0,0,1,1.46-.5918,2.0227,2.0227,0,0,1,1.4605.5723,1.83,1.83,0,0,1,.5918,1.3618,2.0655,2.0655,0,0,1-3.5127,1.46Zm.039,5.1314h2.8028V33.5508h-2.8028Z" transform="translate(-4.5 -4.0649)"/><path class="cls-1" d="M177.6411,13.6963a9.9906,9.9906,0,0,1,4.835-1.0659V15.354l-.6709-.0395a6.6314,6.6314,0,0,0-5.1314,2.0131,8.0191,8.0191,0,0,0-1.855,5.6446V33.5508h-2.8027V12.7886H174.7V16.854A6.79,6.79,0,0,1,177.6411,13.6963Z" transform="translate(-4.5 -4.0649)"/><path class="cls-1" d="M188.4165,33.0181a10.3987,10.3987,0,0,1-3.6118-1.8355l1.2632-2.21a10.6183,10.6183,0,0,0,3.2759,1.6772,13.0014,13.0014,0,0,0,4.1054.6514,7.8362,7.8362,0,0,0,4.2036-.8882,2.8256,2.8256,0,0,0,1.3618-2.5063,2.2551,2.2551,0,0,0-.75-1.7959,4.9887,4.9887,0,0,0-1.8945-.9869,27.27,27.27,0,0,0-3.04-.6513,34.7989,34.7989,0,0,1-4.0655-.9668,5.9722,5.9722,0,0,1-2.625-1.6778,4.6643,4.6643,0,0,1-1.0854-3.2763,5.1321,5.1321,0,0,1,2.1709-4.2627,9.7444,9.7444,0,0,1,6.039-1.6582,15.6676,15.6676,0,0,1,4.0264.5332,11.0777,11.0777,0,0,1,3.3154,1.4013l-1.2236,2.25a10.48,10.48,0,0,0-6.1182-1.7759,7.0933,7.0933,0,0,0-4.0458.9472,2.9015,2.9015,0,0,0-1.3619,2.4869,2.4547,2.4547,0,0,0,.77,1.8945,4.727,4.727,0,0,0,1.914,1.0459,30.78,30.78,0,0,0,3.1577.6909,36.2174,36.2174,0,0,1,3.9868.9473,5.862,5.862,0,0,1,2.566,1.6181,4.4553,4.4553,0,0,1,1.0654,3.1577,5.0221,5.0221,0,0,1-2.2695,4.3223,10.7907,10.7907,0,0,1-6.2959,1.5986A15.9222,15.9222,0,0,1,188.4165,33.0181Z" transform="translate(-4.5 -4.0649)"/><path class="cls-1" d="M217.9214,32.2876a5.3034,5.3034,0,0,1-1.9536,1.0854,7.8734,7.8734,0,0,1-2.4278.375,6.0848,6.0848,0,0,1-4.4995-1.5786,6.0311,6.0311,0,0,1-1.5791-4.46V15.1567h-3.71V12.7886h3.71V8.249h2.8028v4.54H216.58v2.3681h-6.3154V27.5513a3.92,3.92,0,0,0,.9272,2.8217,3.5163,3.5163,0,0,0,2.6646.9673,5.1524,5.1524,0,0,0,1.6777-.2763,4.1576,4.1576,0,0,0,1.4009-.79Z" transform="translate(-4.5 -4.0649)"/><path class="cls-1" d="M244.2881,32.2876a5.3034,5.3034,0,0,1-1.9536,1.0854,7.8734,7.8734,0,0,1-2.4278.375,6.0848,6.0848,0,0,1-4.5-1.5786,6.0311,6.0311,0,0,1-1.5791-4.46V15.1567h-3.71V12.7886h3.71V8.249h2.8028v4.54h6.3154v2.3681h-6.3154V27.5513a3.92,3.92,0,0,0,.9272,2.8217,3.5163,3.5163,0,0,0,2.6646.9673A5.1524,5.1524,0,0,0,241.9,31.064a4.1576,4.1576,0,0,0,1.4009-.79Z" transform="translate(-4.5 -4.0649)"/><path class="cls-1" d="M251.7085,32.3862a9.9278,9.9278,0,0,1-3.7891-3.77,10.74,10.74,0,0,1-1.3813-5.4473,10.743,10.743,0,0,1,1.3813-5.4467,9.794,9.794,0,0,1,3.7891-3.75,11.5641,11.5641,0,0,1,10.8154,0,9.6575,9.6575,0,0,1,3.77,3.75,10.866,10.866,0,0,1,1.3618,5.4467,10.863,10.863,0,0,1-1.3618,5.4473,9.7884,9.7884,0,0,1-3.77,3.77,11.4179,11.4179,0,0,1-10.8154,0Zm9.375-2.1313a7.0193,7.0193,0,0,0,2.7432-2.8618,8.861,8.861,0,0,0,.9868-4.2237,8.8611,8.8611,0,0,0-.9868-4.2231,7.0223,7.0223,0,0,0-2.7432-2.8618,8.3183,8.3183,0,0,0-7.9341,0,7.1478,7.1478,0,0,0-2.7632,2.8618,8.7137,8.7137,0,0,0-1.0063,4.2231,8.7136,8.7136,0,0,0,1.0063,4.2237,7.1446,7.1446,0,0,0,2.7632,2.8618,8.3226,8.3226,0,0,0,7.9341,0Z" transform="translate(-4.5 -4.0649)"/><path class="cls-1" d="M291.4175,23.13,286.5229,27.63v5.9209H283.72V4.2627h2.8027V24.1172L298.917,12.7886h3.4736l-8.8813,8.4863,9.71,12.2759h-3.434Z" transform="translate(-4.5 -4.0649)"/><path class="cls-1" d="M323.9229,14.9q2.3092,2.27,2.309,6.6113V33.5508h-2.8027V21.7881a6.8847,6.8847,0,0,0-1.6182-4.9341,6.0822,6.0822,0,0,0-4.6181-1.6973,7.0971,7.0971,0,0,0-5.3091,1.9932,7.5287,7.5287,0,0,0-1.9536,5.5064V33.5508h-2.8028V12.7886h2.6841v3.8286a7.7907,7.7907,0,0,1,3.1778-2.94,10.1677,10.1677,0,0,1,4.7168-1.0464A8.4839,8.4839,0,0,1,323.9229,14.9Z" transform="translate(-4.5 -4.0649)"/><path class="cls-1" d="M337.0068,32.3862a9.9282,9.9282,0,0,1-3.789-3.77,10.74,10.74,0,0,1-1.3814-5.4473,10.7431,10.7431,0,0,1,1.3814-5.4467,9.7944,9.7944,0,0,1,3.789-3.75,11.5643,11.5643,0,0,1,10.8155,0,9.6572,9.6572,0,0,1,3.7695,3.75,10.866,10.866,0,0,1,1.3618,5.4467,10.863,10.863,0,0,1-1.3618,5.4473,9.7882,9.7882,0,0,1-3.7695,3.77,11.4181,11.4181,0,0,1-10.8155,0Zm9.375-2.1313a7.0193,7.0193,0,0,0,2.7432-2.8618,8.861,8.861,0,0,0,.9868-4.2237,8.8611,8.8611,0,0,0-.9868-4.2231,7.0223,7.0223,0,0,0-2.7432-2.8618,8.3181,8.3181,0,0,0-7.934,0,7.1478,7.1478,0,0,0-2.7632,2.8618,8.7137,8.7137,0,0,0-1.0064,4.2231,8.7136,8.7136,0,0,0,1.0064,4.2237,7.1446,7.1446,0,0,0,2.7632,2.8618,8.3224,8.3224,0,0,0,7.934,0Z" transform="translate(-4.5 -4.0649)"/><path class="cls-1" d="M388.5581,12.7886l-7.855,20.7622h-2.645l-6.5522-17.0127-6.5523,17.0127h-2.6445l-7.8154-20.7622h2.684l6.5127,17.644,6.6709-17.644h2.4077L379.4,30.4326l6.5918-17.644Z" transform="translate(-4.5 -4.0649)"/><path class="cls-1" d="M416.6221,14.6636q2.17,2.0331,2.1709,6.0195V33.5508h-2.6841V30.314a6.4191,6.4191,0,0,1-2.7827,2.5263,9.7385,9.7385,0,0,1-4.3618.9077,8.5394,8.5394,0,0,1-5.5259-1.6577,5.3534,5.3534,0,0,1-2.0528-4.3813A5.309,5.309,0,0,1,403.3,23.4458q1.9138-1.6179,6.0981-1.6182H415.99V20.5645a5.3234,5.3234,0,0,0-1.5-4.0855,6.1982,6.1982,0,0,0-4.3813-1.4014,11.1373,11.1373,0,0,0-3.79.6514,9.5605,9.5605,0,0,0-3.1181,1.7959l-1.2632-2.0918a11.2073,11.2073,0,0,1,3.789-2.0723,14.7522,14.7522,0,0,1,4.6578-.73A8.7926,8.7926,0,0,1,416.6221,14.6636Zm-3.1577,15.7885A6.4793,6.4793,0,0,0,415.99,27.314V23.9194h-6.5127q-5.3283,0-5.3286,3.71a3.3927,3.3927,0,0,0,1.3814,2.8618,6.2856,6.2856,0,0,0,3.8681,1.0459A7.3828,7.3828,0,0,0,413.4644,30.4521Z" transform="translate(-4.5 -4.0649)"/><path class="cls-1" d="M442.3975,13.9531a9.463,9.463,0,0,1,3.71,3.73,11.0838,11.0838,0,0,1,1.3418,5.4863,11.0831,11.0831,0,0,1-1.3418,5.4869,9.5942,9.5942,0,0,1-3.71,3.75,10.5425,10.5425,0,0,1-5.29,1.3417,9.781,9.781,0,0,1-4.6772-1.1049,8.5415,8.5415,0,0,1-3.3355-3.1973v4.105h-2.6841V4.2627h2.8028V16.7358a8.6324,8.6324,0,0,1,3.3349-3.059,9.8188,9.8188,0,0,1,4.5591-1.0464A10.6675,10.6675,0,0,1,442.3975,13.9531Zm-1.54,16.3018a7.1052,7.1052,0,0,0,2.7827-2.8618,8.7138,8.7138,0,0,0,1.0069-4.2237,8.714,8.714,0,0,0-1.0069-4.2231,7.1083,7.1083,0,0,0-2.7827-2.8618,8.2789,8.2789,0,0,0-7.9141,0,7.1449,7.1449,0,0,0-2.7631,2.8618,8.7137,8.7137,0,0,0-1.0064,4.2231,8.7136,8.7136,0,0,0,1.0064,4.2237,7.1418,7.1418,0,0,0,2.7631,2.8618,8.2832,8.2832,0,0,0,7.9141,0Z" transform="translate(-4.5 -4.0649)"/><path class="cls-1" d="M456.2515,32.3862a9.9278,9.9278,0,0,1-3.7891-3.77,10.74,10.74,0,0,1-1.3813-5.4473,10.743,10.743,0,0,1,1.3813-5.4467,9.794,9.794,0,0,1,3.7891-3.75,11.5641,11.5641,0,0,1,10.8154,0,9.6566,9.6566,0,0,1,3.77,3.75,10.8609,10.8609,0,0,1,1.3618,5.4467,10.8578,10.8578,0,0,1-1.3618,5.4473,9.7875,9.7875,0,0,1-3.77,3.77,11.4179,11.4179,0,0,1-10.8154,0Zm9.375-2.1313a7.019,7.019,0,0,0,2.7431-2.8618,8.86,8.86,0,0,0,.9868-4.2237,8.86,8.86,0,0,0-.9868-4.2231,7.0221,7.0221,0,0,0-2.7431-2.8618,8.3183,8.3183,0,0,0-7.9341,0,7.1478,7.1478,0,0,0-2.7632,2.8618,8.7137,8.7137,0,0,0-1.0063,4.2231,8.7136,8.7136,0,0,0,1.0063,4.2237,7.1446,7.1446,0,0,0,2.7632,2.8618,8.3226,8.3226,0,0,0,7.9341,0Z" transform="translate(-4.5 -4.0649)"/><path class="cls-1" d="M496.6313,12.7886V33.5508h-2.6835v-3.79a7.694,7.694,0,0,1-3.0391,2.9409,9.1432,9.1432,0,0,1-4.4209,1.0459,8.8391,8.8391,0,0,1-6.415-2.2695q-2.3482-2.269-2.3492-6.6509V12.7886h2.8033V24.5513a6.9384,6.9384,0,0,0,1.6181,4.9731,6.0782,6.0782,0,0,0,4.6182,1.6978,6.7923,6.7923,0,0,0,5.1709-1.9937,7.7228,7.7228,0,0,0,1.8955-5.5459V12.7886Z" transform="translate(-4.5 -4.0649)"/><path class="cls-1" d="M515.42,32.2876a5.3169,5.3169,0,0,1-1.9541,1.0854,7.8727,7.8727,0,0,1-2.4277.375,6.0873,6.0873,0,0,1-4.5-1.5786,6.03,6.03,0,0,1-1.5782-4.46V15.1567H501.25V12.7886H504.96V8.249h2.8018v4.54h6.3154v2.3681h-6.3154V27.5513a3.9218,3.9218,0,0,0,.9277,2.8217,3.5151,3.5151,0,0,0,2.6641.9673,5.1459,5.1459,0,0,0,1.6777-.2763,4.159,4.159,0,0,0,1.4014-.79Z" transform="translate(-4.5 -4.0649)"/><path class="cls-1" d="M544.353,14.6636q2.171,2.0331,2.1709,6.0195V33.5508H543.84V30.314a6.4221,6.4221,0,0,1-2.7832,2.5263,9.7357,9.7357,0,0,1-4.3613.9077,8.5411,8.5411,0,0,1-5.5264-1.6577,5.3522,5.3522,0,0,1-2.0527-4.3813,5.31,5.31,0,0,1,1.9141-4.2632q1.9144-1.6179,6.0986-1.6182h6.5918V20.5645a5.3218,5.3218,0,0,0-1.5-4.0855,6.197,6.197,0,0,0-4.3809-1.4014,11.1433,11.1433,0,0,0-3.79.6514,9.5767,9.5767,0,0,0-3.1182,1.7959l-1.2627-2.0918a11.204,11.204,0,0,1,3.7891-2.0723,14.7547,14.7547,0,0,1,4.6582-.73A8.79,8.79,0,0,1,544.353,14.6636Zm-3.1582,15.7885a6.477,6.477,0,0,0,2.5264-3.1381V23.9194h-6.5127q-5.329,0-5.3291,3.71a3.3943,3.3943,0,0,0,1.3818,2.8618,6.2869,6.2869,0,0,0,3.8682,1.0459A7.3781,7.3781,0,0,0,541.1948,30.4521Z" transform="translate(-4.5 -4.0649)"/><path class="cls-1" d="M554.1421,4.2627h2.8017V33.5508h-2.8017Z" transform="translate(-4.5 -4.0649)"/><path class="cls-1" d="M564.7593,4.2627h2.8017V33.5508h-2.8017Z" transform="translate(-4.5 -4.0649)"/><path class="cls-1" d="M596.6528,32.2876a5.3169,5.3169,0,0,1-1.9541,1.0854,7.8723,7.8723,0,0,1-2.4277.375,6.0873,6.0873,0,0,1-4.5-1.5786,6.0307,6.0307,0,0,1-1.5781-4.46V15.1567h-3.711V12.7886h3.711V8.249h2.8017v4.54H595.31v2.3681h-6.3155V27.5513a3.9214,3.9214,0,0,0,.9278,2.8217,3.5147,3.5147,0,0,0,2.664.9673,5.1469,5.1469,0,0,0,1.6778-.2763,4.16,4.16,0,0,0,1.4013-.79Z" transform="translate(-4.5 -4.0649)"/><path class="cls-1" d="M618.54,14.9q2.3085,2.27,2.31,6.6113V33.5508h-2.8027V21.7881a6.887,6.887,0,0,0-1.6182-4.9341,6.0853,6.0853,0,0,0-4.6191-1.6973,7.0967,7.0967,0,0,0-5.3086,1.9932,7.529,7.529,0,0,0-1.9541,5.5064V33.5508h-2.8018V4.2627h2.8018V16.42a7.6112,7.6112,0,0,1,3.1582-2.8027,10.3689,10.3689,0,0,1,4.6182-.9868A8.4824,8.4824,0,0,1,618.54,14.9Z" transform="translate(-4.5 -4.0649)"/><path class="cls-1" d="M628.4263,7.6572a1.9389,1.9389,0,0,1-.5918-1.4209,1.8947,1.8947,0,0,1,.5918-1.3818,1.9854,1.9854,0,0,1,1.4609-.5918,2.0209,2.0209,0,0,1,1.46.5723,1.83,1.83,0,0,1,.5918,1.3618,2.0655,2.0655,0,0,1-3.5127,1.46Zm.04,5.1314h2.8018V33.5508h-2.8018Z" transform="translate(-4.5 -4.0649)"/><path class="cls-1" d="M655.8794,14.9q2.3086,2.27,2.31,6.6113V33.5508h-2.8028V21.7881a6.8869,6.8869,0,0,0-1.6181-4.9341,6.0855,6.0855,0,0,0-4.6192-1.6973A7.0969,7.0969,0,0,0,643.84,17.15a7.529,7.529,0,0,0-1.9541,5.5064V33.5508h-2.8017V12.7886h2.6836v3.8286a7.79,7.79,0,0,1,3.1777-2.94,10.1668,10.1668,0,0,1,4.7168-1.0464A8.4822,8.4822,0,0,1,655.8794,14.9Z" transform="translate(-4.5 -4.0649)"/><path class="cls-1" d="M685.1079,12.7886V31.0244q0,5.2888-2.5859,7.8355t-7.7959,2.5459a17.4256,17.4256,0,0,1-5.4668-.8487,11.2477,11.2477,0,0,1-4.2031-2.3486l1.4209-2.1314a10.6719,10.6719,0,0,0,3.6513,2.0918,13.6361,13.6361,0,0,0,4.5195.75q3.9464,0,5.8018-1.8354t1.8555-5.7036V28.7354a8.4425,8.4425,0,0,1-3.4141,3,10.5578,10.5578,0,0,1-4.6777,1.0263,11.0324,11.0324,0,0,1-5.3086-1.2827,9.4638,9.4638,0,0,1-3.75-3.5918,10.0975,10.0975,0,0,1-1.3623-5.23,9.9927,9.9927,0,0,1,1.3623-5.21,9.4164,9.4164,0,0,1,3.73-3.5527,11.1492,11.1492,0,0,1,5.3291-1.2632,10.5325,10.5325,0,0,1,4.7763,1.0659,8.603,8.603,0,0,1,3.4336,3.0791V12.7886Zm-6.5527,16.519a6.9854,6.9854,0,0,0,2.8222-2.7041,7.7254,7.7254,0,0,0,1.0069-3.9472,7.6217,7.6217,0,0,0-1.0069-3.9273,7.0611,7.0611,0,0,0-2.8027-2.6841,9.1093,9.1093,0,0,0-8.1309-.0195,6.8786,6.8786,0,0,0-2.8027,2.6841,7.7288,7.7288,0,0,0-1.0068,3.9468,7.7254,7.7254,0,0,0,1.0068,3.9472,7.0089,7.0089,0,0,0,2.8027,2.7041,8.3927,8.3927,0,0,0,4.0459.9668A8.5089,8.5089,0,0,0,678.5552,29.3076Z" transform="translate(-4.5 -4.0649)"/><path class="cls-1" d="M693.6919,33.0181a10.3986,10.3986,0,0,1-3.6113-1.8355l1.2627-2.21a10.6275,10.6275,0,0,0,3.2763,1.6772,13.0047,13.0047,0,0,0,4.1055.6514,7.8333,7.8333,0,0,0,4.2031-.8882,2.825,2.825,0,0,0,1.3623-2.5063,2.2567,2.2567,0,0,0-.75-1.7959,4.9857,4.9857,0,0,0-1.8945-.9869,27.2622,27.2622,0,0,0-3.04-.6513,34.8741,34.8741,0,0,1-4.0655-.9668,5.975,5.975,0,0,1-2.625-1.6778,4.6664,4.6664,0,0,1-1.0849-3.2763,5.1334,5.1334,0,0,1,2.1709-4.2627,9.7452,9.7452,0,0,1,6.039-1.6582,15.6676,15.6676,0,0,1,4.0264.5332,11.0777,11.0777,0,0,1,3.3154,1.4013l-1.2236,2.25a10.4813,10.4813,0,0,0-6.1182-1.7759,7.0926,7.0926,0,0,0-4.0459.9472,2.9,2.9,0,0,0-1.3613,2.4869,2.4529,2.4529,0,0,0,.7695,1.8945,4.7215,4.7215,0,0,0,1.9141,1.0459,30.7035,30.7035,0,0,0,3.1582.6909,36.2382,36.2382,0,0,1,3.9863.9473,5.8576,5.8576,0,0,1,2.5655,1.6181,4.4534,4.4534,0,0,1,1.0664,3.1577,5.0222,5.0222,0,0,1-2.27,4.3223,10.7913,10.7913,0,0,1-6.2959,1.5986A15.93,15.93,0,0,1,693.6919,33.0181Z" transform="translate(-4.5 -4.0649)"/><path class="cls-1" d="M725.7036,32.4063a9.7143,9.7143,0,0,1-3.8086-3.77,10.847,10.847,0,0,1-1.3818-5.4673,10.7383,10.7383,0,0,1,1.3818-5.4467,9.7556,9.7556,0,0,1,3.8086-3.75A11.1935,11.1935,0,0,1,731.21,12.63a10.665,10.665,0,0,1,4.7959,1.0464,7.9621,7.9621,0,0,1,3.335,3.059L737.25,18.1567a6.5468,6.5468,0,0,0-2.6055-2.309,7.73,7.73,0,0,0-3.4336-.77,8.1325,8.1325,0,0,0-4.0458,1.0069,7.066,7.066,0,0,0-2.8028,2.8618,8.7139,8.7139,0,0,0-1.0068,4.2231,8.6853,8.6853,0,0,0,1.0068,4.2437,7.0976,7.0976,0,0,0,2.8028,2.8418,8.1321,8.1321,0,0,0,4.0458,1.0063,7.8927,7.8927,0,0,0,3.4336-.75,6.395,6.395,0,0,0,2.6055-2.289l2.0918,1.4209a7.9316,7.9316,0,0,1-3.3545,3.059A10.692,10.692,0,0,1,731.21,33.748,11.1943,11.1943,0,0,1,725.7036,32.4063Z" transform="translate(-4.5 -4.0649)"/><path class="cls-1" d="M763.5366,12.7886V33.5508H760.853v-3.79a7.6931,7.6931,0,0,1-3.039,2.9409,9.1435,9.1435,0,0,1-4.4209,1.0459,8.8394,8.8394,0,0,1-6.4151-2.2695q-2.3481-2.269-2.3486-6.6509V12.7886h2.8027V24.5513a6.9384,6.9384,0,0,0,1.6182,4.9731,6.0782,6.0782,0,0,0,4.6182,1.6978,6.7924,6.7924,0,0,0,5.1709-1.9937,7.7233,7.7233,0,0,0,1.8955-5.5459V12.7886Z" transform="translate(-4.5 -4.0649)"/><path class="cls-1" d="M795.0747,5.92v27.63h-2.8809v-12.75h-17.289v12.75h-2.9209V5.92h2.9209V18.2358h17.289V5.92Z" transform="translate(-4.5 -4.0649)"/><path class="cls-1" d="M816.9819,14.6636q2.171,2.0331,2.1709,6.0195V33.5508h-2.6836V30.314A6.4221,6.4221,0,0,1,813.686,32.84a9.7357,9.7357,0,0,1-4.3613.9077,8.5411,8.5411,0,0,1-5.5264-1.6577,5.3522,5.3522,0,0,1-2.0527-4.3813,5.31,5.31,0,0,1,1.9141-4.2632q1.9144-1.6179,6.0986-1.6182H816.35V20.5645a5.3218,5.3218,0,0,0-1.5-4.0855,6.197,6.197,0,0,0-4.3809-1.4014,11.1433,11.1433,0,0,0-3.79.6514,9.5767,9.5767,0,0,0-3.1182,1.7959l-1.2627-2.0918a11.204,11.204,0,0,1,3.7891-2.0723,14.7547,14.7547,0,0,1,4.6582-.73A8.79,8.79,0,0,1,816.9819,14.6636Zm-3.1582,15.7885A6.477,6.477,0,0,0,816.35,27.314V23.9194h-6.5127q-5.329,0-5.3291,3.71a3.3943,3.3943,0,0,0,1.3818,2.8618,6.2869,6.2869,0,0,0,3.8682,1.0459A7.3781,7.3781,0,0,0,813.8237,30.4521Z" transform="translate(-4.5 -4.0649)"/><path class="cls-1" d="M829.9478,32.4063a9.7143,9.7143,0,0,1-3.8086-3.77,10.8471,10.8471,0,0,1-1.3819-5.4673,10.7383,10.7383,0,0,1,1.3819-5.4467,9.7556,9.7556,0,0,1,3.8086-3.75,11.1932,11.1932,0,0,1,5.5068-1.3423,10.665,10.665,0,0,1,4.7959,1.0464,7.9625,7.9625,0,0,1,3.3349,3.059l-2.0917,1.4209a6.5475,6.5475,0,0,0-2.6055-2.309,7.7306,7.7306,0,0,0-3.4336-.77,8.1331,8.1331,0,0,0-4.0459,1.0069,7.0657,7.0657,0,0,0-2.8027,2.8618,8.714,8.714,0,0,0-1.0069,4.2231,8.6854,8.6854,0,0,0,1.0069,4.2437,7.0973,7.0973,0,0,0,2.8027,2.8418,8.1328,8.1328,0,0,0,4.0459,1.0063,7.8933,7.8933,0,0,0,3.4336-.75,6.3956,6.3956,0,0,0,2.6055-2.289l2.0917,1.4209a7.9313,7.9313,0,0,1-3.3544,3.059,10.692,10.692,0,0,1-4.7764,1.0459A11.194,11.194,0,0,1,829.9478,32.4063Z" transform="translate(-4.5 -4.0649)"/><path class="cls-1" d="M856.4526,23.13,851.5581,27.63v5.9209h-2.8018V4.2627h2.8018V24.1172l12.3945-11.3286h3.4737l-8.8809,8.4863,9.71,12.2759h-3.4346Z" transform="translate(-4.5 -4.0649)"/><path class="cls-1" d="M872.1235,7.6572a1.9393,1.9393,0,0,1-.5918-1.4209,1.8951,1.8951,0,0,1,.5918-1.3818,1.9858,1.9858,0,0,1,1.461-.5918,2.02,2.02,0,0,1,1.46.5723,1.83,1.83,0,0,1,.5918,1.3618,2.0655,2.0655,0,0,1-3.5127,1.46Zm.04,5.1314h2.8017V33.5508h-2.8017Z" transform="translate(-4.5 -4.0649)"/><path class="cls-1" d="M899.5767,14.9q2.3085,2.27,2.31,6.6113V33.5508h-2.8027V21.7881a6.8865,6.8865,0,0,0-1.6182-4.9341,6.0851,6.0851,0,0,0-4.6191-1.6973,7.0967,7.0967,0,0,0-5.3086,1.9932,7.529,7.529,0,0,0-1.9541,5.5064V33.5508h-2.8018V12.7886h2.6836v3.8286a7.7907,7.7907,0,0,1,3.1778-2.94A10.1665,10.1665,0,0,1,893.36,12.63,8.4824,8.4824,0,0,1,899.5767,14.9Z" transform="translate(-4.5 -4.0649)"/><path class="cls-1" d="M928.8052,12.7886V31.0244q0,5.2888-2.586,7.8355t-7.7959,2.5459a17.4261,17.4261,0,0,1-5.4668-.8487,11.2485,11.2485,0,0,1-4.2031-2.3486l1.4209-2.1314a10.6724,10.6724,0,0,0,3.6514,2.0918,13.6361,13.6361,0,0,0,4.5195.75q3.9463,0,5.8018-1.8354t1.8554-5.7036V28.7354a8.4416,8.4416,0,0,1-3.414,3,10.5579,10.5579,0,0,1-4.6778,1.0263,11.032,11.032,0,0,1-5.3085-1.2827,9.4638,9.4638,0,0,1-3.75-3.5918,10.0966,10.0966,0,0,1-1.3624-5.23,9.9918,9.9918,0,0,1,1.3624-5.21,9.4161,9.4161,0,0,1,3.7294-3.5527,11.15,11.15,0,0,1,5.3291-1.2632,10.5329,10.5329,0,0,1,4.7764,1.0659,8.6036,8.6036,0,0,1,3.4336,3.0791V12.7886Zm-6.5528,16.519a6.985,6.985,0,0,0,2.8223-2.7041,7.7254,7.7254,0,0,0,1.0068-3.9472,7.6216,7.6216,0,0,0-1.0068-3.9273,7.0617,7.0617,0,0,0-2.8027-2.6841,9.1093,9.1093,0,0,0-8.1309-.0195,6.8786,6.8786,0,0,0-2.8027,2.6841,7.7289,7.7289,0,0,0-1.0069,3.9468,7.7254,7.7254,0,0,0,1.0069,3.9472,7.0089,7.0089,0,0,0,2.8027,2.7041,8.3927,8.3927,0,0,0,4.0459.9668A8.5082,8.5082,0,0,0,922.2524,29.3076Z" transform="translate(-4.5 -4.0649)"/><path class="cls-1" d="M935.4556,33.1167a2.1285,2.1285,0,0,1-.6123-1.54,2.063,2.063,0,0,1,.6123-1.52,2.014,2.014,0,0,1,1.48-.6118,2.0826,2.0826,0,0,1,1.5.6118,2.0316,2.0316,0,0,1,.6318,1.52,2.0953,2.0953,0,0,1-.6318,1.54,2.049,2.049,0,0,1-1.5.6313A1.9825,1.9825,0,0,1,935.4556,33.1167Z" transform="translate(-4.5 -4.0649)"/></svg>