<?xml version="1.0" encoding="utf-8"?>
<!-- Generator: Adobe Illustrator 16.0.0, SVG Export Plug-In . SVG Version: 6.00 Build 0)  -->
<!DOCTYPE svg PUBLIC "-//W3C//DTD SVG 1.1//EN" "http://www.w3.org/Graphics/SVG/1.1/DTD/svg11.dtd">
<svg version="1.1" id="Layer_1" xmlns="http://www.w3.org/2000/svg" xmlns:xlink="http://www.w3.org/1999/xlink" x="0px" y="0px"
	 width="1000px" height="255.232px" viewBox="0 0 1000 255.232" enable-background="new 0 0 1000 255.232" xml:space="preserve">
<g>
	<path fill="#10120F" d="M44.647,105.85c0,0,1.452-0.697,4.358-2.093c2.904-1.395,5.613-3.647,8.123-6.763l9.273,10.738
		c-3.58,4.044-7.612,7.031-12.097,8.959c-4.487,1.928-9.216,2.894-14.189,2.894c-6.508,0-12.318-1.511-17.431-4.531
		c-5.114-3.021-9.099-7.192-11.958-12.517c-2.858-5.322-4.288-11.306-4.288-17.954c0-6.6,1.43-12.596,4.288-17.988
		c2.859-5.393,6.856-9.646,11.993-12.761c5.136-3.112,10.982-4.671,17.536-4.671c5.484,0,10.621,1.116,15.409,3.347
		c4.787,2.231,8.552,5.394,11.295,9.483l-8.925,10.458l-0.07,0.14c-0.046,0-0.069-0.022-0.069-0.069
		c-1.953-3.394-4.323-5.915-7.112-7.565c-2.789-1.648-6.299-2.476-10.528-2.476c-3.254,0-6.218,0.931-8.89,2.789
		c-2.673,1.859-4.788,4.485-6.345,7.879c-1.558,3.394-2.336,7.298-2.336,11.714c0,4.229,0.732,7.926,2.196,11.086
		c1.464,3.162,3.521,5.602,6.171,7.321c2.649,1.72,5.67,2.58,9.064,2.58C43.136,105.85,44.647,105.85,44.647,105.85z M56.012,72.313
		c0-0.141,0.046-0.209,0.14-0.209c0.279,0,0.743,0.326,1.395,0.976l-0.279,0.35l-1.255-1.047L56.012,72.313L56.012,72.313z
		 M58.383,73.567c0,0.047-0.024,0.07-0.07,0.07c-0.139,0-0.395-0.186-0.767-0.559l0.418-0.488
		C58.244,73.149,58.383,73.475,58.383,73.567z"/>
	<path fill="#10120F" d="M85.332,113.485c-3.789-4.438-5.683-11.493-5.683-21.162V50.628h15.758v41.696
		c0,4.974,0.848,8.67,2.545,11.086c1.696,2.417,4.032,3.626,7.007,3.626c2.65,0,5.066-0.697,7.251-2.092
		c2.185-1.396,3.905-3.347,5.16-5.857c1.255-2.51,1.883-5.345,1.883-8.506V50.628h16.106v55.78c0,2.835,0.081,4.997,0.244,6.484
		c0.162,1.487,0.568,2.951,1.22,4.393h-15.619c-0.604-1.161-0.988-2.312-1.15-3.451c-0.164-1.139-0.244-2.567-0.244-4.289
		c-1.859,3.208-4.509,5.776-7.949,7.705s-6.787,2.895-10.041,2.895C94.616,120.144,89.12,117.923,85.332,113.485z"/>
	<path fill="#10120F" d="M149.932,28.316h17.571v1.604c-0.512,0.559-0.836,1.174-0.976,1.849c-0.14,0.674-0.187,1.802-0.14,3.382
		v29.285h26.217V28.316h17.571v1.604c-0.512,0.559-0.836,1.174-0.976,1.849c-0.14,0.674-0.187,1.802-0.14,3.382v82.136h-16.455
		V77.751h-26.217v39.534h-16.455V28.316z"/>
	<path fill="#10120F" d="M270.383,55.021c5.275,4.37,7.914,11.598,7.914,21.685v40.58h-15.27v-5.997
		c-2.557,2.417-5.637,4.313-9.239,5.684c-3.603,1.37-7.473,2.057-11.609,2.057c-6.927,0-12.202-1.708-15.828-5.125
		s-5.439-8.053-5.439-13.91c0-4.741,1.5-8.785,4.498-12.132s7.321-5.892,12.969-7.635s12.399-2.615,20.255-2.615h4.881
		c-0.465-5.811-1.883-9.958-4.253-12.446c-2.371-2.485-5.974-3.729-10.808-3.729c-3.068,0-6.252,0.802-9.552,2.405
		c-3.301,1.604-6.345,3.848-9.134,6.729l-8.158-10.529c4.184-3.811,8.681-6.692,13.492-8.646c4.811-1.952,9.54-2.929,14.189-2.929
		C258.076,48.466,265.106,50.652,270.383,55.021z M258.564,102.364c2.742-2.974,4.393-7.669,4.951-14.084h-3.208
		c-8.182,0-14.154,0.884-17.919,2.65c-3.765,1.767-5.648,4.556-5.648,8.366c0,2.604,0.941,4.51,2.824,5.719
		c1.882,1.209,4.473,1.813,7.774,1.813C252.08,106.826,255.821,105.339,258.564,102.364z"/>
	<path fill="#10120F" d="M330.242,105.85c0,0,1.452-0.697,4.358-2.093c2.904-1.395,5.613-3.647,8.123-6.763l9.273,10.738
		c-3.58,4.044-7.612,7.031-12.097,8.959c-4.487,1.928-9.216,2.894-14.189,2.894c-6.508,0-12.318-1.511-17.431-4.531
		c-5.114-3.021-9.099-7.192-11.958-12.517c-2.858-5.322-4.288-11.306-4.288-17.954c0-6.6,1.43-12.596,4.288-17.988
		c2.859-5.393,6.856-9.646,11.993-12.761c5.136-3.112,10.982-4.671,17.536-4.671c5.484,0,10.621,1.116,15.409,3.347
		c4.787,2.231,8.552,5.394,11.295,9.483l-8.925,10.458l-0.07,0.14c-0.046,0-0.069-0.022-0.069-0.069
		c-1.953-3.394-4.323-5.915-7.112-7.565c-2.789-1.648-6.299-2.476-10.528-2.476c-3.254,0-6.218,0.931-8.89,2.789
		c-2.673,1.859-4.788,4.485-6.345,7.879c-1.558,3.394-2.336,7.298-2.336,11.714c0,4.229,0.732,7.926,2.196,11.086
		c1.464,3.162,3.521,5.602,6.171,7.321c2.649,1.72,5.67,2.58,9.064,2.58C328.73,105.85,330.242,105.85,330.242,105.85z
		 M341.607,72.313c0-0.141,0.046-0.209,0.14-0.209c0.279,0,0.743,0.326,1.395,0.976l-0.279,0.35l-1.255-1.047L341.607,72.313
		L341.607,72.313z M343.978,73.567c0,0.047-0.024,0.07-0.07,0.07c-0.139,0-0.395-0.186-0.767-0.559l0.418-0.488
		C343.838,73.149,343.978,73.475,343.978,73.567z"/>
	<path fill="#10120F" d="M388.113,87.164l-5.438,5.16v24.961h-16.106v-96.36h17.222v1.604c-0.512,0.558-0.837,1.175-0.976,1.848
		c-0.14,0.674-0.187,1.803-0.14,3.381v47.413l25.589-25.31c3.394,0.791,6.112,1.185,8.158,1.185h10.389l-27.263,26.287
		l30.122,39.813l-19.523,0.696L388.113,87.164z"/>
	<path fill="#10120F" d="M442.081,117.285v-12.83h16.037V63.457h-15.271V50.628h31.237v53.828h14.573v12.83L442.081,117.285
		L442.081,117.285z M460.07,37.764c-1.534-0.86-2.743-2.011-3.626-3.452c-0.884-1.44-1.325-2.998-1.325-4.671
		c0-2.742,0.929-5.009,2.789-6.799c1.858-1.788,4.253-2.685,7.182-2.685c1.719,0,3.358,0.431,4.916,1.29
		c1.557,0.861,2.8,2.022,3.73,3.486c0.929,1.464,1.395,3.032,1.395,4.707c0,1.674-0.465,3.23-1.395,4.671
		c-0.931,1.44-2.174,2.592-3.73,3.452c-1.558,0.859-3.196,1.29-4.916,1.29C463.278,39.053,461.604,38.624,460.07,37.764z"/>
	<path fill="#10120F" d="M509.366,50.628h16.105v6.833c2.371-2.603,5.184-4.637,8.438-6.101s6.786-2.196,10.599-2.196
		c6.321,0,11.376,2.243,15.165,6.729c3.788,4.485,5.683,11.47,5.683,20.953v40.439h-16.036V76.984c0-5.021-0.918-8.716-2.755-11.086
		c-1.837-2.371-4.565-3.557-8.191-3.557c-2.278,0-4.404,0.453-6.38,1.359c-1.978,0.907-3.557,2.266-4.741,4.079
		c-1.186,1.813-1.778,4.044-1.778,6.693v42.812h-16.105V50.628H509.366z"/>
	<path fill="#10120F" d="M636.894,119.865c0,4.044-1.149,7.739-3.45,11.086c-2.302,3.347-5.813,6.021-10.528,8.02
		c-4.719,1.997-10.541,2.997-17.467,2.997c-8.601,0-15.062-1.44-19.384-4.322c-4.322-2.883-6.484-6.903-6.484-12.063
		c0-2.648,0.663-5.16,1.987-7.53s3.241-4.346,5.753-5.927c-4.092-2.324-6.138-5.74-6.138-10.25c0-2.603,0.675-4.892,2.022-6.868
		c1.348-1.975,3.253-3.8,5.718-5.473c-2.511-2.23-4.475-4.881-5.893-7.949c-1.418-3.067-2.126-6.298-2.126-9.691
		c0-4.323,1.104-8.309,3.312-11.958c2.207-3.648,5.171-6.542,8.892-8.682c3.718-2.138,7.784-3.208,12.2-3.208
		c2.835,0,5.544,0.453,8.123,1.36c2.58,0.906,4.938,2.196,7.077,3.87c2.371-1.348,5.031-2.405,7.983-3.172
		c2.952-0.768,5.962-1.15,9.03-1.15c0.976,0,1.719,0.024,2.229,0.069l1.674,12.132c-2.186-0.511-4.532-0.767-7.042-0.767
		c-2.836,0-5.229,0.303-7.182,0.906c1.673,3.348,2.51,6.88,2.51,10.599c0,4.276-1.093,8.251-3.277,11.923
		c-2.186,3.673-5.147,6.578-8.89,8.716c-3.742,2.139-7.821,3.208-12.237,3.208c-3.394,0-6.692-0.697-9.899-2.092
		c-0.559,0.65-0.953,1.255-1.187,1.813c-0.232,0.559-0.349,1.209-0.349,1.953c0,1.72,1.614,3.033,4.846,3.939
		c3.23,0.905,8.751,1.358,16.561,1.358C629.688,102.712,636.894,108.43,636.894,119.865z M618.313,127.883
		c2.579-1.487,3.869-3.485,3.869-5.995c0-1.441-0.325-2.593-0.977-3.452c-0.651-0.86-1.79-1.499-3.416-1.917
		c-1.628-0.418-3.929-0.627-6.903-0.627c-6.321,0-11.318-0.325-14.989-0.977c-1.211,1.116-2.081,2.22-2.615,3.313
		c-0.535,1.091-0.803,2.404-0.803,3.938c0,2.695,1.337,4.694,4.01,5.996c2.673,1.301,6.38,1.953,11.122,1.953
		C612.164,130.115,615.731,129.371,618.313,127.883z M600.253,62.481c-1.558,0.976-2.789,2.301-3.695,3.975
		c-0.905,1.674-1.358,3.486-1.358,5.438s0.453,3.754,1.358,5.403c0.906,1.65,2.139,2.963,3.695,3.939
		c1.557,0.976,3.242,1.464,5.055,1.464c1.859,0,3.567-0.477,5.125-1.43c1.558-0.952,2.789-2.267,3.695-3.939s1.36-3.485,1.36-5.438
		s-0.454-3.766-1.36-5.438s-2.139-2.999-3.695-3.975c-1.558-0.977-3.266-1.464-5.125-1.464
		C603.495,61.017,601.81,61.505,600.253,62.481z"/>
	<path fill="#10120F" d="M723.144,105.571c11.48-11.017,19.721-19.15,24.718-24.404c4.997-5.252,8.809-10.145,11.436-14.677
		c2.625-4.532,3.939-9.169,3.939-13.91c0-3.765-1.187-6.751-3.557-8.959c-2.371-2.208-5.556-3.312-9.553-3.312
		c-2.418,0-4.719,0.278-6.903,0.836s-4.021,1.231-5.508,2.021c-1.488,0.791-2.418,1.534-2.789,2.231
		c-1.858,3.347-2.789,5.184-2.789,5.508c0,0.047,0.023,0.07,0.069,0.07c0.093-0.046,0.231-0.141,0.419-0.279
		c0.186-0.14,0.359-0.232,0.521-0.279c0.163-0.045,0.269,0.047,0.314,0.279l-0.768,1.394l-1.115-0.627l-10.6-8.018
		c3.439-5.531,7.658-9.772,12.655-12.725c4.996-2.951,10.586-4.429,16.771-4.429c5.299,0,10.063,1.105,14.293,3.313
		c4.229,2.208,7.541,5.289,9.937,9.238c2.395,3.952,3.591,8.483,3.591,13.597c0,5.066-1.196,9.925-3.591,14.573
		c-2.396,4.648-5.531,9.157-9.413,13.526c-3.882,4.37-9.588,10.319-17.118,17.851l-5.717,5.646h29.075
		c1.534,0,2.66-0.081,3.382-0.244c0.721-0.163,1.359-0.499,1.917-1.011h1.604v14.503h-55.223L723.144,105.571L723.144,105.571z"/>
	<path fill="#10120F" d="M838.679,32.15c4.603,3.673,8.123,9.007,10.563,16.002c2.439,6.997,3.66,15.375,3.66,25.136
		s-1.221,18.142-3.66,25.136c-2.44,6.997-5.962,12.342-10.563,16.037s-10.134,5.543-16.595,5.543
		c-6.462,0-11.992-1.848-16.595-5.543s-8.123-9.041-10.563-16.037c-2.439-6.994-3.66-15.375-3.66-25.136
		c0-9.762,1.221-18.14,3.66-25.136c2.44-6.995,5.962-12.329,10.563-16.002c4.603-3.671,10.133-5.508,16.595-5.508
		C828.545,26.642,834.077,28.479,838.679,32.15z M813.717,43.481c-2.324,2.673-4.103,6.543-5.334,11.608
		c-1.23,5.067-1.848,11.134-1.848,18.198c0,3.625,0.186,7.183,0.558,10.668l27.542-32.701c-1.302-3.811-3.021-6.729-5.16-8.75
		s-4.602-3.032-7.391-3.032C818.83,39.472,816.041,40.809,813.717,43.481z M830.451,103.131c2.324-2.694,4.102-6.576,5.334-11.644
		c1.23-5.066,1.848-11.132,1.848-18.198c0-4.184-0.209-7.972-0.628-11.365l-27.681,32.91c1.301,3.999,3.033,7.055,5.193,9.169
		c2.162,2.116,4.684,3.172,7.565,3.172C825.337,107.175,828.126,105.827,830.451,103.131z"/>
	<path fill="#10120F" d="M865.941,105.571c11.479-11.017,19.72-19.15,24.717-24.404c4.997-5.252,8.809-10.145,11.436-14.677
		c2.625-4.532,3.939-9.169,3.939-13.91c0-3.765-1.187-6.751-3.557-8.959c-2.371-2.208-5.556-3.312-9.553-3.312
		c-2.418,0-4.719,0.278-6.903,0.836s-4.021,1.231-5.508,2.021c-1.487,0.791-2.418,1.534-2.789,2.231
		c-1.858,3.347-2.789,5.184-2.789,5.508c0,0.047,0.023,0.07,0.069,0.07c0.093-0.046,0.232-0.141,0.419-0.279
		c0.187-0.14,0.359-0.232,0.522-0.279c0.162-0.045,0.268,0.047,0.313,0.279l-0.768,1.394l-1.115-0.627l-10.599-8.018
		c3.438-5.531,7.657-9.772,12.654-12.725c4.996-2.951,10.586-4.429,16.771-4.429c5.299,0,10.063,1.105,14.293,3.313
		c4.229,2.208,7.541,5.289,9.937,9.238c2.395,3.952,3.592,8.483,3.592,13.597c0,5.066-1.197,9.925-3.592,14.573
		c-2.396,4.648-5.531,9.157-9.413,13.526c-3.882,4.37-9.588,10.319-17.117,17.851l-5.718,5.646h29.075
		c1.534,0,2.66-0.081,3.382-0.244c0.721-0.163,1.359-0.499,1.917-1.011h1.604v14.503H865.94L865.941,105.571L865.941,105.571z"/>
	<path fill="#10120F" d="M981.477,32.15c4.602,3.673,8.122,9.007,10.563,16.002c2.439,6.997,3.66,15.375,3.66,25.136
		s-1.221,18.142-3.66,25.136c-2.44,6.997-5.962,12.342-10.563,16.037c-4.603,3.695-10.135,5.543-16.596,5.543
		c-6.462,0-11.992-1.848-16.595-5.543s-8.123-9.041-10.563-16.037c-2.439-6.994-3.659-15.375-3.659-25.136
		c0-9.762,1.22-18.14,3.659-25.136c2.44-6.995,5.963-12.329,10.563-16.002c4.603-3.671,10.133-5.508,16.595-5.508
		C971.342,26.642,976.874,28.479,981.477,32.15z M956.514,43.481c-2.324,2.673-4.103,6.543-5.334,11.608
		c-1.23,5.067-1.848,11.134-1.848,18.198c0,3.625,0.186,7.183,0.558,10.668l27.542-32.701c-1.302-3.811-3.021-6.729-5.16-8.75
		s-4.602-3.032-7.391-3.032C961.627,39.472,958.838,40.809,956.514,43.481z M973.248,103.131c2.324-2.694,4.102-6.576,5.334-11.644
		c1.23-5.066,1.848-11.132,1.848-18.198c0-4.184-0.209-7.972-0.628-11.365l-27.681,32.91c1.301,3.999,3.033,7.055,5.193,9.169
		c2.162,2.116,4.684,3.172,7.565,3.172C968.134,107.175,970.923,105.827,973.248,103.131z"/>
	<path fill="#9756D8" d="M17.896,228.763c-4.031-2.222-7.187-5.283-9.472-9.188c-2.285-3.903-3.427-8.33-3.427-13.28
		c0-4.949,1.142-9.377,3.427-13.279c2.285-3.903,5.441-6.949,9.472-9.14c4.03-2.188,8.616-3.284,13.756-3.284
		c4.569,0,8.646,0.921,12.233,2.762c3.585,1.841,6.362,4.507,8.33,7.996l-6.95,4.475c-1.587-2.411-3.555-4.22-5.902-5.427
		c-2.349-1.204-4.95-1.81-7.806-1.81c-3.301,0-6.268,0.73-8.901,2.189c-2.634,1.461-4.698,3.539-6.188,6.235
		c-1.492,2.697-2.237,5.793-2.237,9.281c0,3.556,0.745,6.682,2.237,9.377c1.49,2.698,3.554,4.776,6.188,6.235
		c2.633,1.461,5.6,2.189,8.901,2.189c2.856,0,5.458-0.604,7.806-1.81c2.347-1.205,4.315-3.014,5.902-5.426l6.95,4.379
		c-1.968,3.491-4.745,6.173-8.33,8.044c-3.586,1.873-7.664,2.809-12.233,2.809C26.512,232.095,21.926,230.985,17.896,228.763z"/>
	<path fill="#9756D8" d="M71.351,228.763c-3.999-2.222-7.125-5.283-9.377-9.188c-2.253-3.903-3.379-8.33-3.379-13.28
		c0-4.949,1.126-9.377,3.379-13.279c2.252-3.903,5.378-6.949,9.377-9.14c3.999-2.189,8.504-3.284,13.518-3.284
		c5.013,0,9.503,1.096,13.471,3.284c3.965,2.189,7.076,5.235,9.33,9.14c2.252,3.902,3.379,8.33,3.379,13.279
		c0,4.95-1.127,9.377-3.379,13.28c-2.254,3.903-5.364,6.966-9.33,9.188c-3.967,2.223-8.458,3.332-13.471,3.332
		C79.855,232.095,75.35,230.985,71.351,228.763z M93.58,221.86c2.57-1.49,4.584-3.584,6.045-6.282
		c1.459-2.697,2.189-5.791,2.189-9.282c0-3.488-0.73-6.584-2.189-9.281c-1.461-2.696-3.475-4.774-6.045-6.235
		c-2.571-1.459-5.474-2.189-8.711-2.189c-3.237,0-6.14,0.73-8.71,2.189c-2.57,1.461-4.603,3.539-6.093,6.235
		c-1.492,2.697-2.237,5.793-2.237,9.281c0,3.491,0.745,6.585,2.237,9.282c1.49,2.698,3.522,4.792,6.093,6.282
		c2.57,1.492,5.474,2.237,8.71,2.237C88.105,224.097,91.009,223.353,93.58,221.86z"/>
	<path fill="#9756D8" d="M201.915,186.114c3.713,3.681,5.569,9.139,5.569,16.374v29.035h-9.139v-27.988
		c0-4.887-1.127-8.567-3.379-11.043c-2.253-2.476-5.474-3.713-9.663-3.713c-4.633,0-8.315,1.444-11.043,4.332
		c-2.729,2.889-4.094,7.029-4.094,12.423v25.989h-9.139v-27.988c0-4.887-1.128-8.567-3.38-11.043
		c-2.253-2.476-5.474-3.713-9.663-3.713c-4.633,0-8.315,1.444-11.043,4.332c-2.729,2.889-4.093,7.029-4.093,12.423v25.989h-9.139
		v-50.455h8.758v7.521c1.84-2.602,4.251-4.584,7.235-5.949c2.982-1.363,6.378-2.047,10.187-2.047c3.934,0,7.425,0.795,10.472,2.381
		c3.046,1.587,5.394,3.901,7.044,6.948c1.904-2.919,4.553-5.203,7.949-6.854c3.395-1.649,7.219-2.476,11.471-2.476
		C193.171,180.593,198.202,182.434,201.915,186.114z"/>
	<path fill="#9756D8" d="M224.476,169.645c-1.175-1.144-1.761-2.537-1.761-4.188c0-1.648,0.586-3.062,1.761-4.235
		c1.174-1.175,2.649-1.763,4.427-1.763c1.776,0,3.252,0.558,4.427,1.666c1.174,1.111,1.761,2.492,1.761,4.143
		c0,1.714-0.587,3.157-1.761,4.331c-1.175,1.176-2.65,1.762-4.427,1.762C227.125,171.358,225.649,170.787,224.476,169.645z
		 M224.333,181.068h9.139v50.455h-9.139V181.068L224.333,181.068z"/>
	<path fill="#9756D8" d="M293.113,186.161c3.775,3.713,5.665,9.155,5.665,16.327v29.035h-9.139v-27.988
		c0-4.887-1.175-8.567-3.522-11.043c-2.349-2.476-5.712-3.713-10.091-3.713c-4.95,0-8.854,1.444-11.709,4.332
		c-2.856,2.889-4.284,7.029-4.284,12.423v25.989h-9.139v-50.455h8.758v7.616c1.84-2.603,4.332-4.603,7.473-5.998
		c3.141-1.396,6.711-2.095,10.709-2.095C284.243,180.593,289.336,182.449,293.113,186.161z"/>
	<path fill="#9756D8" d="M364.273,181.068v43.601c0,8.821-2.19,15.342-6.569,19.563c-4.379,4.22-10.917,6.331-19.611,6.331
		c-4.76,0-9.298-0.652-13.613-1.952c-4.317-1.302-7.806-3.157-10.472-5.569l4.379-7.044c2.347,2.03,5.251,3.632,8.71,4.809
		c3.458,1.173,7.028,1.761,10.71,1.761c5.902,0,10.265-1.396,13.09-4.188c2.823-2.794,4.236-7.045,4.236-12.757v-3.998
		c-2.158,2.604-4.808,4.556-7.949,5.854c-3.142,1.302-6.554,1.951-10.234,1.951c-4.824,0-9.188-1.03-13.089-3.095
		c-3.903-2.062-6.966-4.95-9.187-8.663c-2.222-3.713-3.332-7.948-3.332-12.709c0-4.76,1.109-8.996,3.332-12.709
		c2.221-3.713,5.284-6.583,9.187-8.614c3.903-2.03,8.266-3.047,13.089-3.047c3.808,0,7.345,0.698,10.615,2.095
		c3.268,1.396,5.95,3.46,8.044,6.188v-7.807H364.273z M346.899,219.338c2.633-1.396,4.696-3.347,6.188-5.854
		c1.491-2.507,2.237-5.346,2.237-8.521c0-4.886-1.619-8.837-4.855-11.852c-3.237-3.014-7.395-4.522-12.471-4.522
		c-5.141,0-9.33,1.51-12.566,4.522c-3.237,3.015-4.855,6.966-4.855,11.852c0,3.176,0.745,6.015,2.237,8.521
		c1.49,2.508,3.554,4.459,6.188,5.854c2.633,1.396,5.631,2.096,8.996,2.096C341.297,221.433,344.265,220.734,346.899,219.338z"/>
	<path fill="#9756D8" d="M409.871,230.429c-3.809-1.109-6.792-2.522-8.949-4.236l3.809-7.235c2.221,1.587,4.916,2.856,8.092,3.81
		c3.173,0.95,6.378,1.428,9.615,1.428c7.996,0,11.994-2.285,11.994-6.854c0-1.522-0.54-2.728-1.617-3.616
		c-1.08-0.89-2.429-1.538-4.047-1.952c-1.618-0.412-3.919-0.871-6.901-1.38c-4.063-0.635-7.378-1.364-9.948-2.189
		c-2.57-0.824-4.776-2.221-6.616-4.188c-1.842-1.967-2.761-4.728-2.761-8.282c0-4.569,1.904-8.234,5.712-10.995
		s8.916-4.141,15.327-4.141c3.363,0,6.727,0.412,10.091,1.236c3.363,0.825,6.124,1.938,8.283,3.332l-3.903,7.234
		c-4.126-2.665-8.98-3.998-14.564-3.998c-3.872,0-6.823,0.636-8.854,1.904c-2.032,1.271-3.046,2.95-3.046,5.045
		c0,1.65,0.571,2.95,1.714,3.902s2.554,1.651,4.236,2.096c1.681,0.443,4.046,0.951,7.092,1.522c4.062,0.699,7.345,1.444,9.853,2.236
		c2.507,0.795,4.648,2.143,6.427,4.046c1.775,1.904,2.666,4.57,2.666,7.997c0,4.568-1.952,8.203-5.854,10.899
		c-3.902,2.698-9.22,4.047-15.945,4.047C417.645,232.095,413.679,231.538,409.871,230.429z"/>
	<path fill="#9756D8" d="M463.086,228.763c-3.999-2.222-7.125-5.283-9.377-9.188c-2.253-3.903-3.379-8.33-3.379-13.28
		c0-4.949,1.126-9.377,3.379-13.279c2.252-3.903,5.378-6.949,9.377-9.14c3.999-2.189,8.504-3.284,13.518-3.284
		s9.504,1.096,13.472,3.284c3.965,2.189,7.076,5.235,9.33,9.14c2.252,3.902,3.379,8.33,3.379,13.279c0,4.95-1.127,9.377-3.379,13.28
		c-2.254,3.903-5.364,6.966-9.33,9.188c-3.967,2.223-8.458,3.332-13.472,3.332S467.085,230.985,463.086,228.763z M485.315,221.86
		c2.569-1.49,4.584-3.584,6.045-6.282c1.459-2.697,2.188-5.791,2.188-9.282c0-3.488-0.729-6.584-2.188-9.281
		c-1.461-2.696-3.476-4.774-6.045-6.235c-2.571-1.459-5.475-2.189-8.712-2.189c-3.236,0-6.14,0.73-8.709,2.189
		c-2.57,1.461-4.604,3.539-6.094,6.235c-1.492,2.697-2.236,5.793-2.236,9.281c0,3.491,0.744,6.585,2.236,9.282
		c1.49,2.698,3.522,4.792,6.094,6.282c2.569,1.492,5.474,2.237,8.709,2.237C479.84,224.097,482.745,223.353,485.315,221.86z"/>
	<path fill="#9756D8" d="M523.536,228.763c-3.998-2.222-7.125-5.283-9.377-9.188c-2.254-3.903-3.38-8.33-3.38-13.28
		c0-4.949,1.126-9.377,3.38-13.279c2.252-3.903,5.379-6.949,9.377-9.14c3.998-2.189,8.504-3.284,13.519-3.284
		c5.014,0,9.503,1.096,13.471,3.284c3.966,2.189,7.075,5.235,9.33,9.14c2.252,3.902,3.379,8.33,3.379,13.279
		c0,4.95-1.127,9.377-3.379,13.28c-2.255,3.903-5.364,6.966-9.33,9.188c-3.968,2.223-8.457,3.332-13.471,3.332
		C532.04,232.095,527.534,230.985,523.536,228.763z M545.765,221.86c2.57-1.49,4.585-3.584,6.045-6.282
		c1.46-2.697,2.19-5.791,2.19-9.282c0-3.488-0.73-6.584-2.19-9.281c-1.46-2.696-3.475-4.774-6.045-6.235
		c-2.569-1.459-5.474-2.189-8.71-2.189s-6.141,0.73-8.711,2.189c-2.569,1.461-4.603,3.539-6.093,6.235
		c-1.492,2.697-2.237,5.793-2.237,9.281c0,3.491,0.745,6.585,2.237,9.282c1.49,2.698,3.522,4.792,6.093,6.282
		c2.57,1.492,5.475,2.237,8.711,2.237C540.291,224.098,543.194,223.353,545.765,221.86z"/>
	<path fill="#9756D8" d="M618.116,186.161c3.773,3.713,5.664,9.155,5.664,16.327v29.035h-9.14v-27.988
		c0-4.887-1.176-8.567-3.521-11.043c-2.349-2.476-5.712-3.713-10.092-3.713c-4.95,0-8.854,1.444-11.709,4.332
		c-2.855,2.889-4.284,7.029-4.284,12.423v25.989h-9.139v-50.455h8.758v7.616c1.841-2.603,4.332-4.603,7.474-5.998
		c3.143-1.396,6.711-2.095,10.71-2.095C609.246,180.593,614.339,182.449,618.116,186.161z"/>
	<path fill="#9756D8" d="M638.345,230.238c-1.271-1.237-1.903-2.809-1.903-4.712c0-1.841,0.634-3.38,1.903-4.617
		c1.27-1.238,2.792-1.855,4.569-1.855c1.775,0,3.268,0.604,4.475,1.809c1.205,1.206,1.81,2.761,1.81,4.665
		c0,1.903-0.619,3.475-1.856,4.712s-2.713,1.856-4.427,1.856C641.137,232.095,639.613,231.476,638.345,230.238z"/>
</g>
</svg>
