<svg id="Layer_1" data-name="Layer 1" xmlns="http://www.w3.org/2000/svg" width="989.2612" height="230.4058" viewBox="0 0 989.2612 230.4058"><defs><style>.cls-1{fill:#fff;}.cls-2{fill:#744b9e;}</style></defs><title>promoText-white</title><path class="cls-1" d="M49.88,105.85s1.4521-.6973,4.3579-2.0918a23.8783,23.8783,0,0,0,8.123-6.7632l9.2735,10.7378a34.1377,34.1377,0,0,1-12.0972,8.96,35.56,35.56,0,0,1-14.1894,2.8935,33.6071,33.6071,0,0,1-17.4312-4.5322,31.614,31.614,0,0,1-11.958-12.5156A37.3337,37.3337,0,0,1,11.67,84.584a37.809,37.809,0,0,1,4.2881-17.9893,32.3543,32.3543,0,0,1,11.9927-12.76,33.1565,33.1565,0,0,1,17.5361-4.6714A36.0357,36.0357,0,0,1,60.8965,52.51a26.9889,26.9889,0,0,1,11.2954,9.4829L63.2671,72.4517l-.07.14a.0613.0613,0,0,1-.0694-.07,20.2238,20.2238,0,0,0-7.1123-7.565A20.4131,20.4131,0,0,0,45.4873,62.481a15.2244,15.2244,0,0,0-8.89,2.789,18.9485,18.9485,0,0,0-6.3448,7.8789,27.7962,27.7962,0,0,0-2.3359,11.7139,26.1355,26.1355,0,0,0,2.1963,11.0864,16.977,16.977,0,0,0,6.1709,7.3213,16.2738,16.2738,0,0,0,9.064,2.58ZM61.2451,72.3125c0-.14.0459-.21.14-.21q.4182,0,1.3945.9761l-.2793.3486-1.2549-1.0459Zm2.3706,1.2549a.0618.0618,0,0,1-.07.07c-.1392,0-.395-.1851-.7666-.5581l.418-.4878A4.3916,4.3916,0,0,1,63.6157,73.5674Z" transform="translate(-11.6704 -20.1577)"/><path class="cls-1" d="M90.5645,113.4854q-5.6836-6.6578-5.6827-21.1617V50.6279H100.64V92.3237q0,7.4613,2.545,11.086a8.1,8.1,0,0,0,7.0073,3.6259,13.2029,13.2029,0,0,0,7.2515-2.0918,14.4138,14.4138,0,0,0,5.16-5.8569,18.7533,18.7533,0,0,0,1.8828-8.5063V50.6279h16.1065v55.78a64.0236,64.0236,0,0,0,.2441,6.4844,14.3835,14.3835,0,0,0,1.22,4.3926H126.438a10.7547,10.7547,0,0,1-1.15-3.4512,31.0406,31.0406,0,0,1-.2441-4.2886,22.2137,22.2137,0,0,1-17.9893,10.5986Q96.2458,120.144,90.5645,113.4854Z" transform="translate(-11.6704 -20.1577)"/><path class="cls-1" d="M155.165,28.3159h17.5708v1.6035a3.8653,3.8653,0,0,0-.976,1.8477,16.4318,16.4318,0,0,0-.14,3.3818V64.4336h26.2168V28.3159h17.5708v1.6035a3.8664,3.8664,0,0,0-.9761,1.8477,16.441,16.441,0,0,0-.14,3.3818v82.1363H197.8369V77.751H171.62v39.5342H155.165Z" transform="translate(-11.6704 -20.1577)"/><path class="cls-1" d="M275.6157,55.0205q7.9131,6.5544,7.9141,21.6846v40.58H268.26v-5.9966a27.4972,27.4972,0,0,1-9.2388,5.6826,32.3754,32.3754,0,0,1-11.6089,2.0571q-10.39,0-15.8276-5.125t-5.439-13.91a17.5456,17.5456,0,0,1,4.4976-12.1319q4.497-5.0206,12.9687-7.6352a69.1414,69.1414,0,0,1,20.2554-2.6148h4.8808q-.698-8.715-4.2534-12.4458t-10.8076-3.73a21.8147,21.8147,0,0,0-9.5522,2.4057,32.4223,32.4223,0,0,0-9.1338,6.7285l-8.1582-10.5288a45.3211,45.3211,0,0,1,13.4922-8.646,37.5573,37.5573,0,0,1,14.1889-2.9282Q267.7017,48.4663,275.6157,55.0205Zm-11.8183,47.3433q4.1133-4.4613,4.9506-14.0845h-3.2075q-12.2724,0-17.9194,2.65t-5.648,8.3667a6.2987,6.2987,0,0,0,2.8243,5.7178,14.299,14.299,0,0,0,7.7744,1.8125Q259.6836,106.8262,263.7974,102.3638Z" transform="translate(-11.6704 -20.1577)"/><path class="cls-1" d="M335.4746,105.85s1.4522-.6973,4.3579-2.0918a23.88,23.88,0,0,0,8.1231-6.7632l9.2734,10.7378a34.1377,34.1377,0,0,1-12.0972,8.96,35.56,35.56,0,0,1-14.1894,2.8935,33.6071,33.6071,0,0,1-17.4312-4.5322,31.6146,31.6146,0,0,1-11.958-12.5156,37.3337,37.3337,0,0,1-4.2881-17.9541,37.809,37.809,0,0,1,4.2881-17.9893,32.3543,32.3543,0,0,1,11.9927-12.76,33.1565,33.1565,0,0,1,17.5361-4.6714A36.0357,36.0357,0,0,1,346.4912,52.51a26.9883,26.9883,0,0,1,11.2954,9.4829l-8.9248,10.4585-.07.14a.0613.0613,0,0,1-.0693-.07A18.3708,18.3708,0,0,0,331.082,62.481a15.2247,15.2247,0,0,0-8.89,2.789,18.9483,18.9483,0,0,0-6.3447,7.8789,27.7962,27.7962,0,0,0-2.336,11.7139,26.1371,26.1371,0,0,0,2.1963,11.0864,16.9777,16.9777,0,0,0,6.1709,7.3213,16.2738,16.2738,0,0,0,9.064,2.58ZM346.84,72.3125c0-.14.0459-.21.14-.21q.4182,0,1.3945.9761l-.2793.3486L346.84,72.3818Zm2.3706,1.2549a.0618.0618,0,0,1-.07.07c-.1391,0-.395-.1851-.7666-.5581l.418-.4878A4.3916,4.3916,0,0,1,349.21,73.5674Z" transform="translate(-11.6704 -20.1577)"/><path class="cls-1" d="M393.3462,87.1641l-5.4385,5.16v24.9615H371.8013v-96.36h17.2221v1.6035a3.8639,3.8639,0,0,0-.976,1.8482,16.4286,16.4286,0,0,0-.14,3.3813V75.1709l25.5894-25.31a37.8864,37.8864,0,0,0,8.1577,1.1851h10.3891L404.7813,77.3325l30.1215,39.813-19.5234.6973Z" transform="translate(-11.6704 -20.1577)"/><path class="cls-1" d="M447.314,117.2852v-12.83h16.0371V63.457h-15.27V50.6279h31.2368v53.8277h14.5727v12.83Zm17.9892-79.5215a9.7618,9.7618,0,0,1-3.626-3.4517,8.7756,8.7756,0,0,1-1.3247-4.6714,9.0322,9.0322,0,0,1,2.7891-6.7983,9.93,9.93,0,0,1,7.1816-2.6846,10.0323,10.0323,0,0,1,4.9156,1.29,10.1613,10.1613,0,0,1,3.73,3.4863,8.63,8.63,0,0,1,1.3946,4.7065,8.4572,8.4572,0,0,1-1.3946,4.6714,10.257,10.257,0,0,1-3.73,3.4517,10.2131,10.2131,0,0,1-9.9356,0Z" transform="translate(-11.6704 -20.1577)"/><path class="cls-1" d="M514.5986,50.6279h16.1065v6.833A25.3615,25.3615,0,0,1,549.74,49.1636q9.482,0,15.1651,6.7285t5.6826,20.9526v40.4405H554.5508V76.9839q0-7.53-2.7539-11.0864t-8.1924-3.5557a15.1141,15.1141,0,0,0-6.38,1.3594,11.0648,11.0648,0,0,0-4.7412,4.0791,11.9727,11.9727,0,0,0-1.7783,6.6933v42.8116H514.5986Z" transform="translate(-11.6704 -20.1577)"/><path class="cls-1" d="M642.126,119.8652a19.1426,19.1426,0,0,1-3.4512,11.086q-3.4512,5.0207-10.5283,8.0185T610.68,141.9678q-12.8994,0-19.3838-4.3228a13.7132,13.7132,0,0,1-6.4844-12.0625,15.2129,15.2129,0,0,1,1.9873-7.53,16.4863,16.4863,0,0,1,5.753-5.9267,11.134,11.134,0,0,1-6.1368-10.2495,11.8889,11.8889,0,0,1,2.0225-6.8682,21.2013,21.2013,0,0,1,5.7178-5.4731,23.9758,23.9758,0,0,1-5.8926-7.9488,23.2057,23.2057,0,0,1,1.1855-21.65,24.4832,24.4832,0,0,1,8.8907-8.6806A24.0506,24.0506,0,0,1,610.54,48.0479a24.3178,24.3178,0,0,1,8.1231,1.36,24.6763,24.6763,0,0,1,7.0771,3.87,32.74,32.74,0,0,1,7.9834-3.1723,35.7591,35.7591,0,0,1,9.03-1.15q1.4634,0,2.2305.0693l1.6738,12.1324a30.8852,30.8852,0,0,0-7.042-.7671,24.584,24.584,0,0,0-7.1816.9067,23.398,23.398,0,0,1,2.51,10.5981,22.9056,22.9056,0,0,1-3.2773,11.9229A24.4467,24.4467,0,0,1,610.54,95.74a24.5887,24.5887,0,0,1-9.9-2.0918,7.067,7.067,0,0,0-1.1855,1.8125,5.0353,5.0353,0,0,0-.3486,1.9527q0,2.58,4.8457,3.9394t16.56,1.3594Q642.1245,102.7124,642.126,119.8652Zm-18.5821,8.0181q3.87-2.2325,3.87-5.9961a5.584,5.584,0,0,0-.9766-3.4517,6.0106,6.0106,0,0,0-3.416-1.9174,29.246,29.246,0,0,0-6.9033-.6275,90.1019,90.1019,0,0,1-14.99-.976,11.5437,11.5437,0,0,0-2.6152,3.312,8.8745,8.8745,0,0,0-.8018,3.9394q0,4.043,4.0088,5.9961,4.0094,1.9512,11.1221,1.9526Q619.6738,130.1147,623.5439,127.8833ZM605.4854,62.481a10.4912,10.4912,0,0,0-3.6954,3.9746,11.2407,11.2407,0,0,0-1.3593,5.4384,11.0418,11.0418,0,0,0,1.3593,5.4039,10.5612,10.5612,0,0,0,3.6954,3.9394,9.34,9.34,0,0,0,5.0546,1.4644,9.6318,9.6318,0,0,0,5.125-1.43,10.2293,10.2293,0,0,0,3.6954-3.94,11.5516,11.5516,0,0,0,0-10.8769,10.499,10.499,0,0,0-3.6954-3.9746,9.4621,9.4621,0,0,0-5.125-1.4639A9.34,9.34,0,0,0,605.4854,62.481Z" transform="translate(-11.6704 -20.1577)"/><path class="cls-1" d="M728.376,105.5713q17.2206-16.5249,24.7168-24.4038A80.601,80.601,0,0,0,764.5283,66.49a27.4423,27.4423,0,0,0,3.94-13.91,11.6521,11.6521,0,0,0-3.5557-8.9595q-3.5566-3.3113-9.5527-3.312a27.8125,27.8125,0,0,0-6.9033.8364,25.0269,25.0269,0,0,0-5.5079,2.022,6.6741,6.6741,0,0,0-2.789,2.2314q-2.7891,5.02-2.7891,5.5083a.0616.0616,0,0,0,.0694.07,3.1769,3.1769,0,0,0,.4189-.2788,1.6424,1.6424,0,0,1,.5225-.2793c.163-.0455.2675.0468.3144.2793l-.7676,1.394-1.1152-.6274-10.5986-8.0181a37.2469,37.2469,0,0,1,12.6552-12.7251,32.35,32.35,0,0,1,16.77-4.4277,30.4313,30.4313,0,0,1,14.2929,3.312,24.78,24.78,0,0,1,9.9366,9.2387A25.7207,25.7207,0,0,1,783.459,52.44a31.4232,31.4232,0,0,1-3.5908,14.5728A65.8413,65.8413,0,0,1,770.4551,80.54q-5.8228,6.5545-17.1182,17.85l-5.7168,5.6475h29.0752a16.8449,16.8449,0,0,0,3.3818-.2436,4.14,4.14,0,0,0,1.917-1.0113h1.6036v14.503H728.376Z" transform="translate(-11.6704 -20.1577)"/><path class="cls-1" d="M843.9111,32.15q6.9024,5.5092,10.5635,16.0019,3.6606,10.4949,3.66,25.1363t-3.66,25.1357q-3.6606,10.4949-10.5635,16.0371a27.6122,27.6122,0,0,1-33.1894,0q-6.9024-5.5437-10.5635-16.0371t-3.66-25.1357q0-14.6426,3.66-25.1363T810.7217,32.15a27.7513,27.7513,0,0,1,33.1894,0ZM818.9492,43.481q-3.4863,4.01-5.334,11.6093a77.9729,77.9729,0,0,0-1.8476,18.1983,100.4664,100.4664,0,0,0,.5576,10.6679l27.542-32.7011a21.2854,21.2854,0,0,0-5.16-8.7505,10.4411,10.4411,0,0,0-7.3906-3.0332A10.7265,10.7265,0,0,0,818.9492,43.481Zm16.7344,59.65q3.4863-4.0431,5.334-11.6441a77.9637,77.9637,0,0,0,1.8476-18.1982,93.3418,93.3418,0,0,0-.6279-11.3653l-27.6807,32.91a22.2251,22.2251,0,0,0,5.1944,9.1689,10.4765,10.4765,0,0,0,7.5654,3.1724A10.6919,10.6919,0,0,0,835.6836,103.1309Z" transform="translate(-11.6704 -20.1577)"/><path class="cls-1" d="M871.1738,105.5713q17.2207-16.5249,24.7168-24.4038A80.602,80.602,0,0,0,907.3262,66.49a27.4422,27.4422,0,0,0,3.9394-13.91,11.652,11.652,0,0,0-3.5556-8.9595q-3.5567-3.3113-9.5528-3.312a27.8136,27.8136,0,0,0-6.9033.8364,25.0259,25.0259,0,0,0-5.5078,2.022,6.6739,6.6739,0,0,0-2.7891,2.2314q-2.7889,5.02-2.789,5.5083a.0615.0615,0,0,0,.0693.07,3.1762,3.1762,0,0,0,.419-.2788,1.642,1.642,0,0,1,.5224-.2793c.1631-.0455.2676.0468.3145.2793l-.7676,1.394-1.1152-.6274-10.5987-8.0181A37.2472,37.2472,0,0,1,881.667,30.7212a32.35,32.35,0,0,1,16.7695-4.4277,30.4317,30.4317,0,0,1,14.293,3.312,24.78,24.78,0,0,1,9.9365,9.2387A25.72,25.72,0,0,1,926.2568,52.44a31.422,31.422,0,0,1-3.5908,14.5728A65.8374,65.8374,0,0,1,913.2529,80.54q-5.8227,6.5545-17.1181,17.85l-5.7168,5.6475h29.0752a16.8463,16.8463,0,0,0,3.3818-.2436,4.1408,4.1408,0,0,0,1.917-1.0113h1.6035v14.503H871.1738Z" transform="translate(-11.6704 -20.1577)"/><path class="cls-1" d="M986.708,32.15Q993.61,37.66,997.2715,48.1523q3.6606,10.4949,3.66,25.1363t-3.66,25.1357q-3.6606,10.4949-10.5635,16.0371a27.6122,27.6122,0,0,1-33.1894,0q-6.9024-5.5437-10.5635-16.0371t-3.66-25.1357q0-14.6426,3.66-25.1363T953.5186,32.15a27.7513,27.7513,0,0,1,33.1894,0ZM961.7461,43.481q-3.4863,4.01-5.334,11.6093a77.9729,77.9729,0,0,0-1.8476,18.1983,100.4664,100.4664,0,0,0,.5576,10.6679l27.542-32.7011a21.2854,21.2854,0,0,0-5.16-8.7505,10.4414,10.4414,0,0,0-7.3906-3.0332A10.7265,10.7265,0,0,0,961.7461,43.481Zm16.7344,59.65q3.4863-4.0431,5.334-11.6441a77.9637,77.9637,0,0,0,1.8476-18.1982,93.362,93.362,0,0,0-.6279-11.3653l-27.6807,32.91a22.2251,22.2251,0,0,0,5.1944,9.1689,10.4765,10.4765,0,0,0,7.5654,3.1724A10.6919,10.6919,0,0,0,978.4805,103.1309Z" transform="translate(-11.6704 -20.1577)"/><path class="cls-2" d="M23.1772,229.7627A21.1781,21.1781,0,0,1,14.895,222.67l5.5215-6.4736q5.52,7.9027,13.8989,7.9014,5.6163,0,8.5205-3.4268,2.9027-3.4278,2.9034-10.0908V173.167H21.6543v-8.2822h33.51v45.2187q0,11.045-5.2837,16.6123-5.283,5.5693-15.565,5.5694A24.9432,24.9432,0,0,1,23.1772,229.7627Z" transform="translate(-11.6704 -20.1577)"/><path class="cls-2" d="M107.6646,185.7334q5.5692,5.14,5.5693,15.3262v30.4638h-8.6631v-6.664a14.4475,14.4475,0,0,1-6.521,5.3789,24.8986,24.8986,0,0,1-10.0435,1.8564q-8.4741,0-13.5659-4.0937a14.0693,14.0693,0,0,1-.2378-21.4668q4.8546-4.0459,15.4219-4.0459h14.47V200.68q0-5.9019-3.4272-9.044t-10.0908-3.1416a26.72,26.72,0,0,0-8.7583,1.4756,22.5828,22.5828,0,0,0-7.2354,3.95l-3.8076-6.8545a27.6333,27.6333,0,0,1,9.3291-4.8066,39.0457,39.0457,0,0,1,11.519-1.666Q102.095,180.5928,107.6646,185.7334Zm-9.0914,36.9844a13.354,13.354,0,0,0,5.5215-6.6162v-7.045H90.0054q-11.6155,0-11.6143,7.8067a7.06,7.06,0,0,0,2.9512,5.9971q2.9495,2.1914,8.187,2.1894A16.9729,16.9729,0,0,0,98.5732,222.7178Z" transform="translate(-11.6704 -20.1577)"/><path class="cls-2" d="M172.3984,186.1611q5.6631,5.5693,5.6646,16.3272v29.0351h-9.1392V203.5352q0-7.33-3.5224-11.043t-10.0909-3.7129q-7.4251,0-11.7094,4.332t-4.2837,12.4229v25.9892h-9.1392v-50.455h8.7583v7.6162a17.7667,17.7667,0,0,1,7.4732-5.9981,26.1232,26.1232,0,0,1,10.7094-2.0937Q166.7336,180.5928,172.3984,186.1611Z" transform="translate(-11.6704 -20.1577)"/><path class="cls-2" d="M242.0361,181.0684v50.455H233.373v-7.6162a18.3761,18.3761,0,0,1-7.2827,6.0459,22.726,22.726,0,0,1-9.853,2.1416q-10.0913,0-15.8979-5.5693-5.8082-5.5693-5.8072-16.4219V181.0684h9.1392v27.9882q0,7.3315,3.5224,11.0909,3.5208,3.7617,10.0909,3.76,7.2333,0,11.4238-4.3789,4.188-4.3768,4.1885-12.376V181.0684Z" transform="translate(-11.6704 -20.1577)"/><path class="cls-2" d="M293.87,185.7334q5.5694,5.14,5.5694,15.3262v30.4638h-8.6631v-6.664a14.448,14.448,0,0,1-6.521,5.3789,24.899,24.899,0,0,1-10.0435,1.8564q-8.4741,0-13.5659-4.0937a14.0691,14.0691,0,0,1-.2378-21.4668q4.8544-4.0459,15.4219-4.0459H290.3V200.68q0-5.9019-3.4273-9.044t-10.0908-3.1416a26.72,26.72,0,0,0-8.7583,1.4756,22.5834,22.5834,0,0,0-7.2353,3.95l-3.8076-6.8545a27.6323,27.6323,0,0,1,9.3291-4.8066,39.0452,39.0452,0,0,1,11.519-1.666Q288.3006,180.5928,293.87,185.7334Zm-9.0913,36.9844a13.354,13.354,0,0,0,5.5215-6.6162v-7.045H276.2109q-11.6154,0-11.6142,7.8067a7.06,7.06,0,0,0,2.9512,5.9971q2.9494,2.1914,8.187,2.1894A16.9732,16.9732,0,0,0,284.7788,222.7178Z" transform="translate(-11.6704 -20.1577)"/><path class="cls-2" d="M332.1865,182.877a25.56,25.56,0,0,1,11.3286-2.2842v8.8535a18.051,18.051,0,0,0-2.0942-.0957q-7.4253,0-11.6616,4.4267t-4.2364,12.6133v25.1328h-9.1391v-50.455h8.7583v8.4726A15.5924,15.5924,0,0,1,332.1865,182.877Z" transform="translate(-11.6704 -20.1577)"/><path class="cls-2" d="M401.49,181.0684l-24.4658,55.5009q-3.2381,7.7111-7.5683,10.8526a17.2833,17.2833,0,0,1-10.4243,3.1416,22.0384,22.0384,0,0,1-7.1875-1.1905,14.7468,14.7468,0,0,1-5.7593-3.4746l3.9028-6.8545a12.7225,12.7225,0,0,0,9.044,3.7129,8.736,8.736,0,0,0,5.5693-1.7607,15.0535,15.0535,0,0,0,4.0459-6.0459l1.6181-3.5215-22.2763-50.36h9.52L375.12,221.4326l17.4214-40.3642Z" transform="translate(-11.6704 -20.1577)"/><path class="cls-2" d="M452.229,164.8848v66.6386h-9.4248V173.167h-15.041v-8.2822Z" transform="translate(-11.6704 -20.1577)"/><path class="cls-2" d="M487.4521,164.8848v66.6386h-9.4248V173.167h-15.041v-8.2822Z" transform="translate(-11.6704 -20.1577)"/><path class="cls-2" d="M502.874,201.44h25.6074v7.9014H502.874Z" transform="translate(-11.6704 -20.1577)"/><path class="cls-2" d="M557.4229,164.8848v66.6386H547.998V173.167H532.957v-8.2822Z" transform="translate(-11.6704 -20.1577)"/><path class="cls-2" d="M618.8252,223.2412v8.2822H570.94V225.05l27.1319-26.18q4.9482-4.7592,6.6631-8.2344a15.6815,15.6815,0,0,0,1.7138-6.997,9.8,9.8,0,0,0-3.665-8.14q-3.6666-2.9017-10.52-2.9033-11.0448,0-17.04,7.2354l-6.4736-5.6172a25.9729,25.9729,0,0,1,10.2334-7.4248,36.102,36.102,0,0,1,14.1367-2.6661q10.4721,0,16.66,4.9981t6.1875,13.5654a23.03,23.03,0,0,1-2.2842,10.0908q-2.2853,4.7622-8.6631,10.8526l-20.3731,19.6113Z" transform="translate(-11.6704 -20.1577)"/></svg>