<svg width="3302" height="925" viewBox="0 0 3302 925" fill="none" xmlns="http://www.w3.org/2000/svg">
<path d="M2979.5 475.332L3250.71 273.978L3282.87 190.271L2979.5 475.332Z" fill="#7C39BF"/>
<g filter="url(#filter0_d)">
<path d="M2983.97 473.383L3224.48 358.215L3260.5 276.227L2983.97 473.383Z" fill="white"/>
<path d="M3223.07 356.5L3255.7 282.236L3005.22 460.818L3223.07 356.5Z" stroke="#00D0FE" stroke-width="4.28922"/>
</g>
<path d="M3251.97 356.735L3150.35 421.753L2983.97 474.735L3251.97 356.735Z" fill="white"/>
<path d="M50.7346 650.592C50.7346 667.632 54.9947 683.382 63.5151 697.841C72.2936 712.299 83.9122 723.789 98.3709 732.309C113.088 740.83 128.967 745.09 146.007 745.09C163.564 745.09 179.443 741.604 193.643 734.633C207.844 727.662 218.946 717.98 226.95 705.587C235.212 693.193 239.472 679.251 239.731 663.76H253.673C253.673 681.575 248.896 697.841 239.343 712.558C230.048 727.016 217.139 738.506 200.615 747.026C184.349 755.288 166.146 759.419 146.007 759.419C126.385 759.419 108.182 754.514 91.3997 744.703C74.6173 734.891 61.3204 721.723 51.5092 705.199C41.6979 688.417 36.7923 670.214 36.7923 650.592V587.077C36.7923 567.454 41.5688 549.381 51.1219 532.857C60.9331 516.074 74.1009 502.777 90.6251 492.966C107.408 483.155 125.61 478.249 145.233 478.249C165.113 478.249 183.187 482.509 199.453 491.03C215.977 499.292 229.016 510.781 238.569 525.498C248.122 539.957 252.898 556.094 252.898 573.909H238.956C238.698 558.417 234.438 544.475 226.176 532.082C217.913 519.689 206.682 510.007 192.482 503.035C178.539 496.064 162.79 492.579 145.233 492.579C128.192 492.579 112.442 496.839 97.9836 505.359C83.5249 513.879 72.0354 525.369 63.5151 539.828C54.9947 554.286 50.7346 570.036 50.7346 587.077V650.592ZM359.88 484.058H374.21V650.592C374.21 667.632 378.47 683.382 386.99 697.841C395.511 712.299 407 723.789 421.459 732.309C435.918 740.83 451.667 745.09 468.708 745.09C485.749 745.09 501.498 740.83 515.957 732.309C530.416 723.789 541.905 712.299 550.426 697.841C558.946 683.382 563.206 667.632 563.206 650.592V484.058H577.536V650.592C577.536 670.214 572.63 688.417 562.819 705.199C553.007 721.723 539.711 734.891 522.928 744.703C506.404 754.514 488.331 759.419 468.708 759.419C449.085 759.419 430.883 754.514 414.101 744.703C397.576 734.891 384.409 721.723 374.597 705.199C364.786 688.417 359.88 670.214 359.88 650.592V484.058Z" fill="white"/>
<path d="M63.5151 697.841L45.5628 708.42L45.6324 708.538L45.7035 708.655L63.5151 697.841ZM98.3709 732.309L87.7919 750.262L87.8611 750.302L87.9306 750.343L98.3709 732.309ZM193.643 734.633L184.461 715.928L193.643 734.633ZM226.95 705.587L209.612 694.028L209.528 694.154L209.446 694.282L226.95 705.587ZM239.731 663.76V642.922H219.238L218.896 663.412L239.731 663.76ZM253.673 663.76H274.51V642.922H253.673V663.76ZM239.343 712.558L221.865 701.212L221.84 701.251L221.815 701.29L239.343 712.558ZM200.615 747.026L210.051 765.604L210.108 765.576L210.164 765.547L200.615 747.026ZM51.5092 705.199L33.5203 715.716L33.5559 715.777L33.592 715.838L51.5092 705.199ZM51.1219 532.857L33.133 522.34L33.1075 522.384L33.0822 522.427L51.1219 532.857ZM90.6251 492.966L80.1086 474.977L80.0476 475.013L79.9868 475.049L90.6251 492.966ZM199.453 491.03L189.784 509.488L189.958 509.579L190.134 509.667L199.453 491.03ZM238.569 525.498L221.091 536.843L221.137 536.914L221.183 536.985L238.569 525.498ZM252.898 573.909V594.746H273.736V573.909H252.898ZM238.956 573.909L218.122 574.256L218.463 594.746H238.956V573.909ZM192.482 503.035L183.163 521.673L183.231 521.707L183.299 521.741L192.482 503.035ZM97.9836 505.359L108.563 523.311L97.9836 505.359ZM63.5151 539.828L45.5628 529.249L45.5628 529.249L63.5151 539.828ZM29.8972 650.592C29.8972 671.293 35.1232 690.704 45.5628 708.42L81.4673 687.262C74.8663 676.06 71.572 663.972 71.572 650.592H29.8972ZM45.7035 708.655C56.2521 726.029 70.3458 739.981 87.7919 750.262L108.95 714.357C97.4785 707.597 88.335 698.57 81.3266 687.027L45.7035 708.655ZM87.9306 750.343C105.827 760.704 125.308 765.927 146.007 765.927V724.252C132.625 724.252 120.348 720.956 108.811 714.276L87.9306 750.343ZM146.007 765.927C166.394 765.927 185.466 761.86 202.826 753.338L184.461 715.928C173.42 721.348 160.734 724.252 146.007 724.252V765.927ZM202.826 753.338C220.166 744.826 234.251 732.691 244.454 716.891L209.446 694.282C203.642 703.269 195.522 710.498 184.461 715.928L202.826 753.338ZM244.288 717.145C254.858 701.289 260.243 683.424 260.565 664.107L218.896 663.412C218.702 675.078 215.566 685.097 209.612 694.028L244.288 717.145ZM239.731 684.597H253.673V642.922H239.731V684.597ZM232.836 663.76C232.836 677.613 229.19 689.928 221.865 701.212L256.821 723.903C268.602 705.754 274.51 685.536 274.51 663.76H232.836ZM221.815 701.29C214.658 712.424 204.613 721.52 191.065 728.506L210.164 765.547C229.664 755.492 245.439 741.609 256.871 723.826L221.815 701.29ZM191.178 728.448C178.13 735.076 163.213 738.582 146.007 738.582V780.257C169.08 780.257 190.568 775.501 210.051 765.604L191.178 728.448ZM146.007 738.582C130.044 738.582 115.476 734.641 101.916 726.714L80.8831 762.691C100.888 774.386 122.725 780.257 146.007 780.257V738.582ZM101.916 726.714C88.147 718.664 77.412 708.011 69.4263 694.561L33.592 715.838C45.2288 735.436 61.0875 751.119 80.8831 762.691L101.916 726.714ZM69.498 694.683C61.5705 681.122 57.6297 666.555 57.6297 650.592H15.9548C15.9548 673.874 21.8253 695.711 33.5203 715.716L69.498 694.683ZM57.6297 650.592V587.077H15.9548V650.592H57.6297ZM57.6297 587.077C57.6297 571.008 61.4943 556.548 69.1616 543.286L33.0822 522.427C21.6433 542.214 15.9548 563.9 15.9548 587.077H57.6297ZM69.1107 543.373C77.1605 529.604 87.8138 518.869 101.263 510.883L79.9868 475.049C60.388 486.686 44.7058 502.544 33.133 522.34L69.1107 543.373ZM101.142 510.955C114.702 503.027 129.27 499.087 145.233 499.087V457.412C121.95 457.412 100.113 463.282 80.1086 474.977L101.142 510.955ZM145.233 499.087C162.031 499.087 176.744 502.657 189.784 509.488L209.121 472.571C189.629 462.361 168.196 457.412 145.233 457.412V499.087ZM190.134 509.667C203.521 516.36 213.668 525.408 221.091 536.843L256.047 514.153C244.364 496.154 228.434 482.223 208.772 472.392L190.134 509.667ZM221.183 536.985C228.419 547.936 232.061 560.057 232.061 573.909H273.736C273.736 552.131 267.825 531.978 255.954 514.011L221.183 536.985ZM252.898 553.072H238.956V594.746H252.898V553.072ZM259.791 573.562C259.469 554.244 254.084 536.379 243.513 520.523L208.838 543.641C214.792 552.571 217.927 562.591 218.122 574.256L259.791 573.562ZM243.513 520.523C233.084 504.879 218.953 492.818 201.664 484.33L183.299 521.741C194.411 527.195 202.743 534.499 208.838 543.641L243.513 520.523ZM201.8 484.398C184.617 475.806 165.612 471.741 145.233 471.741V513.416C159.967 513.416 172.461 516.322 183.163 521.673L201.8 484.398ZM145.233 471.741C124.531 471.741 105.12 476.967 87.4046 487.407L108.563 523.311C119.764 516.71 131.852 513.416 145.233 513.416V471.741ZM87.4046 487.407C69.903 497.72 55.8763 511.747 45.5628 529.249L81.4673 550.407C88.1945 538.991 97.1468 530.039 108.563 523.311L87.4046 487.407ZM45.5628 529.249C35.1232 546.964 29.8972 566.376 29.8972 587.077H71.572C71.572 573.697 74.8663 561.608 81.4673 550.407L45.5628 529.249ZM29.8972 587.077V650.592H71.572V587.077H29.8972ZM359.88 484.058V463.221H339.043V484.058H359.88ZM374.21 484.058H395.047V463.221H374.21V484.058ZM386.99 697.841L404.943 687.262L386.99 697.841ZM421.459 732.309L410.88 750.262L421.459 732.309ZM515.957 732.309L505.378 714.357L515.957 732.309ZM550.426 697.841L532.473 687.262L550.426 697.841ZM563.206 484.058V463.221H542.369V484.058H563.206ZM577.536 484.058H598.373V463.221H577.536V484.058ZM562.819 705.199L580.736 715.838L580.772 715.777L580.808 715.716L562.819 705.199ZM522.928 744.703L512.412 726.714L512.351 726.749L512.29 726.785L522.928 744.703ZM414.101 744.703L403.462 762.62L403.523 762.656L403.584 762.691L414.101 744.703ZM374.597 705.199L356.608 715.716L356.644 715.777L356.68 715.838L374.597 705.199ZM359.88 504.896H374.21V463.221H359.88V504.896ZM353.373 484.058V650.592H395.047V484.058H353.373ZM353.373 650.592C353.373 671.293 358.599 690.704 369.038 708.42L404.943 687.262C398.342 676.06 395.047 663.972 395.047 650.592H353.373ZM369.038 708.42C379.352 725.921 393.378 739.948 410.88 750.262L432.038 714.357C420.622 707.63 411.67 698.678 404.943 687.262L369.038 708.42ZM410.88 750.262C428.596 760.701 448.007 765.927 468.708 765.927V724.252C455.328 724.252 443.24 720.958 432.038 714.357L410.88 750.262ZM468.708 765.927C489.409 765.927 508.82 760.701 526.536 750.262L505.378 714.357C494.176 720.958 482.088 724.252 468.708 724.252V765.927ZM526.536 750.262C544.038 739.948 558.064 725.921 568.378 708.42L532.473 687.262C525.746 698.678 516.794 707.63 505.378 714.357L526.536 750.262ZM568.378 708.42C578.817 690.704 584.043 671.293 584.043 650.592H542.369C542.369 663.972 539.074 676.06 532.473 687.262L568.378 708.42ZM584.043 650.592V484.058H542.369V650.592H584.043ZM563.206 504.896H577.536V463.221H563.206V504.896ZM556.698 484.058V650.592H598.373V484.058H556.698ZM556.698 650.592C556.698 666.555 552.757 681.122 544.83 694.683L580.808 715.716C592.503 695.711 598.373 673.874 598.373 650.592H556.698ZM544.902 694.561C536.916 708.011 526.181 718.664 512.412 726.714L533.445 762.691C553.24 751.119 569.099 735.436 580.736 715.838L544.902 694.561ZM512.29 726.785C499.056 734.643 484.669 738.582 468.708 738.582V780.257C491.992 780.257 513.752 774.384 533.566 762.62L512.29 726.785ZM468.708 738.582C452.745 738.582 438.177 734.641 424.617 726.714L403.584 762.691C423.589 774.386 445.426 780.257 468.708 780.257V738.582ZM424.739 726.785C411.211 718.753 400.546 708.088 392.514 694.561L356.68 715.838C368.271 735.359 383.941 751.029 403.462 762.62L424.739 726.785ZM392.586 694.683C384.659 681.122 380.718 666.555 380.718 650.592H339.043C339.043 673.874 344.913 695.711 356.608 715.716L392.586 694.683ZM380.718 650.592V484.058H339.043V650.592H380.718Z" fill="white"/>
<path d="M671.427 782V266.56H748.921V485.533H1007V266.56H1085.2C1085.2 272.722 1085.2 284.334 1085.2 301.397C1085.2 317.986 1085.2 337.892 1085.2 361.117C1085.2 384.341 1085.2 410.172 1085.2 438.61C1085.2 466.575 1084.96 495.25 1084.49 524.636C1084.49 553.548 1084.49 582.223 1084.49 610.661C1084.49 638.625 1084.49 664.219 1084.49 687.443C1084.49 710.668 1084.49 730.811 1084.49 747.874C1084.49 764.463 1084.49 775.838 1084.49 782H1007V559.472H748.921V782H671.427ZM1156.46 636.255C1156.46 614.452 1160.49 594.072 1168.55 575.113C1177.08 555.68 1188.46 538.855 1202.67 524.636C1216.89 509.943 1233.25 498.33 1251.73 489.799C1270.69 481.268 1290.83 477.002 1312.16 477.002C1326.38 477.002 1339.41 478.898 1351.26 482.689C1363.11 486.007 1373.3 490.273 1381.83 495.487C1390.37 500.7 1397.24 506.151 1402.45 511.838C1407.67 517.526 1411.22 522.503 1413.12 526.768L1415.96 484.822H1474.26V782H1413.12V744.32C1410.75 748.111 1406.95 752.614 1401.74 757.828C1396.53 763.041 1389.65 768.018 1381.12 772.758C1373.07 777.023 1363.35 780.815 1351.97 784.133C1340.6 787.451 1327.56 789.11 1312.87 789.11C1290.12 789.11 1269.03 785.081 1249.6 777.023C1230.64 768.492 1214.29 757.354 1200.54 743.609C1186.8 729.39 1175.9 713.038 1167.84 694.553C1160.25 676.068 1156.46 656.636 1156.46 636.255ZM1217.6 632.7C1217.6 646.445 1219.97 659.242 1224.71 671.092C1229.93 682.941 1236.8 693.131 1245.33 701.662C1253.86 710.194 1264.05 717.066 1275.9 722.28C1287.75 727.02 1300.79 729.39 1315 729.39C1329.22 729.39 1342.26 727.02 1354.11 722.28C1366.43 717.066 1376.86 710.194 1385.39 701.662C1394.39 692.657 1401.27 682.467 1406.01 671.092C1410.75 659.242 1413.12 646.445 1413.12 632.7C1413.12 618.955 1410.75 606.395 1406.01 595.02C1401.27 583.171 1394.39 572.98 1385.39 564.449C1376.86 555.917 1366.43 549.282 1354.11 544.542C1342.26 539.329 1329.22 536.722 1315 536.722C1300.79 536.722 1287.75 539.329 1275.9 544.542C1264.05 549.282 1253.86 555.917 1245.33 564.449C1236.8 572.98 1229.93 583.171 1224.71 595.02C1219.97 606.395 1217.6 618.955 1217.6 632.7ZM1758.7 708.772C1765.34 716.829 1771.5 724.65 1777.18 732.233C1783.35 739.343 1789.51 746.926 1795.67 754.984C1782.4 765.411 1767.47 773.706 1750.88 779.867C1734.29 786.029 1716.28 789.11 1696.85 789.11C1675.04 789.11 1654.43 785.081 1634.99 777.023C1616.04 768.492 1599.45 757.117 1585.23 742.898C1571.01 728.679 1559.63 712.09 1551.1 693.131C1543.04 674.172 1539.02 654.029 1539.02 632.7C1539.02 611.372 1543.04 591.228 1551.1 572.269C1559.63 553.311 1571.01 536.959 1585.23 523.214C1599.45 508.995 1616.04 497.856 1634.99 489.799C1654.43 481.268 1675.04 477.002 1696.85 477.002C1716.75 477.002 1735 480.083 1751.59 486.244C1768.65 492.406 1784.06 500.7 1797.8 511.127L1758.7 557.339C1750.64 550.704 1741.4 545.727 1730.97 542.409C1720.55 538.618 1709.17 536.722 1696.85 536.722C1682.63 536.722 1669.59 539.329 1657.74 544.542C1645.9 549.282 1635.47 555.917 1626.46 564.449C1617.93 572.98 1611.3 583.171 1606.56 595.02C1601.82 606.395 1599.45 618.955 1599.45 632.7C1599.45 646.445 1601.82 659.242 1606.56 671.092C1611.3 682.467 1617.93 692.657 1626.46 701.662C1635.47 710.194 1645.9 717.066 1657.74 722.28C1669.59 727.02 1682.63 729.39 1696.85 729.39C1709.17 729.39 1720.55 727.731 1730.97 724.413C1741.4 720.621 1750.64 715.408 1758.7 708.772ZM2066.55 477.002L2102.81 513.26C2084.8 529.849 2067.5 545.964 2050.91 561.605C2034.8 577.246 2017.73 593.598 1999.72 610.661C2021.05 639.099 2041.91 667.774 2062.29 696.686C2082.67 725.124 2103.29 753.562 2124.14 782H2054.47C2038.35 759.724 2022 737.921 2005.41 716.592C1989.3 694.79 1973.18 672.75 1957.07 650.474L1915.83 688.154V782H1855.4V229.591H1915.83V617.059C1942.37 592.887 1967.73 569.662 1991.9 547.386C2016.08 524.636 2040.96 501.174 2066.55 477.002ZM2162.09 371.07C2162.09 359.695 2166.12 350.215 2174.18 342.632C2182.71 335.048 2191.72 331.257 2201.19 331.257C2210.67 331.257 2219.44 335.048 2227.5 342.632C2235.56 350.215 2239.59 359.695 2239.59 371.07C2239.59 382.445 2235.56 391.925 2227.5 399.508C2219.44 406.618 2210.67 410.172 2201.19 410.172C2191.72 410.172 2182.71 406.618 2174.18 399.508C2166.12 391.925 2162.09 382.445 2162.09 371.07ZM2230.34 782H2169.91V484.822H2230.34V782ZM2315.71 484.822H2369.03C2369.98 499.515 2370.69 513.023 2371.17 525.346C2372.12 537.196 2373.06 549.045 2374.01 560.894C2384.91 535.3 2400.32 514.919 2420.22 499.752C2440.6 484.585 2465.49 477.002 2494.87 477.002C2524.73 477.002 2548.67 485.296 2566.68 501.885C2584.69 518.474 2594.17 539.803 2595.12 565.871V782H2533.98V593.598C2533.03 578.431 2527.81 565.634 2518.33 555.206C2508.86 544.305 2493.93 538.381 2473.54 537.433C2459.33 537.433 2446.29 540.04 2434.44 545.253C2422.59 549.993 2412.4 556.628 2403.87 565.16C2395.34 573.691 2388.47 583.882 2383.25 595.731C2378.51 607.58 2376.14 620.614 2376.14 634.833V782H2315.71V484.822ZM2657.53 634.122C2657.53 611.846 2661.56 591.228 2669.62 572.269C2677.67 552.837 2688.58 536.248 2702.32 522.503C2716.07 508.284 2732.18 497.145 2750.67 489.088C2769.15 481.031 2788.82 477.002 2809.67 477.002C2825.79 477.002 2840.01 479.135 2852.33 483.4C2865.13 487.666 2875.79 492.643 2884.32 498.33C2892.86 504.018 2899.49 509.706 2904.23 515.393C2909.44 520.607 2912.76 524.399 2914.18 526.768C2914.18 520.133 2914.66 513.26 2915.61 506.151C2916.55 498.567 2917.03 491.458 2917.03 484.822H2975.33V768.492C2975.33 817.785 2960.87 856.176 2931.96 883.666C2903.05 911.156 2863.94 924.901 2814.65 924.901C2797.59 924.901 2782.18 923.005 2768.44 919.214C2755.17 915.896 2742.85 911.393 2731.47 905.706C2720.57 900.018 2710.38 893.382 2700.9 885.799C2691.89 878.215 2682.89 870.395 2673.88 862.338L2712.99 821.102C2727.68 834.847 2742.61 845.749 2757.78 853.806C2773.42 861.864 2791.9 865.892 2813.23 865.892C2844.99 865.892 2869.63 858.309 2887.17 843.142C2904.71 827.975 2913.71 806.883 2914.18 779.867V759.25C2914.18 755.458 2914.66 751.429 2915.61 747.163C2916.55 742.424 2917.03 738.869 2917.03 736.499C2912.76 742.187 2907.31 748.348 2900.68 754.984C2894.51 761.145 2887.17 766.833 2878.64 772.047C2870.11 776.786 2860.15 780.815 2848.78 784.133C2837.4 787.451 2824.6 789.11 2810.39 789.11C2788.11 789.11 2767.73 785.081 2749.24 777.023C2730.76 768.966 2714.64 758.065 2700.9 744.32C2687.15 730.101 2676.49 713.749 2668.91 695.264C2661.32 676.305 2657.53 655.925 2657.53 634.122ZM2718.67 632.7C2718.67 646.445 2721.04 659.242 2725.78 671.092C2731 682.941 2737.87 693.131 2746.4 701.662C2754.93 710.194 2765.12 717.066 2776.97 722.28C2788.82 727.02 2801.85 729.39 2816.07 729.39C2830.29 729.39 2843.33 727.02 2855.18 722.28C2867.5 717.066 2877.93 710.194 2886.46 701.662C2895.46 692.657 2902.34 682.467 2907.08 671.092C2911.81 659.242 2914.18 646.445 2914.18 632.7C2914.18 618.955 2911.81 606.395 2907.08 595.02C2902.34 583.171 2895.46 572.98 2886.46 564.449C2877.93 555.917 2867.5 549.282 2855.18 544.542C2843.33 539.329 2830.29 536.722 2816.07 536.722C2801.85 536.722 2788.82 539.329 2776.97 544.542C2765.12 549.282 2754.93 555.917 2746.4 564.449C2737.87 572.98 2731 583.171 2725.78 595.02C2721.04 606.395 2718.67 618.955 2718.67 632.7Z" fill="#9756D8"/>
<defs>
<filter id="filter0_d" x="2965.06" y="257.321" width="314.345" height="234.968" filterUnits="userSpaceOnUse" color-interpolation-filters="sRGB">
<feFlood flood-opacity="0" result="BackgroundImageFix"/>
<feColorMatrix in="SourceAlpha" type="matrix" values="0 0 0 0 0 0 0 0 0 0 0 0 0 0 0 0 0 0 127 0"/>
<feOffset/>
<feGaussianBlur stdDeviation="9.45292"/>
<feColorMatrix type="matrix" values="0 0 0 0 0 0 0 0 0 0.816584 0 0 0 0 0.995833 0 0 0 1 0"/>
<feBlend mode="normal" in2="BackgroundImageFix" result="effect1_dropShadow"/>
<feBlend mode="normal" in="SourceGraphic" in2="effect1_dropShadow" result="shape"/>
</filter>
</defs>
</svg>
