<svg width="2670" height="749" viewBox="0 0 2670 749" fill="none" xmlns="http://www.w3.org/2000/svg">
<path d="M2409.23 384.904L2628.45 222.15L2654.44 154.489L2409.23 384.904Z" fill="#10021F"/>
<g filter="url(#filter0_d)">
<path d="M2412.84 383.329L2607.25 290.239L2636.36 223.967L2412.84 383.329Z" fill="white"/>
<path d="M2606.1 288.853L2632.48 228.825L2430.02 373.172L2606.1 288.853Z" stroke="#00D0FE" stroke-width="3.46698"/>
</g>
<path d="M2629.47 289.042L2547.32 341.596L2412.84 384.422L2629.47 289.042Z" fill="#280749"/>
<path d="M41.9072 527.278C41.9072 541.052 45.3507 553.783 52.2377 565.47C59.3333 577.157 68.7247 586.444 80.4116 593.331C92.3073 600.218 105.142 603.661 118.916 603.661C133.107 603.661 145.942 600.844 157.42 595.209C168.899 589.574 177.873 581.748 184.342 571.731C191.021 561.713 194.464 550.444 194.673 537.922H205.942C205.942 552.322 202.081 565.47 194.36 577.365C186.847 589.052 176.412 598.339 163.055 605.226C149.907 611.905 135.194 615.244 118.916 615.244C103.055 615.244 88.3421 611.279 74.7768 603.348C61.2116 595.418 50.4637 584.774 42.5333 571.418C34.6029 557.852 30.6376 543.139 30.6376 527.278V475.939C30.6376 460.078 34.4985 445.47 42.2203 432.113C50.1507 418.548 60.7942 407.8 74.1508 399.869C87.716 391.939 102.429 387.974 118.29 387.974C134.36 387.974 148.968 391.417 162.116 398.304C175.473 404.982 186.012 414.269 193.734 426.165C201.455 437.852 205.316 450.896 205.316 465.296H194.047C193.838 452.774 190.394 441.504 183.716 431.487C177.038 421.469 167.96 413.643 156.481 408.009C145.212 402.374 132.481 399.556 118.29 399.556C104.516 399.556 91.7856 403 80.0986 409.887C68.4116 416.774 59.1246 426.061 52.2377 437.748C45.3507 449.435 41.9072 462.165 41.9072 475.939V527.278ZM291.79 392.669H303.372V527.278C303.372 541.052 306.816 553.783 313.703 565.47C320.59 577.157 329.877 586.444 341.564 593.331C353.251 600.218 365.981 603.661 379.755 603.661C393.529 603.661 406.26 600.218 417.947 593.331C429.634 586.444 438.92 577.157 445.807 565.47C452.694 553.783 456.138 541.052 456.138 527.278V392.669H467.721V527.278C467.721 543.139 463.755 557.852 455.825 571.418C447.894 584.774 437.147 595.418 423.581 603.348C410.225 611.279 395.616 615.244 379.755 615.244C363.894 615.244 349.181 611.279 335.616 603.348C322.259 595.418 311.616 584.774 303.685 571.418C295.755 557.852 291.79 543.139 291.79 527.278V392.669Z" fill="#9756D8"/>
<path d="M52.2377 565.47L37.7269 574.021L37.7831 574.116L37.8406 574.211L52.2377 565.47ZM80.4116 593.331L71.8606 607.841L71.9166 607.874L71.9727 607.907L80.4116 593.331ZM157.42 595.209L149.998 580.09L157.42 595.209ZM184.342 571.731L170.328 562.388L170.26 562.49L170.194 562.593L184.342 571.731ZM194.673 537.922V521.079H178.108L177.832 537.641L194.673 537.922ZM205.942 537.922H222.785V521.079H205.942V537.922ZM194.36 577.365L180.232 568.195L180.212 568.226L180.192 568.258L194.36 577.365ZM163.055 605.226L170.683 620.243L170.729 620.22L170.774 620.196L163.055 605.226ZM42.5333 571.418L27.9929 579.918L28.0217 579.967L28.0509 580.017L42.5333 571.418ZM42.2203 432.113L27.6798 423.612L27.6592 423.648L27.6388 423.683L42.2203 432.113ZM74.1508 399.869L65.6502 385.329L65.6009 385.358L65.5518 385.387L74.1508 399.869ZM162.116 398.304L154.301 413.224L154.442 413.298L154.584 413.369L162.116 398.304ZM193.734 426.165L179.606 435.336L179.643 435.393L179.681 435.45L193.734 426.165ZM205.316 465.296V482.139H222.159V465.296H205.316ZM194.047 465.296L177.206 465.576L177.482 482.139H194.047V465.296ZM156.481 408.009L148.949 423.073L149.004 423.101L149.059 423.128L156.481 408.009ZM80.0986 409.887L88.6496 424.398H88.6496L80.0986 409.887ZM52.2377 437.748L37.7269 429.197H37.7269L52.2377 437.748ZM25.0643 527.278C25.0643 544.011 29.2886 559.701 37.7269 574.021L66.7485 556.919C61.4128 547.864 58.7501 538.094 58.7501 527.278H25.0643ZM37.8406 574.211C46.367 588.254 57.759 599.532 71.8606 607.841L88.9626 578.82C79.6903 573.356 72.2996 566.059 66.6348 556.729L37.8406 574.211ZM71.9727 607.907C86.4386 616.282 102.185 620.504 118.916 620.504V586.818C108.099 586.818 98.176 584.153 88.8505 578.754L71.9727 607.907ZM118.916 620.504C135.395 620.504 150.811 617.217 164.843 610.328L149.998 580.09C141.074 584.471 130.82 586.818 118.916 586.818V620.504ZM164.843 610.328C178.858 603.448 190.243 593.639 198.491 580.868L170.194 562.593C165.502 569.857 158.939 575.701 149.998 580.09L164.843 610.328ZM198.356 581.073C206.901 568.257 211.253 553.817 211.513 538.203L177.832 537.641C177.675 547.071 175.141 555.169 170.328 562.388L198.356 581.073ZM194.673 554.765H205.942V521.079H194.673V554.765ZM189.099 537.922C189.099 549.12 186.153 559.074 180.232 568.195L208.487 586.536C218.01 571.866 222.785 555.524 222.785 537.922H189.099ZM180.192 568.258C174.406 577.257 166.287 584.61 155.336 590.256L170.774 620.196C186.536 612.069 199.287 600.848 208.528 586.473L180.192 568.258ZM155.428 590.21C144.881 595.567 132.823 598.401 118.916 598.401V632.087C137.566 632.087 154.934 628.242 170.683 620.243L155.428 590.21ZM118.916 598.401C106.013 598.401 94.2381 595.215 83.2774 588.808L66.2763 617.888C82.4461 627.342 100.097 632.087 118.916 632.087V598.401ZM83.2774 588.808C72.1477 582.301 63.4706 573.69 57.0157 562.819L28.0509 580.017C37.4569 595.858 50.2755 608.534 66.2763 617.888L83.2774 588.808ZM57.0737 562.917C50.6659 551.956 47.4805 540.181 47.4805 527.278H13.7947C13.7947 546.097 18.5398 563.748 27.9929 579.918L57.0737 562.917ZM47.4805 527.278V475.939H13.7947V527.278H47.4805ZM47.4805 475.939C47.4805 462.951 50.6043 451.263 56.8017 440.543L27.6388 423.683C18.3927 439.676 13.7947 457.205 13.7947 475.939H47.4805ZM56.7607 440.614C63.2673 429.484 71.8783 420.807 82.7497 414.352L65.5518 385.387C49.7101 394.793 37.0342 407.612 27.6798 423.612L56.7607 440.614ZM82.6513 414.41C93.612 408.002 105.387 404.817 118.29 404.817V371.131C99.471 371.131 81.82 375.876 65.6502 385.329L82.6513 414.41ZM118.29 404.817C131.868 404.817 143.761 407.703 154.301 413.224L169.931 383.384C154.176 375.131 136.851 371.131 118.29 371.131V404.817ZM154.584 413.369C165.404 418.779 173.606 426.092 179.606 435.336L207.861 416.995C198.418 402.447 185.541 391.186 169.649 383.239L154.584 413.369ZM179.681 435.45C185.529 444.302 188.473 454.099 188.473 465.296H222.159C222.159 447.692 217.381 431.403 207.786 416.88L179.681 435.45ZM205.316 448.453H194.047V482.139H205.316V448.453ZM210.887 465.015C210.627 449.401 206.274 434.96 197.73 422.144L169.702 440.83C174.514 448.048 177.049 456.147 177.206 465.576L210.887 465.015ZM197.73 422.144C189.3 409.499 177.879 399.75 163.904 392.889L149.059 423.128C158.041 427.537 164.776 433.44 169.702 440.83L197.73 422.144ZM164.014 392.944C150.125 385.999 134.763 382.714 118.29 382.714V416.399C130.2 416.399 140.299 418.748 148.949 423.073L164.014 392.944ZM118.29 382.714C101.557 382.714 85.8672 386.938 71.5476 395.376L88.6496 424.398C97.704 419.062 107.475 416.399 118.29 416.399V382.714ZM71.5476 395.376C57.401 403.712 46.0632 415.05 37.7269 429.197L66.7485 446.299C72.186 437.071 79.4222 429.835 88.6496 424.398L71.5476 395.376ZM37.7269 429.197C29.2886 443.516 25.0643 459.206 25.0643 475.939H58.7501C58.7501 465.124 61.4128 455.353 66.7485 446.299L37.7269 429.197ZM25.0643 475.939V527.278H58.7501V475.939H25.0643ZM291.79 392.669V375.827H274.947V392.669H291.79ZM303.372 392.669H320.215V375.827H303.372V392.669ZM313.703 565.47L328.214 556.919L313.703 565.47ZM341.564 593.331L333.013 607.841L341.564 593.331ZM417.947 593.331L409.396 578.82V578.82L417.947 593.331ZM445.807 565.47L431.297 556.919L445.807 565.47ZM456.138 392.669V375.827H439.295V392.669H456.138ZM467.721 392.669H484.563V375.827H467.721V392.669ZM455.825 571.418L470.307 580.017L470.336 579.967L470.365 579.918L455.825 571.418ZM423.581 603.348L415.081 588.808L415.031 588.836L414.982 588.866L423.581 603.348ZM335.616 603.348L327.017 617.831L327.066 617.86L327.115 617.888L335.616 603.348ZM303.685 571.418L289.145 579.918L289.174 579.967L289.203 580.017L303.685 571.418ZM291.79 409.512H303.372V375.827H291.79V409.512ZM286.53 392.669V527.278H320.215V392.669H286.53ZM286.53 527.278C286.53 544.011 290.754 559.701 299.192 574.021L328.214 556.919C322.878 547.864 320.215 538.094 320.215 527.278H286.53ZM299.192 574.021C307.528 588.167 318.866 599.505 333.013 607.841L350.115 578.82C340.887 573.382 333.651 566.146 328.214 556.919L299.192 574.021ZM333.013 607.841C347.332 616.28 363.022 620.504 379.755 620.504V586.818C368.94 586.818 359.169 584.155 350.115 578.82L333.013 607.841ZM379.755 620.504C396.488 620.504 412.178 616.28 426.498 607.841L409.396 578.82C400.341 584.155 390.57 586.818 379.755 586.818V620.504ZM426.498 607.841C440.644 599.505 451.982 588.167 460.318 574.021L431.297 556.919C425.859 566.146 418.623 573.382 409.396 578.82L426.498 607.841ZM460.318 574.021C468.757 559.701 472.981 544.011 472.981 527.278H439.295C439.295 538.094 436.632 547.864 431.297 556.919L460.318 574.021ZM472.981 527.278V392.669H439.295V527.278H472.981ZM456.138 409.512H467.721V375.827H456.138V409.512ZM450.878 392.669V527.278H484.563V392.669H450.878ZM450.878 527.278C450.878 540.181 447.692 551.956 441.284 562.917L470.365 579.918C479.818 563.748 484.563 546.097 484.563 527.278H450.878ZM441.342 562.819C434.888 573.69 426.21 582.301 415.081 588.808L432.082 617.888C448.083 608.534 460.901 595.858 470.307 580.017L441.342 562.819ZM414.982 588.866C404.285 595.217 392.657 598.401 379.755 598.401V632.087C398.575 632.087 416.164 627.34 432.18 617.831L414.982 588.866ZM379.755 598.401C366.852 598.401 355.077 595.215 344.116 588.808L327.115 617.888C343.285 627.342 360.936 632.087 379.755 632.087V598.401ZM344.215 588.866C333.281 582.373 324.66 573.753 318.168 562.819L289.203 580.017C298.572 595.795 311.238 608.462 327.017 617.831L344.215 588.866ZM318.226 562.917C311.818 551.956 308.633 540.181 308.633 527.278H274.947C274.947 546.097 279.692 563.748 289.145 579.918L318.226 562.917ZM308.633 527.278V392.669H274.947V527.278H308.633Z" fill="#9756D8"/>
<path d="M543.613 632.693V216.063H606.251V393.059H814.853V216.063H878.066C878.066 221.044 878.066 230.43 878.066 244.222C878.066 257.63 878.066 273.721 878.066 292.493C878.066 311.266 878.066 332.145 878.066 355.132C878.066 377.735 877.875 400.913 877.491 424.666C877.491 448.035 877.491 471.213 877.491 494.2C877.491 516.803 877.491 537.491 877.491 556.263C877.491 575.036 877.491 591.318 877.491 605.11C877.491 618.518 877.491 627.713 877.491 632.693H814.853V452.824H606.251V632.693H543.613ZM935.667 514.888C935.667 497.265 938.923 480.791 945.436 465.467C952.332 449.759 961.527 436.159 973.02 424.666C984.513 412.789 997.731 403.403 1012.67 396.507C1028 389.611 1044.28 386.163 1061.52 386.163C1073.01 386.163 1083.55 387.696 1093.12 390.761C1102.7 393.442 1110.94 396.89 1117.83 401.104C1124.73 405.319 1130.29 409.724 1134.5 414.322C1138.71 418.919 1141.59 422.942 1143.12 426.39L1145.42 392.485H1192.54V632.693H1143.12V602.236C1141.2 605.301 1138.14 608.941 1133.93 613.155C1129.71 617.369 1124.16 621.392 1117.26 625.223C1110.75 628.671 1102.89 631.736 1093.7 634.417C1084.5 637.099 1073.97 638.44 1062.09 638.44C1043.7 638.44 1026.66 635.184 1010.95 628.671C995.623 621.775 982.406 612.772 971.296 601.662C960.186 590.168 951.374 576.951 944.862 562.01C938.732 547.069 935.667 531.361 935.667 514.888ZM985.088 512.014C985.088 523.124 987.003 533.468 990.835 543.046C995.049 552.624 1000.6 560.861 1007.5 567.757C1014.4 574.652 1022.63 580.208 1032.21 584.422C1041.79 588.253 1052.32 590.168 1063.82 590.168C1075.31 590.168 1085.85 588.253 1095.42 584.422C1105.38 580.208 1113.81 574.652 1120.71 567.757C1127.99 560.477 1133.54 552.241 1137.37 543.046C1141.2 533.468 1143.12 523.124 1143.12 512.014C1143.12 500.904 1141.2 490.752 1137.37 481.557C1133.54 471.979 1127.99 463.743 1120.71 456.847C1113.81 449.951 1105.38 444.587 1095.42 440.756C1085.85 436.542 1075.31 434.435 1063.82 434.435C1052.32 434.435 1041.79 436.542 1032.21 440.756C1022.63 444.587 1014.4 449.951 1007.5 456.847C1000.6 463.743 995.049 471.979 990.835 481.557C987.003 490.752 985.088 500.904 985.088 512.014ZM1422.46 573.503C1427.82 580.016 1432.8 586.337 1437.4 592.467C1442.38 598.214 1447.36 604.343 1452.34 610.856C1441.61 619.285 1429.54 625.989 1416.13 630.969C1402.73 635.95 1388.17 638.44 1372.46 638.44C1354.84 638.44 1338.17 635.184 1322.46 628.671C1307.14 621.775 1293.73 612.58 1282.24 601.087C1270.74 589.594 1261.55 576.185 1254.65 560.861C1248.14 545.536 1244.88 529.254 1244.88 512.014C1244.88 494.774 1248.14 478.492 1254.65 463.168C1261.55 447.844 1270.74 434.626 1282.24 423.516C1293.73 412.023 1307.14 403.02 1322.46 396.507C1338.17 389.611 1354.84 386.163 1372.46 386.163C1388.55 386.163 1403.3 388.653 1416.71 393.634C1430.5 398.614 1442.95 405.319 1454.06 413.747L1422.46 451.1C1415.94 445.737 1408.47 441.714 1400.04 439.032C1391.62 435.967 1382.42 434.435 1372.46 434.435C1360.97 434.435 1350.43 436.542 1340.85 440.756C1331.28 444.587 1322.85 449.951 1315.57 456.847C1308.67 463.743 1303.31 471.979 1299.48 481.557C1295.65 490.752 1293.73 500.904 1293.73 512.014C1293.73 523.124 1295.65 533.468 1299.48 543.046C1303.31 552.241 1308.67 560.477 1315.57 567.757C1322.85 574.652 1331.28 580.208 1340.85 584.422C1350.43 588.253 1360.97 590.168 1372.46 590.168C1382.42 590.168 1391.62 588.827 1400.04 586.146C1408.47 583.081 1415.94 578.867 1422.46 573.503ZM1671.29 386.163L1700.6 415.471C1686.04 428.88 1672.06 441.906 1658.65 454.548C1645.62 467.191 1631.83 480.408 1617.27 494.2C1634.51 517.186 1651.37 540.364 1667.84 563.734C1684.32 586.72 1700.98 609.707 1717.84 632.693H1661.52C1648.5 614.687 1635.28 597.064 1621.87 579.824C1608.85 562.201 1595.82 544.387 1582.79 526.381L1549.46 556.838V632.693H1500.62V186.181H1549.46V499.372C1570.92 479.833 1591.41 461.061 1610.95 443.055C1630.49 424.666 1650.61 405.702 1671.29 386.163ZM1748.52 300.539C1748.52 291.344 1751.77 283.682 1758.29 277.552C1765.18 271.422 1772.46 268.358 1780.12 268.358C1787.79 268.358 1794.87 271.422 1801.39 277.552C1807.9 283.682 1811.16 291.344 1811.16 300.539C1811.16 309.733 1807.9 317.395 1801.39 323.525C1794.87 329.272 1787.79 332.145 1780.12 332.145C1772.46 332.145 1765.18 329.272 1758.29 323.525C1751.77 317.395 1748.52 309.733 1748.52 300.539ZM1803.69 632.693H1754.84V392.485H1803.69V632.693ZM1872.69 392.485H1915.79C1916.56 404.361 1917.13 415.279 1917.51 425.24C1918.28 434.818 1919.05 444.396 1919.81 453.973C1928.62 433.286 1941.07 416.812 1957.16 404.552C1973.64 392.293 1993.75 386.163 2017.5 386.163C2041.64 386.163 2060.99 392.868 2075.55 406.276C2090.1 419.685 2097.77 436.925 2098.53 457.996V632.693H2049.11V480.408C2048.34 468.148 2044.13 457.804 2036.47 449.376C2028.81 440.565 2016.74 435.776 2000.26 435.01C1988.77 435.01 1978.24 437.117 1968.66 441.331C1959.08 445.162 1950.84 450.525 1943.95 457.421C1937.05 464.317 1931.5 472.554 1927.28 482.132C1923.45 491.71 1921.54 502.245 1921.54 513.738V632.693H1872.69V392.485ZM2148.98 513.164C2148.98 495.158 2152.24 478.492 2158.75 463.168C2165.26 447.461 2174.07 434.052 2185.18 422.942C2196.29 411.448 2209.32 402.445 2224.26 395.933C2239.2 389.42 2255.1 386.163 2271.96 386.163C2284.98 386.163 2296.48 387.887 2306.44 391.335C2316.78 394.783 2325.4 398.806 2332.3 403.403C2339.19 408 2344.56 412.598 2348.39 417.195C2352.6 421.409 2355.28 424.474 2356.43 426.39C2356.43 421.026 2356.82 415.471 2357.58 409.724C2358.35 403.595 2358.73 397.848 2358.73 392.485H2405.85V621.775C2405.85 661.618 2394.17 692.65 2370.8 714.87C2347.43 737.09 2315.82 748.2 2275.98 748.2C2262.19 748.2 2249.74 746.668 2238.63 743.603C2227.9 740.921 2217.94 737.282 2208.75 732.685C2199.93 728.087 2191.7 722.724 2184.04 716.594C2176.76 710.464 2169.48 704.143 2162.2 697.63L2193.8 664.3C2205.68 675.41 2217.75 684.221 2230.01 690.734C2242.65 697.247 2257.59 700.504 2274.83 700.504C2300.5 700.504 2320.42 694.374 2334.6 682.114C2348.77 669.855 2356.05 652.807 2356.43 630.969V614.304C2356.43 611.239 2356.82 607.983 2357.58 604.535C2358.35 600.704 2358.73 597.831 2358.73 595.915C2355.28 600.512 2350.88 605.493 2345.52 610.856C2340.53 615.837 2334.6 620.434 2327.7 624.648C2320.8 628.479 2312.76 631.736 2303.57 634.417C2294.37 637.099 2284.03 638.44 2272.53 638.44C2254.53 638.44 2238.05 635.184 2223.11 628.671C2208.17 622.158 2195.15 613.346 2184.04 602.236C2172.93 590.743 2164.31 577.526 2158.18 562.585C2152.05 547.26 2148.98 530.787 2148.98 513.164ZM2198.4 512.014C2198.4 523.124 2200.32 533.468 2204.15 543.046C2208.36 552.624 2213.92 560.861 2220.81 567.757C2227.71 574.652 2235.95 580.208 2245.52 584.422C2255.1 588.253 2265.64 590.168 2277.13 590.168C2288.62 590.168 2299.16 588.253 2308.74 584.422C2318.7 580.208 2327.13 574.652 2334.02 567.757C2341.3 560.477 2346.86 552.241 2350.69 543.046C2354.52 533.468 2356.43 523.124 2356.43 512.014C2356.43 500.904 2354.52 490.752 2350.69 481.557C2346.86 471.979 2341.3 463.743 2334.02 456.847C2327.13 449.951 2318.7 444.587 2308.74 440.756C2299.16 436.542 2288.62 434.435 2277.13 434.435C2265.64 434.435 2255.1 436.542 2245.52 440.756C2235.95 444.587 2227.71 449.951 2220.81 456.847C2213.92 463.743 2208.36 471.979 2204.15 481.557C2200.32 490.752 2198.4 500.904 2198.4 512.014Z" fill="#1D0437"/>
<defs>
<filter id="filter0_d" x="2397.56" y="208.686" width="254.085" height="189.925" filterUnits="userSpaceOnUse" color-interpolation-filters="sRGB">
<feFlood flood-opacity="0" result="BackgroundImageFix"/>
<feColorMatrix in="SourceAlpha" type="matrix" values="0 0 0 0 0 0 0 0 0 0 0 0 0 0 0 0 0 0 127 0"/>
<feOffset/>
<feGaussianBlur stdDeviation="7.6408"/>
<feColorMatrix type="matrix" values="0 0 0 0 0 0 0 0 0 0.816584 0 0 0 0 0.995833 0 0 0 1 0"/>
<feBlend mode="normal" in2="BackgroundImageFix" result="effect1_dropShadow"/>
<feBlend mode="normal" in="SourceGraphic" in2="effect1_dropShadow" result="shape"/>
</filter>
</defs>
</svg>
