<svg id="Layer_1" data-name="Layer 1" xmlns="http://www.w3.org/2000/svg" viewBox="0 0 997.31 1000.33"><defs><style>.cls-1{fill-rule:evenodd;}</style></defs><title>logo</title><path class="cls-1" d="M485.79,11.84h52.64a48.61,48.61,0,0,0,6,1.16,488.79,488.79,0,0,1,194.8,53.73C937.33,168.63,1044,389,1001.33,608.09c-50.25,257.87-290,432.34-550.43,400.29C348.72,995.8,258.67,955.24,182,886.55Q40.65,760,17.23,570.81c-1.6-13-2.61-26.17-3.89-39.25V492.65c.41-3.18.92-6.35,1.22-9.53,1.11-12,1.74-24,3.3-35.95C30.13,353.77,65.37,270,125,197.22q127-155,325.86-181.46C462.46,14.24,474.14,13.13,485.79,11.84ZM516.88,360c-1.23-.82-2.27-1.65-3.43-2.28C458.53,327.89,400.57,319,340,335.22,283,350.57,234,381.13,190.78,421.15a30.79,30.79,0,0,1-17,8.23c-6,.93-9.46-2-8.91-8.07,1.57-17.28,2.66-34.65,5.16-51.8,3.39-23.19,12.7-44.52,28.73-61.34,20.38-21.39,39.19-43.71,53.93-69.33a46.23,46.23,0,0,0,5.47-15.39Q274.69,120.73,362.27,65.21C376.21,56.4,391.64,50,404.35,43.46,245.33,74.37,64.48,221.33,36.16,452.62,22,568.11,46.55,675.46,109.27,773.57A470,470,0,0,0,232.09,902.94C243,677,338.31,496.78,516.88,360ZM380.33,216.18c-.13.72-.27,1.44-.4,2.15,5.12,1.71,10.13,4.21,15.39,5,26.88,4.12,51.3-2.27,72.6-19.2a38.3,38.3,0,0,0,10.75-14.07c1.76-4,1.19-9.37.5-14-.61-4.08-3.41-5.23-7.7-3.12-14.27,7-28.73,13.62-43.11,20.42Q404.33,204.77,380.33,216.18Z" transform="translate(-13.34 -11.84)"/></svg>