<?xml version="1.0" standalone="no"?>
<!DOCTYPE svg PUBLIC "-//W3C//DTD SVG 20010904//EN"
 "http://www.w3.org/TR/2001/REC-SVG-20010904/DTD/svg10.dtd">
<svg version="1.0" xmlns="http://www.w3.org/2000/svg"
 width="2322.000000pt" height="3264.000000pt" viewBox="0 0 2322.000000 3264.000000"
 preserveAspectRatio="xMidYMid meet">
<metadata>
Created by potrace 1.15, written by Peter Selinger 2001-2017
</metadata>
<g transform="translate(0.000000,3264.000000) scale(0.100000,-0.100000)"
fill="#000000" stroke="none">
<path d="M5569 32518 c-818 -1104 -1392 -2472 -1653 -3938 -59 -332 -76 -409
-113 -520 -69 -211 -215 -475 -501 -910 -468 -712 -1007 -1379 -1782 -2205
-109 -115 -228 -246 -266 -290 -540 -626 -896 -1421 -1039 -2318 -57 -361
-107 -825 -175 -1627 -32 -376 -41 -521 -38 -647 3 -161 3 -162 33 -205 40
-57 121 -98 209 -105 128 -11 356 46 522 130 117 60 207 124 339 243 544 494
964 844 1440 1199 1284 958 2603 1660 3995 2126 911 304 1658 463 2545 539
201 18 952 24 1182 11 1226 -73 2392 -375 3583 -926 355 -164 791 -398 789
-423 0 -4 -70 -61 -157 -127 -684 -525 -1518 -1228 -2212 -1864 -687 -630
-1419 -1365 -2026 -2031 -4558 -5014 -7030 -11092 -7440 -18294 -13 -235 -14
-293 -3 -312 l12 -24 10204 0 10203 0 0 16320 0 16320 -8780 0 -8780 0 -91
-122z m7431 -2061 c19 -12 42 -37 53 -54 44 -76 70 -401 44 -542 -28 -145
-146 -355 -297 -530 -120 -138 -358 -322 -623 -483 -746 -452 -1562 -622
-2457 -512 -176 21 -302 54 -533 140 -111 41 -208 77 -215 79 -9 3 -11 16 -6
42 3 21 9 41 13 44 7 7 1860 885 2791 1322 322 151 680 321 795 377 116 57
230 111 255 121 64 26 139 25 180 -4z"/>
</g>
</svg>
