<svg id="bc1807d8-05e9-4fb8-bfe3-977c0bbe4223" data-name="Layer 1" xmlns="http://www.w3.org/2000/svg" viewBox="0 0 407.4 118.2"><title>2keys</title><polygon points="135.99 81.6 103.57 49.05 103.57 81.6 84.25 81.6 84.28 0.01 103.54 0.01 103.57 30.69 136.21 0.01 163.31 0.05 120.42 39.53 163.31 81.65 135.99 81.6" fill="#231f20"/><polygon points="173.62 81.61 173.62 0.01 241.45 0.1 241.45 18.86 193.38 18.86 193.38 31.42 241.45 31.27 241.45 47.65 193.14 47.64 193.14 60.72 241.49 60.6 241.49 81.65 173.62 81.61" fill="#231f20"/><polygon points="279.04 81.6 279.04 51.7 244.26 0.01 267.8 0.01 288.46 32.18 309.11 0.01 331.77 0.01 297.62 51.7 297.62 81.6 279.04 81.6" fill="#231f20"/><path d="M366.54,15.16h39.53s15.3,2.69,14.47,25.75H401.38s1.11-7.88-5.45-7.84c0,0-20.31-.17-26.42,0-6.1-.19-6.1,13.81-.83,13.75h34.53c4.29,0,17.15,3.48,17.17,19.14,0,0,0,20.5,0,22.76,0,0,1,8-5.18,8H346.56V78.14h55c0-7.66,2.48-13.58-6.94-13.58H365.05s-18.49,1.57-18.49-11.48c0,0-.18-20,0-23.67s-1.23-13.55,20-14.25" transform="translate(-13.3 -15.16)" fill="#231f20"/><path d="M67.91,15.16H28.16S13,17.86,13.87,40.92c0,0,18-.18,19.15,0,0-1.74-2-8.18,5.46-7.83,0,0,20.31-.18,26.42,0s8.41,13,.82,13.74H31.21c-4.3,0-17.39,3.2-17.56,18.68v23s.15,8.29,5.47,8.29c0,0,67.77-.17,68.77,0,0,0,0-15.48,0-18.61h-55c0-7.65-2.48-13.57,6.93-13.57H69.35S88,64.6,87.85,53.1c0,0,.17-20,0-23.67s1.29-13.57-19.94-14.27" transform="translate(-13.3 -15.16)" fill="#e31837"/><path d="M22.89,121.34a2.93,2.93,0,0,0-1.08-.82,3.62,3.62,0,0,0-1.48-.29,3.7,3.7,0,0,0-1.56.33,3.76,3.76,0,0,0-1.25.91,4.32,4.32,0,0,0-.82,1.38,5.25,5.25,0,0,0,0,3.5,4.49,4.49,0,0,0,.81,1.38,3.72,3.72,0,0,0,1.22.9,3.5,3.5,0,0,0,1.5.33,3.44,3.44,0,0,0,1.63-.38A3.33,3.33,0,0,0,23,127.51l2.48,1.85a5.09,5.09,0,0,1-2.18,1.78,6.78,6.78,0,0,1-2.72.58,8.37,8.37,0,0,1-2.92-.5,6.62,6.62,0,0,1-2.32-1.43,6.44,6.44,0,0,1-1.52-2.25,8.16,8.16,0,0,1,0-5.89,6.44,6.44,0,0,1,1.52-2.25A6.77,6.77,0,0,1,17.69,118a8.36,8.36,0,0,1,2.92-.49,7.11,7.11,0,0,1,1.2.1,6.09,6.09,0,0,1,1.23.34,5.1,5.1,0,0,1,1.15.61,4.92,4.92,0,0,1,1,.94Z" transform="translate(-13.3 -15.16)" fill="#231f20"/><path d="M32.48,125.59l-5.09-7.77H31.1L34,122.89,37,117.82h3.54l-5.09,7.77v5.78h-3Z" transform="translate(-13.3 -15.16)" fill="#231f20"/><path d="M43.56,117.82h5a11.71,11.71,0,0,1,1.77.13,4.92,4.92,0,0,1,1.6.49,3.05,3.05,0,0,1,1.15,1,3.21,3.21,0,0,1,.44,1.78,2.82,2.82,0,0,1-.64,1.9,3.43,3.43,0,0,1-1.7,1.08v0a3.87,3.87,0,0,1,1.22.37,3.33,3.33,0,0,1,.94.71,3,3,0,0,1,.6,1,3.51,3.51,0,0,1,.21,1.22,3.22,3.22,0,0,1-.46,1.79,3.54,3.54,0,0,1-1.18,1.16,5.48,5.48,0,0,1-1.64.63,8.63,8.63,0,0,1-1.81.19H43.56Zm3,5.42h2.16a3.16,3.16,0,0,0,.68-.08,1.78,1.78,0,0,0,.6-.25,1.27,1.27,0,0,0,.43-.46,1.35,1.35,0,0,0,.16-.69,1.22,1.22,0,0,0-.18-.69,1.32,1.32,0,0,0-.47-.44,2.16,2.16,0,0,0-.65-.21,3.49,3.49,0,0,0-.71-.07h-2Zm0,5.6h2.68a3.3,3.3,0,0,0,.69-.07,1.74,1.74,0,0,0,.64-.27A1.41,1.41,0,0,0,51,128a1.43,1.43,0,0,0,.19-.74,1.21,1.21,0,0,0-.24-.78,1.46,1.46,0,0,0-.61-.45,3.19,3.19,0,0,0-.78-.21,5.56,5.56,0,0,0-.79-.06H46.55Z" transform="translate(-13.3 -15.16)" fill="#231f20"/><path d="M58.09,117.82h9.2v2.76H61.07v2.52H67v2.76H61.07v2.76h6.57v2.75H58.09Z" transform="translate(-13.3 -15.16)" fill="#231f20"/><path d="M72,117.82h5.24a9.5,9.5,0,0,1,2,.2,4.87,4.87,0,0,1,1.63.67A3.51,3.51,0,0,1,82,120a4.33,4.33,0,0,1,.41,2,4,4,0,0,1-.75,2.44,3.33,3.33,0,0,1-2.18,1.27l3.45,5.72H79.33L76.5,126H75v5.41H72Zm3,5.61h1.76l.85,0a3,3,0,0,0,.82-.17,1.49,1.49,0,0,0,.6-.45,1.37,1.37,0,0,0,.24-.86,1.46,1.46,0,0,0-.21-.83,1.33,1.33,0,0,0-.54-.46,2.07,2.07,0,0,0-.74-.22,5.9,5.9,0,0,0-.83-.06H75Z" transform="translate(-13.3 -15.16)" fill="#231f20"/><path d="M100.82,121.13a2.17,2.17,0,0,0-1-.68,3.65,3.65,0,0,0-1.17-.22,3.14,3.14,0,0,0-.67.08,2.41,2.41,0,0,0-.65.24,1.4,1.4,0,0,0-.5.43,1.2,1.2,0,0,0,.27,1.59,4.1,4.1,0,0,0,1.15.55c.47.16,1,.31,1.51.46a6.67,6.67,0,0,1,1.5.65,3.68,3.68,0,0,1,1.16,1.13,3.51,3.51,0,0,1,.46,1.9,4.36,4.36,0,0,1-.42,2,4.11,4.11,0,0,1-1.14,1.4,4.92,4.92,0,0,1-1.67.82,7.53,7.53,0,0,1-4.45-.14,6,6,0,0,1-2.1-1.3l2.12-2.33a3.16,3.16,0,0,0,1.16.95,3.33,3.33,0,0,0,1.44.33,3.12,3.12,0,0,0,.74-.09,2.33,2.33,0,0,0,.67-.25,1.57,1.57,0,0,0,.48-.44,1.12,1.12,0,0,0,.18-.64,1.14,1.14,0,0,0-.47-1,4.28,4.28,0,0,0-1.17-.61c-.48-.16-1-.33-1.54-.49a7.24,7.24,0,0,1-1.53-.67A3.65,3.65,0,0,1,94,123.7a3.13,3.13,0,0,1-.47-1.82A4,4,0,0,1,94,120a4.17,4.17,0,0,1,1.15-1.38,4.84,4.84,0,0,1,1.65-.83,6.63,6.63,0,0,1,1.93-.28,7.79,7.79,0,0,1,2.22.32,5.2,5.2,0,0,1,1.94,1.09Z" transform="translate(-13.3 -15.16)" fill="#231f20"/><path d="M107.23,117.82h9.21v2.76h-6.22v2.52h5.87v2.76h-5.87v2.76h6.56v2.75h-9.55Z" transform="translate(-13.3 -15.16)" fill="#231f20"/><path d="M130,121.34a2.93,2.93,0,0,0-1.08-.82,3.62,3.62,0,0,0-1.48-.29,3.7,3.7,0,0,0-1.56.33,3.76,3.76,0,0,0-1.25.91,4.32,4.32,0,0,0-.82,1.38,5.25,5.25,0,0,0,0,3.5,4.49,4.49,0,0,0,.81,1.38,3.72,3.72,0,0,0,1.22.9,3.5,3.5,0,0,0,1.5.33,3.44,3.44,0,0,0,1.63-.38,3.33,3.33,0,0,0,1.17-1.07l2.48,1.85a5.09,5.09,0,0,1-2.18,1.78,6.77,6.77,0,0,1-2.71.58,8.38,8.38,0,0,1-2.93-.5,6.62,6.62,0,0,1-2.32-1.43,6.44,6.44,0,0,1-1.52-2.25,8.16,8.16,0,0,1,0-5.89,6.44,6.44,0,0,1,1.52-2.25,6.77,6.77,0,0,1,2.32-1.43,8.38,8.38,0,0,1,2.93-.49,7.08,7.08,0,0,1,1.19.1,6.09,6.09,0,0,1,1.23.34,5.1,5.1,0,0,1,1.15.61,4.68,4.68,0,0,1,1,.94Z" transform="translate(-13.3 -15.16)" fill="#231f20"/><path d="M147.73,126.15a6.63,6.63,0,0,1-.37,2.22,4.9,4.9,0,0,1-1.08,1.76,5,5,0,0,1-1.79,1.17,6.73,6.73,0,0,1-2.47.42,6.84,6.84,0,0,1-2.49-.42,5,5,0,0,1-1.78-1.17,5.06,5.06,0,0,1-1.09-1.76,6.63,6.63,0,0,1-.36-2.22v-8.33h3V126a3.2,3.2,0,0,0,.2,1.17,2.72,2.72,0,0,0,.56.93,2.58,2.58,0,0,0,.87.61,2.7,2.7,0,0,0,1.1.22,2.59,2.59,0,0,0,1.09-.22,2.64,2.64,0,0,0,.86-.61,2.59,2.59,0,0,0,.57-.93,3.42,3.42,0,0,0,.2-1.17v-8.21h3Z" transform="translate(-13.3 -15.16)" fill="#231f20"/><path d="M152.49,117.82h5.24a9.6,9.6,0,0,1,2,.2,4.81,4.81,0,0,1,1.62.67,3.34,3.34,0,0,1,1.11,1.27,4.21,4.21,0,0,1,.41,2,4,4,0,0,1-.74,2.44,3.38,3.38,0,0,1-2.18,1.27l3.44,5.72h-3.58L157,126h-1.47v5.41h-3Zm3,5.61h1.76l.85,0a2.84,2.84,0,0,0,.81-.17,1.49,1.49,0,0,0,.6-.45,1.37,1.37,0,0,0,.24-.86,1.46,1.46,0,0,0-.21-.83,1.37,1.37,0,0,0-.53-.46,2.19,2.19,0,0,0-.75-.22,5.76,5.76,0,0,0-.82-.06h-2Z" transform="translate(-13.3 -15.16)" fill="#231f20"/><path d="M166.86,117.82h3v13.55h-3Z" transform="translate(-13.3 -15.16)" fill="#231f20"/><path d="M177.2,120.46h-3.87v-2.64h10.72v2.64h-3.87v10.91h-3Z" transform="translate(-13.3 -15.16)" fill="#231f20"/><path d="M190.9,125.59l-5.09-7.77h3.71l2.87,5.07,3-5.07H199l-5.1,7.77v5.78h-3Z" transform="translate(-13.3 -15.16)" fill="#231f20"/><path d="M211.61,116.58v16.78h-2.42V116.58Z" transform="translate(-13.3 -15.16)" fill="#e31837"/><path d="M223.59,117.82h4.47a12.34,12.34,0,0,1,3.09.37,7.07,7.07,0,0,1,2.56,1.17,5.74,5.74,0,0,1,1.73,2.12,7,7,0,0,1,.64,3.15,6.48,6.48,0,0,1-.62,2.9,6.18,6.18,0,0,1-1.67,2.11,7.41,7.41,0,0,1-2.44,1.29,9.48,9.48,0,0,1-2.88.44h-4.88Zm3,10.8h1.55a7.78,7.78,0,0,0,1.92-.22,4.1,4.1,0,0,0,1.54-.69,3.37,3.37,0,0,0,1-1.29,4.51,4.51,0,0,0,.37-1.94,3.77,3.77,0,0,0-.37-1.73,3.54,3.54,0,0,0-1-1.22,4.52,4.52,0,0,0-1.48-.71,6.56,6.56,0,0,0-1.79-.24h-1.76Z" transform="translate(-13.3 -15.16)" fill="#231f20"/><path d="M240.08,117.82h3v13.55h-3Z" transform="translate(-13.3 -15.16)" fill="#231f20"/><path d="M260.06,130.41a10.69,10.69,0,0,1-2.75,1,14.36,14.36,0,0,1-2.93.31,8.38,8.38,0,0,1-2.93-.5,6.71,6.71,0,0,1-2.32-1.43,6.58,6.58,0,0,1-1.52-2.25,8.3,8.3,0,0,1,0-5.89,6.58,6.58,0,0,1,1.52-2.25,6.86,6.86,0,0,1,2.32-1.43,8.38,8.38,0,0,1,2.93-.49,10.87,10.87,0,0,1,3,.39,5.78,5.78,0,0,1,2.4,1.35l-2.1,2.3a4.15,4.15,0,0,0-1.38-1,4.85,4.85,0,0,0-1.91-.33,4.34,4.34,0,0,0-1.73.33,3.89,3.89,0,0,0-1.33.91,4.08,4.08,0,0,0-.86,1.38,5.43,5.43,0,0,0,0,3.5,4.08,4.08,0,0,0,.86,1.38,3.86,3.86,0,0,0,1.33.9,4.34,4.34,0,0,0,1.73.33,5.57,5.57,0,0,0,1.68-.22,7,7,0,0,0,1.13-.45v-2.2h-2.43v-2.76h5.3Z" transform="translate(-13.3 -15.16)" fill="#231f20"/><path d="M264.65,117.82h3v13.55h-3Z" transform="translate(-13.3 -15.16)" fill="#231f20"/><path d="M275,120.46h-3.87v-2.64h10.72v2.64H278v10.91h-3Z" transform="translate(-13.3 -15.16)" fill="#231f20"/><path d="M288.06,117.82h2.47l5.89,13.55h-3.37l-1.16-2.87h-5.27l-1.13,2.87H282.2Zm1.15,3.94L287.56,126h3.31Z" transform="translate(-13.3 -15.16)" fill="#231f20"/><path d="M299.91,117.82h3v10.8h5.53v2.75h-8.51Z" transform="translate(-13.3 -15.16)" fill="#231f20"/><path d="M319.71,117.82h3v13.55h-3Z" transform="translate(-13.3 -15.16)" fill="#231f20"/><path d="M327.42,117.82h4.48a12.34,12.34,0,0,1,3.09.37,7.07,7.07,0,0,1,2.56,1.17,5.84,5.84,0,0,1,1.73,2.12,7,7,0,0,1,.64,3.15,6.48,6.48,0,0,1-.62,2.9,6.21,6.21,0,0,1-1.68,2.11,7.26,7.26,0,0,1-2.43,1.29,9.49,9.49,0,0,1-2.89.44h-4.88Zm3,10.8H332a7.78,7.78,0,0,0,1.92-.22,4.1,4.1,0,0,0,1.54-.69,3.37,3.37,0,0,0,1-1.29,4.51,4.51,0,0,0,.37-1.94,3.77,3.77,0,0,0-.37-1.73,3.54,3.54,0,0,0-1-1.22,4.52,4.52,0,0,0-1.48-.71,6.56,6.56,0,0,0-1.79-.24h-1.76Z" transform="translate(-13.3 -15.16)" fill="#231f20"/><path d="M344.07,117.82h9.21v2.76h-6.22v2.52h5.87v2.76h-5.87v2.76h6.56v2.75h-9.55Z" transform="translate(-13.3 -15.16)" fill="#231f20"/><path d="M358,117.82h4.06l5.76,9.42h0v-9.42h3v13.55H367l-5.91-9.64h0v9.64h-3Z" transform="translate(-13.3 -15.16)" fill="#231f20"/><path d="M378.25,120.46h-3.86v-2.64H385.1v2.64h-3.86v10.91h-3Z" transform="translate(-13.3 -15.16)" fill="#231f20"/><path d="M388.59,117.82h3v13.55h-3Z" transform="translate(-13.3 -15.16)" fill="#231f20"/><path d="M398.92,120.46h-3.86v-2.64h10.71v2.64h-3.86v10.91h-3Z" transform="translate(-13.3 -15.16)" fill="#231f20"/><path d="M412.62,125.59l-5.09-7.77h3.72l2.87,5.07,3-5.07h3.54l-5.09,7.77v5.78h-3Z" transform="translate(-13.3 -15.16)" fill="#231f20"/></svg>