<svg id="b49d3156-3a47-4b5f-bdc9-2a0532ba4906" data-name="Layer 1" xmlns="http://www.w3.org/2000/svg" viewBox="0 0 238.17 58.11"><title>balsamiq</title><path d="M4.42,53.57c.12-2.11.25-5.25.25-8V8.13h5.57V27.59h.13c2-3.46,5.57-5.7,10.56-5.7,7.68,0,13.12,6.4,13,15.81,0,11.07-7,16.57-13.88,16.57-4.48,0-8.07-1.72-10.37-5.82H9.54l-.26,5.12Zm5.82-12.42a10.35,10.35,0,0,0,.26,2.05,8.68,8.68,0,0,0,8.44,6.59c5.89,0,9.41-4.8,9.41-11.9,0-6.21-3.2-11.52-9.21-11.52a9,9,0,0,0-8.58,6.91,11,11,0,0,0-.32,2.31Z" transform="translate(-4.42 -8.13)" fill="#c00"/><path d="M57.12,53.57l-.44-3.9h-.2A11.52,11.52,0,0,1,47,54.27c-6.27,0-9.47-4.41-9.47-8.89,0-7.49,6.66-11.59,18.62-11.52v-.64c0-2.56-.7-7.17-7-7.17a15.53,15.53,0,0,0-8.06,2.3l-1.28-3.71A19.26,19.26,0,0,1,50,21.89c9.47,0,11.77,6.46,11.77,12.67V46.15a44,44,0,0,0,.51,7.42Zm-.83-15.81c-6.14-.13-13.12,1-13.12,7a5,5,0,0,0,5.32,5.37A7.68,7.68,0,0,0,56,44.93a5.63,5.63,0,0,0,.32-1.79Z" transform="translate(-4.42 -8.13)" fill="#c00"/><path d="M69.2,8.13h5.63V53.57H69.2Z" transform="translate(-4.42 -8.13)" fill="#c00"/><path d="M81.59,47.81A14.77,14.77,0,0,0,89,50.05c4.09,0,6-2,6-4.61s-1.6-4.16-5.76-5.69c-5.57-2-8.19-5.06-8.19-8.77,0-5,4-9.09,10.69-9.09a15.47,15.47,0,0,1,7.61,1.92L98,27.91a12.07,12.07,0,0,0-6.34-1.79c-3.33,0-5.18,1.92-5.18,4.22,0,2.56,1.85,3.71,5.88,5.25,5.38,2,8.13,4.73,8.13,9.34,0,5.44-4.22,9.28-11.58,9.28a17.71,17.71,0,0,1-8.71-2.11Z" transform="translate(-4.42 -8.13)" fill="#c00"/><path d="M123.92,53.57l-.45-3.9h-.19a11.55,11.55,0,0,1-9.48,4.6c-6.27,0-9.47-4.41-9.47-8.89,0-7.49,6.66-11.59,18.63-11.52v-.64c0-2.56-.71-7.17-7-7.17a15.54,15.54,0,0,0-8.07,2.3l-1.28-3.71a19.26,19.26,0,0,1,10.18-2.75c9.47,0,11.77,6.46,11.77,12.67V46.15a44,44,0,0,0,.51,7.42Zm-.84-15.81c-6.14-.13-13.12,1-13.12,7a5,5,0,0,0,5.32,5.37,7.68,7.68,0,0,0,7.48-5.18,5.93,5.93,0,0,0,.32-1.79Z" transform="translate(-4.42 -8.13)" fill="#c00"/><path d="M135.94,31c0-3.2-.06-5.82-.26-8.38h4.93l.26,5h.19a10.67,10.67,0,0,1,9.73-5.7,9.17,9.17,0,0,1,8.77,6.21h.12a12.74,12.74,0,0,1,3.46-4A10.54,10.54,0,0,1,170,21.89c4.09,0,10.17,2.69,10.17,13.44V53.57h-5.5V36c0-6-2.18-9.53-6.72-9.53a7.3,7.3,0,0,0-6.66,5.12,9.47,9.47,0,0,0-.44,2.81V53.57h-5.51V35c0-4.93-2.17-8.51-6.46-8.51-3.52,0-6.08,2.82-7,5.63a7.75,7.75,0,0,0-.45,2.75V53.57h-5.5V31Z" transform="translate(-4.42 -8.13)" fill="#c00"/><path d="M194,13.89a3.49,3.49,0,0,1-7,0,3.44,3.44,0,0,1,3.52-3.52A3.34,3.34,0,0,1,194,13.89Zm-6.27,39.68v-31h5.63v31Z" transform="translate(-4.42 -8.13)" fill="#c00"/><path d="M222.36,48.77h-.13c-1.66,3.07-5.12,5.5-10.11,5.5C204.89,54.27,199,48,199,38.6c0-11.59,7.49-16.71,14-16.71,4.79,0,8,2.37,9.53,5.38h.13l.19-4.67h5.31c-.13,2.62-.19,5.31-.19,8.51V66.24h-5.63V48.77Zm0-13.63a9.68,9.68,0,0,0-.26-2.37,8.23,8.23,0,0,0-8.06-6.4c-5.82,0-9.35,4.93-9.35,11.91,0,6.14,2.95,11.52,9.16,11.52a8.39,8.39,0,0,0,8.06-6.15,9.65,9.65,0,0,0,.45-2.69V35.14Z" transform="translate(-4.42 -8.13)" fill="#c00"/><path d="M242.59,26.24a4.72,4.72,0,1,1-4.71-4.59A4.62,4.62,0,0,1,242.59,26.24Zm-8.27,0a3.56,3.56,0,0,0,3.59,3.67,3.51,3.51,0,0,0,3.5-3.64,3.55,3.55,0,1,0-7.09,0Zm2.83,2.41h-1.06V24.06a9.65,9.65,0,0,1,1.76-.14,2.84,2.84,0,0,1,1.6.34,1.27,1.27,0,0,1,.45,1,1.18,1.18,0,0,1-1,1.07v.05a1.38,1.38,0,0,1,.84,1.12,3.66,3.66,0,0,0,.33,1.15H239a4,4,0,0,1-.36-1.12c-.08-.5-.36-.73-1-.73h-.5v1.85Zm0-2.6h.5c.59,0,1.07-.2,1.07-.67s-.31-.7-1-.7a2.53,2.53,0,0,0-.59.05Z" transform="translate(-4.42 -8.13)" fill="#c00"/></svg>