<?xml version="1.0" encoding="utf-8"?>
<!-- Generator: Adobe Illustrator 23.1.1, SVG Export Plug-In . SVG Version: 6.00 Build 0)  -->
<svg version="1.1" id="Layer_1" xmlns="http://www.w3.org/2000/svg" xmlns:xlink="http://www.w3.org/1999/xlink" x="0px" y="0px"
	 viewBox="0 0 907.9 359.4" style="enable-background:new 0 0 907.9 359.4;" xml:space="preserve">
<style type="text/css">
	.st0{fill:#CF222B;}
	.st1{fill:#1F4384;}
	.st2{fill:#E2BC23;}
	.st3{fill:#94C93D;}
	.st4{fill:#231F20;}
</style>
<g>
	<path class="st0" d="M356.9,170.3c2.4,27.3-2.8,53.6-13.9,76.7c37.4-62.1,25.5-143-38.9-202.8l-11.6,16.5
		C328.1,84.8,352.9,124.1,356.9,170.3L356.9,170.3z"/>
	<path class="st1" d="M196.5,35.7c26.7-2.3,52.4,2.6,75.1,13.1C209.5,11.6,128.7,23.6,69,87.9l17.8,12.5
		C110.9,64.7,150.3,39.8,196.5,35.7L196.5,35.7z"/>
	<path class="st2" d="M62,196.1c-2.4-26.9,2.7-52.7,13.3-75.5C37.2,182.8,49,264.2,113.7,324.3l12.9-18.5
		C90.9,281.7,66,242.3,62,196.1L62,196.1z"/>
	<path class="st3" d="M222.3,330.7c-28.1,2.5-55-3.1-78.5-14.8c62.5,40,145.4,28.8,206.3-36.8l-18.2-12.8
		C307.7,301.9,268.4,326.6,222.3,330.7L222.3,330.7z"/>
	<path class="st2" d="M65.3,111.4c6.6,4.4,15.4,2.6,19.8-3.9c4.4-6.5,2.6-15.4-4-19.8c-6.5-4.4-15.4-2.6-19.8,4
		C57,98.2,58.8,107,65.3,111.4L65.3,111.4z"/>
	<path class="st2" d="M118.1,331.2c6.6,4.4,15.4,2.6,19.8-4c4.4-6.5,2.6-15.4-4-19.8c-6.5-4.4-15.4-2.6-19.8,4
		C109.7,317.9,111.5,326.8,118.1,331.2L118.1,331.2z"/>
	<path class="st2" d="M285.2,60.8c6.6,4.4,15.4,2.6,19.8-4c4.4-6.5,2.6-15.4-4-19.8c-6.5-4.4-15.4-2.6-19.8,4
		C276.9,47.6,278.6,56.4,285.2,60.8L285.2,60.8z"/>
	<path class="st2" d="M335.5,279.2c6.5,4.4,15.4,2.6,19.8-4c4.4-6.5,2.6-15.4-4-19.8c-6.6-4.4-15.4-2.6-19.8,4
		C327.2,266,328.9,274.8,335.5,279.2L335.5,279.2z"/>
	<path class="st1" d="M232.4,242c-3.2,2.6-9.5,7.5-18.4,13c24.4-2,45.3-15.7,57.4-35.5c-2.1-3.8-4.8-8.1-8.5-13.1
		c-3.5-4.8-7.7-10.3-12.4-15.7l-5.6-6.3c-10.2-10.6-17.4-17.1-26.2-24.6c-8.9-6.5-15.9-11.3-27.7-18.3l-6.8-3.6
		c-5.9-3-11.7-5.4-16.7-7.5c-3.9-1.6-7.4-2.7-10.5-3.6c-14.4,13.5-23.4,32.7-23.4,54.1c0,41.1,33.3,74.3,74.3,74.3
		c0.5,0,0.9-0.1,1.4-0.1c8.2-4.5,14.6-8.4,22-13.2l0,0l4.2-2.5L232.4,242C232.5,242,232.5,242,232.4,242L232.4,242z"/>
	<path class="st1" d="M162.3,125.3c8.8,3.3,17.9,7.5,27.2,12.6c14.4,8,25.1,16,30.1,20.5c5.7,4,16.8,13.2,29.3,26.7
		c7.8,8.5,14.7,17,20.6,25.5c1.4,1.9,2.5,3.8,3.7,5.6c5.7-10.5,8.9-22.5,8.9-35.3c0-28-15.5-52.4-38.5-65.1l-3.9,2.1
		c-11.9,7-19.3,11.8-28.3,18.4l0,0l-3.8,2.5l2.8-2.5c0,0,0,0,0,0c4.3-4,14.9-13.2,30.5-21.9c-10-5-21.2-7.9-33.2-7.9
		c-18.4,0-35.2,6.7-48.1,17.8C160.7,124.7,161.4,124.9,162.3,125.3L162.3,125.3z"/>
	<path class="st1" d="M308.4,98.8c-1.4-3.7-5.3-5.7-11.6-5.8c-7.4-0.1-16.9,2-28.4,6.3c-8.7,3.3-17.7,7.5-27,12.7
		c-15.8,8.8-26.5,18.1-30.8,22.1c0,0,0,0,0,0l-2.8,2.5l3.8-2.5l0,0c9-6.7,16.4-11.4,28.3-18.4l6.7-3.6c5.8-3,11.6-5.4,16.5-7.5
		c17.5-7.3,27.5-6.1,27.5-6.1c9.4,1.3,13,5.7,10.7,13.4l-1.3,3.5c-1.7,5.3-6.6,12.4-14.7,21.2l-6.6,7c-0.6,0.6-3.2,3-4.2,4
		c0.8,1.4,1,2.3,1.5,3.8c6.7-6.2,12.7-13.6,17.7-19.6C306.3,116.9,311.1,105.9,308.4,98.8L308.4,98.8z"/>
	<path class="st1" d="M231.3,239.7L231.3,239.7c-10,6.6-18.3,11.4-31.5,18.4l-7.5,3.6c-6.5,3-12.8,5.4-18.3,7.5
		c-19.5,7.4-30.5,6.3-30.5,6.3c-10.4-1.1-14.3-5.4-11.6-12.9l1.4-3.5c1.9-5.2,7.4-12.2,16.4-20.9l5.2-4.9c-0.8-0.8-1.6-1.6-2.2-2.3
		c-4.6,4.1-8.6,8.1-12.3,12.1c-13.8,14.7-19.3,25.5-16.4,32.4c1.5,3.6,5.8,5.5,12.8,5.5c8.2,0,18.7-2.2,31.4-6.5
		c9.7-3.3,19.7-7.6,30-12.7c17.5-8.8,29.5-18,34.3-22c0,0,0,0,0,0l3.1-2.5L231.3,239.7L231.3,239.7z"/>
	<path class="st1" d="M284.8,237.1c-2.3-8-7.4-17.6-15.1-28.7c-5.9-8.5-12.8-17-20.6-25.5c-12.5-13.6-23.6-22.7-29.3-26.7
		c-5.1-4.5-15.7-12.5-30.1-20.5c-9.3-5.1-18.4-9.4-27.2-12.6c-11.6-4.3-21.1-6.4-28.6-6.2c-6.4,0.1-10.3,2.1-11.7,5.9
		c-2.7,7.2,2.3,18.3,14.9,33.3c0.1,0.1,0.6,0.7,0.8,0.8c0.4-0.9,0.9-2.6,1.5-3.9c-4.6-5.7-7.4-9.6-8.6-13.4l-1.3-3.6
		c-2.4-7.7,1.2-12.3,10.7-13.6c0,0,10.1-1.3,27.8,6c5,2.1,10.8,4.5,16.7,7.5l6.8,3.6c11.9,6.9,18.8,11.7,27.7,18.3
		c8.8,7.5,16.1,14,26.2,24.6l5.6,6.3c4.7,5.4,8.8,11,12.4,15.7c12.6,16.8,14.6,27.9,14.6,27.9c1.8,10.4-1.3,15.4-9.3,14.9l-3.8-0.4
		c-3.6-0.2-8.4-1.7-14.3-4.5c-1.2,0.9-2.3,1.4-3.2,2.1c0.1,0-0.1,0-0.1,0c18.2,9.3,30.1,11.6,36,6.8
		C286.1,248.5,286.7,243.9,284.8,237.1L284.8,237.1z"/>
</g>
<g>
	<path class="st4" d="M424.6,232.1h-12.9V128.2h12.9V232.1z"/>
	<path class="st4" d="M531.7,128.2c10.2,0,17.9,0.5,23.1,1.6c5.2,1,9.5,2.8,12.8,5.1c4.2,3.1,7.3,7,9.2,11.9
		c1.9,4.9,2.9,11.3,2.9,19.3v28.1c0,8-1,14.4-2.9,19.3c-1.9,4.9-5,8.9-9.2,11.9c-3.3,2.4-7.6,4.1-12.8,5.2c-5.2,1-12.9,1.5-23.1,1.5
		h-78.2V128.2H531.7z M540,139.8h-73.5v80.7H540c9.7,0,16.5-1.9,20.4-5.6c3.9-3.7,5.9-10.2,5.9-19.5V165c0-9.8-1.8-16.4-5.5-20
		C557.1,141.5,550.1,139.8,540,139.8z"/>
	<path class="st4" d="M604.5,232.1V128.2h102.3v11.6h-89.6v32.6H703v11.6h-85.9v36.6h89.6v11.6H604.5z"/>
	<path class="st4" d="M715.6,232.1l60.3-103.9H793l60.4,103.9h-13.7l-13.6-22.9h-82.6l-13.3,22.9H715.6z M749.8,198.2h70l-35.3-59.7
		L749.8,198.2z"/>
</g>
<path id="_x38__2_" class="st4" d="M858.4,223.5c-2.1,0-3.9,1.7-3.9,3.9c0,2.1,1.7,3.9,3.9,3.9c2.1,0,3.9-1.7,3.9-3.9
	C862.3,225.2,860.6,223.5,858.4,223.5z M858.4,230.6c-1.8,0-3.2-1.5-3.2-3.2c0-1.8,1.5-3.2,3.2-3.2c1.8,0,3.2,1.5,3.2,3.2
	C861.7,229.1,860.2,230.6,858.4,230.6z M859.5,227.8c-0.1-0.1-0.3-0.2-0.4-0.3c0.4-0.1,0.6-0.2,0.8-0.4c0.2-0.2,0.3-0.4,0.3-0.8
	c0-0.2-0.1-0.5-0.2-0.6c-0.1-0.2-0.3-0.3-0.5-0.4c-0.2-0.1-0.5-0.1-0.9-0.1h-1.7v4h0.8v-1.7h0.2c0.2,0,0.3,0,0.4,0
	c0.1,0,0.2,0.1,0.2,0.2c0.1,0.1,0.2,0.3,0.4,0.6l0.6,0.9h1l-0.5-0.8C859.8,228.1,859.6,227.9,859.5,227.8z M858.2,226.9h-0.6v-1h0.6
	c0.3,0,0.5,0,0.6,0c0.1,0,0.2,0.1,0.3,0.2c0.1,0.1,0.1,0.2,0.1,0.3c0,0.1,0,0.2-0.1,0.3c-0.1,0.1-0.1,0.1-0.2,0.2
	C858.9,226.9,858.6,226.9,858.2,226.9z"/>
</svg>
