<?xml version="1.0" encoding="utf-8"?>
<!-- Generator: Adobe Illustrator 23.1.1, SVG Export Plug-In . SVG Version: 6.00 Build 0)  -->
<svg version="1.1" id="Layer_1" xmlns="http://www.w3.org/2000/svg" xmlns:xlink="http://www.w3.org/1999/xlink" x="0px" y="0px"
	 viewBox="0 0 2500 825" style="enable-background:new 0 0 2500 825;" xml:space="preserve">
<style type="text/css">
	.st0{fill-rule:evenodd;clip-rule:evenodd;fill:#D41146;}
</style>
<path class="st0" d="M584.5,15.4c-53.8,0-97.4,43.6-97.4,97.4c0,53.8,43.6,97.4,97.4,97.4c53.8,0,97.4-43.6,97.4-97.4
	C681.8,59.1,638.2,15.5,584.5,15.4z M1042.2,245.6c-154.7,0-272.4,135.4-274.9,286.9c-0.7,47.5,9.4,92.2,27.4,129.4
	c-102.2,29.8-122-19.2-125.4-111.4c-4.2-111.1-4.7-268.2-4.7-268.2H501.1v322.9c0,67,16.3,170.8,132.1,191.5
	c72.2,12.9,142.6-1.3,236.9-44c45.1,32.3,105.2,53.4,171.5,53.4c91.6,0,166.1-40.3,221.5-77.4V626.6
	c-68.9,44.3-169.7,76.4-232.2,30.7c63.8-44.3,124.8-97.6,164.8-161.5C1259.5,394,1217.8,245.6,1042.2,245.6L1042.2,245.6z
	 M292.2,261C131,261,0,359.4,0,536.5c0,180.1,126.9,272.2,278.2,272.2c43.8,0,112.3-8.8,152.1-28.7V641.3
	c-34.4,13.3-74.9,18.7-106.8,18.7c-65.4,0-142.1-38.6-142.1-120.1c0-93.2,72.5-128.1,144.8-128.1c34.8,0,74.4,10.6,104.1,19.3V283.6
	C389.3,271.4,331.3,261,292.2,261L292.2,261z M2125.7,262.3c-76.3,0.2-147,19.6-214.8,42v131.4c58.7-21.8,129.7-32,184.8-32
	c70.6,0,104.1,30.7,104.1,84.8v8.6c-30-10.7-77.1-20-125.4-20c-122.8,0-204.8,55.8-204.8,164.1v2c0,104.5,75.8,161.5,175.5,161.5
	c68.6,0,118.3-25.7,154.1-65.4v54.1h177.5V492.5c0-73.6-12.4-127.5-52.1-166.1C2283,284.7,2219.5,262.1,2125.7,262.3L2125.7,262.3z
	 M1652.6,263c-72.6,0-119.9,41.1-153.4,84.1l-7.3,9.4V277h-175.5v516.4h175.5V510.5c0-59,34.3-92.1,81.4-92.1
	c46.3,0,77.4,33.3,77.4,92.1v282.9h176.1V451.8C1826.8,334.7,1761.3,263,1652.6,263L1652.6,263z M1052.2,391.7
	c44.7,0.9,74.7,44.5,22,111.4c-24.3,30.8-60.2,60.5-102.8,88.1c-59.4-108.9,14.3-185.8,61.4-196.8c3.4-0.8,6.7-1.6,10-2
	C1045.9,392.1,1049.2,391.7,1052.2,391.7L1052.2,391.7z M2130.4,565.9c27.2,0,51.3,7.9,71.4,16.7c0.1,67-37.6,107.4-90.7,107.4
	c-37.7,0-64.7-21.6-64.7-57.4v-2C2046.3,592,2077.2,565.9,2130.4,565.9z M2467.3,729.4c-17.6,0-32,13.5-32,32c0,18.1,14.4,32,32,32
	c17.6,0,32.7-13.6,32.7-32C2500,743.2,2484.9,729.4,2467.3,729.4L2467.3,729.4z M2467.3,734c15,0,27.4,11.8,27.4,27.4
	c0,15.6-12.3,27.3-27.3,27.3c-15.1,0-26.7-12-26.7-27.3C2440.6,745.6,2452.2,734,2467.3,734L2467.3,734z M2456,742.7v37.4h4.7v-16
	h6.7l10,16h6l-10.7-16c5.5-0.6,10-3.4,10-10c0-7.4-4.5-11.3-13.4-11.3H2456z M2460.6,747.4h8c4,0,8.7,0.9,8.7,6c0,5.9-4.8,6-10,6
	h-6.7V747.4z"/>
</svg>
