<svg id="a0608716-4211-46f7-b3dd-73d7dc5fdcb8" data-name="Layer 1" xmlns="http://www.w3.org/2000/svg" viewBox="0 0 351.16 119.1"><defs><style>.a758ed49-0cee-4a24-a26b-5d05d2de8143{fill:#eb2d37;}.b0f975b5-bac7-49e5-b889-77d1d25f95ea{fill:#fbaf1a;}</style></defs><title>cse</title><path d="M145.07,80.71V91.29h18.48c2.09,0,2.57.49,2.58,2.57v7.75c0,2.09-.36,2.43-2.5,2.43H145.08v11.58h22.71c2.13,0,2.5.37,2.5,2.46,0,2.75,0,5.5,0,8.25,0,1.52-.49,2-2,2H133.66c-1.54,0-2.11-.58-2.11-2.12q0-28.05,0-56.11c0-1.6.57-2.14,2.2-2.14h34.37c1.76,0,2.17.43,2.17,2.24v8.24c0,1.78-.44,2.23-2.2,2.23h-23Z" transform="translate(-22.63 -21.95)"/><path d="M244.38,97.28c0,9.17,5.69,16.36,13.9,17.82a17.32,17.32,0,0,0,13.88-3.45c1.44-1.08,2.11-1.06,3.3.22l5.7,6.13c1.23,1.33,1.22,2.12-.14,3.37a28.67,28.67,0,0,1-17,7.67c-8.81.88-16.78-1.33-23.42-7.19-9.89-8.74-13.19-19.84-9.52-32.43C234.73,77,243.4,69.56,256.23,67.51a28.7,28.7,0,0,1,24.59,7c1.58,1.41,1.64,2.07.2,3.58l-5.7,6c-1.19,1.25-1.68,1.28-3.05.17-6.39-5.2-15-5.47-21.2-.57A17.49,17.49,0,0,0,244.38,97.28Z" transform="translate(-22.63 -21.95)"/><path d="M53.89,67.08a28.73,28.73,0,0,1,20,7.68c1.34,1.22,1.39,1.95.17,3.24q-2.91,3.09-5.87,6.13c-1.17,1.2-1.71,1.21-3,.19-5.19-4.13-11-5.39-17.2-2.94s-9.66,7.46-10.55,14c-1.24,9.12,4.09,17.37,12.51,19.43a17.31,17.31,0,0,0,15-3.15c1.57-1.16,2.12-1.14,3.47.3,1.88,2,3.77,4,5.64,6,1.19,1.28,1.15,2.07-.11,3.28C63.65,131.18,46.48,132,35,123c-10.24-8-14.19-18.73-11.52-31.34S34.27,71.12,46.83,67.86a23.23,23.23,0,0,1,3.32-.55C51.39,67.18,52.64,67.15,53.89,67.08Z" transform="translate(-22.63 -21.95)"/><path d="M101.27,67.12c6.15.06,12.16,2.46,17.62,6.42a2.06,2.06,0,0,1,.48,3C118,78.75,116.54,81,115,83.1c-1,1.43-2.18,1.57-3.63.59-3.1-2.07-6.29-3.93-10-4.58a6.63,6.63,0,0,0-4.48.66c-2.23,1.26-3.12,3.72-1.73,5.85a12.28,12.28,0,0,0,3.72,3.56,51.58,51.58,0,0,0,6.4,3.07,33.66,33.66,0,0,1,10.51,6.59c8.67,8.59,6.57,22.24-4.26,27.9-5,2.6-10.27,2.93-15.69,2.15-5.12-.73-9.85-2.41-13.79-5.92-1.52-1.36-1.54-1.6-.53-3.39q1.68-3,3.37-6c.92-1.63,2.12-1.93,3.71-.89a25.52,25.52,0,0,0,8.91,4.09A12.47,12.47,0,0,0,102,117c3.65-.64,5.31-4.24,3.64-7.57a10,10,0,0,0-4.68-4.34c-2.67-1.36-5.46-2.48-8.12-3.84a25.18,25.18,0,0,1-8.5-6.84,16.52,16.52,0,0,1,7.14-25.58A25.64,25.64,0,0,1,101.27,67.12Z" transform="translate(-22.63 -21.95)"/><path d="M307.68,67A31.82,31.82,0,0,1,326,73.54a2.19,2.19,0,0,1,.48,3c-1.41,2.22-2.85,4.41-4.34,6.57a2.29,2.29,0,0,1-3.54.63c-3.1-2.06-6.26-4-10-4.58a8.51,8.51,0,0,0-3.79.29c-3.14,1.05-4.2,4.38-2.07,6.91a16,16,0,0,0,4.58,3.56c2.47,1.35,5.14,2.33,7.7,3.54a27.06,27.06,0,0,1,8.44,5.9c8.51,9.19,5.49,23.36-6.3,28-9.73,3.82-19,2.12-27.51-4a9.54,9.54,0,0,1-1.1-1,1.53,1.53,0,0,1-.32-2c1.35-2.4,2.66-4.81,4-7.18.73-1.25,2-1.28,3.49-.48a65.4,65.4,0,0,0,8.06,3.86,11,11,0,0,0,5.26.39c3.56-.56,5.21-4,3.72-7.34a8.39,8.39,0,0,0-3.62-3.85,46.93,46.93,0,0,0-5-2.5,34.21,34.21,0,0,1-11.47-7.38c-8.65-8.89-5.18-23.71,7.4-27.62a19.66,19.66,0,0,1,3-.73C304.62,67.29,306.15,67.19,307.68,67Z" transform="translate(-22.63 -21.95)"/><path d="M346.37,80.71H335.08c-2.2,0-2.58-.39-2.58-2.63,0-2.67,0-5.33,0-8,0-1.54.56-2.08,2.12-2.08h37.12c1.59,0,2.05.47,2.05,2.11,0,2.79,0,5.58,0,8.37,0,1.77-.44,2.22-2.19,2.23H360v45.16c0,2.06-.44,2.5-2.48,2.51h-8.75c-1.88,0-2.35-.48-2.35-2.38q0-21.73,0-43.49Z" transform="translate(-22.63 -21.95)"/><path d="M62.79,22.62c0,.47.08.88.08,1.29,0,5.29,0,10.58,0,15.87,0,1-.27,1.4-1.33,1.37-2.2-.07-4.41,0-6.62,0-.71,0-1.08-.17-1.07-1,0-5.63,0-11.25,0-16.88a3.88,3.88,0,0,1,.12-.66Z" transform="translate(-22.63 -21.95)"/><path d="M92,22.59c0,.48.09.93.09,1.37,0,5.25,0,10.5,0,15.75,0,1.07-.26,1.48-1.4,1.44-2.16-.08-4.33,0-6.49,0-.76,0-1.15-.17-1.15-1,0-5.54,0-11.08,0-16.62a6.05,6.05,0,0,1,.14-.89Z" transform="translate(-22.63 -21.95)"/><path class="a758ed49-0cee-4a24-a26b-5d05d2de8143" d="M70.88,29.93l-.72-4c2.34,1.43,1.91-1.13,2.93-1.84l1.4,2.47,1.34-.49c-.24,1.37-.46,2.64-.67,3.91l.36.22,2-1.85c.43,1.49,1.44.94,2.42.73l-.24,3,.4.11c-.68.59-1.35,1.2-2,1.78s-1.82,1.18-.9,2.65L73.47,36v3.79l-.35.16c-.16-.25-.45-.5-.47-.76,0-.7.06-1.41.1-2.11s-.17-1.27-1.15-1a24.12,24.12,0,0,1-2.62.44c.69-1.19.19-1.82-.64-2.42s-1.6-1.3-2.48-2c1.37-.93,0-1.95.22-3,.94.13,2.06.75,2.67-1.25l1.68,2.35Z" transform="translate(-22.63 -21.95)"/><rect id="b7e57931-e7e2-40c7-a045-fc4414fce380" data-name="Bar" class="b0f975b5-bac7-49e5-b889-77d1d25f95ea" x="174.13" y="32.8" width="6.17" height="86.3"/><rect class="a758ed49-0cee-4a24-a26b-5d05d2de8143" x="30.85" y="0.07" width="9.27" height="18.99"/><rect class="a758ed49-0cee-4a24-a26b-5d05d2de8143" x="60.01" y="0.07" width="9.27" height="18.99"/><path d="M114.38,27l1,.25a3.36,3.36,0,0,1-1.19,1.91,3.43,3.43,0,0,1-2.07.62,3.68,3.68,0,0,1-1.82-.42A3.17,3.17,0,0,1,109.08,28a4.73,4.73,0,0,1-.48-2.2,4.27,4.27,0,0,1,.48-2.11,3.2,3.2,0,0,1,1.32-1.31,3.88,3.88,0,0,1,1.84-.44,3.22,3.22,0,0,1,1.92.56,2.93,2.93,0,0,1,1.12,1.64l-1,.23a2,2,0,0,0-2.06-1.57,2.67,2.67,0,0,0-1.33.31,2.29,2.29,0,0,0-.9,1,3.73,3.73,0,0,0-.34,1.7,3.49,3.49,0,0,0,.68,2.34,2.27,2.27,0,0,0,1.81.78,2.23,2.23,0,0,0,1.43-.48A2.33,2.33,0,0,0,114.38,27Z" transform="translate(-22.63 -21.95)"/><path d="M115.93,26.91a2.83,2.83,0,0,1,.74-2.14,2.58,2.58,0,0,1,1.87-.73,2.61,2.61,0,0,1,1.87.73,2.76,2.76,0,0,1,.75,2.08,3,3,0,0,1-.74,2.21,2.79,2.79,0,0,1-3.75,0A2.86,2.86,0,0,1,115.93,26.91Zm1,0a2.25,2.25,0,0,0,.48,1.58,1.53,1.53,0,0,0,1.19.52,1.49,1.49,0,0,0,1.14-.52,2.28,2.28,0,0,0,.48-1.58,2.26,2.26,0,0,0-.48-1.58,1.55,1.55,0,0,0-1.19-.52,1.5,1.5,0,0,0-1.15.52A2.28,2.28,0,0,0,116.9,26.91Z" transform="translate(-22.63 -21.95)"/><path d="M122.28,29.65V24.17h.84v.76a2,2,0,0,1,.72-.65,2,2,0,0,1,1-.24,1.91,1.91,0,0,1,1,.25,1.32,1.32,0,0,1,.58.71,2.37,2.37,0,0,1,.77-.72,2,2,0,0,1,1-.24,1.78,1.78,0,0,1,1.27.44,1.89,1.89,0,0,1,.46,1.41v3.76h-.94V26.2a2.3,2.3,0,0,0-.11-.84.78.78,0,0,0-.34-.38,1.08,1.08,0,0,0-.54-.13,1.33,1.33,0,0,0-1,.39,1.67,1.67,0,0,0-.39,1.22v3.19h-.94V26.09a1.4,1.4,0,0,0-.26-1,.91.91,0,0,0-.72-.28,1.3,1.3,0,0,0-1,.42,2.36,2.36,0,0,0-.37,1.54v2.84Z" transform="translate(-22.63 -21.95)"/><path d="M131.24,29.65V24.17h.84v.76a1.9,1.9,0,0,1,.73-.65,2,2,0,0,1,1-.24,2,2,0,0,1,1,.25,1.3,1.3,0,0,1,.57.71,2.37,2.37,0,0,1,.77-.72,2,2,0,0,1,1-.24,1.78,1.78,0,0,1,1.27.44,1.89,1.89,0,0,1,.46,1.41v3.76h-.94V26.2a2.1,2.1,0,0,0-.11-.84.78.78,0,0,0-.34-.38,1.07,1.07,0,0,0-.53-.13,1.33,1.33,0,0,0-1,.39,1.67,1.67,0,0,0-.39,1.22v3.19h-.94V26.09a1.4,1.4,0,0,0-.26-1,.91.91,0,0,0-.71-.28,1.31,1.31,0,0,0-1,.42,2.36,2.36,0,0,0-.37,1.54v2.84Z" transform="translate(-22.63 -21.95)"/><path d="M143.84,29.65v-.8a2.2,2.2,0,0,1-2.89.64,1.45,1.45,0,0,1-.63-.72,3.9,3.9,0,0,1-.15-1.2v-3.4h.94v3a4.06,4.06,0,0,0,.1,1.14.91.91,0,0,0,.39.46,1.29,1.29,0,0,0,.65.17,1.48,1.48,0,0,0,1.12-.45,2.05,2.05,0,0,0,.37-1.42V24.17h.95v5.48Z" transform="translate(-22.63 -21.95)"/><path d="M146.18,29.65V24.17H147v.77a1.92,1.92,0,0,1,.75-.67,2.19,2.19,0,0,1,1-.23,2.27,2.27,0,0,1,.83.15,1.75,1.75,0,0,1,.61.37,1.37,1.37,0,0,1,.35.6,3.93,3.93,0,0,1,.11,1.12v3.37h-.94V26.31a2.17,2.17,0,0,0-.13-.88.84.84,0,0,0-.4-.43,1.28,1.28,0,0,0-.63-.15,1.46,1.46,0,0,0-1.08.4,2,2,0,0,0-.4,1.41v3Z" transform="translate(-22.63 -21.95)"/><path d="M152.16,23.15V22.08h.94v1.07Zm0,6.5V24.17h.94v5.48Z" transform="translate(-22.63 -21.95)"/><path d="M158.2,27.65l.93.11a2.31,2.31,0,0,1-.81,1.5,2.35,2.35,0,0,1-1.54.52,2.42,2.42,0,0,1-1.81-.73,3,3,0,0,1-.7-2.14,2.91,2.91,0,0,1,.71-2.15,2.48,2.48,0,0,1,1.83-.72,2.39,2.39,0,0,1,1.46.44,2,2,0,0,1,.76,1.3l-.91.14a1.53,1.53,0,0,0-.47-.84,1.23,1.23,0,0,0-.8-.27,1.52,1.52,0,0,0-1.16.5,2.31,2.31,0,0,0-.46,1.58,2.43,2.43,0,0,0,.44,1.62,1.41,1.41,0,0,0,1.13.5,1.34,1.34,0,0,0,.91-.33A1.62,1.62,0,0,0,158.2,27.65Z" transform="translate(-22.63 -21.95)"/><path d="M163.56,29a3.8,3.8,0,0,1-1,.6,2.93,2.93,0,0,1-1.06.2,2.1,2.1,0,0,1-1.39-.43,1.38,1.38,0,0,1-.52-1.14,1.53,1.53,0,0,1,.24-.84,1.78,1.78,0,0,1,.67-.57,4.17,4.17,0,0,1,1.28-.31,9.07,9.07,0,0,0,1.69-.32v-.24a1,1,0,0,0-.25-.79,1.55,1.55,0,0,0-1.08-.33,1.77,1.77,0,0,0-1,.22,1.33,1.33,0,0,0-.48.83l-.93-.13a2,2,0,0,1,.81-1.28A3.09,3.09,0,0,1,162.3,24a3,3,0,0,1,1.38.27,1.25,1.25,0,0,1,.63.66,4.07,4.07,0,0,1,.13,1.15v1.24A13.09,13.09,0,0,0,164.5,29a2.05,2.05,0,0,0,.24.65h-1A1.82,1.82,0,0,1,163.56,29Zm-.08-2.08a6.57,6.57,0,0,1-1.54.35,3.53,3.53,0,0,0-.83.19.85.85,0,0,0-.37.3.82.82,0,0,0,.17,1.08,1.36,1.36,0,0,0,.83.23,2,2,0,0,0,.92-.21,1.43,1.43,0,0,0,.62-.57,2,2,0,0,0,.2-1Z" transform="translate(-22.63 -21.95)"/><path d="M168,28.82l.13.82a3.12,3.12,0,0,1-.7.09,1.8,1.8,0,0,1-.8-.16.85.85,0,0,1-.41-.43,3.28,3.28,0,0,1-.11-1.09V24.89h-.7v-.72h.7V22.81l.94-.56v1.92H168v.72h-.95V28.1a1.29,1.29,0,0,0,.08.57.49.49,0,0,0,.46.19A2.41,2.41,0,0,0,168,28.82Z" transform="translate(-22.63 -21.95)"/><path d="M168.9,23.15V22.08h.94v1.07Zm0,6.5V24.17h.94v5.48Z" transform="translate(-22.63 -21.95)"/><path d="M170.93,26.91a2.86,2.86,0,0,1,.74-2.14,2.76,2.76,0,0,1,3.74,0,2.76,2.76,0,0,1,.75,2.08,3,3,0,0,1-.74,2.21,2.77,2.77,0,0,1-3.74,0A2.83,2.83,0,0,1,170.93,26.91Zm1,0a2.25,2.25,0,0,0,.48,1.58,1.55,1.55,0,0,0,1.19.52,1.5,1.5,0,0,0,1.15-.52,2.33,2.33,0,0,0,.47-1.58,2.26,2.26,0,0,0-.48-1.58,1.53,1.53,0,0,0-1.19-.52,1.5,1.5,0,0,0-1.15.52A2.33,2.33,0,0,0,171.9,26.91Z" transform="translate(-22.63 -21.95)"/><path d="M177.54,29.65V24.17h.85v.77a1.92,1.92,0,0,1,.75-.67,2.37,2.37,0,0,1,1.85-.08,1.66,1.66,0,0,1,.61.37,1.37,1.37,0,0,1,.35.6,3.86,3.86,0,0,1,.12,1.12v3.37h-.95V26.31a2.4,2.4,0,0,0-.12-.88.93.93,0,0,0-.4-.43,1.34,1.34,0,0,0-.64-.15,1.46,1.46,0,0,0-1.08.4,2,2,0,0,0-.4,1.41v3Z" transform="translate(-22.63 -21.95)"/><path d="M183.15,28l.95-.14a1.23,1.23,0,0,0,.45.86,1.58,1.58,0,0,0,1,.28,1.61,1.61,0,0,0,.95-.24.73.73,0,0,0,.34-.62.57.57,0,0,0-.29-.51,4,4,0,0,0-1-.31,8.4,8.4,0,0,1-1.47-.46,1.47,1.47,0,0,1-.58-.52,1.27,1.27,0,0,1-.21-.72,1.42,1.42,0,0,1,.56-1.15,2.46,2.46,0,0,1,1.55-.44,3.07,3.07,0,0,1,1.09.19,1.75,1.75,0,0,1,.72.48,1.79,1.79,0,0,1,.34.87l-.92.13c-.08-.6-.49-.9-1.21-.9a1.68,1.68,0,0,0-.91.2.57.57,0,0,0-.31.5.53.53,0,0,0,.29.48,5.76,5.76,0,0,0,1,.33,8.87,8.87,0,0,1,1.52.48,1.26,1.26,0,0,1,.53.49,1.33,1.33,0,0,1,.2.73,1.54,1.54,0,0,1-.62,1.27,2.64,2.64,0,0,1-1.69.49A2.07,2.07,0,0,1,183.15,28Z" transform="translate(-22.63 -21.95)"/><path d="M108.57,38.71l1-.09a2,2,0,0,0,.34,1,1.84,1.84,0,0,0,.77.56,2.87,2.87,0,0,0,1.12.21,2.38,2.38,0,0,0,1.4-.36,1.1,1.1,0,0,0,.49-.93,1,1,0,0,0-.18-.59,1.38,1.38,0,0,0-.54-.41,14.27,14.27,0,0,0-1.57-.45,6.25,6.25,0,0,1-1.53-.52,2.08,2.08,0,0,1-.71-.67,1.69,1.69,0,0,1-.25-.92,1.85,1.85,0,0,1,.72-1.51,3,3,0,0,1,2-.58,3.81,3.81,0,0,1,1.49.27,2.18,2.18,0,0,1,1.36,2l-1,.08a1.5,1.5,0,0,0-.54-1.1,2.07,2.07,0,0,0-1.3-.36,2.28,2.28,0,0,0-1.31.32.93.93,0,0,0-.45.81.85.85,0,0,0,.33.71,4.4,4.4,0,0,0,1.48.51,11.86,11.86,0,0,1,1.58.44,2.52,2.52,0,0,1,1.05.77,1.8,1.8,0,0,1,.36,1.13,2,2,0,0,1-.38,1.18,2.34,2.34,0,0,1-1,.82,4,4,0,0,1-1.55.28,3.34,3.34,0,0,1-2.24-.7A2.37,2.37,0,0,1,108.57,38.71Z" transform="translate(-22.63 -21.95)"/><path d="M119.61,39.38l1,.12a2.27,2.27,0,0,1-.86,1.32,2.62,2.62,0,0,1-1.56.45,2.52,2.52,0,0,1-1.89-.73,2.8,2.8,0,0,1-.73-2.09,3,3,0,0,1,.73-2.17,2.47,2.47,0,0,1,1.85-.75,2.37,2.37,0,0,1,1.78.73,2.92,2.92,0,0,1,.72,2.13v.25h-4.11A2.13,2.13,0,0,0,117,40a1.55,1.55,0,0,0,1.13.47A1.48,1.48,0,0,0,119.61,39.38Zm-3.06-1.51h3.07a1.85,1.85,0,0,0-.37-1.06,1.44,1.44,0,0,0-1.15-.52,1.49,1.49,0,0,0-1.06.43A1.67,1.67,0,0,0,116.55,37.87Z" transform="translate(-22.63 -21.95)"/><path d="M125.36,39.13l.91.12a2.25,2.25,0,0,1-.79,1.5,2.3,2.3,0,0,1-1.52.52,2.32,2.32,0,0,1-1.78-.73,3,3,0,0,1-.7-2.15,3,3,0,0,1,.7-2.15,2.46,2.46,0,0,1,1.81-.71,2.34,2.34,0,0,1,1.44.43,2,2,0,0,1,.75,1.31l-.9.13a1.5,1.5,0,0,0-.47-.83,1.19,1.19,0,0,0-.79-.28,1.51,1.51,0,0,0-1.14.5,2.34,2.34,0,0,0-.45,1.59,2.43,2.43,0,0,0,.44,1.62,1.36,1.36,0,0,0,1.1.51,1.33,1.33,0,0,0,.91-.34A1.67,1.67,0,0,0,125.36,39.13Z" transform="translate(-22.63 -21.95)"/><path d="M130.67,41.15v-.81a2.28,2.28,0,0,1-.76.7,2.13,2.13,0,0,1-1,.23,2,2,0,0,1-1.11-.29,1.43,1.43,0,0,1-.62-.72,3.9,3.9,0,0,1-.15-1.2V35.65H128V38.7a4.06,4.06,0,0,0,.1,1.14.91.91,0,0,0,.39.46,1.25,1.25,0,0,0,.64.17,1.45,1.45,0,0,0,1.1-.45,2.11,2.11,0,0,0,.37-1.42v-3h.93v5.5Z" transform="translate(-22.63 -21.95)"/><path d="M133,41.15v-5.5h.84v.84a2.19,2.19,0,0,1,.59-.77,1,1,0,0,1,.6-.19,1.85,1.85,0,0,1,1,.3l-.32.86a1.39,1.39,0,0,0-.68-.2.93.93,0,0,0-.89.65,3.77,3.77,0,0,0-.17,1.13v2.88Z" transform="translate(-22.63 -21.95)"/><path d="M136.5,34.63V33.56h.93v1.07Zm0,6.52v-5.5h.93v5.5Z" transform="translate(-22.63 -21.95)"/><path d="M140.93,40.31l.13.83a3.76,3.76,0,0,1-.7.08,1.61,1.61,0,0,1-.78-.16.81.81,0,0,1-.41-.43,3.59,3.59,0,0,1-.11-1.09V36.38h-.68v-.73h.68V34.29l.93-.56v1.92h.94v.73H140v3.21a1.29,1.29,0,0,0,.08.57.48.48,0,0,0,.45.19A2.41,2.41,0,0,0,140.93,40.31Z" transform="translate(-22.63 -21.95)"/><path d="M141.78,43.26l-.1-.87a2.27,2.27,0,0,0,.53.08,1,1,0,0,0,.49-.1.76.76,0,0,0,.32-.3s.15-.35.36-.91l-2.09-5.51h1l1.16,3.18c.14.4.27.82.39,1.27.11-.42.24-.84.38-1.25l1.18-3.2h.93l-2.08,5.59a10.26,10.26,0,0,1-.65,1.45,1.35,1.35,0,0,1-1.22.69A1.77,1.77,0,0,1,141.78,43.26Z" transform="translate(-22.63 -21.95)"/><path d="M150.22,41.15V33.56h5.49v.9h-4.49v2.32h4.21v.89h-4.21v2.58h4.67v.9Z" transform="translate(-22.63 -21.95)"/><path d="M156.79,39.5l.93-.14a1.24,1.24,0,0,0,.44.86,1.55,1.55,0,0,0,1,.29,1.57,1.57,0,0,0,.94-.25.74.74,0,0,0,.33-.62.57.57,0,0,0-.28-.51,4,4,0,0,0-1-.31,7.08,7.08,0,0,1-1.45-.47,1.38,1.38,0,0,1-.78-1.24,1.4,1.4,0,0,1,.55-1.14,2.36,2.36,0,0,1,1.53-.44,2.93,2.93,0,0,1,1.07.18,1.67,1.67,0,0,1,.72.49,2,2,0,0,1,.34.87l-.91.12q-.13-.9-1.2-.9a1.67,1.67,0,0,0-.9.2.59.59,0,0,0-.3.51.55.55,0,0,0,.29.48,5.32,5.32,0,0,0,1,.33,8.76,8.76,0,0,1,1.5.48,1.39,1.39,0,0,1,.53.49,1.41,1.41,0,0,1,.19.73,1.56,1.56,0,0,1-.61,1.27,2.59,2.59,0,0,1-1.67.49A2,2,0,0,1,156.79,39.5Z" transform="translate(-22.63 -21.95)"/><path d="M164.53,40.31l.12.83a3.57,3.57,0,0,1-.69.08,1.56,1.56,0,0,1-.78-.16.81.81,0,0,1-.41-.43,3.28,3.28,0,0,1-.11-1.09V36.38H162v-.73h.69V34.29l.93-.56v1.92h.94v.73h-.94v3.21a1.16,1.16,0,0,0,.08.57.48.48,0,0,0,.45.19A2.41,2.41,0,0,0,164.53,40.31Z" transform="translate(-22.63 -21.95)"/><path d="M169,40.47a3.37,3.37,0,0,1-1,.6,2.92,2.92,0,0,1-1.05.2,2.08,2.08,0,0,1-1.37-.42,1.41,1.41,0,0,1-.52-1.15,1.53,1.53,0,0,1,.24-.84,1.6,1.6,0,0,1,.66-.57,4.1,4.1,0,0,1,1.27-.31,7.93,7.93,0,0,0,1.66-.33v-.23a1,1,0,0,0-.25-.79,1.44,1.44,0,0,0-1.06-.34,1.73,1.73,0,0,0-1,.23,1.34,1.34,0,0,0-.47.82l-.92-.12a2,2,0,0,1,.8-1.29,3.76,3.76,0,0,1,3.06-.14,1.25,1.25,0,0,1,.63.66,4.24,4.24,0,0,1,.12,1.15v1.24a12.43,12.43,0,0,0,.07,1.65,2.17,2.17,0,0,0,.23.66h-1A1.94,1.94,0,0,1,169,40.47Zm-.08-2.08a6.48,6.48,0,0,1-1.52.35,3.55,3.55,0,0,0-.82.19.8.8,0,0,0-.49.75.76.76,0,0,0,.29.63,1.33,1.33,0,0,0,.82.23,1.94,1.94,0,0,0,.91-.21,1.41,1.41,0,0,0,.61-.57,2,2,0,0,0,.2-1Z" transform="translate(-22.63 -21.95)"/><path d="M172.16,41.15h-.86V33.56h.93v2.71a2,2,0,0,1,.67-.56,1.92,1.92,0,0,1,.84-.18,2.23,2.23,0,0,1,1.17.31,2.17,2.17,0,0,1,.85,1,3.53,3.53,0,0,1,.31,1.56,3,3,0,0,1-.71,2.15,2.23,2.23,0,0,1-1.67.76,1.92,1.92,0,0,1-.87-.2,2,2,0,0,1-.66-.61Zm0-2.79a3.25,3.25,0,0,0,.19,1.28,1.32,1.32,0,0,0,.54.64,1.39,1.39,0,0,0,.77.23,1.33,1.33,0,0,0,1-.53,3.09,3.09,0,0,0,0-3.18,1.31,1.31,0,0,0-2.09,0A2.34,2.34,0,0,0,172.15,38.36Z" transform="translate(-22.63 -21.95)"/><path d="M177.18,41.15V33.56h.93v7.59Z" transform="translate(-22.63 -21.95)"/><path d="M179.57,34.63V33.56h.93v1.07Zm0,6.52v-5.5h.93v5.5Z" transform="translate(-22.63 -21.95)"/><path d="M181.57,39.5l.92-.14a1.29,1.29,0,0,0,.45.86,1.55,1.55,0,0,0,1,.29,1.57,1.57,0,0,0,.94-.25.74.74,0,0,0,.33-.62.57.57,0,0,0-.28-.51,4,4,0,0,0-1-.31,7.48,7.48,0,0,1-1.46-.47,1.32,1.32,0,0,1-.56-.51,1.3,1.3,0,0,1-.21-.73,1.4,1.4,0,0,1,.55-1.14,2.36,2.36,0,0,1,1.53-.44,2.93,2.93,0,0,1,1.07.18,1.58,1.58,0,0,1,.71.49,1.84,1.84,0,0,1,.35.87l-.91.12q-.14-.9-1.2-.9a1.67,1.67,0,0,0-.9.2.59.59,0,0,0-.3.51.55.55,0,0,0,.29.48,5.32,5.32,0,0,0,1,.33,8.76,8.76,0,0,1,1.5.48,1.39,1.39,0,0,1,.53.49,1.41,1.41,0,0,1,.18.73,1.54,1.54,0,0,1-.61,1.27,2.55,2.55,0,0,1-1.66.49A2,2,0,0,1,181.57,39.5Z" transform="translate(-22.63 -21.95)"/><path d="M187.23,41.15V33.56h.93v2.72a2.16,2.16,0,0,1,1.66-.75,2,2,0,0,1,1.39.46,2.19,2.19,0,0,1,.5,1.68v3.48h-.92V37.67a1.46,1.46,0,0,0-.31-1,1.15,1.15,0,0,0-.86-.31,1.43,1.43,0,0,0-1,.4,1.9,1.9,0,0,0-.43,1.41v3Z" transform="translate(-22.63 -21.95)"/><path d="M193.14,41.15v-5.5H194v.77a1.8,1.8,0,0,1,.71-.66,2.05,2.05,0,0,1,.95-.23,1.85,1.85,0,0,1,1,.24,1.33,1.33,0,0,1,.57.72,2.35,2.35,0,0,1,.76-.72,1.92,1.92,0,0,1,1-.24,1.69,1.69,0,0,1,1.25.44,1.85,1.85,0,0,1,.46,1.41v3.77h-.93V37.68a2.28,2.28,0,0,0-.11-.83.76.76,0,0,0-.34-.39,1.11,1.11,0,0,0-.52-.13,1.31,1.31,0,0,0-1,.39,1.72,1.72,0,0,0-.38,1.23v3.2h-.93V37.57a1.43,1.43,0,0,0-.26-1,.88.88,0,0,0-.7-.28,1.28,1.28,0,0,0-1,.42,2.44,2.44,0,0,0-.37,1.54v2.86Z" transform="translate(-22.63 -21.95)"/><path d="M205.74,39.38l1,.12a2.28,2.28,0,0,1-.87,1.32,2.62,2.62,0,0,1-1.56.45,2.52,2.52,0,0,1-1.89-.73,2.84,2.84,0,0,1-.72-2.09,3,3,0,0,1,.73-2.17,2.45,2.45,0,0,1,1.84-.75,2.39,2.39,0,0,1,1.79.73,3,3,0,0,1,.71,2.13v.25h-4.1a2.08,2.08,0,0,0,.52,1.4,1.55,1.55,0,0,0,1.14.47A1.49,1.49,0,0,0,205.74,39.38Zm-3.07-1.51h3.07a1.78,1.78,0,0,0-.37-1.06,1.43,1.43,0,0,0-1.14-.52,1.5,1.5,0,0,0-1.07.43A1.67,1.67,0,0,0,202.67,37.87Z" transform="translate(-22.63 -21.95)"/><path d="M207.88,41.15v-5.5h.84v.78a2,2,0,0,1,.74-.68,2.18,2.18,0,0,1,1-.22,2.43,2.43,0,0,1,.82.14,1.75,1.75,0,0,1,.6.37,1.47,1.47,0,0,1,.34.6,3.93,3.93,0,0,1,.12,1.13v3.38h-.93V37.8a2.14,2.14,0,0,0-.13-.88.88.88,0,0,0-.39-.44,1.26,1.26,0,0,0-.62-.15,1.42,1.42,0,0,0-1.07.41,2,2,0,0,0-.4,1.4v3Z" transform="translate(-22.63 -21.95)"/><path d="M215.86,40.31l.12.83a3.75,3.75,0,0,1-.69.08,1.63,1.63,0,0,1-.79-.16.8.8,0,0,1-.4-.43,3.2,3.2,0,0,1-.12-1.09V36.38h-.68v-.73H214V34.29l.93-.56v1.92h1v.73h-1v3.21a1.12,1.12,0,0,0,.09.57.48.48,0,0,0,.44.19A2.43,2.43,0,0,0,215.86,40.31Z" transform="translate(-22.63 -21.95)"/><path d="M238.48,27.19l1,.25a3.36,3.36,0,0,1-1.18,1.91,3.3,3.3,0,0,1-2,.63,3.64,3.64,0,0,1-1.81-.42,3.16,3.16,0,0,1-1.23-1.36,4.73,4.73,0,0,1-.48-2.2,4.32,4.32,0,0,1,.48-2.12,3.16,3.16,0,0,1,1.3-1.31,3.7,3.7,0,0,1,1.83-.45,3.22,3.22,0,0,1,1.89.56,3,3,0,0,1,1.11,1.65l-1,.23a2,2,0,0,0-2-1.58,2.63,2.63,0,0,0-1.32.32,2.16,2.16,0,0,0-.89,1A3.75,3.75,0,0,0,233.8,26a3.55,3.55,0,0,0,.67,2.34,2.25,2.25,0,0,0,1.79.78,2.2,2.2,0,0,0,1.42-.48A2.37,2.37,0,0,0,238.48,27.19Z" transform="translate(-22.63 -21.95)"/><path d="M244.39,28.08l1,.12a2.27,2.27,0,0,1-.88,1.33,2.62,2.62,0,0,1-1.56.45,2.56,2.56,0,0,1-1.89-.73,2.84,2.84,0,0,1-.73-2.1A3,3,0,0,1,241,25a2.52,2.52,0,0,1,1.86-.74,2.38,2.38,0,0,1,1.78.73,2.92,2.92,0,0,1,.72,2.13v.25h-4.12a2.13,2.13,0,0,0,.53,1.4,1.55,1.55,0,0,0,1.14.47A1.48,1.48,0,0,0,244.39,28.08Zm-3.07-1.51h3.08A1.91,1.91,0,0,0,244,25.5a1.47,1.47,0,0,0-1.15-.51,1.46,1.46,0,0,0-1.07.43A1.65,1.65,0,0,0,241.32,26.57Z" transform="translate(-22.63 -21.95)"/><path d="M246.54,29.85v-5.5h.84v.78a1.94,1.94,0,0,1,.75-.68,2.42,2.42,0,0,1,1.82-.08,1.58,1.58,0,0,1,.61.37,1.47,1.47,0,0,1,.35.6,4.37,4.37,0,0,1,.11,1.13v3.38h-.93V26.5a2.22,2.22,0,0,0-.13-.89.9.9,0,0,0-.39-.43,1.28,1.28,0,0,0-.63-.15,1.44,1.44,0,0,0-1.07.41,2,2,0,0,0-.4,1.4v3Z" transform="translate(-22.63 -21.95)"/><path d="M254.54,29l.12.82a3.07,3.07,0,0,1-.7.08,1.75,1.75,0,0,1-.78-.15.83.83,0,0,1-.41-.44,3.54,3.54,0,0,1-.11-1.09V25.08H252v-.73h.68V23l.93-.56v1.92h.95v.73h-.95v3.21a1.38,1.38,0,0,0,.08.58.5.5,0,0,0,.45.18Z" transform="translate(-22.63 -21.95)"/><path d="M255.42,29.85v-5.5h.84v.83a2.4,2.4,0,0,1,.59-.77,1.07,1.07,0,0,1,.61-.18,1.79,1.79,0,0,1,1,.3l-.32.86a1.36,1.36,0,0,0-.67-.2,1,1,0,0,0-.55.17.92.92,0,0,0-.35.48,3.77,3.77,0,0,0-.17,1.13v2.88Z" transform="translate(-22.63 -21.95)"/><path d="M262.72,28.08l1,.12a2.3,2.3,0,0,1-.87,1.33,2.62,2.62,0,0,1-1.56.45,2.57,2.57,0,0,1-1.9-.73,2.88,2.88,0,0,1-.73-2.1,3,3,0,0,1,.73-2.18,2.52,2.52,0,0,1,1.86-.74A2.37,2.37,0,0,1,263,25a2.92,2.92,0,0,1,.72,2.13v.25H259.6a2.08,2.08,0,0,0,.52,1.4,1.55,1.55,0,0,0,1.14.47A1.48,1.48,0,0,0,262.72,28.08Zm-3.07-1.51h3.08a1.91,1.91,0,0,0-.37-1.07,1.55,1.55,0,0,0-2.22-.08A1.65,1.65,0,0,0,259.65,26.57Z" transform="translate(-22.63 -21.95)"/><path d="M271.4,29.85v-.69a1.73,1.73,0,0,1-.65.61,1.79,1.79,0,0,1-.86.21,2.27,2.27,0,0,1-1.69-.76,3,3,0,0,1-.71-2.12,3.67,3.67,0,0,1,.31-1.59,2.32,2.32,0,0,1,.85-1,2.23,2.23,0,0,1,1.17-.31,1.9,1.9,0,0,1,.86.19,1.85,1.85,0,0,1,.65.56V22.26h.95v7.59Zm-2.95-2.74a2.35,2.35,0,0,0,.45,1.58,1.33,1.33,0,0,0,2.09,0,2.22,2.22,0,0,0,.43-1.5,2.67,2.67,0,0,0-.43-1.69,1.38,1.38,0,0,0-1.11-.53,1.27,1.27,0,0,0-1,.51A2.52,2.52,0,0,0,268.45,27.11Z" transform="translate(-22.63 -21.95)"/><path d="M277.52,28.08l1,.12a2.3,2.3,0,0,1-.87,1.33,2.62,2.62,0,0,1-1.56.45,2.59,2.59,0,0,1-1.9-.73,2.88,2.88,0,0,1-.73-2.1,3,3,0,0,1,.74-2.18,2.49,2.49,0,0,1,1.85-.74,2.37,2.37,0,0,1,1.78.73,2.92,2.92,0,0,1,.72,2.13v.25h-4.11a2.08,2.08,0,0,0,.52,1.4,1.57,1.57,0,0,0,1.14.47A1.5,1.5,0,0,0,277.52,28.08Zm-3.08-1.51h3.08a1.84,1.84,0,0,0-.37-1.07,1.55,1.55,0,0,0-2.22-.08A1.7,1.7,0,0,0,274.44,26.57Z" transform="translate(-22.63 -21.95)"/><path d="M282.59,29.85V22.26h.93v7.59Z" transform="translate(-22.63 -21.95)"/><path d="M288.58,29.17a3.41,3.41,0,0,1-1,.6,2.73,2.73,0,0,1-1.05.21,2.13,2.13,0,0,1-1.38-.43,1.4,1.4,0,0,1-.51-1.14,1.53,1.53,0,0,1,.24-.85,1.6,1.6,0,0,1,.66-.57,4.1,4.1,0,0,1,1.27-.31,7.91,7.91,0,0,0,1.67-.33v-.23a1.09,1.09,0,0,0-.25-.8,1.51,1.51,0,0,0-1.07-.33,1.82,1.82,0,0,0-1,.22,1.4,1.4,0,0,0-.47.83l-.92-.12a2,2,0,0,1,.79-1.29,3.06,3.06,0,0,1,1.72-.4,2.86,2.86,0,0,1,1.36.26,1.19,1.19,0,0,1,.62.66,3.82,3.82,0,0,1,.13,1.15v1.25a13,13,0,0,0,.06,1.64,2,2,0,0,0,.24.66h-1A1.88,1.88,0,0,1,288.58,29.17Zm-.08-2.08a6.46,6.46,0,0,1-1.53.35,3.69,3.69,0,0,0-.82.19.8.8,0,0,0-.49.75A.76.76,0,0,0,286,29a1.3,1.3,0,0,0,.83.24,2,2,0,0,0,.91-.22,1.51,1.51,0,0,0,.61-.56,2.23,2.23,0,0,0,.2-1Z" transform="translate(-22.63 -21.95)"/><path d="M293.5,28.2l.93-.14a1.23,1.23,0,0,0,.45.87,1.6,1.6,0,0,0,1,.28,1.52,1.52,0,0,0,.94-.25.74.74,0,0,0,.33-.62.57.57,0,0,0-.28-.51,4,4,0,0,0-.95-.31,7.24,7.24,0,0,1-1.46-.47,1.35,1.35,0,0,1-.77-1.24,1.38,1.38,0,0,1,.55-1.14,2.31,2.31,0,0,1,1.52-.44,3,3,0,0,1,1.08.18,1.75,1.75,0,0,1,.72.48,2.05,2.05,0,0,1,.34.88l-.91.12q-.13-.9-1.2-.9a1.68,1.68,0,0,0-.91.2.58.58,0,0,0-.29.51.54.54,0,0,0,.28.48,5.54,5.54,0,0,0,1,.33,8.76,8.76,0,0,1,1.5.48,1.39,1.39,0,0,1,.53.49,1.41,1.41,0,0,1,.19.73,1.58,1.58,0,0,1-.61,1.28,2.65,2.65,0,0,1-1.67.49A2,2,0,0,1,293.5,28.2Z" transform="translate(-22.63 -21.95)"/><path d="M303,28.08l1,.12a2.3,2.3,0,0,1-.87,1.33,2.88,2.88,0,0,1-3.46-.28,2.88,2.88,0,0,1-.72-2.1,3,3,0,0,1,.73-2.18,2.5,2.5,0,0,1,1.85-.74,2.41,2.41,0,0,1,1.79.73,3,3,0,0,1,.71,2.13v.25h-4.12a2.08,2.08,0,0,0,.53,1.4,1.55,1.55,0,0,0,1.14.47A1.49,1.49,0,0,0,303,28.08Zm-3.07-1.51H303a1.91,1.91,0,0,0-.38-1.07,1.46,1.46,0,0,0-1.15-.51,1.49,1.49,0,0,0-1.07.43A1.69,1.69,0,0,0,299.88,26.57Zm.85-2.9.69-1.45h1.22l-1.14,1.45Z" transform="translate(-22.63 -21.95)"/><path d="M308.71,27.84l.92.12a2.39,2.39,0,0,1-.8,1.5,2.52,2.52,0,0,1-3.31-.21,3,3,0,0,1-.7-2.15,3,3,0,0,1,.7-2.16,2.43,2.43,0,0,1,1.82-.71,2.34,2.34,0,0,1,1.44.43,2,2,0,0,1,.75,1.31l-.91.13a1.43,1.43,0,0,0-.46-.83,1.16,1.16,0,0,0-.79-.28,1.48,1.48,0,0,0-1.14.5,2.29,2.29,0,0,0-.46,1.59,2.48,2.48,0,0,0,.44,1.63,1.42,1.42,0,0,0,1.11.5,1.3,1.3,0,0,0,.91-.34A1.64,1.64,0,0,0,308.71,27.84Z" transform="translate(-22.63 -21.95)"/><path d="M314,29.85V29a2.18,2.18,0,0,1-.76.7,2,2,0,0,1-1,.24,2.1,2.1,0,0,1-1.12-.29,1.43,1.43,0,0,1-.61-.73,3.51,3.51,0,0,1-.16-1.2V24.35h.93v3a3.9,3.9,0,0,0,.11,1.14.94.94,0,0,0,.38.46,1.26,1.26,0,0,0,.65.17,1.47,1.47,0,0,0,1.1-.45,2.11,2.11,0,0,0,.36-1.42V24.35h.94v5.5Z" transform="translate(-22.63 -21.95)"/><path d="M316.33,29.85v-5.5h.85v.83a2.4,2.4,0,0,1,.59-.77,1.06,1.06,0,0,1,.6-.18,1.83,1.83,0,0,1,1,.3l-.32.86a1.39,1.39,0,0,0-.68-.2,1,1,0,0,0-.54.17.92.92,0,0,0-.35.48,3.48,3.48,0,0,0-.18,1.13v2.88Z" transform="translate(-22.63 -21.95)"/><path d="M319.87,23.33V22.26h.94v1.07Zm0,6.52v-5.5h.94v5.5Z" transform="translate(-22.63 -21.95)"/><path d="M324.31,29l.13.82a3.07,3.07,0,0,1-.7.08,1.75,1.75,0,0,1-.78-.15.83.83,0,0,1-.41-.44,3.54,3.54,0,0,1-.11-1.09V25.08h-.69v-.73h.69V23l.93-.56v1.92h.94v.73h-.94v3.21a1.38,1.38,0,0,0,.08.58.5.5,0,0,0,.45.18Z" transform="translate(-22.63 -21.95)"/><path d="M329,28.08l1,.12a2.27,2.27,0,0,1-.88,1.33,2.62,2.62,0,0,1-1.56.45,2.56,2.56,0,0,1-1.89-.73,2.84,2.84,0,0,1-.73-2.1A3,3,0,0,1,325.6,25a2.52,2.52,0,0,1,1.86-.74,2.38,2.38,0,0,1,1.78.73,2.92,2.92,0,0,1,.72,2.13v.25h-4.12a2.13,2.13,0,0,0,.53,1.4,1.55,1.55,0,0,0,1.14.47A1.48,1.48,0,0,0,329,28.08Zm-3.07-1.51H329a1.91,1.91,0,0,0-.37-1.07,1.47,1.47,0,0,0-1.15-.51,1.46,1.46,0,0,0-1.07.43A1.65,1.65,0,0,0,325.89,26.57Zm.86-2.9.69-1.45h1.22l-1.14,1.45Z" transform="translate(-22.63 -21.95)"/><path d="M236.59,41.28v-.75a1.84,1.84,0,0,1-.67.66,1.77,1.77,0,0,1-.87.23,2.26,2.26,0,0,1-1.72-.82,3.41,3.41,0,0,1-.72-2.32,4.27,4.27,0,0,1,.32-1.73,2.4,2.4,0,0,1,.86-1,2.15,2.15,0,0,1,1.19-.35,1.76,1.76,0,0,1,.87.22,1.86,1.86,0,0,1,.67.61V33h1v8.27Zm-3-3A2.75,2.75,0,0,0,234,40a1.38,1.38,0,0,0,1.07.56,1.31,1.31,0,0,0,1-.54,2.53,2.53,0,0,0,.45-1.64,3,3,0,0,0-.45-1.83A1.34,1.34,0,0,0,235,36a1.27,1.27,0,0,0-1,.55A2.92,2.92,0,0,0,233.58,38.29Z" transform="translate(-22.63 -21.95)"/><path d="M242.8,39.35l1,.13a2.38,2.38,0,0,1-2.47,1.94,2.5,2.5,0,0,1-1.93-.8,3.23,3.23,0,0,1-.74-2.29,3.41,3.41,0,0,1,.74-2.36,2.44,2.44,0,0,1,1.89-.82,2.35,2.35,0,0,1,1.81.8,3.33,3.33,0,0,1,.73,2.32v.27h-4.18a2.43,2.43,0,0,0,.53,1.53,1.54,1.54,0,0,0,2.65-.72Zm-3.12-1.64h3.12a2,2,0,0,0-.38-1.16,1.41,1.41,0,0,0-1.16-.56,1.47,1.47,0,0,0-1.09.46A1.89,1.89,0,0,0,239.68,37.71Z" transform="translate(-22.63 -21.95)"/><path d="M244.61,39.49l.95-.16a1.4,1.4,0,0,0,.45.94,1.49,1.49,0,0,0,1,.31,1.5,1.5,0,0,0,1-.27.83.83,0,0,0,.33-.68.62.62,0,0,0-.29-.55,4,4,0,0,0-1-.34,7.53,7.53,0,0,1-1.48-.51,1.51,1.51,0,0,1-.79-1.35,1.58,1.58,0,0,1,.56-1.25,2.32,2.32,0,0,1,1.55-.48,2.84,2.84,0,0,1,1.1.2,1.71,1.71,0,0,1,.73.53,2.15,2.15,0,0,1,.34.95l-.92.14a1.06,1.06,0,0,0-1.22-1,1.62,1.62,0,0,0-.92.21.67.67,0,0,0-.3.56.58.58,0,0,0,.29.52,6.22,6.22,0,0,0,1,.36,8.89,8.89,0,0,1,1.53.52,1.35,1.35,0,0,1,.53.53,1.61,1.61,0,0,1,.2.8,1.77,1.77,0,0,1-.62,1.4,2.56,2.56,0,0,1-1.7.53A2.12,2.12,0,0,1,244.61,39.49Z" transform="translate(-22.63 -21.95)"/><path d="M255.5,40.37l.13.9a3.21,3.21,0,0,1-.71.09,1.62,1.62,0,0,1-.79-.17.91.91,0,0,1-.42-.47,4.27,4.27,0,0,1-.11-1.19V36.08h-.7v-.79h.7V33.8l.94-.61v2.1h1v.79h-1v3.5a1.36,1.36,0,0,0,.09.63.49.49,0,0,0,.45.2A2.43,2.43,0,0,0,255.5,40.37Z" transform="translate(-22.63 -21.95)"/><path d="M260.23,39.35l1,.13a2.38,2.38,0,0,1-2.48,1.94,2.5,2.5,0,0,1-1.92-.8,3.23,3.23,0,0,1-.74-2.29,3.41,3.41,0,0,1,.74-2.36,2.44,2.44,0,0,1,1.89-.82,2.35,2.35,0,0,1,1.81.8,3.33,3.33,0,0,1,.73,2.32v.27h-4.18a2.37,2.37,0,0,0,.53,1.53,1.54,1.54,0,0,0,2.65-.72Zm-3.12-1.64h3.12a2,2,0,0,0-.38-1.16,1.41,1.41,0,0,0-1.16-.56,1.45,1.45,0,0,0-1.09.46A1.89,1.89,0,0,0,257.11,37.71Zm.86-3.17.71-1.58h1.24l-1.16,1.58Z" transform="translate(-22.63 -21.95)"/><path d="M262.38,41.28V33h.94v8.27Z" transform="translate(-22.63 -21.95)"/><path d="M268.64,39.35l1,.13a2.38,2.38,0,0,1-2.47,1.94,2.5,2.5,0,0,1-1.93-.8,3.23,3.23,0,0,1-.74-2.29,3.41,3.41,0,0,1,.74-2.36,2.44,2.44,0,0,1,1.89-.82,2.35,2.35,0,0,1,1.81.8,3.33,3.33,0,0,1,.73,2.32v.27h-4.18a2.43,2.43,0,0,0,.53,1.53,1.54,1.54,0,0,0,2.65-.72Zm-3.12-1.64h3.12a2,2,0,0,0-.38-1.16A1.41,1.41,0,0,0,267.1,36a1.47,1.47,0,0,0-1.09.46A1.89,1.89,0,0,0,265.52,37.71Zm.87-3.17.7-1.58h1.24l-1.16,1.58Z" transform="translate(-22.63 -21.95)"/><path d="M274.49,39.09l.93.13a2.5,2.5,0,0,1-.81,1.63,2.25,2.25,0,0,1-1.55.57,2.32,2.32,0,0,1-1.81-.8,3.36,3.36,0,0,1-.71-2.34,3.42,3.42,0,0,1,.71-2.35,2.41,2.41,0,0,1,1.85-.78,2.13,2.13,0,0,1,2.23,1.9l-.92.14a1.68,1.68,0,0,0-.47-.9,1.2,1.2,0,0,0-.81-.3,1.46,1.46,0,0,0-1.16.54,2.63,2.63,0,0,0-.46,1.73A2.84,2.84,0,0,0,272,40a1.37,1.37,0,0,0,1.13.55,1.28,1.28,0,0,0,.92-.36A1.83,1.83,0,0,0,274.49,39.09Z" transform="translate(-22.63 -21.95)"/><path d="M275.87,38.28a3.29,3.29,0,0,1,.74-2.34,2.5,2.5,0,0,1,1.88-.79,2.53,2.53,0,0,1,1.88.79,3.2,3.2,0,0,1,.75,2.28,3.44,3.44,0,0,1-.74,2.41,2.5,2.5,0,0,1-1.89.79,2.46,2.46,0,0,1-1.87-.8A3.26,3.26,0,0,1,275.87,38.28Zm1,0a2.61,2.61,0,0,0,.48,1.73,1.51,1.51,0,0,0,1.2.57,1.47,1.47,0,0,0,1.15-.57,2.65,2.65,0,0,0,.48-1.73,2.59,2.59,0,0,0-.49-1.73,1.52,1.52,0,0,0-1.19-.56,1.47,1.47,0,0,0-1.16.57A2.67,2.67,0,0,0,276.84,38.28Z" transform="translate(-22.63 -21.95)"/><path d="M282.25,41.28v-6h.84v.83a2.09,2.09,0,0,1,.73-.72,2,2,0,0,1,1-.25,1.78,1.78,0,0,1,1,.27,1.41,1.41,0,0,1,.58.78,2.53,2.53,0,0,1,.77-.79,1.9,1.9,0,0,1,1-.26,1.68,1.68,0,0,1,1.27.48,2.15,2.15,0,0,1,.47,1.54v4.11h-1V37.5a2.73,2.73,0,0,0-.11-.91.83.83,0,0,0-.34-.42,1.09,1.09,0,0,0-.54-.14,1.3,1.3,0,0,0-1,.42,2,2,0,0,0-.39,1.34v3.49h-.95v-3.9a1.6,1.6,0,0,0-.26-1.05.89.89,0,0,0-.72-.3,1.24,1.24,0,0,0-1,.46,2.72,2.72,0,0,0-.38,1.68v3.11Z" transform="translate(-22.63 -21.95)"/><path d="M291.25,41.28v-6h.85v.83a2.07,2.07,0,0,1,.72-.72,2,2,0,0,1,1-.25,1.76,1.76,0,0,1,1,.27,1.43,1.43,0,0,1,.59.78,2.43,2.43,0,0,1,.77-.79,1.87,1.87,0,0,1,1-.26,1.67,1.67,0,0,1,1.27.48,2.1,2.1,0,0,1,.47,1.54v4.11h-1V37.5a2.79,2.79,0,0,0-.1-.91.85.85,0,0,0-.35-.42,1.09,1.09,0,0,0-.54-.14,1.3,1.3,0,0,0-1,.42,2,2,0,0,0-.39,1.34v3.49h-.94v-3.9a1.66,1.66,0,0,0-.26-1.05.92.92,0,0,0-.72-.3,1.26,1.26,0,0,0-1,.46,2.73,2.73,0,0,0-.37,1.68v3.11Z" transform="translate(-22.63 -21.95)"/><path d="M303.92,41.28V40.4a2.26,2.26,0,0,1-.78.76A2.11,2.11,0,0,1,301,41.1a1.42,1.42,0,0,1-.63-.79,4.2,4.2,0,0,1-.16-1.31V35.29h.95v3.32a4.75,4.75,0,0,0,.1,1.24.9.9,0,0,0,.4.5,1.11,1.11,0,0,0,.65.19,1.43,1.43,0,0,0,1.12-.49,2.39,2.39,0,0,0,.37-1.55V35.29h.95v6Z" transform="translate(-22.63 -21.95)"/><path d="M306.26,41.28v-6h.85v.84a2.14,2.14,0,0,1,2.61-.82,1.66,1.66,0,0,1,.62.4,1.6,1.6,0,0,1,.35.66,4.56,4.56,0,0,1,.12,1.23v3.68h-.95V37.63a2.52,2.52,0,0,0-.13-1,1,1,0,0,0-.4-.48,1.18,1.18,0,0,0-.63-.16,1.42,1.42,0,0,0-1.09.44A2.28,2.28,0,0,0,307.2,38v3.28Z" transform="translate(-22.63 -21.95)"/><path d="M312.27,34.17V33h.94v1.16Zm0,7.11v-6h.94v6Z" transform="translate(-22.63 -21.95)"/><path d="M318.34,39.09l.93.13a2.59,2.59,0,0,1-.81,1.63,2.27,2.27,0,0,1-1.55.57,2.32,2.32,0,0,1-1.81-.8,3.36,3.36,0,0,1-.71-2.34,3.42,3.42,0,0,1,.71-2.35,2.41,2.41,0,0,1,1.85-.78,2.25,2.25,0,0,1,1.46.48,2.19,2.19,0,0,1,.76,1.42l-.92.14a1.62,1.62,0,0,0-.47-.9,1.15,1.15,0,0,0-.8-.3,1.46,1.46,0,0,0-1.16.54,2.63,2.63,0,0,0-.46,1.73A2.77,2.77,0,0,0,315.8,40a1.37,1.37,0,0,0,1.13.55,1.28,1.28,0,0,0,.92-.36A1.83,1.83,0,0,0,318.34,39.09Z" transform="translate(-22.63 -21.95)"/><path d="M323.72,40.54a3.43,3.43,0,0,1-1,.66,2.79,2.79,0,0,1-1.06.22,2,2,0,0,1-1.4-.47,1.55,1.55,0,0,1-.52-1.24,1.73,1.73,0,0,1,.24-.92,1.76,1.76,0,0,1,.67-.63,3.83,3.83,0,0,1,1.29-.33,7.9,7.9,0,0,0,1.7-.36v-.26a1.16,1.16,0,0,0-.25-.86,1.45,1.45,0,0,0-1.08-.36,1.69,1.69,0,0,0-1,.24,1.53,1.53,0,0,0-.48.9l-.93-.13a2.18,2.18,0,0,1,.81-1.41,2.94,2.94,0,0,1,1.74-.44,2.8,2.8,0,0,1,1.38.29,1.27,1.27,0,0,1,.63.72,4.46,4.46,0,0,1,.14,1.26v1.35a15.31,15.31,0,0,0,.06,1.79,2.35,2.35,0,0,0,.24.72h-1A2.22,2.22,0,0,1,323.72,40.54Zm-.07-2.27a7,7,0,0,1-1.55.39,3.66,3.66,0,0,0-.84.2.91.91,0,0,0-.37.33.88.88,0,0,0-.13.49.85.85,0,0,0,.3.68,1.21,1.21,0,0,0,.84.26,1.9,1.9,0,0,0,.92-.23,1.48,1.48,0,0,0,.62-.62,2.4,2.4,0,0,0,.21-1.12Z" transform="translate(-22.63 -21.95)"/><path d="M328.2,40.37l.13.9a3.21,3.21,0,0,1-.71.09,1.67,1.67,0,0,1-.8-.17.89.89,0,0,1-.41-.47,3.81,3.81,0,0,1-.12-1.19V36.08h-.69v-.79h.69V33.8l.95-.61v2.1h1v.79h-1v3.5a1.58,1.58,0,0,0,.08.63.51.51,0,0,0,.46.2A2.43,2.43,0,0,0,328.2,40.37Z" transform="translate(-22.63 -21.95)"/><path d="M329.09,34.17V33h1v1.16Zm0,7.11v-6h1v6Z" transform="translate(-22.63 -21.95)"/><path d="M331.13,38.28a3.29,3.29,0,0,1,.75-2.34,2.62,2.62,0,0,1,3.75,0,3.2,3.2,0,0,1,.75,2.28,3.39,3.39,0,0,1-.74,2.41,2.62,2.62,0,0,1-3.76,0A3.26,3.26,0,0,1,331.13,38.28Zm1,0a2.61,2.61,0,0,0,.49,1.73,1.51,1.51,0,0,0,1.2.57,1.45,1.45,0,0,0,1.14-.57,2.65,2.65,0,0,0,.48-1.73,2.65,2.65,0,0,0-.48-1.73,1.53,1.53,0,0,0-1.2-.56,1.45,1.45,0,0,0-1.15.57A2.61,2.61,0,0,0,332.1,38.28Z" transform="translate(-22.63 -21.95)"/><path d="M337.5,41.28v-6h.86v.84a2,2,0,0,1,.76-.73,2,2,0,0,1,1-.25,2,2,0,0,1,.83.16,1.75,1.75,0,0,1,.62.4,1.6,1.6,0,0,1,.35.66,4.65,4.65,0,0,1,.11,1.23v3.68h-.94V37.63a2.52,2.52,0,0,0-.13-1,1,1,0,0,0-.4-.48,1.22,1.22,0,0,0-.64-.16,1.41,1.41,0,0,0-1.08.44,2.28,2.28,0,0,0-.41,1.53v3.28Z" transform="translate(-22.63 -21.95)"/><path d="M343.15,39.49l1-.16a1.36,1.36,0,0,0,.45.94,1.77,1.77,0,0,0,1.94,0,.82.82,0,0,0,.34-.68.64.64,0,0,0-.29-.55,4,4,0,0,0-1-.34,7.29,7.29,0,0,1-1.48-.51,1.42,1.42,0,0,1-.58-.56,1.48,1.48,0,0,1-.21-.79,1.58,1.58,0,0,1,.56-1.25,2.3,2.3,0,0,1,1.55-.48,2.88,2.88,0,0,1,1.1.2,1.68,1.68,0,0,1,.72.53,2,2,0,0,1,.35.95l-.93.14a1.05,1.05,0,0,0-1.21-1,1.62,1.62,0,0,0-.92.21.68.68,0,0,0-.31.56.6.6,0,0,0,.29.52,6.49,6.49,0,0,0,1,.36,8.67,8.67,0,0,1,1.52.52,1.45,1.45,0,0,1,.54.53,1.6,1.6,0,0,1,.19.8,1.74,1.74,0,0,1-.62,1.4,2.53,2.53,0,0,1-1.69.53A2.11,2.11,0,0,1,343.15,39.49Z" transform="translate(-22.63 -21.95)"/></svg>