<svg id="b2897adf-63bd-42f0-9cf6-cfc92b329005" data-name="Layer 1" xmlns="http://www.w3.org/2000/svg" viewBox="0 0 600 101.19"><defs><style>.a786af12-3c72-48a5-bb19-bb79817d8f8a,.e0eb7e72-f435-40c7-8dfe-6c9910d8293d{fill:#0080ff;}.e0eb7e72-f435-40c7-8dfe-6c9910d8293d{fill-rule:evenodd;}</style></defs><title>digital-ocean</title><path class="a786af12-3c72-48a5-bb19-bb79817d8f8a" d="M52.1,102.1V82.5c20.8,0,36.8-20.6,28.9-42.4A29.4,29.4,0,0,0,63.5,22.6c-21.8-7.9-42.4,8.1-42.4,28.9H1.5c0-33.1,32-58.9,66.7-48.1a48.68,48.68,0,0,1,31.9,31.9C110.9,70.1,85.2,102.1,52.1,102.1Z" transform="translate(-1.5 -0.91)"/><polygon class="e0eb7e72-f435-40c7-8dfe-6c9910d8293d" points="50.6 81.59 31.1 81.59 31.1 62.09 31.1 62.09 50.6 62.09 50.6 62.09 50.6 81.59"/><polygon class="e0eb7e72-f435-40c7-8dfe-6c9910d8293d" points="31.1 96.59 16.1 96.59 16.1 96.59 16.1 81.59 31.1 81.59 31.1 96.59"/><polygon class="e0eb7e72-f435-40c7-8dfe-6c9910d8293d" points="16.1 81.59 3.5 81.59 3.5 81.59 3.5 69.09 3.5 69.09 16.1 69.09 16.1 69.09 16.1 81.59"/><path class="a786af12-3c72-48a5-bb19-bb79817d8f8a" d="M181.5,30.2c-5.8-4-13-6.1-21.4-6.1H141.8V82.2h18.3c8.4,0,15.6-2.1,21.4-6.4a21.5,21.5,0,0,0,7.4-9.3,34.16,34.16,0,0,0,2.6-13.7,34,34,0,0,0-2.6-13.6A20.63,20.63,0,0,0,181.5,30.2Zm-29,3.8h5.8c6.4,0,11.7,1.3,15.7,3.7,4.4,2.7,6.7,7.8,6.7,15.1,0,7.6-2.3,12.9-6.7,15.8h0c-3.8,2.5-9.1,3.8-15.6,3.8h-5.8V34Z" transform="translate(-1.5 -0.91)"/><path class="a786af12-3c72-48a5-bb19-bb79817d8f8a" d="M204.3,23.4a6.32,6.32,0,0,0-6.4,6.2,5.83,5.83,0,0,0,1.9,4.5,6.19,6.19,0,0,0,4.5,1.9,5.83,5.83,0,0,0,4.5-1.9,6.36,6.36,0,0,0,1.9-4.5,5.48,5.48,0,0,0-1.9-4.4A6.27,6.27,0,0,0,204.3,23.4Z" transform="translate(-1.5 -0.91)"/><rect class="a786af12-3c72-48a5-bb19-bb79817d8f8a" x="197.5" y="40.39" width="10.3" height="41"/><path class="a786af12-3c72-48a5-bb19-bb79817d8f8a" d="M246.8,44.7a15.39,15.39,0,0,0-10.3-4.4,18.92,18.92,0,0,0-14.1,5.8c-3.7,3.8-5.5,8.8-5.5,14.7a20.81,20.81,0,0,0,5.5,14.7,18.92,18.92,0,0,0,14.1,5.8A16,16,0,0,0,246.7,78v1c0,3.4-.9,6-2.7,7.9a10.05,10.05,0,0,1-7.4,2.7c-4.8,0-7.7-1.9-11.4-6.8l-7,6.7.2.3a25.09,25.09,0,0,0,6.9,6.2,20.71,20.71,0,0,0,11.5,3c6.1,0,11.1-1.9,14.7-5.6s5.5-8.7,5.5-14.9V41.3H246.9v3.4Zm-2.7,24.2a9,9,0,0,1-7.1,3,8.65,8.65,0,0,1-7-3,11.57,11.57,0,0,1-2.7-8,11.83,11.83,0,0,1,2.7-8.1,9,9,0,0,1,7-3.1,8.77,8.77,0,0,1,7.1,3.1,11.83,11.83,0,0,1,2.7,8.1A12.07,12.07,0,0,1,244.1,68.9Z" transform="translate(-1.5 -0.91)"/><rect class="a786af12-3c72-48a5-bb19-bb79817d8f8a" x="264.2" y="40.39" width="10.3" height="41"/><path class="a786af12-3c72-48a5-bb19-bb79817d8f8a" d="M271,23.4a6.32,6.32,0,0,0-6.4,6.2,5.83,5.83,0,0,0,1.9,4.5A6.19,6.19,0,0,0,271,36a5.83,5.83,0,0,0,4.5-1.9,6.36,6.36,0,0,0,1.9-4.5,5.48,5.48,0,0,0-1.9-4.4A6.27,6.27,0,0,0,271,23.4Z" transform="translate(-1.5 -0.91)"/><path class="a786af12-3c72-48a5-bb19-bb79817d8f8a" d="M298.6,30.3H288.5V41.4h-5.9v9.4h5.9v17c0,5.3,1.1,9.1,3.2,11.3s5.8,3.3,11.1,3.3c1.7,0,3.4-.1,5-.2h.5V72.8l-3.5.2c-2.5,0-4.1-.4-4.9-1.3s-1.2-2.7-1.2-5.4V50.7h9.6V41.3h-9.6v-11Z" transform="translate(-1.5 -0.91)"/><rect class="a786af12-3c72-48a5-bb19-bb79817d8f8a" x="355" y="23.19" width="10.3" height="58.1"/><path class="a786af12-3c72-48a5-bb19-bb79817d8f8a" d="M470.9,67.6a24.45,24.45,0,0,1-5.2,4.8h0a9.71,9.71,0,0,1-5.3,1.4,9.48,9.48,0,0,1-7.5-3.4,12.78,12.78,0,0,1-3-8.7,12.78,12.78,0,0,1,2.9-8.6,9.29,9.29,0,0,1,7.4-3.4c3.3,0,6.8,2.1,9.8,5.6l6.8-6.5h0a20.22,20.22,0,0,0-16.9-8.5,20,20,0,0,0-14.6,6.1,20.88,20.88,0,0,0-6,15.3,21,21,0,0,0,6,15.3,19.64,19.64,0,0,0,14.6,6.1A20.21,20.21,0,0,0,477.4,74Z" transform="translate(-1.5 -0.91)"/><path class="a786af12-3c72-48a5-bb19-bb79817d8f8a" d="M513.2,47a16.69,16.69,0,0,0-5.9-4.9,19.3,19.3,0,0,0-8.5-1.8,17.35,17.35,0,0,0-14,6.3A23.69,23.69,0,0,0,479.6,62q0,9.3,5.7,15.3c3.7,3.9,8.8,5.9,14.9,5.9a20.26,20.26,0,0,0,16.9-8.4l.2-.3L510.6,68h0a25.51,25.51,0,0,1-2.3,2.4,11.48,11.48,0,0,1-3,2.2,11,11,0,0,1-5.2,1.1,9.69,9.69,0,0,1-7-2.5,8.89,8.89,0,0,1-2.9-6.2h27.3l.1-3.8a26.84,26.84,0,0,0-1.1-7.6A22.69,22.69,0,0,0,513.2,47Zm-22.5,9.7a10.23,10.23,0,0,1,2.7-4.9,7.31,7.31,0,0,1,5.4-2.1,7.4,7.4,0,0,1,5.7,2.1,8.12,8.12,0,0,1,2.1,4.8H490.7Z" transform="translate(-1.5 -0.91)"/><path class="a786af12-3c72-48a5-bb19-bb79817d8f8a" d="M552.8,44.4h0c-3.1-2.7-7.4-4-12.8-4a21.74,21.74,0,0,0-9.5,2.2,17,17,0,0,0-7,6.6l.1.1,6.6,6.3c2.7-4.3,5.7-5.8,9.7-5.8a8.21,8.21,0,0,1,5.3,1.7,5.27,5.27,0,0,1,2,4.4v2a25.61,25.61,0,0,0-7.6-1.2c-5.1,0-9.3,1.2-12.4,3.6a12.31,12.31,0,0,0-4.7,10.2,11.69,11.69,0,0,0,4,9.3,15.23,15.23,0,0,0,9.9,3.4,17.25,17.25,0,0,0,10.9-4.3v3.4h10.1V55.9C557.6,51,556,47.1,552.8,44.4ZM534.5,66.6a8.66,8.66,0,0,1,4.9-1.2,22.42,22.42,0,0,1,7.8,1.5v4C545,73,542,74,538.3,74a6.08,6.08,0,0,1-4.1-1.2,3.75,3.75,0,0,1-1.4-3A3.85,3.85,0,0,1,534.5,66.6Z" transform="translate(-1.5 -0.91)"/><path class="a786af12-3c72-48a5-bb19-bb79817d8f8a" d="M597.2,45.2q-4.35-4.8-12-4.8a14.07,14.07,0,0,0-9.9,3.5V41.4H565.2v41h10.3V59.7c0-3.1.7-5.6,2.2-7.3a7.28,7.28,0,0,1,6.1-2.6,6.8,6.8,0,0,1,5.4,2.3,9.8,9.8,0,0,1,2,6.4V82.2h10.3V58.5C601.5,52.9,600.1,48.4,597.2,45.2Z" transform="translate(-1.5 -0.91)"/><path class="a786af12-3c72-48a5-bb19-bb79817d8f8a" d="M343.6,44.4h0c-3.1-2.7-7.4-4-12.8-4a21.74,21.74,0,0,0-9.5,2.2,17,17,0,0,0-7,6.6l.1.1,6.6,6.3c2.7-4.3,5.7-5.8,9.7-5.8a8.21,8.21,0,0,1,5.3,1.7,5.27,5.27,0,0,1,2,4.4v2a25.61,25.61,0,0,0-7.6-1.2c-5.1,0-9.3,1.2-12.4,3.6a12.31,12.31,0,0,0-4.7,10.2,11.69,11.69,0,0,0,4,9.3,15.23,15.23,0,0,0,9.9,3.4,17.25,17.25,0,0,0,10.9-4.3v3.4h10.1V55.9C348.3,51,346.7,47.1,343.6,44.4ZM325.3,66.6a8.66,8.66,0,0,1,4.9-1.2,22.42,22.42,0,0,1,7.8,1.5v4c-2.2,2.1-5.2,3.1-8.9,3.1a6.08,6.08,0,0,1-4.1-1.2,3.75,3.75,0,0,1-1.4-3A3.62,3.62,0,0,1,325.3,66.6Z" transform="translate(-1.5 -0.91)"/><path class="a786af12-3c72-48a5-bb19-bb79817d8f8a" d="M404.2,83.1a30,30,0,1,1,30-30A30,30,0,0,1,404.2,83.1Zm0-49.3a19.4,19.4,0,1,0,19.4,19.4A19.42,19.42,0,0,0,404.2,33.8Z" transform="translate(-1.5 -0.91)"/></svg>