<svg id="ac28df93-c339-483d-8971-c4e8df832f58" data-name="e8f8e63c-95cb-40db-a0d9-1d7f057093b9" xmlns="http://www.w3.org/2000/svg" viewBox="0 0 998 998"><title>ea-dark</title><path d="M499,0C223.85,0,0,223.85,0,499S223.85,998,499,998,998,774.17,998,499,774.16,0,499,0Zm0,933.39C259.49,933.39,64.63,738.53,64.63,499S259.49,64.63,499,64.63,933.38,259.49,933.38,499,738.52,933.39,499,933.39ZM668.54,353.46h3.94V334.39h7.1V331H661.46v3.37h7.08v19.09Zm17.32-17.34h.07l6.22,17.34h3.21l6.22-17.34h.09v17.34h3.7V331h-5.44l-6,17.55h-.1L687.65,331h-5.52v22.44h3.73ZM572.53,331H327l-37.25,59.86H535Zm50.17.57-150.08,239H306.16l38.41-59.91h99.77l38.11-59.88H251.79l-38.1,59.88h54.64L192.52,630.24H508.91l116.86-184.3,42.61,64.68H630l-36.39,59.91H707.35l39.5,59.71h72.58Z" fill="#fff" fill-rule="evenodd"/></svg>