<svg id="e8f8e63c-95cb-40db-a0d9-1d7f057093b9" data-name="Layer 1" xmlns="http://www.w3.org/2000/svg" viewBox="0 0 998.01 998.03"><title>ea</title><path d="M500,1C224.85,1,1,224.85,1,500S224.85,999,500,999,999,775.17,999,500,775.16,1,500,1Zm0,933.39C260.49,934.39,65.63,739.53,65.63,500S260.49,65.63,500,65.63,934.38,260.49,934.38,500,739.52,934.39,500,934.39ZM669.54,354.46h3.94V335.39h7.1V332H662.46v3.37h7.08v19.07Zm17.32-17.34h.07l6.22,17.34h3.21l6.22-17.34h.09v17.34h3.7V332h-5.44l-6,17.55h-.1L688.65,332h-5.52v22.44h3.73ZM573.53,332H328l-37.25,59.86H536Zm50.17.57-150.08,239H307.16l38.41-59.91h99.77l38.11-59.88H252.79l-38.1,59.88h54.64L193.52,631.24H509.91l116.86-184.3,42.61,64.68H631l-36.39,59.91H708.35l39.5,59.71h72.58Z" transform="translate(-1 -1)" fill-rule="evenodd"/></svg>