<svg id="a43a860e-3b40-4350-8414-e7b71a03c3bb" data-name="f72b3b51-8da9-4071-a7a6-24e5e75f9fc2" xmlns="http://www.w3.org/2000/svg" viewBox="0 0 363.52 172.58"><title>fdm-group-dark</title><path d="M25.3,93.14H75.77V70.92H0V172.54H25.3V136.67H68.89v-22H25.3ZM81.86,70.92V172.54h41c31.83,0,54.85-20.92,54.85-51.11,0-29.74-23-50.51-54.85-50.51Zm25.26,78.9V93.63h15.69c16.44,0,29.14,12.11,29.14,27.8,0,16.14-12.7,28.39-29.14,28.39Zm185.4-78.9H273.69l-36,54.25L201.51,70.92H182.83V172.54h25.25l-.15-51.26,22.72,35.12v.15h14v-.15l22.6-34.82v51h25.25Z" transform="translate(0 0)" fill="#fff"/><path d="M305.52.27l21.55,29.66a.67.67,0,0,0,.73.24l34.87-11.33a.66.66,0,0,1,.74,1L341.86,49.51a.65.65,0,0,0,0,.77l21.55,29.66a.67.67,0,0,1-.18.92.65.65,0,0,1-.56.08L327.8,69.62a.65.65,0,0,0-.73.24L305.52,99.52a.66.66,0,0,1-1.22-.38V62.47a.65.65,0,0,0-.45-.62L269,50.52a.65.65,0,0,1-.42-.82v0a.69.69,0,0,1,.41-.41l34.87-11.33a.65.65,0,0,0,.45-.62V.65A.67.67,0,0,1,305,0a.71.71,0,0,1,.52.27" transform="translate(0 0)" fill="#fff"/></svg>