<?xml version="1.0" encoding="utf-8"?>
<!-- Generator: Adobe Illustrator 23.1.1, SVG Export Plug-In . SVG Version: 6.00 Build 0)  -->
<svg version="1.1" id="Layer_1" xmlns="http://www.w3.org/2000/svg" xmlns:xlink="http://www.w3.org/1999/xlink" x="0px" y="0px"
	 viewBox="0 0 313 60.7" style="enable-background:new 0 0 313 60.7;" xml:space="preserve">
<style type="text/css">
	.fl0{fill:#88B04B;}
	.fl1{fill:#404F5E;}
</style>
<title>Group 3</title>
<desc>Created with Sketch.</desc>
<g id="_x30_6" transform="translate(-401.000000, -346.000000)">
	<g id="Group-3" transform="translate(401.000000, 346.000000)">
		<g id="Page-1" transform="translate(31.000000, 25.000000)">
			<path id="Fill-3" class="fl0" d="M16.8-0.8v0.1c0,0.6-0.9,14.2-17.9,20.3l0,0v-8.4l0,0l10.2-11C10-0.8,10-2.3,9-3.3
				C8-4.2,6.4-4.2,5.5-3.2l-6.6,7.1l0,0v-7.3c0,0,0,0,0-0.1c0.8-1.8,4.7-9.1,14.4-9.1c0.1,0,0.2,0,0.3,0C17.4-7.9,16.8-0.9,16.8-0.8
				z M-6,4.1L-6,4.1L-12.6-3c-0.9-1-2.5-1.1-3.5-0.1c-1,0.9-1.1,2.5-0.1,3.5l10.2,11l0,0v8.4l0,0C-23,13.5-23.9-0.1-23.9-0.7v-0.1
				c0-0.1-0.6-7.1,3.2-11.6c0.1,0,0.2,0,0.3,0c9.7,0,13.6,7.3,14.4,9.2l0,0V4.1z M16.5-16.6c-0.4-0.4-1-0.7-1.6-0.7
				C5.6-17.9-0.4-13.2-3.6-8.8c-3.2-4.4-9.2-9-18.5-8.5c-0.6,0-1.2,0.3-1.6,0.7c-6,5.9-5.3,15.3-5.2,16.2c0,0.7,0.4,5.3,3.5,10.5
				c2.9,5.1,8.9,11.8,21,15.2c0.1,0,0.1,0,0.2,0.1l0,0h0.1c0.1,0,0.1,0,0.2,0s0.2,0,0.3,0c0.1,0,0.2,0,0.3,0h0.2c0.1,0,0.1,0,0.2,0
				s0.1,0,0.2-0.1C19.6,19,21.6,1.3,21.7-0.3C21.7-0.9,22.6-10.5,16.5-16.6z"/>
			<path id="Fill-8" class="fl1" d="M62.6-15.3c0.4,0,0.7,0.1,1,0.4s0.4,0.6,0.4,1v3.8c0,0.4-0.1,0.7-0.4,1s-0.6,0.4-1,0.4H45.4V2.2
				h16.1c0.4,0,0.7,0.1,1,0.4s0.4,0.6,0.4,1v3.8c0,0.4-0.1,0.7-0.4,1s-0.6,0.4-1,0.4H45.4v12.4c0,0.4-0.1,0.7-0.4,1s-0.6,0.4-1,0.4
				h-4.4c-0.4,0-0.7-0.1-1-0.4c-0.3-0.3-0.4-0.6-0.4-1v-35.1c0-0.4,0.1-0.7,0.4-1c0.3-0.3,0.6-0.4,1-0.4H62.6z"/>
			<path id="Fill-10" class="fl1" d="M69-3.7c0-0.4,0.1-0.7,0.4-1s0.6-0.4,1-0.4h4.1c0.4,0,0.7,0.1,1,0.4c0.3,0.3,0.4,0.6,0.4,1V9.9
				c0,2.1,0.5,3.8,1.4,5.1s2.4,1.9,4.5,1.9c1.9,0,3.3-0.6,4.4-1.9c1-1.3,1.5-3,1.5-5.1V-3.7c0-0.4,0.1-0.7,0.4-1s0.6-0.4,1-0.4h4.1
				c0.4,0,0.7,0.1,1,0.4c0.3,0.3,0.4,0.6,0.4,1v24.9c0,0.4-0.1,0.7-0.4,1s-0.6,0.4-1,0.4h-4.1c-0.4,0-0.7-0.1-1-0.4
				c-0.3-0.3-0.4-0.6-0.4-1V20c-0.8,0.8-1.8,1.6-3.1,2.2c-1.2,0.7-2.7,1-4.4,1c-2.2,0-4-0.3-5.4-1s-2.6-1.6-3.4-2.7
				c-0.9-1.1-1.5-2.5-1.8-4c-0.4-1.5-0.5-3.1-0.5-4.8L69-3.7L69-3.7z"/>
			<path id="Fill-12" class="fl1" d="M107.5,21.2c0,0.4-0.1,0.7-0.4,1c-0.3,0.3-0.6,0.4-1,0.4H102c-0.4,0-0.7-0.1-1-0.4
				c-0.3-0.3-0.4-0.6-0.4-1v-35.1c0-0.4,0.1-0.7,0.4-1c0.3-0.3,0.6-0.4,1-0.4h4.1c0.4,0,0.7,0.1,1,0.4s0.4,0.6,0.4,1V21.2z"/>
			<path id="Fill-14" class="fl1" d="M120.4,21.2c0,0.4-0.1,0.7-0.4,1c-0.3,0.3-0.6,0.4-1,0.4h-4.1c-0.4,0-0.7-0.1-1-0.4
				c-0.3-0.3-0.4-0.6-0.4-1v-35.1c0-0.4,0.1-0.7,0.4-1c0.3-0.3,0.6-0.4,1-0.4h4.1c0.4,0,0.7,0.1,1,0.4s0.4,0.6,0.4,1V21.2z"/>
			<path id="Fill-16" class="fl1" d="M158.6,6.9c-0.1,0.5-0.1,1.2-0.1,1.9c0,0.7,0,1.3,0.1,1.9c0.1,1.1,0.4,2,0.8,2.8
				c0.4,0.8,0.9,1.4,1.5,1.9s1.2,0.8,2,1.1c0.7,0.2,1.5,0.3,2.2,0.3c0.9,0,1.6-0.1,2.3-0.2c0.6-0.1,1.1-0.3,1.6-0.6
				c0.4-0.3,0.8-0.6,1.1-0.9c0.3-0.3,0.6-0.7,0.9-1.1c0.2-0.3,0.5-0.6,0.8-1c0.3-0.3,0.6-0.5,1-0.5h4.1c0.4,0,0.7,0.1,1,0.4
				s0.4,0.6,0.4,1c0,0.7-0.3,1.7-0.8,2.7c-0.5,1.1-1.3,2.1-2.3,3.1c-1.1,1-2.4,1.8-4.1,2.5c-1.6,0.7-3.6,1-5.9,1c-2,0-3.7-0.3-5.3-1
				s-2.9-1.6-4.1-2.7c-1.2-1.1-2.1-2.4-2.7-3.9c-0.7-1.5-1.1-3-1.2-4.7c-0.1-0.6-0.1-1.4-0.1-2.1c0-0.8,0-1.5,0.1-2.2
				c0.1-1.6,0.5-3.2,1.2-4.7c0.7-1.5,1.6-2.8,2.7-3.9c1.1-1.1,2.5-2,4.1-2.7s3.4-1,5.3-1c2.3,0,4.3,0.3,5.9,1c1.6,0.7,3,1.5,4.1,2.5
				s1.8,2,2.3,3.1c0.5,1.1,0.8,2,0.8,2.7c0,0.4-0.1,0.7-0.4,1c-0.3,0.3-0.7,0.4-1,0.4h-4.1c-0.4,0-0.7-0.2-1-0.5s-0.5-0.6-0.8-1
				s-0.6-0.8-0.9-1.1c-0.3-0.3-0.7-0.6-1.1-0.9c-0.4-0.3-0.9-0.5-1.6-0.6c-0.6-0.1-1.4-0.2-2.3-0.2c-0.8,0-1.5,0.1-2.2,0.3
				c-0.7,0.2-1.4,0.6-2,1.1s-1.1,1.1-1.5,1.9C158.9,4.8,158.7,5.7,158.6,6.9"/>
			<path id="Fill-18" class="fl1" d="M195.5,1.2c-2.1,0-3.7,0.5-4.6,1.4c-0.9,0.9-1.4,2.5-1.4,4.6v14c0,0.4-0.1,0.7-0.4,1
				c-0.3,0.3-0.6,0.4-1,0.4H184c-0.4,0-0.7-0.1-1-0.4c-0.3-0.3-0.4-0.6-0.4-1V-3.7c0-0.4,0.1-0.7,0.4-1c0.3-0.3,0.6-0.4,1-0.4h4.1
				c0.4,0,0.7,0.1,1,0.4c0.3,0.3,0.4,0.6,0.4,1v1.2c0.9-0.9,1.9-1.5,3-2s2.4-0.7,4.2-0.7h0.4c0.4,0,0.7,0.1,1,0.4
				c0.3,0.3,0.4,0.6,0.4,1v3.5c0,0.4-0.1,0.7-0.4,1c-0.3,0.3-0.6,0.4-1,0.4h-1.6L195.5,1.2L195.5,1.2z"/>
			<path id="Fill-20" class="fl1" d="M210.3,21.2c0,0.4-0.1,0.7-0.4,1c-0.3,0.3-0.6,0.4-1,0.4h-4.1c-0.4,0-0.7-0.1-1-0.4
				c-0.3-0.3-0.4-0.6-0.4-1V-3.7c0-0.4,0.1-0.7,0.4-1c0.3-0.3,0.6-0.4,1-0.4h4.1c0.4,0,0.7,0.1,1,0.4c0.3,0.3,0.4,0.6,0.4,1V21.2z
				 M209.1-15.3c0.4,0,0.7,0.1,1,0.4s0.4,0.6,0.4,1v4.2c0,0.4-0.1,0.7-0.4,1c-0.3,0.3-0.6,0.4-1,0.4h-4.6c-0.4,0-0.7-0.1-1-0.4
				c-0.3-0.3-0.4-0.6-0.4-1v-4.2c0-0.4,0.1-0.7,0.4-1c0.3-0.3,0.6-0.4,1-0.4H209.1z"/>
			<path id="Fill-22" class="fl1" d="M236.3,10.2c0.1-1,0.1-2,0-3c-0.2-2.3-0.9-4-2.1-5s-2.7-1.5-4.5-1.5s-3.2,0.5-4.4,1.6
				c-1.2,1-1.9,2.5-2.1,4.4c-0.1,0.5-0.1,1.2-0.1,2s0,1.5,0.1,2c0.2,1.9,0.9,3.3,2.1,4.4c1.2,1.1,2.7,1.6,4.4,1.6
				c1.8,0,3.2-0.5,4.5-1.5C235.4,14.2,236.1,12.5,236.3,10.2 M231.3,23.2c-1.1,0-2.1-0.1-3-0.3s-1.6-0.5-2.3-0.8s-1.2-0.7-1.7-1
				c-0.5-0.4-0.8-0.7-1.1-1v11.4c0,0.4-0.1,0.7-0.4,1c-0.3,0.3-0.6,0.4-1,0.4h-4.1c-0.4,0-0.7-0.1-1-0.4c-0.3-0.3-0.4-0.6-0.4-1
				V-3.7c0-0.4,0.1-0.7,0.4-1c0.3-0.3,0.6-0.4,1-0.4h4.1c0.4,0,0.7,0.1,1,0.4c0.3,0.3,0.4,0.6,0.4,1v1.2c0.3-0.3,0.7-0.7,1.1-1
				c0.5-0.4,1-0.7,1.7-1s1.4-0.6,2.3-0.8s1.9-0.3,3-0.3c1.8,0,3.4,0.3,4.9,1s2.7,1.6,3.7,2.8s1.8,2.5,2.4,4s0.9,3.1,1,4.7
				c0,0.5,0.1,1.2,0.1,1.9s0,1.3-0.1,1.9c-0.1,1.6-0.4,3.2-1,4.7s-1.4,2.9-2.4,4c-1,1.2-2.3,2.1-3.7,2.8
				C234.7,22.8,233.1,23.2,231.3,23.2"/>
			<path id="Fill-24" class="fl1" d="M248.1-5.3v-8.6c0-0.4,0.1-0.7,0.4-1c0.3-0.3,0.6-0.4,1-0.4h4.1c0.4,0,0.7,0.1,1,0.4
				s0.4,0.6,0.4,1v8.7h6.9c0.4,0,0.7,0.1,1,0.4c0.3,0.3,0.4,0.6,0.4,1v3.5c0,0.4-0.1,0.7-0.4,1s-0.6,0.4-1,0.4H255v11.3
				c0,1.1,0.3,2,0.9,2.6c0.6,0.7,1.7,1,3.3,1h3.3c0.4,0,0.7,0.1,1,0.4c0.3,0.3,0.4,0.6,0.4,1v3.8c0,0.4-0.1,0.7-0.4,1
				s-0.6,0.4-1,0.4h-4c-3.4,0-6-0.8-7.8-2.4c-1.8-1.6-2.7-4.1-2.7-7.5v-18H248.1z"/>
			<path id="Fill-26" class="fl1" d="M273.4-5c0.1,0,0.1,0,0.2,0.1s0.1,0.1,0.1,0.2v0.3c0,0.1,0,0.1-0.1,0.2c0,0-0.1,0.1-0.2,0.1
				h-1.6v4.8c0,0.1,0,0.1-0.1,0.2c0,0-0.1,0.1-0.2,0.1h-0.3c-0.1,0-0.1,0-0.2-0.1c0,0-0.1-0.1-0.1-0.2v-4.8h-1.6
				c-0.1,0-0.1,0-0.2-0.1c0,0-0.1-0.1-0.1-0.2v-0.4c0-0.1,0-0.1,0.1-0.2s0.1-0.1,0.2-0.1h4.1L273.4-5L273.4-5z"/>
			<path id="Fill-28" class="fl1" d="M277.1-1.5l1.7-3.3c0-0.1,0.1-0.1,0.1-0.2c0.1-0.1,0.1-0.1,0.2-0.1h0.3c0.1,0,0.1,0,0.2,0.1
				c0,0,0.1,0.1,0.1,0.2v5.4c0,0.1,0,0.1-0.1,0.2c0,0-0.1,0.1-0.2,0.1h-0.3c-0.1,0-0.1,0-0.2-0.1c0,0-0.1-0.1-0.1-0.2v-3.9l-1.3,2.5
				c0,0.1-0.1,0.1-0.1,0.2c-0.1,0-0.1,0.1-0.2,0.1h-0.3c-0.1,0-0.2,0-0.2-0.1c-0.1,0-0.1-0.1-0.1-0.2l-1.3-2.5v3.9
				c0,0.1,0,0.1-0.1,0.2c0,0-0.1,0.1-0.2,0.1h-0.3c-0.1,0-0.1,0-0.2-0.1c0,0-0.1-0.1-0.1-0.2v-5.4c0-0.1,0-0.1,0.1-0.2
				c0,0,0.1-0.1,0.2-0.1h0.3c0.1,0,0.2,0,0.2,0.1c0.1,0.1,0.1,0.1,0.1,0.2L277.1-1.5z"/>
			<path id="Fill-31" class="fl1" d="M141.3,14.7c0-0.4-0.1-0.7-0.4-1c-0.3-0.2-0.7-0.5-1.3-0.7s-1.5-0.4-2.5-0.6s-2.4-0.5-4-0.9
				s-2.9-0.8-3.9-1.3s-1.9-1.2-2.5-1.9c-0.6-0.7-1.1-1.5-1.3-2.4C125.1,5,125,4,125,2.9s0.3-2.1,0.8-3.2c0.5-1,1.2-2,2.2-2.8
				s2.1-1.5,3.5-2s2.9-0.8,4.7-0.8s3.3,0.2,4.7,0.6c1.4,0.4,2.6,0.9,3.5,1.6c1,0.6,1.7,1.4,2.3,2.2c0.5,0.8,0.8,1.7,0.9,2.5
				c0,0.4-0.1,0.7-0.4,1c-0.3,0.3-0.7,0.4-1.1,0.4h-4.2c-0.5,0-0.9-0.1-1.2-0.3c-0.3-0.2-0.6-0.4-0.9-0.7c-0.3-0.2-0.8-0.5-1.3-0.7
				s-1.3-0.3-2.4-0.3c-1.1,0-2,0.2-2.9,0.5c-0.8,0.3-1.2,0.9-1.2,1.7c0,0.4,0.1,0.7,0.3,1s0.6,0.5,1.1,0.7c0.6,0.2,1.3,0.4,2.3,0.7
				c1,0.2,2.3,0.5,3.9,0.8c3.2,0.7,5.5,1.7,6.8,3.2c1.3,1.4,2,3.2,2,5.4c0,1.1-0.3,2.1-0.8,3.1s-1.3,1.9-2.3,2.7s-2.3,1.4-3.8,1.9
				s-3.2,0.7-5,0.7c-1.9,0-3.6-0.2-5-0.7c-1.5-0.4-2.7-1-3.7-1.7s-1.8-1.5-2.3-2.4s-0.8-1.8-0.9-2.6c0-0.4,0.1-0.7,0.4-1
				c0.3-0.3,0.7-0.4,1.1-0.4h4.2c0.5,0,0.9,0.1,1.2,0.4s0.6,0.5,0.9,0.9c0.3,0.3,0.8,0.6,1.4,0.9c0.6,0.3,1.5,0.4,2.7,0.4
				c0.5,0,1.1,0,1.7-0.1c0.6-0.1,1.1-0.2,1.6-0.3c0.5-0.2,0.9-0.4,1.2-0.6C141.2,15.4,141.3,15.1,141.3,14.7"/>
		</g>
	</g>
</g>
</svg>
