<svg id="e5e5b0df-2eb3-4fc5-a5db-a67118c48b3c" data-name="Layer 1" xmlns="http://www.w3.org/2000/svg" viewBox="0 0 307.66 49.95"><title>fullscript-dark</title><g id="b35aeb86-9608-4c95-a096-1cc912932124" data-name="06"><g id="a0f23662-12ce-4dc9-8171-d220b09edb17" data-name="Page-1"><g id="ba1ed292-edc9-4fc1-a5e2-e93947e9e0b2" data-name="Group-32"><path id="bfa6bf33-4e6e-445f-ad6c-6f55552deb6f" data-name="Fill-4" d="M45.91,16.86V17c0,.6-.9,14.1-17.8,20.3h0v-8.4h0L38.31,18a2.38,2.38,0,0,0-.1-3.4,2.51,2.51,0,0,0-3.5.1l-6.6,7.1h0v-7.4a15.57,15.57,0,0,1,14.3-9h.3C46.51,9.86,45.91,16.86,45.91,16.86Zm-22.7,4.9h0l-6.6-7.1a2.51,2.51,0,0,0-3.5-.1A2.3,2.3,0,0,0,13,18l10.2,10.9h0v8.4h0c-16.9-6.1-17.9-19.6-17.9-20.2V17c0-.1-.6-7,3.2-11.6h.3a15.64,15.64,0,0,1,14.4,9.1h0Zm22.4-20.6A2.36,2.36,0,0,0,44,.46a20.65,20.65,0,0,0-18.4,8.4A20.43,20.43,0,0,0,7.21.46a2.36,2.36,0,0,0-1.6.7c-5.9,5.9-5.3,15.2-5.2,16.2a24.94,24.94,0,0,0,3.4,10.5c2.9,5,8.9,11.7,20.9,15.1.1,0,.1,0,.2.1h1.3c.1,0,.1,0,.2-.1,22.3-6.3,24.2-23.9,24.4-25.6C50.81,16.86,51.61,7.26,45.61,1.16Z" transform="translate(-0.35 -0.4)" fill="#88b04b"/><path id="a37b12dc-27f9-4c82-a945-597c61516bfa" data-name="Fill-6" d="M26.11,43.06h.2c.1,0,.1,0,.2-.1C26.31,43,26.21,43,26.11,43.06ZM28,29v8.4h0V29Zm0-14.5v7.3h0v-7.3Z" transform="translate(-0.35 -0.4)" fill="#88b04b"/><path id="bb6511f0-a4b2-4e74-ad05-952ae4a3ad25" data-name="Fill-8" d="M91.51,2.46a1.28,1.28,0,0,1,1,.4,1.28,1.28,0,0,1,.4,1v3.8a1.37,1.37,0,0,1-1.4,1.4H74.41V20h16a1.37,1.37,0,0,1,1.4,1.4v3.8a1.37,1.37,0,0,1-1.4,1.4h-16v12.2a1.37,1.37,0,0,1-1.4,1.4h-4.3a1.37,1.37,0,0,1-1.4-1.4V3.86a1.28,1.28,0,0,1,.4-1,1.28,1.28,0,0,1,1-.4Z" transform="translate(-0.35 -0.4)" fill="#fff"/><path id="be062b61-dc39-4ce9-964d-3849099c89aa" data-name="Fill-10" d="M97.91,14a1.37,1.37,0,0,1,1.4-1.4h4.1a1.37,1.37,0,0,1,1.4,1.4v13.5a8.79,8.79,0,0,0,1.4,5.1c.9,1.3,2.4,1.9,4.5,1.9a5,5,0,0,0,4.3-1.9,8.14,8.14,0,0,0,1.5-5.1V14a1.37,1.37,0,0,1,1.4-1.4H122a1.37,1.37,0,0,1,1.4,1.4v24.8a1.37,1.37,0,0,1-1.4,1.4h-4.1a1.37,1.37,0,0,1-1.4-1.4v-1.2a10.7,10.7,0,0,1-3.1,2.2,8.68,8.68,0,0,1-4.4,1,12.12,12.12,0,0,1-5.4-1,9.27,9.27,0,0,1-3.4-2.7,9.15,9.15,0,0,1-1.8-4,24.16,24.16,0,0,1-.5-4.7Z" transform="translate(-0.35 -0.4)" fill="#fff"/><path id="a9a492da-298c-42e8-bd1f-bb6215ad7820" data-name="Fill-12" d="M136.31,38.86a1.37,1.37,0,0,1-1.4,1.4h-4.1a1.37,1.37,0,0,1-1.4-1.4v-35a1.28,1.28,0,0,1,.4-1,1.28,1.28,0,0,1,1-.4h4.1a1.28,1.28,0,0,1,1,.4,1.28,1.28,0,0,1,.4,1Z" transform="translate(-0.35 -0.4)" fill="#fff"/><path id="a577db9a-b9a1-44cd-b102-de8d9cc55444" data-name="Fill-14" d="M149.21,38.86a1.37,1.37,0,0,1-1.4,1.4h-4.1a1.37,1.37,0,0,1-1.4-1.4v-35a1.28,1.28,0,0,1,.4-1,1.28,1.28,0,0,1,1-.4h4.1a1.28,1.28,0,0,1,1,.4,1.28,1.28,0,0,1,.4,1Z" transform="translate(-0.35 -0.4)" fill="#fff"/><path id="bc345bcf-307b-45ed-907f-58d66877793e" data-name="Fill-16" d="M187.21,24.56a10.89,10.89,0,0,0-.1,1.9,11.48,11.48,0,0,0,.1,1.9,10.42,10.42,0,0,0,.7,2.8,5.75,5.75,0,0,0,1.5,1.9,6.44,6.44,0,0,0,2,1.1,7.8,7.8,0,0,0,2.2.3,12.73,12.73,0,0,0,2.2-.2,4.42,4.42,0,0,0,1.6-.6,10.63,10.63,0,0,0,1.1-.9,10.63,10.63,0,0,0,.9-1.1,8.65,8.65,0,0,0,.7-1,1.39,1.39,0,0,1,1-.5h4.1a1.37,1.37,0,0,1,1.4,1.4,6.69,6.69,0,0,1-.8,2.7,10.84,10.84,0,0,1-2.3,3.1,14.35,14.35,0,0,1-4,2.5,14.87,14.87,0,0,1-5.9,1,12.85,12.85,0,0,1-5.3-1,12.72,12.72,0,0,1-4.1-2.7,10.54,10.54,0,0,1-2.7-3.9,12.55,12.55,0,0,1-1.2-4.7,13.42,13.42,0,0,1-.1-2.1,15.48,15.48,0,0,1,.1-2.2,13.05,13.05,0,0,1,1.2-4.7,13.58,13.58,0,0,1,2.7-3.9,13.1,13.1,0,0,1,9.4-3.7,15.2,15.2,0,0,1,5.9,1,13,13,0,0,1,4,2.5,9.25,9.25,0,0,1,2.3,3.1,7.16,7.16,0,0,1,.8,2.7,1.28,1.28,0,0,1-.4,1,1.43,1.43,0,0,1-1,.4h-4.1a1.39,1.39,0,0,1-1-.5,3.59,3.59,0,0,1-.7-1,10.63,10.63,0,0,0-.9-1.1,10.63,10.63,0,0,0-1.1-.9,3.35,3.35,0,0,0-1.6-.6,13.79,13.79,0,0,0-2.2-.2,7.8,7.8,0,0,0-2.2.3,5.64,5.64,0,0,0-2,1.1,5.75,5.75,0,0,0-1.5,1.9,11.21,11.21,0,0,0-.7,2.9" transform="translate(-0.35 -0.4)" fill="#fff"/><path id="a7392b0c-8f71-4ac1-ab55-339991d50e75" data-name="Fill-18" d="M224.11,19a6.48,6.48,0,0,0-4.6,1.4,6.48,6.48,0,0,0-1.4,4.6v13.8a1.37,1.37,0,0,1-1.4,1.4h-4.1a1.37,1.37,0,0,1-1.4-1.4V14a1.37,1.37,0,0,1,1.4-1.4h4.1a1.37,1.37,0,0,1,1.4,1.4v1.2a9.37,9.37,0,0,1,7.2-2.7h.4a1.37,1.37,0,0,1,1.4,1.4v3.5a1.37,1.37,0,0,1-1.4,1.4h-1.6Z" transform="translate(-0.35 -0.4)" fill="#fff"/><path id="b2f92d0c-f6de-4f47-8c08-dba89d2a8408" data-name="Fill-20" d="M238.81,38.86a1.37,1.37,0,0,1-1.4,1.4h-4.1a1.37,1.37,0,0,1-1.4-1.4V14a1.37,1.37,0,0,1,1.4-1.4h4.1a1.37,1.37,0,0,1,1.4,1.4Zm-1.2-36.4a1.28,1.28,0,0,1,1,.4,1.28,1.28,0,0,1,.4,1v4.2a1.37,1.37,0,0,1-1.4,1.4H233a1.37,1.37,0,0,1-1.4-1.4V3.86a1.28,1.28,0,0,1,.4-1,1.28,1.28,0,0,1,1-.4Z" transform="translate(-0.35 -0.4)" fill="#fff"/><path id="fe9b574c-e043-4f6d-b529-cf88c0279b11" data-name="Fill-22" d="M264.71,27.86a15,15,0,0,0,0-3c-.2-2.3-.9-4-2.1-5a7.2,7.2,0,0,0-8.8,0,6.36,6.36,0,0,0-2.1,4.4,11.52,11.52,0,0,0-.1,2,11.52,11.52,0,0,0,.1,2,6.8,6.8,0,0,0,2.1,4.4,6.29,6.29,0,0,0,4.4,1.6,6.71,6.71,0,0,0,4.4-1.5c1.2-.9,1.9-2.6,2.1-4.9m-5,12.9a13.86,13.86,0,0,1-3-.3,12.34,12.34,0,0,1-2.3-.8,12.75,12.75,0,0,1-1.7-1,12,12,0,0,1-1.1-1V49a1.37,1.37,0,0,1-1.4,1.4h-4.1a1.37,1.37,0,0,1-1.4-1.4V14a1.37,1.37,0,0,1,1.4-1.4h4.1a1.37,1.37,0,0,1,1.4,1.4v1.2a11,11,0,0,1,1.1-1,6.93,6.93,0,0,1,1.7-1,12.34,12.34,0,0,1,2.3-.8,13.86,13.86,0,0,1,3-.3,10.58,10.58,0,0,1,4.8,1,11.33,11.33,0,0,1,3.7,2.8,14.68,14.68,0,0,1,2.4,4,15.19,15.19,0,0,1,1,4.7c0,.5.1,1.2.1,1.9a11.48,11.48,0,0,1-.1,1.9,15.19,15.19,0,0,1-1,4.7,14.68,14.68,0,0,1-2.4,4,10.38,10.38,0,0,1-3.7,2.8,12.09,12.09,0,0,1-4.8.9" transform="translate(-0.35 -0.4)" fill="#fff"/><path id="b246e0f3-febe-461b-9c62-63265b0e8673" data-name="Fill-24" d="M276.41,12.46V3.86a1.28,1.28,0,0,1,.4-1,1.28,1.28,0,0,1,1-.4h4.1a1.28,1.28,0,0,1,1,.4,1.28,1.28,0,0,1,.4,1v8.7h6.9a1.37,1.37,0,0,1,1.4,1.4v3.5a1.37,1.37,0,0,1-1.4,1.4h-6.9v11.3a3.57,3.57,0,0,0,.9,2.6c.6.7,1.7,1,3.3,1h3.3a1.37,1.37,0,0,1,1.4,1.4v3.5a1.37,1.37,0,0,1-1.4,1.4h-4c-3.4,0-5.9-.8-7.7-2.4s-2.7-4.1-2.7-7.4V12.46Z" transform="translate(-0.35 -0.4)" fill="#fff"/><path id="a108051b-c2ed-4ec1-89c5-fad2ae1381af" data-name="Fill-26" d="M301.71,12.66c.1,0,.1,0,.2.1a.35.35,0,0,1,.1.2v.3c0,.1,0,.1-.1.2a.35.35,0,0,1-.2.1h-1.6v4.8c0,.1,0,.1-.1.2a.35.35,0,0,1-.2.1h-.3c-.1,0-.1,0-.2-.1a.35.35,0,0,1-.1-.2v-4.8h-1.6c-.1,0-.1,0-.2-.1a.35.35,0,0,1-.1-.2V13c0-.1,0-.1.1-.2a.35.35,0,0,1,.2-.1Z" transform="translate(-0.35 -0.4)" fill="#fff"/><path id="baa0cd52-4887-4aa1-b80a-0b88cc8a5686" data-name="Fill-28" d="M305.41,16.26l1.7-3.2c0-.1.1-.1.1-.2s.1-.1.2-.1h.3c.1,0,.1,0,.2.1a.35.35,0,0,1,.1.2v5.4c0,.1,0,.1-.1.2a.35.35,0,0,1-.2.1h-.3c-.1,0-.1,0-.2-.1a.35.35,0,0,1-.1-.2v-4.1l-1.3,2.5c0,.1-.1.1-.1.2s-.1.1-.2.1h-.3c-.1,0-.1,0-.2-.1s-.1-.1-.1-.2l-1.3-2.5v3.9c0,.1,0,.1-.1.2a.35.35,0,0,1-.2.1H303c-.1,0-.1,0-.2-.1a.35.35,0,0,1-.1-.2v-5.4c0-.1,0-.1.1-.2a.35.35,0,0,1,.2-.1h.3c.1,0,.2,0,.2.1s.1.1.1.2Z" transform="translate(-0.35 -0.4)" fill="#fff"/><path id="ef74469d-fda1-4b1e-a2e6-c656d71d64be" data-name="Fill-30" d="M170,32.36a1.28,1.28,0,0,0-.4-1,5,5,0,0,0-1.3-.7,23.32,23.32,0,0,0-2.5-.6c-1-.2-2.4-.5-4-.9a19.66,19.66,0,0,1-3.9-1.3,8.25,8.25,0,0,1-2.5-1.9,5.64,5.64,0,0,1-1.3-2.4,9.48,9.48,0,0,1-.4-3,6.33,6.33,0,0,1,.8-3.2,8.27,8.27,0,0,1,2.2-2.8,9.05,9.05,0,0,1,3.5-1.9,13.67,13.67,0,0,1,4.7-.7,16.76,16.76,0,0,1,4.7.6,12.69,12.69,0,0,1,3.5,1.5,8.09,8.09,0,0,1,2.3,2.2,6.31,6.31,0,0,1,.9,2.5,1.28,1.28,0,0,1-.4,1,1.43,1.43,0,0,1-1,.4h-4.1a2.13,2.13,0,0,1-1.2-.3,5.5,5.5,0,0,1-.9-.7,7.62,7.62,0,0,0-1.3-.7,7,7,0,0,0-2.4-.3,7.78,7.78,0,0,0-2.8.5,1.71,1.71,0,0,0-1.2,1.7,1.69,1.69,0,0,0,.3,1,2.33,2.33,0,0,0,1.1.7c.6.2,1.3.4,2.3.7s2.3.5,3.8.8c3.2.7,5.4,1.7,6.7,3.2a7.65,7.65,0,0,1,2,5.4,6.81,6.81,0,0,1-.8,3.1,8.3,8.3,0,0,1-2.3,2.7,12.29,12.29,0,0,1-3.8,1.9,15.91,15.91,0,0,1-5,.7,15.1,15.1,0,0,1-5-.7,11.53,11.53,0,0,1-3.7-1.7,7.45,7.45,0,0,1-2.3-2.4,7.35,7.35,0,0,1-.9-2.6,1.28,1.28,0,0,1,.4-1,1.43,1.43,0,0,1,1-.4h4.1a1.59,1.59,0,0,1,1.2.4,3.82,3.82,0,0,1,.9.9,5.65,5.65,0,0,0,1.4.9,8.54,8.54,0,0,0,2.7.4,10.28,10.28,0,0,0,1.7-.1c.6-.1,1.1-.2,1.6-.3a6.66,6.66,0,0,0,1.2-.6,1.28,1.28,0,0,0,.4-1" transform="translate(-0.35 -0.4)" fill="#fff"/></g></g></g></svg>