<svg id="ad6c2dc2-f67f-4c16-81a7-842d09a1f9f8" data-name="Layer 1" xmlns="http://www.w3.org/2000/svg" viewBox="0 0 308.68 50.25"><title>fullscript</title><g id="ad2abd90-a4f8-46b0-acd1-9d5f77019c87" data-name="06"><g id="b155e782-7ee2-4611-9e95-31bd69ecf2c6" data-name="Group-3"><g id="e5c35c11-fe24-4214-a3fd-20c770f7f700" data-name="Page-1"><path id="a6fa8314-59f3-45a5-816e-bd227d34efe5" data-name="Fill-3" d="M47.8,24.2v.1c0,.6-.9,14.2-17.9,20.3h0V36.2h0l10.2-11a2.48,2.48,0,0,0-3.6-3.4l-6.6,7.1h0V21.5a15.5,15.5,0,0,1,14.4-9.1h.3C48.4,17.1,47.8,24.1,47.8,24.2ZM25,29.1h0L18.4,22a2.48,2.48,0,0,0-3.6,3.4L25,36.4h0v8.4h0C8,38.5,7.1,24.9,7.1,24.3v-.1c0-.1-.6-7.1,3.2-11.6h.3A15.39,15.39,0,0,1,25,21.8h0ZM47.5,8.4a2.36,2.36,0,0,0-1.6-.7,20.54,20.54,0,0,0-18.5,8.5A20.77,20.77,0,0,0,8.9,7.7a2.36,2.36,0,0,0-1.6.7C1.3,14.3,2,23.7,2.1,24.6A23.86,23.86,0,0,0,5.6,35.1c2.9,5.1,8.9,11.8,21,15.2.1,0,.1,0,.2.1h1.3c.1,0,.1,0,.2-.1,22.3-6.3,24.3-24,24.4-25.6C52.7,24.1,53.6,14.5,47.5,8.4Z" transform="translate(-2.02 -7.65)" fill="#88b04b"/><path id="e04eaa3d-cb6c-4d5c-a162-54935621af49" data-name="Fill-8" d="M93.6,9.7A1.37,1.37,0,0,1,95,11.1v3.8a1.37,1.37,0,0,1-1.4,1.4H76.4V27.2H92.5a1.37,1.37,0,0,1,1.4,1.4v3.8a1.37,1.37,0,0,1-1.4,1.4H76.4V46.2A1.37,1.37,0,0,1,75,47.6H70.6a1.37,1.37,0,0,1-1.4-1.4V11.1a1.37,1.37,0,0,1,1.4-1.4Z" transform="translate(-2.02 -7.65)" fill="#404f5e"/><path id="faa0b76f-573a-4ae1-b57c-a8532f872685" data-name="Fill-10" d="M100,21.3a1.37,1.37,0,0,1,1.4-1.4h4.1a1.37,1.37,0,0,1,1.4,1.4V34.9a8.79,8.79,0,0,0,1.4,5.1c.9,1.3,2.4,1.9,4.5,1.9a5.35,5.35,0,0,0,4.4-1.9,8.14,8.14,0,0,0,1.5-5.1V21.3a1.37,1.37,0,0,1,1.4-1.4h4.1a1.37,1.37,0,0,1,1.4,1.4V46.2a1.37,1.37,0,0,1-1.4,1.4h-4.1a1.37,1.37,0,0,1-1.4-1.4V45a10.7,10.7,0,0,1-3.1,2.2,8.68,8.68,0,0,1-4.4,1,12.12,12.12,0,0,1-5.4-1,9.27,9.27,0,0,1-3.4-2.7,9.15,9.15,0,0,1-1.8-4,18.61,18.61,0,0,1-.5-4.8L100,21.3Z" transform="translate(-2.02 -7.65)" fill="#404f5e"/><path id="a99bb40f-102f-4171-a365-51181074beec" data-name="Fill-12" d="M138.5,46.2a1.37,1.37,0,0,1-1.4,1.4H133a1.37,1.37,0,0,1-1.4-1.4V11.1A1.37,1.37,0,0,1,133,9.7h4.1a1.37,1.37,0,0,1,1.4,1.4Z" transform="translate(-2.02 -7.65)" fill="#404f5e"/><path id="b051f8da-3a56-45ab-8507-d5c7bcecc4e7" data-name="Fill-14" d="M151.4,46.2a1.37,1.37,0,0,1-1.4,1.4h-4.1a1.37,1.37,0,0,1-1.4-1.4V11.1a1.37,1.37,0,0,1,1.4-1.4H150a1.37,1.37,0,0,1,1.4,1.4Z" transform="translate(-2.02 -7.65)" fill="#404f5e"/><path id="bd362036-153d-45e2-a8fd-1d131a710d00" data-name="Fill-16" d="M189.6,31.9a10.89,10.89,0,0,0-.1,1.9,11.48,11.48,0,0,0,.1,1.9,7.67,7.67,0,0,0,.8,2.8,5.75,5.75,0,0,0,1.5,1.9,6.44,6.44,0,0,0,2,1.1,8.33,8.33,0,0,0,2.2.3,15.16,15.16,0,0,0,2.3-.2A4.42,4.42,0,0,0,200,41a10.63,10.63,0,0,0,1.1-.9A10.63,10.63,0,0,0,202,39c.2-.3.5-.6.8-1a1.39,1.39,0,0,1,1-.5h4.1a1.37,1.37,0,0,1,1.4,1.4,6.69,6.69,0,0,1-.8,2.7,10.84,10.84,0,0,1-2.3,3.1,13.59,13.59,0,0,1-4.1,2.5,14.87,14.87,0,0,1-5.9,1,12.85,12.85,0,0,1-5.3-1,14.6,14.6,0,0,1-4.1-2.7,10.54,10.54,0,0,1-2.7-3.9,12.55,12.55,0,0,1-1.2-4.7,14.08,14.08,0,0,1-.1-2.1,15.48,15.48,0,0,1,.1-2.2,13.05,13.05,0,0,1,1.2-4.7,13.58,13.58,0,0,1,2.7-3.9,13.1,13.1,0,0,1,9.4-3.7,14.29,14.29,0,0,1,10,3.5,9.25,9.25,0,0,1,2.3,3.1,7.16,7.16,0,0,1,.8,2.7,1.28,1.28,0,0,1-.4,1,1.43,1.43,0,0,1-1,.4h-4.1a1.39,1.39,0,0,1-1-.5,8.74,8.74,0,0,1-.8-1,10.63,10.63,0,0,0-.9-1.1,10.63,10.63,0,0,0-1.1-.9,3.35,3.35,0,0,0-1.6-.6,14,14,0,0,0-2.3-.2,7.8,7.8,0,0,0-2.2.3,5.64,5.64,0,0,0-2,1.1,5.75,5.75,0,0,0-1.5,1.9,6.2,6.2,0,0,0-.8,2.9" transform="translate(-2.02 -7.65)" fill="#404f5e"/><path id="ae979899-ca86-48df-b042-d1220a01c110" data-name="Fill-18" d="M226.5,26.2a6.48,6.48,0,0,0-4.6,1.4,6.48,6.48,0,0,0-1.4,4.6v14a1.37,1.37,0,0,1-1.4,1.4H215a1.37,1.37,0,0,1-1.4-1.4V21.3a1.37,1.37,0,0,1,1.4-1.4h4.1a1.37,1.37,0,0,1,1.4,1.4v1.2a9.37,9.37,0,0,1,7.2-2.7h.4a1.37,1.37,0,0,1,1.4,1.4v3.5a1.37,1.37,0,0,1-1.4,1.4h-1.6v.1Z" transform="translate(-2.02 -7.65)" fill="#404f5e"/><path id="a3db05c3-8dc2-4b01-8953-5ea8164a7bc0" data-name="Fill-20" d="M241.3,46.2a1.37,1.37,0,0,1-1.4,1.4h-4.1a1.37,1.37,0,0,1-1.4-1.4V21.3a1.37,1.37,0,0,1,1.4-1.4h4.1a1.37,1.37,0,0,1,1.4,1.4ZM240.1,9.7a1.37,1.37,0,0,1,1.4,1.4v4.2a1.37,1.37,0,0,1-1.4,1.4h-4.6a1.37,1.37,0,0,1-1.4-1.4V11.1a1.37,1.37,0,0,1,1.4-1.4Z" transform="translate(-2.02 -7.65)" fill="#404f5e"/><path id="fee61599-8d78-4d26-9361-4bf88b0d12e8" data-name="Fill-22" d="M267.3,35.2a15,15,0,0,0,0-3c-.2-2.3-.9-4-2.1-5a6.79,6.79,0,0,0-4.5-1.5,6.13,6.13,0,0,0-4.4,1.6,6.36,6.36,0,0,0-2.1,4.4,11.52,11.52,0,0,0-.1,2,11.52,11.52,0,0,0,.1,2,6.58,6.58,0,0,0,2.1,4.4,6.29,6.29,0,0,0,4.4,1.6,7,7,0,0,0,4.5-1.5c1.2-1,1.9-2.7,2.1-5m-5,13a13.86,13.86,0,0,1-3-.3,12.34,12.34,0,0,1-2.3-.8,12.75,12.75,0,0,1-1.7-1,12,12,0,0,1-1.1-1V56.5a1.37,1.37,0,0,1-1.4,1.4h-4.1a1.37,1.37,0,0,1-1.4-1.4V21.3a1.37,1.37,0,0,1,1.4-1.4h4.1a1.37,1.37,0,0,1,1.4,1.4v1.2a11,11,0,0,1,1.1-1,6.93,6.93,0,0,1,1.7-1,12.34,12.34,0,0,1,2.3-.8,13.86,13.86,0,0,1,3-.3,11.31,11.31,0,0,1,4.9,1,10.38,10.38,0,0,1,3.7,2.8,14.68,14.68,0,0,1,2.4,4,15.19,15.19,0,0,1,1,4.7c0,.5.1,1.2.1,1.9a11.48,11.48,0,0,1-.1,1.9,15.19,15.19,0,0,1-1,4.7,13.31,13.31,0,0,1-2.4,4,11.33,11.33,0,0,1-3.7,2.8,13,13,0,0,1-4.9,1" transform="translate(-2.02 -7.65)" fill="#404f5e"/><path id="a738e574-2a63-4c20-b991-64c57dfcde2d" data-name="Fill-24" d="M279.1,19.7V11.1a1.37,1.37,0,0,1,1.4-1.4h4.1a1.37,1.37,0,0,1,1.4,1.4v8.7h6.9a1.37,1.37,0,0,1,1.4,1.4v3.5a1.37,1.37,0,0,1-1.4,1.4H286V37.4a3.57,3.57,0,0,0,.9,2.6c.6.7,1.7,1,3.3,1h3.3a1.37,1.37,0,0,1,1.4,1.4v3.8a1.37,1.37,0,0,1-1.4,1.4h-4q-5.1,0-7.8-2.4T279,37.7v-18Z" transform="translate(-2.02 -7.65)" fill="#404f5e"/><path id="faafd00b-9e5f-4553-9fad-96113ad2c5da" data-name="Fill-26" d="M304.4,20c.1,0,.1,0,.2.1s.1.1.1.2v.3c0,.1,0,.1-.1.2a.35.35,0,0,1-.2.1h-1.6v4.8c0,.1,0,.1-.1.2a.35.35,0,0,1-.2.1h-.3c-.1,0-.1,0-.2-.1a.35.35,0,0,1-.1-.2V20.9h-1.6c-.1,0-.1,0-.2-.1a.35.35,0,0,1-.1-.2v-.4c0-.1,0-.1.1-.2s.1-.1.2-.1h4.1V20Z" transform="translate(-2.02 -7.65)" fill="#404f5e"/><path id="aa81c9b2-a35e-4b71-9463-ceddb3530ac0" data-name="Fill-28" d="M308.1,23.5l1.7-3.3c0-.1.1-.1.1-.2s.1-.1.2-.1h.3c.1,0,.1,0,.2.1a.35.35,0,0,1,.1.2v5.4c0,.1,0,.1-.1.2a.35.35,0,0,1-.2.1h-.3c-.1,0-.1,0-.2-.1a.35.35,0,0,1-.1-.2V21.7l-1.3,2.5c0,.1-.1.1-.1.2s-.1.1-.2.1h-.3c-.1,0-.2,0-.2-.1s-.1-.1-.1-.2l-1.3-2.5v3.9c0,.1,0,.1-.1.2a.35.35,0,0,1-.2.1h-.3c-.1,0-.1,0-.2-.1a.35.35,0,0,1-.1-.2V20.2c0-.1,0-.1.1-.2a.35.35,0,0,1,.2-.1h.3c.1,0,.2,0,.2.1s.1.1.1.2Z" transform="translate(-2.02 -7.65)" fill="#404f5e"/><path id="ac45ece2-b680-4ef3-ab3b-aa2768b206e0" data-name="Fill-31" d="M172.3,39.7a1.28,1.28,0,0,0-.4-1,5,5,0,0,0-1.3-.7,23.32,23.32,0,0,0-2.5-.6c-1-.2-2.4-.5-4-.9a19.66,19.66,0,0,1-3.9-1.3,8.25,8.25,0,0,1-2.5-1.9,5.64,5.64,0,0,1-1.3-2.4,9.48,9.48,0,0,1-.4-3,7.56,7.56,0,0,1,.8-3.2,8.27,8.27,0,0,1,2.2-2.8,11.87,11.87,0,0,1,3.5-2,13.6,13.6,0,0,1,4.7-.8,16.76,16.76,0,0,1,4.7.6,10.32,10.32,0,0,1,3.5,1.6,8.09,8.09,0,0,1,2.3,2.2,6.31,6.31,0,0,1,.9,2.5,1.28,1.28,0,0,1-.4,1,1.5,1.5,0,0,1-1.1.4h-4.2a2.13,2.13,0,0,1-1.2-.3,5.5,5.5,0,0,1-.9-.7,7.62,7.62,0,0,0-1.3-.7,7,7,0,0,0-2.4-.3,8.81,8.81,0,0,0-2.9.5,1.71,1.71,0,0,0-1.2,1.7,1.69,1.69,0,0,0,.3,1,2.33,2.33,0,0,0,1.1.7c.6.2,1.3.4,2.3.7s2.3.5,3.9.8c3.2.7,5.5,1.7,6.8,3.2a7.65,7.65,0,0,1,2,5.4,6.81,6.81,0,0,1-.8,3.1,8.3,8.3,0,0,1-2.3,2.7,12.29,12.29,0,0,1-3.8,1.9,15.91,15.91,0,0,1-5,.7,15.1,15.1,0,0,1-5-.7,11.53,11.53,0,0,1-3.7-1.7,7.45,7.45,0,0,1-2.3-2.4,7.35,7.35,0,0,1-.9-2.6,1.28,1.28,0,0,1,.4-1,1.5,1.5,0,0,1,1.1-.4h4.2a1.59,1.59,0,0,1,1.2.4,7.64,7.64,0,0,1,.9.9,5.65,5.65,0,0,0,1.4.9,6.38,6.38,0,0,0,2.7.4,10.28,10.28,0,0,0,1.7-.1c.6-.1,1.1-.2,1.6-.3a6.66,6.66,0,0,0,1.2-.6,1.22,1.22,0,0,0,.3-.9" transform="translate(-2.02 -7.65)" fill="#404f5e"/></g></g></g></svg>