<svg id="fad1d832-e6c9-4359-8575-585a8751adf7" data-name="Layer 1" xmlns="http://www.w3.org/2000/svg" xmlns:xlink="http://www.w3.org/1999/xlink" viewBox="0 0 142.71 119.1"><defs><linearGradient id="bec2c33e-3fbb-4dde-9865-c5019f51509f" x1="4.79" y1="113.16" x2="75.81" y2="65.6" gradientTransform="matrix(1, 0, 0, -1, 0, 120)" gradientUnits="userSpaceOnUse"><stop offset="0" stop-color="#aa4a9b"/><stop offset="1" stop-color="#f05922"/></linearGradient><linearGradient id="e2a17a80-5605-407e-ba13-e2d926cd3e49" x1="28.34" y1="0.37" x2="139.58" y2="59.77" gradientTransform="matrix(1, 0, 0, -1, 0, 120)" gradientUnits="userSpaceOnUse"><stop offset="0" stop-color="#ffe42e"/><stop offset="1" stop-color="#ed417c"/></linearGradient><linearGradient id="f1aad38d-9c5f-4142-9d58-9f201b781bcc" x1="31.79" y1="5.56" x2="72.11" y2="64.6" gradientTransform="matrix(1, 0, 0, -1, 0, 120)" gradientUnits="userSpaceOnUse"><stop offset="0" stop-color="#ffe42e"/><stop offset="1" stop-color="#f05922"/></linearGradient></defs><title>jetbrains</title><path d="M81.3,57.6,18.7,3.1A11.3,11.3,0,0,0,11.4,0,11,11,0,0,0,0,10.7a11.12,11.12,0,0,0,5.8,10L76.2,64.4c.1.1.2.1.3.2A4.34,4.34,0,0,0,82.3,63,4.18,4.18,0,0,0,81.3,57.6Z" transform="translate(0 0.01)" fill="url(#bec2c33e-3fbb-4dde-9865-c5019f51509f)"/><path d="M142.7,66.3a15.49,15.49,0,0,0-16.2-14.9,16,16,0,0,0-7.5,2.2L31,103.7a.1.1,0,0,0-.1.1A7.9,7.9,0,0,0,34.2,119a7.27,7.27,0,0,0,2.9-.7l95.9-37a.31.31,0,0,0,.2-.1A15.65,15.65,0,0,0,142.7,66.3Z" transform="translate(0 0.01)" fill="url(#e2a17a80-5605-407e-ba13-e2d926cd3e49)"/><path d="M71.8,64A4.15,4.15,0,0,0,70,58.3a4.21,4.21,0,0,0-5.4,1.3L27.5,106.7a.31.31,0,0,1-.1.2,7.66,7.66,0,0,0,.3,9,7.94,7.94,0,0,0,11,1.7,10.53,10.53,0,0,0,2.4-2.8L71.6,64.6A.85.85,0,0,1,71.8,64Z" transform="translate(0 0.01)" fill="url(#f1aad38d-9c5f-4142-9d58-9f201b781bcc)"/><rect x="45.5" y="35.71" width="51" height="51"/><rect x="49.9" y="77.11" width="19.1" height="3.2" fill="#fff"/><path d="M49.7,49.1l1.5-1.4a1.7,1.7,0,0,0,1.3.8q.9,0,.9-1.2V42h2.3v5.3a2.8,2.8,0,0,1-3.1,3.1A3.13,3.13,0,0,1,49.7,49.1Z" transform="translate(0 0.01)" fill="#fff"/><path d="M56.3,42H63v2H58.6v1.3h4v1.8h-4v1.3H63v2H56.3Z" transform="translate(0 0.01)" fill="#fff"/><path d="M66,44.1H63.5v-2h7.3v2H68.3v6.3H66Z" transform="translate(0 0.01)" fill="#fff"/><path d="M49.9,52.3h4.3a3.7,3.7,0,0,1,2.3.7,2,2,0,0,1,.5,1.4h0a2,2,0,0,1-1.3,1.9,2,2,0,0,1,1.7,2h0c0,1.4-1.2,2.3-3.1,2.3H50V52.3Zm4.8,2.6c0-.5-.4-.7-1-.7H52.2v1.5h1.4c.7-.1,1.1-.3,1.1-.8Zm-.8,2.3H52.1v1.5h1.8c.7,0,1.1-.3,1.1-.8h0C55,57.5,54.7,57.2,53.9,57.2Z" transform="translate(0 0.01)" fill="#fff"/><path d="M57.7,52.3h3.9a3.37,3.37,0,0,1,2.7.9,2.49,2.49,0,0,1,.7,1.9h0a2.76,2.76,0,0,1-1.7,2.6l2,2.9H62.7L61,58.1H60v2.5H57.7Zm3.8,4c.8,0,1.2-.4,1.2-1h0c0-.7-.5-1-1.2-1H60v2Z" transform="translate(0 0.01)" fill="#fff"/><path d="M67.8,52.2H70l3.5,8.4H71l-.6-1.5H67.2l-.6,1.5H64.2Zm2,5.1L68.9,55,68,57.4h1.8Z" transform="translate(0 0.01)" fill="#fff"/><path d="M73.8,52.3h2.3v8.3H73.8Z" transform="translate(0 0.01)" fill="#fff"/><path d="M76.7,52.3h2.2l3.4,4.4V52.3h2.3v8.3h-2L79,56.1v4.6H76.7Z" transform="translate(0 0.01)" fill="#fff"/><path d="M84.7,59.4,86,57.9a3.94,3.94,0,0,0,2.7,1c.6,0,1-.2,1-.6h0c0-.4-.3-.5-1.4-.8-1.8-.4-3.1-.9-3.1-2.6h0c0-1.5,1.2-2.7,3.2-2.7a5.33,5.33,0,0,1,3.4,1.1l-1.2,1.6a4.55,4.55,0,0,0-2.3-.8c-.6,0-.8.2-.8.5h0c0,.4.3.5,1.4.8,1.9.4,3.1,1,3.1,2.6h0c0,1.7-1.3,2.7-3.4,2.7A5.29,5.29,0,0,1,84.7,59.4Z" transform="translate(0 0.01)" fill="#fff"/></svg>