<svg id="af28aff6-d148-4454-ad2e-eb82fd945e74" data-name="f0823e9d-c212-42e8-bcb5-ed8d3178ccf0" xmlns="http://www.w3.org/2000/svg" viewBox="0 0 816.34 183.42"><title>kinaxis</title><path d="M827,12.32v1.49C822.7,26,814.94,36.29,808.52,47.3,793.89,72.41,779,97.39,764.18,122.39c-9.26,15.59-18.44,31.23-27.73,46.8-2.8,4.7-5.42,9.5-8.46,14.05-4.13,6.16-9.06,11.19-17.11,11.69h-690c-7.81-2.43-9.81-5.59-10.18-13.81-.44-9.21,2.78-17.6,5.14-26.18,7.61-27.66,15.35-55.28,23-82.93,2.85-10.35,8-14.49,18.85-15.26,16.66-1.17,33.33-2,50-3l50-3,49.63-3c16.54-1,32.84-1.93,49.26-3s33.09-2,49.63-3l50-3,49.62-3c16.54-1,32.85-1.94,49.26-2.95s33.09-2,49.63-3l50-3q24.82-1.47,49.63-3c16.42-1,32.84-1.93,49.26-3s33.08-2,49.63-3,33.33-1.95,50-3c20.89-1.3,41.77-2.82,62.72-3C819.65,11.88,823.37,10.79,827,12.32Z" transform="translate(-10.66 -11.51)" fill="#da1d2f"/><path d="M352.07,100c16.63-6.13,33.09-8.21,49.9-7.88A89.61,89.61,0,0,1,424.9,95a27.65,27.65,0,0,1,8.5,3.75c4.56,3.19,5.74,6.55,4.34,11.91-3,11.5-7.24,22.68-9.25,34.43-.27,1.55-1.09,1.7-2.3,1.72-4.36.07-8.73,0-13.08.3-2.7.16-2.87-1-2.32-3.1.4-1.53.65-3.1,1-4.77-19.16,10-39.23,10.83-59.82,7.19a26.57,26.57,0,0,1-10-3.89c-5.83-3.81-6.69-9.52-2.22-14.9,3.48-4.17,8.22-6.35,13.23-8,11.57-3.9,23.6-5,35.7-5.54,8.46-.35,16.95-.24,25.43-.46,1.53,0,3.7,1.08,4.44-1.42a5.83,5.83,0,0,0-1.32-6.22,16.46,16.46,0,0,0-8.58-4.24c-13.66-2.82-27.08-1.39-40.11,3.11-4,1.36-7.06,1.35-10.33-1.19A62.56,62.56,0,0,0,352.07,100Z" transform="translate(-10.66 -11.51)" fill="#fefefe"/><path d="M260.85,102.28c8-5.55,16.29-7.85,25-9.08,11.44-1.62,22.86-1.78,34.17,1A27.93,27.93,0,0,1,327.3,97c6.3,3.62,8.42,8.41,6.53,15.34-2.94,10.75-6,21.47-9,32.21-.4,1.41-.58,2.74-2.79,2.67-5.85-.19-11.71-.07-18-.07,2.72-9.57,5.3-18.73,7.91-27.87,3.12-11,.29-15.28-11.17-16.92A57.78,57.78,0,0,0,269.61,106c-7.3,3.06-12.27,8.12-14.34,16-2,7.42-4.48,14.69-6.61,22.07-.65,2.23-1.63,3.19-4.12,3.07-4.73-.23-9.49-.15-14.23,0-2,0-2.29-.63-1.78-2.38q7.17-24.63,14.24-49.28a2.28,2.28,0,0,1,2.54-2h.09c5.24.07,10.48.08,15.72,0,1.89,0,2,.69,1.54,2.23A65.82,65.82,0,0,0,260.85,102.28Z" transform="translate(-10.66 -11.51)" fill="#fefefe"/><path d="M198.44,94l-57,24.17,45.76,28.49c-3.29.87-6.1.14-8.79.51-12.65,1.73-23.49-1.74-33.46-9.77-7.14-5.75-15.3-10.22-22.94-15.37-2.13-1.43-3.08-1.32-3.78,1.36-1.87,7.07-4,14.05-6,21.1-.53,1.91-1.31,2.82-3.56,2.72-4.85-.22-9.73-.14-14.59,0-2,0-2.35-.67-1.84-2.43q7.23-24.79,14.37-49.62a2.3,2.3,0,0,1,2.6-1.93h0c5,.08,10,.11,15,0,2.5-.06,2.59.94,2,2.93-2,6.47-3.85,13-6,20.2l27.54-12c3.53-1.54,7.3-2.71,10.55-4.71C170.78,91.89,184.45,92.77,198.44,94Z" transform="translate(-10.66 -11.51)" fill="#fefefe"/><path d="M584.57,140.83c2.37-1,4.71-1.86,6.94-2.94,5.14-2.47,9.58-3.69,15.71-.77,9.11,4.34,19.26,3.26,28.87.09,2.92-1,6.52-2.27,6.28-6-.22-3.53-3.9-4.23-6.76-4.86-8.52-1.85-17.09-3.45-25.63-5.18a27.09,27.09,0,0,1-7.69-2.8c-6.28-3.44-7.26-9.48-2.49-14.84a22.18,22.18,0,0,1,9.26-6.13,96.37,96.37,0,0,1,58.07-2.25,11.23,11.23,0,0,1,5.12,2.5C667,100,662,102.24,657,104.51c-1,.44-1.62-.11-2.42-.47-10.15-4.69-20.54-4.11-31-1.2a9.27,9.27,0,0,0-2.68,1.31c-1.57,1.06-3.12,2.29-2.9,4.43s2,2.8,3.62,3.37c7.33,2.61,15.11,3.1,22.66,4.65,4.4.9,8.8,1.8,12.88,3.74,7.38,3.51,8.71,9.77,3.38,16a25.07,25.07,0,0,1-11.5,7.27A97.66,97.66,0,0,1,592.39,145a31.84,31.84,0,0,1-5.16-2.13A4.59,4.59,0,0,1,584.57,140.83Z" transform="translate(-10.66 -11.51)" fill="#fefefe"/><path d="M488.22,104.61c24-20.4,51.54-34.95,80.45-47.15,1,1.26,0,2.26-.26,3.2-3.09,10.32-6.34,20.59-9.34,30.93A5.67,5.67,0,0,1,555,95.8a421.64,421.64,0,0,0-42.41,17.45c-2.55,1.24-5,2.7-7.51,4.06-1.23,1-2.31.36-3.32-.37-4.09-3-8-6.13-12.05-9.14A3.29,3.29,0,0,1,488.22,104.61Z" transform="translate(-10.66 -11.51)" fill="#f7d1d4"/><path d="M488.22,104.61l16.85,12.7L544.2,147.1c-8.9,0-16.69-.26-24.44.1a15.09,15.09,0,0,1-11.39-4c-6.48-5.61-13.3-10.82-20-16.2-5.92-1.93-10.72-5.19-13.35-11l-27.6-22.5H472.9c1.22,0,2,1,2.84,1.66C479.93,98.27,484.07,101.5,488.22,104.61Z" transform="translate(-10.66 -11.51)" fill="#fefefe"/><path d="M552.77,147.1c5.1-17.62,10.06-34.72,15-51.84a2.52,2.52,0,0,1,2.89-2.1h0c5.11.07,10.22.06,15.33,0,1.67,0,2.12.34,1.59,2.14q-7.29,24.75-14.36,49.56c-.45,1.57-1,2.28-2.75,2.26C564.72,147.05,559,147.1,552.77,147.1Z" transform="translate(-10.66 -11.51)" fill="#fefefe"/><path d="M202,146.84c-3.1,0-7.63,1.22-8.94-.31-1.6-1.86,1-5.68,1.8-8.63,3.89-13.82,8-27.59,11.87-41.43.75-2.69,2-3.47,4.65-3.34,4.48.21,9,.11,13.47,0,1.91,0,2.73.27,2.08,2.49q-7.23,24.6-14.26,49.25c-.5,1.78-1.41,2.34-3.19,2.24-2.49-.14-5,0-7.48,0Z" transform="translate(-10.66 -11.51)" fill="#fefefe"/><path d="M475.07,115.9l13.35,11c-13.82,8.35-25.95,18.84-37.71,29.78-5.54,5.15-10.94,10.45-16.88,16.14,2.6-10,5.23-19.08,12.39-26.4,8.87-9.06,17.31-18.54,26.38-27.42C473.52,118.12,474.82,117.41,475.07,115.9Z" transform="translate(-10.66 -11.51)" fill="#f7d1d4"/><path d="M698.28,98.31a10.56,10.56,0,0,1-21.12.35h0a10.56,10.56,0,0,1,21.12-.35Z" transform="translate(-10.66 -11.51)" fill="#fdf9fa"/><path d="M399.69,121.26c4.61,0,9.23.06,13.84,0,1.9,0,2.32.43,1.8,2.35-1.47,5.35-5.14,8.67-9.79,11.13-9.12,4.82-19,5.56-29.07,5.34-4.48-.11-9-.32-13.27-1.91-2.4-.9-4.78-2.16-4.93-5s1.79-4.59,4.07-5.8c7.81-4.15,16.46-4.7,25-5.38,4.09-.32,8.22,0,12.33,0Z" transform="translate(-10.66 -11.51)" fill="#da1d2f"/><path d="M683.19,91.5c4.54-2.51,9-1.61,11.69,2.33a7.79,7.79,0,0,1-1.9,10.85l-.1.07-.5-.16c-2.31-2.22-4.51-4.3-1.24-7.61,1.27-1.3-.22-3.25-2.62-3.71-1.56-.29-3.21.51-4.73-.38A1.26,1.26,0,0,1,683.19,91.5Z" transform="translate(-10.66 -11.51)" fill="#db2133"/><path d="M683.19,91.5l.83.65c2.11,3.92.92,8,.74,12.11a1.91,1.91,0,0,1-1.59,1.21C677.71,101.42,677.72,95.56,683.19,91.5Z" transform="translate(-10.66 -11.51)" fill="#dd2d3d"/><path d="M683.17,105.44l.85-.75c1.12-.91,1-2.19,1-3.43a2.06,2.06,0,0,1,1.61-2.21,2.13,2.13,0,0,1,2.47,1.24,11.88,11.88,0,0,0,3.8,4.49l-.07-.06C689.7,107.61,687.31,107.78,683.17,105.44Z" transform="translate(-10.66 -11.51)" fill="#db2335"/><path d="M692.94,104.78c-2.69.25-3.47-1.86-4.57-3.61-.42-.66-.63-1.86-1.79-1.45-.86.31-.5,1.27-.53,2-.06,1.44.36,3.15-2,3a35.86,35.86,0,0,1,0-12.57,41.74,41.74,0,0,1,5.91.42c2.49.53,4,3.58,2.29,5-2.79,2.39-.82,3.94.14,5.84C692.58,103.86,692.75,104.32,692.94,104.78Z" transform="translate(-10.66 -11.51)" fill="#fdf6f6"/><path d="M687.22,97.5c-.44,0-1.2-.17-1.21-1.57s.62-1.68,1.8-1.58,2.34.31,2.29,1.77S688.88,97.36,687.22,97.5Z" transform="translate(-10.66 -11.51)" fill="#dc2839"/></svg>