<svg xmlns="http://www.w3.org/2000/svg" viewBox="0 0 340.37 71.05"><title>lighthouse-labs-dark</title><g id="a0a1c6ef-eb49-41bf-8bf6-9579035d8d12" data-name="Layer 1"><path d="M239.45,80.74V78.53H262.8v2.21Z" transform="translate(-15.61 -9.69)" fill="#fff"/><polygon points="222.11 12.26 207.13 5.45 207.13 3.06 225.03 11.16 225.03 13.35 207.13 21.42 207.13 19.06 222.11 12.26 222.11 12.26" fill="#fff"/><polygon points="235.58 0 227.12 8.46 244.66 8.46 235.58 0" fill="#fff"/><path d="M257.43,28.08H245.17V15.82h12.26ZM247,26.26h8.62V17.64H247Z" transform="translate(-15.61 -9.69)" fill="#fff"/><rect x="227.12" y="17.14" width="16.97" height="1.82" fill="#fff"/><path d="M261.23,78.71H241l3.41-51.31h13.86ZM243,76.89h16.35l-2.74-47.68H246.13Z" transform="translate(-15.61 -9.69)" fill="#fff"/><rect x="234.1" y="63.46" width="3.41" height="4.65" fill="#fff"/><polygon points="229.33 32.81 241.71 27.02 241.82 18.62 229.67 18.62 229.33 32.81" fill="#fff"/><polygon points="228.43 45.63 242.94 38.12 243.52 54.33 227.12 62.21 228.43 45.63" fill="#fff"/></g><g id="ff547800-393b-4234-b4c3-735e74c3c0d7" data-name="Layer 2"><path d="M15.61,74.24V47.76h2.82V71.71H32v2.53Z" transform="translate(-15.61 -9.69)" fill="#fff"/><path d="M36.89,74.24V47.76h2.82V74.24Z" transform="translate(-15.61 -9.69)" fill="#fff"/><path d="M62.58,71.38a9.5,9.5,0,0,1-7,3,8.47,8.47,0,0,1-6.24-2.22,8.64,8.64,0,0,1-2.61-4.35A42.41,42.41,0,0,1,46.36,61q0-3.93.22-6.29a8,8,0,0,1,2.62-4.76,8.66,8.66,0,0,1,6.4-2.39,9.65,9.65,0,0,1,4.25.87,13.63,13.63,0,0,1,3.66,2.73L61.62,53a13.56,13.56,0,0,0-2.84-2.29,6.51,6.51,0,0,0-3.18-.69,5.67,5.67,0,0,0-4.27,1.58,6.53,6.53,0,0,0-1.84,3.27A39,39,0,0,0,49.18,61a39.75,39.75,0,0,0,.31,6.09,6.33,6.33,0,0,0,1.82,3.29A5.77,5.77,0,0,0,55.6,71.9q3.12,0,4.44-1.58a7.85,7.85,0,0,0,1.65-2.77A10.21,10.21,0,0,0,62,64.81v-2H55.6V60.35h9.25v4.2a12.72,12.72,0,0,1-.52,3.91A7.65,7.65,0,0,1,62.58,71.38Z" transform="translate(-15.61 -9.69)" fill="#fff"/><path d="M86.68,74.24V62.13H74.13V74.24H71.31V47.76h2.82V59.61H86.68V47.76h2.83V74.24Z" transform="translate(-15.61 -9.69)" fill="#fff"/><path d="M104.92,50.29V74.24H102.1V50.29H94.45V47.76h18.12v2.53Z" transform="translate(-15.61 -9.69)" fill="#fff"/><path d="M132.88,74.24V62.13H120.33V74.24H117.5V47.76h2.83V59.61h12.55V47.76h2.82V74.24Z" transform="translate(-15.61 -9.69)" fill="#fff"/><path d="M158.35,71.68a9.18,9.18,0,0,1-6.76,2.74,8.47,8.47,0,0,1-6.24-2.22,8.64,8.64,0,0,1-2.61-4.35,42.41,42.41,0,0,1-.39-6.87q0-3.93.22-6.29a8,8,0,0,1,2.62-4.76,8.68,8.68,0,0,1,6.4-2.39,8.4,8.4,0,0,1,6.24,2.23,8.53,8.53,0,0,1,2.62,4.34,42.41,42.41,0,0,1,.39,6.87c0,2.63-.07,4.72-.22,6.3A7.2,7.2,0,0,1,158.35,71.68ZM156.16,52a6.05,6.05,0,0,0-4.57-1.9,5.67,5.67,0,0,0-4.27,1.58,6.53,6.53,0,0,0-1.84,3.27,39,39,0,0,0-.31,6.07,39.35,39.35,0,0,0,.31,6.07,6.42,6.42,0,0,0,1.84,3.29,6.59,6.59,0,0,0,8.54,0,6.41,6.41,0,0,0,1.84-3.27A38.55,38.55,0,0,0,158,61a39,39,0,0,0-.32-6.07A5.45,5.45,0,0,0,156.16,52Z" transform="translate(-15.61 -9.69)" fill="#fff"/><path d="M176.32,74.42a9.09,9.09,0,0,1-6.62-2.5,8.6,8.6,0,0,1-2.58-6.45V47.76h2.82V65.25a6.69,6.69,0,0,0,1.74,4.83,6.15,6.15,0,0,0,4.64,1.82A6.24,6.24,0,0,0,181,70.08a6.63,6.63,0,0,0,1.78-4.83V47.76h2.82V65.47a8.57,8.57,0,0,1-2.6,6.47A9.25,9.25,0,0,1,176.32,74.42Z" transform="translate(-15.61 -9.69)" fill="#fff"/><path d="M199.64,74.42a14.32,14.32,0,0,1-5.08-.78,11.52,11.52,0,0,1-4-2.71L192.51,69a9.65,9.65,0,0,0,3.25,2.25,10.88,10.88,0,0,0,4,.65,7.26,7.26,0,0,0,4.57-1.3A4.32,4.32,0,0,0,206,67a3.89,3.89,0,0,0-.93-3,5.53,5.53,0,0,0-1.65-1.08,13.31,13.31,0,0,0-2.14-.48L198.16,62a9.8,9.8,0,0,1-5-2.16A6,6,0,0,1,191.29,55a6.92,6.92,0,0,1,2.28-5.42,9,9,0,0,1,6.18-2,12.35,12.35,0,0,1,4.33.67,11.39,11.39,0,0,1,3.55,2.22l-1.82,1.83a8.85,8.85,0,0,0-2.69-1.7,9.61,9.61,0,0,0-3.48-.57,5.93,5.93,0,0,0-4.1,1.32,4.57,4.57,0,0,0-1.47,3.58,3.53,3.53,0,0,0,.89,2.77,6.86,6.86,0,0,0,1.86,1.15,9.84,9.84,0,0,0,2,.57l2.89.45a12.62,12.62,0,0,1,2.9.69,9.91,9.91,0,0,1,2.62,1.74c1,.88,1.54,2.44,1.54,4.66a6.7,6.7,0,0,1-2.47,5.48A10.21,10.21,0,0,1,199.64,74.42Z" transform="translate(-15.61 -9.69)" fill="#fff"/><path d="M214.68,74.24V47.76H231.1v2.53H217.51v9.32h11.58v2.52H217.51v9.58H231.1v2.53Z" transform="translate(-15.61 -9.69)" fill="#fff"/><path d="M271.28,74.35V47.87h2.82V71.82h13.52v2.53Z" transform="translate(-15.61 -9.69)" fill="#fff"/><path d="M307.93,74.36l-2.08-6H294.36l-2.17,6h-3l9.73-26.48h2.38L311,74.35ZM300.13,52l-4.95,13.91H305Z" transform="translate(-15.61 -9.69)" fill="#fff"/><path d="M325.53,74.35H315.25V47.87h9.95a8.18,8.18,0,0,1,5.64,1.9A6.5,6.5,0,0,1,333,54.93a6.17,6.17,0,0,1-1.08,3.6,5.74,5.74,0,0,1-2.82,2.19A6.48,6.48,0,0,1,333.4,67a6.92,6.92,0,0,1-2.11,5.44A8.29,8.29,0,0,1,325.53,74.35ZM325,50.4h-6.9v9.17H325a5.81,5.81,0,0,0,3.77-1.15A4.15,4.15,0,0,0,330.17,55a4.12,4.12,0,0,0-1.43-3.42A5.81,5.81,0,0,0,325,50.4Zm.3,11.69h-7.2v9.73h7.2a5.48,5.48,0,0,0,3.88-1.32,5.15,5.15,0,0,0,0-7.1A5.52,5.52,0,0,0,325.27,62.09Z" transform="translate(-15.61 -9.69)" fill="#fff"/><path d="M346.85,74.54a14.14,14.14,0,0,1-5.09-.79,11.26,11.26,0,0,1-4-2.71l1.93-1.93A9.46,9.46,0,0,0,343,71.36a10.86,10.86,0,0,0,3.95.65,7.26,7.26,0,0,0,4.57-1.3,4.32,4.32,0,0,0,1.67-3.6,3.91,3.91,0,0,0-.93-3A5.73,5.73,0,0,0,350.58,63a13.06,13.06,0,0,0-2.14-.48l-3.08-.48a9.87,9.87,0,0,1-5-2.15,6.05,6.05,0,0,1-1.86-4.8,6.9,6.9,0,0,1,2.29-5.42,8.93,8.93,0,0,1,6.18-2,12.43,12.43,0,0,1,4.33.67,11.21,11.21,0,0,1,3.54,2.23L353,52.37a8.52,8.52,0,0,0-2.69-1.69,9.38,9.38,0,0,0-3.47-.58,5.94,5.94,0,0,0-4.11,1.32A4.59,4.59,0,0,0,341.28,55a3.5,3.5,0,0,0,.89,2.77A6.66,6.66,0,0,0,344,58.92a10.75,10.75,0,0,0,2,.58l2.9.44a13.64,13.64,0,0,1,2.89.69,10,10,0,0,1,2.62,1.75c1,.87,1.54,2.43,1.54,4.65a6.7,6.7,0,0,1-2.47,5.48A10.18,10.18,0,0,1,346.85,74.54Z" transform="translate(-15.61 -9.69)" fill="#fff"/></g></svg>