<svg id="f46ca65b-7bc7-43e6-b1ae-73ee4cffcbc3" data-name="Layer 1" xmlns="http://www.w3.org/2000/svg" viewBox="0 0 340.2 71.3"><title>lighthouse-labs</title><path d="M239.4,80.9V78.7h23.4v2.2Z" transform="translate(-15.6 -9.6)" fill="#da5251"/><polygon id="eb8c954a-36dc-41c3-8d56-b19f1869b2e3" data-name="SVGID" points="222.1 12.3 207.1 5.5 207.1 3.1 225 11.3 225 13.4 207.1 21.5 207.1 19.1 222.1 12.3" fill="#da5251"/><path d="M261.2,78.7l-2.9-50.1h1.3V26.8h-2.3V18.1h2.8L251,9.6l-8.5,8.5h2.4v8.7h-2.4v1.8h1.6L241,78.7Zm-5.6-60.6v8.1H247V18.1Zm-2.5,58.8V73.2h-3.4v3.7H243l.4-5.3,15.3-7.3.7,12.6Zm-7.8-34.6,11.8-5.5.7,11.4-13.3,6.9Z" transform="translate(-15.6 -9.6)" fill="#012d3d"/><path d="M15.6,74.2V47.8h2.8v24H31.9v2.5H15.6Z" transform="translate(-15.6 -9.6)" fill="#012d3d"/><path d="M36.9,74.2V47.8h2.8V74.3H36.9Z" transform="translate(-15.6 -9.6)" fill="#012d3d"/><path d="M62.6,71.4a8,8,0,0,1-3.2,2.2,10,10,0,0,1-3.8.8c-2.7,0-4.8-.7-6.2-2.2a8,8,0,0,1-2.6-4.3,38.06,38.06,0,0,1-.4-6.9c0-2.6.1-4.7.2-6.3a7.71,7.71,0,0,1,2.6-4.8,8.6,8.6,0,0,1,6.4-2.4,9.72,9.72,0,0,1,4.3.9,16.42,16.42,0,0,1,3.7,2.7l-2,1.9a15.81,15.81,0,0,0-2.8-2.3,6.08,6.08,0,0,0-3.2-.7,5.58,5.58,0,0,0-4.3,1.6,6.4,6.4,0,0,0-1.8,3.3,41.12,41.12,0,0,0-.3,6.1,42.06,42.06,0,0,0,.3,6.1,6,6,0,0,0,1.8,3.3,5.77,5.77,0,0,0,4.3,1.5c2.1,0,3.6-.5,4.4-1.6a9.91,9.91,0,0,0,1.7-2.8,11.15,11.15,0,0,0,.3-2.7v-2H55.6V60.3h9.2v4.2a14.79,14.79,0,0,1-.5,3.9A7.53,7.53,0,0,1,62.6,71.4Z" transform="translate(-15.6 -9.6)" fill="#012d3d"/><path d="M86.7,74.2V62.1H74.1V74.2H71.3V47.8h2.8V59.6H86.7V47.8h2.8V74.3H86.7Z" transform="translate(-15.6 -9.6)" fill="#012d3d"/><path d="M104.9,50.3v24h-2.8v-24H94.5V47.8h18.1v2.5Z" transform="translate(-15.6 -9.6)" fill="#012d3d"/><path d="M132.9,74.2V62.1H120.3V74.2h-2.8V47.8h2.8V59.6h12.6V47.8h2.8V74.3h-2.8Z" transform="translate(-15.6 -9.6)" fill="#012d3d"/><path d="M158.4,71.7a9.27,9.27,0,0,1-6.8,2.7c-2.7,0-4.8-.7-6.2-2.2a8.72,8.72,0,0,1-2.6-4.3,38.06,38.06,0,0,1-.4-6.9c0-2.6.1-4.7.2-6.3a7.71,7.71,0,0,1,2.6-4.8,8.6,8.6,0,0,1,6.4-2.4c2.7,0,4.8.7,6.2,2.2a8.72,8.72,0,0,1,2.6,4.3,38.06,38.06,0,0,1,.4,6.9c0,2.6-.1,4.7-.2,6.3A7.37,7.37,0,0,1,158.4,71.7ZM156.2,52a5.89,5.89,0,0,0-4.6-1.9,5.58,5.58,0,0,0-4.3,1.6,6.4,6.4,0,0,0-1.8,3.3,41.12,41.12,0,0,0-.3,6.1,42.06,42.06,0,0,0,.3,6.1,6.4,6.4,0,0,0,1.8,3.3,5.81,5.81,0,0,0,4.3,1.6,5.58,5.58,0,0,0,4.3-1.6,6.4,6.4,0,0,0,1.8-3.3,41.12,41.12,0,0,0,.3-6.1,42.06,42.06,0,0,0-.3-6.1A5.37,5.37,0,0,0,156.2,52Z" transform="translate(-15.6 -9.6)" fill="#012d3d"/><path d="M176.3,74.4a8.9,8.9,0,0,1-6.6-2.5,8.67,8.67,0,0,1-2.6-6.4V47.8h2.8V65.3a6.85,6.85,0,0,0,1.7,4.8,6.18,6.18,0,0,0,4.6,1.8,6,6,0,0,0,4.6-1.8,6.49,6.49,0,0,0,1.8-4.8V47.8h2.8V65.5a8.57,8.57,0,0,1-9.1,8.9Z" transform="translate(-15.6 -9.6)" fill="#012d3d"/><path d="M199.6,74.4a15.16,15.16,0,0,1-5.1-.8,10.9,10.9,0,0,1-4-2.7l1.9-1.9a8.77,8.77,0,0,0,3.2,2.2,11.47,11.47,0,0,0,4,.7,7.19,7.19,0,0,0,4.6-1.3,4.46,4.46,0,0,0,1.7-3.6q0-2.25-.9-3a6.9,6.9,0,0,0-1.7-1.1,16.48,16.48,0,0,0-2.1-.5l-3.1-.5a9.25,9.25,0,0,1-5-2.2,6.24,6.24,0,0,1-1.9-4.8,6.8,6.8,0,0,1,2.3-5.4,8.74,8.74,0,0,1,6.2-2,11.08,11.08,0,0,1,4.3.7,10.24,10.24,0,0,1,3.5,2.2l-1.8,1.8a9.48,9.48,0,0,0-2.7-1.7,9.15,9.15,0,0,0-3.5-.6,5.78,5.78,0,0,0-4.1,1.3,4.61,4.61,0,0,0-1.5,3.6,3.62,3.62,0,0,0,.9,2.8,7.61,7.61,0,0,0,1.9,1.2,6.64,6.64,0,0,0,2,.6l2.9.4a13.68,13.68,0,0,1,2.9.7,12.49,12.49,0,0,1,2.6,1.7c1,.9,1.5,2.4,1.5,4.7a6.7,6.7,0,0,1-2.5,5.5C204.7,73.7,202.4,74.4,199.6,74.4Z" transform="translate(-15.6 -9.6)" fill="#012d3d"/><path d="M214.7,74.2V47.8h16.4v2.5H217.5v9.3h11.6v2.5H217.5v9.6h13.6v2.5Z" transform="translate(-15.6 -9.6)" fill="#012d3d"/><path d="M271.3,74.4V47.9h2.8v24h13.5v2.5Z" transform="translate(-15.6 -9.6)" fill="#012d3d"/><path d="M307.9,74.4l-2.1-6H294.3l-2.2,6h-3l9.7-26.5h2.4l9.7,26.5ZM300.1,52l-5,13.9H305Z" transform="translate(-15.6 -9.6)" fill="#012d3d"/><path d="M325.5,74.4H315.2V47.9h10a7.93,7.93,0,0,1,5.6,1.9A6.78,6.78,0,0,1,333,55a6.15,6.15,0,0,1-1.1,3.6,6,6,0,0,1-2.8,2.2,6.71,6.71,0,0,1,3.1,2.4,6.45,6.45,0,0,1,1.2,3.9,6.72,6.72,0,0,1-2.1,5.4A8.6,8.6,0,0,1,325.5,74.4Zm-.5-24h-6.9v9.2H325a5.77,5.77,0,0,0,3.8-1.2,4.08,4.08,0,0,0,1.4-3.5,4.29,4.29,0,0,0-1.4-3.4A6.56,6.56,0,0,0,325,50.4Zm.3,11.7h-7.2v9.7h7.2a5.58,5.58,0,0,0,3.9-1.3,5.2,5.2,0,0,0,0-7.1A5.58,5.58,0,0,0,325.3,62.1Z" transform="translate(-15.6 -9.6)" fill="#012d3d"/><path d="M346.8,74.5a15.16,15.16,0,0,1-5.1-.8,10.9,10.9,0,0,1-4-2.7l1.9-1.9a8.77,8.77,0,0,0,3.2,2.2,11.62,11.62,0,0,0,4,.6,7.19,7.19,0,0,0,4.6-1.3,4.46,4.46,0,0,0,1.7-3.6q0-2.25-.9-3a6.9,6.9,0,0,0-1.7-1.1,16.48,16.48,0,0,0-2.1-.5l-3.1-.5a9.25,9.25,0,0,1-5-2.2,6.24,6.24,0,0,1-1.9-4.8,6.8,6.8,0,0,1,2.3-5.4,8.74,8.74,0,0,1,6.2-2,11.08,11.08,0,0,1,4.3.7,10.24,10.24,0,0,1,3.5,2.2l-1.8,1.8a9.48,9.48,0,0,0-2.7-1.7,9.15,9.15,0,0,0-3.5-.6,5.78,5.78,0,0,0-4.1,1.3,4.61,4.61,0,0,0-1.5,3.6,3.62,3.62,0,0,0,.9,2.8,7.61,7.61,0,0,0,1.9,1.2,6.64,6.64,0,0,0,2,.6l2.9.4a13.68,13.68,0,0,1,2.9.7,12.49,12.49,0,0,1,2.6,1.7c1,.9,1.5,2.4,1.5,4.7a6.7,6.7,0,0,1-2.5,5.5C351.9,73.9,349.6,74.5,346.8,74.5Z" transform="translate(-15.6 -9.6)" fill="#012d3d"/></svg>