<?xml version="1.0" encoding="UTF-8"?>
<!-- Generator: Adobe Illustrator 23.0.1, SVG Export Plug-In . SVG Version: 6.00 Build 0)  -->
<svg version="1.1" id="Layer_1" xmlns="http://www.w3.org/2000/svg" xmlns:xlink="http://www.w3.org/1999/xlink" x="0px" y="0px" viewBox="0 0 1643.82 349.88" style="enable-background:new 0 0 1643.82 349.88;" xml:space="preserve">
<style type="text/css">
	.mn0{fill:#36393B;}
	.mn1{fill:url(#SVGID1);}
	.mn2{fill:url(#SVGID2);}
	.mn3{fill:url(#SVGID3);}
	.mn4{fill:url(#SVGID4);}
</style>
<g>
	<g>
		<path class="mn0" d="M482.24,3.68h40.21l65.38,101.6l65.38-101.6h40.21v214.87h-37.76V64.46l-67.84,101.3h-1.23L519.38,65.08    v153.48h-37.14V3.68z"/>
		<path class="mn0" d="M812.53,2.15h34.99l94.54,216.41h-39.9l-21.79-51.88h-101.6l-22.1,51.88h-38.68L812.53,2.15z M866.55,133.22    l-37.14-85.95l-36.83,85.95H866.55z"/>
		<path class="mn0" d="M966.62,3.68h95.77c27.01,0,48.19,7.98,62.01,21.49c11.36,11.67,17.8,27.63,17.8,46.35v0.61    c0,35.3-21.18,56.48-50.96,65.08l58.02,81.34h-44.82l-52.8-74.9h-47.27v74.9h-37.76V3.68z M1059.63,110.2    c27.01,0,44.2-14.12,44.2-35.91v-0.61c0-23.02-16.58-35.61-44.51-35.61h-54.95v72.14H1059.63z"/>
		<path class="mn0" d="M1166.75,111.73v-0.61C1166.75,50.04,1212.49,0,1277.57,0c39.6,0,63.54,13.81,84.11,33.46l-24.25,27.93    c-17.19-15.96-35.61-26.71-60.17-26.71c-40.83,0-70.91,33.77-70.91,75.82v0.61c0,42.05,29.78,76.13,70.91,76.13    c26.4,0,43.28-10.44,61.7-27.63l24.25,24.56c-22.41,23.33-46.96,38.06-87.18,38.06C1213.41,222.24,1166.75,173.43,1166.75,111.73z    "/>
		<path class="mn0" d="M1390.52,3.68h37.76v89.33h102.52V3.68h37.76v214.87h-37.76V128h-102.52v90.55h-37.76V3.68z"/>
	</g>
</g>
<g>
	<g>
		<g>
			<path class="mn0" d="M1610.53,14.53h9.9c2.79,0,4.98,0.83,6.41,2.22c1.17,1.21,1.84,2.85,1.84,4.79v0.06     c0,3.65-2.19,5.84-5.27,6.73l6,8.41h-4.63l-5.46-7.74h-4.89v7.74h-3.9V14.53z M1620.15,25.54c2.79,0,4.57-1.46,4.57-3.71v-0.06     c0-2.38-1.71-3.68-4.6-3.68h-5.68v7.46H1620.15z"/>
		</g>
	</g>
	<path class="mn0" d="M1618.83,51.27c-13.78,0-24.99-11.21-24.99-24.99s11.21-24.99,24.99-24.99s24.99,11.21,24.99,24.99   S1632.61,51.27,1618.83,51.27z M1618.83,4.29c-12.12,0-21.99,9.86-21.99,21.99s9.86,21.99,21.99,21.99s21.99-9.86,21.99-21.99   S1630.95,4.29,1618.83,4.29z"/>
</g>
<g>
	<g>
		<g>
			<g>
				<g>
					<linearGradient id="SVGID1" gradientUnits="userSpaceOnUse" x1="199.9515" y1="346.1503" x2="199.9515" y2="3.796">
						<stop offset="0" style="stop-color:#00AEEF"/>
						<stop offset="1" style="stop-color:#0067AB"/>
					</linearGradient>
					<polygon class="mn1" points="255.58,32.15 110.95,227.38 144.35,272.47 288.96,77.21      "/>
					<g>
						<linearGradient id="SVGID2" gradientUnits="userSpaceOnUse" x1="172.0334" y1="346.1503" x2="172.0334" y2="3.796">
							<stop offset="0" style="stop-color:#00AEEF"/>
							<stop offset="1" style="stop-color:#0067AB"/>
						</linearGradient>
						<polygon class="mn2" points="232.9,3.03 166.11,3.03 111.16,77.21 144.56,122.31       "/>
						<linearGradient id="SVGID3" gradientUnits="userSpaceOnUse" x1="282.9191" y1="346.1503" x2="282.9191" y2="3.796">
							<stop offset="0" style="stop-color:#00AEEF"/>
							<stop offset="1" style="stop-color:#0067AB"/>
						</linearGradient>
						<polygon class="mn3" points="277.85,3.03 332.79,77.21 166.25,302.08 199.65,347.18 399.59,77.21 344.65,3.03       "/>
					</g>
					<linearGradient id="SVGID4" gradientUnits="userSpaceOnUse" x1="61.1899" y1="346.1503" x2="61.1899" y2="3.796">
						<stop offset="0" style="stop-color:#00AEEF"/>
						<stop offset="1" style="stop-color:#0067AB"/>
					</linearGradient>
					<polygon class="mn4" points="121.74,3.03 54.94,3.03 0,77.21 88.98,197.36 122.38,152.26 66.8,77.21      "/>
				</g>
			</g>
		</g>
	</g>
</g>
<g>
	<path class="mn0" d="M483.12,283.47h9.67v11.3c4.27-7.03,11.05-12.68,22.22-12.68c15.69,0,24.86,10.54,24.86,25.99v40.3h-9.67   v-37.91c0-12.05-6.53-19.58-17.95-19.58c-11.17,0-19.46,8.16-19.46,20.34v37.16h-9.67V283.47z"/>
	<path class="mn0" d="M631.75,316.11v-0.25c0-18.7,13.18-33.77,31.13-33.77c19.21,0,30.25,15.32,30.25,34.27   c0,1.25,0,2.01-0.13,3.14h-51.47c1.38,14.06,11.3,21.97,22.85,21.97c8.91,0,15.19-3.64,20.46-9.16l6.03,5.4   c-6.53,7.28-14.44,12.18-26.74,12.18C646.31,349.88,631.75,336.19,631.75,316.11z M683.35,312.34c-1-11.8-7.78-22.09-20.71-22.09   c-11.3,0-19.83,9.42-21.09,22.09H683.35z"/>
	<path class="mn0" d="M788.79,331.17V292h-9.04v-8.54h9.04v-19.58h9.67v19.58h20.59V292h-20.59v37.91c0,7.91,4.39,10.8,10.92,10.8   c3.26,0,6.03-0.63,9.42-2.26v8.29c-3.39,1.76-7.03,2.76-11.67,2.76C796.7,349.5,788.79,344.35,788.79,331.17z"/>
	<path class="mn0" d="M905.91,283.47h10.29l17.07,52.1l17.45-52.35h8.03l17.58,52.35l17.07-52.1h10.04l-22.85,65.4h-8.41   l-17.45-51.22l-17.58,51.22h-8.54L905.91,283.47z"/>
	<path class="mn0" d="M1087.68,316.23v-0.25c0-18.33,14.31-33.89,33.89-33.89c19.46,0,33.77,15.32,33.77,33.64v0.25   c0,18.33-14.44,33.89-34.02,33.89C1101.86,349.88,1087.68,334.56,1087.68,316.23z M1145.42,316.23v-0.25   c0-13.93-10.42-25.36-24.1-25.36c-14.06,0-23.73,11.42-23.73,25.11v0.25c0,13.93,10.29,25.23,23.98,25.23   C1135.63,341.21,1145.42,329.92,1145.42,316.23z"/>
	<path class="mn0" d="M1249.36,283.47h9.67v16.95c4.77-10.8,14.19-18.58,26.49-18.08v10.42h-0.75c-14.19,0-25.73,10.17-25.73,29.75   v25.86h-9.67V283.47z"/>
	<path class="mn0" d="M1376.77,256.73h9.67V320l35.02-36.53h12.05l-27.24,27.87l28.12,37.03h-11.55l-23.22-30.25l-13.18,13.31v16.95   h-9.67V256.73z"/>
	<path class="mn0" d="M1519.37,340.08l4.9-6.9c7.03,5.27,14.81,8.29,22.47,8.29c7.78,0,13.43-4.02,13.43-10.29v-0.25   c0-6.53-7.66-9.04-16.19-11.42c-10.17-2.89-21.47-6.4-21.47-18.33v-0.25c0-11.17,9.29-18.58,22.09-18.58   c7.91,0,16.7,2.76,23.35,7.16l-4.39,7.28c-6.03-3.89-12.93-6.28-19.21-6.28c-7.66,0-12.55,4.02-12.55,9.42v0.25   c0,6.15,8.03,8.54,16.7,11.17c10.04,3.01,20.84,6.9,20.84,18.58v0.25c0,12.3-10.17,19.46-23.1,19.46   C1536.95,349.63,1526.65,345.99,1519.37,340.08z"/>
</g>
</svg>