<svg id="f0dc567b-1de9-4a78-a0d0-4197484caa9d" data-name="Layer 1" xmlns="http://www.w3.org/2000/svg" xmlns:xlink="http://www.w3.org/1999/xlink" viewBox="0 0 1643.82 349.89"><defs><linearGradient id="aa33757c-83d2-4f73-9d9f-e35a76e5477b" x1="199.95" y1="5.85" x2="199.95" y2="348.2" gradientTransform="matrix(1, 0, 0, -1, 0, 352)" gradientUnits="userSpaceOnUse"><stop offset="0" stop-color="#00aeef"/><stop offset="1" stop-color="#0067ab"/></linearGradient><linearGradient id="eaefbcc8-be85-41bb-822b-e0d6d82490c9" x1="172.03" y1="5.85" x2="172.03" y2="348.2" xlink:href="#aa33757c-83d2-4f73-9d9f-e35a76e5477b"/><linearGradient id="fef8fe3e-b31a-4e29-b4ef-16f2415290ac" x1="282.92" y1="5.85" x2="282.92" y2="348.2" xlink:href="#aa33757c-83d2-4f73-9d9f-e35a76e5477b"/><linearGradient id="be42b5fa-dadf-4656-a490-c211341e6c0f" x1="61.19" y1="5.85" x2="61.19" y2="348.2" xlink:href="#aa33757c-83d2-4f73-9d9f-e35a76e5477b"/></defs><title>march-networks</title><path d="M482.24,3.68h40.21l65.38,101.6L653.21,3.68h40.21V218.55H655.66V64.46l-67.84,101.3h-1.23L519.38,65.08V218.56H482.24Z" fill="#36393b"/><path d="M812.53,2.15h35l94.54,216.41h-39.9l-21.79-51.88H778.77l-22.1,51.88H718Zm54,131.07L829.41,47.27l-36.83,85.95Z" fill="#36393b"/><path d="M966.62,3.68h95.77c27,0,48.19,8,62,21.49,11.36,11.67,17.8,27.63,17.8,46.35v.61c0,35.3-21.18,56.48-51,65.08l58,81.34h-44.82l-52.8-74.9h-47.27v74.9H966.61V3.68Zm93,106.52c27,0,44.2-14.12,44.2-35.91v-.61c0-23-16.58-35.61-44.51-35.61h-54.95v72.14h55.26Z" fill="#36393b"/><path d="M1166.75,111.73v-.61C1166.75,50,1212.49,0,1277.57,0c39.6,0,63.54,13.81,84.11,33.46l-24.25,27.93c-17.19-16-35.61-26.71-60.17-26.71-40.83,0-70.91,33.77-70.91,75.82v.61c0,42.05,29.78,76.13,70.91,76.13,26.4,0,43.28-10.44,61.7-27.63l24.25,24.56c-22.41,23.33-47,38.06-87.18,38.06C1213.41,222.24,1166.75,173.43,1166.75,111.73Z" fill="#36393b"/><path d="M1390.52,3.68h37.76V93H1530.8V3.68h37.76V218.55H1530.8V128H1428.28v90.55h-37.76Z" fill="#36393b"/><path d="M1610.53,14.53h9.9a9,9,0,0,1,6.41,2.22,6.73,6.73,0,0,1,1.84,4.79v.06c0,3.65-2.19,5.84-5.27,6.73l6,8.41h-4.63L1619.32,29h-4.89v7.74h-3.9Zm9.62,11c2.79,0,4.57-1.46,4.57-3.71v-.06c0-2.38-1.71-3.68-4.6-3.68h-5.68v7.46h5.71Z" fill="#36393b"/><path d="M1618.83,51.27a25,25,0,1,1,25-25A25,25,0,0,1,1618.83,51.27Zm0-47a22,22,0,1,0,22,22A22,22,0,0,0,1618.83,4.29Z" fill="#36393b"/><polygon points="255.58 32.15 110.95 227.38 144.35 272.47 288.96 77.21 255.58 32.15" fill="url(#aa33757c-83d2-4f73-9d9f-e35a76e5477b)"/><polygon points="232.9 3.03 166.11 3.03 111.16 77.21 144.56 122.31 232.9 3.03" fill="url(#eaefbcc8-be85-41bb-822b-e0d6d82490c9)"/><polygon points="277.85 3.03 332.79 77.21 166.25 302.08 199.65 347.18 399.59 77.21 344.65 3.03 277.85 3.03" fill="url(#fef8fe3e-b31a-4e29-b4ef-16f2415290ac)"/><polygon points="121.74 3.03 54.94 3.03 0 77.21 88.98 197.36 122.38 152.26 66.8 77.21 121.74 3.03" fill="url(#be42b5fa-dadf-4656-a490-c211341e6c0f)"/><path d="M483.12,283.47h9.67v11.3c4.27-7,11-12.68,22.22-12.68,15.69,0,24.86,10.54,24.86,26v40.3H530.2V310.47c0-12.05-6.53-19.58-18-19.58-11.17,0-19.46,8.16-19.46,20.34v37.16h-9.67Z" fill="#36393b"/><path d="M631.75,316.11v-.25c0-18.7,13.18-33.77,31.13-33.77,19.21,0,30.25,15.32,30.25,34.27a24.42,24.42,0,0,1-.13,3.14H641.53c1.38,14.06,11.3,22,22.85,22,8.91,0,15.19-3.64,20.46-9.16l6,5.4c-6.53,7.28-14.44,12.18-26.74,12.18C646.31,349.88,631.75,336.19,631.75,316.11Zm51.6-3.77c-1-11.8-7.78-22.09-20.71-22.09-11.3,0-19.83,9.42-21.09,22.09Z" fill="#36393b"/><path d="M788.79,331.17V292h-9v-8.54h9V263.88h9.67v19.58h20.59V292H798.46v37.91c0,7.91,4.39,10.8,10.92,10.8a20.38,20.38,0,0,0,9.42-2.26v8.29a24.28,24.28,0,0,1-11.67,2.76C796.7,349.5,788.79,344.35,788.79,331.17Z" fill="#36393b"/><path d="M905.91,283.47H916.2l17.07,52.1,17.45-52.35h8l17.58,52.35,17.07-52.1h10l-22.85,65.4h-8.41l-17.45-51.22-17.58,51.22h-8.54Z" fill="#36393b"/><path d="M1087.68,316.23V316a33.83,33.83,0,0,1,67.66-.25V316a33.7,33.7,0,0,1-34,33.89A33.23,33.23,0,0,1,1087.68,316.23Zm57.74,0V316c0-13.93-10.42-25.36-24.1-25.36-14.06,0-23.73,11.42-23.73,25.11V316c0,13.93,10.29,25.23,24,25.23C1135.63,341.21,1145.42,329.92,1145.42,316.23Z" fill="#36393b"/><path d="M1249.36,283.47H1259v16.95c4.77-10.8,14.19-18.58,26.49-18.08v10.42h-.75c-14.19,0-25.73,10.17-25.73,29.75v25.86h-9.67v-64.9Z" fill="#36393b"/><path d="M1376.77,256.73h9.67V320l35-36.53h12l-27.24,27.87,28.12,37h-11.55l-23.22-30.25-13.18,13.31v16.95h-9.67Z" fill="#36393b"/><path d="M1519.37,340.08l4.9-6.9c7,5.27,14.81,8.29,22.47,8.29s13.43-4,13.43-10.29v-.25c0-6.53-7.66-9-16.19-11.42-10.17-2.89-21.47-6.4-21.47-18.33v-.25c0-11.17,9.29-18.58,22.09-18.58a44.31,44.31,0,0,1,23.35,7.16l-4.39,7.28c-6-3.89-12.93-6.28-19.21-6.28-7.66,0-12.55,4-12.55,9.42v.25c0,6.15,8,8.54,16.7,11.17,10,3,20.84,6.9,20.84,18.58v.25c0,12.3-10.17,19.46-23.1,19.46A44.67,44.67,0,0,1,1519.37,340.08Z" fill="#36393b"/></svg>