<svg id="fcdc9998-37b1-4d5b-8df5-9b7a75bc2739" data-name="Layer 1" xmlns="http://www.w3.org/2000/svg" viewBox="0 0 390.39 55.83"><title>martello</title><path d="M344.67,73.65H324.2V29.6c0-.77-.09-1-.87-1h-7.16c-1.08,0-2,.13-2,1.2V81.14a2.49,2.49,0,0,0,2.15,2.51h27.89c1.33,0,2-1.37,2-2.51V74.75C346.2,74,345.53,73.65,344.67,73.65Z" transform="translate(-54.77 -28.25)" fill="#231f20"/><path d="M302.08,28.65h-31.7c-.85,0-2.18.18-2.18,1V80.92a2.62,2.62,0,0,0,2.5,2.73h31.38c.86,0,1.12-1.73,1.12-2.51V74.75c0-.78-.26-1.1-1.12-1.1H278.2v-13h20.07c.77,0,1.93-1.62,1.93-2.48V51.71c0-.78-1.16-1.06-1.93-1.06H278.2v-13h23.88c.86,0,1.12-.88,1.12-1.66V29.6C303.2,28.83,302.94,28.65,302.08,28.65Z" transform="translate(-54.77 -28.25)" fill="#231f20"/><path d="M259.54,28.65H225.29c-.86,0-2.09,0-2.09,1V36c0,1,1.23,1.66,2.09,1.66H236.2V81.14a2.3,2.3,0,0,0,2.28,2.51h7.32c1.15,0,1.4-1.58,1.4-2.51V37.65h12.13a1.82,1.82,0,0,0,1.87-1.8V29.73C261.2,28.74,260.57,28.65,259.54,28.65Z" transform="translate(-54.77 -28.25)" fill="#231f20"/><path d="M218.75,45.12c0-9.26-7.63-16.47-17-16.47H179.51c-.86,0-2.31.18-2.31,1V81.14a2.54,2.54,0,0,0,2.31,2.51h6.31c1.11,0,1.34-1,1.38-2.51V61.65h9.59l10.36,21a1.59,1.59,0,0,0,1.45,1h8c1.58,0,1.88-1.76,1.33-2.77L207.23,61C214,58.25,218.75,52.29,218.75,45.12Zm-17.83,8.53H187.2v-16h13.72a8,8,0,0,1,7.71,7.81C208.63,49.82,205.05,53.65,200.92,53.65Z" transform="translate(-54.77 -28.25)" fill="#231f20"/><path d="M147,29.36c-.23-.47-.54-.71-1.32-.71h-.78a1.4,1.4,0,0,0-1.32.87L119.31,81.27a1.65,1.65,0,0,0,1.32,2.38h6.78a2.33,2.33,0,0,0,2.25-1.58l3.82-8.42h23.28l3.83,8.42a2.24,2.24,0,0,0,2.25,1.58h6.77a1.72,1.72,0,0,0,1.33-2.47ZM137.3,64.65l7.63-17h.23l7.79,17Z" transform="translate(-54.77 -28.25)" fill="#231f20"/><path d="M106.54,29.67c-.07-.63-.55-1-1.4-1h-1.25c-.7,0-1.09.05-1.32.52L85.44,64.65h-.23L68.07,29.17c-.24-.47-.56-.52-1.33-.52H65.5a1.33,1.33,0,0,0-1.41,1.18L54.83,81.5c-.24,1.34.26,2.15,1.48,2.15h7c1,0,1.22-.86,1.4-1.83l4.52-30.17h.23L83.26,82.52c.23.47.62,1.13,1.32,1.13H86a1.55,1.55,0,0,0,1.32-1.13l13.64-30.87h.23l4.59,30.17c.2,1,.61,1.83,1.48,1.83h7.09c1.12,0,1.66-.87,1.39-2.23Z" transform="translate(-54.77 -28.25)" fill="#231f20"/><path d="M383.67,73.65H363.2V29.6c0-.77-.09-1-.87-1h-7.16c-1.08,0-2,.13-2,1.2V81.14a2.49,2.49,0,0,0,2.15,2.51h27.89c1.33,0,2-1.37,2-2.51V74.75C385.2,74,384.53,73.65,383.67,73.65Z" transform="translate(-54.77 -28.25)" fill="#231f20"/><path d="M399.29,56.23a18,18,0,0,1,15.28-17.77V28.25a28,28,0,0,0,0,55.82V73.86A17.88,17.88,0,0,1,399.29,56.23Z" transform="translate(-54.77 -28.25)" fill="#cb2128"/><path d="M420.18,28.29V38.54A18.12,18.12,0,0,1,435,56.23a17.94,17.94,0,0,1-14.86,17.55V84a28,28,0,0,0,0-55.74Z" transform="translate(-54.77 -28.25)" fill="#cb2128"/></svg>