<svg width="100%" id="abe45b61-b149-45f4-8f5e-3166aeb13694" data-name="Layer 1" xmlns="http://www.w3.org/2000/svg" viewBox="0 0 381.95 332.12"><title>martello</title><path d="M342.66,405.86h-20V362.77c0-.76-.08-.94-.84-.94h-7c-1.06,0-1.93.13-1.93,1.18v50.18a2.44,2.44,0,0,0,2.11,2.45h27.29c1.3,0,1.91-1.34,1.91-2.45v-6.25C344.15,406.17,343.5,405.86,342.66,405.86Z" transform="translate(-59.02 -83.94)" fill="#231f20"/><path d="M301,361.83H270c-.84,0-2.15.18-2.15.94V413a2.57,2.57,0,0,0,2.45,2.67H301c.84,0,1.1-1.69,1.1-2.45v-6.25c0-.77-.26-1.08-1.1-1.08H277.62V393.14h19.63c.76,0,1.89-1.58,1.89-2.42V384.4c0-.77-1.13-1-1.89-1H277.62V370.64H301c.84,0,1.1-.87,1.1-1.62v-6.25C302.08,362,301.82,361.83,301,361.83Z" transform="translate(-59.02 -83.94)" fill="#231f20"/><path d="M259.36,361.83h-33.5c-.84,0-2.05,0-2.05.94V369c0,1,1.21,1.62,2.05,1.62h10.66v42.55a2.25,2.25,0,0,0,2.24,2.45h7.17c1.11,0,1.36-1.54,1.36-2.45V370.64h11.87a1.77,1.77,0,0,0,1.82-1.76v-6C261,361.93,260.37,361.83,259.36,361.83Z" transform="translate(-59.02 -83.94)" fill="#231f20"/><path d="M219.46,378a16.29,16.29,0,0,0-16.61-16.12H181.06c-.84,0-2.26.18-2.26.94v50.42a2.48,2.48,0,0,0,2.26,2.45h6.18c1.08,0,1.31-1,1.34-2.45V394.12H198l10.13,20.51a1.54,1.54,0,0,0,1.42,1h7.8c1.54,0,1.83-1.72,1.29-2.71l-10.44-19.47C214.82,390.79,219.46,385,219.46,378ZM202,386.29H188.58V370.64H202a7.8,7.8,0,0,1,7.55,7.63C209.56,382.54,206.05,386.29,202,386.29Z" transform="translate(-59.02 -83.94)" fill="#231f20"/><path d="M149.21,362.53a1.2,1.2,0,0,0-1.29-.7h-.76a1.39,1.39,0,0,0-1.3.85l-23.7,50.63a1.62,1.62,0,0,0,1.3,2.33h6.63a2.3,2.3,0,0,0,2.21-1.54l3.73-8.24h22.78l3.74,8.24a2.19,2.19,0,0,0,2.21,1.54h6.62a1.68,1.68,0,0,0,1.3-2.41Zm-9.44,34.53,7.46-16.64h.23l7.62,16.64Z" transform="translate(-59.02 -83.94)" fill="#231f20"/><path d="M109.67,362.83c-.07-.61-.54-1-1.37-1h-1.22c-.68,0-1.07.05-1.29.51L89,397.06H88.8L72,362.34c-.23-.46-.55-.51-1.29-.51H69.52A1.31,1.31,0,0,0,68.14,363l-9,50.56c-.25,1.31.24,2.1,1.44,2.1h6.86c1,0,1.19-.84,1.37-1.79l4.42-29.51h.23l13.48,30.2c.23.45.61,1.1,1.3,1.1h1.37a1.52,1.52,0,0,0,1.29-1.1l13.34-30.2h.23l4.49,29.51c.2,1,.59,1.79,1.45,1.79h6.93c1.1,0,1.63-.85,1.37-2.18Z" transform="translate(-59.02 -83.94)" fill="#231f20"/><path d="M380.82,405.86h-20V362.77c0-.76-.08-.94-.85-.94h-7c-1.06,0-1.93.13-1.93,1.18v50.18a2.43,2.43,0,0,0,2.1,2.45h27.29c1.3,0,1.91-1.34,1.91-2.45v-6.25C382.3,406.17,381.66,405.86,380.82,405.86Z" transform="translate(-59.02 -83.94)" fill="#231f20"/><path d="M396.09,388.82a17.67,17.67,0,0,1,15-17.39v-10a27.43,27.43,0,0,0,0,54.62v-10A17.49,17.49,0,0,1,396.09,388.82Z" transform="translate(-59.02 -83.94)" fill="#cb2128"/><path d="M416.53,361.48v10a17.49,17.49,0,0,1,0,34.48v10a27.43,27.43,0,0,0,0-54.53Z" transform="translate(-59.02 -83.94)" fill="#cb2128"/><path d="M173.28,192.56c0-40.38,31.72-74.25,71.49-76.94V83.94C186.93,86.57,141.68,134,141.68,192.55a107.44,107.44,0,0,0,103.09,108V268.85A76.71,76.71,0,0,1,173.28,192.56Z" transform="translate(-59.02 -83.94)" fill="#cb2029"/><path d="M258,84.15v31.67c38.36,4.18,68.76,37.41,68.76,76.74s-30.4,72-68.76,76.1v31.68a108.4,108.4,0,0,0,0-216.19Z" transform="translate(-59.02 -83.94)" fill="#cb2029"/><path d="M250,262.64a70.19,70.19,0,1,1,70.18-70,69.58,69.58,0,0,1-70.18,70" transform="translate(-59.02 -83.94)" fill="#cb2029"/><path d="M280.38,218.44h-7.21c-.7,0-1.34-1.17-1.5-1.72L267,186.22h-.23l-13.84,31.23a1.46,1.46,0,0,1-1.34,1h-1.43a1.54,1.54,0,0,1-1.34-1l-14-31.23h-.24L230,216.75c-.08.55-.71,1.72-1.43,1.72h-7.12a1.71,1.71,0,0,1-1.5-2.14l9.39-53.48c.08-.64.55-1.52,1.43-1.52H232a1.42,1.42,0,0,1,1.34.77l17.44,37.31H251l17.38-37.33a1.38,1.38,0,0,1,1.35-.77H271a1.46,1.46,0,0,1,1.42,1.36l9.36,53.56a1.68,1.68,0,0,1-1.41,2.21" transform="translate(-59.02 -83.94)" fill="#fff"/></svg>