<svg width="100%" id="a15521ee-67a0-40d4-968e-8423b4fc770e" data-name="Layer 1" xmlns="http://www.w3.org/2000/svg" viewBox="0 0 35 45.7"><title>rbc</title><path d="M34.5,39.7a2.67,2.67,0,0,1-1.8,2.8,42.66,42.66,0,0,1-15.2,2.7A42.66,42.66,0,0,1,2.3,42.5,2.67,2.67,0,0,1,.5,39.7V.5h34V39.7" fill="#0059b3"/><path d="M34.5,39.7a2.67,2.67,0,0,1-1.8,2.8,42.66,42.66,0,0,1-15.2,2.7A42.66,42.66,0,0,1,2.3,42.5,2.67,2.67,0,0,1,.5,39.7V.5h34Z" fill="none" stroke="#fff"/><path d="M9.6,24.4c-4.7-2.9-6.3-4.2-6.4-6.2a7.72,7.72,0,0,1,.2-1.5L3,16.4a3.61,3.61,0,0,0-.6,2A4.71,4.71,0,0,0,3.2,21a11,11,0,0,0,3.1,2.9,11.82,11.82,0,0,1,3.8,4.7h.3V26.7c2.5,1.4,4.7,2.7,5.8,5.1h.3c-.5-2.4-1.9-4.3-6.9-7.4M23.4,18A6.61,6.61,0,0,0,21,20l2.1-.1A10.5,10.5,0,0,1,23.4,18ZM31,25.5a4.71,4.71,0,0,0,.4-1.6l-3.1-.2a7.94,7.94,0,0,1-.6,2.2Zm-3.3-7.7a15.43,15.43,0,0,1,.5,1.7l1.8-.1A6.34,6.34,0,0,0,27.7,17.8Zm-.8,1.8a10.2,10.2,0,0,0-.9-2.2H25a15.46,15.46,0,0,0-.7,2.3Zm1.5,1a17,17,0,0,1,.1,2.2l3-.2a6,6,0,0,0-.6-1.9Zm-1,2.2a9.08,9.08,0,0,0-.3-2.3l-3-.1c-.2.9-.3,1.8-.4,2.6Zm.4-6.4.4-.5-.5-.7.1-.2,1.5.8-.3,1a9.22,9.22,0,0,1,.8.5l1-1.6-2.5-1.3H22.7l-4.6,2.7A10.4,10.4,0,0,1,20.3,19a6.78,6.78,0,0,1,5.5-2.9A8.08,8.08,0,0,1,27.8,16.4Zm-11.3-.1L19,14.8a3.29,3.29,0,0,0-1.7-.4,23.42,23.42,0,0,0-3,.5C14.6,15.1,15.8,15.8,16.5,16.3Zm.6-5.7a1.77,1.77,0,0,0-1.9.4,2.92,2.92,0,0,0,.9.2A1.9,1.9,0,0,0,17.1,10.6ZM31.3,31.9H31c0-1.8-1.6-2.2-3.3-2.2H22.4a8.78,8.78,0,0,1,.1,2.8h-.3c-.5-3.9-2.7-5.9-5.8-8v1.8h-.3a11.9,11.9,0,0,0-4.4-4.8l-1.4-1v1.9H10a13.94,13.94,0,0,0-3.9-5.1c-2-1.8-2.9-2.9-3.3-4.2a5.7,5.7,0,0,1-.4-2.2A3.82,3.82,0,0,1,4.1,7.5v.7a3.41,3.41,0,0,0-.7,2.2,6.35,6.35,0,0,0,.5,2.3c1.2,2.2,5,4.9,7.5,6.5,7.7,5.1,9.2,6,10.5,8.8a8.34,8.34,0,0,1,.4,1.2c1.1-.2,5.1-.8,5.9-.9.1,0,.4-.1.6-.1a5.51,5.51,0,0,0,1.7-1.7l-2.9-.2a5.94,5.94,0,0,1-.4.8H27c.1-.3.1-.6.2-.9l-.8-.1v-.2l.8-.1a9.34,9.34,0,0,0,.2-2.3l-3.7-.2v1.1h-.2c-.1-.4-.1-.7-.2-1.1h-.8v-.2h.8a24.37,24.37,0,0,1-.1-2.7L21,20.3l.3.6a6.18,6.18,0,0,1,.2,3.5h-.3a6.06,6.06,0,0,0-.6-2.4c-.6-1.4-1.9-2.7-4.2-4.1v1.8h-.3c-.7-2.4-2.6-3.7-5.4-5.1-2.3-1.2-3-2.6-2.9-4.8l.8.5A3.45,3.45,0,0,0,12,13.5a12.65,12.65,0,0,0,2.8-.3,5.69,5.69,0,0,1,3.4-.1V11.9h-.8a2.73,2.73,0,0,1-1.6.5A2.43,2.43,0,0,1,13.2,10c0-1.7,1.4-1.9,2.5-1.9h2a1.07,1.07,0,0,0,.6-.2.76.76,0,0,0,.2-.4V5.4H13.2V7.5l-2-.8V6.2h1V5.4H8.7V3.7H7.5A1.42,1.42,0,0,0,6,5c0,.9.3,1.6,1.2,1.6h.2v1H7.2A2.63,2.63,0,0,1,4.5,4.9a2.85,2.85,0,0,1,3-2.8h2.6V3.8h10V6.4A6.6,6.6,0,0,1,20,7.8a1.37,1.37,0,0,1-.6,1.1,2.81,2.81,0,0,1-1.5.3,10.87,10.87,0,0,1-1.8-.1c-1.1-.1-1.5.4-1.5.8v.3a2.18,2.18,0,0,1,2.1-.4c1.5.5,1.9.5,2.7-.1l.1.2a2.25,2.25,0,0,1-.5.5h.7v4L22,13h6.4l3.1,1.6a1.16,1.16,0,0,1,.6.8,1.34,1.34,0,0,1-.2.9c-.1.2-.8,1.4-1.2,2a6.67,6.67,0,0,1,1.8,4.6,6.78,6.78,0,0,1-2.6,5.4,3.31,3.31,0,0,1,1.9,1.4l-.5,2.2" fill="#ffdf01"/><path d="M17.7,40.4H16.5V36.9h1.2c1.6,0,2.2.5,2.2,1.7S19,40.4,17.7,40.4Zm-.1-6.9c1,0,1.6.2,1.6,1.2s-.9,1.4-1.9,1.4h-.9V33.5Zm1.9,2.9a1.84,1.84,0,0,0,1.7-1.8c0-.9-.4-1.9-3.1-1.9H13.6v.1a1.33,1.33,0,0,1,.5.3,1.7,1.7,0,0,1,.4,1.3v6.8h3.7c2.1,0,3.5-.8,3.5-2.6.1-1.5-1-2.1-2.2-2.2M6.8,33.5H8.1c1.1,0,1.7.3,1.7,1.5a1.69,1.69,0,0,1-1.9,1.7h-1V33.5Zm3.5,7.7h2.4l-3.1-4c1.2-.3,2.2-1,2.2-2.3,0-1.5-.9-2.2-3.1-2.2H3.9v.1a2.19,2.19,0,0,1,.5.3,2.08,2.08,0,0,1,.4,1.5v6.6h2V37.4h.7l2.8,3.8m19.4-7.3a1.92,1.92,0,0,1,.7.7h.1l.4-1.4a5.26,5.26,0,0,0-2.6-.5c-2.8,0-4.8,1.4-4.8,4.4,0,3.4,2.5,4.3,4.6,4.3a4.94,4.94,0,0,0,2.8-.6v-1a3.19,3.19,0,0,1-2.2.7c-1.3,0-3.1-.6-3.1-3.4,0-2.6,1.1-3.4,2.6-3.4a1.67,1.67,0,0,1,1.5.2" fill="#fff"/></svg>