<svg id="f500bc85-e321-480a-83ac-afdef15a29da" data-name="Layer 1" xmlns="http://www.w3.org/2000/svg" viewBox="0 0 2592.13 864.67"><title>rossVideo</title><path d="M247.2,639l178-533.2H698.1q75.9,0,111.6,13.1t48.5,48.6q12.75,35.4-4.3,86.4c-9.9,29.6-24.6,55.1-44.4,76.6a243.2,243.2,0,0,1-69.1,52.2q-25.2,12.75-64.6,21.1c17.3,6.6,29.3,13.1,36,19.7,4.6,4.4,10.2,13.7,16.9,28.1s10.6,25.3,11.9,33.1L768.4,639h-185L550.3,476c-4-21.1-9.4-34.8-15.9-41.1-9.1-8.2-21-12.4-36-12.4H484L411.7,639Zm270.4-317.2h69c7.5,0,22.7-2.4,45.8-7.3,11.6-2.2,22.3-7.8,32.2-16.7s16.7-19.3,20.6-30.9c5.8-17.2,4.7-30.4-3-39.6s-26.6-13.8-56.5-13.8H553.8Z" transform="translate(-46.87 -25.96)" fill="#e1251b"/><path d="M875.7,372.76q41.85-126.3,134.9-196.6t217.1-70.3q127.35,0,173.2,69.1t4.6,193.6q-30,90.45-79.3,148.3t-116.9,90q-67.65,32.25-152.4,32.2-86.25,0-133.6-27.8t-62.4-88Q845.6,463.26,875.7,372.76Zm157.3.7q-25.95,78.15-8.6,112.2c11.5,22.8,33.8,34.1,66.8,34.1q50.7,0,89.7-33.4,38.85-33.45,67.6-120,24.15-72.75,6.3-106.4c-11.9-22.4-34.5-33.6-67.6-33.6-31.7,0-61.1,11.4-87.8,34.1Q1059.05,294.81,1033,373.46Z" transform="translate(-46.87 -25.96)" fill="#e1251b"/><path d="M1430.7,458.36l153.6-9.4c-4.9,24.5-4.6,43.2,1.1,56.1,9.4,20.8,29.1,31.1,59.4,31.1,22.6,0,41.7-5.3,57.5-15.9s26-22.9,30.7-36.9c4.5-13.3,2.6-25.2-5.5-35.7s-31.8-20.4-71-29.8q-96.15-23.4-127.5-62.4-31.65-38.85-11.5-99.1,13.2-39.6,47.9-74.8t87.3-55.4q52.65-20.1,132.6-20.1,98.1,0,137.3,36.6t22.2,116.5l-152,8.7q5.7-34.65-8.1-50.4t-47.2-15.8c-18.4,0-33.6,3.9-45.5,11.7s-19.8,17.3-23.5,28.5c-2.8,8.2-1.4,15.5,4.2,22.1,5.2,6.8,20.7,13.1,46.7,18.9q96.15,22.5,133.4,45.4t46.2,56.9c6,22.7,4.4,48-5,76.1q-16.5,49.35-57.7,91t-97.3,63.3q-56.1,21.6-130.5,21.6-130.65,0-164-50.5Q1411.5,536.11,1430.7,458.36Z" transform="translate(-46.87 -25.96)" fill="#e1251b"/><path d="M1943.8,458.36l153.7-9.4q-7.5,36.75,1.1,56.1c9.3,20.8,29.1,31.1,59.4,31.1,22.6,0,41.7-5.3,57.5-15.9s26-22.9,30.7-36.9c4.4-13.3,2.6-25.2-5.5-35.7s-31.8-20.4-71.1-29.8q-96.15-23.4-127.5-62.4-31.65-38.85-11.5-99.1,13.2-39.6,47.9-74.8t87.3-55.4q52.65-20.1,132.6-20.1,98.1,0,137.3,36.6t22.3,116.5l-152,8.7q5.7-34.65-8.1-50.4t-47.3-15.8c-18.4,0-33.5,3.9-45.5,11.7s-19.8,17.3-23.5,28.5c-2.8,8.2-1.4,15.5,4.1,22.1q7.8,10.2,46.7,18.9,96.15,22.5,133.4,45.4t46.2,56.9c6.1,22.7,4.4,48-5,76.1-11.1,32.9-30.2,63.3-57.7,91a273.17,273.17,0,0,1-97.3,63.3q-56.1,21.6-130.4,21.6-130.5,0-164-50.5Q1924.6,536.11,1943.8,458.36Z" transform="translate(-46.87 -25.96)" fill="#e1251b"/><path d="M49.3,824.46s-6.2-8.7,1.2-13.6,14.8-24.2,187.6-41.5,1658.3-28.3,1990.7-18.6c191.3,5.6,220,4.6,230.3,6.5,5.6,1,7.8,10.8-7,11.7s-563.7,19.9-1121.6,38.4c-387.3,12.8-782.9,23.1-999.6,44.3-98.5,9.7-147,24.2-166.1,37.5a7.8,7.8,0,0,1-8.6.3C151.5,886.76,49.3,824.46,49.3,824.46Z" transform="translate(-46.87 -25.96)" fill="#e1251b"/><path d="M2515.2,64.56a62.54,62.54,0,0,1,14-20.2,65.73,65.73,0,0,1,20.6-13.5,64.77,64.77,0,0,1,70.2,13.5,65,65,0,0,1,13.9,20.2,62.37,62.37,0,0,1,5.1,25.2,63.26,63.26,0,0,1-5.1,25.6,65.9,65.9,0,0,1-13.9,20.4,61.57,61.57,0,0,1-20.4,13.5,67,67,0,0,1-49.8,0,63.47,63.47,0,0,1-20.6-13.5,66.18,66.18,0,0,1-14-20.4,63.6,63.6,0,0,1-5.1-25.6A60.1,60.1,0,0,1,2515.2,64.56Zm10.5,47a54,54,0,0,0,11.1,17.4,51,51,0,0,0,16.8,11.6,52.51,52.51,0,0,0,21,4.2,51.07,51.07,0,0,0,20.7-4.2A51.65,51.65,0,0,0,2612,129a52.35,52.35,0,0,0,11.1-17.4,58,58,0,0,0,4-21.9,55.83,55.83,0,0,0-4-21.4,53.07,53.07,0,0,0-11.1-17.2,51.73,51.73,0,0,0-37.4-15.7,52.51,52.51,0,0,0-21,4.2,50.76,50.76,0,0,0-16.8,11.5,52.5,52.5,0,0,0-11.1,17.2,56.19,56.19,0,0,0-4,21.4A58,58,0,0,0,2525.7,111.56Zm52.9-59c8.9,0,15.5,1.8,19.8,5.3s6.4,8.9,6.4,16.1c0,6.7-1.9,11.7-5.7,14.8a26.2,26.2,0,0,1-14.1,5.6l21.4,33.1h-12.5l-20.4-32.2h-12.3v32.2h-11.7V52.56Zm-5.1,33.2q3.9,0,7.5-.3a20.78,20.78,0,0,0,6.3-1.5,9.88,9.88,0,0,0,4.4-3.7,12.59,12.59,0,0,0,1.6-6.9,10.66,10.66,0,0,0-1.5-6A9.58,9.58,0,0,0,2588,64a16.48,16.48,0,0,0-5.3-1.6,39.89,39.89,0,0,0-5.9-.4h-15.4v23.8Z" transform="translate(-46.87 -25.96)" fill="#e1251b"/></svg>