<svg width="100%" id="f8a15398-0485-4454-94a4-38527893c6f6" data-name="f500bc85-e321-480a-83ac-afdef15a29da" 
  xmlns="http://www.w3.org/2000/svg" viewBox="0 0 2592.14 864.73">
  <title>rossVideo</title>
  <path d="M218.85,653.8l178-533.2h272.9q75.9,0,111.6,13.1t48.5,48.6q12.75,35.4-4.3,86.4c-9.9,29.6-24.6,55.1-44.4,76.6a242.92,242.92,0,0,1-69.1,52.2q-25.2,12.75-64.6,21.1c17.3,6.6,29.3,13.1,36,19.7,4.6,4.4,10.2,13.7,16.9,28.1s10.6,25.3,11.9,33.1l27.8,154.3h-185L522,490.8c-4-21.1-9.4-34.8-15.9-41.1-9.1-8.2-21-12.4-36-12.4h-14.4l-72.3,216.5Zm270.4-317.2h69c7.5,0,22.7-2.4,45.8-7.3,11.6-2.2,22.3-7.8,32.2-16.7a72,72,0,0,0,20.6-30.9c5.8-17.2,4.7-30.4-3-39.6s-26.6-13.8-56.5-13.8h-71.9Z" transform="translate(-18.52 -40.68)" fill="#e1251b"/>
  <path d="M847.35,387.56Q889.2,261.26,982.25,191t217.1-70.3q127.35,0,173.2,69.1t4.6,193.6q-30,90.45-79.3,148.3a349,349,0,0,1-116.9,90q-67.65,32.25-152.4,32.2-86.25,0-133.6-27.8t-62.4-88Q817.25,478.06,847.35,387.56Zm157.3.7q-25.95,78.15-8.6,112.2c11.5,22.8,33.8,34.1,66.8,34.1q50.7,0,89.7-33.4t67.6-120q24.15-72.75,6.3-106.4c-11.9-22.4-34.5-33.6-67.6-33.6-31.7,0-61.1,11.4-87.8,34.1q-40.35,34.35-66.4,113Z" transform="translate(-18.52 -40.68)" fill="#e1251b"/>
  <path d="M1402.35,473.16l153.6-9.4c-4.9,24.5-4.6,43.2,1.1,56.1,9.4,20.8,29.1,31.1,59.4,31.1,22.6,0,41.7-5.3,57.5-15.9s26-22.9,30.7-36.9c4.5-13.3,2.6-25.2-5.5-35.7s-31.8-20.4-71-29.8q-96.15-23.4-127.5-62.4-31.65-38.85-11.5-99.1,13.2-39.6,47.9-74.8t87.3-55.4q52.65-20.1,132.6-20.1,98.1,0,137.3,36.6t22.2,116.5l-152,8.7q5.7-34.65-8.1-50.4t-47.2-15.8c-18.4,0-33.6,3.9-45.5,11.7s-19.8,17.3-23.5,28.5c-2.8,8.2-1.4,15.5,4.2,22.1,5.2,6.8,20.7,13.1,46.7,18.9q96.15,22.5,133.4,45.4t46.2,56.9c6,22.7,4.4,48-5,76.1q-16.5,49.35-57.7,91a273.71,273.71,0,0,1-97.3,63.3q-56.1,21.6-130.5,21.6-130.65,0-164-50.5Q1383.15,550.91,1402.35,473.16Z" transform="translate(-18.52 -40.68)" fill="#e1251b"/>
  <path d="M1915.45,473.16l153.7-9.4q-7.5,36.75,1.1,56.1c9.3,20.8,29.1,31.1,59.4,31.1,22.6,0,41.7-5.3,57.5-15.9s26-22.9,30.7-36.9c4.4-13.3,2.6-25.2-5.5-35.7s-31.8-20.4-71.1-29.8q-96.15-23.4-127.5-62.4-31.65-38.85-11.5-99.1,13.2-39.6,47.9-74.8t87.3-55.4q52.65-20.1,132.6-20.1,98.1,0,137.3,36.6t22.3,116.5l-152,8.7q5.7-34.65-8.1-50.4t-47.3-15.8c-18.4,0-33.5,3.9-45.5,11.7s-19.8,17.3-23.5,28.5c-2.8,8.2-1.4,15.5,4.1,22.1q7.8,10.2,46.7,18.9,96.15,22.5,133.4,45.4t46.2,56.9c6.1,22.7,4.4,48-5,76.1-11.1,32.9-30.2,63.3-57.7,91a273,273,0,0,1-97.3,63.3q-56.1,21.6-130.4,21.6-130.5,0-164-50.5Q1896.25,550.91,1915.45,473.16Z" transform="translate(-18.52 -40.68)" fill="#e1251b"/>
  <path d="M21,839.26s-6.2-8.7,1.2-13.6,14.8-24.2,187.6-41.5,1658.3-28.3,1990.7-18.6c191.3,5.6,220,4.6,230.3,6.5,5.6,1,7.8,10.8-7,11.7s-563.7,19.9-1121.6,38.4c-387.3,12.8-782.9,23.1-999.6,44.3-98.5,9.7-147,24.2-166.1,37.5a7.78,7.78,0,0,1-8.6.3C123.15,901.56,21,839.26,21,839.26Z" transform="translate(-18.52 -40.68)" fill="#e1251b"/>
  <path d="M2486.85,79.36a62.44,62.44,0,0,1,14-20.2,65.56,65.56,0,0,1,20.6-13.5,64.54,64.54,0,0,1,84.1,33.7,62.4,62.4,0,0,1,5.1,25.2,63.21,63.21,0,0,1-5.1,25.6,65.79,65.79,0,0,1-13.9,20.4,61.61,61.61,0,0,1-20.4,13.5,67,67,0,0,1-49.8,0,63.5,63.5,0,0,1-20.6-13.5,66.09,66.09,0,0,1-14-20.4,63.58,63.58,0,0,1-5.1-25.6A60.05,60.05,0,0,1,2486.85,79.36Zm10.5,47a54.1,54.1,0,0,0,11.1,17.4,51,51,0,0,0,16.8,11.6,52.45,52.45,0,0,0,21,4.2,51,51,0,0,0,20.7-4.2,51.66,51.66,0,0,0,16.7-11.56,52.27,52.27,0,0,0,11.1-17.4,58.15,58.15,0,0,0,4-21.9,56,56,0,0,0-4-21.4,53.12,53.12,0,0,0-11.1-17.2,51.79,51.79,0,0,0-37.4-15.7,52.45,52.45,0,0,0-21,4.2,50.78,50.78,0,0,0-16.8,11.5,52.69,52.69,0,0,0-11.1,17.2,56.24,56.24,0,0,0-4,21.4A58,58,0,0,0,2497.35,126.36Zm52.9-59c8.9,0,15.5,1.8,19.8,5.3s6.4,8.9,6.4,16.1c0,6.7-1.9,11.7-5.7,14.8a26.15,26.15,0,0,1-14.1,5.6l21.4,33.1h-12.5l-20.4-32.2h-12.3v32.2h-11.7V67.36Zm-5.1,33.2q3.9,0,7.5-.3a20.71,20.71,0,0,0,6.3-1.5,9.91,9.91,0,0,0,4.4-3.7,12.59,12.59,0,0,0,1.6-6.9,10.72,10.72,0,0,0-1.5-6,9.56,9.56,0,0,0-3.8-3.36,16.43,16.43,0,0,0-5.3-1.6,40.15,40.15,0,0,0-5.9-.4h-15.4v23.8Z" transform="translate(-18.52 -40.68)" fill="#e1251b"/>
</svg>