<svg id="a0567c69-f66e-4e1c-bf7d-9cf98e60c57f" data-name="Layer 1" xmlns="http://www.w3.org/2000/svg" xmlns:xlink="http://www.w3.org/1999/xlink" viewBox="0 0 347 86"><defs><mask id="e84b47cb-22bb-4a6d-bee6-66186d9b1c8a" x="0" y="0" width="95.81" height="86" maskUnits="userSpaceOnUse"><g transform="translate(-47 -48)"><g id="a7da256f-485b-44dc-9fe1-ee8c4b971a11" data-name="mask-2"><path id="ef69b31d-35b5-4c6e-b861-3b29ad6248c4" data-name="path-1" d="M67.9,50.83,94.9,48l27,2.83,20.91,27.84L94.9,134,47,78.67Z" fill="#fff" fill-rule="evenodd"/></g></g></mask></defs><title>sketch-dark</title><g id="a640e3b8-f90e-4787-9de7-a25c5af1d3e0" data-name="Full-Logo"><path id="e323fa94-460c-4075-8efc-32a663f63cfd" data-name="Wordmark" d="M169.36,101.56l-.06-.88H162l0,1c.45,11,7.83,18.33,21,18.33,12.53,0,21-6.55,21-16.46,0-5.36-1.85-9.16-5.37-11.75-2.7-2-5.94-3.12-11.31-4.29l-1.18-.25L185,87c-9.75-2.06-12.85-3.84-12.85-9.17,0-5.5,4.48-9,12-9,7.29,0,11.91,4.49,12.12,11.55l0,.92h7.25l0-1c-.25-11-7.59-18.42-19.45-18.42-11.62,0-19.3,7-19.3,16.16,0,5.35,1.84,9.07,5.37,11.56,2.69,1.89,5.8,2.9,11.29,4l.84.17.84.17c5.2,1,7.49,1.67,9.58,2.9a7.39,7.39,0,0,1,3.88,7c0,5.83-4.87,9.16-13.41,9.16C175,113.08,169.91,109,169.36,101.56Zm50-40.61V60h-7.25v58.94h7.25V107.82l7.63-7.49,13.64,18.23.28.38h9l-1.15-1.53L232.11,95.33,247.47,80l1.62-1.62h-9.86l-.28.28L219.34,98.49Zm67.76,40.19H288l.06-.89c0-.16,0-.42,0-.73s0-.49,0-.71,0-.48,0-.67c0-11.93-7.85-20.73-19.45-20.73s-19.83,9.36-19.83,21.18c0,12.17,7.88,21.26,19.91,21.26a18.9,18.9,0,0,0,18.65-13.68l.38-1.23h-7.54l-.22.64a11.5,11.5,0,0,1-11.2,7.5c-6.93,0-11.76-4.79-12.63-11.94Zm-30.69-6.31c1.22-6.4,5.9-10.65,12.26-10.65,6.56,0,11.09,4.11,12.08,10.65Zm55.51-10h.94V78.33H304v-11h-7.26v11h-7.32v6.46h7.32v22.78c0,7.47,3.85,11.52,10.92,11.52a24,24,0,0,0,3.19-.2,9.56,9.56,0,0,0,1.14-.22l.69-.19v-6.77l-1.14.25-.27.05-.74.13a16,16,0,0,1-2,.18h-.19c-3.1,0-4.34-1.46-4.34-5.13V84.79Zm22.55,35.06c10,0,17.13-6.4,18.91-15.44l.22-1.14h-7.31l-.19.71c-1.53,5.77-5.67,9.1-11.63,9.1-7.44,0-12.58-5.91-12.58-14.41S327,84.18,334.47,84.18c6,0,10.1,3.33,11.63,9.11l.19.7h7.31l-.22-1.13c-1.78-9-8.87-15.45-18.91-15.45-11.66,0-19.91,9.43-19.91,21.26S322.82,119.85,334.47,119.85ZM367,61V60H359.7v58.94H367V95.1c0-7,4.22-11.07,10.62-11.07,6.11,0,9.18,3.56,9.18,10.3v24.61H394V93.27c0-9.53-5.86-15.86-15.52-15.86A15.86,15.86,0,0,0,367,81.88Z" transform="translate(-47 -48)" fill="#fff"/><g id="bcb42cc3-8854-4660-b7d0-0125f592a08d" data-name="Logo"><g id="a28b14b4-952f-4d50-a7e0-53d75d26d836" data-name="Icon"><g id="f794dc79-9004-4562-9e8f-6edd6f21b65c" data-name="Mask"><path id="a22618bd-f32f-4cc6-ab03-d20af917ebfe" data-name="path-1" d="M67.9,50.83,94.9,48l27,2.83,20.91,27.84L94.9,134,47,78.67Z" transform="translate(-47 -48)" fill="#fdb300" fill-rule="evenodd"/></g><g mask="url(#e84b47cb-22bb-4a6d-bee6-66186d9b1c8a)"><g id="a6999bb3-35d5-4b0b-8972-1db6f6574a37" data-name="Base"><polygon id="bb87563e-1583-4158-ae5f-c1f6dc7f0e6b" data-name="Path-54-Copy" points="19.4 30.67 47.9 86 0 30.67 19.4 30.67" fill="#ea6c00" fill-rule="evenodd"/><polygon id="b4103ad3-644b-4d78-a7a2-a121c4dc302e" data-name="Path-54-Copy-3" points="76.4 30.67 47.9 86 95.81 30.67 76.4 30.67" fill="#ea6c00" fill-rule="evenodd"/><polygon id="a7ede991-f0f9-45d5-b006-40785fa61616" data-name="Path-65" points="19.4 30.67 76.4 30.67 47.9 86 19.4 30.67" fill="#fdad00" fill-rule="evenodd"/></g></g><g mask="url(#e84b47cb-22bb-4a6d-bee6-66186d9b1c8a)"><g id="f1350585-bb59-45d1-b6f7-61b7d898a0ec" data-name="Crown"><polygon id="b432bf23-151b-458c-b579-880fed99a73f" data-name="Path-52" points="47.9 0 20.9 2.83 19.4 30.67 47.9 0" fill="#fdd231" fill-rule="evenodd"/><polygon id="a93dc5cb-9751-4efd-8795-814410af2ff9" data-name="Path-52-Copy-2" points="47.9 0 74.9 2.83 76.4 30.67 47.9 0" fill="#fdd231" fill-rule="evenodd"/><polygon id="bdf3b4da-f163-4671-ae3a-44444ad86e89" data-name="Path-52-Copy-3" points="95.81 30.67 74.9 2.83 76.4 30.67 95.81 30.67" fill="#fdad00" fill-rule="evenodd"/><polygon id="af1c961b-ed0e-4d97-9a5a-4d702421b65c" data-name="Path-52-Copy-9" points="0 30.67 20.9 2.83 19.4 30.67 0 30.67" fill="#fdad00" fill-rule="evenodd"/><polygon id="b02da59c-fdd6-4b9b-8d60-3dacd785c1e2" data-name="Path-66" points="47.9 0 19.4 30.67 76.4 30.67 47.9 0" fill="#feeeb7" fill-rule="evenodd"/></g></g></g></g></g></svg>