<svg id="a35af6ec-43b7-43f3-9dbc-38caf0c20af5" data-name="Layer 1" xmlns="http://www.w3.org/2000/svg" viewBox="0 0 377.97 86"><title>sketch</title><path d="M175.19,104.86l-.07-1H167l0,1.09c.5,12.18,8.71,20.25,23.31,20.25,13.93,0,23.4-7.24,23.4-18.19,0-5.92-2.06-10.11-6-13-3-2.21-6.61-3.45-12.58-4.74l-1.32-.28-1.3-.27c-10.84-2.28-14.28-4.25-14.28-10.13,0-6.08,5-10,13.31-10,8.12,0,13.25,5,13.49,12.76l0,1h8.05l0-1.07c-.28-12.17-8.44-20.35-21.63-20.35-12.93,0-21.46,7.78-21.46,17.85,0,5.9,2.05,10,6,12.76,3,2.1,6.45,3.21,12.55,4.44l.94.19.94.18c5.77,1.14,8.32,1.85,10.64,3.2,2.89,1.68,4.32,4.08,4.32,7.79,0,6.45-5.42,10.12-14.91,10.12C181.44,117.58,175.8,113,175.19,104.86ZM230.76,60V59h-8.07v65.1h8.07V111.77l8.49-8.27,15.16,20.13.31.42h10l-1.28-1.68L245,98,262,81l1.81-1.8h-11l-.3.31-21.81,22Zm75.35,44.39h1l.06-1c0-.17,0-.46.05-.8s0-.54,0-.8,0-.52,0-.73c0-13.18-8.73-22.89-21.63-22.89s-22.05,10.33-22.05,23.39c0,13.44,8.76,23.48,22.13,23.48,10.12,0,17.93-6,20.75-15.11l.42-1.36h-8.38l-.25.7c-1.77,5-6.56,8.29-12.45,8.29-7.71,0-13.08-5.29-14-13.19Zm-34.14-7c1.36-7.07,6.56-11.76,13.64-11.76,7.3,0,12.33,4.54,13.43,11.76ZM333.7,86.33h1.05V79.19h-9.83V67h-8.06V79.19h-8.15v7.14h8.15v25.16c0,8.25,4.28,12.73,12.14,12.73a25.55,25.55,0,0,0,3.54-.22,12.32,12.32,0,0,0,1.27-.24l.77-.21v-7.48l-1.27.28-.3.06-.83.13a15.91,15.91,0,0,1-2.22.2h-.21c-3.44,0-4.83-1.61-4.83-5.67V86.33Zm25.07,38.73c11.17,0,19.05-7.07,21-17.06l.24-1.25h-8.13l-.21.78c-1.69,6.37-6.29,10-12.93,10-8.27,0-14-6.53-14-15.92s5.7-16,14-16c6.64,0,11.24,3.68,12.93,10.06l.21.78H380l-.24-1.26c-2-10-9.86-17-21-17-13,0-22.13,10.41-22.13,23.47S345.82,125.06,358.77,125.06ZM394.89,60V59h-8.06v65.1h8.06V97.72c0-7.71,4.69-12.23,11.81-12.23,6.79,0,10.2,3.94,10.2,11.39v27.17H425V95.7c0-10.52-6.52-17.51-17.27-17.51a17.66,17.66,0,0,0-12.81,4.93Z" transform="translate(-47 -48)" fill-rule="evenodd"/><path d="M67.9,50.83,94.9,48l27,2.83,20.91,27.84L94.9,134,47,78.67Z" transform="translate(-47 -48)" fill="#fdb300" fill-rule="evenodd"/><polygon points="19.4 30.67 47.9 86 0 30.67 19.4 30.67" fill="#ea6c00" fill-rule="evenodd"/><polygon points="76.4 30.67 47.9 86 95.81 30.67 76.4 30.67" fill="#ea6c00" fill-rule="evenodd"/><polygon points="19.4 30.67 76.4 30.67 47.9 86 19.4 30.67" fill="#fdad00" fill-rule="evenodd"/><polygon points="47.9 0 20.9 2.83 19.4 30.67 47.9 0" fill="#fdd231" fill-rule="evenodd"/><polygon points="47.9 0 74.9 2.83 76.4 30.67 47.9 0" fill="#fdd231" fill-rule="evenodd"/><polygon points="95.81 30.67 74.9 2.83 76.4 30.67 95.81 30.67" fill="#fdad00" fill-rule="evenodd"/><polygon points="0 30.67 20.9 2.83 19.4 30.67 0 30.67" fill="#fdad00" fill-rule="evenodd"/><polygon points="47.9 0 19.4 30.67 76.4 30.67 47.9 0" fill="#feeeb7" fill-rule="evenodd"/></svg>