<svg id="a771bca8-3322-4668-a9bf-2812b8d0fd81" data-name="Layer 1" xmlns="http://www.w3.org/2000/svg" viewBox="0 0 512.15 70.7"><defs><style>.b504c87c-7776-4975-aa86-cd98f6473627,.be774b99-d400-4f28-b902-bb1411706c89{fill:#4e2817;}.be774b99-d400-4f28-b902-bb1411706c89{fill-rule:evenodd;}.a77be0ad-c497-4288-b4cc-3de273356570{fill:#f26922;}</style></defs><title>stickermule</title><path class="b504c87c-7776-4975-aa86-cd98f6473627" d="M176.5,146.1c-7.2,0-13.8-.8-19.6-6.6l7.5-7.5c3.8,3.8,8.7,4.3,12.3,4.3,4,0,8.1-1.3,8.1-4.8,0-2.3-1.2-3.9-4.9-4.2l-7.2-.7c-8.3-.8-13.4-4.4-13.4-12.9,0-9.5,8.4-14.7,17.8-14.7,7.2,0,13.2,1.2,17.6,5.4l-7.1,7.2c-2.7-2.4-6.7-3.1-10.7-3.1-4.6,0-6.5,2.1-6.5,4.4,0,1.7.7,3.6,4.8,4l7.2.7c9.1.9,13.7,5.7,13.7,13.5C196.1,141.3,187.4,146.1,176.5,146.1Z" transform="translate(-74.05 -80.3)"/><path class="b504c87c-7776-4975-aa86-cd98f6473627" d="M216.1,145.6c-9.4,0-13.3-6.6-13.3-13.2V109.6h-4.9v-8.7h4.9V87.3h11.5v13.6h8.1v8.7h-8.1v22.1c0,2.6,1.2,4.2,4,4.2h4.2v9.7Z" transform="translate(-74.05 -80.3)"/><path class="b504c87c-7776-4975-aa86-cd98f6473627" d="M227.5,91.7V82.3h11.8v9.4Zm.2,53.9v-46h11.5v46Z" transform="translate(-74.05 -80.3)"/><path class="b504c87c-7776-4975-aa86-cd98f6473627" d="M265.1,146.1c-9.2,0-20.6-4.9-20.6-23.6S255.9,99,265.1,99c6.4,0,11.1,1.9,15.2,6.2l-7.8,7.8c-2.4-2.6-4.4-3.6-7.4-3.6a7.93,7.93,0,0,0-6.5,3c-1.8,2.2-2.6,5.3-2.6,10.2s.8,8,2.6,10.3a8.06,8.06,0,0,0,6.5,3c3,0,5-1.1,7.4-3.6l7.8,7.7C276.2,144.1,271.5,146.1,265.1,146.1Z" transform="translate(-74.05 -80.3)"/><path class="b504c87c-7776-4975-aa86-cd98f6473627" d="M312,145.6l-11.3-19.2-4.9,5.5v13.7H284.3V82.7h11.5v35.7l15.3-18.8H325l-16.4,18.6,17.7,27.5H312Z" transform="translate(-74.05 -80.3)"/><path class="b504c87c-7776-4975-aa86-cd98f6473627" d="M335.8,126.1c0,5.9,3.6,10.2,10.1,10.2,5,0,7.5-1.4,10.4-4.3l7,6.8c-4.7,4.7-9.2,7.2-17.5,7.2-10.9,0-21.3-4.9-21.3-23.6,0-15,8.1-23.5,20.1-23.5,12.8,0,20.1,9.4,20.1,22V126H335.8Zm16.5-12.8a8,8,0,0,0-7.7-4.8,7.9,7.9,0,0,0-7.7,4.8,13,13,0,0,0-1.1,4.9h17.5A13,13,0,0,0,352.3,113.3Z" transform="translate(-74.05 -80.3)"/><path class="b504c87c-7776-4975-aa86-cd98f6473627" d="M395.1,112.1a7.61,7.61,0,0,0-6.1-2.7c-3.5,0-7.4,2.7-7.4,8.5v27.7H370.1v-46h11.2V104c2.2-2.7,6.6-4.9,11.6-4.9,4.5,0,7.7,1.1,10.9,4.3Z" transform="translate(-74.05 -80.3)"/><path class="be774b99-d400-4f28-b902-bb1411706c89" d="M121.5,150.7a9.52,9.52,0,0,1-2.5.3,4.51,4.51,0,0,1-2.4-.4c-.3-.2-.3-.7-.3-1s.1-.8.1-1.1a1.93,1.93,0,0,0,0-1.3c-.2-.3-.9-.2-1.3-.4s-.5-.8-.6-1.4c0-.2-.2-.4-.2-.5a11,11,0,0,1,.4-3.1c.2-1,.5-1.9.7-2.9a16.81,16.81,0,0,0,.2-4.5,6.67,6.67,0,0,1,0-2c.1-.6.4-1.1.5-1.7v-.6c0-.2.1-.3.1-.5,0-.4-.1-.9-.1-1.4a30.14,30.14,0,0,1,.1-4.3c0-.4.2-.8-.1-1a24.53,24.53,0,0,0-3.9.4,37.5,37.5,0,0,1-11.1-.2,2.77,2.77,0,0,0-.9-.1,15.47,15.47,0,0,1-6.2-2.9,5.5,5.5,0,0,1-.9-.7c-.3-.2-.6-.5-.9-.7a3.3,3.3,0,0,0-3.7,1,13.39,13.39,0,0,0-.6,1.2,6.12,6.12,0,0,0-.5,1.2c-.9,2-1.9,4-2.8,6-.5,1.2-1.1,2.5-1.5,3.8-.8,2.8-.1,6.5.6,9.2a6.89,6.89,0,0,1,.3.8,4.53,4.53,0,0,0,1.1,1.9c.3.2.7.4,1,.6a4.26,4.26,0,0,1,.9,1.5,5.94,5.94,0,0,1,.4.8c.3.6.5,1.1-.2,1.5a5.92,5.92,0,0,1-2,.4c-.3.1-.2.5-.4.7a5.94,5.94,0,0,1-.8.4,5.79,5.79,0,0,1-3.2,0,1.32,1.32,0,0,1-.9-.7c-.2-.6.3-1.3-.1-1.7-.2-.2-.6-.2-.9-.3a2.78,2.78,0,0,1-1.2-1.2c-.5-1.4-.2-3.5-.3-5.2,0-.5-.1-1-.1-1.6,0-1-.3-2-.4-3-.1-.5-.2-.9-.3-1.3-.2-.7-.3-1.5-.5-2.2a4.09,4.09,0,0,1,0-2.2c.1-.2.3-.4.4-.6a2.54,2.54,0,0,0,.2-1.2c-.1-.2-.6,0-.7-.2-.3-2.2-.6-4.3-.8-6.6a17.7,17.7,0,0,1-.1-2.3c-.1-1.5,0-3.1-.2-4.6l-.3-2.1c-.3-2-.8-4.5-.4-6.6a8.06,8.06,0,0,1,1.5-3.4c.5-.7,1.1-1.3,1.7-2a16.32,16.32,0,0,1,2-1.7c.5-.3,1-.7,1.5-1a12.28,12.28,0,0,1,4.2-1.1,19.93,19.93,0,0,1,4.9.2c1.5.3,3,.5,4.5.8s2.8.7,4.2,1c.2,0,.3.2.5.2a8.87,8.87,0,0,1,1.4.3,20.65,20.65,0,0,0,4.5.5,16.79,16.79,0,0,0,4.6-.4,1.42,1.42,0,0,1,.6-.2,1.7,1.7,0,0,1,.7-.1c.1,0,.3-.2.4-.3a15.92,15.92,0,0,0,2.2-1.3,7.68,7.68,0,0,1,1.8-1c.3-.1.7-.3,1-.4a6,6,0,0,0,2-.8,10.48,10.48,0,0,0,2.2-2c.7-.6,1.5-1.3,2.3-1.9,1.6-1.3,3.2-2.4,4.7-3.6a22,22,0,0,1,2.5-1.7,13.48,13.48,0,0,1,6-2.3,15,15,0,0,1,3,0c.3,0,.6.2.9.1s.5-.5.6-.8c.4-.7.6-1.1,1-1.9.2-.5.1-1,.6-1s.4,1.3.4,1.8a10.74,10.74,0,0,0,0,1.8,1.11,1.11,0,0,0,.9.7,1,1,0,0,0,.7-.4c.3-.2.5-.2.7-.4a14.2,14.2,0,0,0,1.3-1.2c.3-.3.9-1.2,1.4-1.1,1,.1,0,1.6-.2,2a28.5,28.5,0,0,1-1.6,3c-.2.4-.8,1-.8,1.5,0,.3.3.5.4.9.1.2.1.3.2.5.3.8.6,1.9.9,2.8a15.46,15.46,0,0,0,.7,2.3c.3.7.7,1.4,1,2.2.1.2.1.4.2.6a52.09,52.09,0,0,0,2,5,5.2,5.2,0,0,1,.7,2.3,4,4,0,0,1-1,2.3c-.2.4-.6,1-1,1.1a2.72,2.72,0,0,1-.9,0,5.39,5.39,0,0,1-1,.3,2,2,0,0,1-2-1.3c-.1-.2,0-.5-.1-.8a4.69,4.69,0,0,0-1.5-2.4,5.27,5.27,0,0,0-1.5-1.1c-.9-.5-1.8-.7-2.8-1.2a1.55,1.55,0,0,0-1.1-.3c-.5.1-1,.9-1.4,1.4-2.4,3.2-4.6,6.5-6.9,9.6a57.86,57.86,0,0,0-4.5,6.5c-.3.6-.5,1.3-.8,2s-.4,1.4-.6,2.2c-.9,2.6-1.2,5.8-2,8.5-.1.3-.1.6-.2.9-.4,1.4-.8,3-1.2,4.5a23,23,0,0,0-.5,4c0,1.4-.1,3.3.4,4.1.3.5,1.2.6,1.5,1.1.2.3.4,1,.7,1.4s.7.9.6,1.4a.86.86,0,0,1-.6.7c-.3.1-.7.1-1,.2C121.7,150.1,121.8,150.5,121.5,150.7Z" transform="translate(-74.05 -80.3)"/><path class="a77be0ad-c497-4288-b4cc-3de273356570" d="M455.4,99a17.86,17.86,0,0,0-13.8,5.8c-2.9-4-7.1-5.8-12.2-5.8a16.2,16.2,0,0,0-11.5,4.8V99.6H406.7v46h11.5V117.8c0-6.3,4.1-8.4,7.7-8.4s7.6,2.1,7.6,8.4v27.8H445V117.5c0-6,4.2-8.1,7.7-8.1s7.6,2.1,7.6,8.4v27.8h11.5V116.2c0-5-1.3-9.4-5-13.1A16.37,16.37,0,0,0,455.4,99Z" transform="translate(-74.05 -80.3)"/><path class="a77be0ad-c497-4288-b4cc-3de273356570" d="M505.3,127.4c0,6.3-4.1,8.4-7.7,8.4s-7.6-2.1-7.6-8.4V99.5H478.5V129c0,5,1,9.4,4.7,13.1a15,15,0,0,0,10.9,4.1,15.8,15.8,0,0,0,11.5-4.8v4.2h11.2v-46H505.3Z" transform="translate(-74.05 -80.3)"/><path class="a77be0ad-c497-4288-b4cc-3de273356570" d="M535.6,131.7v-49H524.1v49.7c0,6.5,4,13.2,13.4,13.2H544v-9.7h-4.4C536.7,135.9,535.6,134.5,535.6,131.7Z" transform="translate(-74.05 -80.3)"/><path class="a77be0ad-c497-4288-b4cc-3de273356570" d="M586.2,121c0-12.6-7.2-22-20.1-22-11.9,0-20.1,8.5-20.1,23.5,0,18.6,10.4,23.6,21.3,23.6,8.3,0,12.8-2.6,17.5-7.2l-7-6.8c-2.9,2.9-5.4,4.3-10.4,4.3-6.5,0-10.1-4.3-10.1-10.2h28.8V121Zm-28.8-2.7a12.6,12.6,0,0,1,1.1-4.9,8.58,8.58,0,0,1,15.4,0,13,13,0,0,1,1.1,4.9Z" transform="translate(-74.05 -80.3)"/></svg>