<svg id="e4ffb0aa-8b21-4e35-8648-12ecfbbc147d" data-name="Layer 1" xmlns="http://www.w3.org/2000/svg" viewBox="0 0 352.9 204.41"><title>stickermule</title><path d="M89.7,252.2c-6,0-11.3-.7-16.1-5.4l6.2-6.2c3.1,3.1,7.2,3.6,10.1,3.6,3.3,0,6.7-1.1,6.7-3.9,0-1.9-1-3.2-4-3.5l-6-.6c-6.8-.7-11-3.6-11-10.6,0-7.8,6.9-12.1,14.6-12.1,5.9,0,10.8,1,14.5,4.4l-5.8,5.9c-2.2-2-5.5-2.5-8.8-2.5-3.8,0-5.4,1.7-5.4,3.6,0,1.4.6,3,3.9,3.3l6,.6c7.5.7,11.3,4.7,11.3,11.1C105.7,248.2,98.6,252.2,89.7,252.2Z" transform="translate(-73.6 -47.79)" fill="#4e2817"/><path d="M122.2,251.8c-7.7,0-11-5.4-11-10.8V222.3h-4V215h4V203.8h9.4V215h6.7v7.2h-6.7v18.2c0,2.2,1,3.4,3.3,3.4h3.4v8Z" transform="translate(-73.6 -47.79)" fill="#4e2817"/><path d="M131.5,207.5v-7.7h9.7v7.7Zm.2,44.3V214h9.4v37.8Z" transform="translate(-73.6 -47.79)" fill="#4e2817"/><path d="M162.5,252.2c-7.6,0-16.9-4.1-16.9-19.4s9.4-19.3,16.9-19.3c5.2,0,9.2,1.6,12.5,5.1l-6.4,6.4c-2-2.1-3.6-3-6.1-3a6.5,6.5,0,0,0-5.4,2.5c-1.5,1.8-2.1,4.4-2.1,8.4s.7,6.6,2.1,8.4a6.5,6.5,0,0,0,5.4,2.5c2.5,0,4.1-.9,6.1-3l6.4,6.3A16.23,16.23,0,0,1,162.5,252.2Z" transform="translate(-73.6 -47.79)" fill="#4e2817"/><path d="M201,251.8,191.7,236l-4,4.5v11.3h-9.4V200.1h9.4v29.3l12.6-15.5h11.4l-13.5,15.3,14.5,22.6Z" transform="translate(-73.6 -47.79)" fill="#4e2817"/><path d="M220.6,235.8c0,4.9,3,8.4,8.3,8.4a10.61,10.61,0,0,0,8.6-3.6l5.7,5.6c-3.8,3.8-7.6,6-14.4,6-8.9,0-17.5-4.1-17.5-19.4,0-12.3,6.7-19.3,16.5-19.3,10.5,0,16.5,7.7,16.5,18.1v4.2Zm13.5-10.5a6.44,6.44,0,0,0-6.3-3.9,6.58,6.58,0,0,0-6.3,3.9,10.72,10.72,0,0,0-.9,4.1H235A10.72,10.72,0,0,0,234.1,225.3Z" transform="translate(-73.6 -47.79)" fill="#4e2817"/><path d="M269.3,224.3a6.27,6.27,0,0,0-5-2.3c-2.9,0-6.1,2.2-6.1,7v22.8h-9.4V214H258v3.6a12.81,12.81,0,0,1,9.5-4.1,11.08,11.08,0,0,1,8.9,3.6Z" transform="translate(-73.6 -47.79)" fill="#4e2817"/><path d="M318.9,213.5a14.54,14.54,0,0,0-11.3,4.8,11.63,11.63,0,0,0-10-4.8,13.15,13.15,0,0,0-9.4,3.9V214H279v37.8h9.4V228.9c0-5.2,3.3-6.9,6.3-6.9s6.2,1.7,6.2,6.9v22.9h9.4V228.7c0-4.9,3.4-6.7,6.3-6.7s6.2,1.7,6.2,6.9v22.9h9.4V227.6a14.67,14.67,0,0,0-4.1-10.8A13.18,13.18,0,0,0,318.9,213.5Z" transform="translate(-73.6 -47.79)" fill="#f26922"/><path d="M359.9,236.8c0,5.2-3.3,6.9-6.3,6.9s-6.2-1.7-6.2-6.9V214H338v24.2c0,4.1.8,7.7,3.8,10.7a12.33,12.33,0,0,0,8.9,3.3,12.76,12.76,0,0,0,9.4-3.9v3.5h9.2V214h-9.4Z" transform="translate(-73.6 -47.79)" fill="#f26922"/><path d="M384.8,240.4V200.1h-9.4V241c0,5.4,3.3,10.8,11,10.8h5.4v-8h-3.6C385.8,243.8,384.8,242.7,384.8,240.4Z" transform="translate(-73.6 -47.79)" fill="#f26922"/><path d="M426.5,231.6c0-10.4-6-18.1-16.5-18.1-9.8,0-16.5,7-16.5,19.3,0,15.3,8.6,19.4,17.5,19.4,6.8,0,10.5-2.1,14.4-6l-5.7-5.6a10.47,10.47,0,0,1-8.6,3.6c-5.3,0-8.3-3.6-8.3-8.4h23.7Zm-23.7-2.2a10.72,10.72,0,0,1,.9-4.1,6.44,6.44,0,0,1,6.3-3.9,6.58,6.58,0,0,1,6.3,3.9,10.72,10.72,0,0,1,.9,4.1Z" transform="translate(-73.6 -47.79)" fill="#f26922"/><path d="M267.5,189c-1.3.6-3.1.5-5,.6-1.6,0-3.9.1-4.8-.8a3.06,3.06,0,0,1-.7-2,9.69,9.69,0,0,1,.3-2.3c.2-.9.4-2.1,0-2.5-.4-.6-1.9-.3-2.6-.8s-1-1.5-1.3-2.8a10.37,10.37,0,0,0-.4-1,22.7,22.7,0,0,1,.8-6.3c.5-2,1-3.9,1.4-5.8a38.27,38.27,0,0,0,.5-9,18.12,18.12,0,0,1-.1-4c.2-1.2.7-2.2,1-3.4.1-.4,0-.8.1-1.2s.3-.7.3-1c0-.8-.2-1.8-.3-2.8a61.71,61.71,0,0,1,.2-8.7c.1-.8.4-1.7-.1-2.1a66,66,0,0,0-7.9.8c-6.9.9-15.6,1-22.3-.3a12.5,12.5,0,0,1-1.9-.3,32,32,0,0,1-12.5-5.8c-.5-.4-1.1-.9-1.7-1.3a15.5,15.5,0,0,0-1.7-1.3,6.48,6.48,0,0,0-7.4,1.9c-.4.7-.8,1.6-1.2,2.4a25.57,25.57,0,0,0-1.1,2.4c-1.8,4.1-3.8,8-5.6,12.1-1,2.4-2.2,5-3,7.6-1.6,5.6-.1,13.2,1.2,18.5a9.38,9.38,0,0,0,.6,1.5,9.63,9.63,0,0,0,2.3,3.9c.5.5,1.4.7,2,1.2a11.94,11.94,0,0,1,1.9,3c.2.4.6,1,.9,1.5.7,1.2.9,2.3-.4,3a11.24,11.24,0,0,1-3.9.8c-.6.2-.4,1-.8,1.4a9.13,9.13,0,0,1-1.7.8,13.81,13.81,0,0,1-6.4,0,3,3,0,0,1-1.7-1.4c-.4-1.1.5-2.6-.3-3.4-.4-.4-1.1-.3-1.8-.6a4.09,4.09,0,0,1-2.3-2.5c-1.1-2.8-.4-7.1-.5-10.5,0-1-.2-2.1-.2-3.2-.1-2-.5-4-.8-6a21.39,21.39,0,0,0-.6-2.7c-.3-1.4-.6-3-1-4.4a6.32,6.32,0,0,1,.1-4.5c.1-.4.5-.7.8-1.2a7.1,7.1,0,0,0,.4-2.4c-.2-.4-1.2-.1-1.4-.5-.6-4.4-1.2-8.7-1.6-13.3-.1-1.5-.1-3.1-.3-4.7-.3-3.1,0-6.3-.3-9.3-.1-1.5-.5-2.9-.7-4.3-.5-4-1.6-9.1-.8-13.3a15.59,15.59,0,0,1,3-6.8,32.46,32.46,0,0,1,3.5-3.9,35.25,35.25,0,0,1,4.1-3.4,11.73,11.73,0,0,1,3-1.9,21.69,21.69,0,0,1,8.5-2.1,46.65,46.65,0,0,1,9.9.4c3,.5,6,1.1,9,1.7s5.7,1.4,8.5,2.1a10.37,10.37,0,0,1,1,.4,28,28,0,0,1,2.8.6,36.5,36.5,0,0,0,9,1,38,38,0,0,0,9.2-.8,10.41,10.41,0,0,0,1.2-.5c.4-.2,1-.1,1.4-.3s.6-.4.9-.5a31.35,31.35,0,0,0,4.4-2.5,15.51,15.51,0,0,1,3.6-2.1,16.67,16.67,0,0,1,2-.8,21.89,21.89,0,0,0,4.1-1.6,42.12,42.12,0,0,0,4.4-3.9c1.5-1.3,3-2.5,4.6-3.8,3.2-2.5,6.4-4.8,9.4-7.2a36.53,36.53,0,0,1,5-3.4c3.5-2,7-4.3,12-4.7a30.09,30.09,0,0,1,6,.1,5.66,5.66,0,0,0,1.8.3c.5-.1.9-.9,1.3-1.6a26.91,26.91,0,0,0,1.9-3.8c.4-1,.2-2,1.2-1.9s.9,2.7.9,3.7c.1,1.2-.1,2.8.1,3.6a2,2,0,0,0,1.7,1.4c.6,0,.9-.4,1.4-.8s1-.5,1.4-.8a20.06,20.06,0,0,0,2.6-2.5c.7-.7,1.8-2.3,2.9-2.2,2,.2,0,3.1-.4,4.1-1,2.3-2,3.9-3.2,6.1-.5.9-1.6,2.1-1.6,3,0,.6.5,1.1.8,1.7.1.3.2.7.3,1a45.8,45.8,0,0,1,1.7,5.6c.5,1.5.8,3.2,1.4,4.7s1.3,2.9,1.9,4.3a7,7,0,0,1,.3,1.2c1.3,3.2,2.5,6.9,4,10a10.86,10.86,0,0,1,1.5,4.7c0,2-1.1,3-2,4.5-.5.8-1.2,2-1.9,2.3-.5.2-1.2,0-1.7.1-.8.1-1.3.6-2,.7a4.13,4.13,0,0,1-4.1-2.6,8.81,8.81,0,0,1-.2-1.7c-.4-2.2-1.5-3.3-3.1-4.8a17,17,0,0,0-3-2.3c-1.8-.9-3.7-1.5-5.6-2.5a3.57,3.57,0,0,0-2.1-.6c-1,.2-2,1.8-2.8,2.8-4.9,6.4-9.2,13-13.9,19.3-3.1,4.2-6.5,8.4-9,13.2a37.13,37.13,0,0,0-1.5,4c-.5,1.4-.7,2.9-1.2,4.3-1.8,5.2-2.4,11.6-4.1,17.1-.2.6-.2,1.2-.4,1.9-.8,2.8-1.5,6-2.4,9a32.61,32.61,0,0,0-1,8.1c-.1,2.7-.2,6.6.8,8.3.5.9,2.4,1.3,3.1,2.2.5.7.8,2,1.3,2.8.3.6,1.3,1.9,1.2,2.8a1.92,1.92,0,0,1-1.2,1.4c-.6.3-1.4.1-2,.4C267.9,187.8,268.2,188.6,267.5,189Z" transform="translate(-73.6 -47.79)" fill="#4e2817" fill-rule="evenodd"/></svg>