<svg id="ace53ce7-9e03-41a3-aecb-d4b9675774b1" data-name="Layer 1" xmlns="http://www.w3.org/2000/svg" viewBox="0 0 5209 1350.79"><title>voiceflow</title><path d="M3366.41,1540.77c-.17-.29-.26-.71-.51-.85-15-8.22-16.83-15-8.71-30.63,14.41-27.78,29.48-55.26,42.73-83.59,21.85-46.74,34.53-96.45,44.45-146.9,12.14-61.8,20.74-124.15,28.4-186.64,4.13-33.73,8.48-67.42,12.71-101.13.12-.95,0-1.93,0-5.45-3.07,4.86-5,7.79-6.81,10.8-28.83,48.28-62.21,93.06-102.36,132.58-41.28,40.62-87.59,73.78-142,94.7-41.62,16-84.72,23.49-129.24,20.84-66.37-4-119.26-32.61-156.93-88-19.16-28.19-31.24-59.43-39.48-92.3-.57-2.26-1.14-4.52-1.8-6.75a16.72,16.72,0,0,0-1.54-2.6c-2.37,3.16-4.54,6-6.64,8.85-31.4,43-66.13,82.82-108,115.94-33.53,26.5-70,47.49-111.85,57.91-52,13-103.24,9.65-153-10-51.79-20.49-87.81-58-111.55-107.76-6-12.56-10.81-25.69-16.7-39.82-2.52,3.77-4.69,6.9-6.73,10.11-25.45,39.87-55.12,76.1-92.18,105.81-27.08,21.72-56.69,38.64-91.06,45.91a142.94,142.94,0,0,1-66.35-1.14c-24.36-6.33-43.13-20.36-56.24-41.88-11.1-18.23-16.81-38.37-20.18-59.21-5.39-33.42-5.32-67-2.87-100.7,5.13-70.53,16.87-140.17,28-209.9q11.36-71,22.22-142.14a69.22,69.22,0,0,0,.81-13.94c-.31-6-3.26-9.43-9.26-9.85s-12.23-.6-17.77,1.1c-12.37,3.8-25,7.54-36.34,13.63-19.89,10.73-38.77,23.32-58.23,34.87-6.17,3.66-7.92,8.68-8.37,15.58-7.13,109.45-35.64,213.17-84.63,311.2-20.34,40.72-45.29,78.49-76.4,111.92-35.1,37.72-75.83,67-125.56,82.37-39.88,12.34-80.48,15-121.45,6.81-49.73-9.93-88.77-36.57-117.94-77.84-23.86-33.78-37.78-71.75-46.12-111.91-10.94-52.67-12.11-105.76-6.4-159.15,7.69-71.89,26.31-140.64,58.85-205.36,18.07-35.94,40.34-69,69.15-97.37,34.06-33.54,74.32-54.76,122-61.12,17-2.27,34-1.85,50.46,3.41,20.33,6.49,34.74,19.18,41,40.19,1.38,4.64,1.09,7.83-3.56,11-34.45,23.18-59.73,54.81-81,89.85-32.49,53.44-53.87,111.39-68.46,172-12.15,50.39-19.19,101.46-17.8,153.43.62,23.36,2.9,46.63,9.93,69a153.88,153.88,0,0,0,12.77,30.26c15.09,26.39,38.13,35.9,67.81,29.13,17.22-3.92,32.32-12.18,46.14-23,19.93-15.54,36-34.63,50-55.43,27.12-40.06,46.22-83.93,60.87-129.84a601,601,0,0,0,27.51-145.92c.25-4,.28-8,.31-12a18.25,18.25,0,0,0-.66-3.34c-2-.63-4.27-1.16-6.38-2-10.53-4.07-21.6-7.16-31.45-12.51-43-23.39-61.08-66.56-48.67-114.47,12.09-46.63,49.37-79,97.31-83.43,30.25-2.79,56.35,7.44,78.35,28.19a119.76,119.76,0,0,1,24.16,32.87l5.07,9.8c3.56-2.29,6.84-4.35,10.06-6.5,41.6-27.67,85.83-49.76,134.28-62.73,27.17-7.28,54.81-12,83-8.83a130.65,130.65,0,0,1,34.71,8.51c30.35,12.46,46.22,36.92,52.31,68.3,4.44,22.87,3.15,45.82-.65,68.62-14.15,85.08-28.83,170.07-42.59,255.21-5.05,31.22-8.78,62.69-11.74,94.17-1.39,14.79.25,29.89,1,44.82.19,3.86,1.85,7.77,3.45,11.38,3.11,7,8.71,10.66,16.42,11.15,9.55.61,18.52-1.51,27.2-5.29,14.24-6.22,26.37-15.5,37.52-26.15,16.5-15.76,30.12-33.81,42.25-53,.36-.56.75-1.1,1.07-1.69,7.49-13.74,15.23-27.35,22.39-41.26,7.51-14.59,3.8-30.77,5.39-46.16,11.26-109,48.17-207.22,120.71-290.48,37.45-43,82.59-75.48,137.36-93,47.28-15.15,95.47-19.44,143.62-5.05,60.93,18.22,97.9,59.2,107.66,122.32,6.25,40.39-1.58,79.06-22.6,114.44-13.21,22.22-31.49,38.68-57,45.84-33.89,9.51-67.19-5.14-80.25-35.28-1.32-3-2.16-6.28-3.31-9.4-1.72-4.68-1-8.76,1.4-13.27,11.88-22.57,20.17-46.43,23.78-71.73,2-13.9,2.54-27.9-1-41.71-5.65-21.76-21.52-31.81-43.57-28-12.89,2.25-23.71,8.53-33.63,16.64-16.19,13.25-28.65,29.68-39.7,47.25-19.44,30.9-34,64.12-45.75,98.58-22.15,64.72-35.66,131-36.21,199.69-.24,29.43,2.16,58.6,10.89,86.92,4.45,14.41,10.48,28.09,19.59,40.23,19.15,25.5,45.05,35.29,76.23,32.33,22.68-2.15,43.18-10.72,62.58-22.18,26.32-15.56,49.18-35.41,70.38-57.24,38.74-39.87,71.22-84.55,100.17-131.88a27.23,27.23,0,0,0,3.47-11.2c4.55-46.28,14-91.47,29.6-135.33,19.2-54.16,45.69-104.3,83-148.34,37.09-43.84,81.3-77.94,136.45-95.84,57.15-18.54,114.84-19.32,171.79.4,65.67,22.74,103.83,77.34,104.76,146.72.6,45.27-12.09,86.94-34.89,125.49-43.7,73.89-108.45,120.55-190.29,144.23C3163.65,967,3127,970.9,3089.77,970.46c-3,0-6,0-9,.06a7.65,7.65,0,0,0-2.22.94,18.37,18.37,0,0,0-.71,3.45c-1.21,34.46.1,68.76,10.79,101.84a147.62,147.62,0,0,0,15.56,33.31c13.86,21.84,34.63,31.13,60.44,29.76,28.45-1.5,54.93-9.83,80.27-22.34,35.28-17.41,66.39-40.8,95-67.51,69.93-65.3,125.21-141.57,168-227,3.19-6.37,4.29-13.91,5.68-21q17.9-92.16,35.52-184.4c.36-1.91.53-3.86.93-6.77-4.11,0-7.72,0-11.34,0-17.66-.13-35.33,0-53-.5-17.88-.54-24.48-6.8-26-24.78-1.57-18.59,3.37-35.67,14.1-50.94,6.36-9,14.9-13.63,26.35-13.41,20.66.38,41.32.11,62,.11h10.3c2.72-9.25,5.25-17.82,7.77-26.4,14.37-49,31.06-97.07,54.24-142.67,16.39-32.24,35.75-62.45,61.64-88.07,41.53-41.08,91.42-58,149.36-52.17,16.31,1.63,32.38,4.19,48,9.25,46.92,15.26,79.26,46.4,98.8,91.31,11.54,26.54,17.27,54.49,20.07,83.17,4.35,44.48.14,88.49-7,132.37q-14.66,90.24-29,180.52c-7.88,49.67-15.82,99.33-23.22,149.07-9.11,61.28-17.8,122.64-22.25,184.49-.94,12.94-.8,26-.63,39a53.91,53.91,0,0,0,7.81,27.58c7.75,12.73,19,17,33.37,12.73,11.42-3.37,21.06-9.88,30.25-17.13a264.9,264.9,0,0,0,45.4-46.3c13.88-17.89,26.75-36.55,40.2-54.78,3.36-4.56,4.05-9.28,3.87-14.92C4087.55,876,4112,770.67,4170.34,674.06c19.09-31.6,42.63-59.65,72-82.37,33.83-26.19,71.88-41.55,114.91-43.5,15.11-.68,30,.84,44.07,6.88,18.72,8,30.66,21.65,34.32,41.75-.74.93-1,1.6-1.56,1.94-44.76,29.42-75.33,71-100.17,117.36C4305,770,4286.12,827.38,4274.24,887.18c-8.54,43-12.62,86.36-10,130.21,1.25,21,4.49,41.73,11.78,61.6a128.65,128.65,0,0,0,7.25,16.43c16.05,29.9,40.66,40.59,73.65,32.29,15.76-4,29.79-11.42,42.74-21.06,18.08-13.46,33.08-29.93,46.34-48,27.65-37.7,47.34-79.45,62.43-123.49,17.05-49.74,27.9-100.72,30.08-153.39.11-2.66.13-5.33.12-8A16.29,16.29,0,0,0,4538,771c-2-.68-4.41-1.66-6.88-2.28a126.28,126.28,0,0,1-42.57-19.18c-33.35-23.53-47.22-59.3-37.91-98.9,13.77-58.53,64.71-89.09,112.3-86.19,27.25,1.66,50.09,12.59,68.9,32.14,13.16,13.68,22.16,29.91,28.5,47.69,1.44,4,2.87,8.1,4.56,12.86,3.11-1.27,5.85-2.21,8.43-3.48q89.56-44.28,179.08-88.67c23.46-11.68,47.74-20.66,73.92-23.14a103.73,103.73,0,0,1,27.76,1.17c16.94,3.05,25.7,14.08,24.14,31.2-1.23,13.52-4.35,26.92-7.29,40.23-15.17,68.6-31,137.06-45.71,205.75-12.61,59-23,118.37-28.47,178.49-2.29,25.21-4.62,50.57-.62,75.8a105.36,105.36,0,0,0,7.53,26.72c6.37,14.07,18.65,19.31,33.87,16.47,12.12-2.27,22.46-8.18,32.11-15.47,15.55-11.75,28.42-26.15,40.26-41.49,26.41-34.2,47.32-71.71,66-110.5,38.87-80.72,67.74-165.08,89.93-251.73,9.58-37.39,17.42-75.24,25.63-113,1.34-6.19,3.66-11.4,8-15.65s8.52-8.64,13.54-11.75c41.39-25.59,86.15-34.31,134.06-25.51a60.79,60.79,0,0,1,17.67,6.6c13.2,7.19,17.77,18.07,14.07,32.8-7.8,31-15.93,61.91-23.74,92.9-20,79.44-39.08,159.1-54,239.68-7.35,39.65-13.72,79.46-16.39,119.73-1.54,23.26-2.42,46.66,3.15,69.64a74.59,74.59,0,0,0,5.19,15c7.36,15,20.18,20.45,35.74,14a80.93,80.93,0,0,0,23.55-14.62,294.08,294.08,0,0,0,30.52-32.89c21.45-26.94,38.83-56.58,54.78-87C5483.58,900.8,5519.4,809.21,5543,713c2.05-8.4,3.64-16.92,5.4-25.4.32-1.59.42-3.22.66-5.12-1.5-1-2.82-2-4.18-2.88-48.19-31.48-66.74-76.77-61.35-132.88,2.82-29.26,14.74-54.45,36.25-74.77,43.09-40.72,112.56-43.18,156.17-5.11,24.53,21.42,36.65,49.33,40.07,81.37.45,4.22,1.3,8.4,2,12.61v28c-.57,2.55-1.59,5.1-1.63,7.66-.3,23.12-4.5,45.75-9.27,68.21a1224.47,1224.47,0,0,1-129.2,343.77c-28.34,50.78-61,98.62-101.16,140.94-27.24,28.69-57.28,53.83-92.74,72-38.75,19.83-79.55,28-122.9,21.51-42.14-6.26-75.65-26.3-99.12-62.29a186.91,186.91,0,0,1-20.12-42.29c-10.55-30.92-14-63-15.37-95.35-.11-2.69-.52-5.37-1-10.29-2.89,5.09-4.46,8-6.15,10.8-10,16.56-19.44,33.42-30,49.58-21.95,33.61-47.05,64.67-77.55,91-36.65,31.68-77.9,53.38-126.94,57.89s-89.28-11.66-118.3-52c-8.27-11.5-14.86-24.53-20.37-37.63-11.37-27-15.67-55.67-16.19-84.89-.75-41.75,3.27-83.19,7.88-124.6,6.39-57.29,15.26-114.21,25.42-170.93,2-11.29,4-22.59,6-34.1l-99.81,39.91c-3.09,18.47-5.74,36.92-9.3,55.2-14.34,73.64-37.49,144.33-72.31,210.94-25.5,48.78-56.59,93.51-98.09,130.22-60.85,53.82-131.33,78.62-212.71,68.74-47.88-5.81-88.23-26.64-120.08-63.17-17.93-20.56-31.17-43.94-41.14-69.26-1.25-3.18-2.76-6.25-4.56-10.29-2.91,3.73-5,6.29-7,8.92a523.54,523.54,0,0,1-51.77,59.55c-22,21.55-45.74,40.8-72.93,55.53-19.2,10.4-39.39,18.51-61.25,20.22-60.62,4.74-110.45-19-130-87-9.51-33.06-11.62-67-8.82-101,2.76-33.52,6.21-67,10.59-100.35,9.81-74.63,19.27-149.32,31-223.66,14.27-90.78,30.7-181.22,46.11-271.82,5.81-34.21,10.1-68.59,8.85-103.39-.69-19.37-2.68-38.66-11.7-56.3-12.4-24.25-38.18-30.48-59.5-13.47a97.06,97.06,0,0,0-22.29,25.26,347.71,347.71,0,0,0-24,48.16c-18.54,45.85-29.81,93.86-40.16,142.08-1.31,6.1-2.48,12.23-4,19.77,5.08,0,9-.09,12.9,0,17.31.44,34.69.14,51.92,1.61,18,1.55,25.66,12.58,22.84,30.3-5,31.48-32.88,55.3-64.73,55.32h-38.5c-.89,4.92-1.76,9.11-2.39,13.34-4.3,29.32-8.89,58.61-12.76,88q-9,68.36-17.15,136.82c-4.49,37.37-8.07,74.85-12.88,112.18-7.38,57.13-14.93,114.26-23.42,171.24-8.34,56-19.25,111.55-33.93,166.3-13.89,51.82-34.21,100.77-63,146.2-31.88,50.22-75.06,84-134.31,95.52a8.75,8.75,0,0,0-2.49,1.49ZM3085.75,893.48c8.75-1.49,15.32-2.32,21.75-3.74,39.59-8.72,73-28.66,100.95-57.55,38.61-39.84,63.83-86.63,71-142.23,2-15.71,1.11-31.28-4.83-46.21-5.57-14-15.41-23.06-30.47-26-12.39-2.42-23.79.4-34.62,6.34-11.56,6.34-21,15.26-29.47,25.17-15.31,17.82-27.1,37.91-37.39,58.9-23.43,47.83-39,98.3-50.2,150.23C3090.15,869.36,3088.25,880.43,3085.75,893.48Z" transform="translate(-508.96 -189.98)"/><path d="M509,524.77c1.17-3.75,2.89-7.43,3.42-11.26,8.88-64.38,41.29-114.49,92.88-152.75,35.16-26.07,75.06-41.51,117.79-49.6,44.54-8.43,89.35-9.63,134.22-2.41a219.18,219.18,0,0,1,55.39,16.41c48.11,21.7,78.76,59,96.12,108.08,11.55,32.67,16.35,66.58,17.81,101,2.23,52.48-2.9,104.5-10.75,156.32C1004.1,768,985.27,844,968,920.3c-10.14,44.82-20.19,89.68-26.12,135.3-2.27,17.49-4.72,35.07-1.4,52.74a50.38,50.38,0,0,0,1.93,7.72c4.23,11.75,13.4,17,25.18,13.21,6.83-2.2,13.87-5.44,19.27-10a324.2,324.2,0,0,0,32.32-31.11c23.52-26.52,42.82-56.15,60.66-86.69,57.52-98.46,98.49-203.66,127-313.88,13.19-51,23.34-102.63,29.19-155,6.84-61.32,6.58-122.41-9.24-182.63-7-26.57-17.09-51.85-32.08-75-11.32-17.5-24.79-33-42.31-44.68a38.53,38.53,0,0,1-3.41-2.93c16.12-15.64,34.6-26.54,55.83-32.31,46.93-12.74,88.26-.55,124.84,29.9,25.11,20.9,42.32,47.71,55.13,77.47,15.29,35.56,22.82,73,26.1,111.37,5.82,68.1-2.33,135.13-16.71,201.45C1363.64,756,1314.29,890,1244.64,1016.27c-31.8,57.64-68.27,112.12-112.71,160.94-30,33-63,62.32-101.73,84.8-42.45,24.65-87.77,38.36-137.34,34.86C847.11,1293.63,813.6,1272,794,1230c-11.27-24.18-16.35-49.93-18.94-76.23-4.36-44.34-1.55-88.53,3.2-132.68,8.49-78.92,24.58-156.54,39.39-234.4,12.5-65.75,25-131.5,36.37-197.45C861,548.82,865,508,863.14,466.82c-.7-15.72-2.5-31.28-8-46.07a84.66,84.66,0,0,0-9.92-19.47c-14.23-19.92-34.76-22.95-57.08-19.56-17.46,2.65-33,10.16-47.38,20.21-19.07,13.34-34.67,30.13-48,49.08-27.5,39.15-43.89,82.79-51.77,129.75a339,339,0,0,0-.44,110.46c.41,2.54.37,5.15.62,8.88-4.66-1.08-8.49-1.75-12.19-2.85C562.13,677.37,523.89,632.53,512.65,564c-.74-4.51-2.44-8.85-3.69-13.27Z" transform="translate(-508.96 -189.98)"/><path d="M2348.63,323.24a146.37,146.37,0,0,1-36,91.6c-28.31,32.55-64.41,45.46-106.77,37.47-37.82-7.14-59.93-32.24-68.64-68.46-11.62-48.3-1.48-93,29.5-131.61,28.68-35.78,66.86-48,111.61-38,28.29,6.28,47.93,23.7,59.87,49.83C2345.66,280.36,2348.71,297.67,2348.63,323.24Z" transform="translate(-508.96 -189.98)"/></svg>