<svg id="a6de6767-12d1-489a-ae00-e8a705d4b492" data-name="a4b6aa60-c167-4180-b839-fe53f5b89b67" xmlns="http://www.w3.org/2000/svg" viewBox="0 0 532.6 419.8"><title>wolfram-dark</title><polygon points="0 347.2 18.3 347.2 27 394.9 39.7 347.2 55.9 347.2 71 395.8 79.8 347.2 97.3 347.2 82.3 418.6 62.2 418.6 48.8 374.1 35.1 418.6 14 418.6 0 347.2" fill="#fff"/><polygon points="532.6 418.6 514.3 418.6 505.6 370.7 492.9 418.6 476.7 418.6 461.7 370.1 452.8 418.6 435.3 418.6 450.3 347.2 470.4 347.2 483.8 391.8 497.5 347.2 518.6 347.2 532.6 418.6" fill="#fff"/><path d="M135.7,346c23.2,0,35.3,14,35.3,36.9,0,22.7-12.3,36.9-35.3,36.9s-35.3-14.2-35.3-36.9c0-22.9,12.1-36.9,35.3-36.9m0,59.7c11.4,0,16-11,16-22.8,0-12.4-4.5-22.8-16-22.8s-16,10.4-16,22.8c0,11.8,4.6,22.8,16,22.8" fill="#fff"/><polygon points="181.6 347.2 200.3 347.2 200.3 404.5 229.4 404.5 229.4 418.6 181.6 418.6 181.6 347.2" fill="#fff"/><polygon points="237.2 347.2 284.4 347.2 284.4 360.7 256 360.7 256 376.4 283.1 376.4 283.1 389.9 256 389.9 256 418.6 237.2 418.6 237.2 347.2" fill="#fff"/><path d="M294.2,347.2h33.5c12.5,0,22.7,5.7,22.7,18,0,9.5-4.4,15.8-13.5,18v.2c6.1,1.6,6.5,7.1,10,15.7l6.9,19.4H334.2l-4-12.9c-3.8-12.3-6.3-15.3-13.2-15.3h-3.9v28.2H294.3V347.2ZM313,376.9h5c6.1,0,13.7-.2,13.7-8.3,0-6.6-6.6-7.9-13.7-7.9h-5Z" fill="#fff"/><path d="M382.2,347.2h23l27.2,71.4H411.8l-5.3-15.2H380l-5.6,15.2H355.3Zm11.5,14.7h-.2l-9.1,27.9h17.7Z" fill="#fff"/><path d="M523.7,349.7a2.7,2.7,0,1,1,2.7,2.8,2.61,2.61,0,0,1-2.71-2.49c0-.1,0-.21,0-.31m4.8,0a2.21,2.21,0,1,0-2.2,2.4,2.27,2.27,0,0,0,2.2-2.34v-.06m-3.2-1.5h1c.6,0,1.1.2,1.1.9a.76.76,0,0,1-.6.8l.7,1.3H527l-.6-1.1h-.7v1.1h-.5v-3Zm.9,1.5c.4,0,.7-.2.7-.5s-.2-.6-.7-.6h-.5v1.1Z" fill="#808285"/><path d="M376.8,164.4,422,113.6,355.6,99.1l6.8-67.7L300.1,58.7,265.8,0,231.5,58.7,169.3,31.5l6.8,67.7-66.4,14.5,45.2,50.8-45.2,50.8,66.4,14.5-6.8,67.6,62.2-27.3,34.3,58.7,34.3-58.7,62.2,27.3-6.7-67.7L422,215.2Zm11.9,32.7-30.2-10.3L337.9,160l26.5,9.9Zm-97.6,62.8L272.3,292V258.7l19.5-28.4ZM247.1,94,215,82.6,196.5,57.5l33.7,14.8Zm54.5-21.7,33.6-14.8-18.6,25-32,11.4Zm40.8,29.6L326.1,125l1-34.8,19-25.7ZM265.8,245.4l-25-36.5,25-33.9,25,33.9ZM218.9,141.5l-1.2-44.3L259.4,112v43.1ZM272.3,112,314,97.2l-1.2,44.3-40.5,13.6Zm-83-10.1-3.7-37.4,19,25.7,1,34.8Zm66.1,65.5-25,33.9-42.5-12.5,26.9-35Zm-15.5,62.9,19.5,28.4V292l-18.8-32.1Zm36.4-62.9,40.5-13.6,26.9,35-42.5,12.5Zm121.4-45.9-31.4,35.3L329.2,143l22.3-31.5Zm-108-55L265.8,97,242,66.5l23.8-40.8ZM134,121.5l46.3-10.1L202.6,143l-37.1,13.8Zm33.3,48.4,26.5-9.8-20.6,26.8L143,197.2Zm-21.5,39.9,31.5-10.7,33.6,9.9-28.1,8.9ZM189,229.4l37.7-11.9,1,40.1-43.3,19Zm115,28.2,1-40.1,37.6,11.9,4.7,47.2Zm44.9-39.7L320.8,209l33.6-9.9,31.5,10.8Z" fill="#d10"/><path d="M360.9,236.6a2.61,2.61,0,0,1,2.52-2.7h.08a2.71,2.71,0,0,1,0,5.4,2.61,2.61,0,0,1-2.6-2.62v-.08m4.7,0a2.11,2.11,0,1,0-2.1,2.3,2.23,2.23,0,0,0,2.1-2.3m-3.1-1.5h1c.5,0,1.1.2,1.1.9a.85.85,0,0,1-.6.8l.7,1.2h-.5l-.5-1.1H363V238h-.5Zm.9,1.4c.4,0,.7-.2.7-.5s-.2-.5-.7-.5H363v1.1h.4Z" fill="#808285"/></svg>