<svg id="a4b6aa60-c167-4180-b839-fe53f5b89b67" data-name="Layer 1" xmlns="http://www.w3.org/2000/svg" viewBox="0 0 532.6 419.8"><title>wolfram</title><polygon points="0 347.2 18.3 347.2 27 394.9 39.7 347.2 55.9 347.2 71 395.8 79.8 347.2 97.3 347.2 82.3 418.6 62.2 418.6 48.8 374.1 35.1 418.6 14 418.6 0 347.2" fill="#231f20"/><polygon points="532.6 418.6 514.3 418.6 505.6 370.7 492.9 418.6 476.7 418.6 461.7 370.1 452.8 418.6 435.3 418.6 450.3 347.2 470.4 347.2 483.8 391.8 497.5 347.2 518.6 347.2 532.6 418.6" fill="#231f20"/><path d="M163.2,361.5c23.2,0,35.3,14,35.3,36.9,0,22.7-12.3,36.9-35.3,36.9s-35.3-14.2-35.3-36.9c0-22.9,12.1-36.9,35.3-36.9m0,59.7c11.4,0,16-11,16-22.8,0-12.4-4.5-22.8-16-22.8s-16,10.4-16,22.8c0,11.8,4.6,22.8,16,22.8" transform="translate(-27.5 -15.5)" fill="#231f20"/><polygon points="181.6 347.2 200.3 347.2 200.3 404.5 229.4 404.5 229.4 418.6 181.6 418.6 181.6 347.2" fill="#231f20"/><polygon points="237.2 347.2 284.4 347.2 284.4 360.7 256 360.7 256 376.4 283.1 376.4 283.1 389.9 256 389.9 256 418.6 237.2 418.6 237.2 347.2" fill="#231f20"/><path d="M321.7,362.7h33.5c12.5,0,22.7,5.7,22.7,18,0,9.5-4.4,15.8-13.5,18v.2c6.1,1.6,6.5,7.1,10,15.7l6.9,19.4H361.7l-4-12.9c-3.8-12.3-6.3-15.3-13.2-15.3h-3.9V434H321.8V362.7Zm18.8,29.7h5c6.1,0,13.7-.2,13.7-8.3,0-6.6-6.6-7.9-13.7-7.9h-5Z" transform="translate(-27.5 -15.5)" fill="#231f20"/><path d="M409.7,362.7h23l27.2,71.4H439.3L434,418.9H407.5l-5.6,15.2H382.8Zm11.5,14.7H421l-9.1,27.9h17.7Z" transform="translate(-27.5 -15.5)" fill="#231f20"/><path d="M551.2,365.2a2.7,2.7,0,1,1,2.7,2.8,2.6,2.6,0,0,1-2.7-2.8m4.8,0a2.21,2.21,0,1,0-2.2,2.4,2.27,2.27,0,0,0,2.2-2.4m-3.2-1.5h1c.6,0,1.1.2,1.1.9a.76.76,0,0,1-.6.8l.7,1.3h-.5l-.6-1.1h-.7v1.1h-.5v-3Zm.9,1.5c.4,0,.7-.2.7-.5s-.2-.6-.7-.6h-.5v1.1Z" transform="translate(-27.5 -15.5)" fill="#808285"/><path d="M404.3,179.9l45.2-50.8-66.4-14.5,6.8-67.7L327.6,74.2,293.3,15.5,259,74.2,196.8,47l6.8,67.7-66.4,14.5L182.4,180l-45.2,50.8,66.4,14.5-6.8,67.6L259,285.6l34.3,58.7,34.3-58.7,62.2,27.3-6.7-67.7,66.4-14.5Zm11.9,32.7L386,202.3l-20.6-26.8,26.5,9.9Zm-97.6,62.8-18.8,32.1V274.2l19.5-28.4Zm-44-165.9L242.5,98.1,224,73l33.7,14.8Zm54.5-21.7L362.7,73,344.1,98l-32,11.4Zm40.8,29.6-16.3,23.1,1-34.8,19-25.7ZM293.3,260.9l-25-36.5,25-33.9,25,33.9ZM246.4,157l-1.2-44.3,41.7,14.8v43.1Zm53.4-29.5,41.7-14.8L340.3,157l-40.5,13.6Zm-83-10.1L213.1,80l19,25.7,1,34.8Zm66.1,65.5-25,33.9-42.5-12.5,26.9-35Zm-15.5,62.9,19.5,28.4v33.3l-18.8-32.1Zm36.4-62.9,40.5-13.6,26.9,35-42.5,12.5ZM425.2,137l-31.4,35.3-37.1-13.8L379,127Zm-108-55-23.9,30.5L269.5,82l23.8-40.8ZM161.5,137l46.3-10.1,22.3,31.6L193,172.3Zm33.3,48.4,26.5-9.8-20.6,26.8-30.2,10.3Zm-21.5,39.9,31.5-10.7,33.6,9.9-28.1,8.9Zm43.2,19.6L254.2,233l1,40.1-43.3,19Zm115,28.2,1-40.1,37.6,11.9,4.7,47.2Zm44.9-39.7-28.1-8.9,33.6-9.9,31.5,10.8Z" transform="translate(-27.5 -15.5)" fill="#d10"/><path d="M388.4,252.1a2.61,2.61,0,0,1,2.6-2.7,2.71,2.71,0,0,1,0,5.4,2.61,2.61,0,0,1-2.6-2.7m4.7,0a2.11,2.11,0,1,0-2.1,2.3,2.23,2.23,0,0,0,2.1-2.3m-3.1-1.5h1c.5,0,1.1.2,1.1.9a.84.84,0,0,1-.6.8l.7,1.2h-.5l-.5-1.1h-.7v1.1H390Zm.9,1.4c.4,0,.7-.2.7-.5s-.2-.5-.7-.5h-.4v1.1h.4Z" transform="translate(-27.5 -15.5)" fill="#808285"/></svg>