<?xml version="1.0" encoding="utf-8"?>
<!-- Generator: Adobe Illustrator 23.0.3, SVG Export Plug-In . SVG Version: 6.00 Build 0)  -->
<svg version="1.1" id="Layer_1" xmlns="http://www.w3.org/2000/svg" xmlns:xlink="http://www.w3.org/1999/xlink" x="0px" y="0px"
	 viewBox="0 0 2000 1000" style="enable-background:new 0 0 2000 1000;" xml:space="preserve">
<style type="text/css">
	.st0{stroke:#000000;stroke-linejoin:round;stroke-miterlimit:1;}
	.st1{stroke:#2C2C2C;stroke-linejoin:round;stroke-miterlimit:1;}
	.st2{stroke:#111111;stroke-linejoin:round;stroke-miterlimit:1;}
	.st3{stroke:#1E1E1E;stroke-linejoin:round;stroke-miterlimit:1;}
</style>
<polygon class="st0" points="573,-101 -199,-101 -16,-98 "/>
<polygon class="st0" points="573,-101 -16,-98 229,-82 "/>
<polygon class="st1" points="663,1099 416,1097 -16,1099 "/>
<polygon class="st1" points="1408,1099 1163,1090 1003,1099 "/>
<polygon class="st0" points="1414,-101 1045,-101 1175,-94 "/>
<polygon class="st0" points="1810,-101 1522,-92 1593,-86 "/>
<polygon class="st0" points="1810,-101 1414,-101 1522,-92 "/>
<polygon class="st1" points="1847,1094 1641,1059 1408,1099 "/>
<polygon class="st1" points="2196,966 2145,876 2120,950 "/>
<polygon class="st1" points="2201,646 2156,576 2166,661 "/>
<polygon class="st1" points="2201,646 2162,571 2156,576 "/>
<polygon class="st1" points="2201,40 2050,139 2154,200 "/>
<polygon class="st1" points="2201,40 2090,-1 2050,139 "/>
<polygon class="st1" points="2201,40 2151,-73 2090,-1 "/>
<polygon class="st1" points="2201,259 2154,200 2135,329 "/>
<polygon class="st1" points="2201,259 2201,40 2154,200 "/>
<polygon class="st1" points="2201,873 2145,876 2196,966 "/>
<polygon class="st1" points="2201,873 2156,750 2145,876 "/>
<polygon class="st1" points="2201,668 2201,646 2166,661 "/>
<polygon class="st1" points="2201,668 2166,661 2156,750 "/>
<polygon class="st1" points="2201,668 2156,750 2201,873 "/>
<polygon class="st1" points="2201,333 2201,259 2135,329 "/>
<polygon class="st1" points="2201,333 2152,360 2201,369 "/>
<polygon class="st1" points="2201,333 2135,329 2152,360 "/>
<polygon class="st1" points="2201,1099 1847,1094 1408,1099 "/>
<polygon class="st1" points="2201,1099 2041,1065 2019,1066 "/>
<polygon class="st1" points="2201,1099 2019,1066 1847,1094 "/>
<polygon class="st1" points="2201,1099 2186,990 2127,989 "/>
<polygon class="st1" points="2201,1099 2127,989 2041,1065 "/>
<polygon class="st1" points="2201,1099 2196,966 2186,990 "/>
<polygon class="st1" points="2201,1099 2201,873 2196,966 "/>
<polygon class="st1" points="2201,499 2201,369 2152,360 "/>
<polygon class="st1" points="2201,499 2152,360 2109,487 "/>
<polygon class="st1" points="2201,499 2109,487 2120,504 "/>
<polygon class="st1" points="2201,499 2120,504 2141,529 "/>
<polygon class="st1" points="2201,499 2141,529 2162,571 "/>
<polygon class="st1" points="2201,499 2162,571 2201,646 "/>
<polygon class="st1" points="2201,-101 2061,-101 2124,-90 "/>
<polygon class="st1" points="2201,-101 2124,-90 2151,-73 "/>
<polygon class="st1" points="2201,-101 2151,-73 2201,40 "/>
<polygon class="st1" points="2196,966 2120,950 2186,990 "/>
<polygon class="st1" points="2152,360 2091,368 2109,487 "/>
<polygon class="st1" points="2186,990 2120,950 2127,989 "/>
<polygon class="st1" points="2109,487 2091,368 2076,477 "/>
<polygon class="st1" points="2151,-73 2094,-73 2090,-1 "/>
<polygon class="st1" points="2154,200 2044,298 2135,329 "/>
<polygon class="st1" points="2156,750 2024,858 2145,876 "/>
<polygon class="st1" points="2162,571 2141,529 2156,576 "/>
<polygon class="st1" points="2166,661 2156,576 2057,620 "/>
<polygon class="st1" points="2166,661 2057,620 2053,683 "/>
<polygon class="st1" points="2166,661 2053,683 2156,750 "/>
<polygon class="st1" points="2156,750 1991,795 2024,858 "/>
<polygon class="st1" points="2154,200 2050,139 2044,298 "/>
<polygon class="st1" points="2156,576 2141,529 2057,620 "/>
<polygon class="st1" points="2156,750 2053,683 1991,795 "/>
<polygon class="st1" points="2151,-73 2124,-90 2094,-73 "/>
<polygon class="st1" points="2152,360 2135,329 2091,368 "/>
<polygon class="st1" points="2141,529 2120,504 2057,620 "/>
<polygon class="st1" points="2145,876 2024,858 2120,950 "/>
<polygon class="st1" points="2050,139 1982,233 2044,298 "/>
<polygon class="st1" points="2120,504 2076,477 2057,620 "/>
<polygon class="st1" points="2135,329 2044,298 2091,368 "/>
<polygon class="st1" points="2124,-90 2061,-101 2094,-73 "/>
<polygon class="st1" points="2127,989 2120,950 2041,1065 "/>
<polygon class="st1" points="2090,-1 1971,92 2050,139 "/>
<polygon class="st1" points="2120,950 2019,1066 2041,1065 "/>
<polygon class="st1" points="2120,950 2024,858 2019,1066 "/>
<polygon class="st1" points="2120,504 2109,487 2076,477 "/>
<polygon class="st2" points="2061,-101 1810,-101 1846,-75 "/>
<polygon class="st1" points="2090,-1 1993,-1 1971,92 "/>
<polygon class="st1" points="2091,368 2008,367 2076,477 "/>
<polygon class="st1" points="2094,-73 2061,-101 2069,-81 "/>
<polygon class="st1" points="2094,-73 2034,-35 2090,-1 "/>
<polygon class="st1" points="2024,858 1880,947 2019,1066 "/>
<polygon class="st1" points="2050,139 2001,147 1982,233 "/>
<polygon class="st1" points="2091,368 2044,298 2008,367 "/>
<polygon class="st1" points="2094,-73 2069,-81 2034,-35 "/>
<polygon class="st2" points="2076,477 1898,464 2057,620 "/>
<polygon class="st1" points="2090,-1 2034,-35 1993,-1 "/>
<polygon class="st2" points="2057,620 1898,464 1896,644 "/>
<polygon class="st2" points="2076,477 1948,426 1898,464 "/>
<polygon class="st3" points="2076,477 2008,367 1948,426 "/>
<polygon class="st1" points="2069,-81 2061,-101 2034,-35 "/>
<polygon class="st1" points="2001,147 1976,165 1982,233 "/>
<polygon class="st1" points="2050,139 1971,92 2001,147 "/>
<polygon class="st2" points="2057,620 1909,657 2053,683 "/>
<polygon class="st2" points="2057,620 1896,644 1909,657 "/>
<polygon class="st2" points="2061,-101 1846,-75 2034,-35 "/>
<polygon class="st2" points="2053,683 1909,657 1991,795 "/>
<polygon class="st2" points="2034,-35 1846,-75 1993,-1 "/>
<polygon class="st3" points="2044,298 1944,274 2008,367 "/>
<polygon class="st3" points="2044,298 1982,233 1944,274 "/>
<polygon class="st3" points="2024,858 1923,825 1880,947 "/>
<polygon class="st2" points="1898,464 1837,540 1896,644 "/>
<polygon class="st2" points="1993,-1 1846,-75 1868,-12 "/>
<polygon class="st1" points="2019,1066 1880,947 1847,1094 "/>
<polygon class="st3" points="2024,858 1942,814 1923,825 "/>
<polygon class="st3" points="2024,858 1991,795 1942,814 "/>
<polygon class="st2" points="1991,795 1909,657 1942,814 "/>
<polygon class="st1" points="1993,-1 1963,91 1971,92 "/>
<polygon class="st2" points="2008,367 1914,394 1948,426 "/>
<polygon class="st2" points="2008,367 1944,274 1914,394 "/>
<polygon class="st2" points="1942,814 1909,657 1862,684 "/>
<polygon class="st1" points="2001,147 1971,92 1976,165 "/>
<polygon class="st2" points="1942,814 1862,684 1877,806 "/>
<polygon class="st1" points="1976,165 1971,92 1963,91 "/>
<polygon class="st2" points="1982,233 1976,165 1922,196 "/>
<polygon class="st2" points="1993,-1 1868,-12 1963,91 "/>
<polygon class="st2" points="1963,91 1875,172 1922,196 "/>
<polygon class="st2" points="1976,165 1963,91 1922,196 "/>
<polygon class="st2" points="1982,233 1922,196 1944,274 "/>
<polygon class="st2" points="1944,274 1879,396 1914,394 "/>
<polygon class="st2" points="1963,91 1836,127 1875,172 "/>
<polygon class="st2" points="1963,91 1868,-12 1836,127 "/>
<polygon class="st1" points="1847,1094 1728,1050 1641,1059 "/>
<polygon class="st3" points="1923,825 1828,886 1880,947 "/>
<polygon class="st3" points="1942,814 1877,806 1923,825 "/>
<polygon class="st2" points="1944,274 1843,396 1879,396 "/>
<polygon class="st2" points="1944,274 1836,221 1843,396 "/>
<polygon class="st2" points="1944,274 1922,196 1836,221 "/>
<polygon class="st2" points="1948,426 1914,394 1898,464 "/>
<polygon class="st2" points="1843,396 1836,221 1809,385 "/>
<polygon class="st2" points="1914,394 1879,396 1898,464 "/>
<polygon class="st2" points="1922,196 1870,185 1836,221 "/>
<polygon class="st2" points="1922,196 1875,172 1870,185 "/>
<polygon class="st3" points="1923,825 1877,806 1828,886 "/>
<polygon class="st0" points="1868,-12 1789,100 1836,127 "/>
<polygon class="st0" points="1868,-12 1785,12 1789,100 "/>
<polygon class="st2" points="1909,657 1896,644 1862,684 "/>
<polygon class="st0" points="1593,-86 1522,-92 1546,-88 "/>
<polygon class="st2" points="1836,221 1823,221 1809,385 "/>
<polygon class="st2" points="1877,806 1862,684 1820,682 "/>
<polygon class="st1" points="1880,947 1740,989 1847,1094 "/>
<polygon class="st2" points="1896,644 1837,540 1820,682 "/>
<polygon class="st2" points="1898,464 1879,396 1843,396 "/>
<polygon class="st2" points="1898,464 1843,396 1837,540 "/>
<polygon class="st2" points="1896,644 1820,682 1862,684 "/>
<polygon class="st0" points="1837,540 1776,401 1744,434 "/>
<polygon class="st0" points="1837,540 1789,675 1820,682 "/>
<polygon class="st0" points="1837,540 1744,611 1789,675 "/>
<polygon class="st0" points="1843,396 1776,401 1837,540 "/>
<polygon class="st0" points="1877,806 1820,682 1737,755 "/>
<polygon class="st3" points="1880,947 1828,886 1744,939 "/>
<polygon class="st1" points="1880,947 1744,939 1740,989 "/>
<polygon class="st0" points="1823,221 1786,215 1809,385 "/>
<polygon class="st1" points="1847,1094 1740,989 1728,1050 "/>
<polygon class="st3" points="1877,806 1721,797 1828,886 "/>
<polygon class="st2" points="1877,806 1737,755 1721,797 "/>
<polygon class="st2" points="1875,172 1836,127 1870,185 "/>
<polygon class="st0" points="1868,-12 1846,-75 1785,12 "/>
<polygon class="st2" points="1870,185 1823,221 1836,221 "/>
<polygon class="st2" points="1870,185 1836,127 1823,221 "/>
<polygon class="st1" points="1641,1059 1431,1085 1408,1099 "/>
<polygon class="st0" points="1809,385 1786,215 1702,354 "/>
<polygon class="st0" points="1836,127 1786,215 1823,221 "/>
<polygon class="st0" points="1820,682 1789,675 1737,755 "/>
<polygon class="st0" points="1843,396 1809,385 1776,401 "/>
<polygon class="st0" points="1846,-75 1810,-101 1785,12 "/>
<polygon class="st3" points="1828,886 1721,797 1708,826 "/>
<polygon class="st0" points="1836,127 1789,100 1786,215 "/>
<polygon class="st0" points="1837,540 1744,434 1669,504 "/>
<polygon class="st0" points="1837,540 1669,504 1744,611 "/>
<polygon class="st0" points="1809,385 1702,354 1776,401 "/>
<polygon class="st3" points="1828,886 1708,826 1744,939 "/>
<polygon class="st0" points="1789,100 1703,199 1786,215 "/>
<polygon class="st0" points="1786,215 1703,199 1702,354 "/>
<polygon class="st0" points="1789,100 1687,167 1703,199 "/>
<polygon class="st0" points="1810,-101 1593,-86 1785,12 "/>
<polygon class="st0" points="1785,12 1593,-86 1676,51 "/>
<polygon class="st0" points="1789,100 1785,12 1707,78 "/>
<polygon class="st0" points="1703,199 1639,273 1702,354 "/>
<polygon class="st0" points="1789,100 1707,78 1687,167 "/>
<polygon class="st0" points="1789,675 1744,611 1651,695 "/>
<polygon class="st0" points="1789,675 1651,695 1737,755 "/>
<polygon class="st0" points="1785,12 1676,51 1707,78 "/>
<polygon class="st0" points="1776,401 1702,354 1744,434 "/>
<polygon class="st0" points="1703,199 1686,198 1639,273 "/>
<polygon class="st2" points="1737,755 1710,791 1721,797 "/>
<polygon class="st0" points="1737,755 1651,695 1684,765 "/>
<polygon class="st1" points="1740,989 1709,995 1728,1050 "/>
<polygon class="st3" points="1744,939 1708,826 1630,943 "/>
<polygon class="st1" points="1744,939 1709,995 1740,989 "/>
<polygon class="st0" points="1744,611 1590,619 1651,695 "/>
<polygon class="st0" points="1744,611 1669,504 1588,600 "/>
<polygon class="st0" points="1744,611 1588,600 1590,619 "/>
<polygon class="st0" points="1744,434 1702,354 1647,405 "/>
<polygon class="st0" points="1744,434 1647,405 1669,504 "/>
<polygon class="st1" points="1744,939 1630,943 1709,995 "/>
<polygon class="st3" points="1708,826 1630,825 1630,943 "/>
<polygon class="st2" points="1737,755 1684,765 1710,791 "/>
<polygon class="st1" points="1641,1059 1622,1050 1431,1085 "/>
<polygon class="st3" points="1721,797 1701,808 1708,826 "/>
<polygon class="st1" points="1728,1050 1709,995 1641,1059 "/>
<polygon class="st3" points="1721,797 1710,791 1701,808 "/>
<polygon class="st0" points="1684,765 1651,695 1671,764 "/>
<polygon class="st0" points="1703,199 1687,167 1686,198 "/>
<polygon class="st0" points="1707,78 1676,51 1687,167 "/>
<polygon class="st2" points="1710,791 1684,765 1701,808 "/>
<polygon class="st1" points="1630,943 1592,1008 1622,1050 "/>
<polygon class="st1" points="1709,995 1622,1050 1641,1059 "/>
<polygon class="st1" points="1709,995 1630,943 1622,1050 "/>
<polygon class="st3" points="1708,826 1701,808 1630,825 "/>
<polygon class="st0" points="1687,167 1676,51 1529,95 "/>
<polygon class="st2" points="1701,808 1684,765 1671,764 "/>
<polygon class="st0" points="1702,354 1639,273 1647,405 "/>
<polygon class="st2" points="1701,808 1671,764 1649,771 "/>
<polygon class="st2" points="1701,808 1649,771 1630,825 "/>
<polygon class="st3" points="1630,825 1586,848 1630,943 "/>
<polygon class="st0" points="1669,504 1647,405 1575,492 "/>
<polygon class="st0" points="1671,764 1651,695 1649,771 "/>
<polygon class="st0" points="1687,167 1566,282 1686,198 "/>
<polygon class="st0" points="1687,167 1529,95 1566,282 "/>
<polygon class="st0" points="1676,51 1593,-86 1501,-13 "/>
<polygon class="st0" points="1686,198 1566,282 1639,273 "/>
<polygon class="st0" points="1647,405 1639,273 1566,282 "/>
<polygon class="st0" points="1669,504 1575,492 1588,600 "/>
<polygon class="st0" points="1676,51 1501,-13 1529,95 "/>
<polygon class="st0" points="1647,405 1566,282 1502,345 "/>
<polygon class="st2" points="1649,771 1545,774 1612,806 "/>
<polygon class="st2" points="1649,771 1612,806 1630,825 "/>
<polygon class="st0" points="1651,695 1545,774 1649,771 "/>
<polygon class="st0" points="1651,695 1590,619 1545,774 "/>
<polygon class="st1" points="1622,1050 1467,1036 1431,1085 "/>
<polygon class="st0" points="1647,405 1502,345 1575,492 "/>
<polygon class="st0" points="1566,282 1529,95 1469,242 "/>
<polygon class="st3" points="1630,943 1586,848 1541,960 "/>
<polygon class="st0" points="1590,619 1472,725 1545,774 "/>
<polygon class="st0" points="1593,-86 1546,-88 1501,-13 "/>
<polygon class="st1" points="1630,943 1541,960 1592,1008 "/>
<polygon class="st3" points="1630,825 1612,806 1586,848 "/>
<polygon class="st1" points="1622,1050 1494,1011 1467,1036 "/>
<polygon class="st1" points="1622,1050 1592,1008 1494,1011 "/>
<polygon class="st0" points="1566,282 1469,242 1530,286 "/>
<polygon class="st0" points="1575,492 1502,345 1451,448 "/>
<polygon class="st3" points="1586,848 1500,878 1541,960 "/>
<polygon class="st0" points="1588,600 1575,492 1498,525 "/>
<polygon class="st2" points="1612,806 1545,774 1586,848 "/>
<polygon class="st0" points="1566,282 1530,286 1502,345 "/>
<polygon class="st0" points="1575,492 1451,448 1475,488 "/>
<polygon class="st0" points="1590,619 1418,594 1472,725 "/>
<polygon class="st1" points="1592,1008 1541,960 1494,1011 "/>
<polygon class="st0" points="1502,345 1456,377 1451,448 "/>
<polygon class="st0" points="1590,619 1588,600 1418,594 "/>
<polygon class="st0" points="1529,95 1463,106 1469,242 "/>
<polygon class="st2" points="1586,848 1545,774 1500,878 "/>
<polygon class="st0" points="1588,600 1498,525 1418,594 "/>
<polygon class="st0" points="1575,492 1475,488 1498,525 "/>
<polygon class="st0" points="1545,774 1472,725 1481,761 "/>
<polygon class="st0" points="1546,-88 1522,-92 1501,-13 "/>
<polygon class="st2" points="1500,878 1481,761 1448,785 "/>
<polygon class="st0" points="1529,95 1501,-13 1463,106 "/>
<polygon class="st2" points="1545,774 1481,761 1500,878 "/>
<polygon class="st3" points="1541,960 1500,878 1494,1011 "/>
<polygon class="st3" points="1500,878 1380,899 1494,1011 "/>
<polygon class="st0" points="1522,-92 1428,-72 1501,-13 "/>
<polygon class="st0" points="1530,286 1469,242 1502,345 "/>
<polygon class="st0" points="1501,-13 1416,92 1463,106 "/>
<polygon class="st0" points="1502,345 1469,242 1439,343 "/>
<polygon class="st0" points="1522,-92 1414,-101 1428,-72 "/>
<polygon class="st1" points="1408,1099 1285,1061 1163,1090 "/>
<polygon class="st0" points="1456,377 1433,418 1451,448 "/>
<polygon class="st1" points="1467,1036 1380,899 1343,961 "/>
<polygon class="st0" points="1472,725 1418,594 1364,643 "/>
<polygon class="st1" points="1494,1011 1380,899 1467,1036 "/>
<polygon class="st0" points="1498,525 1437,497 1418,594 "/>
<polygon class="st3" points="1500,878 1401,866 1380,899 "/>
<polygon class="st3" points="1500,878 1448,785 1401,866 "/>
<polygon class="st0" points="1501,-13 1428,-72 1368,59 "/>
<polygon class="st0" points="1501,-13 1368,59 1416,92 "/>
<polygon class="st0" points="1502,345 1439,343 1456,377 "/>
<polygon class="st0" points="1469,242 1463,106 1342,218 "/>
<polygon class="st0" points="1463,106 1416,92 1342,218 "/>
<polygon class="st0" points="1498,525 1475,488 1437,497 "/>
<polygon class="st0" points="1472,725 1364,643 1367,724 "/>
<polygon class="st0" points="1481,761 1472,725 1450,755 "/>
<polygon class="st2" points="1481,761 1450,755 1448,785 "/>
<polygon class="st0" points="1437,497 1379,547 1418,594 "/>
<polygon class="st3" points="1448,785 1401,790 1401,866 "/>
<polygon class="st0" points="1469,242 1342,218 1439,343 "/>
<polygon class="st0" points="1475,488 1451,448 1437,497 "/>
<polygon class="st0" points="1472,725 1367,724 1450,755 "/>
<polygon class="st1" points="1467,1036 1343,961 1431,1085 "/>
<polygon class="st0" points="1428,-72 1318,-15 1368,59 "/>
<polygon class="st1" points="1431,1085 1343,961 1408,1099 "/>
<polygon class="st0" points="1439,343 1342,218 1319,334 "/>
<polygon class="st0" points="1456,377 1439,343 1433,418 "/>
<polygon class="st2" points="1450,755 1401,790 1448,785 "/>
<polygon class="st0" points="1451,448 1352,436 1437,497 "/>
<polygon class="st0" points="1451,448 1433,418 1352,436 "/>
<polygon class="st0" points="1450,755 1367,724 1401,790 "/>
<polygon class="st0" points="1439,343 1324,375 1433,418 "/>
<polygon class="st0" points="1342,218 1300,276 1319,334 "/>
<polygon class="st0" points="1433,418 1324,375 1352,436 "/>
<polygon class="st0" points="1437,497 1334,500 1367,533 "/>
<polygon class="st0" points="1437,497 1352,436 1334,500 "/>
<polygon class="st0" points="1437,497 1367,533 1379,547 "/>
<polygon class="st0" points="1439,343 1319,334 1324,375 "/>
<polygon class="st1" points="1408,1099 1343,961 1285,1061 "/>
<polygon class="st0" points="1414,-101 1175,-94 1310,-36 "/>
<polygon class="st0" points="1418,594 1379,547 1375,572 "/>
<polygon class="st0" points="1416,92 1328,214 1342,218 "/>
<polygon class="st0" points="1416,92 1315,69 1328,214 "/>
<polygon class="st0" points="1428,-72 1310,-36 1318,-15 "/>
<polygon class="st0" points="1428,-72 1414,-101 1310,-36 "/>
<polygon class="st3" points="1401,866 1401,790 1317,825 "/>
<polygon class="st0" points="1416,92 1368,59 1315,69 "/>
<polygon class="st0" points="1418,594 1375,572 1364,643 "/>
<polygon class="st1" points="1343,961 1299,978 1285,1061 "/>
<polygon class="st1" points="416,1097 128,1081 -16,1099 "/>
<polygon class="st0" points="1401,790 1367,724 1317,825 "/>
<polygon class="st3" points="1401,866 1317,825 1380,899 "/>
<polygon class="st0" points="1352,436 1328,450 1334,500 "/>
<polygon class="st0" points="1367,724 1278,746 1317,825 "/>
<polygon class="st0" points="1367,724 1364,643 1290,701 "/>
<polygon class="st0" points="1368,59 1318,-15 1304,48 "/>
<polygon class="st0" points="1375,572 1328,605 1364,643 "/>
<polygon class="st0" points="1379,547 1367,533 1375,572 "/>
<polygon class="st1" points="1380,899 1258,948 1343,961 "/>
<polygon class="st3" points="1380,899 1317,825 1258,948 "/>
<polygon class="st0" points="1375,572 1367,533 1307,594 "/>
<polygon class="st0" points="1375,572 1307,594 1328,605 "/>
<polygon class="st0" points="1367,533 1334,500 1307,594 "/>
<polygon class="st0" points="1368,59 1304,48 1315,69 "/>
<polygon class="st0" points="1328,214 1315,69 1240,78 "/>
<polygon class="st0" points="1367,724 1290,701 1278,746 "/>
<polygon class="st0" points="1364,643 1328,605 1290,701 "/>
<polygon class="st3" points="1317,825 1234,840 1258,948 "/>
<polygon class="st0" points="1317,825 1278,746 1279,812 "/>
<polygon class="st0" points="1328,605 1260,659 1290,701 "/>
<polygon class="st0" points="1334,500 1268,573 1307,594 "/>
<polygon class="st0" points="1342,218 1328,214 1300,276 "/>
<polygon class="st1" points="1343,961 1258,948 1299,978 "/>
<polygon class="st0" points="1352,436 1324,375 1328,450 "/>
<polygon class="st1" points="1163,1090 1055,1084 1003,1099 "/>
<polygon class="st0" points="1328,214 1240,78 1185,115 "/>
<polygon class="st0" points="1328,605 1307,594 1260,659 "/>
<polygon class="st3" points="1317,825 1279,812 1234,840 "/>
<polygon class="st0" points="1328,214 1185,115 1217,259 "/>
<polygon class="st0" points="1334,500 1328,450 1268,573 "/>
<polygon class="st0" points="1328,450 1324,375 1139,476 "/>
<polygon class="st0" points="1328,450 1139,476 1268,573 "/>
<polygon class="st0" points="1328,214 1217,259 1300,276 "/>
<polygon class="st0" points="1324,375 1247,300 1139,476 "/>
<polygon class="st0" points="1319,334 1300,276 1247,300 "/>
<polygon class="st0" points="1324,375 1319,334 1247,300 "/>
<polygon class="st0" points="1268,573 1139,476 1175,564 "/>
<polygon class="st0" points="1318,-15 1310,-36 1180,22 "/>
<polygon class="st0" points="1318,-15 1180,22 1304,48 "/>
<polygon class="st0" points="1304,48 1180,22 1240,78 "/>
<polygon class="st0" points="1315,69 1304,48 1240,78 "/>
<polygon class="st0" points="1307,594 1268,573 1260,659 "/>
<polygon class="st0" points="1310,-36 1175,-94 1180,22 "/>
<polygon class="st1" points="1299,978 1258,948 1285,1061 "/>
<polygon class="st0" points="1247,300 1115,334 1139,476 "/>
<polygon class="st0" points="1268,573 1218,602 1260,659 "/>
<polygon class="st1" points="1285,1061 1258,948 1204,946 "/>
<polygon class="st0" points="1300,276 1217,259 1247,300 "/>
<polygon class="st3" points="1258,948 1234,840 1204,946 "/>
<polygon class="st1" points="1285,1061 1204,946 1163,1090 "/>
<polygon class="st0" points="1290,701 1179,717 1278,746 "/>
<polygon class="st0" points="1290,701 1260,659 1179,717 "/>
<polygon class="st0" points="1279,812 1278,746 1234,840 "/>
<polygon class="st1" points="663,1099 457,1092 416,1097 "/>
<polygon class="st0" points="1278,746 1179,717 1234,840 "/>
<polygon class="st0" points="1260,659 1179,681 1179,717 "/>
<polygon class="st1" points="1204,946 1126,1047 1163,1090 "/>
<polygon class="st0" points="1217,259 1185,115 1130,203 "/>
<polygon class="st0" points="1268,573 1175,564 1218,602 "/>
<polygon class="st0" points="1139,476 1115,334 1090,402 "/>
<polygon class="st0" points="1185,115 1133,157 1130,203 "/>
<polygon class="st3" points="1234,840 1154,902 1204,946 "/>
<polygon class="st0" points="1240,78 1180,22 1190,69 "/>
<polygon class="st0" points="1260,659 1218,602 1179,681 "/>
<polygon class="st0" points="1247,300 1209,271 1115,334 "/>
<polygon class="st0" points="1234,840 1179,717 1136,738 "/>
<polygon class="st0" points="1247,300 1217,259 1209,271 "/>
<polygon class="st0" points="1218,602 1162,623 1179,681 "/>
<polygon class="st0" points="1234,840 1136,738 1100,828 "/>
<polygon class="st0" points="1240,78 1190,69 1185,115 "/>
<polygon class="st3" points="1234,840 1100,828 1154,902 "/>
<polygon class="st0" points="1217,259 1130,203 1209,271 "/>
<polygon class="st0" points="1218,602 1175,564 1162,623 "/>
<polygon class="st0" points="891,-101 600,-101 772,-79 "/>
<polygon class="st1" points="1204,946 1154,902 1126,1047 "/>
<polygon class="st0" points="1209,271 1130,203 1115,334 "/>
<polygon class="st0" points="1175,564 1139,476 1105,510 "/>
<polygon class="st0" points="1175,-94 1045,-101 1015,-39 "/>
<polygon class="st0" points="1180,22 1175,-94 1015,-39 "/>
<polygon class="st0" points="1190,69 1117,122 1185,115 "/>
<polygon class="st0" points="1190,69 1180,22 1117,122 "/>
<polygon class="st1" points="1154,902 1023,949 1126,1047 "/>
<polygon class="st0" points="1185,115 1117,122 1133,157 "/>
<polygon class="st0" points="1179,681 1136,738 1179,717 "/>
<polygon class="st0" points="1179,681 1162,623 1136,738 "/>
<polygon class="st0" points="1180,22 1015,-39 1117,122 "/>
<polygon class="st0" points="1175,564 1105,510 1162,623 "/>
<polygon class="st0" points="1162,623 1105,510 978,561 "/>
<polygon class="st0" points="1162,623 990,689 1136,738 "/>
<polygon class="st1" points="1163,1090 1126,1047 1055,1084 "/>
<polygon class="st0" points="1162,623 978,561 990,689 "/>
<polygon class="st0" points="1115,334 1093,344 1090,402 "/>
<polygon class="st0" points="1130,203 1093,344 1115,334 "/>
<polygon class="st3" points="1154,902 1100,828 1054,859 "/>
<polygon class="st3" points="1154,902 1054,859 1023,949 "/>
<polygon class="st0" points="1015,-39 961,34 978,100 "/>
<polygon class="st0" points="1117,122 978,100 1043,144 "/>
<polygon class="st0" points="1117,122 1015,-39 978,100 "/>
<polygon class="st1" points="1126,1047 1023,949 1002,1030 "/>
<polygon class="st0" points="1130,203 1061,174 1093,344 "/>
<polygon class="st0" points="1136,738 1075,829 1100,828 "/>
<polygon class="st0" points="1139,476 1058,425 1105,510 "/>
<polygon class="st0" points="1139,476 1090,402 1058,425 "/>
<polygon class="st0" points="1133,157 1061,174 1130,203 "/>
<polygon class="st0" points="1136,738 990,689 1075,829 "/>
<polygon class="st0" points="1133,157 1117,122 1061,174 "/>
<polygon class="st3" points="1054,859 1016,894 1023,949 "/>
<polygon class="st0" points="1093,344 1061,174 1000,356 "/>
<polygon class="st1" points="1126,1047 1002,1030 1055,1084 "/>
<polygon class="st0" points="1075,829 990,689 1041,836 "/>
<polygon class="st3" points="1100,828 1075,829 1054,859 "/>
<polygon class="st0" points="1117,122 1043,144 1061,174 "/>
<polygon class="st0" points="1015,-39 961,22 961,34 "/>
<polygon class="st0" points="1041,836 990,689 949,772 "/>
<polygon class="st0" points="1105,510 1058,425 975,532 "/>
<polygon class="st0" points="1105,510 975,532 978,561 "/>
<polygon class="st0" points="1061,174 911,204 1000,356 "/>
<polygon class="st0" points="1093,344 1000,356 1090,402 "/>
<polygon class="st0" points="1090,402 1000,356 1058,425 "/>
<polygon class="st0" points="1061,174 1034,154 911,204 "/>
<polygon class="st3" points="1075,829 1041,836 1054,859 "/>
<polygon class="st0" points="1061,174 1043,144 1034,154 "/>
<polygon class="st0" points="1045,-101 993,-92 1015,-39 "/>
<polygon class="st1" points="1055,1084 1002,1030 1003,1099 "/>
<polygon class="st0" points="1058,425 1000,356 930,373 "/>
<polygon class="st0" points="1058,425 930,373 975,532 "/>
<polygon class="st0" points="1015,-39 984,-33 961,22 "/>
<polygon class="st0" points="1045,-101 1001,-101 993,-92 "/>
<polygon class="st1" points="1023,949 974,975 1002,1030 "/>
<polygon class="st3" points="1054,859 1041,836 1016,894 "/>
<polygon class="st0" points="1000,356 911,204 883,315 "/>
<polygon class="st1" points="1002,1030 974,975 983,1019 "/>
<polygon class="st0" points="1043,144 978,100 1034,154 "/>
<polygon class="st3" points="1041,836 918,840 1016,894 "/>
<polygon class="st2" points="1041,836 949,772 918,840 "/>
<polygon class="st0" points="990,689 978,561 913,659 "/>
<polygon class="st1" points="1003,1099 1002,1030 1001,1099 "/>
<polygon class="st0" points="1034,154 978,100 911,204 "/>
<polygon class="st1" points="1002,1030 970,1099 1001,1099 "/>
<polygon class="st0" points="1015,-39 993,-92 984,-33 "/>
<polygon class="st3" points="1023,949 1016,894 974,975 "/>
<polygon class="st0" points="1000,356 883,315 930,373 "/>
<polygon class="st3" points="1016,894 918,840 974,975 "/>
<polygon class="st0" points="930,373 854,516 925,549 "/>
<polygon class="st0" points="975,532 930,373 925,549 "/>
<polygon class="st0" points="1001,-101 891,-101 993,-92 "/>
<polygon class="st1" points="1002,1030 983,1019 970,1099 "/>
<polygon class="st0" points="993,-92 937,-37 984,-33 "/>
<polygon class="st0" points="978,561 925,549 913,659 "/>
<polygon class="st0" points="978,100 923,86 911,204 "/>
<polygon class="st1" points="983,1019 892,1034 970,1099 "/>
<polygon class="st0" points="990,689 913,659 949,772 "/>
<polygon class="st0" points="993,-92 891,-101 937,-37 "/>
<polygon class="st0" points="978,100 961,34 923,86 "/>
<polygon class="st0" points="984,-33 937,-37 961,22 "/>
<polygon class="st0" points="911,204 863,245 883,315 "/>
<polygon class="st3" points="974,975 918,840 822,883 "/>
<polygon class="st1" points="983,1019 974,975 892,1034 "/>
<polygon class="st0" points="961,34 924,38 923,86 "/>
<polygon class="st3" points="974,975 822,883 892,1034 "/>
<polygon class="st0" points="978,561 975,532 925,549 "/>
<polygon class="st0" points="949,772 913,659 901,782 "/>
<polygon class="st1" points="970,1099 892,1034 830,1099 "/>
<polygon class="st0" points="937,-37 894,-24 924,38 "/>
<polygon class="st2" points="949,772 901,782 918,840 "/>
<polygon class="st0" points="961,22 924,38 961,34 "/>
<polygon class="st0" points="961,22 937,-37 924,38 "/>
<polygon class="st0" points="913,659 852,773 901,782 "/>
<polygon class="st0" points="923,86 849,191 911,204 "/>
<polygon class="st0" points="924,38 914,43 923,86 "/>
<polygon class="st0" points="925,549 850,545 913,659 "/>
<polygon class="st0" points="913,659 839,764 852,773 "/>
<polygon class="st0" points="923,86 833,81 849,191 "/>
<polygon class="st0" points="924,38 894,-24 914,43 "/>
<polygon class="st0" points="930,373 744,365 854,516 "/>
<polygon class="st0" points="937,-37 879,-93 894,-24 "/>
<polygon class="st0" points="937,-37 891,-101 879,-93 "/>
<polygon class="st0" points="854,516 744,365 743,471 "/>
<polygon class="st0" points="891,-101 772,-79 879,-93 "/>
<polygon class="st0" points="913,659 850,545 797,624 "/>
<polygon class="st0" points="930,373 883,315 744,365 "/>
<polygon class="st0" points="839,764 793,685 815,752 "/>
<polygon class="st0" points="854,516 743,471 791,513 "/>
<polygon class="st3" points="892,1034 822,883 761,975 "/>
<polygon class="st0" points="913,659 793,685 839,764 "/>
<polygon class="st0" points="923,86 914,43 833,81 "/>
<polygon class="st0" points="925,549 854,516 850,545 "/>
<polygon class="st2" points="918,840 901,782 852,773 "/>
<polygon class="st2" points="918,840 852,773 822,883 "/>
<polygon class="st0" points="833,81 798,45 827,79 "/>
<polygon class="st0" points="913,659 797,624 793,646 "/>
<polygon class="st0" points="914,43 894,-24 798,45 "/>
<polygon class="st0" points="914,43 798,45 833,81 "/>
<polygon class="st0" points="913,659 793,646 793,685 "/>
<polygon class="st0" points="911,204 849,229 863,245 "/>
<polygon class="st0" points="911,204 849,191 849,229 "/>
<polygon class="st0" points="894,-24 879,-93 772,-79 "/>
<polygon class="st0" points="894,-24 772,-79 798,45 "/>
<polygon class="st1" points="892,1034 761,975 830,1099 "/>
<polygon class="st0" points="883,315 863,245 744,365 "/>
<polygon class="st0" points="863,245 849,229 744,365 "/>
<polygon class="st0" points="839,764 815,752 822,883 "/>
<polygon class="st0" points="849,191 833,81 757,136 "/>
<polygon class="st2" points="852,773 839,764 822,883 "/>
<polygon class="st0" points="833,81 827,79 757,136 "/>
<polygon class="st0" points="850,545 762,557 797,624 "/>
<polygon class="st0" points="854,516 791,513 850,545 "/>
<polygon class="st0" points="849,229 650,189 744,365 "/>
<polygon class="st0" points="849,229 849,191 757,136 "/>
<polygon class="st0" points="850,545 791,513 762,557 "/>
<polygon class="st0" points="849,229 757,136 650,189 "/>
<polygon class="st1" points="830,1099 761,975 667,1058 "/>
<polygon class="st0" points="822,883 815,752 577,776 "/>
<polygon class="st2" points="822,883 577,776 725,960 "/>
<polygon class="st0" points="827,79 751,130 757,136 "/>
<polygon class="st1" points="830,1099 667,1058 663,1099 "/>
<polygon class="st3" points="822,883 725,960 761,975 "/>
<polygon class="st0" points="827,79 798,45 751,130 "/>
<polygon class="st0" points="815,752 793,685 694,644 "/>
<polygon class="st0" points="815,752 694,644 577,776 "/>
<polygon class="st0" points="744,365 650,189 630,210 "/>
<polygon class="st0" points="744,365 630,210 645,349 "/>
<polygon class="st0" points="797,624 762,557 726,593 "/>
<polygon class="st0" points="798,45 686,86 751,130 "/>
<polygon class="st0" points="798,45 772,-79 667,63 "/>
<polygon class="st0" points="798,45 667,63 686,86 "/>
<polygon class="st0" points="793,685 793,646 711,637 "/>
<polygon class="st0" points="797,624 711,637 793,646 "/>
<polygon class="st0" points="797,624 726,593 711,637 "/>
<polygon class="st0" points="793,685 711,637 694,644 "/>
<polygon class="st0" points="772,-79 600,-101 604,-93 "/>
<polygon class="st0" points="791,513 743,471 762,557 "/>
<polygon class="st2" points="725,960 577,776 551,914 "/>
<polygon class="st0" points="744,365 660,385 743,471 "/>
<polygon class="st0" points="751,130 669,134 650,189 "/>
<polygon class="st0" points="757,136 751,130 650,189 "/>
<polygon class="st1" points="761,975 725,960 667,1058 "/>
<polygon class="st0" points="762,557 743,471 680,492 "/>
<polygon class="st0" points="772,-79 611,-79 667,63 "/>
<polygon class="st0" points="772,-79 604,-93 611,-79 "/>
<polygon class="st0" points="645,349 630,210 616,225 "/>
<polygon class="st0" points="762,557 694,581 726,593 "/>
<polygon class="st0" points="762,557 680,492 694,581 "/>
<polygon class="st0" points="743,471 660,385 680,492 "/>
<polygon class="st0" points="751,130 686,86 669,134 "/>
<polygon class="st0" points="744,365 645,349 660,385 "/>
<polygon class="st1" points="725,960 551,914 620,995 "/>
<polygon class="st0" points="667,63 611,-79 581,-5 "/>
<polygon class="st1" points="725,960 620,995 667,1058 "/>
<polygon class="st0" points="726,593 694,581 711,637 "/>
<polygon class="st0" points="694,581 680,492 625,558 "/>
<polygon class="st0" points="711,637 694,581 694,644 "/>
<polygon class="st0" points="229,-82 -16,-98 177,-77 "/>
<polygon class="st0" points="645,349 616,225 574,266 "/>
<polygon class="st0" points="680,492 660,385 603,481 "/>
<polygon class="st0" points="694,644 694,581 625,558 "/>
<polygon class="st0" points="694,644 625,558 578,594 "/>
<polygon class="st0" points="694,644 578,594 577,776 "/>
<polygon class="st0" points="578,594 502,675 577,776 "/>
<polygon class="st0" points="686,86 667,63 669,134 "/>
<polygon class="st0" points="680,492 603,481 625,558 "/>
<polygon class="st1" points="663,1099 472,1067 457,1092 "/>
<polygon class="st0" points="667,63 541,47 547,127 "/>
<polygon class="st0" points="669,134 667,63 547,127 "/>
<polygon class="st0" points="669,134 547,127 650,189 "/>
<polygon class="st0" points="667,63 581,-5 541,47 "/>
<polygon class="st1" points="667,1058 620,995 663,1099 "/>
<polygon class="st1" points="663,1099 620,995 472,1067 "/>
<polygon class="st0" points="660,385 645,349 513,362 "/>
<polygon class="st0" points="660,385 513,362 603,481 "/>
<polygon class="st2" points="577,776 517,816 551,914 "/>
<polygon class="st0" points="578,594 525,617 502,675 "/>
<polygon class="st0" points="650,189 565,210 630,210 "/>
<polygon class="st0" points="650,189 547,127 565,210 "/>
<polygon class="st0" points="645,349 574,266 513,362 "/>
<polygon class="st0" points="625,558 603,481 560,510 "/>
<polygon class="st0" points="630,210 565,210 616,225 "/>
<polygon class="st0" points="625,558 548,523 578,594 "/>
<polygon class="st0" points="625,558 560,510 548,523 "/>
<polygon class="st0" points="574,266 502,323 513,362 "/>
<polygon class="st1" points="620,995 551,914 480,941 "/>
<polygon class="st1" points="620,995 480,941 472,1067 "/>
<polygon class="st0" points="513,362 466,448 475,470 "/>
<polygon class="st0" points="603,481 475,470 560,510 "/>
<polygon class="st0" points="603,481 513,362 475,470 "/>
<polygon class="st0" points="611,-79 573,-101 581,-5 "/>
<polygon class="st0" points="616,225 565,210 574,266 "/>
<polygon class="st0" points="611,-79 604,-93 573,-101 "/>
<polygon class="st0" points="581,-5 573,-101 526,-11 "/>
<polygon class="st0" points="604,-93 600,-101 573,-101 "/>
<polygon class="st3" points="551,914 517,816 497,892 "/>
<polygon class="st0" points="565,210 547,127 547,217 "/>
<polygon class="st0" points="573,-101 229,-82 251,-48 "/>
<polygon class="st0" points="574,266 565,210 547,217 "/>
<polygon class="st0" points="577,776 460,711 517,816 "/>
<polygon class="st0" points="577,776 502,675 460,711 "/>
<polygon class="st0" points="578,594 548,523 515,567 "/>
<polygon class="st0" points="581,-5 519,1 541,47 "/>
<polygon class="st0" points="581,-5 526,-11 519,1 "/>
<polygon class="st0" points="578,594 515,567 525,617 "/>
<polygon class="st0" points="573,-101 347,30 526,-11 "/>
<polygon class="st0" points="573,-101 251,-48 347,30 "/>
<polygon class="st0" points="574,266 547,217 489,314 "/>
<polygon class="st0" points="574,266 489,314 502,323 "/>
<polygon class="st1" points="480,941 438,1034 472,1067 "/>
<polygon class="st0" points="560,510 475,470 548,523 "/>
<polygon class="st0" points="547,127 437,75 394,104 "/>
<polygon class="st0" points="547,127 541,47 437,75 "/>
<polygon class="st0" points="547,217 547,127 394,104 "/>
<polygon class="st0" points="547,217 394,104 386,256 "/>
<polygon class="st0" points="547,217 427,283 489,314 "/>
<polygon class="st3" points="551,914 497,892 480,941 "/>
<polygon class="st0" points="526,-11 347,30 445,44 "/>
<polygon class="st0" points="547,217 386,256 427,283 "/>
<polygon class="st0" points="548,523 463,541 515,567 "/>
<polygon class="st0" points="548,523 475,470 463,541 "/>
<polygon class="st0" points="541,47 445,44 437,75 "/>
<polygon class="st0" points="541,47 519,1 445,44 "/>
<polygon class="st0" points="394,104 350,193 386,256 "/>
<polygon class="st0" points="515,567 463,541 417,639 "/>
<polygon class="st0" points="517,816 460,711 401,749 "/>
<polygon class="st0" points="525,617 515,567 417,639 "/>
<polygon class="st0" points="525,617 417,639 502,675 "/>
<polygon class="st0" points="526,-11 445,44 519,1 "/>
<polygon class="st0" points="517,816 401,749 392,769 "/>
<polygon class="st2" points="517,816 392,769 497,892 "/>
<polygon class="st0" points="475,470 453,480 463,541 "/>
<polygon class="st0" points="513,362 502,323 489,314 "/>
<polygon class="st0" points="513,362 489,314 466,448 "/>
<polygon class="st0" points="489,314 360,318 466,448 "/>
<polygon class="st0" points="489,314 427,283 360,318 "/>
<polygon class="st2" points="497,892 392,769 325,849 "/>
<polygon class="st0" points="502,675 434,700 460,711 "/>
<polygon class="st0" points="502,675 417,639 434,700 "/>
<polygon class="st3" points="497,892 384,966 480,941 "/>
<polygon class="st3" points="497,892 325,849 384,966 "/>
<polygon class="st1" points="480,941 384,966 438,1034 "/>
<polygon class="st0" points="463,541 453,480 429,489 "/>
<polygon class="st0" points="463,541 388,542 417,639 "/>
<polygon class="st0" points="466,448 360,318 395,489 "/>
<polygon class="st0" points="445,44 347,30 363,44 "/>
<polygon class="st0" points="475,470 466,448 453,480 "/>
<polygon class="st1" points="472,1067 438,1034 457,1092 "/>
<polygon class="st1" points="416,1097 161,1057 128,1081 "/>
<polygon class="st1" points="457,1092 438,1034 416,1097 "/>
<polygon class="st0" points="460,711 434,700 401,749 "/>
<polygon class="st0" points="466,448 429,489 453,480 "/>
<polygon class="st0" points="466,448 395,489 429,489 "/>
<polygon class="st0" points="463,541 429,489 388,542 "/>
<polygon class="st0" points="429,489 395,489 388,542 "/>
<polygon class="st0" points="445,44 363,44 437,75 "/>
<polygon class="st0" points="417,639 388,542 335,593 "/>
<polygon class="st0" points="434,700 417,639 359,677 "/>
<polygon class="st0" points="437,75 363,44 394,104 "/>
<polygon class="st1" points="438,1034 384,966 416,1097 "/>
<polygon class="st1" points="416,1097 384,966 332,964 "/>
<polygon class="st0" points="394,104 336,171 350,193 "/>
<polygon class="st0" points="434,700 392,748 401,749 "/>
<polygon class="st0" points="434,700 359,677 392,748 "/>
<polygon class="st0" points="394,104 363,44 357,74 "/>
<polygon class="st0" points="395,489 360,318 275,334 "/>
<polygon class="st1" points="416,1097 332,964 317,967 "/>
<polygon class="st0" points="417,639 335,593 358,648 "/>
<polygon class="st0" points="427,283 386,256 360,318 "/>
<polygon class="st3" points="384,966 325,849 332,964 "/>
<polygon class="st0" points="417,639 358,648 359,677 "/>
<polygon class="st1" points="416,1097 317,967 239,975 "/>
<polygon class="st1" points="416,1097 239,975 161,1057 "/>
<polygon class="st2" points="392,769 315,790 325,849 "/>
<polygon class="st0" points="395,489 275,334 202,418 "/>
<polygon class="st0" points="401,749 392,748 392,769 "/>
<polygon class="st0" points="392,748 359,677 292,738 "/>
<polygon class="st0" points="394,104 357,74 336,171 "/>
<polygon class="st0" points="395,489 230,589 335,593 "/>
<polygon class="st0" points="395,489 202,418 230,589 "/>
<polygon class="st0" points="395,489 335,593 388,542 "/>
<polygon class="st0" points="392,748 315,790 392,769 "/>
<polygon class="st0" points="392,748 292,738 315,790 "/>
<polygon class="st0" points="386,256 350,193 309,215 "/>
<polygon class="st0" points="386,256 309,215 360,318 "/>
<polygon class="st3" points="332,964 325,849 269,869 "/>
<polygon class="st3" points="332,964 269,869 317,967 "/>
<polygon class="st0" points="357,74 284,147 336,171 "/>
<polygon class="st0" points="360,318 309,215 275,334 "/>
<polygon class="st0" points="363,44 347,30 357,74 "/>
<polygon class="st0" points="358,648 335,593 273,625 "/>
<polygon class="st0" points="359,677 267,716 292,738 "/>
<polygon class="st0" points="359,677 358,648 273,625 "/>
<polygon class="st0" points="359,677 273,625 267,716 "/>
<polygon class="st0" points="347,30 251,-48 234,-3 "/>
<polygon class="st0" points="357,74 347,30 234,105 "/>
<polygon class="st0" points="357,74 234,105 284,147 "/>
<polygon class="st0" points="347,30 234,-3 234,105 "/>
<polygon class="st0" points="350,193 336,171 309,215 "/>
<polygon class="st0" points="335,593 230,589 273,625 "/>
<polygon class="st0" points="336,171 284,147 309,215 "/>
<polygon class="st3" points="317,967 269,869 239,975 "/>
<polygon class="st3" points="325,849 315,790 245,839 "/>
<polygon class="st0" points="275,334 239,192 193,306 "/>
<polygon class="st0" points="309,215 239,192 275,334 "/>
<polygon class="st3" points="325,849 262,863 269,869 "/>
<polygon class="st3" points="325,849 245,839 262,863 "/>
<polygon class="st0" points="309,215 284,147 239,192 "/>
<polygon class="st0" points="315,790 292,738 245,839 "/>
<polygon class="st0" points="292,738 231,726 245,839 "/>
<polygon class="st0" points="230,589 202,418 138,561 "/>
<polygon class="st0" points="273,625 231,726 267,716 "/>
<polygon class="st0" points="292,738 267,716 231,726 "/>
<polygon class="st1" points="239,975 158,1043 161,1057 "/>
<polygon class="st0" points="245,839 231,726 193,830 "/>
<polygon class="st3" points="269,869 262,863 193,867 "/>
<polygon class="st3" points="269,869 193,867 239,975 "/>
<polygon class="st0" points="284,147 228,154 239,192 "/>
<polygon class="st0" points="284,147 234,105 228,154 "/>
<polygon class="st0" points="273,625 156,704 231,726 "/>
<polygon class="st0" points="273,625 230,589 156,704 "/>
<polygon class="st0" points="275,334 193,306 202,418 "/>
<polygon class="st0" points="202,418 122,447 138,561 "/>
<polygon class="st0" points="234,-3 138,44 234,105 "/>
<polygon class="st3" points="239,975 193,867 149,950 "/>
<polygon class="st3" points="262,863 245,839 193,867 "/>
<polygon class="st0" points="239,192 126,256 193,306 "/>
<polygon class="st0" points="251,-48 177,-77 234,-3 "/>
<polygon class="st0" points="251,-48 229,-82 177,-77 "/>
<polygon class="st0" points="230,589 138,695 156,704 "/>
<polygon class="st0" points="231,726 136,741 193,830 "/>
<polygon class="st3" points="245,839 193,830 193,867 "/>
<polygon class="st0" points="230,589 102,623 138,695 "/>
<polygon class="st1" points="239,975 149,950 158,1043 "/>
<polygon class="st0" points="239,192 228,154 126,256 "/>
<polygon class="st0" points="228,154 112,123 126,256 "/>
<polygon class="st0" points="230,589 138,561 102,623 "/>
<polygon class="st0" points="234,105 112,123 228,154 "/>
<polygon class="st0" points="234,105 138,44 112,123 "/>
<polygon class="st0" points="234,-3 177,-77 138,44 "/>
<polygon class="st0" points="231,726 156,704 136,741 "/>
<polygon class="st0" points="126,256 35,290 91,443 "/>
<polygon class="st0" points="138,695 102,623 108,670 "/>
<polygon class="st3" points="193,867 118,937 149,950 "/>
<polygon class="st0" points="193,306 126,256 91,443 "/>
<polygon class="st0" points="193,306 91,443 122,447 "/>
<polygon class="st0" points="202,418 193,306 122,447 "/>
<polygon class="st0" points="91,443 35,290 19,383 "/>
<polygon class="st0" points="138,44 100,90 112,123 "/>
<polygon class="st1" points="158,1043 149,950 120,962 "/>
<polygon class="st0" points="177,-77 92,31 138,44 "/>
<polygon class="st3" points="193,867 87,879 106,923 "/>
<polygon class="st3" points="193,867 91,853 87,879 "/>
<polygon class="st3" points="193,867 106,923 118,937 "/>
<polygon class="st0" points="193,830 136,741 87,819 "/>
<polygon class="st3" points="193,830 91,853 193,867 "/>
<polygon class="st3" points="193,830 87,819 91,853 "/>
<polygon class="st0" points="138,561 122,447 70,518 "/>
<polygon class="st0" points="177,-77 44,-23 92,31 "/>
<polygon class="st0" points="177,-77 -16,-98 44,-23 "/>
<polygon class="st0" points="126,256 112,123 81,125 "/>
<polygon class="st1" points="158,1043 120,962 148,1050 "/>
<polygon class="st1" points="161,1057 158,1043 148,1050 "/>
<polygon class="st1" points="161,1057 148,1050 128,1081 "/>
<polygon class="st0" points="138,561 89,581 102,623 "/>
<polygon class="st1" points="148,1050 120,962 52,997 "/>
<polygon class="st0" points="156,704 138,695 136,741 "/>
<polygon class="st0" points="136,741 60,788 87,819 "/>
<polygon class="st1" points="148,1050 52,997 128,1081 "/>
<polygon class="st1" points="149,950 118,937 120,962 "/>
<polygon class="st0" points="122,447 91,443 81,447 "/>
<polygon class="st0" points="122,447 81,447 70,518 "/>
<polygon class="st0" points="126,256 81,125 35,290 "/>
<polygon class="st0" points="136,741 66,723 60,788 "/>
<polygon class="st0" points="138,561 70,518 89,581 "/>
<polygon class="st0" points="138,44 89,58 100,90 "/>
<polygon class="st0" points="138,44 92,31 89,58 "/>
<polygon class="st0" points="138,695 66,723 136,741 "/>
<polygon class="st0" points="138,695 108,670 66,723 "/>
<polygon class="st1" points="120,962 70,960 52,997 "/>
<polygon class="st1" points="128,1081 52,997 -1,1028 "/>
<polygon class="st1" points="128,1081 -1,1028 -16,1099 "/>
<polygon class="st0" points="81,125 33,114 35,290 "/>
<polygon class="st1" points="120,962 118,937 70,960 "/>
<polygon class="st1" points="118,937 106,923 70,960 "/>
<polygon class="st0" points="35,290 13,378 19,383 "/>
<polygon class="st0" points="91,443 19,383 81,447 "/>
<polygon class="st0" points="112,123 100,90 81,125 "/>
<polygon class="st3" points="87,819 60,788 72,815 "/>
<polygon class="st0" points="108,670 52,720 66,723 "/>
<polygon class="st0" points="108,670 102,623 -12,640 "/>
<polygon class="st0" points="108,670 -12,640 52,720 "/>
<polygon class="st3" points="106,923 87,879 70,960 "/>
<polygon class="st0" points="102,623 89,581 -12,640 "/>
<polygon class="st3" points="87,879 11,878 70,960 "/>
<polygon class="st0" points="100,90 89,58 33,114 "/>
<polygon class="st0" points="100,90 33,114 81,125 "/>
<polygon class="st0" points="35,290 33,114 -35,286 "/>
<polygon class="st3" points="91,853 87,819 72,815 "/>
<polygon class="st0" points="92,31 44,-23 89,58 "/>
<polygon class="st0" points="33,114 -87,167 -35,286 "/>
<polygon class="st0" points="89,58 44,-23 -31,75 "/>
<polygon class="st3" points="91,853 11,878 87,879 "/>
<polygon class="st3" points="91,853 72,815 11,878 "/>
<polygon class="st0" points="66,723 28,738 60,788 "/>
<polygon class="st0" points="89,581 70,518 -12,640 "/>
<polygon class="st0" points="89,58 -31,75 33,114 "/>
<polygon class="st0" points="81,447 -37,486 70,518 "/>
<polygon class="st0" points="66,723 52,720 28,738 "/>
<polygon class="st0" points="70,518 -37,486 -12,640 "/>
<polygon class="st0" points="81,447 19,383 -28,417 "/>
<polygon class="st0" points="81,447 -28,417 -37,486 "/>
<polygon class="st0" points="52,720 -12,640 -26,678 "/>
<polygon class="st3" points="70,960 11,878 -50,926 "/>
<polygon class="st3" points="72,815 60,788 11,878 "/>
<polygon class="st1" points="70,960 -50,926 52,997 "/>
<polygon class="st2" points="-12,640 -37,486 -69,615 "/>
<polygon class="st0" points="35,290 -19,302 13,378 "/>
<polygon class="st1" points="52,997 -50,926 -1,1028 "/>
<polygon class="st0" points="60,788 28,738 -43,748 "/>
<polygon class="st2" points="60,788 -43,748 11,878 "/>
<polygon class="st0" points="52,720 -26,678 28,738 "/>
<polygon class="st1" points="-1,1028 -50,926 -65,993 "/>
<polygon class="st2" points="11,878 -43,748 -84,782 "/>
<polygon class="st0" points="44,-23 -16,-98 -99,19 "/>
<polygon class="st0" points="44,-23 -99,19 -31,75 "/>
<polygon class="st0" points="33,114 -31,75 -54,82 "/>
<polygon class="st0" points="33,114 -54,82 -87,167 "/>
<polygon class="st0" points="35,290 -35,286 -19,302 "/>
<polygon class="st0" points="28,738 -26,678 -43,748 "/>
<polygon class="st2" points="-54,82 -70,90 -87,167 "/>
<polygon class="st2" points="11,878 -84,782 -111,831 "/>
<polygon class="st2" points="13,378 -19,302 -88,366 "/>
<polygon class="st2" points="19,383 13,378 -28,417 "/>
<polygon class="st2" points="13,378 -88,366 -28,417 "/>
<polygon class="st3" points="11,878 -111,831 -50,926 "/>
<polygon class="st2" points="-35,286 -87,167 -117,246 "/>
<polygon class="st1" points="-1,1028 -65,993 -16,1099 "/>
<polygon class="st2" points="-37,486 -105,610 -69,615 "/>
<polygon class="st2" points="-31,75 -99,19 -54,82 "/>
<polygon class="st1" points="-16,1099 -128,1055 -179,1099 "/>
<polygon class="st1" points="-16,1099 -65,993 -128,1055 "/>
<polygon class="st2" points="-12,640 -57,650 -26,678 "/>
<polygon class="st2" points="-12,640 -69,615 -57,650 "/>
<polygon class="st3" points="-50,926 -111,831 -124,898 "/>
<polygon class="st2" points="-19,302 -35,286 -88,366 "/>
<polygon class="st2" points="-16,-98 -199,-101 -99,19 "/>
<polygon class="st2" points="-43,748 -57,650 -130,747 "/>
<polygon class="st2" points="-35,286 -120,299 -88,366 "/>
<polygon class="st2" points="-28,417 -88,366 -37,486 "/>
<polygon class="st2" points="-26,678 -57,650 -43,748 "/>
<polygon class="st2" points="-70,90 -97,101 -87,167 "/>
<polygon class="st2" points="-37,486 -88,366 -199,499 "/>
<polygon class="st2" points="-37,486 -199,499 -105,610 "/>
<polygon class="st1" points="-50,926 -124,898 -101,932 "/>
<polygon class="st2" points="-35,286 -117,246 -120,299 "/>
<polygon class="st1" points="-50,926 -101,932 -65,993 "/>
<polygon class="st2" points="-54,82 -99,19 -70,90 "/>
<polygon class="st2" points="-43,748 -130,747 -84,782 "/>
<polygon class="st2" points="-57,650 -134,621 -130,747 "/>
<polygon class="st2" points="-70,90 -99,19 -128,54 "/>
<polygon class="st2" points="-57,650 -69,615 -105,610 "/>
<polygon class="st2" points="-57,650 -105,610 -134,621 "/>
<polygon class="st2" points="-70,90 -128,54 -97,101 "/>
<polygon class="st1" points="-65,993 -101,932 -135,989 "/>
<polygon class="st1" points="-65,993 -135,989 -128,1055 "/>
<polygon class="st2" points="-84,782 -122,796 -111,831 "/>
<polygon class="st2" points="-130,747 -134,621 -194,660 "/>
<polygon class="st2" points="-130,747 -194,660 -198,671 "/>
<polygon class="st2" points="-105,610 -199,499 -134,621 "/>
<polygon class="st2" points="-99,19 -199,-101 -181,32 "/>
<polygon class="st2" points="-88,366 -185,310 -199,499 "/>
<polygon class="st2" points="-84,782 -130,747 -122,796 "/>
<polygon class="st1" points="-101,932 -148,946 -135,989 "/>
<polygon class="st2" points="-88,366 -120,299 -185,310 "/>
<polygon class="st2" points="-87,167 -97,101 -181,32 "/>
<polygon class="st2" points="-87,167 -181,32 -117,246 "/>
<polygon class="st2" points="-134,621 -199,499 -199,620 "/>
<polygon class="st2" points="-97,101 -128,54 -181,32 "/>
<polygon class="st2" points="-117,246 -181,32 -185,310 "/>
<polygon class="st2" points="-99,19 -181,32 -128,54 "/>
<polygon class="st1" points="-101,932 -124,898 -148,946 "/>
<polygon class="st2" points="-130,747 -198,671 -188,741 "/>
<polygon class="st3" points="-111,831 -179,813 -124,898 "/>
<polygon class="st2" points="-117,246 -185,310 -120,299 "/>
<polygon class="st3" points="-111,831 -122,796 -179,813 "/>
<polygon class="st1" points="-128,1055 -135,989 -192,1038 "/>
<polygon class="st2" points="-122,796 -130,747 -179,813 "/>
<polygon class="st2" points="-130,747 -188,741 -179,813 "/>
<polygon class="st3" points="-124,898 -179,813 -199,944 "/>
<polygon class="st1" points="-124,898 -199,944 -148,946 "/>
<polygon class="st2" points="-134,621 -199,640 -194,660 "/>
<polygon class="st1" points="-128,1055 -199,1066 -179,1099 "/>
<polygon class="st1" points="-128,1055 -192,1038 -199,1066 "/>
<polygon class="st2" points="-179,813 -188,741 -199,802 "/>
<polygon class="st1" points="-135,989 -148,946 -199,950 "/>
<polygon class="st2" points="-134,621 -199,620 -199,631 "/>
<polygon class="st2" points="-134,621 -199,631 -199,640 "/>
<polygon class="st1" points="-135,989 -199,950 -192,1038 "/>
<polygon class="st1" points="-148,946 -199,944 -199,950 "/>
<polygon class="st2" points="-181,32 -199,-101 -185,310 "/>
<polygon class="st1" points="-179,1099 -199,1066 -199,1099 "/>
<polygon class="st3" points="-179,813 -199,802 -199,944 "/>
<polygon class="st2" points="-185,310 -199,-101 -199,499 "/>
<polygon class="st2" points="-188,741 -198,671 -199,802 "/>
<polygon class="st1" points="-192,1038 -199,950 -199,1066 "/>
<polygon class="st2" points="-194,660 -199,640 -198,671 "/>
</svg>
