<svg id="f76ae11b-18b6-4655-b478-89ea2415c9ad" data-name="Layer 1" xmlns="http://www.w3.org/2000/svg" viewBox="0 0 2401 3601"><title>bkg</title><polygon points="1444.5 0.5 1200.5 0.5 1420.5 0.5 1444.5 0.5" fill="#fff" stroke="#fff" stroke-linejoin="round"/><polygon points="2246.5 1140.5 2130.5 1416.5 2178.5 1459.5 2246.5 1140.5" fill="#fff" stroke="#92ffff" stroke-linejoin="round"/><polygon points="2323.5 760.5 2320.5 513.5 2254.5 644.5 2323.5 760.5" fill="#fff" stroke="#8fffff" stroke-linejoin="round"/><polygon points="2369.5 490.5 2320.5 513.5 2323.5 760.5 2369.5 490.5" fill="#fff" stroke="#00d0fe" stroke-linejoin="round"/><polygon points="2370.5 305.5 2186.5 18.5 2334.5 342.5 2370.5 305.5" fill="#fff" stroke="#00d0fe" stroke-linejoin="round"/><polygon points="2370.5 305.5 2334.5 342.5 2369.5 490.5 2370.5 305.5" fill="#fff" stroke="#00d0fe" stroke-linejoin="round"/><polygon points="2379.5 2152.5 2324.5 1957.5 2309.5 2058.5 2379.5 2152.5" fill="#fff" stroke="#00d0fe" stroke-linejoin="round"/><polygon points="2380.5 93.5 2186.5 18.5 2370.5 305.5 2380.5 93.5" fill="#fff" stroke="#00d0fe" stroke-linejoin="round"/><polygon points="2394.5 2505.5 2382.5 2377.5 2267.5 2305.5 2394.5 2505.5" fill="#fff" stroke="#00d0fe" stroke-linejoin="round"/><polygon points="2400.5 1769.5 2294.5 1570.5 2295.5 1710.5 2400.5 1769.5" fill="#fff" stroke="#00d0fe" stroke-linejoin="round"/><polygon points="2400.5 2935.5 2214.5 2988.5 2231.5 3009.5 2400.5 2935.5" fill="#fff" stroke="#00d0fe" stroke-linejoin="round"/><polygon points="2400.5 2935.5 2151.5 2831.5 2214.5 2988.5 2400.5 2935.5" fill="#fff" stroke="#00d0fe" stroke-linejoin="round"/><polygon points="2400.5 2935.5 2231.5 3009.5 2317.5 3135.5 2400.5 2935.5" fill="#fff" stroke="#00d0fe" stroke-linejoin="round"/><polygon points="2400.5 2301.5 2379.5 2152.5 2259.5 2243.5 2400.5 2301.5" fill="#fff" stroke="#00d0fe" stroke-linejoin="round"/><polygon points="2400.5 2301.5 2259.5 2243.5 2267.5 2305.5 2400.5 2301.5" fill="#fff" stroke="#00d0fe" stroke-linejoin="round"/><polygon points="2400.5 2301.5 2267.5 2305.5 2382.5 2377.5 2400.5 2301.5" fill="#fff" stroke="#00d0fe" stroke-linejoin="round"/><polygon points="2400.5 2301.5 2382.5 2377.5 2394.5 2505.5 2400.5 2301.5" fill="#fff" stroke="#00d0fe" stroke-linejoin="round"/><polygon points="2400.5 2767.5 2151.5 2831.5 2400.5 2935.5 2400.5 2767.5" fill="#fff" stroke="#00d0fe" stroke-linejoin="round"/><polygon points="2400.5 2767.5 2326.5 2597.5 2151.5 2831.5 2400.5 2767.5" fill="#fff" stroke="#00d0fe" stroke-linejoin="round"/><polygon points="2400.5 2767.5 2394.5 2505.5 2326.5 2597.5 2400.5 2767.5" fill="#fff" stroke="#00d0fe" stroke-linejoin="round"/><polygon points="2400.5 2767.5 2400.5 2301.5 2394.5 2505.5 2400.5 2767.5" fill="#fff" stroke="#00d0fe" stroke-linejoin="round"/><polygon points="2400.5 1176.5 2178.5 1459.5 2294.5 1570.5 2400.5 1176.5" fill="#fff" stroke="#00d0fe" stroke-linejoin="round"/><polygon points="2400.5 1176.5 2367.5 1105.5 2246.5 1140.5 2400.5 1176.5" fill="#fff" stroke="#00d0fe" stroke-linejoin="round"/><polygon points="2400.5 1176.5 2246.5 1140.5 2178.5 1459.5 2400.5 1176.5" fill="#fff" stroke="#00d0fe" stroke-linejoin="round"/><polygon points="2400.5 1176.5 2294.5 1570.5 2400.5 1769.5 2400.5 1176.5" fill="#fff" stroke="#00d0fe" stroke-linejoin="round"/><polygon points="2400.5 923.5 2204.5 1028.5 2367.5 1105.5 2400.5 923.5" fill="#fff" stroke="#00d0fe" stroke-linejoin="round"/><polygon points="2400.5 923.5 2323.5 760.5 2204.5 1028.5 2400.5 923.5" fill="#fff" stroke="#00d0fe" stroke-linejoin="round"/><polygon points="2400.5 923.5 2369.5 490.5 2323.5 760.5 2400.5 923.5" fill="#fff" stroke="#00d0fe" stroke-linejoin="round"/><polygon points="2400.5 923.5 2367.5 1105.5 2400.5 1176.5 2400.5 923.5" fill="#fff" stroke="#00d0fe" stroke-linejoin="round"/><polygon points="2400.5 3307.5 2317.5 3135.5 2021.5 3204.5 2400.5 3307.5" fill="#fff" stroke="#00d0fe" stroke-linejoin="round"/><polygon points="2400.5 3307.5 2021.5 3204.5 1952.5 3421.5 2400.5 3307.5" fill="#fff" stroke="#00d0fe" stroke-linejoin="round"/><polygon points="2400.5 3307.5 1952.5 3421.5 2000.5 3600.5 2400.5 3307.5" fill="#fff" stroke="#00d0fe" stroke-linejoin="round"/><polygon points="2400.5 3307.5 2400.5 2935.5 2317.5 3135.5 2400.5 3307.5" fill="#fff" stroke="#00d0fe" stroke-linejoin="round"/><polygon points="2400.5 3600.5 2400.5 3307.5 2000.5 3600.5 2400.5 3600.5" fill="#fff" stroke="#00d0fe" stroke-linejoin="round"/><polygon points="2400.5 1800.5 2224.5 1867.5 2324.5 1957.5 2400.5 1800.5" fill="#fff" stroke="#00d0fe" stroke-linejoin="round"/><polygon points="2400.5 1800.5 2400.5 1769.5 2295.5 1710.5 2400.5 1800.5" fill="#fff" stroke="#00d0fe" stroke-linejoin="round"/><polygon points="2400.5 1800.5 2295.5 1710.5 2224.5 1867.5 2400.5 1800.5" fill="#fff" stroke="#00d0fe" stroke-linejoin="round"/><polygon points="2400.5 1800.5 2324.5 1957.5 2379.5 2152.5 2400.5 1800.5" fill="#fff" stroke="#00d0fe" stroke-linejoin="round"/><polygon points="2400.5 1800.5 2379.5 2152.5 2400.5 2301.5 2400.5 1800.5" fill="#fff" stroke="#00d0fe" stroke-linejoin="round"/><polygon points="2400.5 0.5 1972.5 0.5 2186.5 18.5 2400.5 0.5" fill="#fff" stroke="#00d0fe" stroke-linejoin="round"/><polygon points="2400.5 0.5 2186.5 18.5 2380.5 93.5 2400.5 0.5" fill="#fff" stroke="#00d0fe" stroke-linejoin="round"/><polygon points="2400.5 0.5 2380.5 93.5 2370.5 305.5 2400.5 0.5" fill="#fff" stroke="#00d0fe" stroke-linejoin="round"/><polygon points="2400.5 0.5 2370.5 305.5 2369.5 490.5 2400.5 0.5" fill="#fff" stroke="#00d0fe" stroke-linejoin="round"/><polygon points="2400.5 0.5 2369.5 490.5 2400.5 923.5 2400.5 0.5" fill="#fff" stroke="#00d0fe" stroke-linejoin="round"/><polygon points="2369.5 490.5 2334.5 342.5 2320.5 513.5 2369.5 490.5" fill="#fff" stroke="#00d0fe" stroke-linejoin="round"/><polygon points="2394.5 2505.5 2267.5 2305.5 2326.5 2597.5 2394.5 2505.5" fill="#fff" stroke="#00d0fe" stroke-linejoin="round"/><polygon points="2379.5 2152.5 2309.5 2058.5 2259.5 2243.5 2379.5 2152.5" fill="#fff" stroke="#00d0fe" stroke-linejoin="round"/><polygon points="2324.5 1957.5 2282.5 2038.5 2309.5 2058.5 2324.5 1957.5" fill="#fff" stroke="#82ffff" stroke-linejoin="round"/><polygon points="2326.5 2597.5 2267.5 2305.5 2064.5 2606.5 2326.5 2597.5" fill="#fff" stroke="#82ffff" stroke-linejoin="round"/><polygon points="2367.5 1105.5 2204.5 1028.5 2246.5 1140.5 2367.5 1105.5" fill="#fff" stroke="#00d0fe" stroke-linejoin="round"/><polygon points="2323.5 760.5 2169.5 1023.5 2204.5 1028.5 2323.5 760.5" fill="#fff" stroke="#94ffff" stroke-linejoin="round"/><polygon points="2323.5 760.5 2063.5 806.5 2169.5 1023.5 2323.5 760.5" fill="#fff" stroke="#9affff" stroke-linejoin="round"/><polygon points="2334.5 342.5 2186.5 18.5 2014.5 71.5 2334.5 342.5" fill="#fff" stroke="#93ffff" stroke-linejoin="round"/><polygon points="2309.5 2058.5 2282.5 2038.5 2259.5 2243.5 2309.5 2058.5" fill="#fff" stroke="#82ffff" stroke-linejoin="round"/><polygon points="2317.5 3135.5 2023.5 3188.5 2021.5 3204.5 2317.5 3135.5" fill="#fff" stroke="#7bffff" stroke-linejoin="round"/><polygon points="2326.5 2597.5 2064.5 2606.5 2151.5 2831.5 2326.5 2597.5" fill="#fff" stroke="#82ffff" stroke-linejoin="round"/><polygon points="2334.5 342.5 2091.5 550.5 2320.5 513.5 2334.5 342.5" fill="#fff" stroke="#94ffff" stroke-linejoin="round"/><polygon points="2334.5 342.5 2014.5 71.5 2091.5 550.5 2334.5 342.5" fill="#fff" stroke="#9dffff" stroke-linejoin="round"/><polygon points="2246.5 1140.5 2054.5 1360.5 2130.5 1416.5 2246.5 1140.5" fill="#fff" stroke="#96ffff" stroke-linejoin="round"/><polygon points="2317.5 3135.5 2072.5 3079.5 2023.5 3188.5 2317.5 3135.5" fill="#fff" stroke="#7bffff" stroke-linejoin="round"/><polygon points="2324.5 1957.5 2224.5 1867.5 2282.5 2038.5 2324.5 1957.5" fill="#fff" stroke="#84ffff" stroke-linejoin="round"/><polygon points="2323.5 760.5 2254.5 644.5 2063.5 806.5 2323.5 760.5" fill="#fff" stroke="#98ffff" stroke-linejoin="round"/><polygon points="2282.5 2038.5 2075.5 2076.5 2259.5 2243.5 2282.5 2038.5" fill="#fff" stroke="#8ff" stroke-linejoin="round"/><polygon points="2320.5 513.5 2091.5 550.5 2254.5 644.5 2320.5 513.5" fill="#fff" stroke="#98ffff" stroke-linejoin="round"/><polygon points="2317.5 3135.5 2231.5 3009.5 2072.5 3079.5 2317.5 3135.5" fill="#fff" stroke="#78ffff" stroke-linejoin="round"/><polygon points="2091.5 550.5 2014.5 71.5 1974.5 531.5 2091.5 550.5" fill="#fff" stroke="#b1ffff" stroke-linejoin="round"/><polygon points="2295.5 1710.5 2294.5 1570.5 2150.5 1476.5 2295.5 1710.5" fill="#fff" stroke="#8affff" stroke-linejoin="round"/><polygon points="2282.5 2038.5 2224.5 1867.5 2102.5 2009.5 2282.5 2038.5" fill="#fff" stroke="#89ffff" stroke-linejoin="round"/><polygon points="2294.5 1570.5 2178.5 1459.5 2150.5 1476.5 2294.5 1570.5" fill="#fff" stroke="#8effff" stroke-linejoin="round"/><polygon points="2295.5 1710.5 2150.5 1476.5 1947.5 1601.5 2295.5 1710.5" fill="#fff" stroke="#93ffff" stroke-linejoin="round"/><polygon points="2295.5 1710.5 1947.5 1601.5 2104.5 1857.5 2295.5 1710.5" fill="#fff" stroke="#93ffff" stroke-linejoin="round"/><polygon points="2295.5 1710.5 2104.5 1857.5 2224.5 1867.5 2295.5 1710.5" fill="#fff" stroke="#8bffff" stroke-linejoin="round"/><polygon points="2104.5 1857.5 1947.5 1601.5 1949.5 1759.5 2104.5 1857.5" fill="#fff" stroke="#9cffff" stroke-linejoin="round"/><polygon points="2267.5 2305.5 1907.5 2275.5 2064.5 2606.5 2267.5 2305.5" fill="#fff" stroke="#8effff" stroke-linejoin="round"/><polygon points="2282.5 2038.5 2102.5 2009.5 2075.5 2076.5 2282.5 2038.5" fill="#fff" stroke="#8cffff" stroke-linejoin="round"/><polygon points="2267.5 2305.5 2259.5 2243.5 1907.5 2275.5 2267.5 2305.5" fill="#fff" stroke="#8bffff" stroke-linejoin="round"/><polygon points="2246.5 1140.5 1962.5 1143.5 2054.5 1360.5 2246.5 1140.5" fill="#fff" stroke="#9dffff" stroke-linejoin="round"/><polygon points="2254.5 644.5 2091.5 550.5 2063.5 806.5 2254.5 644.5" fill="#fff" stroke="#a3ffff" stroke-linejoin="round"/><polygon points="2259.5 2243.5 2035.5 2100.5 1907.5 2275.5 2259.5 2243.5" fill="#fff" stroke="#92ffff" stroke-linejoin="round"/><polygon points="2259.5 2243.5 2075.5 2076.5 2035.5 2100.5 2259.5 2243.5" fill="#fff" stroke="#8effff" stroke-linejoin="round"/><polygon points="2000.5 3600.5 1952.5 3421.5 1983.5 3583.5 2000.5 3600.5" fill="#fff" stroke="#00d0fe" stroke-linejoin="round"/><polygon points="2246.5 1140.5 2204.5 1028.5 2169.5 1023.5 2246.5 1140.5" fill="#fff" stroke="#95ffff" stroke-linejoin="round"/><polygon points="2224.5 1867.5 2104.5 1857.5 2102.5 2009.5 2224.5 1867.5" fill="#fff" stroke="#8fffff" stroke-linejoin="round"/><polygon points="2246.5 1140.5 2169.5 1023.5 2063.5 1017.5 2246.5 1140.5" fill="#fff" stroke="#9ff" stroke-linejoin="round"/><polygon points="2246.5 1140.5 2063.5 1017.5 1962.5 1143.5 2246.5 1140.5" fill="#fff" stroke="#9fffff" stroke-linejoin="round"/><polygon points="2014.5 71.5 1831.5 158.5 1974.5 531.5 2014.5 71.5" fill="#fff" stroke="#bdffff" stroke-linejoin="round"/><polygon points="2063.5 806.5 2008.5 953.5 2063.5 1017.5 2063.5 806.5" fill="#fff" stroke="#aff" stroke-linejoin="round"/><polygon points="2169.5 1023.5 2063.5 806.5 2063.5 1017.5 2169.5 1023.5" fill="#fff" stroke="#a2ffff" stroke-linejoin="round"/><polygon points="2231.5 3009.5 2214.5 2988.5 2072.5 3079.5 2231.5 3009.5" fill="#fff" stroke="#7cffff" stroke-linejoin="round"/><polygon points="1974.5 531.5 1831.5 158.5 1894.5 508.5 1974.5 531.5" fill="#fff" stroke="#caffff" stroke-linejoin="round"/><polygon points="2064.5 2606.5 1907.5 2275.5 1840.5 2395.5 2064.5 2606.5" fill="#fff" stroke="#9bffff" stroke-linejoin="round"/><polygon points="2214.5 2988.5 2151.5 2831.5 2072.5 3079.5 2214.5 2988.5" fill="#fff" stroke="#7fffff" stroke-linejoin="round"/><polygon points="2021.5 3204.5 1933.5 3286.5 1952.5 3421.5 2021.5 3204.5" fill="#fff" stroke="#83ffff" stroke-linejoin="round"/><polygon points="2151.5 2831.5 1960.5 2819.5 2072.5 3079.5 2151.5 2831.5" fill="#fff" stroke="#87ffff" stroke-linejoin="round"/><polygon points="2151.5 2831.5 2064.5 2606.5 1960.5 2819.5 2151.5 2831.5" fill="#fff" stroke="#8bffff" stroke-linejoin="round"/><polygon points="2186.5 18.5 1972.5 0.5 2014.5 71.5 2186.5 18.5" fill="#fff" stroke="#9dffff" stroke-linejoin="round"/><polygon points="2178.5 1459.5 2130.5 1416.5 2150.5 1476.5 2178.5 1459.5" fill="#fff" stroke="#93ffff" stroke-linejoin="round"/><polygon points="2072.5 3079.5 1960.5 2819.5 1974.5 3075.5 2072.5 3079.5" fill="#fff" stroke="#8bffff" stroke-linejoin="round"/><polygon points="2064.5 2606.5 1932.5 2662.5 1960.5 2819.5 2064.5 2606.5" fill="#fff" stroke="#93ffff" stroke-linejoin="round"/><polygon points="2091.5 550.5 1974.5 531.5 2063.5 806.5 2091.5 550.5" fill="#fff" stroke="#b1ffff" stroke-linejoin="round"/><polygon points="2150.5 1476.5 2130.5 1416.5 2054.5 1360.5 2150.5 1476.5" fill="#fff" stroke="#97ffff" stroke-linejoin="round"/><polygon points="2150.5 1476.5 2054.5 1360.5 1947.5 1601.5 2150.5 1476.5" fill="#fff" stroke="#9bffff" stroke-linejoin="round"/><polygon points="2054.5 1360.5 1884.5 1453.5 1947.5 1601.5 2054.5 1360.5" fill="#fff" stroke="#a4ffff" stroke-linejoin="round"/><polygon points="2063.5 806.5 1974.5 531.5 1887.5 586.5 2063.5 806.5" fill="#fff" stroke="#beffff" stroke-linejoin="round"/><polygon points="2104.5 1857.5 2039.5 2021.5 2102.5 2009.5 2104.5 1857.5" fill="#fff" stroke="#93ffff" stroke-linejoin="round"/><polygon points="2014.5 71.5 1959.5 62.5 1831.5 158.5 2014.5 71.5" fill="#fff" stroke="#b5ffff" stroke-linejoin="round"/><polygon points="2102.5 2009.5 2039.5 2021.5 2075.5 2076.5 2102.5 2009.5" fill="#fff" stroke="#93ffff" stroke-linejoin="round"/><polygon points="2104.5 1857.5 1884.5 1815.5 2039.5 2021.5 2104.5 1857.5" fill="#fff" stroke="#9affff" stroke-linejoin="round"/><polygon points="2104.5 1857.5 1949.5 1759.5 1884.5 1815.5 2104.5 1857.5" fill="#fff" stroke="#9effff" stroke-linejoin="round"/><polygon points="1959.5 62.5 1936.5 65.5 1831.5 158.5 1959.5 62.5" fill="#fff" stroke="#bff" stroke-linejoin="round"/><polygon points="2054.5 1360.5 1962.5 1143.5 1867.5 1328.5 2054.5 1360.5" fill="#fff" stroke="#a8ffff" stroke-linejoin="round"/><polygon points="2064.5 2606.5 1840.5 2395.5 1932.5 2662.5 2064.5 2606.5" fill="#fff" stroke="#9ff" stroke-linejoin="round"/><polygon points="2021.5 3204.5 1969.5 3214.5 1933.5 3286.5 2021.5 3204.5" fill="#fff" stroke="#85ffff" stroke-linejoin="round"/><polygon points="2072.5 3079.5 1974.5 3075.5 2023.5 3188.5 2072.5 3079.5" fill="#fff" stroke="#85ffff" stroke-linejoin="round"/><polygon points="2075.5 2076.5 2039.5 2021.5 2035.5 2100.5 2075.5 2076.5" fill="#fff" stroke="#95ffff" stroke-linejoin="round"/><polygon points="2035.5 2100.5 1858.5 2142.5 1907.5 2275.5 2035.5 2100.5" fill="#fff" stroke="#9fffff" stroke-linejoin="round"/><polygon points="2063.5 1017.5 2008.5 953.5 1962.5 1143.5 2063.5 1017.5" fill="#fff" stroke="#aff" stroke-linejoin="round"/><polygon points="2063.5 806.5 1887.5 586.5 1729.5 681.5 2063.5 806.5" fill="#fff" stroke="#fff" stroke-linejoin="round"/><polygon points="2063.5 806.5 1730.5 898.5 2008.5 953.5 2063.5 806.5" fill="#fff" stroke="#fff" stroke-linejoin="round"/><polygon points="2063.5 806.5 1729.5 681.5 1730.5 898.5 2063.5 806.5" fill="#fff" stroke="#fff" stroke-linejoin="round"/><polygon points="2000.5 3600.5 1983.5 3583.5 1694.5 3600.5 2000.5 3600.5" fill="#fff" stroke="#00d0fe" stroke-linejoin="round"/><polygon points="2054.5 1360.5 1867.5 1328.5 1884.5 1453.5 2054.5 1360.5" fill="#fff" stroke="#a8ffff" stroke-linejoin="round"/><polygon points="2039.5 2021.5 1884.5 1815.5 1764.5 1921.5 2039.5 2021.5" fill="#fff" stroke="#a5ffff" stroke-linejoin="round"/><polygon points="2039.5 2021.5 1858.5 2142.5 2035.5 2100.5 2039.5 2021.5" fill="#fff" stroke="#9bffff" stroke-linejoin="round"/><polygon points="2039.5 2021.5 1764.5 1921.5 1858.5 2142.5 2039.5 2021.5" fill="#fff" stroke="#a5ffff" stroke-linejoin="round"/><polygon points="1894.5 508.5 1831.5 158.5 1722.5 221.5 1894.5 508.5" fill="#fff" stroke="#fff" stroke-linejoin="round"/><polygon points="1974.5 3075.5 1960.5 2819.5 1893.5 3102.5 1974.5 3075.5" fill="#fff" stroke="#90ffff" stroke-linejoin="round"/><polygon points="2023.5 3188.5 1974.5 3075.5 1969.5 3214.5 2023.5 3188.5" fill="#fff" stroke="#87ffff" stroke-linejoin="round"/><polygon points="1974.5 3075.5 1893.5 3102.5 1969.5 3214.5 1974.5 3075.5" fill="#fff" stroke="#8cffff" stroke-linejoin="round"/><polygon points="2008.5 953.5 1797.5 1096.5 1962.5 1143.5 2008.5 953.5" fill="#fff" stroke="#b3ffff" stroke-linejoin="round"/><polygon points="2014.5 71.5 1972.5 0.5 1959.5 62.5 2014.5 71.5" fill="#fff" stroke="#a9ffff" stroke-linejoin="round"/><polygon points="2023.5 3188.5 1969.5 3214.5 2021.5 3204.5 2023.5 3188.5" fill="#fff" stroke="#84ffff" stroke-linejoin="round"/><polygon points="2008.5 953.5 1730.5 898.5 1797.5 1096.5 2008.5 953.5" fill="#fff" stroke="#fff" stroke-linejoin="round"/><polygon points="1960.5 2819.5 1658.5 2947.5 1893.5 3102.5 1960.5 2819.5" fill="#fff" stroke="#9effff" stroke-linejoin="round"/><polygon points="1983.5 3583.5 1952.5 3421.5 1763.5 3501.5 1983.5 3583.5" fill="#fff" stroke="#00d0fe" stroke-linejoin="round"/><polygon points="1893.5 3102.5 1658.5 2947.5 1841.5 3117.5 1893.5 3102.5" fill="#fff" stroke="#a0ffff" stroke-linejoin="round"/><polygon points="1949.5 1759.5 1947.5 1601.5 1842.5 1597.5 1949.5 1759.5" fill="#fff" stroke="#a6ffff" stroke-linejoin="round"/><polygon points="1983.5 3583.5 1763.5 3501.5 1694.5 3600.5 1983.5 3583.5" fill="#fff" stroke="#00d0fe" stroke-linejoin="round"/><polygon points="1932.5 2662.5 1840.5 2395.5 1686.5 2638.5 1932.5 2662.5" fill="#fff" stroke="#fff" stroke-linejoin="round"/><polygon points="1947.5 1601.5 1884.5 1453.5 1842.5 1597.5 1947.5 1601.5" fill="#fff" stroke="#aff" stroke-linejoin="round"/><polygon points="1962.5 1143.5 1797.5 1096.5 1867.5 1328.5 1962.5 1143.5" fill="#fff" stroke="#b3ffff" stroke-linejoin="round"/><polygon points="1969.5 3214.5 1893.5 3102.5 1843.5 3248.5 1969.5 3214.5" fill="#fff" stroke="#8effff" stroke-linejoin="round"/><polygon points="1972.5 0.5 1936.5 65.5 1959.5 62.5 1972.5 0.5" fill="#fff" stroke="#aeffff" stroke-linejoin="round"/><polygon points="1974.5 531.5 1894.5 508.5 1887.5 586.5 1974.5 531.5" fill="#fff" stroke="#caffff" stroke-linejoin="round"/><polygon points="1949.5 1759.5 1842.5 1597.5 1796.5 1627.5 1949.5 1759.5" fill="#fff" stroke="#abffff" stroke-linejoin="round"/><polygon points="1972.5 0.5 1789.5 0.5 1936.5 65.5 1972.5 0.5" fill="#fff" stroke="#b7ffff" stroke-linejoin="round"/><polygon points="1969.5 3214.5 1843.5 3248.5 1933.5 3286.5 1969.5 3214.5" fill="#fff" stroke="#8affff" stroke-linejoin="round"/><polygon points="1893.5 3102.5 1841.5 3117.5 1843.5 3248.5 1893.5 3102.5" fill="#fff" stroke="#94ffff" stroke-linejoin="round"/><polygon points="1952.5 3421.5 1933.5 3286.5 1756.5 3379.5 1952.5 3421.5" fill="#fff" stroke="#8ff" stroke-linejoin="round"/><polygon points="1960.5 2819.5 1932.5 2662.5 1686.5 2638.5 1960.5 2819.5" fill="#fff" stroke="#fff" stroke-linejoin="round"/><polygon points="1960.5 2819.5 1686.5 2638.5 1623.5 2793.5 1960.5 2819.5" fill="#fff" stroke="#fff" stroke-linejoin="round"/><polygon points="1960.5 2819.5 1623.5 2793.5 1658.5 2947.5 1960.5 2819.5" fill="#fff" stroke="#fff" stroke-linejoin="round"/><polygon points="1949.5 1759.5 1750.5 1728.5 1884.5 1815.5 1949.5 1759.5" fill="#fff" stroke="#aff" stroke-linejoin="round"/><polygon points="1949.5 1759.5 1796.5 1627.5 1750.5 1728.5 1949.5 1759.5" fill="#fff" stroke="#aeffff" stroke-linejoin="round"/><polygon points="1894.5 508.5 1722.5 221.5 1617.5 363.5 1894.5 508.5" fill="#fff" stroke="#fff" stroke-linejoin="round"/><polygon points="1933.5 3286.5 1843.5 3248.5 1756.5 3379.5 1933.5 3286.5" fill="#fff" stroke="#8fffff" stroke-linejoin="round"/><polygon points="1952.5 3421.5 1756.5 3379.5 1763.5 3501.5 1952.5 3421.5" fill="#fff" stroke="#00d0fe" stroke-linejoin="round"/><polygon points="1936.5 65.5 1789.5 0.5 1831.5 158.5 1936.5 65.5" fill="#fff" stroke="#c6ffff" stroke-linejoin="round"/><polygon points="1840.5 2395.5 1692.5 2416.5 1686.5 2638.5 1840.5 2395.5" fill="#fff" stroke="#fff" stroke-linejoin="round"/><polygon points="1887.5 586.5 1798.5 568.5 1729.5 681.5 1887.5 586.5" fill="#fff" stroke="#fff" stroke-linejoin="round"/><polygon points="1894.5 508.5 1617.5 363.5 1798.5 568.5 1894.5 508.5" fill="#fff" stroke="#fff" stroke-linejoin="round"/><polygon points="1907.5 2275.5 1858.5 2142.5 1741.5 2333.5 1907.5 2275.5" fill="#fff" stroke="#a8ffff" stroke-linejoin="round"/><polygon points="1907.5 2275.5 1741.5 2333.5 1840.5 2395.5 1907.5 2275.5" fill="#fff" stroke="#a8ffff" stroke-linejoin="round"/><polygon points="1884.5 1453.5 1867.5 1328.5 1742.5 1401.5 1884.5 1453.5" fill="#fff" stroke="#b3ffff" stroke-linejoin="round"/><polygon points="1884.5 1453.5 1742.5 1401.5 1842.5 1597.5 1884.5 1453.5" fill="#fff" stroke="#b2ffff" stroke-linejoin="round"/><polygon points="1894.5 508.5 1798.5 568.5 1887.5 586.5 1894.5 508.5" fill="#fff" stroke="#d9ffff" stroke-linejoin="round"/><polygon points="1867.5 1328.5 1797.5 1096.5 1742.5 1401.5 1867.5 1328.5" fill="#fff" stroke="#b9ffff" stroke-linejoin="round"/><polygon points="1884.5 1815.5 1722.5 1806.5 1764.5 1921.5 1884.5 1815.5" fill="#fff" stroke="#fff" stroke-linejoin="round"/><polygon points="1884.5 1815.5 1750.5 1728.5 1722.5 1806.5 1884.5 1815.5" fill="#fff" stroke="#fff" stroke-linejoin="round"/><polygon points="1798.5 568.5 1617.5 363.5 1609.5 496.5 1798.5 568.5" fill="#fff" stroke="#fff" stroke-linejoin="round"/><polygon points="1842.5 1597.5 1742.5 1401.5 1796.5 1627.5 1842.5 1597.5" fill="#fff" stroke="#b5ffff" stroke-linejoin="round"/><polygon points="1858.5 2142.5 1764.5 1921.5 1588.5 2114.5 1858.5 2142.5" fill="#fff" stroke="#fff" stroke-linejoin="round"/><polygon points="1797.5 1096.5 1509.5 1298.5 1742.5 1401.5 1797.5 1096.5" fill="#fff" stroke="#fff" stroke-linejoin="round"/><polygon points="1858.5 2142.5 1588.5 2114.5 1741.5 2333.5 1858.5 2142.5" fill="#fff" stroke="#fff" stroke-linejoin="round"/><polygon points="1789.5 0.5 1444.5 0.5 1575.5 75.5 1789.5 0.5" fill="#fff" stroke="#fff" stroke-linejoin="round"/><polygon points="1796.5 1627.5 1742.5 1401.5 1620.5 1565.5 1796.5 1627.5" fill="#fff" stroke="#fff" stroke-linejoin="round"/><polygon points="1831.5 158.5 1789.5 0.5 1722.5 221.5 1831.5 158.5" fill="#fff" stroke="#fff" stroke-linejoin="round"/><polygon points="1843.5 3248.5 1841.5 3117.5 1540.5 3321.5 1843.5 3248.5" fill="#fff" stroke="#a0ffff" stroke-linejoin="round"/><polygon points="1843.5 3248.5 1540.5 3321.5 1756.5 3379.5 1843.5 3248.5" fill="#fff" stroke="#9fffff" stroke-linejoin="round"/><polygon points="1841.5 3117.5 1658.5 2947.5 1540.5 3321.5 1841.5 3117.5" fill="#fff" stroke="#b0ffff" stroke-linejoin="round"/><polygon points="1840.5 2395.5 1741.5 2333.5 1692.5 2416.5 1840.5 2395.5" fill="#fff" stroke="#fff" stroke-linejoin="round"/><polygon points="1741.5 2333.5 1588.5 2114.5 1563.5 2274.5 1741.5 2333.5" fill="#fff" stroke="#fff" stroke-linejoin="round"/><polygon points="1741.5 2333.5 1686.5 2396.5 1692.5 2416.5 1741.5 2333.5" fill="#fff" stroke="#fff" stroke-linejoin="round"/><polygon points="1756.5 3379.5 1540.5 3321.5 1630.5 3408.5 1756.5 3379.5" fill="#fff" stroke="#a6ffff" stroke-linejoin="round"/><polygon points="1764.5 1921.5 1560.5 2017.5 1588.5 2114.5 1764.5 1921.5" fill="#fff" stroke="#fff" stroke-linejoin="round"/><polygon points="1789.5 0.5 1575.5 75.5 1722.5 221.5 1789.5 0.5" fill="#fff" stroke="#fff" stroke-linejoin="round"/><polygon points="1797.5 1096.5 1730.5 898.5 1456.5 1096.5 1797.5 1096.5" fill="#fff" stroke="#fff" stroke-linejoin="round"/><polygon points="1797.5 1096.5 1456.5 1096.5 1509.5 1298.5 1797.5 1096.5" fill="#fff" stroke="#fff" stroke-linejoin="round"/><polygon points="1798.5 568.5 1609.5 496.5 1729.5 681.5 1798.5 568.5" fill="#fff" stroke="#fff" stroke-linejoin="round"/><polygon points="1796.5 1627.5 1620.5 1565.5 1750.5 1728.5 1796.5 1627.5" fill="#fff" stroke="#fff" stroke-linejoin="round"/><polygon points="1200.5 0.5 737.5 0.5 968.5 34.5 1200.5 0.5" fill="#fff" stroke="#fff" stroke-linejoin="round"/><polygon points="1729.5 681.5 1609.5 496.5 1571.5 552.5 1729.5 681.5" fill="#fff" stroke="#fff" stroke-linejoin="round"/><polygon points="1730.5 898.5 1729.5 681.5 1483.5 874.5 1730.5 898.5" fill="#fff" stroke="#fff" stroke-linejoin="round"/><polygon points="1730.5 898.5 1483.5 874.5 1456.5 1096.5 1730.5 898.5" fill="#fff" stroke="#fff" stroke-linejoin="round"/><polygon points="1750.5 1728.5 1620.5 1565.5 1590.5 1713.5 1750.5 1728.5" fill="#fff" stroke="#fff" stroke-linejoin="round"/><polygon points="1763.5 3501.5 1585.5 3506.5 1694.5 3600.5 1763.5 3501.5" fill="#fff" stroke="#00d0fe" stroke-linejoin="round"/><polygon points="1763.5 3501.5 1630.5 3408.5 1585.5 3506.5 1763.5 3501.5" fill="#fff" stroke="#00d0fe" stroke-linejoin="round"/><polygon points="1763.5 3501.5 1756.5 3379.5 1630.5 3408.5 1763.5 3501.5" fill="#fff" stroke="#00d0fe" stroke-linejoin="round"/><polygon points="1764.5 1921.5 1722.5 1806.5 1560.5 2017.5 1764.5 1921.5" fill="#fff" stroke="#fff" stroke-linejoin="round"/><polygon points="1729.5 681.5 1437.5 763.5 1483.5 874.5 1729.5 681.5" fill="#fff" stroke="#fff" stroke-linejoin="round"/><polygon points="1750.5 1728.5 1590.5 1713.5 1722.5 1806.5 1750.5 1728.5" fill="#fff" stroke="#fff" stroke-linejoin="round"/><polygon points="1692.5 2416.5 1490.5 2576.5 1686.5 2638.5 1692.5 2416.5" fill="#fff" stroke="#fff" stroke-linejoin="round"/><polygon points="1722.5 1806.5 1463.5 1840.5 1560.5 2017.5 1722.5 1806.5" fill="#fff" stroke="#fff" stroke-linejoin="round"/><polygon points="1741.5 2333.5 1563.5 2274.5 1686.5 2396.5 1741.5 2333.5" fill="#fff" stroke="#fff" stroke-linejoin="round"/><polygon points="1742.5 1401.5 1467.5 1422.5 1620.5 1565.5 1742.5 1401.5" fill="#fff" stroke="#fff" stroke-linejoin="round"/><polygon points="1742.5 1401.5 1509.5 1298.5 1467.5 1422.5 1742.5 1401.5" fill="#fff" stroke="#fff" stroke-linejoin="round"/><polygon points="1729.5 681.5 1571.5 552.5 1437.5 763.5 1729.5 681.5" fill="#fff" stroke="#fff" stroke-linejoin="round"/><polygon points="1692.5 2416.5 1542.5 2393.5 1490.5 2576.5 1692.5 2416.5" fill="#fff" stroke="#fff" stroke-linejoin="round"/><polygon points="1620.5 1565.5 1585.5 1584.5 1590.5 1713.5 1620.5 1565.5" fill="#fff" stroke="#fff" stroke-linejoin="round"/><polygon points="1722.5 1806.5 1590.5 1713.5 1463.5 1840.5 1722.5 1806.5" fill="#fff" stroke="#fff" stroke-linejoin="round"/><polygon points="1722.5 221.5 1575.5 75.5 1617.5 363.5 1722.5 221.5" fill="#fff" stroke="#fff" stroke-linejoin="round"/><polygon points="1617.5 363.5 1575.5 75.5 1437.5 296.5 1617.5 363.5" fill="#fff" stroke="#fff" stroke-linejoin="round"/><polygon points="1658.5 2947.5 1430.5 3319.5 1540.5 3321.5 1658.5 2947.5" fill="#fff" stroke="#caffff" stroke-linejoin="round"/><polygon points="1658.5 2947.5 1451.5 2853.5 1430.5 3319.5 1658.5 2947.5" fill="#fff" stroke="#fff" stroke-linejoin="round"/><polygon points="1686.5 2396.5 1563.5 2274.5 1542.5 2393.5 1686.5 2396.5" fill="#fff" stroke="#fff" stroke-linejoin="round"/><polygon points="1694.5 3600.5 1585.5 3506.5 1462.5 3600.5 1694.5 3600.5" fill="#fff" stroke="#00d0fe" stroke-linejoin="round"/><polygon points="1686.5 2638.5 1490.5 2576.5 1623.5 2793.5 1686.5 2638.5" fill="#fff" stroke="#fff" stroke-linejoin="round"/><polygon points="1692.5 2416.5 1686.5 2396.5 1542.5 2393.5 1692.5 2416.5" fill="#fff" stroke="#fff" stroke-linejoin="round"/><polygon points="1451.5 2853.5 1290.5 3275.5 1430.5 3319.5 1451.5 2853.5" fill="#fff" stroke="#fff" stroke-linejoin="round"/><polygon points="1588.5 2114.5 1551.5 2120.5 1563.5 2274.5 1588.5 2114.5" fill="#fff" stroke="#fff" stroke-linejoin="round"/><polygon points="1620.5 1565.5 1467.5 1422.5 1585.5 1584.5 1620.5 1565.5" fill="#fff" stroke="#fff" stroke-linejoin="round"/><polygon points="1658.5 2947.5 1623.5 2793.5 1451.5 2853.5 1658.5 2947.5" fill="#fff" stroke="#fff" stroke-linejoin="round"/><polygon points="1451.5 2853.5 1208.5 3179.5 1290.5 3275.5 1451.5 2853.5" fill="#fff" stroke="#fff" stroke-linejoin="round"/><polygon points="1451.5 2853.5 1190.5 3018.5 1208.5 3179.5 1451.5 2853.5" fill="#fff" stroke="#fff" stroke-linejoin="round"/><polygon points="1585.5 3506.5 1525.5 3504.5 1462.5 3600.5 1585.5 3506.5" fill="#fff" stroke="#00d0fe" stroke-linejoin="round"/><polygon points="1617.5 363.5 1492.5 454.5 1609.5 496.5 1617.5 363.5" fill="#fff" stroke="#fff" stroke-linejoin="round"/><polygon points="1623.5 2793.5 1490.5 2576.5 1451.5 2853.5 1623.5 2793.5" fill="#fff" stroke="#fff" stroke-linejoin="round"/><polygon points="1630.5 3408.5 1508.5 3390.5 1585.5 3506.5 1630.5 3408.5" fill="#fff" stroke="#00d0fe" stroke-linejoin="round"/><polygon points="1630.5 3408.5 1540.5 3321.5 1508.5 3390.5 1630.5 3408.5" fill="#fff" stroke="#b5ffff" stroke-linejoin="round"/><polygon points="1585.5 3506.5 1508.5 3390.5 1525.5 3504.5 1585.5 3506.5" fill="#fff" stroke="#00d0fe" stroke-linejoin="round"/><polygon points="1585.5 1584.5 1467.5 1422.5 1431.5 1466.5 1585.5 1584.5" fill="#fff" stroke="#fff" stroke-linejoin="round"/><polygon points="1200.5 3600.5 1183.5 3596.5 952.5 3600.5 1200.5 3600.5" fill="#fff" stroke="#00d0fe" stroke-linejoin="round"/><polygon points="1542.5 2393.5 1482.5 2573.5 1490.5 2576.5 1542.5 2393.5" fill="#fff" stroke="#fff" stroke-linejoin="round"/><polygon points="1617.5 363.5 1437.5 296.5 1492.5 454.5 1617.5 363.5" fill="#fff" stroke="#fff" stroke-linejoin="round"/><polygon points="1563.5 2274.5 1551.5 2120.5 1479.5 2136.5 1563.5 2274.5" fill="#fff" stroke="#fff" stroke-linejoin="round"/><polygon points="1588.5 2114.5 1560.5 2017.5 1551.5 2120.5 1588.5 2114.5" fill="#fff" stroke="#fff" stroke-linejoin="round"/><polygon points="1609.5 496.5 1492.5 454.5 1571.5 552.5 1609.5 496.5" fill="#fff" stroke="#fff" stroke-linejoin="round"/><polygon points="1563.5 2274.5 1463.5 2297.5 1542.5 2393.5 1563.5 2274.5" fill="#fff" stroke="#fff" stroke-linejoin="round"/><polygon points="1571.5 552.5 1361.5 556.5 1437.5 763.5 1571.5 552.5" fill="#fff" stroke="#fff" stroke-linejoin="round"/><polygon points="1575.5 75.5 1444.5 0.5 1437.5 296.5 1575.5 75.5" fill="#fff" stroke="#fff" stroke-linejoin="round"/><polygon points="1590.5 1713.5 1585.5 1584.5 1282.5 1588.5 1590.5 1713.5" fill="#fff" stroke="#fff" stroke-linejoin="round"/><polygon points="1590.5 1713.5 1282.5 1588.5 1463.5 1840.5 1590.5 1713.5" fill="#fff" stroke="#fff" stroke-linejoin="round"/><polygon points="1585.5 1584.5 1431.5 1466.5 1282.5 1588.5 1585.5 1584.5" fill="#fff" stroke="#fff" stroke-linejoin="round"/><polygon points="1444.5 0.5 1420.5 0.5 1437.5 296.5 1444.5 0.5" fill="#fff" stroke="#fff" stroke-linejoin="round"/><polygon points="1490.5 2576.5 1482.5 2573.5 1451.5 2853.5 1490.5 2576.5" fill="#fff" stroke="#fff" stroke-linejoin="round"/><polygon points="1560.5 2017.5 1479.5 2136.5 1551.5 2120.5 1560.5 2017.5" fill="#fff" stroke="#fff" stroke-linejoin="round"/><polygon points="1560.5 2017.5 1463.5 1840.5 1351.5 1968.5 1560.5 2017.5" fill="#fff" stroke="#fff" stroke-linejoin="round"/><polygon points="1563.5 2274.5 1479.5 2136.5 1463.5 2297.5 1563.5 2274.5" fill="#fff" stroke="#fff" stroke-linejoin="round"/><polygon points="1571.5 552.5 1492.5 454.5 1361.5 556.5 1571.5 552.5" fill="#fff" stroke="#fff" stroke-linejoin="round"/><polygon points="1483.5 874.5 1373.5 902.5 1456.5 1096.5 1483.5 874.5" fill="#fff" stroke="#fff" stroke-linejoin="round"/><polygon points="1560.5 2017.5 1351.5 1968.5 1479.5 2136.5 1560.5 2017.5" fill="#fff" stroke="#fff" stroke-linejoin="round"/><polygon points="1509.5 1298.5 1456.5 1096.5 1326.5 1200.5 1509.5 1298.5" fill="#fff" stroke="#fff" stroke-linejoin="round"/><polygon points="1542.5 2393.5 1339.5 2319.5 1482.5 2573.5 1542.5 2393.5" fill="#fff" stroke="#fff" stroke-linejoin="round"/><polygon points="1540.5 3321.5 1430.5 3319.5 1508.5 3390.5 1540.5 3321.5" fill="#fff" stroke="#caffff" stroke-linejoin="round"/><polygon points="1542.5 2393.5 1463.5 2297.5 1339.5 2319.5 1542.5 2393.5" fill="#fff" stroke="#fff" stroke-linejoin="round"/><polygon points="1437.5 296.5 1420.5 0.5 1322.5 302.5 1437.5 296.5" fill="#fff" stroke="#fff" stroke-linejoin="round"/><polygon points="1482.5 2573.5 1228.5 2569.5 1451.5 2853.5 1482.5 2573.5" fill="#fff" stroke="#fff" stroke-linejoin="round"/><polygon points="1525.5 3504.5 1508.5 3390.5 1420.5 3600.5 1525.5 3504.5" fill="#fff" stroke="#00d0fe" stroke-linejoin="round"/><polygon points="1525.5 3504.5 1420.5 3600.5 1428.5 3600.5 1525.5 3504.5" fill="#fff" stroke="#00d0fe" stroke-linejoin="round"/><polygon points="1525.5 3504.5 1428.5 3600.5 1462.5 3600.5 1525.5 3504.5" fill="#fff" stroke="#00d0fe" stroke-linejoin="round"/><polygon points="1430.5 3319.5 1193.5 3450.5 1420.5 3600.5 1430.5 3319.5" fill="#fff" stroke="#00d0fe" stroke-linejoin="round"/><polygon points="1463.5 1840.5 1282.5 1588.5 1213.5 1681.5 1463.5 1840.5" fill="#fff" stroke="#fff" stroke-linejoin="round"/><polygon points="1463.5 1840.5 1340.5 1900.5 1351.5 1968.5 1463.5 1840.5" fill="#fff" stroke="#fff" stroke-linejoin="round"/><polygon points="1482.5 2573.5 1339.5 2319.5 1228.5 2569.5 1482.5 2573.5" fill="#fff" stroke="#fff" stroke-linejoin="round"/><polygon points="1492.5 454.5 1437.5 296.5 1371.5 464.5 1492.5 454.5" fill="#fff" stroke="#fff" stroke-linejoin="round"/><polygon points="1492.5 454.5 1371.5 464.5 1361.5 556.5 1492.5 454.5" fill="#fff" stroke="#fff" stroke-linejoin="round"/><polygon points="1508.5 3390.5 1430.5 3319.5 1420.5 3600.5 1508.5 3390.5" fill="#fff" stroke="#00d0fe" stroke-linejoin="round"/><polygon points="1509.5 1298.5 1326.5 1200.5 1467.5 1422.5 1509.5 1298.5" fill="#fff" stroke="#fff" stroke-linejoin="round"/><polygon points="1437.5 763.5 1361.5 556.5 1284.5 616.5 1437.5 763.5" fill="#fff" stroke="#fff" stroke-linejoin="round"/><polygon points="1451.5 2853.5 1228.5 2569.5 1164.5 2844.5 1451.5 2853.5" fill="#fff" stroke="#fff" stroke-linejoin="round"/><polygon points="1456.5 1096.5 1373.5 902.5 1300.5 1052.5 1456.5 1096.5" fill="#fff" stroke="#fff" stroke-linejoin="round"/><polygon points="1463.5 1840.5 1213.5 1681.5 1340.5 1900.5 1463.5 1840.5" fill="#fff" stroke="#fff" stroke-linejoin="round"/><polygon points="1467.5 1422.5 1326.5 1200.5 1306.5 1208.5 1467.5 1422.5" fill="#fff" stroke="#fff" stroke-linejoin="round"/><polygon points="1479.5 2136.5 1339.5 2319.5 1463.5 2297.5 1479.5 2136.5" fill="#fff" stroke="#fff" stroke-linejoin="round"/><polygon points="1483.5 874.5 1437.5 763.5 1373.5 902.5 1483.5 874.5" fill="#fff" stroke="#fff" stroke-linejoin="round"/><polygon points="1451.5 2853.5 1196.5 2883.5 1190.5 3018.5 1451.5 2853.5" fill="#fff" stroke="#fff" stroke-linejoin="round"/><polygon points="1479.5 2136.5 1351.5 1968.5 1279.5 2011.5 1479.5 2136.5" fill="#fff" stroke="#fff" stroke-linejoin="round"/><polygon points="1467.5 1422.5 1306.5 1208.5 1431.5 1466.5 1467.5 1422.5" fill="#fff" stroke="#fff" stroke-linejoin="round"/><polygon points="1451.5 2853.5 1164.5 2844.5 1196.5 2883.5 1451.5 2853.5" fill="#fff" stroke="#fff" stroke-linejoin="round"/><polygon points="1420.5 0.5 1200.5 0.5 1322.5 302.5 1420.5 0.5" fill="#fff" stroke="#fff" stroke-linejoin="round"/><polygon points="1479.5 2136.5 1279.5 2011.5 1339.5 2319.5 1479.5 2136.5" fill="#fff" stroke="#fff" stroke-linejoin="round"/><polygon points="1371.5 464.5 1322.5 302.5 1340.5 456.5 1371.5 464.5" fill="#fff" stroke="#fff" stroke-linejoin="round"/><polygon points="1437.5 296.5 1322.5 302.5 1371.5 464.5 1437.5 296.5" fill="#fff" stroke="#fff" stroke-linejoin="round"/><polygon points="1430.5 3319.5 1290.5 3275.5 1193.5 3450.5 1430.5 3319.5" fill="#fff" stroke="#fff" stroke-linejoin="round"/><polygon points="1437.5 763.5 1284.5 616.5 1250.5 666.5 1437.5 763.5" fill="#fff" stroke="#fff" stroke-linejoin="round"/><polygon points="1456.5 1096.5 1300.5 1052.5 1326.5 1200.5 1456.5 1096.5" fill="#fff" stroke="#fff" stroke-linejoin="round"/><polygon points="1339.5 2319.5 1215.5 2350.5 1228.5 2569.5 1339.5 2319.5" fill="#fff" stroke="#fff" stroke-linejoin="round"/><polygon points="1420.5 3600.5 1193.5 3450.5 1200.5 3600.5 1420.5 3600.5" fill="#fff" stroke="#00d0fe" stroke-linejoin="round"/><polygon points="1431.5 1466.5 1306.5 1208.5 1098.5 1518.5 1431.5 1466.5" fill="#fff" stroke="#fff" stroke-linejoin="round"/><polygon points="1373.5 902.5 1250.5 666.5 1211.5 882.5 1373.5 902.5" fill="#fff" stroke="#fff" stroke-linejoin="round"/><polygon points="1431.5 1466.5 1098.5 1518.5 1282.5 1588.5 1431.5 1466.5" fill="#fff" stroke="#fff" stroke-linejoin="round"/><polygon points="1437.5 763.5 1250.5 666.5 1373.5 902.5 1437.5 763.5" fill="#fff" stroke="#fff" stroke-linejoin="round"/><polygon points="1196.5 2883.5 1172.5 2956.5 1190.5 3018.5 1196.5 2883.5" fill="#fff" stroke="#fff" stroke-linejoin="round"/><polygon points="1279.5 2011.5 1103.5 2015.5 1215.5 2350.5 1279.5 2011.5" fill="#fff" stroke="#fff" stroke-linejoin="round"/><polygon points="1339.5 2319.5 1279.5 2011.5 1215.5 2350.5 1339.5 2319.5" fill="#fff" stroke="#fff" stroke-linejoin="round"/><polygon points="1361.5 556.5 1340.5 456.5 1271.5 519.5 1361.5 556.5" fill="#fff" stroke="#fff" stroke-linejoin="round"/><polygon points="1371.5 464.5 1340.5 456.5 1361.5 556.5 1371.5 464.5" fill="#fff" stroke="#fff" stroke-linejoin="round"/><polygon points="1373.5 902.5 1211.5 882.5 1300.5 1052.5 1373.5 902.5" fill="#fff" stroke="#fff" stroke-linejoin="round"/><polygon points="1228.5 2569.5 1215.5 2350.5 1140.5 2446.5 1228.5 2569.5" fill="#fff" stroke="#fff" stroke-linejoin="round"/><polygon points="1326.5 1200.5 1300.5 1052.5 1306.5 1208.5 1326.5 1200.5" fill="#fff" stroke="#fff" stroke-linejoin="round"/><polygon points="1340.5 1900.5 1213.5 1681.5 1084.5 1874.5 1340.5 1900.5" fill="#fff" stroke="#fff" stroke-linejoin="round"/><polygon points="1361.5 556.5 1271.5 519.5 1284.5 616.5 1361.5 556.5" fill="#fff" stroke="#fff" stroke-linejoin="round"/><polygon points="1200.5 0.5 1001.5 92.5 976.5 194.5 1200.5 0.5" fill="#fff" stroke="#fff" stroke-linejoin="round"/><polygon points="1322.5 302.5 1200.5 0.5 976.5 194.5 1322.5 302.5" fill="#fff" stroke="#fff" stroke-linejoin="round"/><polygon points="1340.5 456.5 1322.5 302.5 1271.5 519.5 1340.5 456.5" fill="#fff" stroke="#fff" stroke-linejoin="round"/><polygon points="1351.5 1968.5 1340.5 1900.5 1279.5 2011.5 1351.5 1968.5" fill="#fff" stroke="#fff" stroke-linejoin="round"/><polygon points="1250.5 666.5 1124.5 800.5 1211.5 882.5 1250.5 666.5" fill="#fff" stroke="#fff" stroke-linejoin="round"/><polygon points="1306.5 1208.5 992.5 1450.5 1098.5 1518.5 1306.5 1208.5" fill="#fff" stroke="#fff" stroke-linejoin="round"/><polygon points="1340.5 1900.5 1084.5 1874.5 1279.5 2011.5 1340.5 1900.5" fill="#fff" stroke="#fff" stroke-linejoin="round"/><polygon points="1215.5 2350.5 1103.5 2015.5 1033.5 2061.5 1215.5 2350.5" fill="#fff" stroke="#fff" stroke-linejoin="round"/><polygon points="1322.5 302.5 957.5 296.5 1271.5 519.5 1322.5 302.5" fill="#fff" stroke="#fff" stroke-linejoin="round"/><polygon points="1322.5 302.5 976.5 194.5 957.5 296.5 1322.5 302.5" fill="#fff" stroke="#fff" stroke-linejoin="round"/><polygon points="1228.5 2569.5 1021.5 2729.5 1164.5 2844.5 1228.5 2569.5" fill="#fff" stroke="#fff" stroke-linejoin="round"/><polygon points="1279.5 2011.5 1084.5 1874.5 1079.5 1946.5 1279.5 2011.5" fill="#fff" stroke="#fff" stroke-linejoin="round"/><polygon points="1284.5 616.5 1271.5 519.5 1224.5 568.5 1284.5 616.5" fill="#fff" stroke="#fff" stroke-linejoin="round"/><polygon points="1306.5 1208.5 1300.5 1052.5 998.5 1038.5 1306.5 1208.5" fill="#fff" stroke="#fff" stroke-linejoin="round"/><polygon points="1306.5 1208.5 998.5 1038.5 992.5 1450.5 1306.5 1208.5" fill="#fff" stroke="#fff" stroke-linejoin="round"/><polygon points="1250.5 666.5 1175.5 661.5 1124.5 800.5 1250.5 666.5" fill="#fff" stroke="#fff" stroke-linejoin="round"/><polygon points="1271.5 519.5 957.5 296.5 1224.5 568.5 1271.5 519.5" fill="#fff" stroke="#fff" stroke-linejoin="round"/><polygon points="1290.5 3275.5 1104.5 3233.5 1193.5 3450.5 1290.5 3275.5" fill="#fff" stroke="#fff" stroke-linejoin="round"/><polygon points="1300.5 1052.5 1211.5 882.5 998.5 1038.5 1300.5 1052.5" fill="#fff" stroke="#fff" stroke-linejoin="round"/><polygon points="1279.5 2011.5 1079.5 1946.5 1103.5 2015.5 1279.5 2011.5" fill="#fff" stroke="#fff" stroke-linejoin="round"/><polygon points="1290.5 3275.5 1208.5 3179.5 1104.5 3233.5 1290.5 3275.5" fill="#fff" stroke="#fff" stroke-linejoin="round"/><polygon points="1282.5 1588.5 1188.5 1670.5 1213.5 1681.5 1282.5 1588.5" fill="#fff" stroke="#fff" stroke-linejoin="round"/><polygon points="1282.5 1588.5 1098.5 1518.5 1188.5 1670.5 1282.5 1588.5" fill="#fff" stroke="#fff" stroke-linejoin="round"/><polygon points="1284.5 616.5 1190.5 610.5 1250.5 666.5 1284.5 616.5" fill="#fff" stroke="#fff" stroke-linejoin="round"/><polygon points="1284.5 616.5 1224.5 568.5 1190.5 610.5 1284.5 616.5" fill="#fff" stroke="#fff" stroke-linejoin="round"/><polygon points="1200.5 3600.5 1193.5 3450.5 1183.5 3596.5 1200.5 3600.5" fill="#fff" stroke="#00d0fe" stroke-linejoin="round"/><polygon points="1208.5 3179.5 1190.5 3018.5 1134.5 3146.5 1208.5 3179.5" fill="#fff" stroke="#fff" stroke-linejoin="round"/><polygon points="998.5 1038.5 871.5 1141.5 992.5 1450.5 998.5 1038.5" fill="#fff" stroke="#fff" stroke-linejoin="round"/><polygon points="1224.5 568.5 957.5 296.5 1003.5 612.5 1224.5 568.5" fill="#fff" stroke="#fff" stroke-linejoin="round"/><polygon points="1211.5 882.5 986.5 955.5 998.5 1038.5 1211.5 882.5" fill="#fff" stroke="#fff" stroke-linejoin="round"/><polygon points="1213.5 1681.5 1188.5 1670.5 1084.5 1874.5 1213.5 1681.5" fill="#fff" stroke="#fff" stroke-linejoin="round"/><polygon points="1215.5 2350.5 1033.5 2061.5 942.5 2313.5 1215.5 2350.5" fill="#fff" stroke="#fff" stroke-linejoin="round"/><polygon points="1228.5 2569.5 1032.5 2569.5 1021.5 2729.5 1228.5 2569.5" fill="#fff" stroke="#fff" stroke-linejoin="round"/><polygon points="1250.5 666.5 1190.5 610.5 1175.5 661.5 1250.5 666.5" fill="#fff" stroke="#fff" stroke-linejoin="round"/><polygon points="1183.5 3596.5 1037.5 3556.5 952.5 3600.5 1183.5 3596.5" fill="#fff" stroke="#00d0fe" stroke-linejoin="round"/><polygon points="1193.5 3450.5 1104.5 3233.5 984.5 3387.5 1193.5 3450.5" fill="#fff" stroke="#fff" stroke-linejoin="round"/><polygon points="1196.5 2883.5 1151.5 2927.5 1172.5 2956.5 1196.5 2883.5" fill="#fff" stroke="#fff" stroke-linejoin="round"/><polygon points="1224.5 568.5 1003.5 612.5 1190.5 610.5 1224.5 568.5" fill="#fff" stroke="#fff" stroke-linejoin="round"/><polygon points="1228.5 2569.5 1140.5 2446.5 1032.5 2569.5 1228.5 2569.5" fill="#fff" stroke="#fff" stroke-linejoin="round"/><polygon points="1188.5 1670.5 1053.5 1646.5 1084.5 1874.5 1188.5 1670.5" fill="#fff" stroke="#fff" stroke-linejoin="round"/><polygon points="1188.5 1670.5 1098.5 1518.5 1053.5 1646.5 1188.5 1670.5" fill="#fff" stroke="#fff" stroke-linejoin="round"/><polygon points="1193.5 3450.5 1037.5 3556.5 1183.5 3596.5 1193.5 3450.5" fill="#fff" stroke="#00d0fe" stroke-linejoin="round"/><polygon points="1208.5 3179.5 1101.5 3221.5 1104.5 3233.5 1208.5 3179.5" fill="#fff" stroke="#fff" stroke-linejoin="round"/><polygon points="1211.5 882.5 1124.5 800.5 986.5 955.5 1211.5 882.5" fill="#fff" stroke="#fff" stroke-linejoin="round"/><polygon points="1215.5 2350.5 942.5 2313.5 1140.5 2446.5 1215.5 2350.5" fill="#fff" stroke="#fff" stroke-linejoin="round"/><polygon points="1208.5 3179.5 1134.5 3146.5 1101.5 3221.5 1208.5 3179.5" fill="#fff" stroke="#fff" stroke-linejoin="round"/><polygon points="1084.5 1874.5 1053.5 1646.5 986.5 1698.5 1084.5 1874.5" fill="#fff" stroke="#fff" stroke-linejoin="round"/><polygon points="1196.5 2883.5 1164.5 2844.5 1158.5 2871.5 1196.5 2883.5" fill="#fff" stroke="#fff" stroke-linejoin="round"/><polygon points="1196.5 2883.5 1158.5 2871.5 1151.5 2927.5 1196.5 2883.5" fill="#fff" stroke="#fff" stroke-linejoin="round"/><polygon points="1200.5 0.5 968.5 34.5 1001.5 92.5 1200.5 0.5" fill="#fff" stroke="#fff" stroke-linejoin="round"/><polygon points="1124.5 800.5 1066.5 795.5 986.5 955.5 1124.5 800.5" fill="#fff" stroke="#fff" stroke-linejoin="round"/><polygon points="1190.5 3018.5 987.5 3115.5 1134.5 3146.5 1190.5 3018.5" fill="#fff" stroke="#fff" stroke-linejoin="round"/><polygon points="1193.5 3450.5 984.5 3387.5 1037.5 3556.5 1193.5 3450.5" fill="#fff" stroke="#00d0fe" stroke-linejoin="round"/><polygon points="1175.5 661.5 1066.5 795.5 1124.5 800.5 1175.5 661.5" fill="#fff" stroke="#fff" stroke-linejoin="round"/><polygon points="1190.5 3018.5 1172.5 2956.5 987.5 3115.5 1190.5 3018.5" fill="#fff" stroke="#fff" stroke-linejoin="round"/><polygon points="1190.5 610.5 1003.5 612.5 1175.5 661.5 1190.5 610.5" fill="#fff" stroke="#fff" stroke-linejoin="round"/><polygon points="1172.5 2956.5 1151.5 2927.5 987.5 3115.5 1172.5 2956.5" fill="#fff" stroke="#fff" stroke-linejoin="round"/><polygon points="1151.5 2927.5 1011.5 2883.5 987.5 3115.5 1151.5 2927.5" fill="#fff" stroke="#fff" stroke-linejoin="round"/><polygon points="1175.5 661.5 1003.5 612.5 1066.5 795.5 1175.5 661.5" fill="#fff" stroke="#fff" stroke-linejoin="round"/><polygon points="1084.5 1874.5 986.5 1698.5 1042.5 1872.5 1084.5 1874.5" fill="#fff" stroke="#fff" stroke-linejoin="round"/><polygon points="1066.5 795.5 1003.5 612.5 1033.5 789.5 1066.5 795.5" fill="#fff" stroke="#fff" stroke-linejoin="round"/><polygon points="1164.5 2844.5 1011.5 2883.5 1158.5 2871.5 1164.5 2844.5" fill="#fff" stroke="#fff" stroke-linejoin="round"/><polygon points="1164.5 2844.5 1021.5 2729.5 1011.5 2883.5 1164.5 2844.5" fill="#fff" stroke="#fff" stroke-linejoin="round"/><polygon points="1158.5 2871.5 1011.5 2883.5 1151.5 2927.5 1158.5 2871.5" fill="#fff" stroke="#fff" stroke-linejoin="round"/><polygon points="1104.5 3233.5 1018.5 3229.5 984.5 3387.5 1104.5 3233.5" fill="#fff" stroke="#fff" stroke-linejoin="round"/><polygon points="1140.5 2446.5 942.5 2313.5 1032.5 2569.5 1140.5 2446.5" fill="#fff" stroke="#fff" stroke-linejoin="round"/><polygon points="1033.5 789.5 1003.5 612.5 972.5 756.5 1033.5 789.5" fill="#fff" stroke="#fff" stroke-linejoin="round"/><polygon points="1134.5 3146.5 1000.5 3164.5 1101.5 3221.5 1134.5 3146.5" fill="#fff" stroke="#fff" stroke-linejoin="round"/><polygon points="1134.5 3146.5 987.5 3115.5 1000.5 3164.5 1134.5 3146.5" fill="#fff" stroke="#fff" stroke-linejoin="round"/><polygon points="992.5 1450.5 871.5 1141.5 813.5 1373.5 992.5 1450.5" fill="#fff" stroke="#fff" stroke-linejoin="round"/><polygon points="1032.5 2569.5 942.5 2313.5 842.5 2394.5 1032.5 2569.5" fill="#fff" stroke="#fff" stroke-linejoin="round"/><polygon points="1066.5 795.5 1033.5 789.5 986.5 955.5 1066.5 795.5" fill="#fff" stroke="#fff" stroke-linejoin="round"/><polygon points="1098.5 1518.5 992.5 1450.5 1053.5 1646.5 1098.5 1518.5" fill="#fff" stroke="#fff" stroke-linejoin="round"/><polygon points="1101.5 3221.5 1000.5 3164.5 1018.5 3229.5 1101.5 3221.5" fill="#fff" stroke="#fff" stroke-linejoin="round"/><polygon points="1103.5 2015.5 1079.5 1946.5 1041.5 1992.5 1103.5 2015.5" fill="#fff" stroke="#fff" stroke-linejoin="round"/><polygon points="1103.5 2015.5 1041.5 1992.5 1033.5 2061.5 1103.5 2015.5" fill="#fff" stroke="#fff" stroke-linejoin="round"/><polygon points="1104.5 3233.5 1101.5 3221.5 1018.5 3229.5 1104.5 3233.5" fill="#fff" stroke="#fff" stroke-linejoin="round"/><polygon points="1084.5 1874.5 1042.5 1872.5 1079.5 1946.5 1084.5 1874.5" fill="#fff" stroke="#fff" stroke-linejoin="round"/><polygon points="1033.5 2061.5 843.5 2102.5 942.5 2313.5 1033.5 2061.5" fill="#fff" stroke="#fff" stroke-linejoin="round"/><polygon points="1003.5 612.5 957.5 296.5 729.5 433.5 1003.5 612.5" fill="#fff" stroke="#fff" stroke-linejoin="round"/><polygon points="1011.5 2883.5 875.5 3091.5 987.5 3115.5 1011.5 2883.5" fill="#fff" stroke="#fff" stroke-linejoin="round"/><polygon points="1079.5 1946.5 1042.5 1872.5 1041.5 1992.5 1079.5 1946.5" fill="#fff" stroke="#fff" stroke-linejoin="round"/><polygon points="992.5 1450.5 833.5 1516.5 823.5 1581.5 992.5 1450.5" fill="#fff" stroke="#fff" stroke-linejoin="round"/><polygon points="1037.5 3556.5 984.5 3387.5 891.5 3517.5 1037.5 3556.5" fill="#fff" stroke="#00d0fe" stroke-linejoin="round"/><polygon points="1042.5 1872.5 986.5 1698.5 871.5 1783.5 1042.5 1872.5" fill="#fff" stroke="#fff" stroke-linejoin="round"/><polygon points="1053.5 1646.5 992.5 1450.5 823.5 1581.5 1053.5 1646.5" fill="#fff" stroke="#fff" stroke-linejoin="round"/><polygon points="1053.5 1646.5 823.5 1581.5 986.5 1698.5 1053.5 1646.5" fill="#fff" stroke="#fff" stroke-linejoin="round"/><polygon points="942.5 2313.5 843.5 2102.5 818.5 2238.5 942.5 2313.5" fill="#fff" stroke="#fff" stroke-linejoin="round"/><polygon points="1033.5 789.5 972.5 756.5 986.5 955.5 1033.5 789.5" fill="#fff" stroke="#fff" stroke-linejoin="round"/><polygon points="1037.5 3556.5 891.5 3517.5 944.5 3581.5 1037.5 3556.5" fill="#fff" stroke="#00d0fe" stroke-linejoin="round"/><polygon points="1042.5 1872.5 941.5 2017.5 1041.5 1992.5 1042.5 1872.5" fill="#fff" stroke="#fff" stroke-linejoin="round"/><polygon points="998.5 1038.5 868.5 1123.5 871.5 1141.5 998.5 1038.5" fill="#fff" stroke="#fff" stroke-linejoin="round"/><polygon points="1032.5 2569.5 656.5 2535.5 1021.5 2729.5 1032.5 2569.5" fill="#fff" stroke="#fff" stroke-linejoin="round"/><polygon points="1033.5 2061.5 941.5 2017.5 843.5 2102.5 1033.5 2061.5" fill="#fff" stroke="#fff" stroke-linejoin="round"/><polygon points="1041.5 1992.5 941.5 2017.5 1033.5 2061.5 1041.5 1992.5" fill="#fff" stroke="#fff" stroke-linejoin="round"/><polygon points="1042.5 1872.5 871.5 1783.5 941.5 2017.5 1042.5 1872.5" fill="#fff" stroke="#fff" stroke-linejoin="round"/><polygon points="1018.5 3229.5 911.5 3184.5 984.5 3387.5 1018.5 3229.5" fill="#fff" stroke="#f4ffff" stroke-linejoin="round"/><polygon points="1037.5 3556.5 944.5 3581.5 952.5 3600.5 1037.5 3556.5" fill="#fff" stroke="#00d0fe" stroke-linejoin="round"/><polygon points="1003.5 612.5 729.5 433.5 714.5 564.5 1003.5 612.5" fill="#fff" stroke="#fff" stroke-linejoin="round"/><polygon points="1032.5 2569.5 842.5 2394.5 656.5 2535.5 1032.5 2569.5" fill="#fff" stroke="#fff" stroke-linejoin="round"/><polygon points="968.5 34.5 737.5 0.5 869.5 70.5 968.5 34.5" fill="#fff" stroke="#fff" stroke-linejoin="round"/><polygon points="1011.5 2883.5 656.5 2535.5 457.5 2807.5 1011.5 2883.5" fill="#fff" stroke="#fff" stroke-linejoin="round"/><polygon points="1018.5 3229.5 1000.5 3164.5 911.5 3184.5 1018.5 3229.5" fill="#fff" stroke="#faffff" stroke-linejoin="round"/><polygon points="1021.5 2729.5 656.5 2535.5 1011.5 2883.5 1021.5 2729.5" fill="#fff" stroke="#fff" stroke-linejoin="round"/><polygon points="984.5 3387.5 911.5 3184.5 781.5 3351.5 984.5 3387.5" fill="#fff" stroke="#d1ffff" stroke-linejoin="round"/><polygon points="1001.5 92.5 922.5 197.5 976.5 194.5 1001.5 92.5" fill="#fff" stroke="#fff" stroke-linejoin="round"/><polygon points="1011.5 2883.5 457.5 2807.5 875.5 3091.5 1011.5 2883.5" fill="#fff" stroke="#fff" stroke-linejoin="round"/><polygon points="941.5 2017.5 871.5 1783.5 850.5 2028.5 941.5 2017.5" fill="#fff" stroke="#fff" stroke-linejoin="round"/><polygon points="976.5 194.5 922.5 197.5 957.5 296.5 976.5 194.5" fill="#fff" stroke="#fff" stroke-linejoin="round"/><polygon points="986.5 955.5 972.5 756.5 623.5 726.5 986.5 955.5" fill="#fff" stroke="#fff" stroke-linejoin="round"/><polygon points="1001.5 92.5 869.5 70.5 922.5 197.5 1001.5 92.5" fill="#fff" stroke="#fff" stroke-linejoin="round"/><polygon points="1003.5 612.5 714.5 564.5 972.5 756.5 1003.5 612.5" fill="#fff" stroke="#fff" stroke-linejoin="round"/><polygon points="1000.5 3164.5 987.5 3115.5 911.5 3184.5 1000.5 3164.5" fill="#fff" stroke="#f7ffff" stroke-linejoin="round"/><polygon points="1001.5 92.5 968.5 34.5 869.5 70.5 1001.5 92.5" fill="#fff" stroke="#fff" stroke-linejoin="round"/><polygon points="998.5 1038.5 986.5 955.5 868.5 1123.5 998.5 1038.5" fill="#fff" stroke="#fff" stroke-linejoin="round"/><polygon points="986.5 955.5 623.5 726.5 656.5 1091.5 986.5 955.5" fill="#fff" stroke="#fff" stroke-linejoin="round"/><polygon points="992.5 1450.5 813.5 1373.5 833.5 1516.5 992.5 1450.5" fill="#fff" stroke="#fff" stroke-linejoin="round"/><polygon points="986.5 1698.5 823.5 1581.5 871.5 1783.5 986.5 1698.5" fill="#fff" stroke="#fff" stroke-linejoin="round"/><polygon points="987.5 3115.5 875.5 3091.5 911.5 3184.5 987.5 3115.5" fill="#fff" stroke="#e9ffff" stroke-linejoin="round"/><polygon points="986.5 955.5 656.5 1091.5 868.5 1123.5 986.5 955.5" fill="#fff" stroke="#fff" stroke-linejoin="round"/><polygon points="611.5 3600.5 364.5 3530.5 0.5 3600.5 611.5 3600.5" fill="#fff" stroke="#00d0fe" stroke-linejoin="round"/><polygon points="984.5 3387.5 781.5 3351.5 891.5 3517.5 984.5 3387.5" fill="#fff" stroke="#00d0fe" stroke-linejoin="round"/><polygon points="833.5 1516.5 813.5 1373.5 794.5 1464.5 833.5 1516.5" fill="#fff" stroke="#fff" stroke-linejoin="round"/><polygon points="871.5 1783.5 823.5 1581.5 767.5 1702.5 871.5 1783.5" fill="#fff" stroke="#fff" stroke-linejoin="round"/><polygon points="875.5 3091.5 457.5 2807.5 536.5 3079.5 875.5 3091.5" fill="#fff" stroke="#a8ffff" stroke-linejoin="round"/><polygon points="957.5 296.5 922.5 197.5 883.5 217.5 957.5 296.5" fill="#fff" stroke="#fff" stroke-linejoin="round"/><polygon points="922.5 197.5 869.5 70.5 883.5 195.5 922.5 197.5" fill="#fff" stroke="#fff" stroke-linejoin="round"/><polygon points="972.5 756.5 714.5 564.5 623.5 726.5 972.5 756.5" fill="#fff" stroke="#fff" stroke-linejoin="round"/><polygon points="871.5 1783.5 727.5 1844.5 850.5 2028.5 871.5 1783.5" fill="#fff" stroke="#fff" stroke-linejoin="round"/><polygon points="941.5 2017.5 850.5 2028.5 843.5 2102.5 941.5 2017.5" fill="#fff" stroke="#fff" stroke-linejoin="round"/><polygon points="944.5 3581.5 891.5 3517.5 611.5 3600.5 944.5 3581.5" fill="#fff" stroke="#00d0fe" stroke-linejoin="round"/><polygon points="952.5 3600.5 944.5 3581.5 611.5 3600.5 952.5 3600.5" fill="#fff" stroke="#00d0fe" stroke-linejoin="round"/><polygon points="957.5 296.5 883.5 217.5 729.5 433.5 957.5 296.5" fill="#fff" stroke="#fff" stroke-linejoin="round"/><polygon points="942.5 2313.5 822.5 2357.5 842.5 2394.5 942.5 2313.5" fill="#fff" stroke="#fff" stroke-linejoin="round"/><polygon points="875.5 3091.5 536.5 3079.5 703.5 3159.5 875.5 3091.5" fill="#fff" stroke="#b2ffff" stroke-linejoin="round"/><polygon points="942.5 2313.5 818.5 2238.5 822.5 2357.5 942.5 2313.5" fill="#fff" stroke="#fff" stroke-linejoin="round"/><polygon points="922.5 197.5 883.5 195.5 883.5 217.5 922.5 197.5" fill="#fff" stroke="#fff" stroke-linejoin="round"/><polygon points="911.5 3184.5 875.5 3091.5 703.5 3159.5 911.5 3184.5" fill="#fff" stroke="#cbffff" stroke-linejoin="round"/><polygon points="911.5 3184.5 703.5 3159.5 781.5 3351.5 911.5 3184.5" fill="#fff" stroke="#beffff" stroke-linejoin="round"/><polygon points="869.5 70.5 737.5 0.5 783.5 76.5 869.5 70.5" fill="#fff" stroke="#fff" stroke-linejoin="round"/><polygon points="871.5 1141.5 662.5 1113.5 813.5 1373.5 871.5 1141.5" fill="#fff" stroke="#fff" stroke-linejoin="round"/><polygon points="883.5 217.5 646.5 160.5 729.5 433.5 883.5 217.5" fill="#fff" stroke="#fff" stroke-linejoin="round"/><polygon points="883.5 195.5 869.5 70.5 783.5 76.5 883.5 195.5" fill="#fff" stroke="#fff" stroke-linejoin="round"/><polygon points="891.5 3517.5 781.5 3351.5 653.5 3480.5 891.5 3517.5" fill="#fff" stroke="#00d0fe" stroke-linejoin="round"/><polygon points="891.5 3517.5 653.5 3480.5 611.5 3600.5 891.5 3517.5" fill="#fff" stroke="#00d0fe" stroke-linejoin="round"/><polygon points="823.5 1581.5 746.5 1667.5 767.5 1702.5 823.5 1581.5" fill="#fff" stroke="#fff" stroke-linejoin="round"/><polygon points="883.5 217.5 727.5 107.5 646.5 160.5 883.5 217.5" fill="#fff" stroke="#fff" stroke-linejoin="round"/><polygon points="883.5 195.5 727.5 107.5 883.5 217.5 883.5 195.5" fill="#fff" stroke="#fff" stroke-linejoin="round"/><polygon points="883.5 195.5 783.5 76.5 727.5 107.5 883.5 195.5" fill="#fff" stroke="#fff" stroke-linejoin="round"/><polygon points="868.5 1123.5 656.5 1091.5 662.5 1113.5 868.5 1123.5" fill="#fff" stroke="#fff" stroke-linejoin="round"/><polygon points="871.5 1783.5 748.5 1764.5 727.5 1844.5 871.5 1783.5" fill="#fff" stroke="#fff" stroke-linejoin="round"/><polygon points="871.5 1783.5 767.5 1702.5 748.5 1764.5 871.5 1783.5" fill="#fff" stroke="#fff" stroke-linejoin="round"/><polygon points="871.5 1141.5 868.5 1123.5 662.5 1113.5 871.5 1141.5" fill="#fff" stroke="#fff" stroke-linejoin="round"/><polygon points="842.5 2394.5 635.5 2422.5 656.5 2535.5 842.5 2394.5" fill="#fff" stroke="#fff" stroke-linejoin="round"/><polygon points="843.5 2102.5 695.5 2147.5 818.5 2238.5 843.5 2102.5" fill="#fff" stroke="#fff" stroke-linejoin="round"/><polygon points="850.5 2028.5 727.5 1844.5 588.5 2042.5 850.5 2028.5" fill="#fff" stroke="#fff" stroke-linejoin="round"/><polygon points="850.5 2028.5 695.5 2147.5 843.5 2102.5 850.5 2028.5" fill="#fff" stroke="#fff" stroke-linejoin="round"/><polygon points="850.5 2028.5 588.5 2042.5 695.5 2147.5 850.5 2028.5" fill="#fff" stroke="#fff" stroke-linejoin="round"/><polygon points="842.5 2394.5 822.5 2357.5 635.5 2422.5 842.5 2394.5" fill="#fff" stroke="#fff" stroke-linejoin="round"/><polygon points="833.5 1516.5 753.5 1556.5 823.5 1581.5 833.5 1516.5" fill="#fff" stroke="#fff" stroke-linejoin="round"/><polygon points="813.5 1373.5 662.5 1113.5 554.5 1417.5 813.5 1373.5" fill="#fff" stroke="#fff" stroke-linejoin="round"/><polygon points="822.5 2357.5 818.5 2238.5 599.5 2382.5 822.5 2357.5" fill="#fff" stroke="#fff" stroke-linejoin="round"/><polygon points="833.5 1516.5 794.5 1464.5 753.5 1556.5 833.5 1516.5" fill="#fff" stroke="#fff" stroke-linejoin="round"/><polygon points="813.5 1373.5 740.5 1463.5 794.5 1464.5 813.5 1373.5" fill="#fff" stroke="#fff" stroke-linejoin="round"/><polygon points="818.5 2238.5 695.5 2147.5 599.5 2382.5 818.5 2238.5" fill="#fff" stroke="#fff" stroke-linejoin="round"/><polygon points="822.5 2357.5 599.5 2382.5 635.5 2422.5 822.5 2357.5" fill="#fff" stroke="#fff" stroke-linejoin="round"/><polygon points="823.5 1581.5 753.5 1556.5 746.5 1667.5 823.5 1581.5" fill="#fff" stroke="#fff" stroke-linejoin="round"/><polygon points="794.5 1464.5 740.5 1463.5 753.5 1556.5 794.5 1464.5" fill="#fff" stroke="#fff" stroke-linejoin="round"/><polygon points="813.5 1373.5 554.5 1417.5 740.5 1463.5 813.5 1373.5" fill="#fff" stroke="#fff" stroke-linejoin="round"/><polygon points="729.5 433.5 673.5 497.5 714.5 564.5 729.5 433.5" fill="#fff" stroke="#fff" stroke-linejoin="round"/><polygon points="781.5 3351.5 703.5 3159.5 532.5 3262.5 781.5 3351.5" fill="#fff" stroke="#a4ffff" stroke-linejoin="round"/><polygon points="656.5 1091.5 623.5 726.5 575.5 1099.5 656.5 1091.5" fill="#fff" stroke="#cdffff" stroke-linejoin="round"/><polygon points="781.5 3351.5 532.5 3262.5 557.5 3379.5 781.5 3351.5" fill="#fff" stroke="#98ffff" stroke-linejoin="round"/><polygon points="783.5 76.5 737.5 0.5 727.5 107.5 783.5 76.5" fill="#fff" stroke="#fff" stroke-linejoin="round"/><polygon points="623.5 726.5 457.5 1042.5 575.5 1099.5 623.5 726.5" fill="#fff" stroke="#c9ffff" stroke-linejoin="round"/><polygon points="781.5 3351.5 557.5 3379.5 653.5 3480.5 781.5 3351.5" fill="#fff" stroke="#98ffff" stroke-linejoin="round"/><polygon points="753.5 1556.5 624.5 1649.5 746.5 1667.5 753.5 1556.5" fill="#fff" stroke="#fff" stroke-linejoin="round"/><polygon points="767.5 1702.5 746.5 1667.5 748.5 1764.5 767.5 1702.5" fill="#fff" stroke="#fff" stroke-linejoin="round"/><polygon points="662.5 1113.5 575.5 1099.5 554.5 1417.5 662.5 1113.5" fill="#fff" stroke="#fff" stroke-linejoin="round"/><polygon points="727.5 1844.5 515.5 1933.5 588.5 2042.5 727.5 1844.5" fill="#fff" stroke="#fff" stroke-linejoin="round"/><polygon points="729.5 433.5 646.5 160.5 449.5 193.5 729.5 433.5" fill="#fff" stroke="#fff" stroke-linejoin="round"/><polygon points="740.5 1463.5 513.5 1561.5 624.5 1649.5 740.5 1463.5" fill="#fff" stroke="#fff" stroke-linejoin="round"/><polygon points="748.5 1764.5 746.5 1667.5 624.5 1649.5 748.5 1764.5" fill="#fff" stroke="#fff" stroke-linejoin="round"/><polygon points="753.5 1556.5 740.5 1463.5 624.5 1649.5 753.5 1556.5" fill="#fff" stroke="#fff" stroke-linejoin="round"/><polygon points="729.5 433.5 449.5 193.5 673.5 497.5 729.5 433.5" fill="#fff" stroke="#fff" stroke-linejoin="round"/><polygon points="740.5 1463.5 554.5 1417.5 513.5 1561.5 740.5 1463.5" fill="#fff" stroke="#fff" stroke-linejoin="round"/><polygon points="748.5 1764.5 624.5 1649.5 727.5 1844.5 748.5 1764.5" fill="#fff" stroke="#fff" stroke-linejoin="round"/><polygon points="536.5 3079.5 457.5 2807.5 438.5 3006.5 536.5 3079.5" fill="#fff" stroke="#96ffff" stroke-linejoin="round"/><polygon points="737.5 0.5 646.5 160.5 727.5 107.5 737.5 0.5" fill="#fff" stroke="#fff" stroke-linejoin="round"/><polygon points="737.5 0.5 483.5 0.5 646.5 160.5 737.5 0.5" fill="#fff" stroke="#fff" stroke-linejoin="round"/><polygon points="727.5 1844.5 624.5 1649.5 515.5 1933.5 727.5 1844.5" fill="#fff" stroke="#fff" stroke-linejoin="round"/><polygon points="364.5 3530.5 123.5 3540.5 0.5 3600.5 364.5 3530.5" fill="#fff" stroke="#00d0fe" stroke-linejoin="round"/><polygon points="673.5 497.5 449.5 193.5 337.5 401.5 673.5 497.5" fill="#fff" stroke="#fff" stroke-linejoin="round"/><polygon points="714.5 564.5 673.5 497.5 623.5 726.5 714.5 564.5" fill="#fff" stroke="#fff" stroke-linejoin="round"/><polygon points="695.5 2147.5 434.5 2371.5 599.5 2382.5 695.5 2147.5" fill="#fff" stroke="#fff" stroke-linejoin="round"/><polygon points="695.5 2147.5 588.5 2042.5 434.5 2371.5 695.5 2147.5" fill="#fff" stroke="#fff" stroke-linejoin="round"/><polygon points="703.5 3159.5 536.5 3079.5 532.5 3262.5 703.5 3159.5" fill="#fff" stroke="#9dffff" stroke-linejoin="round"/><polygon points="656.5 2535.5 382.5 2741.5 457.5 2807.5 656.5 2535.5" fill="#fff" stroke="#9effff" stroke-linejoin="round"/><polygon points="624.5 1649.5 380.5 1704.5 515.5 1933.5 624.5 1649.5" fill="#fff" stroke="#aff" stroke-linejoin="round"/><polygon points="656.5 2535.5 370.5 2537.5 382.5 2741.5 656.5 2535.5" fill="#fff" stroke="#9cffff" stroke-linejoin="round"/><polygon points="673.5 497.5 331.5 503.5 623.5 726.5 673.5 497.5" fill="#fff" stroke="#fff" stroke-linejoin="round"/><polygon points="673.5 497.5 337.5 401.5 331.5 503.5 673.5 497.5" fill="#fff" stroke="#fff" stroke-linejoin="round"/><polygon points="623.5 726.5 286.5 795.5 457.5 1042.5 623.5 726.5" fill="#fff" stroke="#cdffff" stroke-linejoin="round"/><polygon points="623.5 726.5 331.5 503.5 306.5 630.5 623.5 726.5" fill="#fff" stroke="#f8ffff" stroke-linejoin="round"/><polygon points="656.5 2535.5 490.5 2446.5 370.5 2537.5 656.5 2535.5" fill="#fff" stroke="#a1ffff" stroke-linejoin="round"/><polygon points="656.5 2535.5 635.5 2422.5 511.5 2425.5 656.5 2535.5" fill="#fff" stroke="#adffff" stroke-linejoin="round"/><polygon points="656.5 2535.5 511.5 2425.5 490.5 2446.5 656.5 2535.5" fill="#fff" stroke="#a7ffff" stroke-linejoin="round"/><polygon points="662.5 1113.5 656.5 1091.5 575.5 1099.5 662.5 1113.5" fill="#fff" stroke="#fff" stroke-linejoin="round"/><polygon points="624.5 1649.5 457.5 1615.5 380.5 1704.5 624.5 1649.5" fill="#fff" stroke="#a9ffff" stroke-linejoin="round"/><polygon points="646.5 160.5 483.5 0.5 449.5 193.5 646.5 160.5" fill="#fff" stroke="#d8ffff" stroke-linejoin="round"/><polygon points="653.5 3480.5 423.5 3500.5 611.5 3600.5 653.5 3480.5" fill="#fff" stroke="#00d0fe" stroke-linejoin="round"/><polygon points="653.5 3480.5 557.5 3379.5 423.5 3500.5 653.5 3480.5" fill="#fff" stroke="#00d0fe" stroke-linejoin="round"/><polygon points="575.5 1099.5 307.5 1407.5 554.5 1417.5 575.5 1099.5" fill="#fff" stroke="#afffff" stroke-linejoin="round"/><polygon points="575.5 1099.5 457.5 1042.5 307.5 1407.5 575.5 1099.5" fill="#fff" stroke="#b0ffff" stroke-linejoin="round"/><polygon points="635.5 2422.5 599.5 2382.5 511.5 2425.5 635.5 2422.5" fill="#fff" stroke="#abffff" stroke-linejoin="round"/><polygon points="515.5 1933.5 380.5 1704.5 465.5 1935.5 515.5 1933.5" fill="#fff" stroke="#a3ffff" stroke-linejoin="round"/><polygon points="624.5 1649.5 513.5 1561.5 457.5 1615.5 624.5 1649.5" fill="#fff" stroke="#aeffff" stroke-linejoin="round"/><polygon points="623.5 726.5 306.5 630.5 286.5 795.5 623.5 726.5" fill="#fff" stroke="#dff" stroke-linejoin="round"/><polygon points="588.5 2042.5 465.5 1935.5 434.5 2371.5 588.5 2042.5" fill="#fff" stroke="#a5ffff" stroke-linejoin="round"/><polygon points="599.5 2382.5 434.5 2371.5 511.5 2425.5 599.5 2382.5" fill="#fff" stroke="#a4ffff" stroke-linejoin="round"/><polygon points="611.5 3600.5 423.5 3500.5 364.5 3530.5 611.5 3600.5" fill="#fff" stroke="#00d0fe" stroke-linejoin="round"/><polygon points="536.5 3079.5 452.5 3243.5 532.5 3262.5 536.5 3079.5" fill="#fff" stroke="#91ffff" stroke-linejoin="round"/><polygon points="465.5 1935.5 113.5 2165.5 434.5 2371.5 465.5 1935.5" fill="#fff" stroke="#95ffff" stroke-linejoin="round"/><polygon points="588.5 2042.5 515.5 1933.5 465.5 1935.5 588.5 2042.5" fill="#fff" stroke="#a9ffff" stroke-linejoin="round"/><polygon points="457.5 1042.5 214.5 1334.5 307.5 1407.5 457.5 1042.5" fill="#fff" stroke="#a3ffff" stroke-linejoin="round"/><polygon points="457.5 1042.5 261.5 1049.5 214.5 1334.5 457.5 1042.5" fill="#fff" stroke="#a6ffff" stroke-linejoin="round"/><polygon points="483.5 0.5 379.5 149.5 449.5 193.5 483.5 0.5" fill="#fff" stroke="#caffff" stroke-linejoin="round"/><polygon points="536.5 3079.5 374.5 3127.5 452.5 3243.5 536.5 3079.5" fill="#fff" stroke="#8dffff" stroke-linejoin="round"/><polygon points="554.5 1417.5 307.5 1407.5 513.5 1561.5 554.5 1417.5" fill="#fff" stroke="#a9ffff" stroke-linejoin="round"/><polygon points="557.5 3379.5 532.5 3262.5 452.5 3243.5 557.5 3379.5" fill="#fff" stroke="#8dffff" stroke-linejoin="round"/><polygon points="557.5 3379.5 452.5 3243.5 423.5 3500.5 557.5 3379.5" fill="#fff" stroke="#00d0fe" stroke-linejoin="round"/><polygon points="536.5 3079.5 438.5 3006.5 374.5 3127.5 536.5 3079.5" fill="#fff" stroke="#90ffff" stroke-linejoin="round"/><polygon points="513.5 1561.5 307.5 1407.5 457.5 1615.5 513.5 1561.5" fill="#fff" stroke="#a5ffff" stroke-linejoin="round"/><polygon points="511.5 2425.5 434.5 2371.5 490.5 2446.5 511.5 2425.5" fill="#fff" stroke="#9fffff" stroke-linejoin="round"/><polygon points="452.5 3243.5 210.5 3382.5 423.5 3500.5 452.5 3243.5" fill="#fff" stroke="#00d0fe" stroke-linejoin="round"/><polygon points="457.5 2807.5 338.5 2813.5 438.5 3006.5 457.5 2807.5" fill="#fff" stroke="#91ffff" stroke-linejoin="round"/><polygon points="434.5 2371.5 113.5 2165.5 125.5 2306.5 434.5 2371.5" fill="#fff" stroke="#8affff" stroke-linejoin="round"/><polygon points="457.5 1042.5 286.5 795.5 261.5 1049.5 457.5 1042.5" fill="#fff" stroke="#b3ffff" stroke-linejoin="round"/><polygon points="457.5 1615.5 307.5 1407.5 376.5 1648.5 457.5 1615.5" fill="#fff" stroke="#a1ffff" stroke-linejoin="round"/><polygon points="457.5 1615.5 376.5 1648.5 380.5 1704.5 457.5 1615.5" fill="#fff" stroke="#a1ffff" stroke-linejoin="round"/><polygon points="465.5 1935.5 380.5 1704.5 263.5 1740.5 465.5 1935.5" fill="#fff" stroke="#9cffff" stroke-linejoin="round"/><polygon points="465.5 1935.5 200.5 1852.5 113.5 2165.5 465.5 1935.5" fill="#fff" stroke="#91ffff" stroke-linejoin="round"/><polygon points="490.5 2446.5 434.5 2371.5 370.5 2537.5 490.5 2446.5" fill="#fff" stroke="#9affff" stroke-linejoin="round"/><polygon points="465.5 1935.5 263.5 1740.5 200.5 1852.5 465.5 1935.5" fill="#fff" stroke="#97ffff" stroke-linejoin="round"/><polygon points="483.5 0.5 135.5 0.5 379.5 149.5 483.5 0.5" fill="#fff" stroke="#afffff" stroke-linejoin="round"/><polygon points="423.5 3500.5 210.5 3382.5 364.5 3530.5 423.5 3500.5" fill="#fff" stroke="#00d0fe" stroke-linejoin="round"/><polygon points="449.5 193.5 379.5 149.5 337.5 401.5 449.5 193.5" fill="#fff" stroke="#e3ffff" stroke-linejoin="round"/><polygon points="457.5 2807.5 382.5 2784.5 338.5 2813.5 457.5 2807.5" fill="#fff" stroke="#91ffff" stroke-linejoin="round"/><polygon points="457.5 2807.5 382.5 2741.5 382.5 2784.5 457.5 2807.5" fill="#fff" stroke="#93ffff" stroke-linejoin="round"/><polygon points="438.5 3006.5 338.5 2813.5 216.5 2869.5 438.5 3006.5" fill="#fff" stroke="#89ffff" stroke-linejoin="round"/><polygon points="452.5 3243.5 374.5 3127.5 210.5 3382.5 452.5 3243.5" fill="#fff" stroke="#00d0fe" stroke-linejoin="round"/><polygon points="382.5 2741.5 370.5 2537.5 235.5 2659.5 382.5 2741.5" fill="#fff" stroke="#8effff" stroke-linejoin="round"/><polygon points="364.5 3530.5 210.5 3382.5 213.5 3459.5 364.5 3530.5" fill="#fff" stroke="#00d0fe" stroke-linejoin="round"/><polygon points="376.5 1648.5 307.5 1407.5 191.5 1572.5 376.5 1648.5" fill="#fff" stroke="#9ff" stroke-linejoin="round"/><polygon points="438.5 3006.5 216.5 2869.5 193.5 3016.5 438.5 3006.5" fill="#fff" stroke="#83ffff" stroke-linejoin="round"/><polygon points="438.5 3006.5 193.5 3016.5 374.5 3127.5 438.5 3006.5" fill="#fff" stroke="#00d0fe" stroke-linejoin="round"/><polygon points="376.5 1648.5 229.5 1635.5 331.5 1665.5 376.5 1648.5" fill="#fff" stroke="#9ff" stroke-linejoin="round"/><polygon points="376.5 1648.5 191.5 1572.5 229.5 1635.5 376.5 1648.5" fill="#fff" stroke="#96ffff" stroke-linejoin="round"/><polygon points="434.5 2371.5 125.5 2306.5 370.5 2537.5 434.5 2371.5" fill="#fff" stroke="#90ffff" stroke-linejoin="round"/><polygon points="379.5 149.5 181.5 148.5 337.5 401.5 379.5 149.5" fill="#fff" stroke="#c7ffff" stroke-linejoin="round"/><polygon points="379.5 149.5 135.5 0.5 181.5 148.5 379.5 149.5" fill="#fff" stroke="#a7ffff" stroke-linejoin="round"/><polygon points="200.5 1852.5 70.5 1948.5 113.5 2165.5 200.5 1852.5" fill="#fff" stroke="#87ffff" stroke-linejoin="round"/><polygon points="261.5 1049.5 151.5 1297.5 214.5 1334.5 261.5 1049.5" fill="#fff" stroke="#9affff" stroke-linejoin="round"/><polygon points="306.5 630.5 254.5 779.5 286.5 795.5 306.5 630.5" fill="#fff" stroke="#c2ffff" stroke-linejoin="round"/><polygon points="337.5 401.5 302.5 452.5 331.5 503.5 337.5 401.5" fill="#fff" stroke="#e8ffff" stroke-linejoin="round"/><polygon points="370.5 2537.5 125.5 2306.5 140.5 2550.5 370.5 2537.5" fill="#fff" stroke="#87ffff" stroke-linejoin="round"/><polygon points="374.5 3127.5 152.5 3119.5 210.5 3382.5 374.5 3127.5" fill="#fff" stroke="#00d0fe" stroke-linejoin="round"/><polygon points="380.5 1704.5 376.5 1648.5 331.5 1665.5 380.5 1704.5" fill="#fff" stroke="#9dffff" stroke-linejoin="round"/><polygon points="380.5 1704.5 331.5 1665.5 263.5 1740.5 380.5 1704.5" fill="#fff" stroke="#9affff" stroke-linejoin="round"/><polygon points="382.5 2741.5 338.5 2813.5 382.5 2784.5 382.5 2741.5" fill="#fff" stroke="#8fffff" stroke-linejoin="round"/><polygon points="382.5 2741.5 235.5 2659.5 338.5 2813.5 382.5 2741.5" fill="#fff" stroke="#8bffff" stroke-linejoin="round"/><polygon points="364.5 3530.5 213.5 3459.5 123.5 3540.5 364.5 3530.5" fill="#fff" stroke="#00d0fe" stroke-linejoin="round"/><polygon points="374.5 3127.5 193.5 3016.5 152.5 3119.5 374.5 3127.5" fill="#fff" stroke="#00d0fe" stroke-linejoin="round"/><polygon points="370.5 2537.5 140.5 2550.5 235.5 2659.5 370.5 2537.5" fill="#fff" stroke="#8ff" stroke-linejoin="round"/><polygon points="210.5 3382.5 152.5 3119.5 72.5 3227.5 210.5 3382.5" fill="#fff" stroke="#00d0fe" stroke-linejoin="round"/><polygon points="210.5 3382.5 72.5 3227.5 134.5 3362.5 210.5 3382.5" fill="#fff" stroke="#00d0fe" stroke-linejoin="round"/><polygon points="286.5 795.5 218.5 774.5 261.5 1049.5 286.5 795.5" fill="#fff" stroke="#b1ffff" stroke-linejoin="round"/><polygon points="302.5 452.5 181.5 148.5 3.5 443.5 302.5 452.5" fill="#fff" stroke="#00d0fe" stroke-linejoin="round"/><polygon points="307.5 1407.5 190.5 1426.5 191.5 1572.5 307.5 1407.5" fill="#fff" stroke="#96ffff" stroke-linejoin="round"/><polygon points="337.5 401.5 181.5 148.5 302.5 452.5 337.5 401.5" fill="#fff" stroke="#ceffff" stroke-linejoin="round"/><polygon points="338.5 2813.5 235.5 2659.5 216.5 2869.5 338.5 2813.5" fill="#fff" stroke="#86ffff" stroke-linejoin="round"/><polygon points="306.5 630.5 218.5 774.5 254.5 779.5 306.5 630.5" fill="#fff" stroke="#beffff" stroke-linejoin="round"/><polygon points="331.5 1665.5 229.5 1635.5 263.5 1740.5 331.5 1665.5" fill="#fff" stroke="#96ffff" stroke-linejoin="round"/><polygon points="331.5 503.5 82.5 601.5 306.5 630.5 331.5 503.5" fill="#fff" stroke="#c7ffff" stroke-linejoin="round"/><polygon points="331.5 503.5 302.5 452.5 82.5 601.5 331.5 503.5" fill="#fff" stroke="#c9ffff" stroke-linejoin="round"/><polygon points="261.5 1049.5 218.5 774.5 58.5 808.5 261.5 1049.5" fill="#fff" stroke="#00d0fe" stroke-linejoin="round"/><polygon points="261.5 1049.5 58.5 808.5 0.5 960.5 261.5 1049.5" fill="#fff" stroke="#00d0fe" stroke-linejoin="round"/><polygon points="286.5 795.5 254.5 779.5 218.5 774.5 286.5 795.5" fill="#fff" stroke="#b8ffff" stroke-linejoin="round"/><polygon points="306.5 630.5 150.5 740.5 218.5 774.5 306.5 630.5" fill="#fff" stroke="#b9ffff" stroke-linejoin="round"/><polygon points="307.5 1407.5 214.5 1334.5 190.5 1426.5 307.5 1407.5" fill="#fff" stroke="#98ffff" stroke-linejoin="round"/><polygon points="306.5 630.5 82.5 601.5 150.5 740.5 306.5 630.5" fill="#fff" stroke="#b5ffff" stroke-linejoin="round"/><polygon points="302.5 452.5 3.5 443.5 82.5 601.5 302.5 452.5" fill="#fff" stroke="#00d0fe" stroke-linejoin="round"/><polygon points="261.5 1049.5 0.5 1108.5 151.5 1297.5 261.5 1049.5" fill="#fff" stroke="#00d0fe" stroke-linejoin="round"/><polygon points="58.5 808.5 31.5 832.5 0.5 960.5 58.5 808.5" fill="#fff" stroke="#00d0fe" stroke-linejoin="round"/><polygon points="235.5 2659.5 29.5 2730.5 216.5 2869.5 235.5 2659.5" fill="#fff" stroke="#00d0fe" stroke-linejoin="round"/><polygon points="263.5 1740.5 229.5 1635.5 0.5 1800.5 263.5 1740.5" fill="#fff" stroke="#00d0fe" stroke-linejoin="round"/><polygon points="263.5 1740.5 0.5 1800.5 200.5 1852.5 263.5 1740.5" fill="#fff" stroke="#00d0fe" stroke-linejoin="round"/><polygon points="261.5 1049.5 0.5 960.5 0.5 1108.5 261.5 1049.5" fill="#fff" stroke="#00d0fe" stroke-linejoin="round"/><polygon points="134.5 3362.5 72.5 3227.5 63.5 3267.5 134.5 3362.5" fill="#fff" stroke="#00d0fe" stroke-linejoin="round"/><polygon points="191.5 1572.5 190.5 1426.5 112.5 1509.5 191.5 1572.5" fill="#fff" stroke="#90ffff" stroke-linejoin="round"/><polygon points="140.5 2550.5 125.5 2306.5 43.5 2515.5 140.5 2550.5" fill="#fff" stroke="#00d0fe" stroke-linejoin="round"/><polygon points="150.5 740.5 82.5 601.5 69.5 625.5 150.5 740.5" fill="#fff" stroke="#a7ffff" stroke-linejoin="round"/><polygon points="218.5 774.5 150.5 740.5 58.5 808.5 218.5 774.5" fill="#fff" stroke="#00d0fe" stroke-linejoin="round"/><polygon points="235.5 2659.5 140.5 2550.5 44.5 2597.5 235.5 2659.5" fill="#fff" stroke="#00d0fe" stroke-linejoin="round"/><polygon points="235.5 2659.5 44.5 2597.5 29.5 2730.5 235.5 2659.5" fill="#fff" stroke="#00d0fe" stroke-linejoin="round"/><polygon points="125.5 2306.5 0.5 2402.5 43.5 2515.5 125.5 2306.5" fill="#fff" stroke="#00d0fe" stroke-linejoin="round"/><polygon points="213.5 3459.5 210.5 3382.5 140.5 3437.5 213.5 3459.5" fill="#fff" stroke="#00d0fe" stroke-linejoin="round"/><polygon points="229.5 1635.5 191.5 1572.5 0.5 1800.5 229.5 1635.5" fill="#fff" stroke="#00d0fe" stroke-linejoin="round"/><polygon points="213.5 3459.5 140.5 3437.5 123.5 3540.5 213.5 3459.5" fill="#fff" stroke="#00d0fe" stroke-linejoin="round"/><polygon points="214.5 1334.5 151.5 1297.5 190.5 1426.5 214.5 1334.5" fill="#fff" stroke="#95ffff" stroke-linejoin="round"/><polygon points="216.5 2869.5 0.5 3055.5 193.5 3016.5 216.5 2869.5" fill="#fff" stroke="#00d0fe" stroke-linejoin="round"/><polygon points="216.5 2869.5 29.5 2730.5 0.5 3055.5 216.5 2869.5" fill="#fff" stroke="#00d0fe" stroke-linejoin="round"/><polygon points="191.5 1572.5 112.5 1509.5 0.5 1800.5 191.5 1572.5" fill="#fff" stroke="#00d0fe" stroke-linejoin="round"/><polygon points="210.5 3382.5 134.5 3362.5 140.5 3437.5 210.5 3382.5" fill="#fff" stroke="#00d0fe" stroke-linejoin="round"/><polygon points="29.5 2730.5 0.5 2735.5 0.5 3055.5 29.5 2730.5" fill="#fff" stroke="#00d0fe" stroke-linejoin="round"/><polygon points="140.5 3437.5 95.5 3474.5 123.5 3540.5 140.5 3437.5" fill="#fff" stroke="#00d0fe" stroke-linejoin="round"/><polygon points="200.5 1852.5 0.5 1849.5 70.5 1948.5 200.5 1852.5" fill="#fff" stroke="#00d0fe" stroke-linejoin="round"/><polygon points="200.5 1852.5 0.5 1800.5 0.5 1849.5 200.5 1852.5" fill="#fff" stroke="#00d0fe" stroke-linejoin="round"/><polygon points="181.5 148.5 0.5 0.5 3.5 443.5 181.5 148.5" fill="#fff" stroke="#00d0fe" stroke-linejoin="round"/><polygon points="181.5 148.5 135.5 0.5 63.5 0.5 181.5 148.5" fill="#fff" stroke="#95ffff" stroke-linejoin="round"/><polygon points="190.5 1426.5 151.5 1297.5 112.5 1509.5 190.5 1426.5" fill="#fff" stroke="#91ffff" stroke-linejoin="round"/><polygon points="193.5 3016.5 0.5 3055.5 152.5 3119.5 193.5 3016.5" fill="#fff" stroke="#00d0fe" stroke-linejoin="round"/><polygon points="150.5 740.5 69.5 625.5 52.5 696.5 150.5 740.5" fill="#fff" stroke="#00d0fe" stroke-linejoin="round"/><polygon points="181.5 148.5 63.5 0.5 0.5 0.5 181.5 148.5" fill="#fff" stroke="#00d0fe" stroke-linejoin="round"/><polygon points="150.5 740.5 43.5 789.5 58.5 808.5 150.5 740.5" fill="#fff" stroke="#00d0fe" stroke-linejoin="round"/><polygon points="151.5 1297.5 0.5 1108.5 112.5 1509.5 151.5 1297.5" fill="#fff" stroke="#00d0fe" stroke-linejoin="round"/><polygon points="152.5 3119.5 0.5 3055.5 72.5 3227.5 152.5 3119.5" fill="#fff" stroke="#00d0fe" stroke-linejoin="round"/><polygon points="150.5 740.5 52.5 696.5 43.5 789.5 150.5 740.5" fill="#fff" stroke="#00d0fe" stroke-linejoin="round"/><polygon points="140.5 3437.5 134.5 3362.5 55.5 3467.5 140.5 3437.5" fill="#fff" stroke="#00d0fe" stroke-linejoin="round"/><polygon points="140.5 3437.5 55.5 3467.5 95.5 3474.5 140.5 3437.5" fill="#fff" stroke="#00d0fe" stroke-linejoin="round"/><polygon points="140.5 2550.5 43.5 2515.5 44.5 2597.5 140.5 2550.5" fill="#fff" stroke="#00d0fe" stroke-linejoin="round"/><polygon points="125.5 2306.5 113.5 2165.5 0.5 2402.5 125.5 2306.5" fill="#fff" stroke="#00d0fe" stroke-linejoin="round"/><polygon points="134.5 3362.5 0.5 3438.5 55.5 3467.5 134.5 3362.5" fill="#fff" stroke="#00d0fe" stroke-linejoin="round"/><polygon points="134.5 3362.5 63.5 3267.5 0.5 3438.5 134.5 3362.5" fill="#fff" stroke="#00d0fe" stroke-linejoin="round"/><polygon points="123.5 3540.5 95.5 3474.5 55.5 3467.5 123.5 3540.5" fill="#fff" stroke="#00d0fe" stroke-linejoin="round"/><polygon points="123.5 3540.5 55.5 3467.5 0.5 3600.5 123.5 3540.5" fill="#fff" stroke="#00d0fe" stroke-linejoin="round"/><polygon points="112.5 1509.5 0.5 1108.5 0.5 1800.5 112.5 1509.5" fill="#fff" stroke="#00d0fe" stroke-linejoin="round"/><polygon points="113.5 2165.5 70.5 1948.5 0.5 2402.5 113.5 2165.5" fill="#fff" stroke="#00d0fe" stroke-linejoin="round"/><polygon points="70.5 1948.5 0.5 1849.5 0.5 2402.5 70.5 1948.5" fill="#fff" stroke="#00d0fe" stroke-linejoin="round"/><polygon points="82.5 601.5 3.5 443.5 47.5 625.5 82.5 601.5" fill="#fff" stroke="#00d0fe" stroke-linejoin="round"/><polygon points="69.5 625.5 47.5 625.5 52.5 696.5 69.5 625.5" fill="#fff" stroke="#00d0fe" stroke-linejoin="round"/><polygon points="82.5 601.5 47.5 625.5 69.5 625.5 82.5 601.5" fill="#fff" stroke="#00d0fe" stroke-linejoin="round"/><polygon points="44.5 2597.5 0.5 2735.5 29.5 2730.5 44.5 2597.5" fill="#fff" stroke="#00d0fe" stroke-linejoin="round"/><polygon points="55.5 3467.5 0.5 3438.5 0.5 3600.5 55.5 3467.5" fill="#fff" stroke="#00d0fe" stroke-linejoin="round"/><polygon points="72.5 3227.5 0.5 3055.5 63.5 3267.5 72.5 3227.5" fill="#fff" stroke="#00d0fe" stroke-linejoin="round"/><polygon points="63.5 3267.5 0.5 3055.5 0.5 3438.5 63.5 3267.5" fill="#fff" stroke="#00d0fe" stroke-linejoin="round"/><polygon points="58.5 808.5 43.5 789.5 18.5 818.5 58.5 808.5" fill="#fff" stroke="#00d0fe" stroke-linejoin="round"/><polygon points="58.5 808.5 18.5 818.5 31.5 832.5 58.5 808.5" fill="#fff" stroke="#00d0fe" stroke-linejoin="round"/><polygon points="52.5 696.5 18.5 818.5 43.5 789.5 52.5 696.5" fill="#fff" stroke="#00d0fe" stroke-linejoin="round"/><polygon points="52.5 696.5 47.5 625.5 18.5 818.5 52.5 696.5" fill="#fff" stroke="#00d0fe" stroke-linejoin="round"/><polygon points="31.5 832.5 18.5 818.5 0.5 960.5 31.5 832.5" fill="#fff" stroke="#00d0fe" stroke-linejoin="round"/><polygon points="47.5 625.5 3.5 443.5 18.5 818.5 47.5 625.5" fill="#fff" stroke="#00d0fe" stroke-linejoin="round"/><polygon points="44.5 2597.5 43.5 2515.5 0.5 2402.5 44.5 2597.5" fill="#fff" stroke="#00d0fe" stroke-linejoin="round"/><polygon points="44.5 2597.5 0.5 2402.5 0.5 2735.5 44.5 2597.5" fill="#fff" stroke="#00d0fe" stroke-linejoin="round"/><polygon points="18.5 818.5 3.5 443.5 0.5 960.5 18.5 818.5" fill="#fff" stroke="#00d0fe" stroke-linejoin="round"/></svg>