<?xml version="1.0" encoding="utf-8"?>
<!-- Generator: Adobe Illustrator 24.0.1, SVG Export Plug-In . SVG Version: 6.00 Build 0)  -->
<svg version="1.1" id="Layer_1" xmlns="http://www.w3.org/2000/svg" xmlns:xlink="http://www.w3.org/1999/xlink" x="0px" y="0px"
	 viewBox="0 0 428 382" style="enable-background:new 0 0 428 382;" xml:space="preserve">
<style type="text/css">
	.cuStyle {
		fill:#7C39BF;
		stroke:#7C39BF;
		stroke-width:7;
		stroke-miterlimit:10;
		<!-- stroke-linecap:round; -->

		stroke-dasharray:1010;
		stroke-dashoffset:1010;
		animation: draw 7s ease-in-out;
		animation-fill-mode: forwards;
	}

	@keyframes draw {
		0% {
			fill: transparent;
			stroke-dashoffset:1010;
		}
		20% {
			fill: transparent;
			stroke-dashoffset:1010;
		}
		95% {
			fill: transparent;
			stroke-dashoffset:0;
		}
		100% {
			fill:#7C39BF;
			stroke-dashoffset:0;
		}
	}	
</style>
<path class="cuStyle" d="M109.9,294.8c-15,0-29.1-3.8-41.8-11.3c-12.7-7.4-22.9-17.5-30.4-30.1c-7.5-12.8-11.3-26.9-11.3-41.9v-41
	c0-15,3.7-28.9,11-41.5c7.4-12.7,17.5-23,30.1-30.4c12.8-7.5,26.9-11.3,41.9-11.3c14.8,0,28.6,3.3,40.9,9.7
	c12.5,6.3,22.7,15.2,30.2,26.7c7.6,11.3,11.4,24.2,11.4,38.3v13H157l-0.2-12.8c-0.1-7.4-2.1-13.9-6.1-20
	c-4.1-6.1-9.6-10.8-16.6-14.2c-7.1-3.6-15.4-5.4-24.7-5.4c-8.8,0-16.6,2.1-23.9,6.4c-7.5,4.5-13.3,10.2-17.6,17.6
	c-4.3,7.2-6.4,15.3-6.4,23.9v41c0,8.6,2.1,16.4,6.4,23.8c4.7,7.5,10.5,13.3,17.9,17.7c7.6,4.4,15.5,6.5,24.2,6.5
	c9.4,0,17.6-1.8,25-5.4c7.1-3.4,12.4-8.1,16.4-14.2c4-6,5.9-12.5,6-19.9l0.2-12.8h34.8v13c0,14-3.8,26.9-11.3,38.5
	c-7.3,11.2-17.4,20.2-30,26.7C138.7,291.6,124.9,294.8,109.9,294.8z M318.2,294.7c-15,0-29.1-3.8-41.8-11.3
	c-12.5-7.4-22.6-17.5-30.1-30.1c-7.5-12.8-11.3-26.9-11.3-41.9V91h35.5v120.5c0,8.8,2.1,16.6,6.4,23.9c4.5,7.5,10.2,13.3,17.6,17.6
	c7.2,4.3,15.3,6.4,23.9,6.4c8.8,0,16.6-2.1,23.9-6.4c7.5-4.5,13.3-10.2,17.6-17.6c4.3-7.2,6.4-15.3,6.4-23.9V91h35.2v120.5
	c0,15-3.8,29.1-11.3,41.8c-7.6,12.7-17.8,22.8-30.4,30.1C347.2,290.9,333.2,294.7,318.2,294.7z"/>
</svg>
