<svg id="fd452f05-0397-46a8-a4db-92b426635970" data-name="Layer 1" xmlns="http://www.w3.org/2000/svg" viewBox="0 0 441.4 155.5"><title>dateStamp-dark</title><path d="M10.4,142.4v-7.2a11.89,11.89,0,0,0,7.9-3.3c2.1-2,3.1-5.2,3.1-9.5V81.6H29v41a23.66,23.66,0,0,1-1.4,8.3,16.82,16.82,0,0,1-3.9,6.1,17.29,17.29,0,0,1-6,3.9A20.6,20.6,0,0,1,10.4,142.4Zm25.4-24.6a15.31,15.31,0,0,1,1.2-6,15.12,15.12,0,0,1,3.3-4.9,16.14,16.14,0,0,1,4.8-3.4,14.91,14.91,0,0,1,5.9-1.3,11.22,11.22,0,0,1,3.8.6,8.26,8.26,0,0,1,3,1.3,8.27,8.27,0,0,1,2,1.6,3.9,3.9,0,0,1,1,1.5l.3-4.1h5.7V132h-6v-3.7a5.83,5.83,0,0,1-1.1,1.3,11.55,11.55,0,0,1-2,1.5,14.86,14.86,0,0,1-2.8,1.1,14.57,14.57,0,0,1-3.8.5,15.93,15.93,0,0,1-6.2-1.2,13.71,13.71,0,0,1-4.8-3.3,17.51,17.51,0,0,1-3.2-4.8A13.65,13.65,0,0,1,35.8,117.8Zm5.9-.4a9.86,9.86,0,0,0,.7,3.8,9.19,9.19,0,0,0,5,5,9.52,9.52,0,0,0,3.8.7,9.2,9.2,0,0,0,3.8-.7,11,11,0,0,0,3.1-2,8.32,8.32,0,0,0,2-3,9.52,9.52,0,0,0,.7-3.8,9,9,0,0,0-.7-3.7,7.91,7.91,0,0,0-2-3,8.11,8.11,0,0,0-3.1-1.9,9.57,9.57,0,0,0-3.8-.8,9.21,9.21,0,0,0-3.8.8,9.07,9.07,0,0,0-3,1.9,9.27,9.27,0,0,0-2,3A11.06,11.06,0,0,0,41.7,117.4Zm33.5-14.5h5.2c.1,1.4.2,2.8.2,4s.2,2.3.3,3.5a15.34,15.34,0,0,1,4.5-6,11.72,11.72,0,0,1,7.3-2.2,9.92,9.92,0,0,1,7,2.4,8.45,8.45,0,0,1,2.8,6.3V132h-6V113.6a6.41,6.41,0,0,0-1.5-3.8c-.9-1.1-2.4-1.6-4.4-1.7a9.21,9.21,0,0,0-3.8.8,9.07,9.07,0,0,0-3,1.9,9.27,9.27,0,0,0-2,3,9.52,9.52,0,0,0-.7,3.8V132H75.2Zm62.4,29.7h-5l-.7-8.1a15.39,15.39,0,0,1-4.5,5.8,11.38,11.38,0,0,1-7.3,2.3,10.17,10.17,0,0,1-7.1-2.4,8.74,8.74,0,0,1-2.7-6.3V102.8h5.9v18.4a6.13,6.13,0,0,0,1.5,3.7,6.55,6.55,0,0,0,4.4,1.7,9.27,9.27,0,0,0,6.8-2.7,7.71,7.71,0,0,0,1.9-3,9.52,9.52,0,0,0,.7-3.8V102.8h6v29.8Zm6.3-14.8a15.31,15.31,0,0,1,1.2-6,15.12,15.12,0,0,1,3.3-4.9,16.14,16.14,0,0,1,4.8-3.4,14.91,14.91,0,0,1,5.9-1.3,11.22,11.22,0,0,1,3.8.6,11,11,0,0,1,5,2.9,3.9,3.9,0,0,1,1,1.5l.3-4.1h5.7V132h-6v-3.7a5.83,5.83,0,0,1-1.1,1.3,11.55,11.55,0,0,1-2,1.5,14.86,14.86,0,0,1-2.8,1.1,14.57,14.57,0,0,1-3.8.5,15.93,15.93,0,0,1-6.2-1.2,13.71,13.71,0,0,1-4.8-3.3,17.51,17.51,0,0,1-3.2-4.8A15.51,15.51,0,0,1,143.9,117.8Zm6-.4a9.86,9.86,0,0,0,.7,3.8,9.19,9.19,0,0,0,5,5,9.52,9.52,0,0,0,3.8.7,9.2,9.2,0,0,0,3.8-.7,11,11,0,0,0,3.1-2,8.32,8.32,0,0,0,2-3,9.52,9.52,0,0,0,.7-3.8,9,9,0,0,0-.7-3.7,7.91,7.91,0,0,0-2-3,8.11,8.11,0,0,0-3.1-1.9,9.57,9.57,0,0,0-3.8-.8,9.21,9.21,0,0,0-3.8.8,9.07,9.07,0,0,0-3,1.9,9.27,9.27,0,0,0-2,3A9,9,0,0,0,149.9,117.4Zm49.4-7.6a12.56,12.56,0,0,0-3.8.6,9.88,9.88,0,0,0-3.3,1.5,7.84,7.84,0,0,0-2.2,2.6,6.71,6.71,0,0,0-.8,3.5v14h-5.9V102.9h5.2c.1,1.4.2,2.8.2,4s.2,2.3.3,3.5a11.65,11.65,0,0,1,2.4-3.4,18.6,18.6,0,0,1,3.1-2.6,16.65,16.65,0,0,1,3.3-1.6,8.35,8.35,0,0,1,2.9-.6ZM212.9,146h-6c.6-1.3,1.3-2.6,1.8-3.9s1.2-2.5,1.7-3.8,1.2-2.6,1.8-4,1.3-2.8,2-4.4c-1.1-2.1-2.2-4.3-3.3-6.5s-2.2-4.6-3.3-7-2.2-4.6-3.3-7-2.1-4.5-3.2-6.6h6.5c1.7,3.3,3,6.1,4.1,8.3s2,4.2,2.7,5.9,1.3,3,1.7,4.2a33.18,33.18,0,0,1,1.2,3.2c.4-1,.8-2,1.2-3.2s1-2.5,1.7-4.2,1.6-3.6,2.7-5.9,2.5-5.1,4.2-8.3h6.5Zm40.4-53.6V86.2h10.9V132h-6.5V92.4Zm21.1,0V86.2h10.9V132h-6.5V92.4ZM296,120v-6.2h13V120Zm20.1-27.6V86.2H327V132h-6.5V92.4Zm36.7,33.4h16.3V132H337.5c2.9-2.9,5.7-5.7,8.3-8.5s5.1-5.4,7.2-7.9a45.94,45.94,0,0,0,5-7.4,14.48,14.48,0,0,0,1.9-7,10.84,10.84,0,0,0-.8-4.2,9.44,9.44,0,0,0-2.1-2.9,6.87,6.87,0,0,0-2.6-1.7,7.37,7.37,0,0,0-2.7-.6,8.71,8.71,0,0,0-4.2.9,8,8,0,0,0-2.6,2.2,9.39,9.39,0,0,0-1.4,2.6,11.21,11.21,0,0,0-.3,2.4,10.37,10.37,0,0,0,.7,4.1,11,11,0,0,0,2,3.1l-3.8,4a9,9,0,0,1-2.3-2.1,27.55,27.55,0,0,1-1.7-2.9,13.13,13.13,0,0,1-1-3.2,16.9,16.9,0,0,1-.3-3,14.36,14.36,0,0,1,1-5.4,12.77,12.77,0,0,1,2.9-4.7,15.64,15.64,0,0,1,4.7-3.2,16.23,16.23,0,0,1,6.4-1.2,14.61,14.61,0,0,1,6,1.2,13.86,13.86,0,0,1,4.6,3.3,13.52,13.52,0,0,1,3,4.7,15.1,15.1,0,0,1,1.1,5.6,21.87,21.87,0,0,1-1.1,6.7,31.29,31.29,0,0,1-3.1,6.4,59.09,59.09,0,0,1-4.4,6.2C356.3,121.7,354.6,123.7,352.8,125.8Z" transform="translate(-10.4 -36.4)" fill="#9756d8"/><path d="M376.9,83.5l65-30.1,9.9-17Z" transform="translate(-10.4 -36.4)" fill="#fff"/><path d="M441.5,52.9l8.6-14.7L385.4,78.9Z" transform="translate(-10.4 -36.4)" fill="none" stroke="#00d0fe" stroke-width="1.22"/><path d="M379,83.9l46.6-12,13-14.9Z" transform="translate(-10.4 -36.4)" fill="#280749"/><path d="M422.6,40.5,374.4,83.6l39.9-25.1Z" transform="translate(-10.4 -36.4)" fill="#10021f"/><path d="M395.7,62.6l-10.6,2.6L374.3,82.3Z" transform="translate(-10.4 -36.4)" fill="#10021f"/><path d="M378,78.3l7.6-7.6-.3-4Z" transform="translate(-10.4 -36.4)" fill="#fff"/><path d="M64.6,186.1a11.62,11.62,0,0,1-5.6-1.4,10.25,10.25,0,0,1-5.3-9.3,11.24,11.24,0,0,1,1.4-5.5,10.91,10.91,0,0,1,3.9-3.8,11.69,11.69,0,0,1,9.8-.6,8.34,8.34,0,0,1,3.3,2.2l-1,1a8.66,8.66,0,0,0-6.5-2.5,9.5,9.5,0,0,0-4.8,1.2,9,9,0,0,0-3.4,3.3,9.39,9.39,0,0,0-1.2,4.7,10.05,10.05,0,0,0,1.2,4.8,9,9,0,0,0,3.4,3.3,9.5,9.5,0,0,0,4.8,1.2,8.82,8.82,0,0,0,6.5-2.5l1,1a8.34,8.34,0,0,1-3.3,2.2A11.58,11.58,0,0,1,64.6,186.1Zm17.1-15.9a6.44,6.44,0,0,1,4.5,1.5,5.89,5.89,0,0,1,1.6,4.4v10H86.4v-2.8a5.8,5.8,0,0,1-2.2,2.2,7.54,7.54,0,0,1-3.5.8,7,7,0,0,1-4.2-1.2,3.93,3.93,0,0,1-1.5-3.2,4.16,4.16,0,0,1,1.4-3.2q1.35-1.2,4.5-1.2h5.4V176a4.16,4.16,0,0,0-1.2-3.3,4.61,4.61,0,0,0-3.5-1.1,10.47,10.47,0,0,0-3,.5,9.46,9.46,0,0,0-2.4,1.4l-.8-1.1a8.54,8.54,0,0,1,2.8-1.6A10.73,10.73,0,0,1,81.7,170.2Zm-.8,14.7a5.82,5.82,0,0,0,3.3-.9,6.07,6.07,0,0,0,2.1-2.6v-2.9H80.9a6.08,6.08,0,0,0-3.4.8,2.76,2.76,0,0,0-1,2.3,3,3,0,0,0,1.1,2.4A5.39,5.39,0,0,0,80.9,184.9Zm14.5-11.2a5.29,5.29,0,0,1,2.3-2.6,7.24,7.24,0,0,1,3.7-.9v1.5H101a5.35,5.35,0,0,0-4.1,1.7,6.44,6.44,0,0,0-1.5,4.5v8.2H94V170.4h1.4Zm10.2-10h1.5V186h-1.5Zm21.1,14.8H113.2a7.39,7.39,0,0,0,.9,3.3,6.89,6.89,0,0,0,2.3,2.2,7.42,7.42,0,0,0,3.4.8,8.21,8.21,0,0,0,2.8-.5,5.25,5.25,0,0,0,2.2-1.7l.9,1a6.29,6.29,0,0,1-2.6,1.9,8.84,8.84,0,0,1-3.3.7,8.16,8.16,0,0,1-4.2-1,7.79,7.79,0,0,1-2.9-2.8,8.9,8.9,0,0,1,0-8.2,8.38,8.38,0,0,1,2.7-2.9,7.72,7.72,0,0,1,7.6,0,7.77,7.77,0,0,1,3.7,6.9Zm-7.5-7a6.11,6.11,0,0,0-3,.8,5.3,5.3,0,0,0-2.1,2.1,7.5,7.5,0,0,0-.9,3h12a7.5,7.5,0,0,0-.9-3,6,6,0,0,0-2.1-2.1A6.11,6.11,0,0,0,119.2,171.5ZM139.1,185a3.92,3.92,0,0,1-1.4.8,5.66,5.66,0,0,1-1.8.3,3.86,3.86,0,0,1-4.3-4.3V171.5h-2.9v-1.3h2.9v-3.4h1.5v3.4h5v1.3h-5v10.1a3.17,3.17,0,0,0,.7,2.3,3,3,0,0,0,2.2.8,3.24,3.24,0,0,0,2.4-.9Zm9.8,1.1a7.67,7.67,0,0,1-4-1,7.52,7.52,0,0,1-2.8-2.8,8.9,8.9,0,0,1,0-8.2,7.79,7.79,0,0,1,2.8-2.9,8.5,8.5,0,0,1,8,0,7.12,7.12,0,0,1,2.8,2.9,8.91,8.91,0,0,1,0,8.2,7.52,7.52,0,0,1-2.8,2.8A7.67,7.67,0,0,1,148.9,186.1Zm0-1.3a6.6,6.6,0,0,0,3.2-.8,6.16,6.16,0,0,0,3.1-5.7,7.42,7.42,0,0,0-.8-3.4,5.12,5.12,0,0,0-2.3-2.3,5.66,5.66,0,0,0-3.2-.8,6.6,6.6,0,0,0-3.2.8,7.22,7.22,0,0,0-2.3,2.3,7.62,7.62,0,0,0,0,6.8,5.66,5.66,0,0,0,2.3,2.3A6.6,6.6,0,0,0,148.9,184.8Zm20.2-14.6a6.6,6.6,0,0,1,4.7,1.7,6.77,6.77,0,0,1,1.7,4.9V186H174v-9.1a5.39,5.39,0,0,0-1.4-4,5,5,0,0,0-3.7-1.4,5.69,5.69,0,0,0-6,6.2v8.4h-1.5V170.4h1.4v3.4a5.5,5.5,0,0,1,2.4-2.6A7.32,7.32,0,0,1,169.1,170.2Zm29,15.9a8.3,8.3,0,0,1-6.2-2.3c-1.5-1.5-2.2-3.8-2.2-6.8V164.9h1.5V177c0,2.6.6,4.5,1.8,5.8a7.79,7.79,0,0,0,10.2,0c1.2-1.3,1.8-3.2,1.8-5.8V164.9h1.5V177c0,3-.7,5.2-2.2,6.8S200.8,186.1,198.1,186.1Zm22.8-15.9a6.6,6.6,0,0,1,4.7,1.7,6.77,6.77,0,0,1,1.7,4.9V186h-1.5v-9.1a5.39,5.39,0,0,0-1.4-4,5,5,0,0,0-3.7-1.4,5.69,5.69,0,0,0-6,6.2v8.4h-1.5V170.4h1.4v3.4a5.5,5.5,0,0,1,2.4-2.6A7.56,7.56,0,0,1,220.9,170.2Zm12.6.1H235V186h-1.5Zm.7-3.8a1.61,1.61,0,0,1-.9-.3,1.27,1.27,0,0,1-.4-.9,1.09,1.09,0,0,1,.4-.9,1.27,1.27,0,0,1,.9-.4,1.22,1.22,0,0,1,.9.4,1.23,1.23,0,0,1,.4.8,1.22,1.22,0,0,1-.4.9A1.09,1.09,0,0,1,234.2,166.5Zm19.7,3.8L246.8,186h-1.5l-7.1-15.7h1.6l6.3,14,6.3-14Zm16.1,8.2H256.5a7.39,7.39,0,0,0,.9,3.3,6.89,6.89,0,0,0,2.3,2.2,7.42,7.42,0,0,0,3.4.8,8.21,8.21,0,0,0,2.8-.5,5.25,5.25,0,0,0,2.2-1.7l.9,1a6.29,6.29,0,0,1-2.6,1.9,8.84,8.84,0,0,1-3.3.7,8.16,8.16,0,0,1-4.2-1,7.79,7.79,0,0,1-2.9-2.8,8.9,8.9,0,0,1,0-8.2,8.38,8.38,0,0,1,2.7-2.9,7.09,7.09,0,0,1,3.9-1,7,7,0,0,1,3.8,1,7.77,7.77,0,0,1,3.7,6.9Zm-7.4-7a6.11,6.11,0,0,0-3,.8,5.3,5.3,0,0,0-2.1,2.1,7.5,7.5,0,0,0-.9,3h12a7.5,7.5,0,0,0-.9-3,6,6,0,0,0-2.1-2.1A6.11,6.11,0,0,0,262.6,171.5Zm13.6,2.2a5.29,5.29,0,0,1,2.3-2.6,7.24,7.24,0,0,1,3.7-.9v1.5h-.4a5.35,5.35,0,0,0-4.1,1.7,6.44,6.44,0,0,0-1.5,4.5v8.2h-1.5V170.4h1.4v3.3Zm14.2,12.4a10.46,10.46,0,0,1-3.6-.6,11.28,11.28,0,0,1-2.7-1.4l.7-1.2a9.67,9.67,0,0,0,2.5,1.4,8.59,8.59,0,0,0,3.2.5,6.46,6.46,0,0,0,3.5-.8,2.32,2.32,0,0,0,1.1-2.2,2.11,2.11,0,0,0-.6-1.6,2.75,2.75,0,0,0-1.5-.8,18.53,18.53,0,0,0-2.5-.6c-1.2-.2-2.2-.5-3-.7a5.33,5.33,0,0,1-2-1.3,3.65,3.65,0,0,1-.8-2.4,3.88,3.88,0,0,1,1.5-3.1,7,7,0,0,1,4.4-1.2,10.32,10.32,0,0,1,3,.4,9,9,0,0,1,2.4,1.1l-.7,1.2a7.56,7.56,0,0,0-2.2-1.1,10.86,10.86,0,0,0-2.5-.4,5.71,5.71,0,0,0-3.3.8,2.61,2.61,0,0,0-1.1,2.1,2.35,2.35,0,0,0,.6,1.7,3.77,3.77,0,0,0,1.5.9,20.74,20.74,0,0,0,2.6.6,24.93,24.93,0,0,1,2.9.7,3.47,3.47,0,0,1,1.9,1.2,3.37,3.37,0,0,1,.8,2.3,3.59,3.59,0,0,1-1.6,3.1C293.9,185.7,292.4,186.1,290.4,186.1Zm10.4-15.8h1.5V186h-1.5Zm.8-3.8a1.61,1.61,0,0,1-.9-.3,1.27,1.27,0,0,1-.4-.9,1.09,1.09,0,0,1,.4-.9,1.27,1.27,0,0,1,.9-.4,1.09,1.09,0,0,1,.9.4,1.23,1.23,0,0,1,.4.8,1.37,1.37,0,0,1-1.3,1.3ZM316.4,185a3.92,3.92,0,0,1-1.4.8,5.66,5.66,0,0,1-1.8.3,3.86,3.86,0,0,1-4.3-4.3V171.5H306v-1.3h2.9v-3.4h1.5v3.4h5v1.3h-5v10.1a3.17,3.17,0,0,0,.7,2.3,3,3,0,0,0,2.2.8,3.24,3.24,0,0,0,2.4-.9Zm16.5-14.7-8.1,17.8a6.23,6.23,0,0,1-2.1,2.9,5,5,0,0,1-4.8.5,3.55,3.55,0,0,1-1.6-1.1l.8-1.1a4,4,0,0,0,2.9,1.2,3.38,3.38,0,0,0,2-.6,5.91,5.91,0,0,0,1.5-2.2l.8-1.9-7.1-15.6h1.6l6.3,14,6.3-14h1.5Z" transform="translate(-10.4 -36.4)" fill="#fff"/></svg>