<svg id="a7ef3c21-7375-436c-b2d5-cff45eff11fd" data-name="bdc73293-dded-4ae5-a4a0-277d8ad3571a" xmlns="http://www.w3.org/2000/svg" viewBox="0 0 2405.98 3605.86"><title>bkg-dark</title><polygon points="1447.61 3.15 1203.61 3.15 1423.61 3.15 1447.61 3.15" fill="none" stroke="#000" stroke-miterlimit="10"/><polygon points="2249.61 1143.14 2133.61 1419.14 2181.61 1462.14 2249.61 1143.14" fill="none" stroke="#353535" stroke-miterlimit="10"/><polygon points="2326.61 763.14 2323.61 516.14 2257.61 647.14 2326.61 763.14" fill="none" stroke="#353535" stroke-miterlimit="10"/><polygon points="2372.61 493.14 2323.61 516.14 2326.61 763.14 2372.61 493.14" fill="none" stroke="#353535" stroke-miterlimit="10"/><polygon points="2373.61 308.14 2189.61 21.14 2337.61 345.14 2373.61 308.14" fill="none" stroke="#353535" stroke-miterlimit="10"/><polygon points="2373.61 308.14 2337.61 345.14 2372.61 493.14 2373.61 308.14" fill="none" stroke="#353535" stroke-miterlimit="10"/><polygon points="2382.61 2155.14 2327.61 1960.14 2312.61 2061.14 2382.61 2155.14" fill="none" stroke="#353535" stroke-miterlimit="10"/><polygon points="2383.61 96.14 2189.61 21.14 2373.61 308.14 2383.61 96.14" fill="none" stroke="#353535" stroke-miterlimit="10"/><polygon points="2397.61 2508.14 2385.61 2380.14 2270.61 2308.14 2397.61 2508.14" fill="none" stroke="#353535" stroke-miterlimit="10"/><polygon points="2403.61 1772.14 2297.61 1573.14 2298.61 1713.14 2403.61 1772.14" fill="none" stroke="#353535" stroke-miterlimit="10"/><polygon points="2403.61 2938.14 2217.61 2991.14 2234.61 3012.14 2403.61 2938.14" fill="none" stroke="#353535" stroke-miterlimit="10"/><polygon points="2403.61 2938.14 2154.61 2834.14 2217.61 2991.14 2403.61 2938.14" fill="none" stroke="#353535" stroke-miterlimit="10"/><polygon points="2403.61 2938.14 2234.61 3012.14 2320.61 3138.14 2403.61 2938.14" fill="none" stroke="#353535" stroke-miterlimit="10"/><polygon points="2403.61 2304.14 2382.61 2155.14 2262.61 2246.14 2403.61 2304.14" fill="none" stroke="#353535" stroke-miterlimit="10"/><polygon points="2403.61 2304.14 2262.61 2246.14 2270.61 2308.14 2403.61 2304.14" fill="none" stroke="#353535" stroke-miterlimit="10"/><polygon points="2403.61 2304.14 2270.61 2308.14 2385.61 2380.14 2403.61 2304.14" fill="none" stroke="#353535" stroke-miterlimit="10"/><polygon points="2403.61 2304.14 2385.61 2380.14 2397.61 2508.14 2403.61 2304.14" fill="none" stroke="#353535" stroke-miterlimit="10"/><polygon points="2403.61 2770.14 2154.61 2834.14 2403.61 2938.14 2403.61 2770.14" fill="none" stroke="#353535" stroke-miterlimit="10"/><polygon points="2403.61 2770.14 2329.61 2600.14 2154.61 2834.14 2403.61 2770.14" fill="none" stroke="#353535" stroke-miterlimit="10"/><polygon points="2403.61 2770.14 2397.61 2508.14 2329.61 2600.14 2403.61 2770.14" fill="none" stroke="#353535" stroke-miterlimit="10"/><polygon points="2403.61 2770.14 2403.61 2304.14 2397.61 2508.14 2403.61 2770.14" fill="none" stroke="#353535" stroke-miterlimit="10"/><polygon points="2403.61 1179.14 2181.61 1462.14 2297.61 1573.14 2403.61 1179.14" fill="none" stroke="#353535" stroke-miterlimit="10"/><polygon points="2403.61 1179.14 2370.61 1108.14 2249.61 1143.14 2403.61 1179.14" fill="none" stroke="#353535" stroke-miterlimit="10"/><polygon points="2403.61 1179.14 2249.61 1143.14 2181.61 1462.14 2403.61 1179.14" fill="none" stroke="#353535" stroke-miterlimit="10"/><polygon points="2403.61 1179.14 2297.61 1573.14 2403.61 1772.14 2403.61 1179.14" fill="none" stroke="#353535" stroke-miterlimit="10"/><polygon points="2403.61 926.14 2207.61 1031.14 2370.61 1108.14 2403.61 926.14" fill="none" stroke="#353535" stroke-miterlimit="10"/><polygon points="2403.61 926.14 2326.61 763.14 2207.61 1031.14 2403.61 926.14" fill="none" stroke="#353535" stroke-miterlimit="10"/><polygon points="2403.61 926.14 2372.61 493.14 2326.61 763.14 2403.61 926.14" fill="none" stroke="#353535" stroke-miterlimit="10"/><polygon points="2403.61 926.14 2370.61 1108.14 2403.61 1179.14 2403.61 926.14" fill="none" stroke="#353535" stroke-miterlimit="10"/><polygon points="2403.61 3310.14 2320.61 3138.14 2024.61 3207.14 2403.61 3310.14" fill="none" stroke="#353535" stroke-miterlimit="10"/><polygon points="2403.61 3310.14 2024.61 3207.14 1955.61 3424.14 2403.61 3310.14" fill="none" stroke="#353535" stroke-miterlimit="10"/><polygon points="2403.61 3310.14 1955.61 3424.14 2003.61 3603.14 2403.61 3310.14" fill="none" stroke="#353535" stroke-miterlimit="10"/><polygon points="2403.61 3310.14 2403.61 2938.14 2320.61 3138.14 2403.61 3310.14" fill="none" stroke="#353535" stroke-miterlimit="10"/><polygon points="2403.61 3603.14 2403.61 3310.14 2003.61 3603.14 2403.61 3603.14" fill="none" stroke="#353535" stroke-miterlimit="10"/><polygon points="2403.61 1803.14 2227.61 1870.14 2327.61 1960.14 2403.61 1803.14" fill="none" stroke="#353535" stroke-miterlimit="10"/><polygon points="2403.61 1803.14 2403.61 1772.14 2298.61 1713.14 2403.61 1803.14" fill="none" stroke="#353535" stroke-miterlimit="10"/><polygon points="2403.61 1803.14 2298.61 1713.14 2227.61 1870.14 2403.61 1803.14" fill="none" stroke="#353535" stroke-miterlimit="10"/><polygon points="2403.61 1803.14 2327.61 1960.14 2382.61 2155.14 2403.61 1803.14" fill="none" stroke="#353535" stroke-miterlimit="10"/><polygon points="2403.61 1803.14 2382.61 2155.14 2403.61 2304.14 2403.61 1803.14" fill="none" stroke="#353535" stroke-miterlimit="10"/><polygon points="2403.61 3.15 1975.61 3.15 2189.61 21.14 2403.61 3.15" fill="none" stroke="#353535" stroke-miterlimit="10"/><polygon points="2403.61 3.15 2189.61 21.14 2383.61 96.14 2403.61 3.15" fill="none" stroke="#353535" stroke-miterlimit="10"/><polygon points="2403.61 3.15 2383.61 96.14 2373.61 308.14 2403.61 3.15" fill="none" stroke="#353535" stroke-miterlimit="10"/><polygon points="2403.61 3.15 2373.61 308.14 2372.61 493.14 2403.61 3.15" fill="none" stroke="#353535" stroke-miterlimit="10"/><polygon points="2403.61 3.15 2372.61 493.14 2403.61 926.14 2403.61 3.15" fill="none" stroke="#353535" stroke-miterlimit="10"/><polygon points="2372.61 493.14 2337.61 345.14 2323.61 516.14 2372.61 493.14" fill="none" stroke="#353535" stroke-miterlimit="10"/><polygon points="2397.61 2508.14 2270.61 2308.14 2329.61 2600.14 2397.61 2508.14" fill="none" stroke="#353535" stroke-miterlimit="10"/><polygon points="2382.61 2155.14 2312.61 2061.14 2262.61 2246.14 2382.61 2155.14" fill="none" stroke="#353535" stroke-miterlimit="10"/><polygon points="2327.61 1960.14 2285.61 2041.14 2312.61 2061.14 2327.61 1960.14" fill="none" stroke="#353535" stroke-miterlimit="10"/><polygon points="2329.61 2600.14 2270.61 2308.14 2067.61 2609.14 2329.61 2600.14" fill="none" stroke="#353535" stroke-miterlimit="10"/><polygon points="2370.61 1108.14 2207.61 1031.14 2249.61 1143.14 2370.61 1108.14" fill="none" stroke="#353535" stroke-miterlimit="10"/><polygon points="2326.61 763.14 2172.61 1026.14 2207.61 1031.14 2326.61 763.14" fill="none" stroke="#353535" stroke-miterlimit="10"/><polygon points="2326.61 763.14 2066.61 809.14 2172.61 1026.14 2326.61 763.14" fill="none" stroke="#353535" stroke-miterlimit="10"/><polygon points="2337.61 345.14 2189.61 21.14 2017.61 74.14 2337.61 345.14" fill="none" stroke="#353535" stroke-miterlimit="10"/><polygon points="2312.61 2061.14 2285.61 2041.14 2262.61 2246.14 2312.61 2061.14" fill="none" stroke="#353535" stroke-miterlimit="10"/><polygon points="2320.61 3138.14 2026.61 3191.14 2024.61 3207.14 2320.61 3138.14" fill="none" stroke="#353535" stroke-miterlimit="10"/><polygon points="2329.61 2600.14 2067.61 2609.14 2154.61 2834.14 2329.61 2600.14" fill="none" stroke="#353535" stroke-miterlimit="10"/><polygon points="2337.61 345.14 2094.61 553.14 2323.61 516.14 2337.61 345.14" fill="none" stroke="#353535" stroke-miterlimit="10"/><polygon points="2337.61 345.14 2017.61 74.14 2094.61 553.14 2337.61 345.14" fill="none" stroke="#353535" stroke-miterlimit="10"/><polygon points="2249.61 1143.14 2057.61 1363.14 2133.61 1419.14 2249.61 1143.14" fill="none" stroke="#353535" stroke-miterlimit="10"/><polygon points="2320.61 3138.14 2075.61 3082.14 2026.61 3191.14 2320.61 3138.14" fill="none" stroke="#353535" stroke-miterlimit="10"/><polygon points="2327.61 1960.14 2227.61 1870.14 2285.61 2041.14 2327.61 1960.14" fill="none" stroke="#353535" stroke-miterlimit="10"/><polygon points="2326.61 763.14 2257.61 647.14 2066.61 809.14 2326.61 763.14" fill="none" stroke="#353535" stroke-miterlimit="10"/><polygon points="2285.61 2041.14 2078.61 2079.14 2262.61 2246.14 2285.61 2041.14" fill="none" stroke="#353535" stroke-miterlimit="10"/><polygon points="2323.61 516.14 2094.61 553.14 2257.61 647.14 2323.61 516.14" fill="none" stroke="#353535" stroke-miterlimit="10"/><polygon points="2320.61 3138.14 2234.61 3012.14 2075.61 3082.14 2320.61 3138.14" fill="none" stroke="#353535" stroke-miterlimit="10"/><polygon points="2094.61 553.14 2017.61 74.14 1977.61 534.14 2094.61 553.14" fill="none" stroke="#353535" stroke-miterlimit="10"/><polygon points="2298.61 1713.14 2297.61 1573.14 2153.61 1479.14 2298.61 1713.14" fill="none" stroke="#353535" stroke-miterlimit="10"/><polygon points="2285.61 2041.14 2227.61 1870.14 2105.61 2012.14 2285.61 2041.14" fill="none" stroke="#353535" stroke-miterlimit="10"/><polygon points="2297.61 1573.14 2181.61 1462.14 2153.61 1479.14 2297.61 1573.14" fill="none" stroke="#353535" stroke-miterlimit="10"/><polygon points="2298.61 1713.14 2153.61 1479.14 1950.61 1604.14 2298.61 1713.14" fill="none" stroke="#353535" stroke-miterlimit="10"/><polygon points="2298.61 1713.14 1950.61 1604.14 2107.61 1860.14 2298.61 1713.14" fill="none" stroke="#353535" stroke-miterlimit="10"/><polygon points="2298.61 1713.14 2107.61 1860.14 2227.61 1870.14 2298.61 1713.14" fill="none" stroke="#353535" stroke-miterlimit="10"/><polygon points="2107.61 1860.14 1950.61 1604.14 1952.61 1762.14 2107.61 1860.14" fill="none" stroke="#353535" stroke-miterlimit="10"/><polygon points="2270.61 2308.14 1910.61 2278.14 2067.61 2609.14 2270.61 2308.14" fill="none" stroke="#1c1c1c" stroke-miterlimit="10"/><polygon points="2285.61 2041.14 2105.61 2012.14 2078.61 2079.14 2285.61 2041.14" fill="none" stroke="#353535" stroke-miterlimit="10"/><polygon points="2270.61 2308.14 2262.61 2246.14 1910.61 2278.14 2270.61 2308.14" fill="none" stroke="#1c1c1c" stroke-miterlimit="10"/><polygon points="2249.61 1143.14 1965.61 1146.14 2057.61 1363.14 2249.61 1143.14" fill="none" stroke="#353535" stroke-miterlimit="10"/><polygon points="2257.61 647.14 2094.61 553.14 2066.61 809.14 2257.61 647.14" fill="none" stroke="#353535" stroke-miterlimit="10"/><polygon points="2262.61 2246.14 2038.61 2103.14 1910.61 2278.14 2262.61 2246.14" fill="none" stroke="#1c1c1c" stroke-miterlimit="10"/><polygon points="2262.61 2246.14 2078.61 2079.14 2038.61 2103.14 2262.61 2246.14" fill="none" stroke="#353535" stroke-miterlimit="10"/><polygon points="2003.61 3603.14 1955.61 3424.14 1986.61 3586.14 2003.61 3603.14" fill="none" stroke="#353535" stroke-miterlimit="10"/><polygon points="2249.61 1143.14 2207.61 1031.14 2172.61 1026.14 2249.61 1143.14" fill="none" stroke="#353535" stroke-miterlimit="10"/><polygon points="2227.61 1870.14 2107.61 1860.14 2105.61 2012.14 2227.61 1870.14" fill="none" stroke="#353535" stroke-miterlimit="10"/><polygon points="2249.61 1143.14 2172.61 1026.14 2066.61 1020.14 2249.61 1143.14" fill="none" stroke="#353535" stroke-miterlimit="10"/><polygon points="2249.61 1143.14 2066.61 1020.14 1965.61 1146.14 2249.61 1143.14" fill="none" stroke="#353535" stroke-miterlimit="10"/><polygon points="2017.61 74.14 1834.61 161.15 1977.61 534.14 2017.61 74.14" fill="none" stroke="#1c1c1c" stroke-miterlimit="10"/><polygon points="2066.61 809.14 2011.61 956.14 2066.61 1020.14 2066.61 809.14" fill="none" stroke="#353535" stroke-miterlimit="10"/><polygon points="2172.61 1026.14 2066.61 809.14 2066.61 1020.14 2172.61 1026.14" fill="none" stroke="#353535" stroke-miterlimit="10"/><polygon points="2234.61 3012.14 2217.61 2991.14 2075.61 3082.14 2234.61 3012.14" fill="none" stroke="#353535" stroke-miterlimit="10"/><polygon points="1977.61 534.14 1834.61 161.15 1897.61 511.14 1977.61 534.14" fill="none" stroke="#1c1c1c" stroke-miterlimit="10"/><polygon points="2067.61 2609.14 1910.61 2278.14 1843.61 2398.14 2067.61 2609.14" fill="none" stroke="#1c1c1c" stroke-miterlimit="10"/><polygon points="2217.61 2991.14 2154.61 2834.14 2075.61 3082.14 2217.61 2991.14" fill="none" stroke="#353535" stroke-miterlimit="10"/><polygon points="2024.61 3207.14 1936.61 3289.14 1955.61 3424.14 2024.61 3207.14" fill="none" stroke="#353535" stroke-miterlimit="10"/><polygon points="2154.61 2834.14 1963.61 2822.14 2075.61 3082.14 2154.61 2834.14" fill="none" stroke="#353535" stroke-miterlimit="10"/><polygon points="2154.61 2834.14 2067.61 2609.14 1963.61 2822.14 2154.61 2834.14" fill="none" stroke="#353535" stroke-miterlimit="10"/><polygon points="2189.61 21.14 1975.61 3.15 2017.61 74.14 2189.61 21.14" fill="none" stroke="#353535" stroke-miterlimit="10"/><polygon points="2181.61 1462.14 2133.61 1419.14 2153.61 1479.14 2181.61 1462.14" fill="none" stroke="#353535" stroke-miterlimit="10"/><polygon points="2075.61 3082.14 1963.61 2822.14 1977.61 3078.14 2075.61 3082.14" fill="none" stroke="#353535" stroke-miterlimit="10"/><polygon points="2067.61 2609.14 1935.61 2665.14 1963.61 2822.14 2067.61 2609.14" fill="none" stroke="#353535" stroke-miterlimit="10"/><polygon points="2094.61 553.14 1977.61 534.14 2066.61 809.14 2094.61 553.14" fill="none" stroke="#353535" stroke-miterlimit="10"/><polygon points="2153.61 1479.14 2133.61 1419.14 2057.61 1363.14 2153.61 1479.14" fill="none" stroke="#353535" stroke-miterlimit="10"/><polygon points="2153.61 1479.14 2057.61 1363.14 1950.61 1604.14 2153.61 1479.14" fill="none" stroke="#353535" stroke-miterlimit="10"/><polygon points="2057.61 1363.14 1887.61 1456.14 1950.61 1604.14 2057.61 1363.14" fill="none" stroke="#1c1c1c" stroke-miterlimit="10"/><polygon points="2066.61 809.14 1977.61 534.14 1890.61 589.14 2066.61 809.14" fill="none" stroke="#1c1c1c" stroke-miterlimit="10"/><polygon points="2107.61 1860.14 2042.61 2024.14 2105.61 2012.14 2107.61 1860.14" fill="none" stroke="#353535" stroke-miterlimit="10"/><polygon points="2017.61 74.14 1962.61 65.14 1834.61 161.15 2017.61 74.14" fill="none" stroke="#1c1c1c" stroke-miterlimit="10"/><polygon points="2105.61 2012.14 2042.61 2024.14 2078.61 2079.14 2105.61 2012.14" fill="none" stroke="#353535" stroke-miterlimit="10"/><polygon points="2107.61 1860.14 1887.61 1818.14 2042.61 2024.14 2107.61 1860.14" fill="none" stroke="#1c1c1c" stroke-miterlimit="10"/><polygon points="2107.61 1860.14 1952.61 1762.14 1887.61 1818.14 2107.61 1860.14" fill="none" stroke="#1c1c1c" stroke-miterlimit="10"/><polygon points="1962.61 65.14 1939.61 68.14 1834.61 161.15 1962.61 65.14" fill="none" stroke="#1c1c1c" stroke-miterlimit="10"/><polygon points="2057.61 1363.14 1965.61 1146.14 1870.61 1331.14 2057.61 1363.14" fill="none" stroke="#1c1c1c" stroke-miterlimit="10"/><polygon points="2067.61 2609.14 1843.61 2398.14 1935.61 2665.14 2067.61 2609.14" fill="none" stroke="#1c1c1c" stroke-miterlimit="10"/><polygon points="2024.61 3207.14 1972.61 3217.14 1936.61 3289.14 2024.61 3207.14" fill="none" stroke="#353535" stroke-miterlimit="10"/><polygon points="2075.61 3082.14 1977.61 3078.14 2026.61 3191.14 2075.61 3082.14" fill="none" stroke="#353535" stroke-miterlimit="10"/><polygon points="2078.61 2079.14 2042.61 2024.14 2038.61 2103.14 2078.61 2079.14" fill="none" stroke="#353535" stroke-miterlimit="10"/><polygon points="2038.61 2103.14 1861.61 2145.14 1910.61 2278.14 2038.61 2103.14" fill="none" stroke="#1c1c1c" stroke-miterlimit="10"/><polygon points="2066.61 1020.14 2011.61 956.14 1965.61 1146.14 2066.61 1020.14" fill="none" stroke="#353535" stroke-miterlimit="10"/><polygon points="2066.61 809.14 1890.61 589.14 1732.61 684.14 2066.61 809.14" fill="none" stroke="#000" stroke-miterlimit="10"/><polygon points="2066.61 809.14 1733.61 901.14 2011.61 956.14 2066.61 809.14" fill="none" stroke="#000" stroke-miterlimit="10"/><polygon points="2066.61 809.14 1732.61 684.14 1733.61 901.14 2066.61 809.14" fill="none" stroke="#000" stroke-miterlimit="10"/><polygon points="2003.61 3603.14 1986.61 3586.14 1697.61 3603.14 2003.61 3603.14" fill="none" stroke="#353535" stroke-miterlimit="10"/><polygon points="2057.61 1363.14 1870.61 1331.14 1887.61 1456.14 2057.61 1363.14" fill="none" stroke="#1c1c1c" stroke-miterlimit="10"/><polygon points="2042.61 2024.14 1887.61 1818.14 1767.61 1924.14 2042.61 2024.14" fill="none" stroke="#1c1c1c" stroke-miterlimit="10"/><polygon points="2042.61 2024.14 1861.61 2145.14 2038.61 2103.14 2042.61 2024.14" fill="none" stroke="#1c1c1c" stroke-miterlimit="10"/><polygon points="2042.61 2024.14 1767.61 1924.14 1861.61 2145.14 2042.61 2024.14" fill="none" stroke="#1c1c1c" stroke-miterlimit="10"/><polygon points="1897.61 511.14 1834.61 161.15 1725.61 224.15 1897.61 511.14" fill="none" stroke="#000" stroke-miterlimit="10"/><polygon points="1977.61 3078.14 1963.61 2822.14 1896.61 3105.14 1977.61 3078.14" fill="none" stroke="#1c1c1c" stroke-miterlimit="10"/><polygon points="2026.61 3191.14 1977.61 3078.14 1972.61 3217.14 2026.61 3191.14" fill="none" stroke="#353535" stroke-miterlimit="10"/><polygon points="1977.61 3078.14 1896.61 3105.14 1972.61 3217.14 1977.61 3078.14" fill="none" stroke="#1c1c1c" stroke-miterlimit="10"/><polygon points="2011.61 956.14 1800.61 1099.14 1965.61 1146.14 2011.61 956.14" fill="none" stroke="#1c1c1c" stroke-miterlimit="10"/><polygon points="2017.61 74.14 1975.61 3.15 1962.61 65.14 2017.61 74.14" fill="none" stroke="#353535" stroke-miterlimit="10"/><polygon points="2026.61 3191.14 1972.61 3217.14 2024.61 3207.14 2026.61 3191.14" fill="none" stroke="#353535" stroke-miterlimit="10"/><polygon points="2011.61 956.14 1733.61 901.14 1800.61 1099.14 2011.61 956.14" fill="none" stroke="#000" stroke-miterlimit="10"/><polygon points="1963.61 2822.14 1661.61 2950.14 1896.61 3105.14 1963.61 2822.14" fill="none" stroke="#1c1c1c" stroke-miterlimit="10"/><polygon points="1986.61 3586.14 1955.61 3424.14 1766.61 3504.14 1986.61 3586.14" fill="none" stroke="#353535" stroke-miterlimit="10"/><polygon points="1896.61 3105.14 1661.61 2950.14 1844.61 3120.14 1896.61 3105.14" fill="none" stroke="#1c1c1c" stroke-miterlimit="10"/><polygon points="1952.61 1762.14 1950.61 1604.14 1845.61 1600.14 1952.61 1762.14" fill="none" stroke="#1c1c1c" stroke-miterlimit="10"/><polygon points="1986.61 3586.14 1766.61 3504.14 1697.61 3603.14 1986.61 3586.14" fill="none" stroke="#353535" stroke-miterlimit="10"/><polygon points="1935.61 2665.14 1843.61 2398.14 1689.61 2641.14 1935.61 2665.14" fill="none" stroke="#000" stroke-miterlimit="10"/><polygon points="1950.61 1604.14 1887.61 1456.14 1845.61 1600.14 1950.61 1604.14" fill="none" stroke="#1c1c1c" stroke-miterlimit="10"/><polygon points="1965.61 1146.14 1800.61 1099.14 1870.61 1331.14 1965.61 1146.14" fill="none" stroke="#1c1c1c" stroke-miterlimit="10"/><polygon points="1972.61 3217.14 1896.61 3105.14 1846.61 3251.14 1972.61 3217.14" fill="none" stroke="#1c1c1c" stroke-miterlimit="10"/><polygon points="1975.61 3.15 1939.61 68.14 1962.61 65.14 1975.61 3.15" fill="none" stroke="#353535" stroke-miterlimit="10"/><polygon points="1977.61 534.14 1897.61 511.14 1890.61 589.14 1977.61 534.14" fill="none" stroke="#1c1c1c" stroke-miterlimit="10"/><polygon points="1952.61 1762.14 1845.61 1600.14 1799.61 1630.14 1952.61 1762.14" fill="none" stroke="#1c1c1c" stroke-miterlimit="10"/><polygon points="1975.61 3.15 1792.61 3.15 1939.61 68.14 1975.61 3.15" fill="none" stroke="#1c1c1c" stroke-miterlimit="10"/><polygon points="1972.61 3217.14 1846.61 3251.14 1936.61 3289.14 1972.61 3217.14" fill="none" stroke="#1c1c1c" stroke-miterlimit="10"/><polygon points="1896.61 3105.14 1844.61 3120.14 1846.61 3251.14 1896.61 3105.14" fill="none" stroke="#1c1c1c" stroke-miterlimit="10"/><polygon points="1955.61 3424.14 1936.61 3289.14 1759.61 3382.14 1955.61 3424.14" fill="none" stroke="#353535" stroke-miterlimit="10"/><polygon points="1963.61 2822.14 1935.61 2665.14 1689.61 2641.14 1963.61 2822.14" fill="none" stroke="#000" stroke-miterlimit="10"/><polygon points="1963.61 2822.14 1689.61 2641.14 1626.61 2796.14 1963.61 2822.14" fill="none" stroke="#000" stroke-miterlimit="10"/><polygon points="1963.61 2822.14 1626.61 2796.14 1661.61 2950.14 1963.61 2822.14" fill="none" stroke="#000" stroke-miterlimit="10"/><polygon points="1952.61 1762.14 1753.61 1731.14 1887.61 1818.14 1952.61 1762.14" fill="none" stroke="#1c1c1c" stroke-miterlimit="10"/><polygon points="1952.61 1762.14 1799.61 1630.14 1753.61 1731.14 1952.61 1762.14" fill="none" stroke="#1c1c1c" stroke-miterlimit="10"/><polygon points="1897.61 511.14 1725.61 224.15 1620.61 366.14 1897.61 511.14" fill="none" stroke="#000" stroke-miterlimit="10"/><polygon points="1936.61 3289.14 1846.61 3251.14 1759.61 3382.14 1936.61 3289.14" fill="none" stroke="#353535" stroke-miterlimit="10"/><polygon points="1955.61 3424.14 1759.61 3382.14 1766.61 3504.14 1955.61 3424.14" fill="none" stroke="#353535" stroke-miterlimit="10"/><polygon points="1939.61 68.14 1792.61 3.15 1834.61 161.15 1939.61 68.14" fill="none" stroke="#1c1c1c" stroke-miterlimit="10"/><polygon points="1843.61 2398.14 1695.61 2419.14 1689.61 2641.14 1843.61 2398.14" fill="none" stroke="#000" stroke-miterlimit="10"/><polygon points="1890.61 589.14 1801.61 571.14 1732.61 684.14 1890.61 589.14" fill="none" stroke="#000" stroke-miterlimit="10"/><polygon points="1897.61 511.14 1620.61 366.14 1801.61 571.14 1897.61 511.14" fill="none" stroke="#000" stroke-miterlimit="10"/><polygon points="1910.61 2278.14 1861.61 2145.14 1744.61 2336.14 1910.61 2278.14" fill="none" stroke="#1c1c1c" stroke-miterlimit="10"/><polygon points="1910.61 2278.14 1744.61 2336.14 1843.61 2398.14 1910.61 2278.14" fill="none" stroke="#1c1c1c" stroke-miterlimit="10"/><polygon points="1887.61 1456.14 1870.61 1331.14 1745.61 1404.14 1887.61 1456.14" fill="none" stroke="#1c1c1c" stroke-miterlimit="10"/><polygon points="1887.61 1456.14 1745.61 1404.14 1845.61 1600.14 1887.61 1456.14" fill="none" stroke="#1c1c1c" stroke-miterlimit="10"/><polygon points="1897.61 511.14 1801.61 571.14 1890.61 589.14 1897.61 511.14" fill="none" stroke="#1c1c1c" stroke-miterlimit="10"/><polygon points="1870.61 1331.14 1800.61 1099.14 1745.61 1404.14 1870.61 1331.14" fill="none" stroke="#1c1c1c" stroke-miterlimit="10"/><polygon points="1887.61 1818.14 1725.61 1809.14 1767.61 1924.14 1887.61 1818.14" fill="none" stroke="#000" stroke-miterlimit="10"/><polygon points="1887.61 1818.14 1753.61 1731.14 1725.61 1809.14 1887.61 1818.14" fill="none" stroke="#000" stroke-miterlimit="10"/><polygon points="1801.61 571.14 1620.61 366.14 1612.61 499.14 1801.61 571.14" fill="none" stroke="#000" stroke-miterlimit="10"/><polygon points="1845.61 1600.14 1745.61 1404.14 1799.61 1630.14 1845.61 1600.14" fill="none" stroke="#1c1c1c" stroke-miterlimit="10"/><polygon points="1861.61 2145.14 1767.61 1924.14 1591.61 2117.14 1861.61 2145.14" fill="none" stroke="#000" stroke-miterlimit="10"/><polygon points="1800.61 1099.14 1512.61 1301.14 1745.61 1404.14 1800.61 1099.14" fill="none" stroke="#000" stroke-miterlimit="10"/><polygon points="1861.61 2145.14 1591.61 2117.14 1744.61 2336.14 1861.61 2145.14" fill="none" stroke="#000" stroke-miterlimit="10"/><polygon points="1792.61 3.15 1447.61 3.15 1578.61 78.14 1792.61 3.15" fill="none" stroke="#000" stroke-miterlimit="10"/><polygon points="1799.61 1630.14 1745.61 1404.14 1623.61 1568.14 1799.61 1630.14" fill="none" stroke="#000" stroke-miterlimit="10"/><polygon points="1834.61 161.15 1792.61 3.15 1725.61 224.15 1834.61 161.15" fill="none" stroke="#000" stroke-miterlimit="10"/><polygon points="1846.61 3251.14 1844.61 3120.14 1543.61 3324.14 1846.61 3251.14" fill="none" stroke="#1c1c1c" stroke-miterlimit="10"/><polygon points="1846.61 3251.14 1543.61 3324.14 1759.61 3382.14 1846.61 3251.14" fill="none" stroke="#353535" stroke-miterlimit="10"/><polygon points="1844.61 3120.14 1661.61 2950.14 1543.61 3324.14 1844.61 3120.14" fill="none" stroke="#1c1c1c" stroke-miterlimit="10"/><polygon points="1843.61 2398.14 1744.61 2336.14 1695.61 2419.14 1843.61 2398.14" fill="none" stroke="#000" stroke-miterlimit="10"/><polygon points="1744.61 2336.14 1591.61 2117.14 1566.61 2277.14 1744.61 2336.14" fill="none" stroke="#000" stroke-miterlimit="10"/><polygon points="1744.61 2336.14 1689.61 2399.14 1695.61 2419.14 1744.61 2336.14" fill="none" stroke="#000" stroke-miterlimit="10"/><polygon points="1759.61 3382.14 1543.61 3324.14 1633.61 3411.14 1759.61 3382.14" fill="none" stroke="#353535" stroke-miterlimit="10"/><polygon points="1767.61 1924.14 1563.61 2020.14 1591.61 2117.14 1767.61 1924.14" fill="none" stroke="#000" stroke-miterlimit="10"/><polygon points="1792.61 3.15 1578.61 78.14 1725.61 224.15 1792.61 3.15" fill="none" stroke="#000" stroke-miterlimit="10"/><polygon points="1800.61 1099.14 1733.61 901.14 1459.61 1099.14 1800.61 1099.14" fill="none" stroke="#000" stroke-miterlimit="10"/><polygon points="1800.61 1099.14 1459.61 1099.14 1512.61 1301.14 1800.61 1099.14" fill="none" stroke="#000" stroke-miterlimit="10"/><polygon points="1801.61 571.14 1612.61 499.14 1732.61 684.14 1801.61 571.14" fill="none" stroke="#000" stroke-miterlimit="10"/><polygon points="1799.61 1630.14 1623.61 1568.14 1753.61 1731.14 1799.61 1630.14" fill="none" stroke="#000" stroke-miterlimit="10"/><polygon points="1203.61 3.15 740.61 3.15 971.61 37.15 1203.61 3.15" fill="none" stroke="#000" stroke-miterlimit="10"/><polygon points="1732.61 684.14 1612.61 499.14 1574.61 555.14 1732.61 684.14" fill="none" stroke="#000" stroke-miterlimit="10"/><polygon points="1733.61 901.14 1732.61 684.14 1486.61 877.14 1733.61 901.14" fill="none" stroke="#000" stroke-miterlimit="10"/><polygon points="1733.61 901.14 1486.61 877.14 1459.61 1099.14 1733.61 901.14" fill="none" stroke="#000" stroke-miterlimit="10"/><polygon points="1753.61 1731.14 1623.61 1568.14 1593.61 1716.14 1753.61 1731.14" fill="none" stroke="#000" stroke-miterlimit="10"/><polygon points="1766.61 3504.14 1588.61 3509.14 1697.61 3603.14 1766.61 3504.14" fill="none" stroke="#353535" stroke-miterlimit="10"/><polygon points="1766.61 3504.14 1633.61 3411.14 1588.61 3509.14 1766.61 3504.14" fill="none" stroke="#353535" stroke-miterlimit="10"/><polygon points="1766.61 3504.14 1759.61 3382.14 1633.61 3411.14 1766.61 3504.14" fill="none" stroke="#353535" stroke-miterlimit="10"/><polygon points="1767.61 1924.14 1725.61 1809.14 1563.61 2020.14 1767.61 1924.14" fill="none" stroke="#000" stroke-miterlimit="10"/><polygon points="1732.61 684.14 1440.61 766.14 1486.61 877.14 1732.61 684.14" fill="none" stroke="#000" stroke-miterlimit="10"/><polygon points="1753.61 1731.14 1593.61 1716.14 1725.61 1809.14 1753.61 1731.14" fill="none" stroke="#000" stroke-miterlimit="10"/><polygon points="1695.61 2419.14 1493.61 2579.14 1689.61 2641.14 1695.61 2419.14" fill="none" stroke="#000" stroke-miterlimit="10"/><polygon points="1725.61 1809.14 1466.61 1843.14 1563.61 2020.14 1725.61 1809.14" fill="none" stroke="#000" stroke-miterlimit="10"/><polygon points="1744.61 2336.14 1566.61 2277.14 1689.61 2399.14 1744.61 2336.14" fill="none" stroke="#000" stroke-miterlimit="10"/><polygon points="1745.61 1404.14 1470.61 1425.14 1623.61 1568.14 1745.61 1404.14" fill="none" stroke="#000" stroke-miterlimit="10"/><polygon points="1745.61 1404.14 1512.61 1301.14 1470.61 1425.14 1745.61 1404.14" fill="none" stroke="#000" stroke-miterlimit="10"/><polygon points="1732.61 684.14 1574.61 555.14 1440.61 766.14 1732.61 684.14" fill="none" stroke="#000" stroke-miterlimit="10"/><polygon points="1695.61 2419.14 1545.61 2396.14 1493.61 2579.14 1695.61 2419.14" fill="none" stroke="#000" stroke-miterlimit="10"/><polygon points="1623.61 1568.14 1588.61 1587.14 1593.61 1716.14 1623.61 1568.14" fill="none" stroke="#000" stroke-miterlimit="10"/><polygon points="1725.61 1809.14 1593.61 1716.14 1466.61 1843.14 1725.61 1809.14" fill="none" stroke="#000" stroke-miterlimit="10"/><polygon points="1725.61 224.15 1578.61 78.14 1620.61 366.14 1725.61 224.15" fill="none" stroke="#000" stroke-miterlimit="10"/><polygon points="1620.61 366.14 1578.61 78.14 1440.61 299.14 1620.61 366.14" fill="none" stroke="#000" stroke-miterlimit="10"/><polygon points="1661.61 2950.14 1433.61 3322.14 1543.61 3324.14 1661.61 2950.14" fill="none" stroke="#1c1c1c" stroke-miterlimit="10"/><polygon points="1661.61 2950.14 1454.61 2856.14 1433.61 3322.14 1661.61 2950.14" fill="none" stroke="#000" stroke-miterlimit="10"/><polygon points="1689.61 2399.14 1566.61 2277.14 1545.61 2396.14 1689.61 2399.14" fill="none" stroke="#000" stroke-miterlimit="10"/><polygon points="1697.61 3603.14 1588.61 3509.14 1465.61 3603.14 1697.61 3603.14" fill="none" stroke="#353535" stroke-miterlimit="10"/><polygon points="1689.61 2641.14 1493.61 2579.14 1626.61 2796.14 1689.61 2641.14" fill="none" stroke="#000" stroke-miterlimit="10"/><polygon points="1695.61 2419.14 1689.61 2399.14 1545.61 2396.14 1695.61 2419.14" fill="none" stroke="#000" stroke-miterlimit="10"/><polygon points="1454.61 2856.14 1293.61 3278.14 1433.61 3322.14 1454.61 2856.14" fill="none" stroke="#000" stroke-miterlimit="10"/><polygon points="1591.61 2117.14 1554.61 2123.14 1566.61 2277.14 1591.61 2117.14" fill="none" stroke="#000" stroke-miterlimit="10"/><polygon points="1623.61 1568.14 1470.61 1425.14 1588.61 1587.14 1623.61 1568.14" fill="none" stroke="#000" stroke-miterlimit="10"/><polygon points="1661.61 2950.14 1626.61 2796.14 1454.61 2856.14 1661.61 2950.14" fill="none" stroke="#000" stroke-miterlimit="10"/><polygon points="1454.61 2856.14 1211.61 3182.14 1293.61 3278.14 1454.61 2856.14" fill="none" stroke="#000" stroke-miterlimit="10"/><polygon points="1454.61 2856.14 1193.61 3021.14 1211.61 3182.14 1454.61 2856.14" fill="none" stroke="#000" stroke-miterlimit="10"/><polygon points="1588.61 3509.14 1528.61 3507.14 1465.61 3603.14 1588.61 3509.14" fill="none" stroke="#353535" stroke-miterlimit="10"/><polygon points="1620.61 366.14 1495.61 457.14 1612.61 499.14 1620.61 366.14" fill="none" stroke="#000" stroke-miterlimit="10"/><polygon points="1626.61 2796.14 1493.61 2579.14 1454.61 2856.14 1626.61 2796.14" fill="none" stroke="#000" stroke-miterlimit="10"/><polygon points="1633.61 3411.14 1511.61 3393.14 1588.61 3509.14 1633.61 3411.14" fill="none" stroke="#353535" stroke-miterlimit="10"/><polygon points="1633.61 3411.14 1543.61 3324.14 1511.61 3393.14 1633.61 3411.14" fill="none" stroke="#353535" stroke-miterlimit="10"/><polygon points="1588.61 3509.14 1511.61 3393.14 1528.61 3507.14 1588.61 3509.14" fill="none" stroke="#353535" stroke-miterlimit="10"/><polygon points="1588.61 1587.14 1470.61 1425.14 1434.61 1469.14 1588.61 1587.14" fill="none" stroke="#000" stroke-miterlimit="10"/><polygon points="1203.61 3603.14 1186.61 3599.14 955.61 3603.14 1203.61 3603.14" fill="none" stroke="#353535" stroke-miterlimit="10"/><polygon points="1545.61 2396.14 1485.61 2576.14 1493.61 2579.14 1545.61 2396.14" fill="none" stroke="#000" stroke-miterlimit="10"/><polygon points="1620.61 366.14 1440.61 299.14 1495.61 457.14 1620.61 366.14" fill="none" stroke="#000" stroke-miterlimit="10"/><polygon points="1566.61 2277.14 1554.61 2123.14 1482.61 2139.14 1566.61 2277.14" fill="none" stroke="#000" stroke-miterlimit="10"/><polygon points="1591.61 2117.14 1563.61 2020.14 1554.61 2123.14 1591.61 2117.14" fill="none" stroke="#000" stroke-miterlimit="10"/><polygon points="1612.61 499.14 1495.61 457.14 1574.61 555.14 1612.61 499.14" fill="none" stroke="#000" stroke-miterlimit="10"/><polygon points="1566.61 2277.14 1466.61 2300.14 1545.61 2396.14 1566.61 2277.14" fill="none" stroke="#000" stroke-miterlimit="10"/><polygon points="1574.61 555.14 1364.61 559.14 1440.61 766.14 1574.61 555.14" fill="none" stroke="#000" stroke-miterlimit="10"/><polygon points="1578.61 78.14 1447.61 3.15 1440.61 299.14 1578.61 78.14" fill="none" stroke="#000" stroke-miterlimit="10"/><polygon points="1593.61 1716.14 1588.61 1587.14 1285.61 1591.14 1593.61 1716.14" fill="none" stroke="#000" stroke-miterlimit="10"/><polygon points="1593.61 1716.14 1285.61 1591.14 1466.61 1843.14 1593.61 1716.14" fill="none" stroke="#000" stroke-miterlimit="10"/><polygon points="1588.61 1587.14 1434.61 1469.14 1285.61 1591.14 1588.61 1587.14" fill="none" stroke="#000" stroke-miterlimit="10"/><polygon points="1447.61 3.15 1423.61 3.15 1440.61 299.14 1447.61 3.15" fill="none" stroke="#000" stroke-miterlimit="10"/><polygon points="1493.61 2579.14 1485.61 2576.14 1454.61 2856.14 1493.61 2579.14" fill="none" stroke="#000" stroke-miterlimit="10"/><polygon points="1563.61 2020.14 1482.61 2139.14 1554.61 2123.14 1563.61 2020.14" fill="none" stroke="#000" stroke-miterlimit="10"/><polygon points="1563.61 2020.14 1466.61 1843.14 1354.61 1971.14 1563.61 2020.14" fill="none" stroke="#000" stroke-miterlimit="10"/><polygon points="1566.61 2277.14 1482.61 2139.14 1466.61 2300.14 1566.61 2277.14" fill="none" stroke="#000" stroke-miterlimit="10"/><polygon points="1574.61 555.14 1495.61 457.14 1364.61 559.14 1574.61 555.14" fill="none" stroke="#000" stroke-miterlimit="10"/><polygon points="1486.61 877.14 1376.61 905.14 1459.61 1099.14 1486.61 877.14" fill="none" stroke="#000" stroke-miterlimit="10"/><polygon points="1563.61 2020.14 1354.61 1971.14 1482.61 2139.14 1563.61 2020.14" fill="none" stroke="#000" stroke-miterlimit="10"/><polygon points="1512.61 1301.14 1459.61 1099.14 1329.61 1203.14 1512.61 1301.14" fill="none" stroke="#000" stroke-miterlimit="10"/><polygon points="1545.61 2396.14 1342.61 2322.14 1485.61 2576.14 1545.61 2396.14" fill="none" stroke="#000" stroke-miterlimit="10"/><polygon points="1543.61 3324.14 1433.61 3322.14 1511.61 3393.14 1543.61 3324.14" fill="none" stroke="#353535" stroke-miterlimit="10"/><polygon points="1545.61 2396.14 1466.61 2300.14 1342.61 2322.14 1545.61 2396.14" fill="none" stroke="#000" stroke-miterlimit="10"/><polygon points="1440.61 299.14 1423.61 3.15 1325.61 305.14 1440.61 299.14" fill="none" stroke="#000" stroke-miterlimit="10"/><polygon points="1485.61 2576.14 1231.61 2572.14 1454.61 2856.14 1485.61 2576.14" fill="none" stroke="#000" stroke-miterlimit="10"/><polygon points="1528.61 3507.14 1511.61 3393.14 1423.61 3603.14 1528.61 3507.14" fill="none" stroke="#353535" stroke-miterlimit="10"/><polygon points="1528.61 3507.14 1423.61 3603.14 1431.61 3603.14 1528.61 3507.14" fill="none" stroke="#353535" stroke-miterlimit="10"/><polygon points="1528.61 3507.14 1431.61 3603.14 1465.61 3603.14 1528.61 3507.14" fill="none" stroke="#353535" stroke-miterlimit="10"/><polygon points="1433.61 3322.14 1196.61 3453.14 1423.61 3603.14 1433.61 3322.14" fill="none" stroke="#353535" stroke-miterlimit="10"/><polygon points="1466.61 1843.14 1285.61 1591.14 1216.61 1684.14 1466.61 1843.14" fill="none" stroke="#000" stroke-miterlimit="10"/><polygon points="1466.61 1843.14 1343.61 1903.14 1354.61 1971.14 1466.61 1843.14" fill="none" stroke="#000" stroke-miterlimit="10"/><polygon points="1485.61 2576.14 1342.61 2322.14 1231.61 2572.14 1485.61 2576.14" fill="none" stroke="#000" stroke-miterlimit="10"/><polygon points="1495.61 457.14 1440.61 299.14 1374.61 467.14 1495.61 457.14" fill="none" stroke="#000" stroke-miterlimit="10"/><polygon points="1495.61 457.14 1374.61 467.14 1364.61 559.14 1495.61 457.14" fill="none" stroke="#000" stroke-miterlimit="10"/><polygon points="1511.61 3393.14 1433.61 3322.14 1423.61 3603.14 1511.61 3393.14" fill="none" stroke="#353535" stroke-miterlimit="10"/><polygon points="1512.61 1301.14 1329.61 1203.14 1470.61 1425.14 1512.61 1301.14" fill="none" stroke="#000" stroke-miterlimit="10"/><polygon points="1440.61 766.14 1364.61 559.14 1287.61 619.14 1440.61 766.14" fill="none" stroke="#000" stroke-miterlimit="10"/><polygon points="1454.61 2856.14 1231.61 2572.14 1167.61 2847.14 1454.61 2856.14" fill="none" stroke="#000" stroke-miterlimit="10"/><polygon points="1459.61 1099.14 1376.61 905.14 1303.61 1055.14 1459.61 1099.14" fill="none" stroke="#000" stroke-miterlimit="10"/><polygon points="1466.61 1843.14 1216.61 1684.14 1343.61 1903.14 1466.61 1843.14" fill="none" stroke="#000" stroke-miterlimit="10"/><polygon points="1470.61 1425.14 1329.61 1203.14 1309.61 1211.14 1470.61 1425.14" fill="none" stroke="#000" stroke-miterlimit="10"/><polygon points="1482.61 2139.14 1342.61 2322.14 1466.61 2300.14 1482.61 2139.14" fill="none" stroke="#000" stroke-miterlimit="10"/><polygon points="1486.61 877.14 1440.61 766.14 1376.61 905.14 1486.61 877.14" fill="none" stroke="#000" stroke-miterlimit="10"/><polygon points="1454.61 2856.14 1199.61 2886.14 1193.61 3021.14 1454.61 2856.14" fill="none" stroke="#000" stroke-miterlimit="10"/><polygon points="1482.61 2139.14 1354.61 1971.14 1282.61 2014.14 1482.61 2139.14" fill="none" stroke="#000" stroke-miterlimit="10"/><polygon points="1470.61 1425.14 1309.61 1211.14 1434.61 1469.14 1470.61 1425.14" fill="none" stroke="#000" stroke-miterlimit="10"/><polygon points="1454.61 2856.14 1167.61 2847.14 1199.61 2886.14 1454.61 2856.14" fill="none" stroke="#000" stroke-miterlimit="10"/><polygon points="1423.61 3.15 1203.61 3.15 1325.61 305.14 1423.61 3.15" fill="none" stroke="#000" stroke-miterlimit="10"/><polygon points="1482.61 2139.14 1282.61 2014.14 1342.61 2322.14 1482.61 2139.14" fill="none" stroke="#000" stroke-miterlimit="10"/><polygon points="1374.61 467.14 1325.61 305.14 1343.61 459.14 1374.61 467.14" fill="none" stroke="#000" stroke-miterlimit="10"/><polygon points="1440.61 299.14 1325.61 305.14 1374.61 467.14 1440.61 299.14" fill="none" stroke="#000" stroke-miterlimit="10"/><polygon points="1433.61 3322.14 1293.61 3278.14 1196.61 3453.14 1433.61 3322.14" fill="none" stroke="#353535" stroke-miterlimit="10"/><polygon points="1440.61 766.14 1287.61 619.14 1253.61 669.14 1440.61 766.14" fill="none" stroke="#000" stroke-miterlimit="10"/><polygon points="1459.61 1099.14 1303.61 1055.14 1329.61 1203.14 1459.61 1099.14" fill="none" stroke="#000" stroke-miterlimit="10"/><polygon points="1342.61 2322.14 1218.61 2353.14 1231.61 2572.14 1342.61 2322.14" fill="none" stroke="#000" stroke-miterlimit="10"/><polygon points="1423.61 3603.14 1196.61 3453.14 1203.61 3603.14 1423.61 3603.14" fill="none" stroke="#353535" stroke-miterlimit="10"/><polygon points="1434.61 1469.14 1309.61 1211.14 1101.61 1521.14 1434.61 1469.14" fill="none" stroke="#000" stroke-miterlimit="10"/><polygon points="1376.61 905.14 1253.61 669.14 1214.61 885.14 1376.61 905.14" fill="none" stroke="#000" stroke-miterlimit="10"/><polygon points="1434.61 1469.14 1101.61 1521.14 1285.61 1591.14 1434.61 1469.14" fill="none" stroke="#000" stroke-miterlimit="10"/><polygon points="1440.61 766.14 1253.61 669.14 1376.61 905.14 1440.61 766.14" fill="none" stroke="#000" stroke-miterlimit="10"/><polygon points="1199.61 2886.14 1175.61 2959.14 1193.61 3021.14 1199.61 2886.14" fill="none" stroke="#1c1c1c" stroke-miterlimit="10"/><polygon points="1282.61 2014.14 1106.61 2018.14 1218.61 2353.14 1282.61 2014.14" fill="none" stroke="#000" stroke-miterlimit="10"/><polygon points="1342.61 2322.14 1282.61 2014.14 1218.61 2353.14 1342.61 2322.14" fill="none" stroke="#000" stroke-miterlimit="10"/><polygon points="1364.61 559.14 1343.61 459.14 1274.61 522.14 1364.61 559.14" fill="none" stroke="#000" stroke-miterlimit="10"/><polygon points="1374.61 467.14 1343.61 459.14 1364.61 559.14 1374.61 467.14" fill="none" stroke="#000" stroke-miterlimit="10"/><polygon points="1376.61 905.14 1214.61 885.14 1303.61 1055.14 1376.61 905.14" fill="none" stroke="#000" stroke-miterlimit="10"/><polygon points="1231.61 2572.14 1218.61 2353.14 1143.61 2449.14 1231.61 2572.14" fill="none" stroke="#000" stroke-miterlimit="10"/><polygon points="1329.61 1203.14 1303.61 1055.14 1309.61 1211.14 1329.61 1203.14" fill="none" stroke="#000" stroke-miterlimit="10"/><polygon points="1343.61 1903.14 1216.61 1684.14 1087.61 1877.14 1343.61 1903.14" fill="none" stroke="#000" stroke-miterlimit="10"/><polygon points="1364.61 559.14 1274.61 522.14 1287.61 619.14 1364.61 559.14" fill="none" stroke="#000" stroke-miterlimit="10"/><polygon points="1203.61 3.15 1004.61 95.14 979.61 197.15 1203.61 3.15" fill="none" stroke="#000" stroke-miterlimit="10"/><polygon points="1325.61 305.14 1203.61 3.15 979.61 197.15 1325.61 305.14" fill="none" stroke="#000" stroke-miterlimit="10"/><polygon points="1343.61 459.14 1325.61 305.14 1274.61 522.14 1343.61 459.14" fill="none" stroke="#000" stroke-miterlimit="10"/><polygon points="1354.61 1971.14 1343.61 1903.14 1282.61 2014.14 1354.61 1971.14" fill="none" stroke="#000" stroke-miterlimit="10"/><polygon points="1253.61 669.14 1127.61 803.14 1214.61 885.14 1253.61 669.14" fill="none" stroke="#000" stroke-miterlimit="10"/><polygon points="1309.61 1211.14 995.61 1453.14 1101.61 1521.14 1309.61 1211.14" fill="none" stroke="#000" stroke-miterlimit="10"/><polygon points="1343.61 1903.14 1087.61 1877.14 1282.61 2014.14 1343.61 1903.14" fill="none" stroke="#000" stroke-miterlimit="10"/><polygon points="1218.61 2353.14 1106.61 2018.14 1036.61 2064.14 1218.61 2353.14" fill="none" stroke="#000" stroke-miterlimit="10"/><polygon points="1325.61 305.14 960.61 299.14 1274.61 522.14 1325.61 305.14" fill="none" stroke="#000" stroke-miterlimit="10"/><polygon points="1325.61 305.14 979.61 197.15 960.61 299.14 1325.61 305.14" fill="none" stroke="#000" stroke-miterlimit="10"/><polygon points="1231.61 2572.14 1024.61 2732.14 1167.61 2847.14 1231.61 2572.14" fill="none" stroke="#000" stroke-miterlimit="10"/><polygon points="1282.61 2014.14 1087.61 1877.14 1082.61 1949.14 1282.61 2014.14" fill="none" stroke="#000" stroke-miterlimit="10"/><polygon points="1287.61 619.14 1274.61 522.14 1227.61 571.14 1287.61 619.14" fill="none" stroke="#000" stroke-miterlimit="10"/><polygon points="1309.61 1211.14 1303.61 1055.14 1001.61 1041.14 1309.61 1211.14" fill="none" stroke="#000" stroke-miterlimit="10"/><polygon points="1309.61 1211.14 1001.61 1041.14 995.61 1453.14 1309.61 1211.14" fill="none" stroke="#000" stroke-miterlimit="10"/><polygon points="1253.61 669.14 1178.61 664.14 1127.61 803.14 1253.61 669.14" fill="none" stroke="#000" stroke-miterlimit="10"/><polygon points="1274.61 522.14 960.61 299.14 1227.61 571.14 1274.61 522.14" fill="none" stroke="#000" stroke-miterlimit="10"/><polygon points="1293.61 3278.14 1107.61 3236.14 1196.61 3453.14 1293.61 3278.14" fill="none" stroke="#1c1c1c" stroke-miterlimit="10"/><polygon points="1303.61 1055.14 1214.61 885.14 1001.61 1041.14 1303.61 1055.14" fill="none" stroke="#000" stroke-miterlimit="10"/><polygon points="1282.61 2014.14 1082.61 1949.14 1106.61 2018.14 1282.61 2014.14" fill="none" stroke="#000" stroke-miterlimit="10"/><polygon points="1293.61 3278.14 1211.61 3182.14 1107.61 3236.14 1293.61 3278.14" fill="none" stroke="#1c1c1c" stroke-miterlimit="10"/><polygon points="1285.61 1591.14 1191.61 1673.14 1216.61 1684.14 1285.61 1591.14" fill="none" stroke="#000" stroke-miterlimit="10"/><polygon points="1285.61 1591.14 1101.61 1521.14 1191.61 1673.14 1285.61 1591.14" fill="none" stroke="#000" stroke-miterlimit="10"/><polygon points="1287.61 619.14 1193.61 613.14 1253.61 669.14 1287.61 619.14" fill="none" stroke="#000" stroke-miterlimit="10"/><polygon points="1287.61 619.14 1227.61 571.14 1193.61 613.14 1287.61 619.14" fill="none" stroke="#000" stroke-miterlimit="10"/><polygon points="1203.61 3603.14 1196.61 3453.14 1186.61 3599.14 1203.61 3603.14" fill="none" stroke="#353535" stroke-miterlimit="10"/><polygon points="1211.61 3182.14 1193.61 3021.14 1137.61 3149.14 1211.61 3182.14" fill="none" stroke="#1c1c1c" stroke-miterlimit="10"/><polygon points="1001.61 1041.14 874.61 1144.14 995.61 1453.14 1001.61 1041.14" fill="none" stroke="#000" stroke-miterlimit="10"/><polygon points="1227.61 571.14 960.61 299.14 1006.61 615.14 1227.61 571.14" fill="none" stroke="#000" stroke-miterlimit="10"/><polygon points="1214.61 885.14 989.61 958.14 1001.61 1041.14 1214.61 885.14" fill="none" stroke="#000" stroke-miterlimit="10"/><polygon points="1216.61 1684.14 1191.61 1673.14 1087.61 1877.14 1216.61 1684.14" fill="none" stroke="#000" stroke-miterlimit="10"/><polygon points="1218.61 2353.14 1036.61 2064.14 945.61 2316.14 1218.61 2353.14" fill="none" stroke="#000" stroke-miterlimit="10"/><polygon points="1231.61 2572.14 1035.61 2572.14 1024.61 2732.14 1231.61 2572.14" fill="none" stroke="#000" stroke-miterlimit="10"/><polygon points="1253.61 669.14 1193.61 613.14 1178.61 664.14 1253.61 669.14" fill="none" stroke="#000" stroke-miterlimit="10"/><polygon points="1186.61 3599.14 1040.61 3559.14 955.61 3603.14 1186.61 3599.14" fill="none" stroke="#353535" stroke-miterlimit="10"/><polygon points="1196.61 3453.14 1107.61 3236.14 987.61 3390.14 1196.61 3453.14" fill="none" stroke="#1c1c1c" stroke-miterlimit="10"/><polygon points="1199.61 2886.14 1154.61 2930.14 1175.61 2959.14 1199.61 2886.14" fill="none" stroke="#1c1c1c" stroke-miterlimit="10"/><polygon points="1227.61 571.14 1006.61 615.14 1193.61 613.14 1227.61 571.14" fill="none" stroke="#000" stroke-miterlimit="10"/><polygon points="1231.61 2572.14 1143.61 2449.14 1035.61 2572.14 1231.61 2572.14" fill="none" stroke="#000" stroke-miterlimit="10"/><polygon points="1191.61 1673.14 1056.61 1649.14 1087.61 1877.14 1191.61 1673.14" fill="none" stroke="#000" stroke-miterlimit="10"/><polygon points="1191.61 1673.14 1101.61 1521.14 1056.61 1649.14 1191.61 1673.14" fill="none" stroke="#000" stroke-miterlimit="10"/><polygon points="1196.61 3453.14 1040.61 3559.14 1186.61 3599.14 1196.61 3453.14" fill="none" stroke="#353535" stroke-miterlimit="10"/><polygon points="1211.61 3182.14 1104.61 3224.14 1107.61 3236.14 1211.61 3182.14" fill="none" stroke="#1c1c1c" stroke-miterlimit="10"/><polygon points="1214.61 885.14 1127.61 803.14 989.61 958.14 1214.61 885.14" fill="none" stroke="#000" stroke-miterlimit="10"/><polygon points="1218.61 2353.14 945.61 2316.14 1143.61 2449.14 1218.61 2353.14" fill="none" stroke="#000" stroke-miterlimit="10"/><polygon points="1211.61 3182.14 1137.61 3149.14 1104.61 3224.14 1211.61 3182.14" fill="none" stroke="#1c1c1c" stroke-miterlimit="10"/><polygon points="1087.61 1877.14 1056.61 1649.14 989.61 1701.14 1087.61 1877.14" fill="none" stroke="#000" stroke-miterlimit="10"/><polygon points="1199.61 2886.14 1167.61 2847.14 1161.61 2874.14 1199.61 2886.14" fill="none" stroke="#000" stroke-miterlimit="10"/><polygon points="1199.61 2886.14 1161.61 2874.14 1154.61 2930.14 1199.61 2886.14" fill="none" stroke="#000" stroke-miterlimit="10"/><polygon points="1203.61 3.15 971.61 37.15 1004.61 95.14 1203.61 3.15" fill="none" stroke="#000" stroke-miterlimit="10"/><polygon points="1127.61 803.14 1069.61 798.14 989.61 958.14 1127.61 803.14" fill="none" stroke="#000" stroke-miterlimit="10"/><polygon points="1193.61 3021.14 990.61 3118.14 1137.61 3149.14 1193.61 3021.14" fill="none" stroke="#1c1c1c" stroke-miterlimit="10"/><polygon points="1196.61 3453.14 987.61 3390.14 1040.61 3559.14 1196.61 3453.14" fill="none" stroke="#353535" stroke-miterlimit="10"/><polygon points="1178.61 664.14 1069.61 798.14 1127.61 803.14 1178.61 664.14" fill="none" stroke="#000" stroke-miterlimit="10"/><polygon points="1193.61 3021.14 1175.61 2959.14 990.61 3118.14 1193.61 3021.14" fill="none" stroke="#1c1c1c" stroke-miterlimit="10"/><polygon points="1193.61 613.14 1006.61 615.14 1178.61 664.14 1193.61 613.14" fill="none" stroke="#000" stroke-miterlimit="10"/><polygon points="1175.61 2959.14 1154.61 2930.14 990.61 3118.14 1175.61 2959.14" fill="none" stroke="#1c1c1c" stroke-miterlimit="10"/><polygon points="1154.61 2930.14 1014.61 2886.14 990.61 3118.14 1154.61 2930.14" fill="none" stroke="#1c1c1c" stroke-miterlimit="10"/><polygon points="1178.61 664.14 1006.61 615.14 1069.61 798.14 1178.61 664.14" fill="none" stroke="#000" stroke-miterlimit="10"/><polygon points="1087.61 1877.14 989.61 1701.14 1045.61 1875.14 1087.61 1877.14" fill="none" stroke="#000" stroke-miterlimit="10"/><polygon points="1069.61 798.14 1006.61 615.14 1036.61 792.14 1069.61 798.14" fill="none" stroke="#000" stroke-miterlimit="10"/><polygon points="1167.61 2847.14 1014.61 2886.14 1161.61 2874.14 1167.61 2847.14" fill="none" stroke="#000" stroke-miterlimit="10"/><polygon points="1167.61 2847.14 1024.61 2732.14 1014.61 2886.14 1167.61 2847.14" fill="none" stroke="#000" stroke-miterlimit="10"/><polygon points="1161.61 2874.14 1014.61 2886.14 1154.61 2930.14 1161.61 2874.14" fill="none" stroke="#000" stroke-miterlimit="10"/><polygon points="1107.61 3236.14 1021.61 3232.14 987.61 3390.14 1107.61 3236.14" fill="none" stroke="#1c1c1c" stroke-miterlimit="10"/><polygon points="1143.61 2449.14 945.61 2316.14 1035.61 2572.14 1143.61 2449.14" fill="none" stroke="#000" stroke-miterlimit="10"/><polygon points="1036.61 792.14 1006.61 615.14 975.61 759.14 1036.61 792.14" fill="none" stroke="#000" stroke-miterlimit="10"/><polygon points="1137.61 3149.14 1003.61 3167.14 1104.61 3224.14 1137.61 3149.14" fill="none" stroke="#1c1c1c" stroke-miterlimit="10"/><polygon points="1137.61 3149.14 990.61 3118.14 1003.61 3167.14 1137.61 3149.14" fill="none" stroke="#1c1c1c" stroke-miterlimit="10"/><polygon points="995.61 1453.14 874.61 1144.14 816.61 1376.14 995.61 1453.14" fill="none" stroke="#000" stroke-miterlimit="10"/><polygon points="1035.61 2572.14 945.61 2316.14 845.61 2397.14 1035.61 2572.14" fill="none" stroke="#000" stroke-miterlimit="10"/><polygon points="1069.61 798.14 1036.61 792.14 989.61 958.14 1069.61 798.14" fill="none" stroke="#000" stroke-miterlimit="10"/><polygon points="1101.61 1521.14 995.61 1453.14 1056.61 1649.14 1101.61 1521.14" fill="none" stroke="#000" stroke-miterlimit="10"/><polygon points="1104.61 3224.14 1003.61 3167.14 1021.61 3232.14 1104.61 3224.14" fill="none" stroke="#1c1c1c" stroke-miterlimit="10"/><polygon points="1106.61 2018.14 1082.61 1949.14 1044.61 1995.14 1106.61 2018.14" fill="none" stroke="#000" stroke-miterlimit="10"/><polygon points="1106.61 2018.14 1044.61 1995.14 1036.61 2064.14 1106.61 2018.14" fill="none" stroke="#000" stroke-miterlimit="10"/><polygon points="1107.61 3236.14 1104.61 3224.14 1021.61 3232.14 1107.61 3236.14" fill="none" stroke="#1c1c1c" stroke-miterlimit="10"/><polygon points="1087.61 1877.14 1045.61 1875.14 1082.61 1949.14 1087.61 1877.14" fill="none" stroke="#000" stroke-miterlimit="10"/><polygon points="1036.61 2064.14 846.61 2105.14 945.61 2316.14 1036.61 2064.14" fill="none" stroke="#000" stroke-miterlimit="10"/><polygon points="1006.61 615.14 960.61 299.14 732.61 436.14 1006.61 615.14" fill="none" stroke="#000" stroke-miterlimit="10"/><polygon points="1014.61 2886.14 878.61 3094.14 990.61 3118.14 1014.61 2886.14" fill="none" stroke="#1c1c1c" stroke-miterlimit="10"/><polygon points="1082.61 1949.14 1045.61 1875.14 1044.61 1995.14 1082.61 1949.14" fill="none" stroke="#000" stroke-miterlimit="10"/><polygon points="995.61 1453.14 836.61 1519.14 826.61 1584.14 995.61 1453.14" fill="none" stroke="#000" stroke-miterlimit="10"/><polygon points="1040.61 3559.14 987.61 3390.14 894.61 3520.14 1040.61 3559.14" fill="none" stroke="#353535" stroke-miterlimit="10"/><polygon points="1045.61 1875.14 989.61 1701.14 874.61 1786.14 1045.61 1875.14" fill="none" stroke="#000" stroke-miterlimit="10"/><polygon points="1056.61 1649.14 995.61 1453.14 826.61 1584.14 1056.61 1649.14" fill="none" stroke="#000" stroke-miterlimit="10"/><polygon points="1056.61 1649.14 826.61 1584.14 989.61 1701.14 1056.61 1649.14" fill="none" stroke="#000" stroke-miterlimit="10"/><polygon points="945.61 2316.14 846.61 2105.14 821.61 2241.14 945.61 2316.14" fill="none" stroke="#000" stroke-miterlimit="10"/><polygon points="1036.61 792.14 975.61 759.14 989.61 958.14 1036.61 792.14" fill="none" stroke="#000" stroke-miterlimit="10"/><polygon points="1040.61 3559.14 894.61 3520.14 947.61 3584.14 1040.61 3559.14" fill="none" stroke="#353535" stroke-miterlimit="10"/><polygon points="1045.61 1875.14 944.61 2020.14 1044.61 1995.14 1045.61 1875.14" fill="none" stroke="#000" stroke-miterlimit="10"/><polygon points="1001.61 1041.14 871.61 1126.14 874.61 1144.14 1001.61 1041.14" fill="none" stroke="#000" stroke-miterlimit="10"/><polygon points="1035.61 2572.14 659.61 2538.14 1024.61 2732.14 1035.61 2572.14" fill="none" stroke="#000" stroke-miterlimit="10"/><polygon points="1036.61 2064.14 944.61 2020.14 846.61 2105.14 1036.61 2064.14" fill="none" stroke="#000" stroke-miterlimit="10"/><polygon points="1044.61 1995.14 944.61 2020.14 1036.61 2064.14 1044.61 1995.14" fill="none" stroke="#000" stroke-miterlimit="10"/><polygon points="1045.61 1875.14 874.61 1786.14 944.61 2020.14 1045.61 1875.14" fill="none" stroke="#000" stroke-miterlimit="10"/><polygon points="1021.61 3232.14 914.61 3187.14 987.61 3390.14 1021.61 3232.14" fill="none" stroke="#1c1c1c" stroke-miterlimit="10"/><polygon points="1040.61 3559.14 947.61 3584.14 955.61 3603.14 1040.61 3559.14" fill="none" stroke="#353535" stroke-miterlimit="10"/><polygon points="1006.61 615.14 732.61 436.14 717.61 567.14 1006.61 615.14" fill="none" stroke="#000" stroke-miterlimit="10"/><polygon points="1035.61 2572.14 845.61 2397.14 659.61 2538.14 1035.61 2572.14" fill="none" stroke="#000" stroke-miterlimit="10"/><polygon points="971.61 37.15 740.61 3.15 872.61 73.14 971.61 37.15" fill="none" stroke="#000" stroke-miterlimit="10"/><polygon points="1014.61 2886.14 659.61 2538.14 460.61 2810.14 1014.61 2886.14" fill="none" stroke="#000" stroke-miterlimit="10"/><polygon points="1021.61 3232.14 1003.61 3167.14 914.61 3187.14 1021.61 3232.14" fill="none" stroke="#1c1c1c" stroke-miterlimit="10"/><polygon points="1024.61 2732.14 659.61 2538.14 1014.61 2886.14 1024.61 2732.14" fill="none" stroke="#000" stroke-miterlimit="10"/><polygon points="987.61 3390.14 914.61 3187.14 784.61 3354.14 987.61 3390.14" fill="none" stroke="#1c1c1c" stroke-miterlimit="10"/><polygon points="1004.61 95.14 925.61 200.15 979.61 197.15 1004.61 95.14" fill="none" stroke="#000" stroke-miterlimit="10"/><polygon points="1014.61 2886.14 460.61 2810.14 878.61 3094.14 1014.61 2886.14" fill="none" stroke="#000" stroke-miterlimit="10"/><polygon points="944.61 2020.14 874.61 1786.14 853.61 2031.14 944.61 2020.14" fill="none" stroke="#000" stroke-miterlimit="10"/><polygon points="979.61 197.15 925.61 200.15 960.61 299.14 979.61 197.15" fill="none" stroke="#000" stroke-miterlimit="10"/><polygon points="989.61 958.14 975.61 759.14 626.61 729.14 989.61 958.14" fill="none" stroke="#000" stroke-miterlimit="10"/><polygon points="1004.61 95.14 872.61 73.14 925.61 200.15 1004.61 95.14" fill="none" stroke="#000" stroke-miterlimit="10"/><polygon points="1006.61 615.14 717.61 567.14 975.61 759.14 1006.61 615.14" fill="none" stroke="#000" stroke-miterlimit="10"/><polygon points="1003.61 3167.14 990.61 3118.14 914.61 3187.14 1003.61 3167.14" fill="none" stroke="#1c1c1c" stroke-miterlimit="10"/><polygon points="1004.61 95.14 971.61 37.15 872.61 73.14 1004.61 95.14" fill="none" stroke="#000" stroke-miterlimit="10"/><polygon points="1001.61 1041.14 989.61 958.14 871.61 1126.14 1001.61 1041.14" fill="none" stroke="#000" stroke-miterlimit="10"/><polygon points="989.61 958.14 626.61 729.14 659.61 1094.14 989.61 958.14" fill="none" stroke="#000" stroke-miterlimit="10"/><polygon points="995.61 1453.14 816.61 1376.14 836.61 1519.14 995.61 1453.14" fill="none" stroke="#000" stroke-miterlimit="10"/><polygon points="989.61 1701.14 826.61 1584.14 874.61 1786.14 989.61 1701.14" fill="none" stroke="#000" stroke-miterlimit="10"/><polygon points="990.61 3118.14 878.61 3094.14 914.61 3187.14 990.61 3118.14" fill="none" stroke="#1c1c1c" stroke-miterlimit="10"/><polygon points="989.61 958.14 659.61 1094.14 871.61 1126.14 989.61 958.14" fill="none" stroke="#000" stroke-miterlimit="10"/><polygon points="614.61 3603.14 367.61 3533.14 3.61 3603.14 614.61 3603.14" fill="none" stroke="#353535" stroke-miterlimit="10"/><polygon points="987.61 3390.14 784.61 3354.14 894.61 3520.14 987.61 3390.14" fill="none" stroke="#353535" stroke-miterlimit="10"/><polygon points="836.61 1519.14 816.61 1376.14 797.61 1467.14 836.61 1519.14" fill="none" stroke="#000" stroke-miterlimit="10"/><polygon points="874.61 1786.14 826.61 1584.14 770.61 1705.14 874.61 1786.14" fill="none" stroke="#000" stroke-miterlimit="10"/><polygon points="878.61 3094.14 460.61 2810.14 539.61 3082.14 878.61 3094.14" fill="none" stroke="#1c1c1c" stroke-miterlimit="10"/><polygon points="960.61 299.14 925.61 200.15 886.61 220.15 960.61 299.14" fill="none" stroke="#000" stroke-miterlimit="10"/><polygon points="925.61 200.15 872.61 73.14 886.61 198.15 925.61 200.15" fill="none" stroke="#000" stroke-miterlimit="10"/><polygon points="975.61 759.14 717.61 567.14 626.61 729.14 975.61 759.14" fill="none" stroke="#000" stroke-miterlimit="10"/><polygon points="874.61 1786.14 730.61 1847.14 853.61 2031.14 874.61 1786.14" fill="none" stroke="#000" stroke-miterlimit="10"/><polygon points="944.61 2020.14 853.61 2031.14 846.61 2105.14 944.61 2020.14" fill="none" stroke="#000" stroke-miterlimit="10"/><polygon points="947.61 3584.14 894.61 3520.14 614.61 3603.14 947.61 3584.14" fill="none" stroke="#353535" stroke-miterlimit="10"/><polygon points="955.61 3603.14 947.61 3584.14 614.61 3603.14 955.61 3603.14" fill="none" stroke="#353535" stroke-miterlimit="10"/><polygon points="960.61 299.14 886.61 220.15 732.61 436.14 960.61 299.14" fill="none" stroke="#000" stroke-miterlimit="10"/><polygon points="945.61 2316.14 825.61 2360.14 845.61 2397.14 945.61 2316.14" fill="none" stroke="#000" stroke-miterlimit="10"/><polygon points="878.61 3094.14 539.61 3082.14 706.61 3162.14 878.61 3094.14" fill="none" stroke="#1c1c1c" stroke-miterlimit="10"/><polygon points="945.61 2316.14 821.61 2241.14 825.61 2360.14 945.61 2316.14" fill="none" stroke="#000" stroke-miterlimit="10"/><polygon points="925.61 200.15 886.61 198.15 886.61 220.15 925.61 200.15" fill="none" stroke="#000" stroke-miterlimit="10"/><polygon points="914.61 3187.14 878.61 3094.14 706.61 3162.14 914.61 3187.14" fill="none" stroke="#1c1c1c" stroke-miterlimit="10"/><polygon points="914.61 3187.14 706.61 3162.14 784.61 3354.14 914.61 3187.14" fill="none" stroke="#1c1c1c" stroke-miterlimit="10"/><polygon points="872.61 73.14 740.61 3.15 786.61 79.14 872.61 73.14" fill="none" stroke="#000" stroke-miterlimit="10"/><polygon points="874.61 1144.14 665.61 1116.14 816.61 1376.14 874.61 1144.14" fill="none" stroke="#000" stroke-miterlimit="10"/><polygon points="886.61 220.15 649.61 163.15 732.61 436.14 886.61 220.15" fill="none" stroke="#000" stroke-miterlimit="10"/><polygon points="886.61 198.15 872.61 73.14 786.61 79.14 886.61 198.15" fill="none" stroke="#000" stroke-miterlimit="10"/><polygon points="894.61 3520.14 784.61 3354.14 656.61 3483.14 894.61 3520.14" fill="none" stroke="#353535" stroke-miterlimit="10"/><polygon points="894.61 3520.14 656.61 3483.14 614.61 3603.14 894.61 3520.14" fill="none" stroke="#353535" stroke-miterlimit="10"/><polygon points="826.61 1584.14 749.61 1670.14 770.61 1705.14 826.61 1584.14" fill="none" stroke="#000" stroke-miterlimit="10"/><polygon points="886.61 220.15 730.61 110.14 649.61 163.15 886.61 220.15" fill="none" stroke="#000" stroke-miterlimit="10"/><polygon points="886.61 198.15 730.61 110.14 886.61 220.15 886.61 198.15" fill="none" stroke="#000" stroke-miterlimit="10"/><polygon points="886.61 198.15 786.61 79.14 730.61 110.14 886.61 198.15" fill="none" stroke="#000" stroke-miterlimit="10"/><polygon points="871.61 1126.14 659.61 1094.14 665.61 1116.14 871.61 1126.14" fill="none" stroke="#000" stroke-miterlimit="10"/><polygon points="874.61 1786.14 751.61 1767.14 730.61 1847.14 874.61 1786.14" fill="none" stroke="#000" stroke-miterlimit="10"/><polygon points="874.61 1786.14 770.61 1705.14 751.61 1767.14 874.61 1786.14" fill="none" stroke="#000" stroke-miterlimit="10"/><polygon points="874.61 1144.14 871.61 1126.14 665.61 1116.14 874.61 1144.14" fill="none" stroke="#000" stroke-miterlimit="10"/><polygon points="845.61 2397.14 638.61 2425.14 659.61 2538.14 845.61 2397.14" fill="none" stroke="#000" stroke-miterlimit="10"/><polygon points="846.61 2105.14 698.61 2150.14 821.61 2241.14 846.61 2105.14" fill="none" stroke="#000" stroke-miterlimit="10"/><polygon points="853.61 2031.14 730.61 1847.14 591.61 2045.14 853.61 2031.14" fill="none" stroke="#000" stroke-miterlimit="10"/><polygon points="853.61 2031.14 698.61 2150.14 846.61 2105.14 853.61 2031.14" fill="none" stroke="#000" stroke-miterlimit="10"/><polygon points="853.61 2031.14 591.61 2045.14 698.61 2150.14 853.61 2031.14" fill="none" stroke="#000" stroke-miterlimit="10"/><polygon points="845.61 2397.14 825.61 2360.14 638.61 2425.14 845.61 2397.14" fill="none" stroke="#000" stroke-miterlimit="10"/><polygon points="836.61 1519.14 756.61 1559.14 826.61 1584.14 836.61 1519.14" fill="none" stroke="#000" stroke-miterlimit="10"/><polygon points="816.61 1376.14 665.61 1116.14 557.61 1420.14 816.61 1376.14" fill="none" stroke="#000" stroke-miterlimit="10"/><polygon points="825.61 2360.14 821.61 2241.14 602.61 2385.14 825.61 2360.14" fill="none" stroke="#000" stroke-miterlimit="10"/><polygon points="836.61 1519.14 797.61 1467.14 756.61 1559.14 836.61 1519.14" fill="none" stroke="#000" stroke-miterlimit="10"/><polygon points="816.61 1376.14 743.61 1466.14 797.61 1467.14 816.61 1376.14" fill="none" stroke="#000" stroke-miterlimit="10"/><polygon points="821.61 2241.14 698.61 2150.14 602.61 2385.14 821.61 2241.14" fill="none" stroke="#000" stroke-miterlimit="10"/><polygon points="825.61 2360.14 602.61 2385.14 638.61 2425.14 825.61 2360.14" fill="none" stroke="#000" stroke-miterlimit="10"/><polygon points="826.61 1584.14 756.61 1559.14 749.61 1670.14 826.61 1584.14" fill="none" stroke="#000" stroke-miterlimit="10"/><polygon points="797.61 1467.14 743.61 1466.14 756.61 1559.14 797.61 1467.14" fill="none" stroke="#000" stroke-miterlimit="10"/><polygon points="816.61 1376.14 557.61 1420.14 743.61 1466.14 816.61 1376.14" fill="none" stroke="#000" stroke-miterlimit="10"/><polygon points="732.61 436.14 676.61 500.14 717.61 567.14 732.61 436.14" fill="none" stroke="#000" stroke-miterlimit="10"/><polygon points="784.61 3354.14 706.61 3162.14 535.61 3265.14 784.61 3354.14" fill="none" stroke="#1c1c1c" stroke-miterlimit="10"/><polygon points="659.61 1094.14 626.61 729.14 578.61 1102.14 659.61 1094.14" fill="none" stroke="#000" stroke-miterlimit="10"/><polygon points="784.61 3354.14 535.61 3265.14 560.61 3382.14 784.61 3354.14" fill="none" stroke="#353535" stroke-miterlimit="10"/><polygon points="786.61 79.14 740.61 3.15 730.61 110.14 786.61 79.14" fill="none" stroke="#000" stroke-miterlimit="10"/><polygon points="626.61 729.14 460.61 1045.14 578.61 1102.14 626.61 729.14" fill="none" stroke="#1c1c1c" stroke-miterlimit="10"/><polygon points="784.61 3354.14 560.61 3382.14 656.61 3483.14 784.61 3354.14" fill="none" stroke="#353535" stroke-miterlimit="10"/><polygon points="756.61 1559.14 627.61 1652.14 749.61 1670.14 756.61 1559.14" fill="none" stroke="#000" stroke-miterlimit="10"/><polygon points="770.61 1705.14 749.61 1670.14 751.61 1767.14 770.61 1705.14" fill="none" stroke="#000" stroke-miterlimit="10"/><polygon points="665.61 1116.14 578.61 1102.14 557.61 1420.14 665.61 1116.14" fill="none" stroke="#000" stroke-miterlimit="10"/><polygon points="730.61 1847.14 518.61 1936.14 591.61 2045.14 730.61 1847.14" fill="none" stroke="#000" stroke-miterlimit="10"/><polygon points="732.61 436.14 649.61 163.15 452.61 196.15 732.61 436.14" fill="none" stroke="#000" stroke-miterlimit="10"/><polygon points="743.61 1466.14 516.61 1564.14 627.61 1652.14 743.61 1466.14" fill="none" stroke="#000" stroke-miterlimit="10"/><polygon points="751.61 1767.14 749.61 1670.14 627.61 1652.14 751.61 1767.14" fill="none" stroke="#000" stroke-miterlimit="10"/><polygon points="756.61 1559.14 743.61 1466.14 627.61 1652.14 756.61 1559.14" fill="none" stroke="#000" stroke-miterlimit="10"/><polygon points="732.61 436.14 452.61 196.15 676.61 500.14 732.61 436.14" fill="none" stroke="#000" stroke-miterlimit="10"/><polygon points="743.61 1466.14 557.61 1420.14 516.61 1564.14 743.61 1466.14" fill="none" stroke="#000" stroke-miterlimit="10"/><polygon points="751.61 1767.14 627.61 1652.14 730.61 1847.14 751.61 1767.14" fill="none" stroke="#000" stroke-miterlimit="10"/><polygon points="539.61 3082.14 460.61 2810.14 441.61 3009.14 539.61 3082.14" fill="none" stroke="#1c1c1c" stroke-miterlimit="10"/><polygon points="740.61 3.15 649.61 163.15 730.61 110.14 740.61 3.15" fill="none" stroke="#000" stroke-miterlimit="10"/><polygon points="740.61 3.15 486.61 3.15 649.61 163.15 740.61 3.15" fill="none" stroke="#000" stroke-miterlimit="10"/><polygon points="730.61 1847.14 627.61 1652.14 518.61 1936.14 730.61 1847.14" fill="none" stroke="#000" stroke-miterlimit="10"/><polygon points="367.61 3533.14 126.61 3543.14 3.61 3603.14 367.61 3533.14" fill="none" stroke="#353535" stroke-miterlimit="10"/><polygon points="676.61 500.14 452.61 196.15 340.61 404.14 676.61 500.14" fill="none" stroke="#000" stroke-miterlimit="10"/><polygon points="717.61 567.14 676.61 500.14 626.61 729.14 717.61 567.14" fill="none" stroke="#000" stroke-miterlimit="10"/><polygon points="698.61 2150.14 437.61 2374.14 602.61 2385.14 698.61 2150.14" fill="none" stroke="#000" stroke-miterlimit="10"/><polygon points="698.61 2150.14 591.61 2045.14 437.61 2374.14 698.61 2150.14" fill="none" stroke="#000" stroke-miterlimit="10"/><polygon points="706.61 3162.14 539.61 3082.14 535.61 3265.14 706.61 3162.14" fill="none" stroke="#1c1c1c" stroke-miterlimit="10"/><polygon points="659.61 2538.14 385.61 2744.14 460.61 2810.14 659.61 2538.14" fill="none" stroke="#000" stroke-miterlimit="10"/><polygon points="627.61 1652.14 383.61 1707.14 518.61 1936.14 627.61 1652.14" fill="none" stroke="#1c1c1c" stroke-miterlimit="10"/><polygon points="659.61 2538.14 373.61 2540.14 385.61 2744.14 659.61 2538.14" fill="none" stroke="#000" stroke-miterlimit="10"/><polygon points="676.61 500.14 334.61 506.14 626.61 729.14 676.61 500.14" fill="none" stroke="#000" stroke-miterlimit="10"/><polygon points="676.61 500.14 340.61 404.14 334.61 506.14 676.61 500.14" fill="none" stroke="#000" stroke-miterlimit="10"/><polygon points="626.61 729.14 289.61 798.14 460.61 1045.14 626.61 729.14" fill="none" stroke="#1c1c1c" stroke-miterlimit="10"/><polygon points="626.61 729.14 334.61 506.14 309.61 633.14 626.61 729.14" fill="none" stroke="#1c1c1c" stroke-miterlimit="10"/><polygon points="659.61 2538.14 493.61 2449.14 373.61 2540.14 659.61 2538.14" fill="none" stroke="#000" stroke-miterlimit="10"/><polygon points="659.61 2538.14 638.61 2425.14 514.61 2428.14 659.61 2538.14" fill="none" stroke="#000" stroke-miterlimit="10"/><polygon points="659.61 2538.14 514.61 2428.14 493.61 2449.14 659.61 2538.14" fill="none" stroke="#000" stroke-miterlimit="10"/><polygon points="665.61 1116.14 659.61 1094.14 578.61 1102.14 665.61 1116.14" fill="none" stroke="#000" stroke-miterlimit="10"/><polygon points="627.61 1652.14 460.61 1618.14 383.61 1707.14 627.61 1652.14" fill="none" stroke="#1c1c1c" stroke-miterlimit="10"/><polygon points="649.61 163.15 486.61 3.15 452.61 196.15 649.61 163.15" fill="none" stroke="#000" stroke-miterlimit="10"/><polygon points="656.61 3483.14 426.61 3503.14 614.61 3603.14 656.61 3483.14" fill="none" stroke="#353535" stroke-miterlimit="10"/><polygon points="656.61 3483.14 560.61 3382.14 426.61 3503.14 656.61 3483.14" fill="none" stroke="#353535" stroke-miterlimit="10"/><polygon points="578.61 1102.14 310.61 1410.14 557.61 1420.14 578.61 1102.14" fill="none" stroke="#1c1c1c" stroke-miterlimit="10"/><polygon points="578.61 1102.14 460.61 1045.14 310.61 1410.14 578.61 1102.14" fill="none" stroke="#1c1c1c" stroke-miterlimit="10"/><polygon points="638.61 2425.14 602.61 2385.14 514.61 2428.14 638.61 2425.14" fill="none" stroke="#000" stroke-miterlimit="10"/><polygon points="518.61 1936.14 383.61 1707.14 468.61 1938.14 518.61 1936.14" fill="none" stroke="#1c1c1c" stroke-miterlimit="10"/><polygon points="627.61 1652.14 516.61 1564.14 460.61 1618.14 627.61 1652.14" fill="none" stroke="#1c1c1c" stroke-miterlimit="10"/><polygon points="626.61 729.14 309.61 633.14 289.61 798.14 626.61 729.14" fill="none" stroke="#1c1c1c" stroke-miterlimit="10"/><polygon points="591.61 2045.14 468.61 1938.14 437.61 2374.14 591.61 2045.14" fill="none" stroke="#1c1c1c" stroke-miterlimit="10"/><polygon points="602.61 2385.14 437.61 2374.14 514.61 2428.14 602.61 2385.14" fill="none" stroke="#1c1c1c" stroke-miterlimit="10"/><polygon points="614.61 3603.14 426.61 3503.14 367.61 3533.14 614.61 3603.14" fill="none" stroke="#353535" stroke-miterlimit="10"/><polygon points="539.61 3082.14 455.61 3246.14 535.61 3265.14 539.61 3082.14" fill="none" stroke="#1c1c1c" stroke-miterlimit="10"/><polygon points="468.61 1938.14 116.61 2168.14 437.61 2374.14 468.61 1938.14" fill="none" stroke="#1c1c1c" stroke-miterlimit="10"/><polygon points="591.61 2045.14 518.61 1936.14 468.61 1938.14 591.61 2045.14" fill="none" stroke="#1c1c1c" stroke-miterlimit="10"/><polygon points="460.61 1045.14 217.61 1337.14 310.61 1410.14 460.61 1045.14" fill="none" stroke="#1c1c1c" stroke-miterlimit="10"/><polygon points="460.61 1045.14 264.61 1052.14 217.61 1337.14 460.61 1045.14" fill="none" stroke="#1c1c1c" stroke-miterlimit="10"/><polygon points="486.61 3.15 382.61 152.15 452.61 196.15 486.61 3.15" fill="none" stroke="#1c1c1c" stroke-miterlimit="10"/><polygon points="539.61 3082.14 377.61 3130.14 455.61 3246.14 539.61 3082.14" fill="none" stroke="#1c1c1c" stroke-miterlimit="10"/><polygon points="557.61 1420.14 310.61 1410.14 516.61 1564.14 557.61 1420.14" fill="none" stroke="#1c1c1c" stroke-miterlimit="10"/><polygon points="560.61 3382.14 535.61 3265.14 455.61 3246.14 560.61 3382.14" fill="none" stroke="#353535" stroke-miterlimit="10"/><polygon points="560.61 3382.14 455.61 3246.14 426.61 3503.14 560.61 3382.14" fill="none" stroke="#353535" stroke-miterlimit="10"/><polygon points="539.61 3082.14 441.61 3009.14 377.61 3130.14 539.61 3082.14" fill="none" stroke="#1c1c1c" stroke-miterlimit="10"/><polygon points="516.61 1564.14 310.61 1410.14 460.61 1618.14 516.61 1564.14" fill="none" stroke="#1c1c1c" stroke-miterlimit="10"/><polygon points="514.61 2428.14 437.61 2374.14 493.61 2449.14 514.61 2428.14" fill="none" stroke="#1c1c1c" stroke-miterlimit="10"/><polygon points="455.61 3246.14 213.61 3385.14 426.61 3503.14 455.61 3246.14" fill="none" stroke="#353535" stroke-miterlimit="10"/><polygon points="460.61 2810.14 341.61 2816.14 441.61 3009.14 460.61 2810.14" fill="none" stroke="#1c1c1c" stroke-miterlimit="10"/><polygon points="437.61 2374.14 116.61 2168.14 128.61 2309.14 437.61 2374.14" fill="none" stroke="#1c1c1c" stroke-miterlimit="10"/><polygon points="460.61 1045.14 289.61 798.14 264.61 1052.14 460.61 1045.14" fill="none" stroke="#1c1c1c" stroke-miterlimit="10"/><polygon points="460.61 1618.14 310.61 1410.14 379.61 1651.14 460.61 1618.14" fill="none" stroke="#1c1c1c" stroke-miterlimit="10"/><polygon points="460.61 1618.14 379.61 1651.14 383.61 1707.14 460.61 1618.14" fill="none" stroke="#1c1c1c" stroke-miterlimit="10"/><polygon points="468.61 1938.14 383.61 1707.14 266.61 1743.14 468.61 1938.14" fill="none" stroke="#1c1c1c" stroke-miterlimit="10"/><polygon points="468.61 1938.14 203.61 1855.14 116.61 2168.14 468.61 1938.14" fill="none" stroke="#1c1c1c" stroke-miterlimit="10"/><polygon points="493.61 2449.14 437.61 2374.14 373.61 2540.14 493.61 2449.14" fill="none" stroke="#1c1c1c" stroke-miterlimit="10"/><polygon points="468.61 1938.14 266.61 1743.14 203.61 1855.14 468.61 1938.14" fill="none" stroke="#1c1c1c" stroke-miterlimit="10"/><polygon points="486.61 3.15 138.61 3.15 382.61 152.15 486.61 3.15" fill="none" stroke="#1c1c1c" stroke-miterlimit="10"/><polygon points="426.61 3503.14 213.61 3385.14 367.61 3533.14 426.61 3503.14" fill="none" stroke="#353535" stroke-miterlimit="10"/><polygon points="452.61 196.15 382.61 152.15 340.61 404.14 452.61 196.15" fill="none" stroke="#1c1c1c" stroke-miterlimit="10"/><polygon points="460.61 2810.14 385.61 2787.14 341.61 2816.14 460.61 2810.14" fill="none" stroke="#1c1c1c" stroke-miterlimit="10"/><polygon points="460.61 2810.14 385.61 2744.14 385.61 2787.14 460.61 2810.14" fill="none" stroke="#1c1c1c" stroke-miterlimit="10"/><polygon points="441.61 3009.14 341.61 2816.14 219.61 2872.14 441.61 3009.14" fill="none" stroke="#1c1c1c" stroke-miterlimit="10"/><polygon points="455.61 3246.14 377.61 3130.14 213.61 3385.14 455.61 3246.14" fill="none" stroke="#1c1c1c" stroke-miterlimit="10"/><polygon points="385.61 2744.14 373.61 2540.14 238.61 2662.14 385.61 2744.14" fill="none" stroke="#353535" stroke-miterlimit="10"/><polygon points="367.61 3533.14 213.61 3385.14 216.61 3462.14 367.61 3533.14" fill="none" stroke="#353535" stroke-miterlimit="10"/><polygon points="379.61 1651.14 310.61 1410.14 194.61 1575.14 379.61 1651.14" fill="none" stroke="#353535" stroke-miterlimit="10"/><polygon points="441.61 3009.14 219.61 2872.14 196.61 3019.14 441.61 3009.14" fill="none" stroke="#1c1c1c" stroke-miterlimit="10"/><polygon points="441.61 3009.14 196.61 3019.14 377.61 3130.14 441.61 3009.14" fill="none" stroke="#1c1c1c" stroke-miterlimit="10"/><polygon points="379.61 1651.14 232.61 1638.14 334.61 1668.14 379.61 1651.14" fill="none" stroke="#353535" stroke-miterlimit="10"/><polygon points="379.61 1651.14 194.61 1575.14 232.61 1638.14 379.61 1651.14" fill="none" stroke="#353535" stroke-miterlimit="10"/><polygon points="437.61 2374.14 128.61 2309.14 373.61 2540.14 437.61 2374.14" fill="none" stroke="#1c1c1c" stroke-miterlimit="10"/><polygon points="382.61 152.15 184.61 151.15 340.61 404.14 382.61 152.15" fill="none" stroke="#353535" stroke-miterlimit="10"/><polygon points="382.61 152.15 138.61 3.15 184.61 151.15 382.61 152.15" fill="none" stroke="#353535" stroke-miterlimit="10"/><polygon points="203.61 1855.14 73.61 1951.14 116.61 2168.14 203.61 1855.14" fill="none" stroke="#353535" stroke-miterlimit="10"/><polygon points="264.61 1052.14 154.61 1300.14 217.61 1337.14 264.61 1052.14" fill="none" stroke="#353535" stroke-miterlimit="10"/><polygon points="309.61 633.14 257.61 782.14 289.61 798.14 309.61 633.14" fill="none" stroke="#353535" stroke-miterlimit="10"/><polygon points="340.61 404.14 305.61 455.14 334.61 506.14 340.61 404.14" fill="none" stroke="#353535" stroke-miterlimit="10"/><polygon points="373.61 2540.14 128.61 2309.14 143.61 2553.14 373.61 2540.14" fill="none" stroke="#353535" stroke-miterlimit="10"/><polygon points="377.61 3130.14 155.61 3122.14 213.61 3385.14 377.61 3130.14" fill="none" stroke="#353535" stroke-miterlimit="10"/><polygon points="383.61 1707.14 379.61 1651.14 334.61 1668.14 383.61 1707.14" fill="none" stroke="#353535" stroke-miterlimit="10"/><polygon points="383.61 1707.14 334.61 1668.14 266.61 1743.14 383.61 1707.14" fill="none" stroke="#353535" stroke-miterlimit="10"/><polygon points="385.61 2744.14 341.61 2816.14 385.61 2787.14 385.61 2744.14" fill="none" stroke="#353535" stroke-miterlimit="10"/><polygon points="385.61 2744.14 238.61 2662.14 341.61 2816.14 385.61 2744.14" fill="none" stroke="#353535" stroke-miterlimit="10"/><polygon points="367.61 3533.14 216.61 3462.14 126.61 3543.14 367.61 3533.14" fill="none" stroke="#353535" stroke-miterlimit="10"/><polygon points="377.61 3130.14 196.61 3019.14 155.61 3122.14 377.61 3130.14" fill="none" stroke="#353535" stroke-miterlimit="10"/><polygon points="373.61 2540.14 143.61 2553.14 238.61 2662.14 373.61 2540.14" fill="none" stroke="#353535" stroke-miterlimit="10"/><polygon points="213.61 3385.14 155.61 3122.14 75.61 3230.14 213.61 3385.14" fill="none" stroke="#353535" stroke-miterlimit="10"/><polygon points="213.61 3385.14 75.61 3230.14 137.61 3365.14 213.61 3385.14" fill="none" stroke="#353535" stroke-miterlimit="10"/><polygon points="289.61 798.14 221.61 777.14 264.61 1052.14 289.61 798.14" fill="none" stroke="#353535" stroke-miterlimit="10"/><polygon points="305.61 455.14 184.61 151.15 3.61 446.14 305.61 455.14" fill="none" stroke="#353535" stroke-miterlimit="10"/><polygon points="310.61 1410.14 193.61 1429.14 194.61 1575.14 310.61 1410.14" fill="none" stroke="#353535" stroke-miterlimit="10"/><polygon points="340.61 404.14 184.61 151.15 305.61 455.14 340.61 404.14" fill="none" stroke="#353535" stroke-miterlimit="10"/><polygon points="341.61 2816.14 238.61 2662.14 219.61 2872.14 341.61 2816.14" fill="none" stroke="#353535" stroke-miterlimit="10"/><polygon points="309.61 633.14 221.61 777.14 257.61 782.14 309.61 633.14" fill="none" stroke="#353535" stroke-miterlimit="10"/><polygon points="334.61 1668.14 232.61 1638.14 266.61 1743.14 334.61 1668.14" fill="none" stroke="#353535" stroke-miterlimit="10"/><polygon points="334.61 506.14 85.61 604.14 309.61 633.14 334.61 506.14" fill="none" stroke="#353535" stroke-miterlimit="10"/><polygon points="334.61 506.14 305.61 455.14 85.61 604.14 334.61 506.14" fill="none" stroke="#353535" stroke-miterlimit="10"/><polygon points="264.61 1052.14 221.61 777.14 61.61 811.14 264.61 1052.14" fill="none" stroke="#353535" stroke-miterlimit="10"/><polygon points="264.61 1052.14 61.61 811.14 3.61 963.14 264.61 1052.14" fill="none" stroke="#353535" stroke-miterlimit="10"/><polygon points="289.61 798.14 257.61 782.14 221.61 777.14 289.61 798.14" fill="none" stroke="#353535" stroke-miterlimit="10"/><polygon points="309.61 633.14 153.61 743.14 221.61 777.14 309.61 633.14" fill="none" stroke="#353535" stroke-miterlimit="10"/><polygon points="310.61 1410.14 217.61 1337.14 193.61 1429.14 310.61 1410.14" fill="none" stroke="#353535" stroke-miterlimit="10"/><polygon points="309.61 633.14 85.61 604.14 153.61 743.14 309.61 633.14" fill="none" stroke="#353535" stroke-miterlimit="10"/><polygon points="305.61 455.14 3.61 446.14 85.61 604.14 305.61 455.14" fill="none" stroke="#353535" stroke-miterlimit="10"/><polygon points="264.61 1052.14 3.61 1111.14 154.61 1300.14 264.61 1052.14" fill="none" stroke="#353535" stroke-miterlimit="10"/><polygon points="61.61 811.14 34.61 835.14 3.61 963.14 61.61 811.14" fill="none" stroke="#353535" stroke-miterlimit="10"/><polygon points="238.61 2662.14 32.61 2733.14 219.61 2872.14 238.61 2662.14" fill="none" stroke="#353535" stroke-miterlimit="10"/><polygon points="266.61 1743.14 232.61 1638.14 3.61 1803.14 266.61 1743.14" fill="none" stroke="#353535" stroke-miterlimit="10"/><polygon points="266.61 1743.14 3.61 1803.14 203.61 1855.14 266.61 1743.14" fill="none" stroke="#353535" stroke-miterlimit="10"/><polygon points="264.61 1052.14 3.61 963.14 3.61 1111.14 264.61 1052.14" fill="none" stroke="#353535" stroke-miterlimit="10"/><polygon points="137.61 3365.14 75.61 3230.14 66.61 3270.14 137.61 3365.14" fill="none" stroke="#353535" stroke-miterlimit="10"/><polygon points="194.61 1575.14 193.61 1429.14 115.61 1512.14 194.61 1575.14" fill="none" stroke="#353535" stroke-miterlimit="10"/><polygon points="143.61 2553.14 128.61 2309.14 46.61 2518.14 143.61 2553.14" fill="none" stroke="#353535" stroke-miterlimit="10"/><polygon points="153.61 743.14 85.61 604.14 72.61 628.14 153.61 743.14" fill="none" stroke="#353535" stroke-miterlimit="10"/><polygon points="221.61 777.14 153.61 743.14 61.61 811.14 221.61 777.14" fill="none" stroke="#353535" stroke-miterlimit="10"/><polygon points="238.61 2662.14 143.61 2553.14 47.61 2600.14 238.61 2662.14" fill="none" stroke="#353535" stroke-miterlimit="10"/><polygon points="238.61 2662.14 47.61 2600.14 32.61 2733.14 238.61 2662.14" fill="none" stroke="#353535" stroke-miterlimit="10"/><polygon points="128.61 2309.14 3.61 2405.14 46.61 2518.14 128.61 2309.14" fill="none" stroke="#353535" stroke-miterlimit="10"/><polygon points="216.61 3462.14 213.61 3385.14 143.61 3440.14 216.61 3462.14" fill="none" stroke="#353535" stroke-miterlimit="10"/><polygon points="232.61 1638.14 194.61 1575.14 3.61 1803.14 232.61 1638.14" fill="none" stroke="#353535" stroke-miterlimit="10"/><polygon points="216.61 3462.14 143.61 3440.14 126.61 3543.14 216.61 3462.14" fill="none" stroke="#353535" stroke-miterlimit="10"/><polygon points="217.61 1337.14 154.61 1300.14 193.61 1429.14 217.61 1337.14" fill="none" stroke="#353535" stroke-miterlimit="10"/><polygon points="219.61 2872.14 3.61 3058.14 196.61 3019.14 219.61 2872.14" fill="none" stroke="#353535" stroke-miterlimit="10"/><polygon points="219.61 2872.14 32.61 2733.14 3.61 3058.14 219.61 2872.14" fill="none" stroke="#353535" stroke-miterlimit="10"/><polygon points="194.61 1575.14 115.61 1512.14 3.61 1803.14 194.61 1575.14" fill="none" stroke="#353535" stroke-miterlimit="10"/><polygon points="213.61 3385.14 137.61 3365.14 143.61 3440.14 213.61 3385.14" fill="none" stroke="#353535" stroke-miterlimit="10"/><polygon points="32.61 2733.14 3.61 2738.14 3.61 3058.14 32.61 2733.14" fill="none" stroke="#353535" stroke-miterlimit="10"/><polygon points="143.61 3440.14 98.61 3477.14 126.61 3543.14 143.61 3440.14" fill="none" stroke="#353535" stroke-miterlimit="10"/><polygon points="203.61 1855.14 3.61 1852.14 73.61 1951.14 203.61 1855.14" fill="none" stroke="#353535" stroke-miterlimit="10"/><polygon points="203.61 1855.14 3.61 1803.14 3.61 1852.14 203.61 1855.14" fill="none" stroke="#353535" stroke-miterlimit="10"/><polygon points="184.61 151.15 3.61 1.25 3.61 446.14 184.61 151.15" fill="none" stroke="#353535" stroke-miterlimit="10"/><polygon points="184.61 151.15 138.61 3.15 66.61 3.15 184.61 151.15" fill="none" stroke="#353535" stroke-miterlimit="10"/><polygon points="193.61 1429.14 154.61 1300.14 115.61 1512.14 193.61 1429.14" fill="none" stroke="#353535" stroke-miterlimit="10"/><polygon points="196.61 3019.14 3.61 3058.14 155.61 3122.14 196.61 3019.14" fill="none" stroke="#353535" stroke-miterlimit="10"/><polygon points="153.61 743.14 72.61 628.14 55.61 699.14 153.61 743.14" fill="none" stroke="#353535" stroke-miterlimit="10"/><polygon points="184.61 151.15 66.61 3.15 3.61 3.15 184.61 151.15" fill="none" stroke="#353535" stroke-miterlimit="10"/><polygon points="153.61 743.14 46.61 792.14 61.61 811.14 153.61 743.14" fill="none" stroke="#353535" stroke-miterlimit="10"/><polygon points="154.61 1300.14 3.61 1111.14 115.61 1512.14 154.61 1300.14" fill="none" stroke="#353535" stroke-miterlimit="10"/><polygon points="155.61 3122.14 3.61 3058.14 75.61 3230.14 155.61 3122.14" fill="none" stroke="#353535" stroke-miterlimit="10"/><polygon points="153.61 743.14 55.61 699.14 46.61 792.14 153.61 743.14" fill="none" stroke="#353535" stroke-miterlimit="10"/><polygon points="143.61 3440.14 137.61 3365.14 58.61 3470.14 143.61 3440.14" fill="none" stroke="#353535" stroke-miterlimit="10"/><polygon points="143.61 3440.14 58.61 3470.14 98.61 3477.14 143.61 3440.14" fill="none" stroke="#353535" stroke-miterlimit="10"/><polygon points="143.61 2553.14 46.61 2518.14 47.61 2600.14 143.61 2553.14" fill="none" stroke="#353535" stroke-miterlimit="10"/><polygon points="128.61 2309.14 116.61 2168.14 3.61 2405.14 128.61 2309.14" fill="none" stroke="#353535" stroke-miterlimit="10"/><polygon points="137.61 3365.14 3.61 3441.14 58.61 3470.14 137.61 3365.14" fill="none" stroke="#353535" stroke-miterlimit="10"/><polygon points="137.61 3365.14 66.61 3270.14 3.61 3441.14 137.61 3365.14" fill="none" stroke="#353535" stroke-miterlimit="10"/><polygon points="126.61 3543.14 98.61 3477.14 58.61 3470.14 126.61 3543.14" fill="none" stroke="#353535" stroke-miterlimit="10"/><polygon points="126.61 3543.14 58.61 3470.14 3.61 3603.14 126.61 3543.14" fill="none" stroke="#353535" stroke-miterlimit="10"/><polygon points="115.61 1512.14 3.61 1111.14 3.61 1803.14 115.61 1512.14" fill="none" stroke="#353535" stroke-miterlimit="10"/><polygon points="116.61 2168.14 73.61 1951.14 3.61 2405.14 116.61 2168.14" fill="none" stroke="#353535" stroke-miterlimit="10"/><polygon points="73.61 1951.14 3.61 1852.14 3.61 2405.14 73.61 1951.14" fill="none" stroke="#353535" stroke-miterlimit="10"/><polygon points="85.61 604.14 3.61 446.14 50.61 628.14 85.61 604.14" fill="none" stroke="#353535" stroke-miterlimit="10"/><polygon points="72.61 628.14 50.61 628.14 55.61 699.14 72.61 628.14" fill="none" stroke="#353535" stroke-miterlimit="10"/><polygon points="85.61 604.14 50.61 628.14 72.61 628.14 85.61 604.14" fill="none" stroke="#353535" stroke-miterlimit="10"/><polygon points="47.61 2600.14 3.61 2738.14 32.61 2733.14 47.61 2600.14" fill="none" stroke="#353535" stroke-miterlimit="10"/><polygon points="58.61 3470.14 3.61 3441.14 3.61 3603.14 58.61 3470.14" fill="none" stroke="#353535" stroke-miterlimit="10"/><polygon points="75.61 3230.14 3.61 3058.14 66.61 3270.14 75.61 3230.14" fill="none" stroke="#353535" stroke-miterlimit="10"/><polygon points="66.61 3270.14 3.61 3058.14 3.61 3441.14 66.61 3270.14" fill="none" stroke="#353535" stroke-miterlimit="10"/><polygon points="61.61 811.14 46.61 792.14 21.61 821.14 61.61 811.14" fill="none" stroke="#353535" stroke-miterlimit="10"/><polygon points="61.61 811.14 21.61 821.14 34.61 835.14 61.61 811.14" fill="none" stroke="#353535" stroke-miterlimit="10"/><polygon points="55.61 699.14 21.61 821.14 46.61 792.14 55.61 699.14" fill="none" stroke="#353535" stroke-miterlimit="10"/><polygon points="55.61 699.14 50.61 628.14 21.61 821.14 55.61 699.14" fill="none" stroke="#353535" stroke-miterlimit="10"/><polygon points="34.61 835.14 21.61 821.14 3.61 963.14 34.61 835.14" fill="none" stroke="#353535" stroke-miterlimit="10"/><polygon points="50.61 628.14 3.61 446.14 21.61 821.14 50.61 628.14" fill="none" stroke="#353535" stroke-miterlimit="10"/><polygon points="47.61 2600.14 46.61 2518.14 3.61 2405.14 47.61 2600.14" fill="none" stroke="#353535" stroke-miterlimit="10"/><polygon points="47.61 2600.14 3.61 2405.14 3.61 2738.14 47.61 2600.14" fill="none" stroke="#353535" stroke-miterlimit="10"/><polygon points="21.61 821.14 3.61 446.14 3.61 963.14 21.61 821.14" fill="none" stroke="#353535" stroke-miterlimit="10"/></svg>