<?xml version="1.0" encoding="utf-8"?>
<!-- Generator: Adobe Illustrator 23.0.3, SVG Export Plug-In . SVG Version: 6.00 Build 0)  -->
<svg version="1.1" id="Layer_1" xmlns="http://www.w3.org/2000/svg" xmlns:xlink="http://www.w3.org/1999/xlink" x="0px" y="0px"
	 viewBox="0 0 2000 1000" style="enable-background:new 0 0 2000 1000;" xml:space="preserve">
<style type="text/css">
	.st0{stroke:#2C2C2C;stroke-linejoin:round;stroke-miterlimit:1;}
	.st1{stroke:#000000;stroke-linejoin:round;stroke-miterlimit:1;}
	.st2{stroke:#141414;stroke-linejoin:round;stroke-miterlimit:1;}
</style>
<polygon class="st0" points="421,1099 83,1086 -199,1099 "/>
<polygon class="st0" points="1305,1099 1237,1094 1001,1099 "/>
<polygon class="st1" points="1392,-101 1001,-101 1142,-89 "/>
<polygon class="st0" points="1996,1099 1518,1082 1376,1099 "/>
<polygon class="st0" points="1996,1099 1583,1061 1518,1082 "/>
<polygon class="st0" points="2124,175 2069,215 2102,319 "/>
<polygon class="st0" points="2163,375 2154,389 2162,425 "/>
<polygon class="st0" points="2178,38 2158,-50 2138,34 "/>
<polygon class="st0" points="2196,33 2178,38 2190,67 "/>
<polygon class="st0" points="2201,878 2159,814 2078,902 "/>
<polygon class="st0" points="2201,878 2078,902 2110,972 "/>
<polygon class="st0" points="2201,761 2159,814 2201,878 "/>
<polygon class="st0" points="2201,761 2165,714 2159,814 "/>
<polygon class="st0" points="2201,717 2165,714 2201,761 "/>
<polygon class="st0" points="2201,717 2151,649 2165,714 "/>
<polygon class="st0" points="2201,303 2146,152 2124,175 "/>
<polygon class="st0" points="2201,303 2102,319 2199,312 "/>
<polygon class="st0" points="2201,303 2124,175 2102,319 "/>
<polygon class="st0" points="2201,303 2190,67 2146,152 "/>
<polygon class="st0" points="2201,303 2196,33 2190,67 "/>
<polygon class="st0" points="2201,-35 2178,38 2196,33 "/>
<polygon class="st0" points="2201,-35 2158,-50 2178,38 "/>
<polygon class="st0" points="2201,-35 2196,33 2201,303 "/>
<polygon class="st0" points="2201,342 2199,312 2163,375 "/>
<polygon class="st0" points="2201,342 2163,375 2162,425 "/>
<polygon class="st0" points="2201,342 2201,303 2199,312 "/>
<polygon class="st0" points="2201,-56 2158,-50 2201,-35 "/>
<polygon class="st0" points="2201,1099 2031,1095 2006,1099 "/>
<polygon class="st0" points="2201,1099 2201,878 2110,972 "/>
<polygon class="st0" points="2201,1099 2110,972 2031,1095 "/>
<polygon class="st0" points="2201,499 2162,425 1980,463 "/>
<polygon class="st0" points="2201,499 1980,463 2134,635 "/>
<polygon class="st0" points="2201,499 2134,635 2151,649 "/>
<polygon class="st0" points="2201,499 2151,649 2201,717 "/>
<polygon class="st0" points="2201,499 2201,342 2162,425 "/>
<polygon class="st2" points="2201,-101 1788,-39 2067,-31 "/>
<polygon class="st1" points="2201,-101 1670,-101 1788,-39 "/>
<polygon class="st0" points="2201,-101 2067,-31 2105,-37 "/>
<polygon class="st0" points="2201,-101 2105,-37 2158,-50 "/>
<polygon class="st0" points="2201,-101 2158,-50 2201,-56 "/>
<polygon class="st0" points="2162,425 2087,396 1980,463 "/>
<polygon class="st0" points="2199,312 2102,319 2163,375 "/>
<polygon class="st0" points="2190,67 2150,41 2146,152 "/>
<polygon class="st0" points="2178,38 2138,34 2150,41 "/>
<polygon class="st0" points="2190,67 2178,38 2150,41 "/>
<polygon class="st0" points="1996,1099 1764,1024 1583,1061 "/>
<polygon class="st0" points="2110,972 2078,902 2075,912 "/>
<polygon class="st0" points="2150,41 2138,34 2146,152 "/>
<polygon class="st0" points="2158,-50 2105,-37 2138,34 "/>
<polygon class="st0" points="2159,814 2074,819 2078,902 "/>
<polygon class="st0" points="2165,714 2074,819 2159,814 "/>
<polygon class="st0" points="2134,635 1980,463 1979,627 "/>
<polygon class="st0" points="2163,375 2089,339 2154,389 "/>
<polygon class="st0" points="2163,375 2102,319 2089,339 "/>
<polygon class="st0" points="2165,714 2151,649 2134,635 "/>
<polygon class="st0" points="2165,714 2134,635 2074,819 "/>
<polygon class="st0" points="2146,152 2138,34 1993,67 "/>
<polygon class="st0" points="2162,425 2154,389 2087,396 "/>
<polygon class="st0" points="2134,635 1979,627 2074,819 "/>
<polygon class="st0" points="2146,152 1993,67 2124,175 "/>
<polygon class="st0" points="2154,389 2089,339 2087,396 "/>
<polygon class="st2" points="2074,819 1979,627 1942,687 "/>
<polygon class="st0" points="2102,319 2069,215 2047,230 "/>
<polygon class="st2" points="2124,175 1993,67 1971,144 "/>
<polygon class="st0" points="2138,34 2105,-37 2067,-31 "/>
<polygon class="st0" points="2138,34 2067,-31 1993,67 "/>
<polygon class="st2" points="2124,175 1971,144 2069,215 "/>
<polygon class="st0" points="2110,972 1989,1000 2031,1095 "/>
<polygon class="st2" points="2069,215 1971,144 2043,220 "/>
<polygon class="st0" points="2110,972 1996,974 1989,1000 "/>
<polygon class="st0" points="2110,972 2075,912 1996,974 "/>
<polygon class="st0" points="2089,339 2052,355 2087,396 "/>
<polygon class="st0" points="2102,319 2041,354 2089,339 "/>
<polygon class="st0" points="2102,319 2047,230 2041,354 "/>
<polygon class="st0" points="2089,339 2041,354 2052,355 "/>
<polygon class="st0" points="2047,230 1975,321 2041,354 "/>
<polygon class="st2" points="2074,819 1942,687 1930,832 "/>
<polygon class="st0" points="2078,902 2074,819 1994,910 "/>
<polygon class="st0" points="2087,396 2041,354 1980,463 "/>
<polygon class="st0" points="2087,396 2052,355 2041,354 "/>
<polygon class="st0" points="2075,912 1994,910 1996,974 "/>
<polygon class="st0" points="2078,902 1994,910 2075,912 "/>
<polygon class="st2" points="2074,819 1930,832 1994,910 "/>
<polygon class="st2" points="2067,-31 1788,-39 1993,67 "/>
<polygon class="st0" points="2069,215 2043,220 2047,230 "/>
<polygon class="st2" points="1980,463 1901,581 1979,627 "/>
<polygon class="st0" points="2031,1095 1989,1000 2006,1099 "/>
<polygon class="st2" points="2047,230 1953,247 1975,321 "/>
<polygon class="st2" points="1993,67 1788,-39 1795,2 "/>
<polygon class="st0" points="2006,1099 1989,1000 1996,1099 "/>
<polygon class="st0" points="2041,354 1975,321 1980,463 "/>
<polygon class="st2" points="2043,220 1971,144 1953,247 "/>
<polygon class="st2" points="2047,230 2043,220 1953,247 "/>
<polygon class="st1" points="1670,-101 1392,-101 1529,-82 "/>
<polygon class="st2" points="1980,463 1975,321 1899,367 "/>
<polygon class="st0" points="1996,1099 1784,1018 1764,1024 "/>
<polygon class="st2" points="1971,144 1905,203 1953,247 "/>
<polygon class="st2" points="1980,463 1899,367 1898,440 "/>
<polygon class="st2" points="1975,321 1912,334 1899,367 "/>
<polygon class="st2" points="1980,463 1877,473 1901,581 "/>
<polygon class="st2" points="1993,67 1909,148 1971,144 "/>
<polygon class="st0" points="1994,910 1930,832 1914,908 "/>
<polygon class="st0" points="1996,974 1994,910 1914,908 "/>
<polygon class="st0" points="1996,1099 1989,1000 1816,1001 "/>
<polygon class="st0" points="1996,1099 1816,1001 1784,1018 "/>
<polygon class="st0" points="1996,974 1914,908 1989,1000 "/>
<polygon class="st2" points="1993,67 1795,2 1909,148 "/>
<polygon class="st2" points="1979,627 1921,652 1942,687 "/>
<polygon class="st0" points="1989,1000 1914,908 1846,938 "/>
<polygon class="st0" points="1989,1000 1846,938 1816,1001 "/>
<polygon class="st2" points="1971,144 1909,148 1905,203 "/>
<polygon class="st2" points="1975,321 1953,247 1893,307 "/>
<polygon class="st2" points="1975,321 1893,307 1912,334 "/>
<polygon class="st2" points="1979,627 1901,581 1921,652 "/>
<polygon class="st2" points="1980,463 1898,440 1877,473 "/>
<polygon class="st2" points="1942,687 1799,760 1930,832 "/>
<polygon class="st2" points="1901,581 1877,473 1851,542 "/>
<polygon class="st2" points="1909,148 1896,161 1905,203 "/>
<polygon class="st2" points="1953,247 1905,203 1854,249 "/>
<polygon class="st2" points="1953,247 1854,249 1893,307 "/>
<polygon class="st0" points="1930,832 1859,865 1914,908 "/>
<polygon class="st2" points="1942,687 1921,652 1802,690 "/>
<polygon class="st2" points="1942,687 1802,690 1799,760 "/>
<polygon class="st2" points="1909,148 1795,2 1896,161 "/>
<polygon class="st2" points="1921,652 1828,646 1802,690 "/>
<polygon class="st2" points="1930,832 1799,760 1859,865 "/>
<polygon class="st2" points="1899,367 1858,436 1898,440 "/>
<polygon class="st2" points="1921,652 1901,581 1844,594 "/>
<polygon class="st2" points="1921,652 1844,594 1828,646 "/>
<polygon class="st0" points="1914,908 1859,865 1846,938 "/>
<polygon class="st2" points="1912,334 1857,347 1899,367 "/>
<polygon class="st2" points="1912,334 1893,307 1857,347 "/>
<polygon class="st1" points="1896,161 1795,2 1768,206 "/>
<polygon class="st1" points="1896,161 1768,206 1777,209 "/>
<polygon class="st2" points="1899,367 1857,347 1858,436 "/>
<polygon class="st2" points="1905,203 1896,161 1854,249 "/>
<polygon class="st1" points="1896,161 1777,209 1854,249 "/>
<polygon class="st2" points="1901,581 1851,542 1844,594 "/>
<polygon class="st2" points="1877,473 1834,484 1851,542 "/>
<polygon class="st2" points="1898,440 1858,436 1877,473 "/>
<polygon class="st2" points="1893,307 1798,313 1857,347 "/>
<polygon class="st2" points="1893,307 1854,249 1798,313 "/>
<polygon class="st2" points="1858,436 1857,347 1794,352 "/>
<polygon class="st2" points="1859,865 1799,760 1773,792 "/>
<polygon class="st2" points="1877,473 1858,436 1834,484 "/>
<polygon class="st1" points="1795,2 1667,134 1768,206 "/>
<polygon class="st2" points="1851,542 1804,583 1844,594 "/>
<polygon class="st1" points="1858,436 1794,352 1751,477 "/>
<polygon class="st0" points="1859,865 1753,875 1846,938 "/>
<polygon class="st2" points="1859,865 1773,792 1753,875 "/>
<polygon class="st2" points="1857,347 1798,313 1794,352 "/>
<polygon class="st1" points="1858,436 1751,477 1834,484 "/>
<polygon class="st1" points="1854,249 1777,209 1798,313 "/>
<polygon class="st1" points="1834,484 1741,557 1804,583 "/>
<polygon class="st2" points="1851,542 1834,484 1804,583 "/>
<polygon class="st1" points="1834,484 1751,477 1741,557 "/>
<polygon class="st2" points="1844,594 1804,583 1828,646 "/>
<polygon class="st0" points="1846,938 1753,875 1816,1001 "/>
<polygon class="st1" points="1794,352 1712,413 1751,477 "/>
<polygon class="st0" points="1816,1001 1753,875 1784,1018 "/>
<polygon class="st0" points="1784,1018 1753,875 1686,957 "/>
<polygon class="st1" points="1828,646 1804,583 1754,686 "/>
<polygon class="st2" points="1828,646 1754,686 1802,690 "/>
<polygon class="st0" points="1784,1018 1686,957 1764,1024 "/>
<polygon class="st1" points="1798,313 1777,209 1730,223 "/>
<polygon class="st2" points="1802,690 1754,686 1799,760 "/>
<polygon class="st1" points="1804,583 1715,589 1754,686 "/>
<polygon class="st1" points="1804,583 1741,557 1715,589 "/>
<polygon class="st1" points="1754,686 1715,589 1724,682 "/>
<polygon class="st1" points="1798,313 1638,333 1794,352 "/>
<polygon class="st2" points="1799,760 1754,686 1773,792 "/>
<polygon class="st1" points="1798,313 1730,223 1638,333 "/>
<polygon class="st2" points="1773,792 1754,686 1694,784 "/>
<polygon class="st1" points="1794,352 1638,333 1712,413 "/>
<polygon class="st1" points="1795,2 1788,-39 1670,-101 "/>
<polygon class="st1" points="1795,2 1670,-101 1667,134 "/>
<polygon class="st2" points="1754,686 1699,696 1694,784 "/>
<polygon class="st1" points="1777,209 1768,206 1730,223 "/>
<polygon class="st0" points="1764,1024 1686,957 1683,975 "/>
<polygon class="st2" points="1773,792 1710,856 1753,875 "/>
<polygon class="st1" points="1768,206 1667,134 1730,223 "/>
<polygon class="st1" points="1712,413 1638,333 1679,407 "/>
<polygon class="st1" points="1751,477 1712,413 1714,468 "/>
<polygon class="st2" points="1754,686 1724,682 1699,696 "/>
<polygon class="st2" points="1773,792 1694,784 1710,856 "/>
<polygon class="st1" points="1392,-101 1142,-89 1171,-84 "/>
<polygon class="st0" points="1764,1024 1683,975 1583,1061 "/>
<polygon class="st1" points="1751,477 1682,491 1741,557 "/>
<polygon class="st1" points="1751,477 1714,468 1682,491 "/>
<polygon class="st0" points="1753,875 1710,856 1686,957 "/>
<polygon class="st1" points="1670,-101 1529,-82 1667,134 "/>
<polygon class="st1" points="1724,682 1715,589 1659,689 "/>
<polygon class="st1" points="1730,223 1604,243 1638,333 "/>
<polygon class="st1" points="1741,557 1682,491 1715,589 "/>
<polygon class="st0" points="1710,856 1633,871 1686,957 "/>
<polygon class="st2" points="1724,682 1659,689 1699,696 "/>
<polygon class="st1" points="1730,223 1667,134 1604,243 "/>
<polygon class="st1" points="1667,134 1529,-82 1572,151 "/>
<polygon class="st1" points="1714,468 1712,413 1672,452 "/>
<polygon class="st2" points="1699,696 1624,730 1694,784 "/>
<polygon class="st2" points="1699,696 1659,689 1624,730 "/>
<polygon class="st2" points="1710,856 1694,784 1633,871 "/>
<polygon class="st1" points="1712,413 1679,407 1672,452 "/>
<polygon class="st1" points="1715,589 1602,670 1659,689 "/>
<polygon class="st1" points="1715,589 1682,491 1604,492 "/>
<polygon class="st1" points="1715,589 1604,492 1602,670 "/>
<polygon class="st1" points="1714,468 1672,452 1682,491 "/>
<polygon class="st2" points="1694,784 1593,778 1633,871 "/>
<polygon class="st2" points="1694,784 1624,730 1593,778 "/>
<polygon class="st1" points="1667,134 1572,151 1604,243 "/>
<polygon class="st1" points="1679,407 1638,333 1600,358 "/>
<polygon class="st0" points="1686,957 1552,898 1683,975 "/>
<polygon class="st0" points="1686,957 1633,871 1552,898 "/>
<polygon class="st1" points="1682,491 1672,452 1604,492 "/>
<polygon class="st0" points="1683,975 1552,898 1583,1061 "/>
<polygon class="st1" points="1679,407 1570,424 1672,452 "/>
<polygon class="st1" points="1679,407 1600,358 1570,424 "/>
<polygon class="st1" points="1672,452 1570,424 1604,492 "/>
<polygon class="st2" points="1659,689 1602,670 1624,730 "/>
<polygon class="st1" points="1572,151 1529,-82 1397,23 "/>
<polygon class="st2" points="1593,778 1516,818 1552,898 "/>
<polygon class="st1" points="1600,358 1564,385 1570,424 "/>
<polygon class="st1" points="1604,492 1496,668 1602,670 "/>
<polygon class="st1" points="1604,492 1492,476 1496,668 "/>
<polygon class="st2" points="1633,871 1593,778 1552,898 "/>
<polygon class="st1" points="1638,333 1604,243 1600,358 "/>
<polygon class="st2" points="1624,730 1602,670 1570,697 "/>
<polygon class="st0" points="1552,898 1452,1001 1520,1070 "/>
<polygon class="st0" points="1583,1061 1552,898 1520,1070 "/>
<polygon class="st2" points="1624,730 1570,697 1593,778 "/>
<polygon class="st1" points="1564,385 1464,349 1492,380 "/>
<polygon class="st2" points="1593,778 1531,776 1516,818 "/>
<polygon class="st2" points="1593,778 1570,697 1538,724 "/>
<polygon class="st1" points="1600,358 1464,349 1564,385 "/>
<polygon class="st2" points="1602,670 1521,688 1570,697 "/>
<polygon class="st2" points="1602,670 1496,668 1521,688 "/>
<polygon class="st1" points="1604,492 1570,424 1492,476 "/>
<polygon class="st1" points="1604,243 1437,333 1464,349 "/>
<polygon class="st1" points="1604,243 1572,151 1401,199 "/>
<polygon class="st1" points="1604,243 1401,199 1437,333 "/>
<polygon class="st1" points="1604,243 1464,349 1600,358 "/>
<polygon class="st1" points="1392,-101 1171,-84 1338,-83 "/>
<polygon class="st2" points="1593,778 1538,724 1531,776 "/>
<polygon class="st1" points="1496,668 1492,476 1414,533 "/>
<polygon class="st0" points="1583,1061 1520,1070 1518,1082 "/>
<polygon class="st0" points="1552,898 1492,884 1452,1001 "/>
<polygon class="st2" points="1552,898 1516,818 1492,884 "/>
<polygon class="st1" points="1570,424 1564,385 1492,380 "/>
<polygon class="st1" points="1572,151 1397,23 1401,199 "/>
<polygon class="st1" points="1570,424 1492,380 1492,476 "/>
<polygon class="st2" points="1570,697 1521,688 1538,724 "/>
<polygon class="st0" points="1520,1070 1452,1001 1512,1072 "/>
<polygon class="st2" points="1531,776 1511,800 1516,818 "/>
<polygon class="st1" points="1496,668 1414,533 1438,674 "/>
<polygon class="st2" points="1516,818 1474,857 1492,884 "/>
<polygon class="st2" points="1521,688 1501,710 1506,722 "/>
<polygon class="st1" points="1529,-82 1371,-54 1397,23 "/>
<polygon class="st2" points="1538,724 1506,722 1531,776 "/>
<polygon class="st2" points="1538,724 1521,688 1506,722 "/>
<polygon class="st1" points="1529,-82 1392,-101 1371,-54 "/>
<polygon class="st2" points="1531,776 1506,722 1511,800 "/>
<polygon class="st1" points="1492,476 1492,380 1443,391 "/>
<polygon class="st0" points="1518,1082 1512,1072 1376,1099 "/>
<polygon class="st0" points="1520,1070 1512,1072 1518,1082 "/>
<polygon class="st2" points="1521,688 1496,668 1501,710 "/>
<polygon class="st0" points="1492,884 1412,885 1452,1001 "/>
<polygon class="st2" points="1511,800 1506,722 1387,833 "/>
<polygon class="st2" points="1516,818 1511,800 1474,857 "/>
<polygon class="st2" points="1506,722 1438,674 1387,833 "/>
<polygon class="st0" points="1512,1072 1452,1001 1389,1045 "/>
<polygon class="st0" points="1512,1072 1389,1045 1376,1099 "/>
<polygon class="st2" points="1511,800 1387,833 1474,857 "/>
<polygon class="st1" points="1401,199 1397,23 1336,149 "/>
<polygon class="st2" points="1506,722 1501,710 1438,674 "/>
<polygon class="st2" points="1501,710 1496,668 1438,674 "/>
<polygon class="st1" points="1492,380 1459,372 1443,391 "/>
<polygon class="st1" points="1492,380 1464,349 1459,372 "/>
<polygon class="st1" points="1437,333 1401,199 1358,244 "/>
<polygon class="st0" points="1474,857 1387,833 1419,865 "/>
<polygon class="st1" points="1492,476 1443,391 1414,533 "/>
<polygon class="st0" points="1492,884 1474,857 1412,885 "/>
<polygon class="st2" points="1438,674 1316,700 1387,833 "/>
<polygon class="st1" points="1438,674 1414,533 1339,628 "/>
<polygon class="st0" points="1452,1001 1412,885 1357,949 "/>
<polygon class="st0" points="1474,857 1419,865 1412,885 "/>
<polygon class="st1" points="1443,391 1303,436 1414,533 "/>
<polygon class="st1" points="1464,349 1437,333 1459,372 "/>
<polygon class="st1" points="1459,372 1437,333 1443,391 "/>
<polygon class="st0" points="1452,1001 1357,949 1389,1045 "/>
<polygon class="st2" points="1387,833 1316,700 1328,825 "/>
<polygon class="st1" points="1443,391 1437,333 1319,345 "/>
<polygon class="st1" points="1443,391 1319,345 1303,436 "/>
<polygon class="st1" points="1437,333 1358,244 1319,345 "/>
<polygon class="st1" points="1438,674 1339,628 1316,700 "/>
<polygon class="st1" points="1414,533 1303,436 1281,525 "/>
<polygon class="st1" points="1414,533 1306,566 1339,628 "/>
<polygon class="st0" points="1419,865 1387,833 1412,885 "/>
<polygon class="st1" points="1414,533 1281,525 1306,566 "/>
<polygon class="st0" points="1412,885 1387,833 1326,836 "/>
<polygon class="st0" points="1412,885 1326,836 1357,949 "/>
<polygon class="st1" points="1397,23 1250,99 1336,149 "/>
<polygon class="st1" points="1401,199 1328,216 1358,244 "/>
<polygon class="st1" points="1401,199 1336,149 1328,216 "/>
<polygon class="st0" points="1357,949 1326,836 1281,900 "/>
<polygon class="st1" points="1358,244 1290,303 1319,345 "/>
<polygon class="st0" points="1389,1045 1357,949 1281,959 "/>
<polygon class="st1" points="1392,-101 1338,-83 1371,-54 "/>
<polygon class="st1" points="1397,23 1371,-54 1303,-60 "/>
<polygon class="st1" points="1397,23 1303,-60 1250,99 "/>
<polygon class="st0" points="1389,1045 1281,959 1305,1099 "/>
<polygon class="st0" points="1389,1045 1305,1099 1376,1099 "/>
<polygon class="st2" points="1387,833 1328,825 1326,836 "/>
<polygon class="st1" points="1336,149 1250,99 1294,149 "/>
<polygon class="st1" points="1338,-83 1171,-84 1303,-60 "/>
<polygon class="st1" points="1371,-54 1338,-83 1303,-60 "/>
<polygon class="st2" points="1328,825 1316,700 1280,702 "/>
<polygon class="st0" points="1357,949 1281,900 1281,959 "/>
<polygon class="st1" points="1358,244 1328,216 1290,303 "/>
<polygon class="st1" points="1336,149 1299,208 1328,216 "/>
<polygon class="st0" points="1305,1099 1281,959 1237,1094 "/>
<polygon class="st2" points="1328,825 1280,702 1186,825 "/>
<polygon class="st1" points="1328,216 1299,208 1290,303 "/>
<polygon class="st1" points="1336,149 1283,178 1299,208 "/>
<polygon class="st1" points="1336,149 1294,149 1283,178 "/>
<polygon class="st1" points="1339,628 1280,702 1316,700 "/>
<polygon class="st1" points="1339,628 1306,566 1280,702 "/>
<polygon class="st1" points="1319,345 1234,394 1303,436 "/>
<polygon class="st1" points="1280,702 1205,557 1196,689 "/>
<polygon class="st1" points="1306,566 1205,557 1280,702 "/>
<polygon class="st2" points="1328,825 1186,825 1326,836 "/>
<polygon class="st2" points="1326,836 1186,825 1281,900 "/>
<polygon class="st1" points="1303,-60 1171,-84 1250,99 "/>
<polygon class="st1" points="1319,345 1290,303 1233,325 "/>
<polygon class="st1" points="1319,345 1233,325 1234,394 "/>
<polygon class="st1" points="1299,208 1205,213 1290,303 "/>
<polygon class="st2" points="1280,702 1196,689 1186,825 "/>
<polygon class="st1" points="1299,208 1225,189 1205,213 "/>
<polygon class="st1" points="1303,436 1206,500 1281,525 "/>
<polygon class="st1" points="1306,566 1281,525 1205,557 "/>
<polygon class="st0" points="1281,959 1173,958 1237,1094 "/>
<polygon class="st1" points="1290,303 1205,213 1233,325 "/>
<polygon class="st1" points="1303,436 1234,394 1206,500 "/>
<polygon class="st1" points="1299,208 1283,178 1225,189 "/>
<polygon class="st1" points="1294,149 1250,99 1283,178 "/>
<polygon class="st1" points="1283,178 1250,99 1225,189 "/>
<polygon class="st1" points="1234,394 1176,429 1206,500 "/>
<polygon class="st0" points="1281,900 1173,958 1281,959 "/>
<polygon class="st2" points="1281,900 1186,825 1173,958 "/>
<polygon class="st1" points="1281,525 1206,500 1205,557 "/>
<polygon class="st1" points="1234,394 1233,325 1214,340 "/>
<polygon class="st1" points="1084,-52 1048,-11 1054,96 "/>
<polygon class="st2" points="1196,689 1144,792 1186,825 "/>
<polygon class="st1" points="1205,557 1156,560 1196,689 "/>
<polygon class="st1" points="1206,500 1200,508 1205,557 "/>
<polygon class="st1" points="1233,325 1205,213 1134,270 "/>
<polygon class="st1" points="1234,394 1194,404 1176,429 "/>
<polygon class="st0" points="1237,1094 1042,1053 1001,1099 "/>
<polygon class="st1" points="1250,99 1171,-84 1084,-52 "/>
<polygon class="st1" points="1250,99 1084,-52 1054,96 "/>
<polygon class="st1" points="1250,99 1054,96 1165,188 "/>
<polygon class="st1" points="1250,99 1165,188 1225,189 "/>
<polygon class="st2" points="1186,825 1130,938 1173,958 "/>
<polygon class="st2" points="1196,689 1133,715 1144,792 "/>
<polygon class="st1" points="1206,500 1176,429 1173,485 "/>
<polygon class="st1" points="1233,325 1134,270 1214,340 "/>
<polygon class="st1" points="1234,394 1214,340 1194,404 "/>
<polygon class="st0" points="1237,1094 1173,958 1048,1036 "/>
<polygon class="st0" points="1237,1094 1048,1036 1042,1053 "/>
<polygon class="st1" points="1165,188 1054,96 1110,183 "/>
<polygon class="st1" points="1196,689 1156,560 1097,640 "/>
<polygon class="st1" points="1225,189 1165,188 1205,213 "/>
<polygon class="st1" points="1171,-84 1142,-89 1084,-52 "/>
<polygon class="st2" points="1186,825 1091,858 1130,938 "/>
<polygon class="st1" points="1205,213 1138,224 1134,270 "/>
<polygon class="st1" points="1214,340 1134,270 1194,404 "/>
<polygon class="st1" points="1194,404 1134,270 1055,321 "/>
<polygon class="st1" points="1200,508 1166,496 1156,560 "/>
<polygon class="st1" points="1205,557 1200,508 1156,560 "/>
<polygon class="st1" points="1206,500 1173,485 1200,508 "/>
<polygon class="st1" points="1205,213 1165,188 1138,224 "/>
<polygon class="st1" points="1194,404 1055,321 1176,429 "/>
<polygon class="st2" points="1196,689 1097,640 1133,715 "/>
<polygon class="st1" points="1200,508 1173,485 1166,496 "/>
<polygon class="st0" points="1173,958 1130,938 1048,1036 "/>
<polygon class="st2" points="1186,825 1144,792 1091,858 "/>
<polygon class="st1" points="1176,429 1166,496 1173,485 "/>
<polygon class="st1" points="1176,429 1000,376 1166,496 "/>
<polygon class="st1" points="1176,429 1055,321 1000,376 "/>
<polygon class="st0" points="1130,938 1039,1010 1048,1036 "/>
<polygon class="st0" points="1130,938 1045,967 1039,1010 "/>
<polygon class="st2" points="1133,715 1097,640 1103,710 "/>
<polygon class="st1" points="1166,496 1049,592 1156,560 "/>
<polygon class="st1" points="1166,496 1000,376 1049,592 "/>
<polygon class="st1" points="1165,188 1126,221 1138,224 "/>
<polygon class="st1" points="1165,188 1110,183 1126,221 "/>
<polygon class="st2" points="1144,792 1133,715 1103,710 "/>
<polygon class="st1" points="1156,560 1049,592 1097,640 "/>
<polygon class="st1" points="1049,592 1000,376 945,543 "/>
<polygon class="st1" points="1138,224 1126,221 1134,270 "/>
<polygon class="st1" points="1142,-89 1001,-101 1084,-52 "/>
<polygon class="st2" points="1144,792 1047,828 1091,858 "/>
<polygon class="st2" points="1144,792 1045,774 1047,828 "/>
<polygon class="st2" points="1144,792 1103,710 1045,774 "/>
<polygon class="st1" points="1134,270 1126,221 1091,224 "/>
<polygon class="st0" points="1130,938 1091,858 1045,967 "/>
<polygon class="st1" points="1134,270 1091,224 1031,286 "/>
<polygon class="st1" points="1134,270 1031,286 1055,321 "/>
<polygon class="st1" points="1126,221 1110,183 1091,224 "/>
<polygon class="st1" points="1001,-101 824,-101 840,-95 "/>
<polygon class="st1" points="1049,592 945,543 974,579 "/>
<polygon class="st0" points="1091,858 1019,950 1045,967 "/>
<polygon class="st2" points="1103,710 1097,640 1017,734 "/>
<polygon class="st1" points="1110,183 1018,134 1091,224 "/>
<polygon class="st1" points="1110,183 1054,96 1018,134 "/>
<polygon class="st0" points="1091,858 995,922 1019,950 "/>
<polygon class="st0" points="1091,858 990,898 995,922 "/>
<polygon class="st1" points="1091,224 1018,134 1005,224 "/>
<polygon class="st2" points="1097,640 988,637 1017,734 "/>
<polygon class="st2" points="1103,710 1017,734 1045,774 "/>
<polygon class="st1" points="1000,376 953,390 945,543 "/>
<polygon class="st1" points="1097,640 1049,592 988,637 "/>
<polygon class="st2" points="1091,858 1047,828 990,898 "/>
<polygon class="st1" points="1091,224 1005,224 1031,286 "/>
<polygon class="st1" points="1084,-52 1001,-101 1048,-11 "/>
<polygon class="st1" points="953,390 938,398 945,543 "/>
<polygon class="st1" points="1001,-101 840,-95 941,-79 "/>
<polygon class="st2" points="1017,734 988,637 972,710 "/>
<polygon class="st0" points="1042,1053 996,1079 1001,1099 "/>
<polygon class="st1" points="1048,-11 1001,-101 964,-18 "/>
<polygon class="st1" points="1054,96 1048,-11 964,-18 "/>
<polygon class="st1" points="1054,96 964,-18 1018,134 "/>
<polygon class="st1" points="1055,321 1031,286 1000,376 "/>
<polygon class="st0" points="1045,967 1019,950 1039,1010 "/>
<polygon class="st2" points="1047,828 1045,774 1017,734 "/>
<polygon class="st2" points="1047,828 1017,734 871,769 "/>
<polygon class="st1" points="1049,592 974,579 988,637 "/>
<polygon class="st2" points="1047,828 871,769 990,898 "/>
<polygon class="st0" points="1048,1036 1039,1010 1042,1053 "/>
<polygon class="st1" points="1031,286 943,321 1000,376 "/>
<polygon class="st0" points="1042,1053 1039,1010 996,1079 "/>
<polygon class="st2" points="1017,734 972,710 871,769 "/>
<polygon class="st1" points="1018,134 964,-18 886,126 "/>
<polygon class="st1" points="1031,286 1005,224 987,230 "/>
<polygon class="st0" points="1039,1010 1019,950 919,943 "/>
<polygon class="st0" points="1039,1010 919,943 996,1079 "/>
<polygon class="st1" points="1018,134 929,188 1005,224 "/>
<polygon class="st1" points="1031,286 987,230 943,321 "/>
<polygon class="st1" points="945,543 938,398 885,490 "/>
<polygon class="st2" points="990,898 871,769 916,912 "/>
<polygon class="st1" points="1001,-101 941,-79 964,-18 "/>
<polygon class="st1" points="1005,224 929,188 987,230 "/>
<polygon class="st0" points="1019,950 995,922 919,943 "/>
<polygon class="st0" points="866,1099 770,1066 585,1099 "/>
<polygon class="st1" points="1018,134 886,126 929,188 "/>
<polygon class="st1" points="938,398 925,400 885,490 "/>
<polygon class="st2" points="988,637 945,647 972,710 "/>
<polygon class="st0" points="996,1079 919,943 866,1099 "/>
<polygon class="st1" points="1000,376 943,321 953,390 "/>
<polygon class="st1" points="953,390 943,321 928,339 "/>
<polygon class="st0" points="1001,1099 996,1079 866,1099 "/>
<polygon class="st1" points="988,637 974,579 945,647 "/>
<polygon class="st0" points="995,922 990,898 916,912 "/>
<polygon class="st0" points="995,922 916,912 919,943 "/>
<polygon class="st1" points="929,188 886,126 915,183 "/>
<polygon class="st1" points="974,579 917,621 945,647 "/>
<polygon class="st1" points="987,230 929,188 943,321 "/>
<polygon class="st0" points="919,943 819,1036 866,1099 "/>
<polygon class="st0" points="919,943 846,962 819,1036 "/>
<polygon class="st1" points="925,400 873,461 885,490 "/>
<polygon class="st1" points="943,321 929,188 892,189 "/>
<polygon class="st1" points="964,-18 879,-63 886,126 "/>
<polygon class="st2" points="972,710 945,647 885,650 "/>
<polygon class="st1" points="974,579 945,543 912,575 "/>
<polygon class="st1" points="974,579 912,575 917,621 "/>
<polygon class="st1" points="886,126 879,-63 859,-61 "/>
<polygon class="st1" points="964,-18 903,-63 879,-63 "/>
<polygon class="st1" points="964,-18 941,-79 903,-63 "/>
<polygon class="st2" points="972,710 885,650 871,769 "/>
<polygon class="st1" points="915,183 886,126 907,181 "/>
<polygon class="st1" points="928,339 892,189 771,287 "/>
<polygon class="st1" points="938,398 928,339 925,400 "/>
<polygon class="st1" points="941,-79 840,-95 903,-63 "/>
<polygon class="st1" points="943,321 892,189 928,339 "/>
<polygon class="st1" points="953,390 928,339 938,398 "/>
<polygon class="st1" points="903,-63 840,-95 879,-63 "/>
<polygon class="st2" points="916,912 871,769 800,819 "/>
<polygon class="st1" points="929,188 915,183 892,189 "/>
<polygon class="st1" points="945,543 885,490 912,575 "/>
<polygon class="st1" points="945,647 917,621 885,650 "/>
<polygon class="st1" points="912,575 885,490 875,571 "/>
<polygon class="st1" points="859,-61 723,41 805,138 "/>
<polygon class="st1" points="886,126 859,-61 805,138 "/>
<polygon class="st1" points="925,400 771,287 873,461 "/>
<polygon class="st1" points="928,339 771,287 925,400 "/>
<polygon class="st1" points="917,621 912,575 874,606 "/>
<polygon class="st2" points="871,769 803,808 800,819 "/>
<polygon class="st1" points="886,126 805,138 871,135 "/>
<polygon class="st1" points="907,181 886,126 871,135 "/>
<polygon class="st1" points="915,183 907,181 892,189 "/>
<polygon class="st0" points="916,912 767,896 846,962 "/>
<polygon class="st2" points="916,912 800,819 767,896 "/>
<polygon class="st0" points="919,943 916,912 846,962 "/>
<polygon class="st1" points="917,621 874,606 885,650 "/>
<polygon class="st1" points="912,575 875,571 874,606 "/>
<polygon class="st1" points="892,189 871,135 857,161 "/>
<polygon class="st1" points="907,181 871,135 892,189 "/>
<polygon class="st2" points="885,650 794,746 871,769 "/>
<polygon class="st2" points="871,769 794,746 822,771 "/>
<polygon class="st1" points="873,461 771,287 701,384 "/>
<polygon class="st1" points="892,189 857,161 771,287 "/>
<polygon class="st0" points="770,1066 686,1057 585,1099 "/>
<polygon class="st2" points="800,819 773,844 767,896 "/>
<polygon class="st1" points="879,-63 840,-95 859,-61 "/>
<polygon class="st1" points="885,490 800,542 875,571 "/>
<polygon class="st2" points="871,769 822,771 803,808 "/>
<polygon class="st2" points="885,650 748,711 794,746 "/>
<polygon class="st1" points="885,650 769,600 748,711 "/>
<polygon class="st1" points="871,135 805,138 840,149 "/>
<polygon class="st1" points="885,650 874,606 769,600 "/>
<polygon class="st1" points="885,490 873,461 800,542 "/>
<polygon class="st1" points="857,161 741,258 771,287 "/>
<polygon class="st1" points="840,149 805,138 741,258 "/>
<polygon class="st1" points="857,161 840,149 741,258 "/>
<polygon class="st1" points="859,-61 711,-38 723,41 "/>
<polygon class="st1" points="874,606 798,568 772,594 "/>
<polygon class="st1" points="874,606 772,594 769,600 "/>
<polygon class="st1" points="875,571 798,568 874,606 "/>
<polygon class="st1" points="875,571 800,542 798,568 "/>
<polygon class="st1" points="873,461 701,384 753,540 "/>
<polygon class="st1" points="871,135 840,149 857,161 "/>
<polygon class="st1" points="873,461 753,540 800,542 "/>
<polygon class="st0" points="866,1099 819,1036 770,1066 "/>
<polygon class="st0" points="846,962 793,1026 819,1036 "/>
<polygon class="st1" points="859,-61 840,-95 824,-101 "/>
<polygon class="st1" points="859,-61 824,-101 711,-38 "/>
<polygon class="st0" points="846,962 773,983 793,1026 "/>
<polygon class="st0" points="846,962 767,896 773,983 "/>
<polygon class="st0" points="421,1099 199,1068 83,1086 "/>
<polygon class="st1" points="805,138 723,41 711,69 "/>
<polygon class="st0" points="819,1036 793,1026 770,1066 "/>
<polygon class="st1" points="824,-101 696,-101 711,-38 "/>
<polygon class="st1" points="805,138 685,155 741,258 "/>
<polygon class="st2" points="822,771 794,746 803,808 "/>
<polygon class="st1" points="753,540 701,384 704,539 "/>
<polygon class="st1" points="769,600 695,639 748,711 "/>
<polygon class="st0" points="773,983 767,896 725,924 "/>
<polygon class="st2" points="803,808 794,746 733,827 "/>
<polygon class="st1" points="805,138 711,69 685,155 "/>
<polygon class="st2" points="803,808 733,827 800,819 "/>
<polygon class="st0" points="773,983 725,924 737,977 "/>
<polygon class="st1" points="800,542 753,540 798,568 "/>
<polygon class="st2" points="800,819 733,827 773,844 "/>
<polygon class="st2" points="794,746 748,711 733,827 "/>
<polygon class="st1" points="798,568 753,540 772,594 "/>
<polygon class="st1" points="704,539 701,384 686,534 "/>
<polygon class="st0" points="793,1026 773,983 737,977 "/>
<polygon class="st0" points="793,1026 737,977 770,1066 "/>
<polygon class="st0" points="737,977 725,924 718,954 "/>
<polygon class="st2" points="767,896 733,827 686,884 "/>
<polygon class="st0" points="767,896 725,920 725,924 "/>
<polygon class="st1" points="769,600 753,540 704,539 "/>
<polygon class="st0" points="770,1066 737,977 729,978 "/>
<polygon class="st0" points="770,1066 729,978 686,1057 "/>
<polygon class="st1" points="771,287 741,258 673,311 "/>
<polygon class="st1" points="771,287 673,311 701,384 "/>
<polygon class="st1" points="772,594 753,540 769,600 "/>
<polygon class="st2" points="773,844 733,827 767,896 "/>
<polygon class="st0" points="767,896 686,884 725,920 "/>
<polygon class="st2" points="748,711 652,821 733,827 "/>
<polygon class="st2" points="748,711 654,704 652,821 "/>
<polygon class="st1" points="769,600 704,539 695,639 "/>
<polygon class="st1" points="701,384 643,390 686,534 "/>
<polygon class="st1" points="723,41 711,-38 688,28 "/>
<polygon class="st1" points="741,258 685,155 641,183 "/>
<polygon class="st2" points="748,711 695,639 654,704 "/>
<polygon class="st1" points="686,534 643,390 657,536 "/>
<polygon class="st1" points="704,539 668,631 695,639 "/>
<polygon class="st0" points="737,977 718,954 729,978 "/>
<polygon class="st1" points="741,258 641,183 673,311 "/>
<polygon class="st2" points="695,639 649,684 654,704 "/>
<polygon class="st0" points="729,978 646,1037 686,1057 "/>
<polygon class="st1" points="704,539 640,600 668,631 "/>
<polygon class="st2" points="733,827 652,821 686,884 "/>
<polygon class="st1" points="704,539 686,534 640,600 "/>
<polygon class="st0" points="729,978 718,954 630,959 "/>
<polygon class="st0" points="729,978 630,959 646,1037 "/>
<polygon class="st1" points="723,41 688,28 700,46 "/>
<polygon class="st1" points="723,41 700,46 711,69 "/>
<polygon class="st0" points="725,924 725,920 651,931 "/>
<polygon class="st0" points="725,924 651,931 718,954 "/>
<polygon class="st1" points="711,-38 696,-101 682,-101 "/>
<polygon class="st0" points="725,920 686,884 651,931 "/>
<polygon class="st1" points="673,311 641,183 586,239 "/>
<polygon class="st0" points="718,954 651,931 630,959 "/>
<polygon class="st1" points="686,534 657,536 640,600 "/>
<polygon class="st1" points="700,46 688,28 685,155 "/>
<polygon class="st1" points="701,384 673,311 645,318 "/>
<polygon class="st1" points="701,384 645,318 643,390 "/>
<polygon class="st1" points="711,69 700,46 685,155 "/>
<polygon class="st1" points="711,-38 629,-44 688,28 "/>
<polygon class="st1" points="711,-38 682,-101 629,-44 "/>
<polygon class="st1" points="688,28 527,128 685,155 "/>
<polygon class="st1" points="673,311 586,239 645,318 "/>
<polygon class="st1" points="685,155 527,128 641,183 "/>
<polygon class="st2" points="695,639 668,631 649,684 "/>
<polygon class="st1" points="657,536 643,390 563,423 "/>
<polygon class="st0" points="686,884 643,915 651,931 "/>
<polygon class="st0" points="686,1057 646,1037 585,1099 "/>
<polygon class="st1" points="682,-101 439,-101 629,-44 "/>
<polygon class="st2" points="654,704 567,740 652,821 "/>
<polygon class="st2" points="686,884 652,821 602,847 "/>
<polygon class="st0" points="686,884 602,847 643,915 "/>
<polygon class="st1" points="688,28 629,-44 527,128 "/>
<polygon class="st1" points="629,-44 439,-101 462,-64 "/>
<polygon class="st1" points="657,536 563,423 571,539 "/>
<polygon class="st1" points="643,390 591,392 563,423 "/>
<polygon class="st1" points="668,631 640,600 649,684 "/>
<polygon class="st1" points="629,-44 461,15 527,128 "/>
<polygon class="st0" points="643,915 602,847 585,901 "/>
<polygon class="st1" points="645,318 591,392 643,390 "/>
<polygon class="st1" points="649,684 640,600 538,642 "/>
<polygon class="st2" points="652,821 567,740 602,847 "/>
<polygon class="st1" points="657,536 571,539 640,600 "/>
<polygon class="st0" points="646,1037 630,959 548,1042 "/>
<polygon class="st2" points="654,704 649,684 567,740 "/>
<polygon class="st0" points="651,931 643,915 630,959 "/>
<polygon class="st2" points="649,684 537,709 567,740 "/>
<polygon class="st2" points="649,684 538,642 537,709 "/>
<polygon class="st1" points="645,318 586,239 510,314 "/>
<polygon class="st0" points="646,1037 548,1042 585,1099 "/>
<polygon class="st0" points="643,915 585,901 630,959 "/>
<polygon class="st1" points="645,318 510,314 591,392 "/>
<polygon class="st1" points="641,183 527,128 586,239 "/>
<polygon class="st1" points="640,600 571,539 538,642 "/>
<polygon class="st1" points="629,-44 462,-64 461,15 "/>
<polygon class="st0" points="630,959 585,901 545,931 "/>
<polygon class="st0" points="630,959 545,931 548,1042 "/>
<polygon class="st0" points="548,1042 545,931 505,993 "/>
<polygon class="st1" points="571,539 516,618 538,642 "/>
<polygon class="st1" points="586,239 527,128 512,134 "/>
<polygon class="st0" points="602,847 535,866 585,901 "/>
<polygon class="st2" points="602,847 567,740 535,866 "/>
<polygon class="st0" points="421,1099 284,1061 199,1068 "/>
<polygon class="st2" points="567,740 449,797 535,866 "/>
<polygon class="st1" points="571,539 563,423 446,467 "/>
<polygon class="st1" points="591,392 488,359 563,423 "/>
<polygon class="st1" points="591,392 510,314 488,359 "/>
<polygon class="st0" points="421,1099 323,1065 284,1061 "/>
<polygon class="st0" points="585,1099 548,1042 421,1099 "/>
<polygon class="st1" points="586,239 512,134 441,260 "/>
<polygon class="st1" points="586,239 441,260 473,289 "/>
<polygon class="st1" points="586,239 473,289 510,314 "/>
<polygon class="st0" points="585,901 535,866 545,931 "/>
<polygon class="st2" points="535,866 449,797 456,832 "/>
<polygon class="st1" points="563,423 488,359 481,384 "/>
<polygon class="st2" points="567,740 537,709 449,797 "/>
<polygon class="st1" points="571,539 441,580 516,618 "/>
<polygon class="st1" points="571,539 446,467 441,580 "/>
<polygon class="st1" points="563,423 481,384 446,467 "/>
<polygon class="st1" points="446,467 414,521 441,580 "/>
<polygon class="st1" points="512,134 416,167 441,260 "/>
<polygon class="st1" points="512,134 461,15 432,93 "/>
<polygon class="st1" points="527,128 461,15 512,134 "/>
<polygon class="st2" points="538,642 456,659 537,709 "/>
<polygon class="st0" points="548,1042 505,993 421,1099 "/>
<polygon class="st0" points="545,931 535,866 456,832 "/>
<polygon class="st0" points="545,931 456,832 505,993 "/>
<polygon class="st2" points="537,709 456,659 449,797 "/>
<polygon class="st1" points="538,642 516,618 456,659 "/>
<polygon class="st1" points="439,-101 176,-101 341,-58 "/>
<polygon class="st1" points="461,15 425,47 432,93 "/>
<polygon class="st0" points="505,993 456,832 371,843 "/>
<polygon class="st0" points="505,993 371,843 338,875 "/>
<polygon class="st1" points="516,618 441,580 456,659 "/>
<polygon class="st2" points="456,659 420,793 449,797 "/>
<polygon class="st1" points="510,314 473,289 488,359 "/>
<polygon class="st1" points="512,134 432,93 416,167 "/>
<polygon class="st0" points="505,993 338,875 287,938 "/>
<polygon class="st0" points="505,993 287,938 323,1065 "/>
<polygon class="st0" points="505,993 323,1065 421,1099 "/>
<polygon class="st2" points="456,659 390,786 420,793 "/>
<polygon class="st2" points="456,659 347,704 390,786 "/>
<polygon class="st1" points="488,359 473,289 427,267 "/>
<polygon class="st1" points="488,359 411,266 481,384 "/>
<polygon class="st1" points="488,359 427,267 411,266 "/>
<polygon class="st0" points="323,1065 287,938 278,975 "/>
<polygon class="st1" points="481,384 360,483 446,467 "/>
<polygon class="st1" points="481,384 411,266 360,483 "/>
<polygon class="st1" points="411,266 333,259 360,483 "/>
<polygon class="st1" points="462,-64 367,-46 461,15 "/>
<polygon class="st1" points="473,289 441,260 427,267 "/>
<polygon class="st1" points="360,483 333,259 297,272 "/>
<polygon class="st1" points="441,260 416,167 411,266 "/>
<polygon class="st1" points="456,659 441,580 385,598 "/>
<polygon class="st1" points="461,15 361,9 425,47 "/>
<polygon class="st1" points="461,15 367,-46 361,9 "/>
<polygon class="st1" points="462,-64 439,-101 367,-46 "/>
<polygon class="st2" points="456,832 449,797 420,793 "/>
<polygon class="st1" points="456,659 385,598 338,653 "/>
<polygon class="st2" points="456,659 338,653 347,704 "/>
<polygon class="st2" points="456,832 420,793 371,843 "/>
<polygon class="st1" points="432,93 384,148 416,167 "/>
<polygon class="st1" points="441,260 411,266 427,267 "/>
<polygon class="st2" points="390,786 347,704 344,755 "/>
<polygon class="st1" points="446,467 360,483 414,521 "/>
<polygon class="st1" points="441,580 414,521 385,598 "/>
<polygon class="st1" points="432,93 425,47 387,83 "/>
<polygon class="st1" points="416,167 336,254 411,266 "/>
<polygon class="st1" points="432,93 387,83 384,148 "/>
<polygon class="st1" points="439,-101 341,-58 367,-46 "/>
<polygon class="st2" points="420,793 390,786 371,843 "/>
<polygon class="st1" points="416,167 384,148 336,254 "/>
<polygon class="st1" points="425,47 361,9 387,83 "/>
<polygon class="st1" points="414,521 360,483 385,598 "/>
<polygon class="st1" points="411,266 336,254 333,259 "/>
<polygon class="st1" points="360,483 297,272 271,508 "/>
<polygon class="st1" points="384,148 286,50 248,119 "/>
<polygon class="st1" points="385,598 360,483 271,562 "/>
<polygon class="st1" points="387,83 286,50 384,148 "/>
<polygon class="st1" points="387,83 361,9 286,50 "/>
<polygon class="st2" points="390,786 356,838 371,843 "/>
<polygon class="st2" points="390,786 344,755 356,838 "/>
<polygon class="st1" points="360,483 271,508 271,562 "/>
<polygon class="st1" points="384,148 248,119 336,254 "/>
<polygon class="st1" points="385,598 271,562 338,653 "/>
<polygon class="st1" points="297,272 137,390 271,508 "/>
<polygon class="st1" points="336,254 248,119 235,240 "/>
<polygon class="st2" points="356,838 344,755 280,813 "/>
<polygon class="st2" points="356,838 280,813 339,848 "/>
<polygon class="st1" points="367,-46 341,-58 361,9 "/>
<polygon class="st0" points="371,843 356,838 339,848 "/>
<polygon class="st0" points="371,843 339,848 338,875 "/>
<polygon class="st1" points="338,653 271,562 258,581 "/>
<polygon class="st1" points="361,9 341,-58 256,18 "/>
<polygon class="st1" points="361,9 256,18 286,50 "/>
<polygon class="st0" points="323,1065 278,975 284,1061 "/>
<polygon class="st2" points="347,704 338,653 299,693 "/>
<polygon class="st1" points="336,254 235,240 297,272 "/>
<polygon class="st2" points="344,755 256,759 280,813 "/>
<polygon class="st2" points="347,704 299,693 344,755 "/>
<polygon class="st1" points="338,653 258,581 241,605 "/>
<polygon class="st2" points="344,755 299,693 256,759 "/>
<polygon class="st1" points="341,-58 176,-101 256,18 "/>
<polygon class="st1" points="336,254 297,272 333,259 "/>
<polygon class="st1" points="338,653 241,605 299,693 "/>
<polygon class="st2" points="339,848 280,813 338,875 "/>
<polygon class="st0" points="338,875 226,860 287,938 "/>
<polygon class="st2" points="338,875 280,813 226,860 "/>
<polygon class="st1" points="286,50 256,18 275,46 "/>
<polygon class="st0" points="83,1086 53,1076 -199,1099 "/>
<polygon class="st1" points="271,508 137,390 202,532 "/>
<polygon class="st2" points="280,813 235,822 226,860 "/>
<polygon class="st0" points="284,1061 278,975 223,975 "/>
<polygon class="st1" points="286,50 275,46 233,87 "/>
<polygon class="st1" points="286,50 233,87 248,119 "/>
<polygon class="st0" points="287,938 226,860 218,891 "/>
<polygon class="st1" points="297,272 235,240 137,390 "/>
<polygon class="st2" points="299,693 235,731 256,759 "/>
<polygon class="st2" points="299,693 241,605 235,731 "/>
<polygon class="st2" points="235,240 183,233 137,390 "/>
<polygon class="st2" points="241,605 169,673 235,731 "/>
<polygon class="st2" points="248,119 172,166 235,240 "/>
<polygon class="st0" points="284,1061 223,975 186,1014 "/>
<polygon class="st0" points="284,1061 186,1014 199,1068 "/>
<polygon class="st0" points="287,938 226,951 278,975 "/>
<polygon class="st0" points="287,938 218,891 226,951 "/>
<polygon class="st2" points="280,813 256,759 235,822 "/>
<polygon class="st2" points="256,18 176,-101 145,-7 "/>
<polygon class="st1" points="271,562 271,508 202,532 "/>
<polygon class="st0" points="278,975 226,951 223,975 "/>
<polygon class="st1" points="275,46 256,18 233,87 "/>
<polygon class="st2" points="183,233 155,239 137,390 "/>
<polygon class="st1" points="271,562 202,532 258,581 "/>
<polygon class="st2" points="202,532 137,390 106,457 "/>
<polygon class="st2" points="235,240 172,166 183,233 "/>
<polygon class="st2" points="256,18 145,-7 233,87 "/>
<polygon class="st2" points="256,759 235,731 235,822 "/>
<polygon class="st2" points="258,581 202,532 241,605 "/>
<polygon class="st2" points="248,119 233,87 172,166 "/>
<polygon class="st2" points="235,731 169,673 98,687 "/>
<polygon class="st2" points="235,731 98,687 130,864 "/>
<polygon class="st2" points="235,731 130,864 235,822 "/>
<polygon class="st2" points="241,605 202,532 169,673 "/>
<polygon class="st2" points="233,87 145,-7 106,21 "/>
<polygon class="st0" points="226,951 218,891 162,951 "/>
<polygon class="st2" points="235,822 130,864 226,860 "/>
<polygon class="st2" points="233,87 106,21 172,166 "/>
<polygon class="st0" points="226,951 162,951 223,975 "/>
<polygon class="st0" points="226,860 130,864 218,891 "/>
<polygon class="st0" points="223,975 154,964 186,1014 "/>
<polygon class="st0" points="223,975 162,951 154,964 "/>
<polygon class="st2" points="130,864 98,687 40,749 "/>
<polygon class="st0" points="218,891 130,864 162,951 "/>
<polygon class="st2" points="155,239 77,372 137,390 "/>
<polygon class="st2" points="202,532 106,457 12,556 "/>
<polygon class="st2" points="202,532 98,687 169,673 "/>
<polygon class="st2" points="202,532 12,556 98,687 "/>
<polygon class="st2" points="183,233 172,166 155,239 "/>
<polygon class="st0" points="199,1068 186,1014 83,1086 "/>
<polygon class="st2" points="98,687 12,556 10,627 "/>
<polygon class="st0" points="162,951 130,864 115,950 "/>
<polygon class="st2" points="172,166 123,217 155,239 "/>
<polygon class="st2" points="176,-101 81,-25 145,-7 "/>
<polygon class="st0" points="186,1014 154,964 66,983 "/>
<polygon class="st0" points="186,1014 66,983 83,1086 "/>
<polygon class="st2" points="172,166 106,21 39,214 "/>
<polygon class="st2" points="176,-101 73,-101 81,-25 "/>
<polygon class="st0" points="20,1062 -133,1063 -199,1099 "/>
<polygon class="st0" points="53,1076 20,1062 -199,1099 "/>
<polygon class="st2" points="172,166 39,214 123,217 "/>
<polygon class="st0" points="154,964 115,950 66,983 "/>
<polygon class="st2" points="155,239 123,217 77,372 "/>
<polygon class="st2" points="123,217 39,214 77,372 "/>
<polygon class="st0" points="162,951 115,950 154,964 "/>
<polygon class="st2" points="106,21 75,10 39,214 "/>
<polygon class="st2" points="130,864 40,749 18,823 "/>
<polygon class="st2" points="77,372 39,214 56,372 "/>
<polygon class="st2" points="137,390 83,449 106,457 "/>
<polygon class="st2" points="145,-7 81,-25 106,21 "/>
<polygon class="st2" points="106,457 83,449 12,556 "/>
<polygon class="st2" points="137,390 77,372 83,449 "/>
<polygon class="st2" points="73,-101 -199,-101 -29,-50 "/>
<polygon class="st2" points="83,449 1,534 12,556 "/>
<polygon class="st0" points="83,1086 66,983 53,1076 "/>
<polygon class="st0" points="130,864 -12,854 115,950 "/>
<polygon class="st2" points="130,864 18,823 -12,854 "/>
<polygon class="st2" points="56,372 39,214 -28,315 "/>
<polygon class="st2" points="106,21 81,-25 75,10 "/>
<polygon class="st0" points="115,950 -12,854 66,983 "/>
<polygon class="st0" points="66,983 -12,854 -31,938 "/>
<polygon class="st2" points="75,10 -57,199 39,214 "/>
<polygon class="st2" points="83,449 77,372 56,372 "/>
<polygon class="st0" points="-29,-50 -199,-101 -141,-60 "/>
<polygon class="st0" points="66,983 20,1062 53,1076 "/>
<polygon class="st2" points="75,10 -41,-28 -57,199 "/>
<polygon class="st2" points="83,449 3,447 1,534 "/>
<polygon class="st2" points="98,687 -1,703 40,749 "/>
<polygon class="st2" points="98,687 10,627 -1,703 "/>
<polygon class="st2" points="81,-25 73,-101 -7,-42 "/>
<polygon class="st2" points="83,449 56,372 3,447 "/>
<polygon class="st2" points="81,-25 -7,-42 75,10 "/>
<polygon class="st2" points="75,10 -7,-42 -41,-28 "/>
<polygon class="st2" points="73,-101 -29,-50 -7,-42 "/>
<polygon class="st2" points="12,556 3,563 10,627 "/>
<polygon class="st0" points="66,983 -32,1035 20,1062 "/>
<polygon class="st0" points="66,983 -31,938 -32,1035 "/>
<polygon class="st0" points="20,1062 -32,1035 -133,1063 "/>
<polygon class="st2" points="56,372 -28,315 -45,357 "/>
<polygon class="st2" points="56,372 -45,391 3,447 "/>
<polygon class="st2" points="56,372 -45,357 -45,391 "/>
<polygon class="st2" points="3,447 -35,508 1,534 "/>
<polygon class="st2" points="39,214 -57,199 -28,315 "/>
<polygon class="st2" points="40,749 -1,703 18,823 "/>
<polygon class="st0" points="-41,-28 -197,41 -57,199 "/>
<polygon class="st2" points="-1,703 -119,683 -12,854 "/>
<polygon class="st2" points="10,627 3,563 -30,554 "/>
<polygon class="st2" points="18,823 -1,703 -12,854 "/>
<polygon class="st2" points="10,627 -97,636 -1,703 "/>
<polygon class="st2" points="10,627 -30,554 -73,599 "/>
<polygon class="st0" points="-28,315 -57,199 -92,293 "/>
<polygon class="st0" points="-12,854 -119,683 -199,798 "/>
<polygon class="st2" points="10,627 -73,599 -97,636 "/>
<polygon class="st2" points="12,556 1,534 3,563 "/>
<polygon class="st0" points="-57,199 -197,41 -199,154 "/>
<polygon class="st2" points="3,563 1,534 -30,554 "/>
<polygon class="st2" points="3,447 -45,391 -35,508 "/>
<polygon class="st2" points="-1,703 -97,636 -119,683 "/>
<polygon class="st2" points="1,534 -35,508 -30,554 "/>
<polygon class="st0" points="-31,938 -110,948 -32,1035 "/>
<polygon class="st0" points="-29,-50 -42,-34 -41,-28 "/>
<polygon class="st0" points="-12,854 -110,948 -31,938 "/>
<polygon class="st2" points="-7,-42 -29,-50 -41,-28 "/>
<polygon class="st0" points="-12,854 -161,927 -110,948 "/>
<polygon class="st0" points="-12,854 -199,798 -161,927 "/>
<polygon class="st0" points="-41,-28 -141,-60 -197,41 "/>
<polygon class="st0" points="-35,508 -45,391 -189,468 "/>
<polygon class="st0" points="-35,508 -189,468 -116,543 "/>
<polygon class="st0" points="-32,1035 -110,948 -133,1063 "/>
<polygon class="st0" points="-30,554 -35,508 -116,543 "/>
<polygon class="st0" points="-29,-50 -141,-60 -42,-34 "/>
<polygon class="st0" points="-28,315 -92,293 -45,357 "/>
<polygon class="st0" points="-45,391 -121,359 -189,468 "/>
<polygon class="st0" points="-30,554 -116,543 -73,599 "/>
<polygon class="st0" points="-45,357 -92,293 -121,359 "/>
<polygon class="st0" points="-41,-28 -42,-34 -141,-60 "/>
<polygon class="st0" points="-45,357 -121,359 -45,391 "/>
<polygon class="st0" points="-57,199 -158,254 -92,293 "/>
<polygon class="st0" points="-57,199 -199,154 -158,254 "/>
<polygon class="st0" points="-141,-60 -199,-23 -197,41 "/>
<polygon class="st0" points="-73,599 -118,607 -97,636 "/>
<polygon class="st0" points="-73,599 -116,543 -118,607 "/>
<polygon class="st0" points="-121,359 -158,254 -199,331 "/>
<polygon class="st0" points="-116,543 -189,468 -199,499 "/>
<polygon class="st0" points="-110,948 -182,1040 -133,1063 "/>
<polygon class="st0" points="-110,948 -199,1001 -182,1040 "/>
<polygon class="st0" points="-92,293 -158,254 -121,359 "/>
<polygon class="st0" points="-97,636 -118,607 -119,683 "/>
<polygon class="st0" points="-121,359 -199,354 -189,468 "/>
<polygon class="st0" points="-116,543 -199,499 -118,607 "/>
<polygon class="st0" points="-110,948 -161,927 -199,1001 "/>
<polygon class="st0" points="-119,683 -199,499 -199,798 "/>
<polygon class="st0" points="-118,607 -199,499 -119,683 "/>
<polygon class="st0" points="-121,359 -199,331 -199,354 "/>
<polygon class="st0" points="-133,1063 -182,1040 -199,1073 "/>
<polygon class="st0" points="-133,1063 -199,1073 -199,1099 "/>
<polygon class="st0" points="-141,-60 -199,-101 -199,-23 "/>
<polygon class="st0" points="-158,254 -199,154 -199,331 "/>
<polygon class="st0" points="-161,927 -199,798 -199,1001 "/>
<polygon class="st0" points="-182,1040 -199,1001 -199,1073 "/>
<polygon class="st0" points="-189,468 -199,354 -199,499 "/>
<polygon class="st0" points="-197,41 -199,-23 -199,154 "/>
</svg>
