<svg id="ac01adfd-51f4-4db0-a501-2537bf87c1fb" data-name="Layer 1" xmlns="http://www.w3.org/2000/svg" viewBox="0 0 2959.38 822.71"><title>shortLogo2020-dark</title><path d="M2152.65,816.4v25.29H2034v-20l63.9-60.68q10.8-10.35,14.48-17.93a34.31,34.31,0,0,0,3.91-15.4q0-11.26-7.59-17.24t-22.3-6q-24.58,0-37.69,16.78l-20.92-16.09a61.21,61.21,0,0,1,25.28-19.54q16.09-7.12,35.86-7.12,26.21,0,41.84,12.41t15.63,33.79a56.11,56.11,0,0,1-5.52,24.6q-5.52,11.49-21.15,26.2l-43,40.91ZM2236.34,844q-19.31,0-34.48-9.66-15.17-9.89-23.91-28.5-8.73-18.84-8.73-44.59t8.73-44.36q8.75-18.86,23.91-28.51a65.11,65.11,0,0,1,69,0q15.41,9.66,24.14,28.51,8.73,18.61,8.73,44.36T2295,805.83q-8.74,18.61-24.14,28.5Q2255.65,844,2236.34,844Zm0-26q17.23,0,27.12-14.25,10.13-14.25,10.12-42.52t-10.12-42.53q-9.89-14.25-27.12-14.25-17,0-27.12,14.25-9.88,14.26-9.89,42.53t9.89,42.52Q2219.33,818,2236.34,818Zm203-1.61v25.29H2320.69v-20L2384.6,761q10.8-10.35,14.48-17.93a34.29,34.29,0,0,0,3.9-15.4q0-11.26-7.58-17.24t-22.3-6q-24.58,0-37.7,16.78l-20.91-16.09a61.21,61.21,0,0,1,25.28-19.54q16.09-7.12,35.86-7.12,26.2,0,41.84,12.41t15.63,33.79a56.11,56.11,0,0,1-5.52,24.6q-5.52,11.49-21.15,26.2l-43,40.91ZM2523,844q-19.32,0-34.48-9.66-15.18-9.89-23.91-28.5-8.73-18.84-8.73-44.59t8.73-44.36q8.73-18.86,23.91-28.51a65.11,65.11,0,0,1,69,0q15.39,9.66,24.13,28.51,8.74,18.61,8.74,44.36t-8.74,44.59q-8.73,18.61-24.13,28.5A62.84,62.84,0,0,1,2523,844Zm0-26q17.23,0,27.12-14.25,10.11-14.25,10.12-42.52t-10.12-42.53q-9.88-14.25-27.12-14.25-17,0-27.13,14.25Q2486,733,2486,761.24t9.88,42.52Q2506,818,2523,818Z" transform="translate(-13.94 -21.28)" fill="#00d0fe"/><path d="M48.72,442.28A91.42,91.42,0,0,0,61.5,489.53,99,99,0,0,0,96.36,524,93.46,93.46,0,0,0,144,536.78q26.34,0,47.64-10.45t33.31-29.05a76.12,76.12,0,0,0,12.78-41.83h13.94a87.79,87.79,0,0,1-14.33,48.8q-13.94,21.69-38.73,34.47Q174.21,551.11,144,551.11a106.3,106.3,0,0,1-54.6-14.71A110.37,110.37,0,0,1,49.5,496.89a106.31,106.31,0,0,1-14.72-54.61V378.77a106.45,106.45,0,0,1,14.33-54.22,110.42,110.42,0,0,1,39.5-39.89,106.37,106.37,0,0,1,54.61-14.72q29.82,0,54.22,12.78,24.78,12.39,39.12,34.47a85.94,85.94,0,0,1,14.33,48.41H236.94a76,76,0,0,0-12.78-41.83,84.08,84.08,0,0,0-33.69-29q-20.91-10.46-47.25-10.46A91.42,91.42,0,0,0,96,297.05,95.87,95.87,0,0,0,61.5,331.52a91.42,91.42,0,0,0-12.78,47.25ZM357.87,275.75H372.2V442.28A91.42,91.42,0,0,0,385,489.53,95.87,95.87,0,0,0,419.45,524a93.72,93.72,0,0,0,94.49,0,95.87,95.87,0,0,0,34.47-34.47,91.42,91.42,0,0,0,12.78-47.25V275.75h14.33V442.28a106.31,106.31,0,0,1-14.71,54.61,110.53,110.53,0,0,1-39.89,39.51,104.3,104.3,0,0,1-54.22,14.71,106.31,106.31,0,0,1-54.61-14.71,111.45,111.45,0,0,1-39.51-39.51,106.31,106.31,0,0,1-14.71-54.61Z" transform="translate(-13.94 -21.28)" fill="#fff"/><path d="M61.5,489.53l-18,10.58.07.12.07.12ZM96.36,524,85.78,542l.07,0,.07,0Zm95.27,2.33-9.18-18.71h0Zm33.31-29.05L207.6,485.72l-.08.13-.09.12Zm12.78-41.83V434.61H217.23l-.35,20.49Zm13.94,0H272.5V434.61H251.66Zm-14.33,48.8L219.85,492.9l0,0,0,0ZM198.6,538.72,208,557.3l.06,0,.05,0ZM49.5,496.89l-18,10.52,0,.06,0,.06Zm-.39-172.34L31.12,314l0,.05,0,0Zm39.5-39.89-10.51-18-.06,0-.07,0Zm108.83-1.94-9.67,18.46.18.09.17.09Zm39.12,34.47-17.48,11.35,0,.07,0,.07Zm14.33,48.41v20.84h20.83V365.6Zm-13.95,0-20.83.35.34,20.49h20.49Zm-46.47-70.87-9.32,18.64.07,0,.07,0ZM96,297.05,106.55,315h0ZM61.5,331.52l-18-10.58h0ZM27.88,442.28a112.21,112.21,0,0,0,15.67,57.83L79.45,479a70.58,70.58,0,0,1-9.89-36.67Zm15.81,58.07A119.85,119.85,0,0,0,85.78,542l21.16-35.9a78.27,78.27,0,0,1-27.63-27.33ZM85.92,542A114.29,114.29,0,0,0,144,557.62V515.94a72.62,72.62,0,0,1-37.19-10ZM144,557.62c20.39,0,39.46-4.07,56.82-12.59l-18.36-37.41c-11,5.42-23.73,8.32-38.46,8.32ZM200.81,545c17.34-8.51,31.43-20.65,41.63-36.45l-35-22.61c-5.8,9-13.92,16.22-25,21.65Zm41.47-36.19a96.9,96.9,0,0,0,16.27-53l-41.67-.7a55.26,55.26,0,0,1-9.28,30.62Zm-4.56-32.55h13.94V434.61H237.72Zm-6.9-20.84a66.87,66.87,0,0,1-11,37.45l35,22.7a108.62,108.62,0,0,0,17.69-60.15ZM219.8,493c-7.15,11.14-17.2,20.23-30.75,27.22l19.1,37c19.5-10.06,35.28-23.94,46.71-41.72Zm-30.63,27.16c-13,6.63-28,10.13-45.18,10.13V572c23.08,0,44.57-4.76,64-14.65ZM144,530.27A85.56,85.56,0,0,1,99.9,518.41l-21,36A127.11,127.11,0,0,0,144,572ZM99.9,518.41a89.62,89.62,0,0,1-32.49-32.16L31.58,507.53a131.26,131.26,0,0,0,47.29,46.85Zm-32.41-32a85.5,85.5,0,0,1-11.87-44.1H13.94a127.12,127.12,0,0,0,17.57,65.13Zm-11.87-44.1V378.77H13.94v63.51Zm0-63.51A85.56,85.56,0,0,1,67.15,335L31.07,314.12a127.25,127.25,0,0,0-17.13,64.65Zm11.48-43.7a89.51,89.51,0,0,1,32.15-32.49L78,266.74A131.33,131.33,0,0,0,31.12,314Zm32-32.42a85.47,85.47,0,0,1,44.09-11.87V249.1A127.08,127.08,0,0,0,78.1,266.67Zm44.09-11.87c16.8,0,31.51,3.57,44.55,10.4l19.34-36.92c-19.49-10.21-40.93-15.16-63.89-15.16Zm44.9,10.58c13.39,6.69,23.54,15.74,31,27.18L254,305.85c-11.68-18-27.61-31.93-47.27-41.77Zm31,27.32a65,65,0,0,1,10.88,36.92h41.67a106.75,106.75,0,0,0-17.78-59.9Zm31.72,16.08H236.94v41.68h13.95Zm6.89,20.49a96.88,96.88,0,0,0-16.28-53l-34.67,23.11A55.34,55.34,0,0,1,216.11,366Zm-16.28-53A104.91,104.91,0,0,0,199.65,276l-18.36,37.41a63.39,63.39,0,0,1,25.54,21.9Zm-41.71-36.13c-17.19-8.59-36.19-12.66-56.57-12.66v41.68c14.73,0,27.23,2.9,37.93,8.26Zm-56.57-12.66A112.26,112.26,0,0,0,85.39,279.1L106.55,315a70.58,70.58,0,0,1,36.67-9.89ZM85.39,279.1a116.68,116.68,0,0,0-41.84,41.84l35.9,21.16a75.06,75.06,0,0,1,27.1-27.1ZM43.55,320.94a112.26,112.26,0,0,0-15.67,57.83H69.56a70.58,70.58,0,0,1,9.89-36.67ZM27.88,378.77v63.51H69.56V378.77Zm330-103V254.91H337v20.84Zm14.33,0H393V254.91H372.2ZM385,489.53,402.93,479h0ZM419.45,524l-10.58,18h0Zm94.49,0-10.57-17.95h0Zm34.47-34.47L530.46,479h0Zm12.78-213.78V254.91H540.36v20.84Zm14.33,0h20.84V254.91H575.52ZM560.81,496.89l17.91,10.64,0-.06,0-.06ZM520.92,536.4l-10.52-18-.06,0-.06,0Zm-108.83,0-10.64,17.91.06,0,.06,0Zm-39.51-39.51-18,10.52,0,.06,0,.06Zm-14.71-200.3H372.2V254.91H357.87Zm-6.51-20.84V442.28H393V275.75Zm0,166.53A112.21,112.21,0,0,0,367,500.11L402.93,479a70.59,70.59,0,0,1-9.9-36.67ZM367,500.11A116.68,116.68,0,0,0,408.87,542L430,506.05a75.06,75.06,0,0,1-27.1-27.1ZM408.87,542a112.21,112.21,0,0,0,57.83,15.67V515.94A70.58,70.58,0,0,1,430,506.05Zm57.83,15.67A112.2,112.2,0,0,0,524.52,542l-21.15-35.9a70.61,70.61,0,0,1-36.67,9.89ZM524.52,542a116.71,116.71,0,0,0,41.85-41.84L530.46,479a75.11,75.11,0,0,1-27.09,27.1Zm41.85-41.84A112.3,112.3,0,0,0,582,442.28H540.36a70.59,70.59,0,0,1-9.9,36.67ZM582,442.28V275.75H540.36V442.28ZM561.19,296.59h14.33V254.91H561.19Zm-6.5-20.84V442.28h41.67V275.75Zm0,166.53a85.6,85.6,0,0,1-11.87,44.1l36,21a127.21,127.21,0,0,0,17.56-65.13Zm-11.8,44a89.62,89.62,0,0,1-32.49,32.16l21,36a131.1,131.1,0,0,0,47.29-46.85Zm-32.61,32.23a83.43,83.43,0,0,1-43.58,11.79V572a125,125,0,0,0,64.85-17.64ZM466.7,530.27a85.57,85.57,0,0,1-44.1-11.86l-21,36A127.12,127.12,0,0,0,466.7,572Zm-44-11.79a90.49,90.49,0,0,1-32.23-32.23l-35.83,21.28a132.19,132.19,0,0,0,46.78,46.78Zm-32.16-32.1a85.59,85.59,0,0,1-11.86-44.1H337a127.12,127.12,0,0,0,17.57,65.13Zm-11.86-44.1V275.75H337V442.28Z" transform="translate(-13.94 -21.28)" fill="#fff"/><path d="M669.41,573.69V58.25h77.5v219H1005v-219h78.2V230.3q0,42-.71,86V573.69H1005V351.16H746.91V573.69Zm485-145.74a154.57,154.57,0,0,1,12.09-61.14,169.61,169.61,0,0,1,83.18-85.32,145.59,145.59,0,0,1,60.43-12.8,127.8,127.8,0,0,1,39.1,5.69,121.24,121.24,0,0,1,30.57,12.8,94.46,94.46,0,0,1,20.62,16.35q7.82,8.54,10.67,14.93l2.84-41.95h58.3V573.69h-61.14V536a81.7,81.7,0,0,1-11.38,13.51,92.78,92.78,0,0,1-20.62,14.93A155.45,155.45,0,0,1,1350,575.83q-17.06,5-39.1,5-34.12,0-63.27-12.08a154.69,154.69,0,0,1-81.76-82.47A152,152,0,0,1,1154.45,428Zm61.14-3.56a102.39,102.39,0,0,0,7.11,38.39A96.63,96.63,0,0,0,1273.89,514a111.09,111.09,0,0,0,78.21,0,97,97,0,0,0,31.28-20.62A94.11,94.11,0,0,0,1404,462.78a102.39,102.39,0,0,0,7.11-38.39,97.07,97.07,0,0,0-7.11-37.68,85.12,85.12,0,0,0-20.62-30.57,88.52,88.52,0,0,0-31.28-19.91,101.69,101.69,0,0,0-78.21,0,89.86,89.86,0,0,0-30.57,19.91,99.35,99.35,0,0,0-20.62,30.57A97.07,97.07,0,0,0,1215.59,424.39Zm541.1,76.07q9.94,12.09,18.48,23.47,9.25,10.67,18.49,22.75a165,165,0,0,1-44.79,24.88,154,154,0,0,1-54,9.24A160,160,0,0,1,1633,568.72a164.69,164.69,0,0,1-83.89-83.9,157.19,157.19,0,0,1,0-120.86A162,162,0,0,1,1633,281.49a152.23,152.23,0,0,1,61.86-12.8q29.85,0,54.74,9.25a173.11,173.11,0,0,1,46.21,24.88L1756.69,349A82.62,82.62,0,0,0,1729,334.1a99.19,99.19,0,0,0-34.12-5.69,96.13,96.13,0,0,0-39.11,7.82,97.93,97.93,0,0,0-31.28,19.91,89.84,89.84,0,0,0-19.9,30.57,97.07,97.07,0,0,0-7.11,37.68,102.39,102.39,0,0,0,7.11,38.39,100,100,0,0,0,19.9,30.57A108.52,108.52,0,0,0,1655.73,514a104.41,104.41,0,0,0,39.11,7.11,112.26,112.26,0,0,0,34.12-5A93.55,93.55,0,0,0,1756.69,500.46Zm307.85-231.77L2100.8,305q-27,24.89-51.9,48.35-24.17,23.46-51.19,49.05,32,42.66,62.57,86,30.57,42.66,61.85,85.31h-69.67q-24.18-33.41-49.06-65.41-24.17-32.7-48.34-66.11l-41.24,37.68v93.84h-60.43V21.28h60.43V408.75q39.81-36.25,76.07-69.67Q2026.15,305,2064.54,268.69Zm95.54-105.93q0-17.06,12.09-28.44Q2185,123,2199.18,123t26.31,11.37q12.09,11.38,12.09,28.44t-12.09,28.44q-12.09,10.67-26.31,10.66t-27-10.66Q2160.08,179.83,2160.08,162.76Zm68.25,410.93H2167.9V276.51h60.43Zm85.37-297.18H2367q1.42,22,2.14,40.53,1.43,17.77,2.84,35.55,16.35-38.4,46.21-61.15,30.57-22.74,74.65-22.75,44.79,0,71.81,24.89t28.44,64V573.69H2532V385.29q-1.42-22.76-15.65-38.39-14.22-16.35-44.79-17.77a96,96,0,0,0-39.1,7.82,89.84,89.84,0,0,0-30.57,19.9,99.35,99.35,0,0,0-20.62,30.57,104.41,104.41,0,0,0-7.11,39.11V573.69H2313.7Zm341.82,149.3q0-33.4,12.09-61.85,12.07-29.15,32.7-49.76a149.8,149.8,0,0,1,48.35-33.42,146,146,0,0,1,59-12.09q24.18,0,42.66,6.4,19.2,6.41,32,14.93t19.91,17.07q7.82,7.82,10,11.37a155.83,155.83,0,0,1,1.43-20.62,173.94,173.94,0,0,0,1.42-21.33h58.3V560.18q0,74-43.37,115.18t-117.31,41.23q-25.59,0-46.21-5.68a179.91,179.91,0,0,1-37-13.51,188.53,188.53,0,0,1-30.57-19.91q-13.51-11.37-27-23.46l39.1-41.24q22.05,20.63,44.79,32.71,23.47,12.09,55.46,12.08,47.63,0,73.94-22.75t27-63.27V550.94a55.63,55.63,0,0,1,1.43-12.08,60.65,60.65,0,0,0,1.42-10.67,177.71,177.71,0,0,1-16.35,18.49,118.19,118.19,0,0,1-22,17.06,145.33,145.33,0,0,1-29.86,12.09q-17.07,5-38.39,5-33.42,0-61.15-12.08A155.47,155.47,0,0,1,2698.89,536a153.91,153.91,0,0,1-32-49.05A163,163,0,0,1,2655.52,425.81Zm61.14-1.42a102.39,102.39,0,0,0,7.11,38.39A96.63,96.63,0,0,0,2775,514a111.09,111.09,0,0,0,78.21,0,97,97,0,0,0,31.28-20.62,94.08,94.08,0,0,0,20.61-30.57,102.39,102.39,0,0,0,7.11-38.39,97.07,97.07,0,0,0-7.11-37.68,85.1,85.1,0,0,0-20.61-30.57,88.52,88.52,0,0,0-31.28-19.91,101.69,101.69,0,0,0-78.21,0,89.86,89.86,0,0,0-30.57,19.91,99.35,99.35,0,0,0-20.62,30.57A97.07,97.07,0,0,0,2716.66,424.39Z" transform="translate(-13.94 -21.28)" fill="#9756d8"/></svg>