<svg id="b905d59f-3164-44f3-aa45-0145e60651d4" data-name="Layer 1" xmlns="http://www.w3.org/2000/svg" viewBox="0 0 2640.65 593.71"><title>shortLogo</title><path d="M2409.23,384.9l219.22-162.75,26-67.66Z" transform="translate(-13.79 -154.49)" fill="#10021f"/><path d="M2412.84,383.33l194.41-93.09L2636.36,224Z" transform="translate(-13.79 -154.49)" fill="#fff"/><path d="M2606.1,288.85l26.38-60L2430,373.17Z" transform="translate(-13.79 -154.49)" fill="none" stroke="#00d0fe" stroke-width="3.47"/><path d="M2629.47,289l-82.15,52.56-134.48,42.82Z" transform="translate(-13.79 -154.49)" fill="#280749"/><path d="M41.91,527.28a73.87,73.87,0,0,0,10.33,38.19,80,80,0,0,0,28.17,27.86,75.54,75.54,0,0,0,38.51,10.33q21.29,0,38.5-8.45a65.72,65.72,0,0,0,26.92-23.48,61.51,61.51,0,0,0,10.33-33.81h11.27a70.93,70.93,0,0,1-11.58,39.44q-11.27,17.53-31.31,27.87-19.71,10-44.13,10a85.93,85.93,0,0,1-44.14-11.89,89.26,89.26,0,0,1-32.25-31.93,86,86,0,0,1-11.89-44.14V475.94a86.06,86.06,0,0,1,11.58-43.83,89.23,89.23,0,0,1,31.93-32.24A86,86,0,0,1,118.29,388q24.11,0,43.83,10.33a78.91,78.91,0,0,1,31.61,27.87,69.36,69.36,0,0,1,11.59,39.13H194.05a61.54,61.54,0,0,0-10.33-33.81A67.94,67.94,0,0,0,156.48,408q-16.9-8.46-38.19-8.45A73.87,73.87,0,0,0,80.1,409.89a77.35,77.35,0,0,0-27.86,27.86,73.84,73.84,0,0,0-10.33,38.19ZM291.79,392.67h11.58V527.28a74,74,0,0,0,10.33,38.19,77.58,77.58,0,0,0,27.86,27.86,75.78,75.78,0,0,0,76.39,0,77.58,77.58,0,0,0,27.86-27.86,74,74,0,0,0,10.33-38.19V392.67h11.58V527.28a86,86,0,0,1-11.89,44.14,89.34,89.34,0,0,1-32.25,31.93,84.24,84.24,0,0,1-43.82,11.89,85.9,85.9,0,0,1-44.14-11.89,90.14,90.14,0,0,1-31.94-31.93,86,86,0,0,1-11.89-44.14Z" transform="translate(-13.79 -154.49)" fill="#9756d8"/><path d="M52.24,565.47,37.73,574l.05.1.06.09Zm28.17,27.86-8.55,14.51.06,0,0,0Zm77,1.88L150,580.09Zm26.92-23.48-14-9.34-.07.1-.07.1Zm10.33-33.81V521.08H178.11l-.28,16.56Zm11.27,0h16.85V521.08H205.94Zm-11.58,39.44-14.13-9.16,0,0,0,0Zm-31.31,27.87,7.63,15,0,0,0,0ZM42.53,571.42,28,579.92l0,.05,0,0Zm-.31-139.31-14.54-8.5,0,0,0,0Zm31.93-32.24-8.5-14.54-.05,0,0,0Zm88-1.57-7.82,14.92.14.08.14.07Zm31.61,27.87-14.12,9.17,0,.05,0,.06Zm11.59,39.13v16.84h16.84V465.3Zm-11.27,0-16.84.28.27,16.56h16.57ZM156.48,408,149,423.07l.05,0,.06,0ZM80.1,409.89l8.55,14.51h0ZM52.24,437.75,37.73,429.2h0ZM25.06,527.28A90.71,90.71,0,0,0,37.73,574l29-17.1a57,57,0,0,1-8-29.64Zm12.78,46.93a97,97,0,0,0,34,33.63l17.1-29a63.24,63.24,0,0,1-22.33-22.09ZM72,607.91a92.44,92.44,0,0,0,47,12.59V586.82a58.73,58.73,0,0,1-30.07-8.07Zm47,12.59c16.48,0,31.89-3.28,45.92-10.17L150,580.09c-8.93,4.38-19.18,6.73-31.08,6.73Zm45.92-10.17a82.53,82.53,0,0,0,33.65-29.46l-28.3-18.28A48.84,48.84,0,0,1,150,580.09Zm33.52-29.26a78.33,78.33,0,0,0,13.15-42.87l-33.68-.56a44.64,44.64,0,0,1-7.5,24.75Zm-3.69-26.3h11.27V521.08H194.67Zm-5.57-16.85a54.16,54.16,0,0,1-8.87,30.28l28.26,18.34a87.82,87.82,0,0,0,14.3-48.62Zm-8.91,30.34c-5.78,9-13.9,16.35-24.85,22l15.43,29.94c15.77-8.13,28.52-19.35,37.76-33.73Zm-24.76,22c-10.55,5.36-22.61,8.19-36.51,8.19v33.69c18.65,0,36-3.85,51.76-11.85Zm-36.51,8.19a69.06,69.06,0,0,1-35.64-9.59l-17,29.08a102.8,102.8,0,0,0,52.64,14.2Zm-35.64-9.59a72.39,72.39,0,0,1-26.26-26l-29,17.2a106.18,106.18,0,0,0,38.23,37.87ZM57.07,562.92a69.18,69.18,0,0,1-9.59-35.64H13.79A102.8,102.8,0,0,0,28,579.92Zm-9.59-35.64V475.94H13.79v51.34Zm0-51.34a69.17,69.17,0,0,1,9.32-35.4L27.64,423.68a102.84,102.84,0,0,0-13.85,52.26Zm9.28-35.33a72.47,72.47,0,0,1,26-26.26l-17.2-29a106,106,0,0,0-37.87,38.22Zm25.89-26.2a69.09,69.09,0,0,1,35.64-9.59V371.13a102.8,102.8,0,0,0-52.64,14.2Zm35.64-9.59c13.58,0,25.47,2.88,36,8.4l15.63-29.84c-15.75-8.25-33.08-12.25-51.64-12.25Zm36.29,8.55a62.06,62.06,0,0,1,25,22L207.86,417a95.8,95.8,0,0,0-38.21-33.75Zm25.1,22.08a52.6,52.6,0,0,1,8.79,29.85h33.69a86.31,86.31,0,0,0-14.37-48.42Zm25.64,13H194.05v33.69h11.27ZM210.89,465a78.39,78.39,0,0,0-13.16-42.88l-28,18.69a44.73,44.73,0,0,1,7.51,24.75Zm-13.16-42.88a84.81,84.81,0,0,0-33.83-29.25l-14.84,30.24a51.11,51.11,0,0,1,20.64,17.7ZM164,392.94c-13.89-6.94-29.25-10.23-45.72-10.23V416.4c11.91,0,22,2.35,30.66,6.67Zm-45.72-10.23a90.71,90.71,0,0,0-46.74,12.67l17.1,29a57,57,0,0,1,29.64-8ZM71.55,395.38A94.19,94.19,0,0,0,37.73,429.2l29,17.1a60.58,60.58,0,0,1,21.9-21.9ZM37.73,429.2a90.71,90.71,0,0,0-12.67,46.74H58.75a57,57,0,0,1,8-29.64ZM25.06,475.94v51.34H58.75V475.94Zm266.73-83.27V375.83H275v16.84Zm11.58,0h16.84V375.83H303.37Zm10.33,172.8,14.51-8.55Zm27.86,27.86L333,607.84Zm76.39,0-8.55-14.51h0Zm27.86-27.86-14.51-8.55Zm10.33-172.8V375.83H439.3v16.84Zm11.58,0h16.84V375.83H467.72ZM455.83,571.42l14.48,8.6,0,0,0-.05Zm-32.25,31.93-8.5-14.54-.05,0,0,0Zm-88,0L327,617.83l.05,0,0,0Zm-31.94-31.93-14.54,8.5,0,.05,0,0ZM291.79,409.51h11.58V375.83H291.79Zm-5.26-16.84V527.28h33.68V392.67Zm0,134.61A90.7,90.7,0,0,0,299.19,574l29-17.1a57.13,57.13,0,0,1-8-29.64ZM299.19,574A94.34,94.34,0,0,0,333,607.84l17.1-29a60.74,60.74,0,0,1-21.9-21.9ZM333,607.84a90.71,90.71,0,0,0,46.75,12.66V586.82a57,57,0,0,1-29.65-8Zm46.75,12.66a90.7,90.7,0,0,0,46.74-12.66l-17.1-29a57,57,0,0,1-29.64,8Zm46.74-12.66A94.34,94.34,0,0,0,460.32,574l-29-17.1a60.74,60.74,0,0,1-21.9,21.9ZM460.32,574A90.7,90.7,0,0,0,473,527.28H439.3a57.13,57.13,0,0,1-8,29.64ZM473,527.28V392.67H439.3V527.28ZM456.14,409.51h11.58V375.83H456.14Zm-5.26-16.84V527.28h33.68V392.67Zm0,134.61a69.09,69.09,0,0,1-9.6,35.64l29.08,17a102.71,102.71,0,0,0,14.2-52.64Zm-9.54,35.54a72.39,72.39,0,0,1-26.26,26l17,29.08A106.18,106.18,0,0,0,470.31,580Zm-26.36,26a67.42,67.42,0,0,1-35.22,9.53v33.69a101.11,101.11,0,0,0,52.42-14.26Zm-35.22,9.53a69.06,69.06,0,0,1-35.64-9.59l-17,29.08a102.87,102.87,0,0,0,52.65,14.2Zm-35.55-9.53a73.28,73.28,0,0,1-26-26l-29,17.2A106.94,106.94,0,0,0,327,617.83Zm-26-26a69.09,69.09,0,0,1-9.6-35.64H275a102.79,102.79,0,0,0,14.19,52.64Zm-9.6-35.64V392.67H275V527.28Z" transform="translate(-13.79 -154.49)" fill="#9756d8"/><path d="M543.61,632.69V216.06h62.64v177h208.6v-177h63.22V355.13q0,33.9-.58,69.54v208H814.85V452.82H606.25V632.69Zm392.06-117.8a124.89,124.89,0,0,1,9.77-49.42,137.12,137.12,0,0,1,67.23-69,117.64,117.64,0,0,1,48.85-10.35,103.36,103.36,0,0,1,31.6,4.6,97.82,97.82,0,0,1,24.71,10.34,76.66,76.66,0,0,1,16.67,13.22q6.32,6.9,8.62,12.07l2.3-33.91h47.12V632.69h-49.42V602.24a66.7,66.7,0,0,1-9.19,10.92,75.09,75.09,0,0,1-16.67,12.06,125.8,125.8,0,0,1-23.56,9.2,113.17,113.17,0,0,1-31.61,4A124.33,124.33,0,0,1,944.86,562,122.94,122.94,0,0,1,935.67,514.89ZM985.09,512a82.66,82.66,0,0,0,5.75,31,78,78,0,0,0,41.37,41.37,89.73,89.73,0,0,0,63.21,0,78.64,78.64,0,0,0,25.29-16.66,76.09,76.09,0,0,0,16.66-24.71,82.86,82.86,0,0,0,5.75-31,78.41,78.41,0,0,0-5.75-30.45,68.65,68.65,0,0,0-16.66-24.71,71.51,71.51,0,0,0-25.29-16.09,82.07,82.07,0,0,0-63.21,0,72.57,72.57,0,0,0-24.71,16.09,80,80,0,0,0-16.66,24.71A78.22,78.22,0,0,0,985.09,512Zm437.37,61.49q8,9.78,14.94,19,7.47,8.61,14.94,18.39A133.52,133.52,0,0,1,1416.13,631a124.41,124.41,0,0,1-43.67,7.47,129.32,129.32,0,0,1-50-9.77,133.09,133.09,0,0,1-67.81-67.81,127,127,0,0,1,0-97.69,131,131,0,0,1,67.81-66.66,123,123,0,0,1,50-10.35q24.13,0,44.25,7.47a140,140,0,0,1,37.35,20.12l-31.6,37.35A66.79,66.79,0,0,0,1400,439a80.21,80.21,0,0,0-27.58-4.6,77.56,77.56,0,0,0-31.61,6.33,79.08,79.08,0,0,0-25.28,16.09,72.47,72.47,0,0,0-16.09,24.71,78.41,78.41,0,0,0-5.75,30.45,82.86,82.86,0,0,0,5.75,31,80.85,80.85,0,0,0,16.09,24.71,88,88,0,0,0,25.28,16.66,84.43,84.43,0,0,0,31.61,5.75,90.55,90.55,0,0,0,27.58-4A75.62,75.62,0,0,0,1422.46,573.5Zm248.83-187.34,29.31,29.31q-21.84,20.11-41.95,39.08-19.55,19-41.38,39.65,25.86,34.49,50.57,69.53,24.72,34.49,50,69h-56.32q-19.53-27-39.65-52.87-19.53-26.43-39.08-53.44l-33.33,30.46v75.85h-48.84V186.18h48.84V499.37q32.19-29.31,61.49-56.32Q1640.26,415.48,1671.29,386.16Zm77.23-85.62a30.23,30.23,0,0,1,9.77-23q10.34-9.19,21.83-9.19t21.27,9.19a31.92,31.92,0,0,1,0,46q-9.78,8.63-21.27,8.62t-21.83-8.62A30.23,30.23,0,0,1,1748.52,300.54Zm55.17,332.15h-48.85V392.48h48.85Zm69-240.21h43.1q1.15,17.82,1.72,32.76,1.15,14.37,2.3,28.73,13.21-31,37.35-49.42,24.72-18.39,60.34-18.39,36.21,0,58.05,20.12t23,51.72V632.69h-49.42V480.41q-1.15-18.39-12.64-31Q2025,436.17,2000.26,435a77.68,77.68,0,0,0-31.6,6.32A72.47,72.47,0,0,0,1944,457.42a80.27,80.27,0,0,0-16.67,24.71,84.39,84.39,0,0,0-5.74,31.61v119h-48.85ZM2149,513.16a126.52,126.52,0,0,1,9.77-50,125.05,125.05,0,0,1,65.51-67.24,118.11,118.11,0,0,1,47.7-9.77q19.53,0,34.48,5.17,15.51,5.18,25.86,12.07a75.05,75.05,0,0,1,16.09,13.8q6.32,6.32,8,9.19a127.34,127.34,0,0,1,1.15-16.67,138.49,138.49,0,0,0,1.15-17.24h47.12v229.3q0,59.76-35,93.09T2276,748.2a140.23,140.23,0,0,1-37.35-4.6,145.05,145.05,0,0,1-29.88-10.92A151,151,0,0,1,2184,716.59q-10.92-9.2-21.84-19l31.6-33.33A170.51,170.51,0,0,0,2230,690.73q19,9.78,44.82,9.77,38.51,0,59.77-18.39T2356.43,631V614.3a45.56,45.56,0,0,1,1.15-9.77,48,48,0,0,0,1.15-8.62,143.46,143.46,0,0,1-13.21,15,95.83,95.83,0,0,1-17.82,13.79,117.41,117.41,0,0,1-24.13,9.77,110.89,110.89,0,0,1-31,4q-27,0-49.42-9.77a119.48,119.48,0,0,1-64.93-66.08A131.87,131.87,0,0,1,2149,513.16ZM2198.4,512a82.86,82.86,0,0,0,5.75,31,78,78,0,0,0,41.37,41.37,89.76,89.76,0,0,0,63.22,0A78.49,78.49,0,0,0,2334,567.76a76.12,76.12,0,0,0,16.67-24.71,82.85,82.85,0,0,0,5.74-31,78.4,78.4,0,0,0-5.74-30.45A68.67,68.67,0,0,0,2334,456.85a71.38,71.38,0,0,0-25.28-16.09,82.09,82.09,0,0,0-63.22,0,72.66,72.66,0,0,0-24.71,16.09,80.13,80.13,0,0,0-16.66,24.71A78.41,78.41,0,0,0,2198.4,512Z" transform="translate(-13.79 -154.49)" fill="#1d0437"/></svg>