<svg id="b043e924-87e5-494b-9668-d9f18295f531" data-name="Layer 1" xmlns="http://www.w3.org/2000/svg" viewBox="0 0 2501.27 587.68"><title>shortLogo-dark-m</title><path d="M42.88,549.76a77.26,77.26,0,0,0,10.8,39.93,83.72,83.72,0,0,0,29.46,29.14,79,79,0,0,0,40.27,10.8q22.25,0,40.26-8.84a68.7,68.7,0,0,0,28.15-24.55,64.33,64.33,0,0,0,10.8-35.35H214.4a74.12,74.12,0,0,1-12.11,41.24q-11.78,18.33-32.73,29.14-20.62,10.47-46.15,10.47A89.91,89.91,0,0,1,77.25,629.3a93.27,93.27,0,0,1-33.71-33.39A89.77,89.77,0,0,1,31.1,549.76V496.08a89.87,89.87,0,0,1,12.11-45.83A93.29,93.29,0,0,1,76.6,416.53a89.87,89.87,0,0,1,46.15-12.44q25.2,0,45.83,10.81A82.48,82.48,0,0,1,201.64,444,72.64,72.64,0,0,1,213.75,485H202a64.29,64.29,0,0,0-10.81-35.36A71.15,71.15,0,0,0,162.69,425q-17.69-8.84-39.94-8.83A77.26,77.26,0,0,0,82.82,427a81,81,0,0,0-29.14,29.13,77.27,77.27,0,0,0-10.8,39.94ZM304.17,409h12.11V549.76a77.27,77.27,0,0,0,10.81,39.93,81,81,0,0,0,29.13,29.14,79.23,79.23,0,0,0,79.87,0,81,81,0,0,0,29.13-29.14A77.26,77.26,0,0,0,476,549.76V409h12.12V549.76a89.87,89.87,0,0,1-12.44,46.15A93.29,93.29,0,0,1,442,629.3a88.14,88.14,0,0,1-45.83,12.44A89.87,89.87,0,0,1,350,629.3a94,94,0,0,1-33.39-33.39,89.87,89.87,0,0,1-12.44-46.15Z" transform="translate(-13.49 -194.1)" fill="#9756d8"/><path d="M53.68,589.69l-15.17,8.95.06.09.06.1Zm29.46,29.14L74.2,634l.06,0,.06,0Zm80.53,2L155.91,605Zm28.15-24.55-14.66-9.77-.07.11-.07.11Zm10.8-35.35V543.28H185.3L185,560.59Zm11.78,0H232V543.28H214.4Zm-12.11,41.24-14.77-9.59,0,0,0,0Zm-32.73,29.14,8,15.7,0,0,0,0Zm-126-35.36L28.33,604.8l0,.05,0,.06Zm-.33-145.66L28,441.36l0,0,0,0ZM76.6,416.53l-8.89-15.2,0,0,0,0Zm92-1.63-8.17,15.6.14.08.15.07ZM201.64,444l-14.77,9.59,0,.06,0,.06ZM213.75,485v17.61h17.61V485ZM202,485l-17.61.29.29,17.32H202ZM162.69,425l-7.88,15.76.06,0,.06,0Zm-79.87,2,8.94,15.17h0ZM53.68,456.14,38.51,447.2h0ZM25.27,549.76a94.92,94.92,0,0,0,13.24,48.88l30.35-17.89a59.64,59.64,0,0,1-8.37-31Zm13.36,49.07A101.27,101.27,0,0,0,74.2,634l17.88-30.35a66,66,0,0,1-23.34-23.1Zm35.69,35.24a96.59,96.59,0,0,0,49.09,13.17V612A61.45,61.45,0,0,1,92,603.59Zm49.09,13.17c17.23,0,33.35-3.44,48-10.64L155.91,605c-9.34,4.58-20.06,7-32.5,7Zm48-10.64a86.22,86.22,0,0,0,35.18-30.8L177,586.69A51.09,51.09,0,0,1,155.91,605Zm35-30.59a81.84,81.84,0,0,0,13.76-44.83L185,560.59a46.61,46.61,0,0,1-7.85,25.88Zm-3.85-27.51H214.4V543.28H202.62Zm-5.83-17.61a56.55,56.55,0,0,1-9.27,31.65l29.55,19.18a91.85,91.85,0,0,0,15-50.83Zm-9.31,31.72c-6,9.41-14.54,17.1-26,23l16.14,31.31c16.48-8.5,29.82-20.23,39.48-35.26Zm-25.89,22.95c-11,5.61-23.64,8.57-38.18,8.57v35.22c19.5,0,37.66-4,54.13-12.38Zm-38.18,8.57a72.25,72.25,0,0,1-37.27-10L68.36,644.51a107.53,107.53,0,0,0,55.05,14.84Zm-37.27-10a75.73,75.73,0,0,1-27.46-27.18l-30.29,18a111.07,111.07,0,0,0,40,39.6ZM58.74,587a72.3,72.3,0,0,1-10-37.27H13.49a107.49,107.49,0,0,0,14.84,55Zm-10-37.27V496.08H13.49v53.68Zm0-53.68a72.36,72.36,0,0,1,9.75-37L28,441.43a107.58,107.58,0,0,0-14.47,54.65Zm9.7-36.94a75.73,75.73,0,0,1,27.18-27.46l-18-30.29a111,111,0,0,0-39.61,40Zm27.08-27.4a72.24,72.24,0,0,1,37.26-10V386.48a107.41,107.41,0,0,0-55,14.85Zm37.26-10c14.2,0,26.63,3,37.66,8.79l16.34-31.2c-16.47-8.63-34.59-12.82-54-12.82Zm37.95,8.94a64.91,64.91,0,0,1,26.17,23l29.54-19.18a100.14,100.14,0,0,0-39.95-35.3ZM187,453.74A55,55,0,0,1,196.14,485h35.22a90.18,90.18,0,0,0-15-50.63Zm26.8,13.59H202v35.23h11.78Zm5.83,17.32a82,82,0,0,0-13.76-44.82l-29.31,19.53a46.79,46.79,0,0,1,7.85,25.88Zm-13.76-44.82a88.74,88.74,0,0,0-35.37-30.6l-15.52,31.62a53.52,53.52,0,0,1,21.58,18.51Zm-35.26-30.54C156,402,140,398.59,122.75,398.59v35.23c12.46,0,23,2.45,32.06,7Zm-47.81-10.7a94.92,94.92,0,0,0-48.88,13.24l17.89,30.35a59.61,59.61,0,0,1,31-8.36ZM73.87,411.83A98.74,98.74,0,0,0,38.51,447.2l30.35,17.88a63.4,63.4,0,0,1,22.9-22.9ZM38.51,447.2a94.89,94.89,0,0,0-13.24,48.88H60.49a59.68,59.68,0,0,1,8.37-31ZM25.27,496.08v53.68H60.49V496.08ZM304.17,409V391.39H286.56V409Zm12.11,0H333.9V391.39H316.28Zm10.81,180.69,15.17-8.94h0Zm29.13,29.14L347.28,634Zm79.87,0-8.94-15.18Zm29.13-29.14-15.17-8.94ZM476,409V391.39H458.41V409Zm12.12,0h17.61V391.39H488.14ZM475.7,595.91l15.14,9,0-.06,0-.05ZM442,629.3l-8.89-15.2,0,0-.05,0Zm-92,0-9,15.15.05,0,.05,0Zm-33.39-33.39-15.2,8.89,0,.05,0,.06ZM304.17,426.62h12.11V391.39H304.17ZM298.67,409V549.76H333.9V409Zm0,140.76a94.92,94.92,0,0,0,13.24,48.88l30.35-17.89a59.64,59.64,0,0,1-8.36-31Zm13.24,48.88A98.66,98.66,0,0,0,347.28,634l17.88-30.35a63.4,63.4,0,0,1-22.9-22.9ZM347.28,634a94.89,94.89,0,0,0,48.87,13.24V612a59.67,59.67,0,0,1-31-8.37Zm48.87,13.24A94.89,94.89,0,0,0,445,634l-17.88-30.35a59.68,59.68,0,0,1-31,8.37ZM445,634a98.63,98.63,0,0,0,35.36-35.36l-30.34-17.89a63.4,63.4,0,0,1-22.9,22.9Zm35.36-35.36a94.83,94.83,0,0,0,13.25-48.88H458.41a59.64,59.64,0,0,1-8.36,31Zm13.25-48.88V409H458.41V549.76ZM476,426.62h12.12V391.39H476ZM470.52,409V549.76h35.23V409Zm0,140.76a72.3,72.3,0,0,1-10,37.27L490.9,604.8a107.41,107.41,0,0,0,14.85-55Zm-10,37.16a75.73,75.73,0,0,1-27.46,27.18l17.78,30.41a111,111,0,0,0,40-39.6ZM433,614.16a70.57,70.57,0,0,1-36.84,10v35.22A105.75,105.75,0,0,0,451,644.45Zm-36.84,10a72.24,72.24,0,0,1-37.26-10l-17.78,30.41a107.52,107.52,0,0,0,55,14.84Zm-37.16-10a76.43,76.43,0,0,1-27.23-27.24l-30.29,18A111.7,111.7,0,0,0,341,644.45ZM331.82,587a72.21,72.21,0,0,1-10-37.27H286.56a107.41,107.41,0,0,0,14.85,55Zm-10-37.27V409H286.56V549.76Z" transform="translate(-13.49 -194.1)" fill="#9756d8"/><path d="M567.49,661V225.35H633V410.42H851.12V225.35h66.1V370.77q0,35.44-.6,72.7V661h-65.5V472.92H633V661Zm410-123.18a130.72,130.72,0,0,1,10.21-51.68A143.4,143.4,0,0,1,1058,414,123,123,0,0,1,1109,403.21a108.1,108.1,0,0,1,33,4.81,102.34,102.34,0,0,1,25.84,10.82,80.08,80.08,0,0,1,17.43,13.82q6.62,7.2,9,12.62l2.41-35.46h49.27V661h-51.68V629.15a69,69,0,0,1-9.61,11.42,78.49,78.49,0,0,1-17.43,12.62,131.92,131.92,0,0,1-24.63,9.61q-14.43,4.22-33,4.21a130,130,0,0,1-122.59-79.92A128.54,128.54,0,0,1,977.45,537.82Zm51.68-3a86.69,86.69,0,0,0,6,32.45,81.62,81.62,0,0,0,43.27,43.26,93.88,93.88,0,0,0,66.1,0,82.08,82.08,0,0,0,26.44-17.42,79.5,79.5,0,0,0,17.42-25.84,86.5,86.5,0,0,0,6-32.45,82,82,0,0,0-6-31.85,72,72,0,0,0-17.42-25.84,74.89,74.89,0,0,0-26.44-16.82,85.93,85.93,0,0,0-66.1,0,76,76,0,0,0-25.84,16.82A84.13,84.13,0,0,0,1035.13,503,82.15,82.15,0,0,0,1029.13,534.81Zm457.33,64.3q8.41,10.21,15.62,19.83,7.82,9,15.63,19.23a139.55,139.55,0,0,1-37.86,21,130.09,130.09,0,0,1-45.67,7.81,135.19,135.19,0,0,1-52.28-10.22,139.11,139.11,0,0,1-70.9-70.9,132.76,132.76,0,0,1,0-102.16,136.86,136.86,0,0,1,70.9-69.7,128.69,128.69,0,0,1,52.28-10.82q25.24,0,46.27,7.82a146.12,146.12,0,0,1,39.06,21l-33,39.06A69.61,69.61,0,0,0,1463,458.5a83.73,83.73,0,0,0-28.85-4.81,81.12,81.12,0,0,0-33,6.61,82.93,82.93,0,0,0-26.44,16.82A76,76,0,0,0,1357.87,503a82,82,0,0,0-6,31.85,86.5,86.5,0,0,0,6,32.45,84.51,84.51,0,0,0,16.82,25.84,92,92,0,0,0,26.44,17.42,88.15,88.15,0,0,0,33,6,94.88,94.88,0,0,0,28.85-4.2A79.06,79.06,0,0,0,1486.46,599.11Zm260.2-195.9,30.65,30.65q-22.85,21-43.87,40.86-20.43,19.83-43.26,41.46,27,36.06,52.87,72.71,25.85,36.06,52.28,72.11h-58.89Q1716,632.75,1695,605.72q-20.43-27.65-40.86-55.89l-34.85,31.85V661h-51.08V194.1h51.08V521.59q33.64-30.64,64.3-58.89Q1714.22,433.86,1746.66,403.21Zm80.75-89.53a31.66,31.66,0,0,1,10.22-24q10.81-9.61,22.83-9.61t22.23,9.61a33.38,33.38,0,0,1,0,48.08q-10.21,9-22.23,9t-22.83-9A31.64,31.64,0,0,1,1827.41,313.68ZM1885.1,661H1834V409.82h51.08Zm72.15-251.18h45.07q1.2,18.63,1.8,34.26,1.2,15,2.41,30,13.82-32.44,39-51.68,25.85-19.23,63.1-19.23,37.86,0,60.69,21t24,54.08V661h-51.68V501.76q-1.2-19.23-13.22-32.45-12-13.81-37.86-15a81.12,81.12,0,0,0-33.05,6.61,76.08,76.08,0,0,0-25.84,16.83,83.77,83.77,0,0,0-17.42,25.83,88.19,88.19,0,0,0-6,33.05V661h-51.08ZM2246.16,536a132.29,132.29,0,0,1,10.21-52.28A128.21,128.21,0,0,1,2284,441.67a126.52,126.52,0,0,1,40.87-28.24,123.41,123.41,0,0,1,49.87-10.22q20.43,0,36.05,5.41,16.23,5.42,27,12.62t16.83,14.42q6.61,6.61,8.41,9.62a132.13,132.13,0,0,1,1.2-17.43,144.2,144.2,0,0,0,1.21-18h49.27V649.58q0,62.49-36.66,97.35T2379,781.78A146.64,146.64,0,0,1,2339.9,777a152.38,152.38,0,0,1-31.25-11.41,159.21,159.21,0,0,1-25.84-16.83q-11.42-9.62-22.83-19.83L2293,694.05a178.44,178.44,0,0,0,37.85,27.64q19.83,10.21,46.87,10.22,40.26,0,62.5-19.23t22.83-53.48V641.77a47.19,47.19,0,0,1,1.2-10.21,50.11,50.11,0,0,0,1.21-9,150.47,150.47,0,0,1-13.82,15.63A100.29,100.29,0,0,1,2433,652.59a122.87,122.87,0,0,1-25.24,10.21,115.59,115.59,0,0,1-32.45,4.21q-28.24,0-51.68-10.22a124.94,124.94,0,0,1-67.9-69.1A137.83,137.83,0,0,1,2246.16,536Zm51.67-1.2a86.7,86.7,0,0,0,6,32.45,81.62,81.62,0,0,0,43.27,43.26,93.88,93.88,0,0,0,66.1,0,82.08,82.08,0,0,0,26.44-17.42,79.5,79.5,0,0,0,17.42-25.84,86.5,86.5,0,0,0,6-32.45,82,82,0,0,0-6-31.85,72,72,0,0,0-17.42-25.84,74.89,74.89,0,0,0-26.44-16.82,85.93,85.93,0,0,0-66.1,0,76,76,0,0,0-25.84,16.82A84.13,84.13,0,0,0,2303.84,503,82.15,82.15,0,0,0,2297.83,534.81Z" transform="translate(-13.49 -194.1)" fill="#fff"/></svg>