<svg id="a4e8aa25-53ba-486e-b7ab-bd95b3ee4753" data-name="Layer 1" xmlns="http://www.w3.org/2000/svg" viewBox="0 0 3266.92 734.63"><title>shortLogo-dark</title><path d="M2979.5,475.33,3250.71,274l32.16-83.71Z" transform="translate(-15.95 -190.27)" fill="#7c39bf"/><path d="M2984,473.38l240.51-115.17,36-82Z" transform="translate(-15.95 -190.27)" fill="#fff"/><path d="M3223.07,356.5l32.63-74.26L3005.22,460.82Z" transform="translate(-15.95 -190.27)" fill="none" stroke="#00d0fe" stroke-width="4.29"/><path d="M3252,356.73l-101.62,65-166.38,53Z" transform="translate(-15.95 -190.27)" fill="#fff"/><path d="M50.73,650.59a91.33,91.33,0,0,0,12.79,47.25,98.92,98.92,0,0,0,34.85,34.47A93.5,93.5,0,0,0,146,745.09q26.33,0,47.63-10.46t33.31-29a76.15,76.15,0,0,0,12.78-41.83h13.94a87.71,87.71,0,0,1-14.33,48.8Q225.41,734.25,200.62,747,176.21,759.42,146,759.42A106.34,106.34,0,0,1,91.4,744.7a110.42,110.42,0,0,1-39.89-39.5,106.34,106.34,0,0,1-14.72-54.61V587.08a106.42,106.42,0,0,1,14.33-54.22A110.29,110.29,0,0,1,90.63,493a106.21,106.21,0,0,1,54.6-14.72q29.82,0,54.22,12.78,24.8,12.39,39.12,34.47a85.92,85.92,0,0,1,14.33,48.41H239a76.12,76.12,0,0,0-12.78-41.83,84.17,84.17,0,0,0-33.7-29q-20.91-10.47-47.25-10.46A91.42,91.42,0,0,0,98,505.36a95.84,95.84,0,0,0-34.46,34.47,91.33,91.33,0,0,0-12.79,47.25ZM359.88,484.06h14.33V650.59A91.42,91.42,0,0,0,387,697.84a95.87,95.87,0,0,0,34.47,34.47,93.74,93.74,0,0,0,94.5,0,95.87,95.87,0,0,0,34.47-34.47,91.42,91.42,0,0,0,12.78-47.25V484.06h14.33V650.59a106.34,106.34,0,0,1-14.72,54.61,110.42,110.42,0,0,1-39.89,39.5,104.31,104.31,0,0,1-54.22,14.72A106.31,106.31,0,0,1,414.1,744.7a111.39,111.39,0,0,1-39.5-39.5,106.34,106.34,0,0,1-14.72-54.61Z" transform="translate(-15.95 -190.27)" fill="#fff"/><path d="M63.52,697.84l-18,10.58.07.12.07.12Zm34.85,34.47-10.58,18,.07,0,.07,0Zm95.27,2.32-9.18-18.7Zm33.31-29L209.61,694l-.08.12-.08.13Zm12.78-41.83V642.92H219.24l-.34,20.49Zm13.94,0h20.84V642.92H253.67Zm-14.33,48.8-17.47-11.35,0,0,0,0ZM200.62,747l9.43,18.57.06,0,0,0ZM51.51,705.2l-18,10.52,0,.06,0,.06Zm-.39-172.34-18-10.52,0,0,0,0ZM90.63,493,80.11,475l-.06,0-.06,0ZM199.45,491l-9.67,18.46.18.09.17.09Zm39.12,34.47-17.48,11.34,0,.07,0,.07Zm14.33,48.41v20.84h20.84V573.91Zm-13.94,0-20.84.35.34,20.49H239ZM192.48,503l-9.32,18.63.07,0,.07,0ZM98,505.36l10.58,17.95ZM63.52,539.83l-18-10.58h0ZM29.9,650.59a112.25,112.25,0,0,0,15.66,57.83l35.91-21.16a70.59,70.59,0,0,1-9.9-36.67Zm15.8,58.07a119.94,119.94,0,0,0,42.09,41.6L109,714.36A78.16,78.16,0,0,1,81.33,687Zm42.23,41.68A114.34,114.34,0,0,0,146,765.93V724.25a72.63,72.63,0,0,1-37.2-10ZM146,765.93c20.38,0,39.46-4.07,56.82-12.59l-18.37-37.41c-11,5.42-23.73,8.32-38.45,8.32Zm56.82-12.59c17.34-8.51,31.42-20.65,41.62-36.45l-35-22.61c-5.81,9-13.93,16.22-25,21.65Zm41.46-36.19a97,97,0,0,0,16.28-53l-41.67-.7A55.27,55.27,0,0,1,209.61,694Zm-4.56-32.55h13.94V642.92H239.73Zm-6.89-20.84a67,67,0,0,1-11,37.45l34.95,22.69a108.59,108.59,0,0,0,17.69-60.14Zm-11,37.53c-7.16,11.13-17.21,20.23-30.75,27.22l19.09,37c19.5-10.06,35.28-23.94,46.71-41.72Zm-30.64,27.16c-13.05,6.63-28,10.13-45.17,10.13v41.68c23.07,0,44.56-4.76,64-14.66ZM146,738.58a85.44,85.44,0,0,1-44.09-11.87l-21,36A127.12,127.12,0,0,0,146,780.26Zm-44.09-11.87a89.51,89.51,0,0,1-32.49-32.15L33.59,715.84a131.26,131.26,0,0,0,47.29,46.85Zm-32.42-32a85.47,85.47,0,0,1-11.87-44.09H16a127.24,127.24,0,0,0,17.57,65.13ZM57.63,650.59V587.08H16v63.51Zm0-63.51a85.56,85.56,0,0,1,11.53-43.79L33.08,522.43A127.22,127.22,0,0,0,16,587.08Zm11.48-43.71a89.59,89.59,0,0,1,32.15-32.49L80,475.05a131.28,131.28,0,0,0-46.86,47.29Zm32-32.42a85.56,85.56,0,0,1,44.09-11.86V457.41A127.08,127.08,0,0,0,80.11,475Zm44.09-11.86c16.8,0,31.51,3.57,44.55,10.4l19.34-36.92c-19.49-10.21-40.92-15.16-63.89-15.16Zm44.9,10.58c13.39,6.69,23.54,15.74,31,27.17l35-22.69c-11.69-18-27.62-31.93-47.28-41.76ZM221.18,537a65.1,65.1,0,0,1,10.88,36.93h41.68A106.68,106.68,0,0,0,256,514Zm31.72,16.09H239v41.68H252.9Zm6.89,20.49a96.91,96.91,0,0,0-16.28-53l-34.67,23.12a55.26,55.26,0,0,1,9.28,30.62Zm-16.28-53a105,105,0,0,0-41.85-36.19L183.3,521.74a63.39,63.39,0,0,1,25.54,21.9ZM201.8,484.4c-17.18-8.59-36.19-12.66-56.57-12.66v41.68c14.74,0,27.23,2.9,37.93,8.25Zm-56.57-12.66A112.26,112.26,0,0,0,87.4,487.41l21.16,35.9a70.58,70.58,0,0,1,36.67-9.89ZM87.4,487.41a116.76,116.76,0,0,0-41.84,41.84l35.91,21.16a75,75,0,0,1,27.09-27.1ZM45.56,529.25A112.23,112.23,0,0,0,29.9,587.08H71.57a70.59,70.59,0,0,1,9.9-36.67ZM29.9,587.08v63.51H71.57V587.08Zm330-103V463.22H339v20.84Zm14.33,0h20.84V463.22H374.21ZM387,697.84l17.95-10.58Zm34.47,34.47-10.58,18Zm94.5,0-10.58-17.95Zm34.47-34.47-18-10.58Zm12.78-213.78V463.22H542.37v20.84Zm14.33,0h20.83V463.22H577.54ZM562.82,705.2l17.92,10.64,0-.06,0-.06Zm-39.89,39.5-10.52-18-.06,0-.06,0Zm-108.83,0-10.64,17.92.06,0,.06,0Zm-39.5-39.5-18,10.52,0,.06,0,.06ZM359.88,504.9h14.33V463.22H359.88Zm-6.51-20.84V650.59h41.68V484.06Zm0,166.53A112.26,112.26,0,0,0,369,708.42l35.9-21.16a70.58,70.58,0,0,1-9.89-36.67ZM369,708.42a116.68,116.68,0,0,0,41.84,41.84L432,714.36a75.06,75.06,0,0,1-27.1-27.1Zm41.84,41.84a112.26,112.26,0,0,0,57.83,15.67V724.25A70.58,70.58,0,0,1,432,714.36Zm57.83,15.67a112.26,112.26,0,0,0,57.83-15.67l-21.16-35.9a70.58,70.58,0,0,1-36.67,9.89Zm57.83-15.67a116.76,116.76,0,0,0,41.84-41.84l-35.91-21.16a75,75,0,0,1-27.09,27.1Zm41.84-41.84A112.25,112.25,0,0,0,584,650.59H542.37a70.59,70.59,0,0,1-9.9,36.67ZM584,650.59V484.06H542.37V650.59ZM563.21,504.9h14.33V463.22H563.21Zm-6.51-20.84V650.59h41.67V484.06Zm0,166.53a85.47,85.47,0,0,1-11.87,44.09l36,21a127.23,127.23,0,0,0,17.56-65.13Zm-11.8,44a89.51,89.51,0,0,1-32.49,32.15l21,36a131.26,131.26,0,0,0,47.29-46.85Zm-32.61,32.22a83.41,83.41,0,0,1-43.58,11.8v41.68a125.18,125.18,0,0,0,64.86-17.64Zm-43.58,11.8a85.44,85.44,0,0,1-44.09-11.87l-21,36a127.14,127.14,0,0,0,65.13,17.57Zm-44-11.8a90.54,90.54,0,0,1-32.23-32.22l-35.83,21.28a132.19,132.19,0,0,0,46.78,46.78Zm-32.15-32.1a85.47,85.47,0,0,1-11.87-44.09H339a127.14,127.14,0,0,0,17.57,65.13Zm-11.87-44.09V484.06H339V650.59Z" transform="translate(-15.95 -190.27)" fill="#fff"/><path d="M671.43,782V266.56h77.49v219H1007v-219h78.2V438.61q0,42-.71,86V782H1007V559.47H748.92V782Zm485-145.74a154.65,154.65,0,0,1,12.09-61.15,169.65,169.65,0,0,1,83.18-85.31,145.59,145.59,0,0,1,60.43-12.8,127.8,127.8,0,0,1,39.1,5.69,120.88,120.88,0,0,1,30.57,12.8,94.46,94.46,0,0,1,20.62,16.35q7.83,8.54,10.67,14.93l2.84-41.95h58.3V782h-61.14V744.32a82.11,82.11,0,0,1-11.38,13.51,92.78,92.78,0,0,1-20.62,14.93A155.47,155.47,0,0,1,1352,784.13q-17.06,5-39.1,5-34.12,0-63.27-12.09a154.6,154.6,0,0,1-81.76-82.47A151.94,151.94,0,0,1,1156.46,636.26Zm61.14-3.56a102.39,102.39,0,0,0,7.11,38.39,96.63,96.63,0,0,0,51.19,51.19,111.09,111.09,0,0,0,78.21,0,97.16,97.16,0,0,0,31.28-20.62A94.11,94.11,0,0,0,1406,671.09a102.39,102.39,0,0,0,7.11-38.39A97.07,97.07,0,0,0,1406,595a85.12,85.12,0,0,0-20.62-30.57,88.52,88.52,0,0,0-31.28-19.91,101.69,101.69,0,0,0-78.21,0,89.86,89.86,0,0,0-30.57,19.91A99.35,99.35,0,0,0,1224.71,595,97.07,97.07,0,0,0,1217.6,632.7Zm541.1,76.07q10,12.09,18.48,23.46,9.25,10.66,18.49,22.75a164.72,164.72,0,0,1-44.79,24.89,154,154,0,0,1-54,9.24A159.87,159.87,0,0,1,1635,777a164.62,164.62,0,0,1-83.89-83.89,157.19,157.19,0,0,1,0-120.86A162,162,0,0,1,1635,489.8a152.23,152.23,0,0,1,61.86-12.8q29.85,0,54.74,9.24a173.42,173.42,0,0,1,46.21,24.89l-39.1,46.21A82.45,82.45,0,0,0,1731,542.41a99.15,99.15,0,0,0-34.12-5.69,96.13,96.13,0,0,0-39.11,7.82,98,98,0,0,0-31.28,19.91,89.84,89.84,0,0,0-19.9,30.57,97.07,97.07,0,0,0-7.11,37.68,102.39,102.39,0,0,0,7.11,38.39,100,100,0,0,0,19.9,30.57,108.87,108.87,0,0,0,31.28,20.62,104.41,104.41,0,0,0,39.11,7.11,111.91,111.91,0,0,0,34.12-5A93.31,93.31,0,0,0,1758.7,708.77ZM2066.55,477l36.26,36.26q-27,24.88-51.9,48.34-24.16,23.48-51.19,49.06,32,42.66,62.57,86,30.57,42.64,61.85,85.31h-69.67q-24.18-33.42-49.06-65.41-24.17-32.7-48.34-66.12l-41.24,37.68V782H1855.4V229.59h60.43V617.06q39.81-36.25,76.07-69.67Q2028.17,513.27,2066.55,477Zm95.54-105.93q0-17.06,12.09-28.44,12.8-11.37,27-11.37t26.31,11.37q12.09,11.37,12.09,28.44t-12.09,28.44q-12.09,10.67-26.31,10.66t-27-10.66Q2162.09,388.13,2162.09,371.07ZM2230.34,782h-60.43V484.82h60.43Zm85.37-297.18H2369q1.42,22.05,2.14,40.53,1.42,17.77,2.84,35.54,16.35-38.39,46.21-61.14Q2450.79,477,2494.87,477q44.79,0,71.81,24.89t28.44,64V782H2534V593.6q-1.42-22.76-15.65-38.39-14.2-16.37-44.79-17.78a96.11,96.11,0,0,0-39.1,7.82,89.86,89.86,0,0,0-30.57,19.91,99.35,99.35,0,0,0-20.62,30.57,104.35,104.35,0,0,0-7.11,39.1V782h-60.43Zm341.82,149.3q0-33.4,12.09-61.85,12.08-29.14,32.7-49.77a149.62,149.62,0,0,1,48.35-33.41,146,146,0,0,1,59-12.09q24.18,0,42.66,6.4,19.2,6.41,32,14.93t19.91,17.06q7.82,7.83,9.95,11.38a155.72,155.72,0,0,1,1.43-20.62,173.94,173.94,0,0,0,1.42-21.33h58.3V768.49q0,73.93-43.37,115.18T2814.65,924.9q-25.59,0-46.21-5.69a180.11,180.11,0,0,1-37-13.5,188.53,188.53,0,0,1-30.57-19.91q-13.52-11.37-27-23.46L2713,821.1q22,20.63,44.79,32.71,23.46,12.08,55.45,12.08,47.64,0,73.94-22.75t27-63.27V759.25a55.79,55.79,0,0,1,1.43-12.09A60.57,60.57,0,0,0,2917,736.5,176.67,176.67,0,0,1,2900.68,755a118.23,118.23,0,0,1-22,17.07,144.77,144.77,0,0,1-29.86,12.08q-17.07,5-38.39,5-33.42,0-61.15-12.09a147.79,147.79,0,0,1-80.33-81.76A163,163,0,0,1,2657.53,634.12Zm61.14-1.42a102.39,102.39,0,0,0,7.11,38.39A96.63,96.63,0,0,0,2777,722.28a111.09,111.09,0,0,0,78.21,0,97.16,97.16,0,0,0,31.28-20.62,94.11,94.11,0,0,0,20.62-30.57,102.58,102.58,0,0,0,7.1-38.39,97.25,97.25,0,0,0-7.1-37.68,85.12,85.12,0,0,0-20.62-30.57,88.52,88.52,0,0,0-31.28-19.91,101.69,101.69,0,0,0-78.21,0,89.86,89.86,0,0,0-30.57,19.91A99.35,99.35,0,0,0,2725.78,595,97.07,97.07,0,0,0,2718.67,632.7Z" transform="translate(-15.95 -190.27)" fill="#9756d8"/></svg>