<svg id="b89db095-4bbe-4441-987c-e595a96fc980" data-name="Layer 1" xmlns="http://www.w3.org/2000/svg" viewBox="0 0 2959.3 822.7"><title>shortLogo2020</title><path d="M2152.6,816.4v25.3H2034v-20l63.9-60.7c7.2-6.9,12-12.9,14.5-17.9a34.13,34.13,0,0,0,3.9-15.4c0-7.5-2.5-13.3-7.6-17.2s-12.5-6-22.3-6c-16.4,0-29,5.6-37.7,16.8l-20.9-16.1a61.38,61.38,0,0,1,25.3-19.5c10.7-4.8,22.7-7.1,35.9-7.1,17.5,0,31.4,4.1,41.8,12.4s15.6,19.5,15.6,33.8a56,56,0,0,1-5.5,24.6c-3.7,7.7-10.7,16.4-21.1,26.2l-43,40.9h75.8Zm83.7,27.6c-12.9,0-24.4-3.2-34.5-9.7s-18.1-16.1-23.9-28.5c-5.8-12.6-8.7-27.4-8.7-44.6s2.9-32,8.7-44.4c5.8-12.6,13.8-22.1,23.9-28.5q15.15-9.9,34.5-9.9t34.5,9.9c10.3,6.4,18.3,15.9,24.1,28.5q8.7,18.6,8.7,44.4c0,17.2-2.9,32-8.7,44.6-5.8,12.4-13.9,21.9-24.1,28.5S2249.2,844,2236.3,844Zm0-26c11.5,0,20.5-4.7,27.1-14.2,6.8-9.5,10.1-23.7,10.1-42.5s-3.4-33-10.1-42.5-15.6-14.3-27.1-14.3c-11.3,0-20.4,4.8-27.1,14.3s-9.9,23.7-9.9,42.5,3.3,33,9.9,42.5C2216,813.3,2225,818,2236.3,818Zm203-1.6v25.3H2320.7v-20l63.9-60.7c7.2-6.9,12-12.9,14.5-17.9a34.13,34.13,0,0,0,3.9-15.4c0-7.5-2.5-13.3-7.6-17.2s-12.5-6-22.3-6c-16.4,0-29,5.6-37.7,16.8l-20.9-16.1a61.38,61.38,0,0,1,25.3-19.5c10.7-4.8,22.7-7.1,35.9-7.1,17.5,0,31.4,4.1,41.8,12.4s15.6,19.5,15.6,33.8a56,56,0,0,1-5.5,24.6c-3.7,7.7-10.7,16.4-21.2,26.2l-43,40.9h75.9ZM2523,844c-12.9,0-24.4-3.2-34.5-9.7s-18.1-16.1-23.9-28.5c-5.8-12.6-8.7-27.4-8.7-44.6s2.9-32,8.7-44.4c5.8-12.6,13.8-22.1,23.9-28.5q15.15-9.9,34.5-9.9t34.5,9.9c10.3,6.4,18.3,15.9,24.1,28.5q8.7,18.6,8.7,44.4c0,17.2-2.9,32-8.7,44.6-5.8,12.4-13.9,21.9-24.1,28.5S2535.9,844,2523,844Zm0-26c11.5,0,20.5-4.7,27.1-14.2s10.1-23.7,10.1-42.5-3.4-33-10.1-42.5-15.6-14.3-27.1-14.3c-11.3,0-20.4,4.8-27.1,14.3s-9.9,23.7-9.9,42.5,3.3,33,9.9,42.5S2511.7,818,2523,818Z" transform="translate(-13.9 -21.3)" fill="#280749"/><path d="M48.7,442.3a91.4,91.4,0,0,0,12.8,47.2A99.4,99.4,0,0,0,96.4,524,93.62,93.62,0,0,0,144,536.8c17.6,0,33.4-3.5,47.6-10.5s25.3-16.7,33.3-29c8.3-12.4,12.5-26.3,12.8-41.8h13.9a88.17,88.17,0,0,1-14.3,48.8c-9.3,14.5-22.2,25.9-38.7,34.5q-24.45,12.45-54.6,12.4a106.49,106.49,0,0,1-54.6-14.7A110.29,110.29,0,0,1,49.5,497a106.49,106.49,0,0,1-14.7-54.6V378.9a106.85,106.85,0,0,1,14.3-54.2,110.29,110.29,0,0,1,39.5-39.9,106.49,106.49,0,0,1,54.6-14.7q29.85,0,54.2,12.8c16.5,8.3,29.6,19.8,39.1,34.5a85.61,85.61,0,0,1,14.3,48.4H236.9c-.3-15.5-4.5-29.4-12.8-41.8a83.67,83.67,0,0,0-33.7-29c-13.9-7-29.7-10.5-47.2-10.5A91.4,91.4,0,0,0,96,297.3a95.88,95.88,0,0,0-34.5,34.5,89.92,89.92,0,0,0-12.8,47ZM357.9,275.8h14.3V442.3A91.4,91.4,0,0,0,385,489.5,95.88,95.88,0,0,0,419.5,524a93.43,93.43,0,0,0,94.4,0,95.88,95.88,0,0,0,34.5-34.5,91.66,91.66,0,0,0,12.8-47.2V275.8h14.3V442.3a106.49,106.49,0,0,1-14.7,54.6,110.29,110.29,0,0,1-39.9,39.5,104.29,104.29,0,0,1-54.2,14.7,106.49,106.49,0,0,1-54.6-14.7,111.55,111.55,0,0,1-39.5-39.5,106.49,106.49,0,0,1-14.7-54.6V275.8Z" transform="translate(-13.9 -21.3)" fill="#9756d8"/><path d="M61.5,489.5l-18,10.6.1.1.1.1ZM96.4,524,85.8,542H86Zm95.2,2.3-9.2-18.7h0Zm33.3-29-17.3-11.6-.1.1-.1.1Zm12.8-41.8V434.7H217.2l-.3,20.5Zm14,0h20.8V434.7H251.7Zm-14.4,48.8L219.8,493h0Zm-38.7,34.4,9.4,18.6h.2ZM49.5,496.9l-18,10.5v.2Zm-.4-172.4L31.1,314h0Zm39.5-39.8-10.5-18h-.2Zm108.8-2-9.7,18.5.2.1.2.1Zm39.2,34.5-17.5,11.3v.2Zm14.3,48.4v20.8h20.8V365.6Zm-14,0-20.8.3.3,20.5h20.5Zm-46.4-70.9-9.3,18.6h.2ZM96,297.1l10.6,18h0ZM61.5,331.5l-18-10.6h0ZM27.9,442.3a111.56,111.56,0,0,0,15.7,57.8L79.5,479a70.65,70.65,0,0,1-9.9-36.7Zm15.8,58a119,119,0,0,0,42.1,41.6L107,506a78.43,78.43,0,0,1-27.6-27.3ZM85.9,542A114,114,0,0,0,144,557.6V515.9a72.33,72.33,0,0,1-37.2-10ZM144,557.6c20.4,0,39.5-4.1,56.8-12.6l-18.4-37.4c-11,5.4-23.7,8.3-38.5,8.3v41.7ZM200.8,545c17.3-8.5,31.4-20.6,41.6-36.4l-35-22.6c-5.8,9-13.9,16.2-25,21.6Zm41.5-36.2a96.54,96.54,0,0,0,16.3-53l-41.7-.7c-.2,11.7-3.3,21.7-9.3,30.6Zm-4.6-32.5h13.9V434.6H237.7Zm-6.9-20.8a66.46,66.46,0,0,1-11,37.5l35,22.7a108.38,108.38,0,0,0,17.7-60.1H230.8Zm-11,37.5c-7.2,11.1-17.2,20.2-30.8,27.2l19.1,37c19.5-10.1,35.3-23.9,46.7-41.7Zm-30.6,27.1c-13,6.6-28,10.1-45.2,10.1v41.7c23.1,0,44.6-4.8,64-14.7ZM144,530.3a84.86,84.86,0,0,1-44.1-11.9l-21,36A127,127,0,0,0,144,572ZM99.9,518.4a88.83,88.83,0,0,1-32.5-32.2L31.6,507.5a131.26,131.26,0,0,0,47.3,46.9Zm-32.4-32a85.82,85.82,0,0,1-11.9-44.1H13.9a127,127,0,0,0,17.6,65.1ZM55.6,442.3V378.8H13.9v63.5Zm0-63.5A86.29,86.29,0,0,1,67.1,335L31,314.1a127.78,127.78,0,0,0-17.1,64.7Zm11.5-43.7a88.83,88.83,0,0,1,32.2-32.5L78,266.7A131.26,131.26,0,0,0,31.1,314Zm32-32.5a85.82,85.82,0,0,1,44.1-11.9V249a127,127,0,0,0-65.1,17.6Zm44.1-11.8c16.8,0,31.5,3.6,44.6,10.4l19.3-36.9c-19.5-10.2-40.9-15.2-63.9-15.2v41.7Zm44.9,10.6c13.4,6.7,23.5,15.7,31,27.2l35-22.7c-11.7-18-27.6-31.9-47.3-41.8Zm31.1,27.3a65.54,65.54,0,0,1,10.9,36.9h41.7A106.56,106.56,0,0,0,254,305.7Zm31.7,16.1H237v41.7h13.9Zm6.9,20.5a96.29,96.29,0,0,0-16.3-53l-34.7,23.1a55,55,0,0,1,9.3,30.6Zm-16.3-53.1A105.64,105.64,0,0,0,199.7,276l-18.4,37.4a64,64,0,0,1,25.5,21.9Zm-41.7-36.1c-17.2-8.6-36.2-12.7-56.6-12.7v41.7c14.7,0,27.2,2.9,37.9,8.3Zm-56.6-12.7a111.56,111.56,0,0,0-57.8,15.7L106.6,315a70.65,70.65,0,0,1,36.7-9.9V263.4ZM85.4,279.1a116.31,116.31,0,0,0-41.8,41.8l35.9,21.2A74.91,74.91,0,0,1,106.6,315ZM43.6,320.9a112.52,112.52,0,0,0-15.7,57.8H69.6A70.65,70.65,0,0,1,79.5,342ZM27.9,378.8v63.5H69.6V378.8Zm330-103V255H337v20.8Zm14.3,0H393V255H372.2ZM385,489.5l18-10.6h0ZM419.4,524l-10.6,18h0Zm94.5,0-10.6-18h0Zm34.5-34.5-18-10.6h0Zm12.8-213.7V255H540.4v20.8Zm14.3,0h20.8V255H575.5ZM560.8,496.9l17.9,10.6v-.2Zm-39.9,39.5-10.5-18h-.2Zm-108.8,0-10.6,17.9h.2Zm-39.5-39.5-18,10.5v.2ZM357.9,296.6h14.3V254.9H357.9Zm-6.5-20.8V442.3H393V275.8Zm0,166.5a111.56,111.56,0,0,0,15.7,57.8L403,478.9a70.65,70.65,0,0,1-9.9-36.7H351.4ZM367,500.1a116.31,116.31,0,0,0,41.8,41.8L430,506a74.91,74.91,0,0,1-27.1-27.1ZM408.9,542a112.52,112.52,0,0,0,57.8,15.7V516a70.65,70.65,0,0,1-36.7-9.9Zm57.8,15.6a111.56,111.56,0,0,0,57.8-15.7L503.4,506a70.65,70.65,0,0,1-36.7,9.9v41.7ZM524.5,542a116.31,116.31,0,0,0,41.8-41.8L530.5,479a74.91,74.91,0,0,1-27.1,27.1Zm41.9-41.9a112.52,112.52,0,0,0,15.7-57.8H540.4a70.65,70.65,0,0,1-9.9,36.7ZM582,442.3V275.8H540.3V442.3ZM561.2,296.6h14.3V254.9H561.2Zm-6.5-20.8V442.3h41.7V275.8Zm0,166.5a84.86,84.86,0,0,1-11.9,44.1l36,21a127,127,0,0,0,17.6-65.1Zm-11.8,44a89.6,89.6,0,0,1-32.5,32.2l21,36a131.26,131.26,0,0,0,47.3-46.9Zm-32.6,32.2a82.93,82.93,0,0,1-43.6,11.8V572a126,126,0,0,0,64.9-17.6Zm-43.6,11.8a84.86,84.86,0,0,1-44.1-11.9l-21,36A127,127,0,0,0,466.7,572Zm-44-11.8a90.33,90.33,0,0,1-32.2-32.2l-35.8,21.3a132.79,132.79,0,0,0,46.8,46.8Zm-32.1-32.1a85.82,85.82,0,0,1-11.9-44.1H337a127,127,0,0,0,17.6,65.1Zm-11.9-44.1V275.8H337V442.3Z" transform="translate(-13.9 -21.3)" fill="#9756d8"/><path d="M669.4,573.7V58.3h77.5v219H1005V58.3h78.2v172c0,28-.2,56.6-.7,86V573.6H1005V351.2H746.9V573.7Zm485-145.8q0-32.7,12.1-61.1a163.53,163.53,0,0,1,34.1-50.5,161.43,161.43,0,0,1,49.1-34.8,146.17,146.17,0,0,1,60.4-12.8,127.81,127.81,0,0,1,39.1,5.7,123,123,0,0,1,30.6,12.8,94.53,94.53,0,0,1,20.6,16.4c5.2,5.7,8.8,10.7,10.7,14.9l2.8-41.9h58.3V573.8h-61.1V536a83.18,83.18,0,0,1-11.4,13.5,92.1,92.1,0,0,1-20.6,14.9,153.41,153.41,0,0,1-29.2,11.4c-11.4,3.3-24.4,5-39.1,5-22.8,0-43.8-4-63.3-12.1a154.32,154.32,0,0,1-81.8-82.5A153.25,153.25,0,0,1,1154.4,427.9Zm61.2-3.5a103.61,103.61,0,0,0,7.1,38.4,101.07,101.07,0,0,0,20.6,30.6,98.66,98.66,0,0,0,30.6,20.6,111.21,111.21,0,0,0,78.2,0,97.42,97.42,0,0,0,31.3-20.6,93.34,93.34,0,0,0,20.6-30.6,102.85,102.85,0,0,0,7.1-38.4,97.76,97.76,0,0,0-7.1-37.7,85.72,85.72,0,0,0-20.6-30.6,88.36,88.36,0,0,0-31.3-19.9,101.9,101.9,0,0,0-78.2,0,91,91,0,0,0-30.6,19.9,93.23,93.23,0,0,0-27.7,68.3Zm541.1,76.1c6.6,8.1,12.8,15.9,18.5,23.5,6.2,7.1,12.3,14.7,18.5,22.8a167,167,0,0,1-44.8,24.9c-16.6,6.2-34.6,9.2-54,9.2a159.59,159.59,0,0,1-61.9-12.1,166.39,166.39,0,0,1-49.8-34.1,163.35,163.35,0,0,1-34.1-49.8,156.8,156.8,0,0,1,0-120.8,157.16,157.16,0,0,1,34.1-49.1,154.67,154.67,0,0,1,49.8-33.4,152.82,152.82,0,0,1,61.9-12.8c19.9,0,38.2,3.1,54.7,9.2a173.86,173.86,0,0,1,46.2,24.9l-39.1,46.2a83.27,83.27,0,0,0-27.7-14.9,98.8,98.8,0,0,0-34.1-5.7,96.13,96.13,0,0,0-39.1,7.8,98.26,98.26,0,0,0-31.3,19.9,89.06,89.06,0,0,0-19.9,30.6,97.76,97.76,0,0,0-7.1,37.7,103.23,103.23,0,0,0,7.1,38.4,99.67,99.67,0,0,0,19.9,30.6,108.37,108.37,0,0,0,31.3,20.6,105,105,0,0,0,39.1,7.1,112.38,112.38,0,0,0,34.1-5A97.65,97.65,0,0,0,1756.7,500.5Zm307.8-231.8,36.3,36.3q-27,24.9-51.9,48.3-24.15,23.4-51.2,49.1,32,42.6,62.6,86,30.6,42.6,61.8,85.3h-69.7q-24.15-33.45-49.1-65.4-24.15-32.7-48.3-66.1l-41.2,37.7v93.8h-60.4V21.3h60.4V408.8q39.75-36.3,76.1-69.7Q2026.2,304.9,2064.5,268.7Zm95.6-105.9c0-11.4,4-20.9,12.1-28.4q12.75-11.4,27-11.4c9.5,0,18.2,3.8,26.3,11.4s12.1,17.1,12.1,28.4-4,20.9-12.1,28.4c-8.1,7.1-16.8,10.7-26.3,10.7s-18.5-3.6-27-10.7C2164.1,183.6,2160.1,174.1,2160.1,162.8Zm68.2,410.9h-60.4V276.5h60.4Zm85.4-297.2H2367c.9,14.7,1.7,28.2,2.1,40.5,1,11.8,1.9,23.7,2.8,35.5q16.35-38.4,46.2-61.1,30.6-22.8,74.7-22.8,44.85,0,71.8,24.9t28.4,64V573.6h-61V385.3c-.9-15.2-6.2-28-15.6-38.4q-14.25-16.35-44.8-17.8a96.47,96.47,0,0,0-39.1,7.8,91,91,0,0,0-30.6,19.9,98.66,98.66,0,0,0-20.6,30.6,105,105,0,0,0-7.1,39.1V573.7h-60.4V276.5Zm341.8,149.3q0-33.45,12.1-61.9a152.35,152.35,0,0,1,32.7-49.8,150.42,150.42,0,0,1,48.3-33.4,145.56,145.56,0,0,1,59-12.1c16.1,0,30.3,2.1,42.7,6.4,12.8,4.3,23.5,9.2,32,14.9s15.2,11.4,19.9,17.1q7.8,7.8,9.9,11.4a164.56,164.56,0,0,1,1.4-20.6,182.35,182.35,0,0,0,1.4-21.3h58.3V560.2q0,73.95-43.4,115.2t-117.3,41.2q-25.65,0-46.2-5.7a178.43,178.43,0,0,1-37-13.5,188.94,188.94,0,0,1-30.6-19.9c-9-7.6-18-15.4-27-23.5l39.1-41.2q22,20.55,44.8,32.7,23.4,12.15,55.5,12.1,47.7,0,73.9-22.8t27-63.3V550.9a59.2,59.2,0,0,1,1.4-12.1,63.65,63.65,0,0,0,1.4-10.7,179.2,179.2,0,0,1-16.4,18.5,122.21,122.21,0,0,1-22,17.1,145.45,145.45,0,0,1-29.9,12.1,138,138,0,0,1-38.4,5q-33.45,0-61.1-12.1a156.11,156.11,0,0,1-48.3-32.7,153.22,153.22,0,0,1-32-49.1A166.27,166.27,0,0,1,2655.5,425.8Zm61.2-1.4a103.61,103.61,0,0,0,7.1,38.4,101.07,101.07,0,0,0,20.6,30.6A98.66,98.66,0,0,0,2775,514a111.21,111.21,0,0,0,78.2,0,97.42,97.42,0,0,0,31.3-20.6,93.34,93.34,0,0,0,20.6-30.6,102.85,102.85,0,0,0,7.1-38.4,97.76,97.76,0,0,0-7.1-37.7,85.72,85.72,0,0,0-20.6-30.6,88.36,88.36,0,0,0-31.3-19.9,101.9,101.9,0,0,0-78.2,0,91,91,0,0,0-30.6,19.9,98.66,98.66,0,0,0-20.6,30.6C2719,398.1,2716.7,410.6,2716.7,424.4Z" transform="translate(-13.9 -21.3)" fill="#280749"/></svg>