<?xml version="1.0" encoding="utf-8"?>
<!-- Generator: Adobe Illustrator 22.1.0, SVG Export Plug-In . SVG Version: 6.00 Build 0)  -->
<svg version="1.1" id="Layer_2_1_" xmlns="http://www.w3.org/2000/svg" xmlns:xlink="http://www.w3.org/1999/xlink" x="0px" y="0px"
	 viewBox="0 0 164.7 65.4" style="enable-background:new 0 0 164.7 65.4;" xml:space="preserve">
<style type="text/css">
	.st0{fill:#C92027;}
</style>
<g>
	<g>
		<g>
			<g>
				<path class="st0" d="M24.6,16.1c-4.4-1.3-9.2-1.8-13.6-0.3c-3.7,1.2-6.9,3.8-8.6,7.4c-1.8,4-1.9,8.9-0.3,13
					c1.4,3.7,4.4,6.4,8.1,7.7c2.1,0.8,4.3,1.1,6.6,1c2.6-0.1,5.5-0.4,7.9-1.6v-7.6c-4,1.5-10,1.8-12.7-2.2c-1.3-1.9-1.3-4.5-0.4-6.5
					c0.8-1.9,2.6-3.1,4.5-3.6c2.9-0.8,5.8-0.1,8.6,0.7L24.6,16.1L24.6,16.1z"/>
				<path class="st0" d="M113.4,44.8c3.8,0,6.5-1.4,8.5-3.6v3h9.8V27.6c0-2.6-0.2-5.5-1.7-7.8c-1.2-1.9-3.2-3.2-5.3-3.9
					c-6-2.1-12.8-0.6-18.6,1.3v7.3c3.4-1.3,7.4-2,11.1-1.7c2.7,0.2,4.8,1.7,4.8,4.6v0.5c-6.8-2.4-18.2-1.4-18.2,7.9v0.1
					C103.8,41.6,108,44.8,113.4,44.8z M117.1,38.5c-2.1,0-3.6-1.2-3.6-3.1v-0.1c0-4.4,5.9-3.8,8.6-2.6
					C122.1,36.2,120,38.5,117.1,38.5z"/>
				<path class="st0" d="M73.4,15.8H83v4.3l0.4-0.5c2.8-3.6,7-5.5,11.6-4.2c3.8,1.1,5.9,4.4,6.3,8.3c0.2,1.8,0.1,3.7,0.1,5.5
					c0,3,0,6,0,9c0,2,0,4,0,6h-9.7c0-5.2,0.1-10.4,0-15.5c0-2.3-1-4.6-3.6-5c-2.4-0.4-4.4,1-5,3.3C83,28,83,29.1,83,30.2
					c0,1.6,0,3.2,0,4.8c0,3.1,0,6.1,0,9.2h-9.7L73.4,15.8L73.4,15.8z"/>
				<g>
					<g>
						<path class="st0" d="M70.4,40.6c-3.1,2.1-6.5,3.7-10.3,4.1c-4,0.4-8.1-0.5-11.3-2.8c-4.4,2-9.5,3.6-14.3,2.1
							c-3.6-1.1-5.4-4.3-5.9-7.8c-0.2-1.7-0.1-3.5-0.1-5.3c0-2.9,0-5.8,0-8.8c0-2,0-4.1,0-6.1h9c0,4.5,0.1,9.1,0.2,13.6
							c0.1,2.1-0.1,4.7,1.2,6.4c1.3,1.8,3.8,1.4,5.7,0.9c-4-8.3,0.4-19.4,9.3-22.2c3.7-1.2,8.6-1,11.6,1.7c2.4,2.1,3.1,5.4,2.4,8.4
							c-0.6,2.3-1.9,4.2-3.4,5.9c-2,2.3-4.4,4.2-6.9,6c3.4,2.5,9,0.7,12.8-1.7C70.4,35,70.4,40.6,70.4,40.6z M60.1,28.2
							c1.1-1.4,2.4-3.9,0.7-5.4c-1.1-1-2.9-0.8-4.1-0.1c-3.8,2.1-4.1,6.9-2.2,10.4C56.8,31.5,58.7,29.9,60.1,28.2
							C63.4,24,58.7,29.9,60.1,28.2z"/>
					</g>
					<path class="st0" d="M38.5,6.7c0,2.9-2.4,5.3-5.3,5.3s-5.3-2.4-5.3-5.3s2.4-5.3,5.3-5.3C36,1.4,38.5,3.8,38.5,6.7z"/>
				</g>
			</g>
			<g>
				<path class="st0" d="M136.7,40.6c2.3,0,2.3,3.5,0,3.5S134.4,40.6,136.7,40.6z M136.7,43.9c2,0,1.9-3.2-0.1-3
					C134.7,41,134.8,43.9,136.7,43.9z M136,41.4h0.7c0.8,0,1,1.1,0.2,1.1c0.2,0.3,0.4,0.6,0.6,0.9h-0.3l-0.6-0.9h-0.4v0.9H136V41.4z
					 M136.3,42.3h0.3c0.4,0,0.8-0.2,0.4-0.6c-0.1-0.1-0.6-0.1-0.7-0.1V42.3z"/>
			</g>
		</g>
	</g>
</g>
</svg>
